<?xml version="1.0" encoding="UTF-8" ?>
<!DOCTYPE svg PUBLIC "-//W3C//DTD SVG 1.1//EN" "http://www.w3.org/Graphics/SVG/1.1/DTD/svg11.dtd">
<svg width="512pt" height="512pt" viewBox="0 0 512 512" version="1.1" xmlns="http://www.w3.org/2000/svg">
<g id="#ded869ff">
<path fill="#ded869" opacity="1.00" d=" M 271.01 28.79 C 307.35 27.20 343.70 25.86 380.03 24.10 C 385.59 22.32 389.79 26.19 393.67 29.34 C 413.05 45.64 432.72 61.61 452.24 77.75 C 458.38 82.89 465.03 87.47 470.52 93.34 C 472.38 95.60 471.84 98.90 472.40 101.65 C 476.75 164.48 481.02 227.32 485.58 290.12 C 484.29 297.12 478.81 302.48 475.78 308.77 C 461.37 334.29 446.50 359.54 431.94 384.96 C 427.72 392.07 424.25 399.66 419.33 406.33 C 412.47 410.89 404.62 413.62 397.29 417.29 C 348.52 440.19 299.80 463.18 251.04 486.08 C 243.34 489.67 235.85 493.83 227.72 496.37 C 210.15 497.51 192.57 495.20 174.99 494.91 C 149.61 493.35 124.02 494.20 98.78 491.01 C 67.29 476.44 36.35 460.63 5.03 445.66 C 7.24 383.42 9.91 321.20 12.22 258.97 C 11.39 254.23 14.80 250.70 16.95 246.98 C 45.31 209.31 73.57 171.56 101.86 133.85 C 107.66 126.36 112.71 118.23 119.48 111.55 C 149.93 89.50 181.50 69.02 211.98 47.01 C 220.24 41.33 228.15 34.98 237.29 30.73 C 248.47 29.21 259.76 29.16 271.01 28.79 Z" />
</g>
</svg>
