<?xml version="1.0" encoding="UTF-8" ?>
<!DOCTYPE svg PUBLIC "-//W3C//DTD SVG 1.1//EN" "http://www.w3.org/Graphics/SVG/1.1/DTD/svg11.dtd">
<svg width="512pt" height="512pt" viewBox="0 0 512 512" version="1.1" xmlns="http://www.w3.org/2000/svg">
<g id="#12140fff">
<path fill="#12140f" opacity="1.00" d=" M 0.00 25.53 C 0.05 28.49 0.04 31.46 0.00 34.43 L 0.00 25.53 Z" />
<path fill="#12140f" opacity="1.00" d=" M 88.66 32.63 C 93.38 30.34 99.93 29.86 103.29 34.71 C 108.39 38.38 104.65 46.02 99.55 47.34 C 95.59 47.59 91.63 47.48 87.67 47.44 C 88.10 42.54 87.27 37.42 88.66 32.63 Z" />
<path fill="#12140f" opacity="1.00" d=" M 306.78 42.77 C 309.91 39.86 314.67 41.90 318.47 42.19 C 318.00 45.79 317.55 49.39 317.02 52.98 C 313.59 53.32 310.16 53.76 306.74 54.16 C 305.83 50.51 304.17 46.11 306.78 42.77 Z" />
<path fill="#12140f" opacity="1.00" d=" M 257.41 49.38 C 264.65 46.49 274.04 56.67 267.78 62.78 C 263.67 69.61 253.21 66.24 251.47 59.41 C 249.89 55.14 253.38 50.58 257.41 49.38 Z" />
<path fill="#12140f" opacity="1.00" d=" M 286.66 49.61 C 291.85 47.00 295.65 51.69 299.68 53.96 C 299.91 59.46 298.70 65.06 292.86 67.12 C 283.17 69.36 277.56 53.28 286.66 49.61 Z" />
<path fill="#12140f" opacity="1.00" d=" M 231.38 50.31 C 238.16 47.64 245.56 56.09 242.39 62.35 C 240.00 68.14 230.21 70.35 227.01 63.99 C 221.69 59.46 225.96 52.01 231.38 50.31 Z" />
<path fill="#12140f" opacity="1.00" d=" M 344.32 50.29 C 349.93 48.82 355.17 54.43 354.09 60.06 C 355.03 67.46 343.85 71.74 339.73 65.28 C 334.64 60.69 337.52 51.20 344.32 50.29 Z" />
<path fill="#12140f" opacity="1.00" d=" M 366.45 50.50 C 372.83 47.54 379.15 53.67 378.89 59.86 C 378.13 67.60 366.60 72.64 361.67 65.36 C 355.48 60.93 359.91 51.53 366.45 50.50 Z" />
<path fill="#12140f" opacity="1.00" d=" M 158.83 54.56 C 162.94 54.38 167.04 54.97 170.85 56.56 C 168.89 59.71 171.56 70.07 163.94 67.03 C 155.12 69.56 157.59 59.20 158.83 54.56 Z" />
<path fill="#12140f" opacity="1.00" d=" M 191.31 55.57 C 195.85 54.31 200.72 54.05 204.87 56.65 C 204.17 60.03 203.89 63.58 202.56 66.81 C 200.19 66.88 195.45 67.03 193.08 67.11 C 192.37 63.28 191.78 59.44 191.31 55.57 Z" />
<path fill="#12140f" opacity="1.00" d=" M 320.80 62.81 C 328.79 59.22 336.98 70.76 330.82 76.83 C 326.23 82.14 318.42 78.65 313.75 75.25 C 314.28 70.49 315.60 64.52 320.80 62.81 Z" />
<path fill="#12140f" opacity="1.00" d=" M 385.41 65.37 C 390.23 63.66 395.66 66.99 397.60 71.42 C 398.49 75.07 396.73 78.73 393.95 80.96 C 387.87 86.43 376.46 78.45 379.79 70.79 C 380.87 68.37 382.76 66.09 385.41 65.37 Z" />
<path fill="#12140f" opacity="1.00" d=" M 33.23 78.22 C 37.31 73.64 44.02 74.14 49.11 76.57 C 49.09 81.23 49.05 85.89 49.06 90.55 C 45.44 91.20 41.79 92.13 38.10 91.85 C 32.41 90.78 28.88 82.62 33.23 78.22 Z" />
<path fill="#12140f" opacity="1.00" d=" M 168.34 75.30 C 171.58 74.40 175.00 74.67 178.34 74.51 C 178.47 77.59 178.89 80.68 178.65 83.76 C 175.80 87.67 170.26 86.38 166.21 85.62 C 167.57 82.59 165.83 78.00 168.34 75.30 Z" />
<path fill="#12140f" opacity="1.00" d=" M 206.40 75.35 C 212.95 72.79 220.42 79.00 218.93 85.90 C 217.34 92.55 207.04 94.43 202.97 89.02 C 199.09 84.93 200.69 76.77 206.40 75.35 Z" />
<path fill="#12140f" opacity="1.00" d=" M 240.20 75.58 C 246.20 75.04 251.95 80.55 249.96 86.91 C 247.55 94.43 235.62 94.39 232.60 87.35 C 229.78 81.76 234.63 75.82 240.20 75.58 Z" />
<path fill="#12140f" opacity="1.00" d=" M 287.61 77.93 C 292.84 77.82 298.08 77.73 303.32 77.77 C 303.49 81.12 304.10 84.48 303.70 87.83 C 301.87 92.84 294.75 97.87 290.23 92.77 C 284.61 89.57 286.66 83.01 287.61 77.93 Z" />
<path fill="#12140f" opacity="1.00" d=" M 355.12 82.01 C 358.72 80.96 362.50 80.67 366.24 80.55 C 366.29 84.41 366.36 88.27 366.24 92.13 C 362.72 92.20 359.25 92.24 355.74 92.21 C 355.47 88.81 355.02 85.42 355.12 82.01 Z" />
<path fill="#12140f" opacity="1.00" d=" M 414.32 81.28 C 417.48 79.54 422.70 78.63 424.72 82.30 C 426.74 85.12 426.08 89.32 423.67 91.67 C 419.95 93.19 415.92 92.23 412.16 91.46 C 412.91 88.13 412.70 84.40 414.32 81.28 Z" />
<path fill="#12140f" opacity="1.00" d=" M 334.43 82.43 C 337.74 80.49 341.58 82.06 345.02 82.71 C 344.99 87.25 345.00 91.80 345.02 96.34 C 341.17 97.04 337.22 98.50 333.33 97.66 C 330.67 96.10 329.02 93.31 326.87 91.19 C 329.33 88.25 331.20 84.64 334.43 82.43 Z" />
<path fill="#12140f" opacity="1.00" d=" M 257.05 92.09 C 258.32 88.35 262.26 86.58 265.13 84.23 C 269.27 87.40 275.52 90.56 274.10 97.05 C 274.46 101.31 269.70 103.58 266.26 104.43 C 260.39 103.99 255.46 98.13 257.05 92.09 Z" />
<path fill="#12140f" opacity="1.00" d=" M 396.31 85.40 C 404.58 84.42 407.71 98.08 399.93 100.96 C 394.20 104.39 387.27 98.19 388.17 92.14 C 389.17 88.48 392.60 85.85 396.31 85.40 Z" />
<path fill="#12140f" opacity="1.00" d=" M 191.95 93.16 C 200.19 92.62 204.05 105.68 196.04 109.06 C 189.77 113.23 183.63 106.01 185.01 99.99 C 184.82 96.10 188.77 94.16 191.95 93.16 Z" />
<path fill="#12140f" opacity="1.00" d=" M 151.38 96.31 C 156.66 94.99 160.87 98.70 165.25 100.78 C 164.67 106.13 162.32 113.44 155.92 113.78 C 151.67 113.21 148.44 109.90 144.78 107.98 C 146.04 104.04 146.53 97.76 151.38 96.31 Z" />
<path fill="#12140f" opacity="1.00" d=" M 369.33 96.32 C 375.48 95.77 381.44 102.28 379.55 108.61 C 378.65 114.82 369.64 116.94 365.65 112.35 C 360.71 107.65 362.28 97.90 369.33 96.32 Z" />
<path fill="#12140f" opacity="1.00" d=" M 420.86 100.62 C 424.25 99.17 427.80 98.29 431.38 97.38 C 434.09 102.87 433.18 109.09 431.76 114.82 C 428.08 114.16 424.49 113.44 420.92 112.40 C 420.91 109.45 420.88 103.56 420.86 100.62 Z" />
<path fill="#12140f" opacity="1.00" d=" M 308.47 109.60 C 306.29 103.38 313.62 99.18 318.87 99.99 C 322.15 101.10 325.58 103.21 326.33 106.84 C 327.90 111.13 323.65 114.62 322.17 118.23 C 317.11 117.15 309.67 115.77 308.47 109.60 Z" />
<path fill="#12140f" opacity="1.00" d=" M 207.13 108.12 C 208.22 102.93 214.33 99.40 219.38 101.57 C 223.55 103.36 224.79 108.34 226.46 112.04 C 223.51 114.20 221.01 117.16 217.56 118.53 C 211.49 120.44 205.73 113.98 207.13 108.12 Z" />
<path fill="#12140f" opacity="1.00" d=" M 234.19 113.91 C 234.04 105.21 246.82 101.43 251.70 108.30 C 254.67 112.80 251.56 117.90 249.08 121.74 C 243.60 121.52 235.39 120.68 234.19 113.91 Z" />
<path fill="#12140f" opacity="1.00" d=" M 285.55 106.65 C 289.83 106.12 294.25 105.48 298.32 107.33 C 297.77 110.48 297.31 113.66 296.83 116.83 C 293.69 117.30 290.50 117.78 287.40 118.30 C 285.86 114.61 285.40 110.63 285.55 106.65 Z" />
<path fill="#12140f" opacity="1.00" d=" M 334.97 119.02 C 329.50 113.22 336.15 103.06 343.60 105.48 C 349.65 106.19 350.21 113.77 352.32 118.09 C 347.67 121.48 338.54 126.24 334.97 119.02 Z" />
<path fill="#12140f" opacity="1.00" d=" M 127.90 108.06 C 131.71 107.39 135.55 106.85 139.40 106.42 C 139.37 110.19 140.44 114.21 138.78 117.76 C 135.53 119.53 131.42 119.22 128.04 117.94 C 128.01 115.47 127.94 110.53 127.90 108.06 Z" />
<path fill="#12140f" opacity="1.00" d=" M 391.72 109.68 C 396.34 107.57 401.15 111.46 405.51 112.58 C 404.11 116.46 403.50 121.26 399.65 123.65 C 395.35 126.06 389.78 123.44 387.32 119.58 C 384.67 115.09 389.26 112.36 391.72 109.68 Z" />
<path fill="#12140f" opacity="1.00" d=" M 176.41 112.50 C 181.77 110.60 185.54 115.85 187.02 120.13 C 188.46 126.14 182.59 131.08 177.13 130.90 C 168.35 129.36 166.72 113.78 176.41 112.50 Z" />
<path fill="#12140f" opacity="1.00" d=" M 439.48 112.47 C 447.11 108.80 454.68 118.78 450.27 125.26 C 448.10 129.80 441.68 131.63 437.73 128.28 C 432.21 124.54 432.49 114.35 439.48 112.47 Z" />
<path fill="#12140f" opacity="1.00" d=" M 106.69 115.70 C 110.09 111.61 117.66 112.06 120.07 116.94 C 122.97 122.86 119.51 130.25 113.88 132.94 C 109.23 134.99 105.87 129.86 102.23 127.89 C 102.91 123.71 102.97 118.58 106.69 115.70 Z" />
<path fill="#12140f" opacity="1.00" d=" M 350.71 131.72 C 357.38 126.46 364.91 122.38 372.44 118.49 C 371.73 125.56 369.46 133.09 363.79 137.77 C 357.76 142.56 350.77 146.02 343.48 148.42 C 343.56 142.13 345.53 135.71 350.71 131.72 Z" />
<path fill="#12140f" opacity="1.00" d=" M 201.08 125.05 C 207.18 124.84 213.03 130.64 212.23 136.94 C 209.57 141.43 202.57 146.16 197.98 141.03 C 193.67 139.21 193.72 134.12 194.11 130.24 C 196.15 128.14 198.47 126.42 201.08 125.05 Z" />
<path fill="#12140f" opacity="1.00" d=" M 268.15 125.07 C 270.59 125.03 275.46 124.96 277.90 124.92 C 278.63 128.57 279.24 132.24 279.73 135.93 C 276.70 135.95 270.62 135.97 267.58 135.99 C 267.62 132.34 267.29 128.65 268.15 125.07 Z" />
<path fill="#12140f" opacity="1.00" d=" M 313.81 126.46 C 317.16 125.85 320.53 125.06 323.96 125.17 C 327.46 125.79 330.19 128.39 333.31 129.94 C 331.97 133.74 331.21 139.08 327.04 141.03 C 323.16 142.13 319.05 141.69 315.08 141.53 C 314.71 136.50 314.25 131.48 313.81 126.46 Z" />
<path fill="#12140f" opacity="1.00" d=" M 410.16 127.15 C 411.91 125.67 414.97 124.00 416.90 126.09 C 422.62 131.64 429.43 136.75 432.85 144.15 C 433.75 147.29 432.86 150.52 432.35 153.64 C 424.19 149.58 416.36 144.57 410.20 137.79 C 407.69 134.94 406.65 129.55 410.16 127.15 Z" />
<path fill="#12140f" opacity="1.00" d=" M 457.41 125.37 C 464.32 122.25 469.28 131.77 466.08 137.04 C 464.09 141.02 458.40 143.87 454.75 140.25 C 449.59 136.23 450.71 126.99 457.41 125.37 Z" />
<path fill="#12140f" opacity="1.00" d=" M 156.35 131.32 C 163.28 129.53 171.50 137.26 168.08 144.05 C 164.32 150.74 153.09 149.60 150.94 142.04 C 147.87 137.61 152.20 132.80 156.35 131.32 Z" />
<path fill="#12140f" opacity="1.00" d=" M 388.32 131.27 C 392.88 130.38 397.32 133.83 400.13 136.90 C 404.84 144.86 391.77 153.99 385.29 147.68 C 377.67 144.07 380.39 132.30 388.32 131.27 Z" />
<path fill="#12140f" opacity="1.00" d=" M 223.42 132.38 C 229.23 130.56 237.30 134.48 237.68 141.00 C 237.50 146.31 231.83 149.74 227.04 150.04 C 223.11 149.08 218.58 146.83 217.37 142.62 C 216.05 138.17 219.24 133.60 223.42 132.38 Z" />
<path fill="#12140f" opacity="1.00" d=" M 288.27 135.29 C 292.47 131.60 298.90 133.24 303.43 135.59 C 302.99 138.70 302.62 141.86 302.18 144.98 C 297.58 145.00 293.01 145.02 288.42 145.07 C 287.95 141.84 287.32 138.50 288.27 135.29 Z" />
<path fill="#12140f" opacity="1.00" d=" M 100.36 138.33 C 105.20 136.80 109.27 140.86 111.41 144.63 C 114.85 152.82 102.05 159.81 96.66 153.34 C 91.73 148.76 93.71 140.07 100.36 138.33 Z" />
<path fill="#12140f" opacity="1.00" d=" M 120.18 144.24 C 121.89 140.51 125.98 138.23 130.00 138.18 C 133.77 138.63 136.85 141.23 140.23 142.76 C 139.54 147.86 138.00 154.60 132.32 156.35 C 125.59 159.68 115.96 151.01 120.18 144.24 Z" />
<path fill="#12140f" opacity="1.00" d=" M 473.39 141.31 C 481.12 138.12 489.53 147.70 484.74 154.74 C 479.80 163.91 465.24 155.87 468.16 147.13 C 468.95 144.59 470.77 142.15 473.39 141.31 Z" />
<path fill="#12140f" opacity="1.00" d=" M 254.32 143.28 C 260.88 141.86 268.14 149.68 264.04 156.01 C 260.77 163.78 248.10 163.56 245.49 155.56 C 243.50 149.15 248.90 144.94 254.32 143.28 Z" />
<path fill="#12140f" opacity="1.00" d=" M 173.04 155.14 C 174.77 150.70 177.77 144.67 183.89 147.00 C 191.37 150.08 190.43 158.79 188.62 165.13 C 183.94 165.09 179.28 165.06 174.61 165.05 C 173.64 161.88 171.67 158.49 173.04 155.14 Z" />
<path fill="#12140f" opacity="1.00" d=" M 363.38 165.12 C 359.92 157.81 363.94 144.62 373.90 147.06 C 380.52 149.72 379.32 158.85 379.06 164.63 C 373.82 164.81 368.61 164.97 363.38 165.12 Z" />
<path fill="#12140f" opacity="1.00" d=" M 314.61 148.56 C 318.72 148.54 322.54 151.63 323.48 155.60 C 324.61 162.80 315.20 170.57 308.89 165.14 C 302.45 160.21 306.91 149.19 314.61 148.56 Z" />
<path fill="#12140f" opacity="1.00" d=" M 276.41 150.38 C 286.27 146.24 293.84 164.36 283.03 167.06 C 278.30 169.79 272.29 166.01 270.64 161.33 C 268.72 156.73 271.99 151.66 276.41 150.38 Z" />
<path fill="#12140f" opacity="1.00" d=" M 445.30 151.26 C 448.24 150.06 451.55 150.39 454.63 150.91 C 454.87 153.67 455.35 159.19 455.59 161.95 C 450.97 161.85 446.29 161.98 441.86 160.50 C 443.01 157.57 442.97 153.72 445.30 151.26 Z" />
<path fill="#12140f" opacity="1.00" d=" M 400.50 152.92 C 405.48 152.95 410.49 152.98 415.49 153.03 C 414.46 157.78 416.81 164.83 411.64 167.80 C 407.92 168.60 403.60 167.92 400.98 165.01 C 397.70 161.82 399.99 156.83 400.50 152.92 Z" />
<path fill="#12140f" opacity="1.00" d=" M 141.06 160.93 C 146.61 159.88 152.24 159.28 157.88 158.96 C 155.96 162.52 153.75 165.99 150.81 168.80 C 148.03 171.29 144.10 170.33 140.81 169.74 C 140.89 166.80 140.97 163.86 141.06 160.93 Z" />
<path fill="#12140f" opacity="1.00" d=" M 206.42 163.38 C 213.06 160.62 219.56 167.53 219.02 173.85 C 216.77 178.18 211.26 182.74 206.24 179.83 C 199.25 177.33 198.56 165.10 206.42 163.38 Z" />
<path fill="#12140f" opacity="1.00" d=" M 338.04 163.65 C 342.01 163.71 347.08 161.60 349.95 165.26 C 350.55 168.63 350.35 174.18 346.18 175.31 C 342.89 176.67 339.62 174.61 336.63 173.43 C 337.05 170.15 337.59 166.92 338.04 163.65 Z" />
<path fill="#12140f" opacity="1.00" d=" M 423.37 163.38 C 428.02 162.60 431.50 166.05 435.37 167.84 C 434.41 171.71 433.45 177.66 428.59 178.61 C 423.08 180.86 418.52 175.71 417.19 171.01 C 417.58 167.58 419.98 164.34 423.37 163.38 Z" />
<path fill="#12140f" opacity="1.00" d=" M 105.11 164.77 C 110.32 164.56 116.81 162.74 120.84 167.15 C 124.93 171.29 119.72 179.38 114.12 176.79 C 108.33 176.09 106.31 169.51 105.11 164.77 Z" />
<path fill="#12140f" opacity="1.00" d=" M 292.37 168.36 C 296.04 165.90 300.26 168.20 303.80 169.68 C 302.30 172.50 304.28 177.25 301.60 179.68 C 298.58 180.95 294.32 181.80 291.81 179.21 C 289.47 176.12 289.41 171.06 292.37 168.36 Z" />
<path fill="#12140f" opacity="1.00" d=" M 380.55 167.90 C 398.08 177.03 414.89 188.42 434.48 192.71 C 432.96 196.47 431.80 200.98 427.97 203.08 C 423.22 201.64 419.36 198.27 414.89 196.23 C 405.96 191.27 395.48 189.19 387.67 182.32 C 383.98 178.27 382.60 172.82 380.55 167.90 Z" />
<path fill="#12140f" opacity="1.00" d=" M 230.00 169.28 C 233.58 170.06 238.14 169.37 241.06 172.17 C 241.62 177.39 238.94 183.83 233.67 185.65 C 230.21 187.19 228.36 182.60 226.28 180.69 C 226.56 176.64 228.60 173.01 230.00 169.28 Z" />
<path fill="#12140f" opacity="1.00" d=" M 437.91 180.85 C 449.13 177.43 460.64 174.82 471.44 170.11 C 471.14 176.40 470.96 182.83 468.59 188.76 C 466.39 185.37 464.64 181.72 462.81 178.13 C 456.34 182.61 449.72 186.87 443.11 191.14 C 441.38 187.70 439.66 184.27 437.91 180.85 Z" />
<path fill="#12140f" opacity="1.00" d=" M 171.80 170.73 C 176.60 171.66 182.94 172.96 184.73 178.33 C 186.70 182.21 183.83 186.48 180.67 188.68 C 174.57 192.73 165.21 185.66 167.68 178.55 C 168.73 175.79 170.44 173.34 171.80 170.73 Z" />
<path fill="#12140f" opacity="1.00" d=" M 85.15 175.89 C 89.25 175.51 94.98 171.89 97.78 176.22 C 100.88 180.60 100.81 186.26 102.08 191.29 C 105.29 193.97 109.56 196.81 107.94 201.90 C 106.35 205.66 101.76 206.74 98.39 208.43 C 98.33 204.31 99.57 199.95 97.80 196.07 C 94.30 188.88 87.45 183.74 85.15 175.89 Z" />
<path fill="#12140f" opacity="1.00" d=" M 314.34 185.61 C 311.08 177.07 324.10 171.40 329.34 177.66 C 333.96 181.84 331.09 188.71 328.46 193.20 C 323.31 192.44 316.03 191.63 314.34 185.61 Z" />
<path fill="#12140f" opacity="1.00" d=" M 250.29 177.24 C 253.62 175.31 257.73 176.84 261.34 177.15 C 261.08 180.75 260.97 184.40 260.69 188.01 C 257.33 187.97 253.47 189.55 250.30 187.73 C 247.07 185.18 247.99 180.08 250.29 177.24 Z" />
<path fill="#12140f" opacity="1.00" d=" M 362.57 181.77 C 367.09 182.51 372.91 183.07 375.24 187.77 C 378.26 191.72 376.31 198.14 371.62 199.71 C 366.23 201.52 362.07 197.38 357.78 195.13 C 358.86 190.50 360.67 186.11 362.57 181.77 Z" />
<path fill="#12140f" opacity="1.00" d=" M 270.00 186.92 C 273.46 186.02 276.92 185.26 280.43 184.54 C 282.66 190.30 285.23 198.41 279.71 202.94 C 275.77 203.36 272.16 201.87 268.69 200.32 C 269.10 195.84 269.56 191.38 270.00 186.92 Z" />
<path fill="#12140f" opacity="1.00" d=" M 155.20 188.51 C 165.80 186.36 168.71 202.17 159.99 206.01 C 153.49 211.45 143.88 202.49 145.93 195.10 C 147.96 191.83 151.23 188.92 155.20 188.51 Z" />
<path fill="#12140f" opacity="1.00" d=" M 192.65 191.65 C 196.04 187.66 201.74 190.18 206.08 190.24 C 206.06 195.03 206.05 199.84 206.07 204.64 C 202.33 204.92 197.98 206.89 194.75 204.28 C 190.99 201.48 188.75 195.30 192.65 191.65 Z" />
<path fill="#12140f" opacity="1.00" d=" M 343.98 188.15 C 346.98 189.29 352.42 188.15 354.10 191.92 C 356.46 197.45 353.60 204.85 347.86 206.88 C 344.08 207.32 340.54 204.18 339.47 200.71 C 339.58 196.18 342.13 192.16 343.98 188.15 Z" />
<path fill="#12140f" opacity="1.00" d=" M 71.47 189.63 C 74.69 189.98 77.92 190.44 81.13 190.86 C 81.23 194.56 81.28 198.24 81.21 201.96 C 78.27 200.64 73.40 201.87 71.23 198.72 C 69.88 195.83 71.13 192.61 71.47 189.63 Z" />
<path fill="#12140f" opacity="1.00" d=" M 117.41 190.59 C 121.99 190.11 126.61 189.95 131.21 189.77 C 130.95 194.99 130.85 200.23 130.26 205.43 C 125.52 205.45 119.97 206.60 116.38 202.63 C 113.08 199.45 112.44 192.35 117.41 190.59 Z" />
<path fill="#12140f" opacity="1.00" d=" M 457.39 192.39 C 465.40 189.66 470.17 200.92 465.23 206.23 C 461.16 209.72 453.05 209.00 451.83 203.05 C 449.79 198.67 453.01 193.62 457.39 192.39 Z" />
<path fill="#12140f" opacity="1.00" d=" M 218.93 197.53 C 223.00 196.44 228.26 193.65 231.82 197.17 C 235.57 200.01 235.88 206.21 232.35 209.35 C 228.90 213.15 223.24 211.59 218.79 210.82 C 218.84 206.38 218.88 201.95 218.93 197.53 Z" />
<path fill="#12140f" opacity="1.00" d=" M 295.81 195.53 C 299.85 195.70 305.13 194.24 307.70 198.30 C 310.31 201.60 308.96 205.80 307.58 209.28 C 303.46 209.07 299.34 208.86 295.23 208.66 C 295.41 204.27 295.61 199.91 295.81 195.53 Z" />
<path fill="#12140f" opacity="1.00" d=" M 385.39 196.35 C 392.83 193.43 397.46 202.47 394.43 208.40 C 392.22 213.95 382.65 214.15 380.60 208.36 C 379.20 204.14 380.34 197.54 385.39 196.35 Z" />
<path fill="#12140f" opacity="1.00" d=" M 322.63 204.60 C 328.32 200.25 336.80 206.45 336.75 212.88 C 335.84 216.20 333.76 219.05 332.28 222.13 C 328.42 220.95 322.97 221.46 320.28 217.72 C 317.84 213.56 318.19 207.23 322.63 204.60 Z" />
<path fill="#12140f" opacity="1.00" d=" M 249.28 207.50 C 251.81 207.25 256.87 206.75 259.39 206.50 C 259.17 210.25 261.47 215.30 257.71 217.75 C 254.41 219.35 250.55 218.06 247.08 217.70 C 247.83 214.34 247.70 210.65 249.28 207.50 Z" />
<path fill="#12140f" opacity="1.00" d=" M 364.44 208.46 C 370.16 205.66 377.56 212.01 375.99 218.01 C 375.74 225.20 364.73 227.87 360.67 222.31 C 355.81 218.29 358.21 209.41 364.44 208.46 Z" />
<path fill="#12140f" opacity="1.00" d=" M 403.17 208.75 C 409.70 207.48 416.14 208.37 421.33 212.87 C 420.25 217.07 419.27 222.84 414.55 224.60 C 410.13 225.65 405.87 223.99 401.76 222.65 C 402.26 218.02 402.74 213.39 403.17 208.75 Z" />
<path fill="#12140f" opacity="1.00" d=" M 172.41 210.28 C 179.38 207.44 189.10 215.52 184.71 222.69 C 182.55 227.80 175.58 228.34 171.30 225.70 C 166.14 222.15 166.98 213.20 172.41 210.28 Z" />
<path fill="#12140f" opacity="1.00" d=" M 69.62 212.03 C 72.78 211.98 75.98 212.03 79.15 212.00 C 79.39 215.19 79.64 218.38 79.84 221.58 C 76.48 221.74 73.12 221.92 69.76 222.09 C 69.71 218.73 69.65 215.38 69.62 212.03 Z" />
<path fill="#12140f" opacity="1.00" d=" M 437.23 213.30 C 440.66 213.23 444.15 213.17 447.60 213.18 C 447.71 215.86 447.93 221.22 448.03 223.90 C 445.13 224.21 442.18 224.53 439.29 224.87 C 438.53 224.16 437.78 223.45 437.03 222.75 C 437.06 219.58 437.16 216.46 437.23 213.30 Z" />
<path fill="#12140f" opacity="1.00" d=" M 110.76 214.75 C 116.19 211.82 122.80 215.36 124.14 220.99 C 125.77 225.09 121.55 228.63 118.36 230.41 C 113.14 232.56 108.97 228.26 104.75 226.14 C 105.82 222.22 106.17 216.44 110.76 214.75 Z" />
<path fill="#12140f" opacity="1.00" d=" M 140.39 216.40 C 147.84 214.57 157.01 225.35 150.68 231.67 C 146.11 236.65 137.49 233.68 135.03 227.94 C 132.62 223.47 136.14 218.14 140.39 216.40 Z" />
<path fill="#12140f" opacity="1.00" d=" M 270.00 216.00 C 273.99 216.00 277.99 216.00 282.00 216.00 C 282.00 218.75 282.00 224.25 282.00 227.00 C 277.99 226.99 273.99 226.99 270.00 227.00 C 270.00 224.25 270.00 218.75 270.00 216.00 Z" />
<path fill="#12140f" opacity="1.00" d=" M 462.45 217.34 C 467.48 215.51 474.87 219.90 472.85 225.87 C 471.06 232.15 460.89 232.56 458.61 226.36 C 456.53 222.52 459.38 219.08 462.45 217.34 Z" />
<path fill="#12140f" opacity="1.00" d=" M 335.82 235.01 C 336.53 230.01 338.35 223.27 344.11 222.10 C 348.23 222.11 351.52 225.14 355.12 226.72 C 354.55 232.04 353.26 239.62 346.94 240.86 C 342.72 240.15 339.47 236.98 335.82 235.01 Z" />
<path fill="#12140f" opacity="1.00" d=" M 197.38 223.37 C 201.98 222.56 208.23 225.10 208.54 230.38 C 209.46 235.00 205.96 238.44 204.21 242.26 C 200.01 241.13 194.02 240.63 192.03 235.93 C 189.60 231.26 192.29 224.81 197.38 223.37 Z" />
<path fill="#12140f" opacity="1.00" d=" M 89.29 226.41 C 96.05 225.25 100.94 233.42 98.36 239.33 C 96.95 242.74 93.16 245.70 89.32 244.73 C 84.26 243.74 80.80 238.27 81.34 233.31 C 82.78 230.07 85.61 226.90 89.29 226.41 Z" />
<path fill="#12140f" opacity="1.00" d=" M 227.30 226.45 C 235.37 224.94 241.15 237.40 234.30 242.33 C 229.97 247.68 221.46 243.83 219.99 237.93 C 217.78 232.84 222.00 226.96 227.30 226.45 Z" />
<path fill="#12140f" opacity="1.00" d=" M 302.40 226.35 C 311.02 222.65 317.20 236.55 310.28 241.30 C 305.88 245.11 299.53 240.59 297.93 236.04 C 295.43 232.33 298.47 227.34 302.40 226.35 Z" />
<path fill="#12140f" opacity="1.00" d=" M 392.85 227.99 C 395.46 227.74 397.98 227.44 400.63 227.21 C 401.92 228.30 403.24 229.38 404.57 230.46 C 404.03 234.77 403.80 240.10 399.97 242.99 C 395.76 246.13 389.16 241.13 390.41 236.22 C 390.94 233.40 391.97 230.71 392.85 227.99 Z" />
<path fill="#12140f" opacity="1.00" d=" M 416.63 231.74 C 420.34 231.80 424.14 231.33 427.80 232.18 C 430.08 234.78 430.02 238.63 428.65 241.65 C 425.94 243.99 421.86 243.60 418.65 244.65 C 417.78 240.38 417.26 236.03 416.63 231.74 Z" />
<path fill="#12140f" opacity="1.00" d=" M 367.69 232.70 C 371.67 232.82 375.67 232.87 379.61 233.51 C 379.18 237.42 378.69 241.36 377.58 245.15 C 374.11 245.07 370.76 245.08 367.32 245.05 C 366.57 240.94 366.93 236.77 367.69 232.70 Z" />
<path fill="#12140f" opacity="1.00" d=" M 167.33 235.32 C 174.47 233.73 182.32 242.75 177.35 249.31 C 173.59 256.32 164.31 251.82 159.77 248.13 C 160.72 243.43 161.91 236.93 167.33 235.32 Z" />
<path fill="#12140f" opacity="1.00" d=" M 251.31 234.73 C 256.45 235.55 264.00 236.25 265.62 242.40 C 268.46 246.89 263.75 249.63 261.27 252.28 C 258.07 255.34 253.15 253.23 250.71 250.28 C 245.55 246.32 250.38 239.52 251.31 234.73 Z" />
<path fill="#12140f" opacity="1.00" d=" M 450.33 238.24 C 453.75 236.49 457.81 237.94 461.43 238.34 C 461.06 242.03 460.66 245.75 460.15 249.43 C 455.67 249.27 451.08 249.27 446.92 247.41 C 448.11 244.43 448.36 240.90 450.33 238.24 Z" />
<path fill="#12140f" opacity="1.00" d=" M 127.69 243.77 C 131.18 243.84 135.93 242.08 138.49 245.27 C 138.76 247.79 139.29 252.83 139.56 255.35 C 135.56 255.09 129.99 257.76 127.43 253.71 C 127.21 250.38 127.45 247.08 127.69 243.77 Z" />
<path fill="#12140f" opacity="1.00" d=" M 318.96 250.02 C 316.86 242.07 327.02 243.02 331.73 244.44 C 331.15 248.25 331.01 252.25 329.61 255.90 C 325.54 255.60 315.84 258.28 318.96 250.02 Z" />
<path fill="#12140f" opacity="1.00" d=" M 346.94 244.22 C 352.62 243.97 358.10 249.06 357.06 255.06 C 356.94 260.62 349.34 265.46 344.65 261.37 C 337.96 257.37 337.62 245.37 346.94 244.22 Z" />
<path fill="#12140f" opacity="1.00" d=" M 276.42 245.41 C 282.64 242.56 289.98 249.67 288.04 255.99 C 286.69 262.86 276.80 265.27 272.71 259.28 C 267.66 255.33 270.57 246.73 276.42 245.41 Z" />
<path fill="#12140f" opacity="1.00" d=" M 387.39 248.45 C 396.03 246.00 398.46 258.90 394.26 264.26 C 390.34 270.00 379.74 264.56 381.92 257.97 C 380.39 253.71 383.40 249.42 387.39 248.45 Z" />
<path fill="#12140f" opacity="1.00" d=" M 106.44 250.39 C 114.61 246.29 121.95 257.65 117.10 264.07 C 114.35 269.24 105.51 269.55 102.97 264.02 C 99.14 259.62 101.31 252.51 106.44 250.39 Z" />
<path fill="#12140f" opacity="1.00" d=" M 407.93 250.19 C 412.02 251.77 419.25 253.67 416.58 259.82 C 414.36 267.82 410.09 275.12 407.45 283.00 C 404.47 279.36 401.43 275.78 398.62 272.02 C 402.33 270.87 406.07 269.85 409.81 268.82 C 408.96 262.64 408.28 256.43 407.93 250.19 Z" />
<path fill="#12140f" opacity="1.00" d=" M 185.33 253.32 C 189.66 252.19 193.83 255.54 196.08 258.93 C 198.88 263.99 194.92 270.36 189.89 271.89 C 184.34 272.23 179.73 267.18 178.97 261.96 C 178.79 258.08 181.81 254.60 185.33 253.32 Z" />
<path fill="#12140f" opacity="1.00" d=" M 292.86 260.89 C 294.26 256.37 300.20 251.80 304.70 255.29 C 310.33 259.02 310.13 266.27 308.67 272.16 C 303.65 272.08 298.66 272.03 293.65 271.99 C 293.09 268.34 292.24 264.57 292.86 260.89 Z" />
<path fill="#12140f" opacity="1.00" d=" M 430.50 253.91 C 434.48 253.94 442.44 253.99 446.42 254.01 C 445.78 258.67 447.02 263.83 445.20 268.27 C 441.52 272.38 434.72 270.12 431.71 266.29 C 427.79 263.27 429.97 258.00 430.50 253.91 Z" />
<path fill="#12140f" opacity="1.00" d=" M 474.33 254.35 C 477.22 253.69 480.26 254.78 482.65 256.38 C 486.14 258.95 485.31 264.63 482.35 267.35 C 479.00 271.11 472.48 270.24 469.33 266.66 C 466.26 262.32 469.17 255.38 474.33 254.35 Z" />
<path fill="#12140f" opacity="1.00" d=" M 221.40 255.29 C 226.77 253.50 230.92 257.63 235.23 259.86 C 234.06 263.82 233.79 270.52 228.59 271.63 C 222.29 274.42 213.73 268.07 216.16 261.14 C 217.09 258.65 219.00 256.45 221.40 255.29 Z" />
<path fill="#12140f" opacity="1.00" d=" M 80.29 270.72 C 75.33 263.84 82.57 253.06 90.84 256.11 C 98.39 258.84 97.18 267.44 95.57 273.60 C 90.75 272.35 84.20 274.64 80.29 270.72 Z" />
<path fill="#12140f" opacity="1.00" d=" M 147.78 256.87 C 152.37 257.75 157.90 258.03 160.92 262.24 C 160.69 265.18 162.12 269.25 159.82 271.83 C 157.55 274.68 153.42 274.93 150.10 274.88 C 146.14 274.34 144.24 270.19 143.06 266.85 C 143.26 263.06 146.23 260.15 147.78 256.87 Z" />
<path fill="#12140f" opacity="1.00" d=" M 364.53 258.57 C 370.65 255.65 376.46 261.16 376.97 267.01 C 376.62 273.15 369.08 277.84 363.62 274.42 C 356.97 271.59 357.06 260.30 364.53 258.57 Z" />
<path fill="#12140f" opacity="1.00" d=" M 243.69 266.70 C 247.02 262.58 252.70 265.03 257.09 265.60 C 257.02 269.36 256.88 276.87 256.80 280.63 C 256.07 281.63 255.34 282.64 254.62 283.65 C 249.00 283.62 241.90 281.49 240.58 275.21 C 239.30 272.00 241.19 268.71 243.69 266.70 Z" />
<path fill="#12140f" opacity="1.00" d=" M 342.32 268.29 C 348.04 267.60 355.22 274.12 351.99 279.94 C 348.39 287.88 333.24 283.27 336.10 274.10 C 336.58 271.02 339.32 268.75 342.32 268.29 Z" />
<path fill="#12140f" opacity="1.00" d=" M 122.73 271.74 C 126.72 268.24 132.32 269.81 137.05 270.55 C 137.03 275.46 137.01 280.39 137.00 285.32 C 132.03 286.03 125.97 288.28 122.03 283.99 C 117.59 281.17 118.68 274.41 122.73 271.74 Z" />
<path fill="#12140f" opacity="1.00" d=" M 268.55 275.97 C 272.75 272.70 278.28 265.74 283.99 271.00 C 292.71 274.49 286.68 289.43 277.99 286.97 C 272.37 286.72 270.20 280.27 268.55 275.97 Z" />
<path fill="#12140f" opacity="1.00" d=" M 456.39 270.34 C 464.34 267.42 474.29 279.43 466.29 285.32 C 462.03 290.72 453.72 286.59 451.95 281.03 C 449.74 277.19 452.05 271.43 456.39 270.34 Z" />
<path fill="#12140f" opacity="1.00" d=" M 381.03 276.99 C 384.26 276.67 387.48 276.31 390.72 275.99 C 391.51 276.77 392.31 277.55 393.11 278.33 C 392.85 281.58 392.62 284.87 392.22 288.12 C 388.49 288.43 384.76 288.54 381.03 288.32 C 381.03 285.48 381.03 279.82 381.03 276.99 Z" />
<path fill="#12140f" opacity="1.00" d=" M 426.32 286.60 C 424.00 281.70 427.65 277.92 431.13 275.35 C 435.44 286.64 446.41 293.13 453.54 302.41 C 442.51 302.63 431.25 296.61 426.32 286.60 Z" />
<path fill="#12140f" opacity="1.00" d=" M 163.62 288.35 C 159.34 280.33 172.14 273.22 177.83 279.17 C 182.98 283.20 180.33 290.56 177.46 295.20 C 172.54 294.30 165.70 293.93 163.62 288.35 Z" />
<path fill="#12140f" opacity="1.00" d=" M 313.57 278.97 C 317.84 278.97 322.11 278.98 326.40 278.98 C 326.63 282.78 329.13 287.86 325.71 290.71 C 322.00 292.77 316.32 293.02 313.25 289.71 C 311.71 286.33 313.27 282.48 313.57 278.97 Z" />
<path fill="#12140f" opacity="1.00" d=" M 197.48 281.71 C 201.98 281.71 206.51 281.67 210.96 282.49 C 210.82 287.79 208.61 296.27 201.11 293.90 C 195.43 293.12 197.88 285.88 197.48 281.71 Z" />
<path fill="#12140f" opacity="1.00" d=" M 100.41 282.49 C 107.69 279.72 115.65 290.16 109.77 295.78 C 106.95 300.64 99.56 301.26 96.17 296.83 C 91.86 292.25 93.59 283.19 100.41 282.49 Z" />
<path fill="#12140f" opacity="1.00" d=" M 294.80 282.02 C 298.77 282.70 304.91 282.83 306.38 287.66 C 308.35 292.35 304.95 296.37 303.29 300.40 C 299.80 298.94 294.16 298.64 292.59 294.36 C 290.88 290.00 292.82 285.77 294.80 282.02 Z" />
<path fill="#12140f" opacity="1.00" d=" M 403.36 287.37 C 409.52 283.56 418.88 290.22 416.32 297.45 C 415.26 300.24 413.50 302.70 412.15 305.34 C 406.96 304.28 402.31 301.77 397.74 299.22 C 398.88 295.21 399.22 289.70 403.36 287.37 Z" />
<path fill="#12140f" opacity="1.00" d=" M 361.32 288.49 C 367.59 287.65 374.11 292.99 371.69 299.66 C 368.30 306.20 357.38 304.31 355.35 297.63 C 353.93 293.50 356.91 288.56 361.32 288.49 Z" />
<path fill="#12140f" opacity="1.00" d=" M 143.52 291.38 C 149.78 288.46 153.39 294.89 155.84 299.37 C 152.19 301.05 148.55 302.75 144.94 304.51 C 145.84 298.46 141.64 300.40 139.05 301.05 C 133.07 303.20 127.17 305.56 121.04 307.28 C 121.03 302.80 121.03 298.34 121.03 293.87 C 126.75 295.14 132.51 296.23 138.21 297.62 C 139.80 295.40 141.27 292.99 143.52 291.38 Z" />
<path fill="#12140f" opacity="1.00" d=" M 222.37 291.24 C 227.76 289.53 231.92 293.61 236.23 295.86 C 235.08 299.84 234.77 305.33 230.63 307.64 C 226.56 309.96 221.44 307.62 218.74 304.25 C 215.39 300.11 217.82 293.38 222.37 291.24 Z" />
<path fill="#12140f" opacity="1.00" d=" M 247.01 289.73 C 251.65 291.12 255.89 293.44 260.13 295.74 C 259.10 300.05 259.16 306.13 254.63 308.63 C 249.10 311.97 242.81 306.12 241.56 300.79 C 241.95 296.58 245.17 293.34 247.01 289.73 Z" />
<path fill="#12140f" opacity="1.00" d=" M 331.28 298.35 C 332.60 293.92 339.18 297.36 342.07 295.46 C 342.45 299.33 342.82 303.21 343.17 307.09 C 339.24 307.49 335.33 307.90 331.40 308.28 C 330.65 305.04 329.72 301.50 331.28 298.35 Z" />
<path fill="#12140f" opacity="1.00" d=" M 459.27 304.10 C 459.80 298.61 465.72 296.27 470.07 294.50 C 473.77 298.83 479.22 304.57 475.81 310.79 C 473.27 312.55 470.62 315.95 467.13 314.91 C 462.42 313.72 459.31 308.79 459.27 304.10 Z" />
<path fill="#12140f" opacity="1.00" d=" M 266.75 310.16 C 267.26 304.10 270.91 295.24 278.64 297.29 C 281.95 299.00 285.78 301.93 285.93 305.98 C 285.52 309.63 283.29 313.51 279.61 314.65 C 274.58 316.15 270.83 312.13 266.75 310.16 Z" />
<path fill="#12140f" opacity="1.00" d=" M 304.74 307.85 C 306.10 303.36 311.71 300.54 316.05 302.92 C 320.99 305.40 321.03 312.76 317.60 316.57 C 314.08 318.02 310.14 317.91 306.43 318.58 C 305.77 315.07 303.43 311.46 304.74 307.85 Z" />
<path fill="#12140f" opacity="1.00" d=" M 378.06 308.09 C 379.07 303.02 385.61 302.50 389.30 300.59 C 392.01 304.59 396.19 308.44 394.93 313.90 C 393.77 319.05 386.22 323.41 382.05 318.96 C 378.35 316.83 377.80 311.88 378.06 308.09 Z" />
<path fill="#12140f" opacity="1.00" d=" M 161.29 304.41 C 168.36 303.66 175.58 312.98 169.78 318.78 C 165.16 326.85 152.11 320.30 154.02 311.99 C 154.28 308.20 157.56 304.92 161.29 304.41 Z" />
<path fill="#12140f" opacity="1.00" d=" M 179.62 314.40 C 181.70 309.35 185.58 304.91 191.40 304.61 C 191.61 307.38 192.03 312.91 192.24 315.68 C 199.75 315.75 209.09 313.57 214.58 320.23 C 211.44 323.18 208.34 326.16 205.20 329.12 C 197.75 322.50 188.81 318.06 179.62 314.40 Z" />
<path fill="#12140f" opacity="1.00" d=" M 415.33 317.60 C 412.11 310.98 420.86 303.68 426.85 307.11 C 430.60 308.91 433.84 313.37 432.69 317.68 C 431.07 321.53 426.95 323.39 424.00 326.05 C 421.04 323.38 416.85 321.54 415.33 317.60 Z" />
<path fill="#12140f" opacity="1.00" d=" M 359.61 307.53 C 364.48 308.08 369.23 312.12 369.82 317.10 C 369.68 321.39 365.87 324.88 361.87 325.83 C 355.83 326.28 350.12 319.97 351.85 313.98 C 352.55 310.34 356.36 308.43 359.61 307.53 Z" />
<path fill="#12140f" opacity="1.00" d=" M 85.40 308.40 C 88.81 308.18 92.23 308.02 95.65 307.81 C 96.35 311.50 96.50 315.25 96.36 319.00 C 93.50 319.00 87.79 318.99 84.93 318.99 C 85.04 316.35 85.28 311.05 85.40 308.40 Z" />
<path fill="#12140f" opacity="1.00" d=" M 102.61 313.06 C 105.89 312.68 109.16 312.21 112.43 311.79 C 113.26 315.86 113.73 319.97 114.35 324.09 C 110.48 324.18 106.62 324.23 102.75 324.23 C 102.65 320.51 102.52 316.78 102.61 313.06 Z" />
<path fill="#12140f" opacity="1.00" d=" M 127.70 312.49 C 131.60 312.84 135.51 313.37 139.29 314.43 C 139.08 317.81 138.92 321.28 138.71 324.68 C 134.81 324.69 130.91 324.69 127.01 324.67 C 126.75 320.59 127.07 316.52 127.70 312.49 Z" />
<path fill="#12140f" opacity="1.00" d=" M 239.39 314.33 C 245.50 311.47 251.44 318.11 250.86 323.88 C 249.98 327.66 246.38 331.53 241.98 329.99 C 234.44 329.94 231.87 316.41 239.39 314.33 Z" />
<path fill="#12140f" opacity="1.00" d=" M 483.86 319.85 C 486.81 319.27 489.77 318.77 492.77 318.52 C 493.33 323.86 489.72 327.42 485.24 328.95 C 484.77 325.92 484.28 322.86 483.86 319.85 Z" />
<path fill="#12140f" opacity="1.00" d=" M 277.69 321.71 C 282.32 322.66 288.37 323.61 290.42 328.63 C 293.33 334.88 286.98 342.46 280.35 340.71 C 277.73 339.54 275.35 337.46 274.06 334.90 C 272.24 330.16 276.01 325.83 277.69 321.71 Z" />
<path fill="#12140f" opacity="1.00" d=" M 328.39 323.24 C 333.33 321.60 339.17 324.43 340.61 329.41 C 342.21 334.53 337.99 338.30 335.99 342.42 C 331.47 340.79 327.28 338.47 323.16 336.08 C 323.90 331.69 323.94 325.79 328.39 323.24 Z" />
<path fill="#12140f" opacity="1.00" d=" M 397.71 326.71 C 401.30 321.86 408.40 324.58 411.08 328.93 C 413.04 332.70 411.99 337.03 411.36 340.99 C 407.36 341.02 399.36 341.09 395.36 341.13 C 394.62 336.15 392.48 330.08 397.71 326.71 Z" />
<path fill="#12140f" opacity="1.00" d=" M 450.28 327.09 C 452.70 327.03 457.52 326.92 459.93 326.87 C 460.60 330.66 461.14 334.49 461.55 338.34 C 456.61 338.43 451.47 338.89 447.03 336.32 C 448.04 333.24 448.52 329.88 450.28 327.09 Z" />
<path fill="#12140f" opacity="1.00" d=" M 302.69 330.65 C 305.66 328.81 310.57 327.93 312.43 331.61 C 314.82 336.18 315.02 343.20 310.70 346.71 C 306.97 349.48 302.80 345.79 299.40 344.20 C 300.85 340.02 297.85 333.14 302.69 330.65 Z" />
<path fill="#12140f" opacity="1.00" d=" M 80.49 331.69 C 83.59 331.59 86.79 331.21 89.83 332.13 C 90.53 335.61 90.28 339.21 90.36 342.75 C 87.87 341.17 82.19 343.26 80.60 339.71 C 80.47 336.98 80.46 334.39 80.49 331.69 Z" />
<path fill="#12140f" opacity="1.00" d=" M 426.19 333.47 C 433.57 332.01 440.14 342.21 435.04 348.02 C 431.78 354.87 421.56 351.32 419.98 344.95 C 417.36 340.21 420.94 334.02 426.19 333.47 Z" />
<path fill="#12140f" opacity="1.00" d=" M 364.77 336.87 C 369.32 335.43 374.20 335.38 378.95 335.00 C 378.83 337.71 378.59 343.13 378.47 345.84 C 377.32 350.12 373.44 353.54 368.98 353.67 C 361.73 352.53 359.18 341.28 364.77 336.87 Z" />
<path fill="#12140f" opacity="1.00" d=" M 108.65 336.60 C 119.24 331.97 122.40 349.39 114.65 353.74 C 111.22 353.76 107.85 353.19 104.53 352.42 C 105.86 347.62 102.39 338.97 108.65 336.60 Z" />
<path fill="#12140f" opacity="1.00" d=" M 218.57 335.97 C 223.51 335.97 228.46 335.99 233.40 335.98 C 233.98 339.20 234.73 342.42 234.73 345.72 C 231.11 350.94 222.62 351.04 218.28 346.67 C 216.63 343.34 218.29 339.46 218.57 335.97 Z" />
<path fill="#12140f" opacity="1.00" d=" M 135.66 337.90 C 139.58 337.81 143.49 337.75 147.41 337.76 C 147.42 342.00 147.54 346.28 146.81 350.49 C 143.11 350.09 139.45 349.69 135.78 349.15 C 135.51 345.41 135.49 341.64 135.66 337.90 Z" />
<path fill="#12140f" opacity="1.00" d=" M 166.84 337.32 C 170.18 337.86 175.11 336.17 177.72 339.29 C 180.30 342.85 177.52 347.11 176.33 350.65 C 172.69 350.13 169.09 349.55 165.58 348.46 C 165.91 344.72 166.39 341.04 166.84 337.32 Z" />
<path fill="#12140f" opacity="1.00" d=" M 248.84 337.68 C 252.52 337.70 256.29 337.15 259.90 338.07 C 260.55 341.76 260.39 345.54 260.39 349.28 C 256.11 349.28 251.81 349.32 247.58 348.62 C 247.90 344.94 248.35 341.33 248.84 337.68 Z" />
<path fill="#12140f" opacity="1.00" d=" M 201.31 339.27 C 208.65 337.45 214.62 348.75 208.67 353.68 C 204.45 357.96 196.68 355.23 195.43 349.57 C 192.56 344.80 197.71 341.14 201.31 339.27 Z" />
<path fill="#12140f" opacity="1.00" d=" M 474.75 340.79 C 478.50 338.00 482.95 340.73 486.36 342.69 C 485.71 345.62 485.20 348.64 484.62 351.60 C 481.85 351.71 476.31 351.95 473.54 352.07 C 473.70 348.33 472.19 343.90 474.75 340.79 Z" />
<path fill="#12140f" opacity="1.00" d=" M 383.52 342.89 C 392.53 349.50 401.86 355.66 411.36 361.54 C 408.50 364.68 405.60 367.78 402.67 370.85 C 397.89 365.04 391.73 360.73 386.08 355.89 C 382.21 352.72 383.54 347.29 383.52 342.89 Z" />
<path fill="#12140f" opacity="1.00" d=" M 272.37 345.20 C 278.63 343.34 286.20 348.18 286.45 354.79 C 286.07 356.77 285.70 359.78 283.32 360.21 C 278.44 360.93 273.50 361.00 268.58 361.24 C 269.62 356.13 266.86 348.49 272.37 345.20 Z" />
<path fill="#12140f" opacity="1.00" d=" M 338.42 346.38 C 346.38 342.59 356.07 354.64 348.27 360.30 C 342.80 366.83 331.93 360.75 332.17 353.09 C 332.82 349.96 335.37 347.29 338.42 346.38 Z" />
<path fill="#12140f" opacity="1.00" d=" M 448.89 346.73 C 453.43 347.72 457.75 349.51 461.77 351.85 C 460.84 356.10 461.79 362.64 457.06 365.09 C 452.17 367.83 445.84 364.70 444.39 359.59 C 442.81 354.54 446.90 350.80 448.89 346.73 Z" />
<path fill="#12140f" opacity="1.00" d=" M 233.58 357.45 C 237.32 357.36 242.89 354.43 245.08 358.75 C 245.84 361.79 245.31 365.12 245.38 368.26 C 241.52 368.35 237.66 368.52 233.80 368.36 C 233.62 364.73 233.54 361.07 233.58 357.45 Z" />
<path fill="#12140f" opacity="1.00" d=" M 207.57 368.36 C 204.87 362.32 211.33 356.46 217.04 357.82 C 220.59 358.26 221.79 362.31 222.88 365.15 C 222.88 368.76 220.63 371.81 219.06 374.91 C 214.85 374.50 208.15 373.86 207.57 368.36 Z" />
<path fill="#12140f" opacity="1.00" d=" M 154.61 356.58 C 157.95 358.09 163.14 358.10 165.04 361.98 C 167.77 365.29 167.40 370.42 164.26 373.27 C 160.95 376.30 154.97 374.96 153.02 370.97 C 147.93 366.99 153.54 361.05 154.61 356.58 Z" />
<path fill="#12140f" opacity="1.00" d=" M 305.25 357.48 C 308.31 359.10 314.12 356.19 316.09 360.00 C 317.52 362.76 316.59 366.44 314.70 368.75 C 311.31 371.03 307.00 369.02 303.69 367.52 C 304.19 364.15 304.76 360.84 305.25 357.48 Z" />
<path fill="#12140f" opacity="1.00" d=" M 97.40 361.33 C 102.36 358.91 107.01 363.04 108.65 367.35 C 108.27 371.14 107.62 374.89 106.69 378.60 C 102.62 378.32 97.72 379.86 94.67 376.36 C 89.44 372.72 91.60 363.23 97.40 361.33 Z" />
<path fill="#12140f" opacity="1.00" d=" M 122.13 360.14 C 126.12 361.65 132.33 362.41 133.64 367.39 C 135.17 372.43 131.12 376.16 129.15 380.23 C 125.16 379.06 118.50 378.78 117.36 373.59 C 115.04 368.18 119.74 364.28 122.13 360.14 Z" />
<path fill="#12140f" opacity="1.00" d=" M 363.06 362.98 C 366.79 363.53 372.00 361.78 374.88 365.19 C 374.82 368.53 374.39 371.88 373.66 375.14 C 370.15 375.06 366.75 375.09 363.27 375.06 C 362.66 371.06 362.89 367.00 363.06 362.98 Z" />
<path fill="#12140f" opacity="1.00" d=" M 336.31 368.29 C 343.00 366.52 350.55 375.27 346.28 381.27 C 343.04 387.70 332.09 387.10 329.63 380.34 C 327.37 375.13 331.93 370.26 336.31 368.29 Z" />
<path fill="#12140f" opacity="1.00" d=" M 186.38 370.73 C 189.89 370.87 193.45 371.09 196.97 371.30 C 196.91 374.46 197.18 377.71 196.72 380.87 C 193.47 383.04 189.34 382.17 185.64 382.48 C 185.70 378.55 185.69 374.61 186.38 370.73 Z" />
<path fill="#12140f" opacity="1.00" d=" M 258.48 371.47 C 265.29 367.81 272.19 377.48 268.11 383.06 C 265.37 388.28 256.50 388.54 254.08 382.88 C 251.13 378.52 253.82 372.83 258.48 371.47 Z" />
<path fill="#12140f" opacity="1.00" d=" M 418.41 373.38 C 426.05 370.19 433.27 381.06 427.98 386.92 C 425.34 392.21 416.55 392.68 413.99 387.01 C 409.24 382.84 413.04 374.80 418.41 373.38 Z" />
<path fill="#12140f" opacity="1.00" d=" M 226.38 376.33 C 234.92 373.01 242.71 387.75 234.02 392.02 C 230.30 396.42 223.07 393.53 221.00 388.97 C 217.39 384.28 221.46 377.89 226.38 376.33 Z" />
<path fill="#12140f" opacity="1.00" d=" M 144.39 377.43 C 147.86 376.01 152.56 378.23 152.81 382.09 C 152.78 385.23 151.28 388.09 150.21 390.97 C 146.99 389.71 141.21 390.47 139.55 386.40 C 138.12 382.88 139.93 377.27 144.39 377.43 Z" />
<path fill="#12140f" opacity="1.00" d=" M 290.36 377.37 C 298.22 375.14 305.66 387.16 298.29 392.31 C 293.89 397.63 284.65 393.82 283.45 387.60 C 281.45 382.49 286.29 378.85 290.36 377.37 Z" />
<path fill="#12140f" opacity="1.00" d=" M 166.43 379.39 C 175.63 376.76 181.10 390.83 173.97 395.98 C 169.34 400.21 161.23 396.56 160.29 390.68 C 159.50 386.14 162.35 381.35 166.43 379.39 Z" />
<path fill="#12140f" opacity="1.00" d=" M 451.76 378.64 C 454.99 378.98 458.32 379.47 461.57 379.91 C 460.46 384.09 461.52 389.15 458.89 392.88 C 457.15 395.58 453.32 395.74 450.83 397.17 C 449.61 393.10 447.45 388.51 449.26 384.32 C 449.97 382.37 450.88 380.52 451.76 378.64 Z" />
<path fill="#12140f" opacity="1.00" d=" M 356.21 385.28 C 359.62 381.95 364.67 383.85 368.66 384.79 C 367.21 387.54 369.27 392.25 366.64 394.63 C 363.41 395.96 359.80 395.90 356.40 396.54 C 355.99 392.82 355.14 388.94 356.21 385.28 Z" />
<path fill="#12140f" opacity="1.00" d=" M 386.82 385.48 C 390.84 384.83 394.91 384.44 398.99 384.46 C 398.99 387.37 399.00 393.18 399.00 396.08 C 395.13 395.95 391.26 395.82 387.40 395.68 C 387.18 392.25 387.03 388.89 386.82 385.48 Z" />
<path fill="#12140f" opacity="1.00" d=" M 116.30 386.43 C 123.38 385.61 130.14 394.30 125.71 400.70 C 122.55 406.30 113.82 405.43 110.98 400.00 C 106.50 395.16 110.85 387.86 116.30 386.43 Z" />
<path fill="#12140f" opacity="1.00" d=" M 312.36 389.44 C 315.40 388.07 319.56 387.18 322.23 389.77 C 324.90 392.52 323.76 397.03 321.73 399.80 C 317.52 401.43 312.95 399.69 308.88 398.39 C 310.43 396.01 309.18 391.03 312.36 389.44 Z" />
<path fill="#12140f" opacity="1.00" d=" M 243.37 390.38 C 246.22 388.59 250.51 388.42 252.73 391.30 C 254.30 394.34 253.08 397.85 252.85 401.06 C 248.50 400.88 244.15 400.58 239.92 399.49 C 241.30 396.76 240.73 392.55 243.37 390.38 Z" />
<path fill="#12140f" opacity="1.00" d=" M 206.98 398.04 C 210.98 398.02 214.99 398.00 219.00 397.99 C 218.99 401.99 218.99 405.99 219.00 410.01 C 216.28 410.00 210.83 409.98 208.11 409.97 C 207.76 405.99 207.36 402.00 206.98 398.04 Z" />
<path fill="#12140f" opacity="1.00" d=" M 261.13 407.12 C 262.47 398.77 275.53 397.85 278.07 405.96 C 281.03 410.77 275.91 415.22 274.04 419.25 C 268.57 417.26 258.85 415.46 261.13 407.12 Z" />
<path fill="#12140f" opacity="1.00" d=" M 329.59 412.36 C 326.45 405.61 333.87 397.99 340.70 400.28 C 343.98 401.93 347.64 404.94 347.60 408.95 C 346.82 412.21 344.66 414.90 342.95 417.72 C 338.48 417.05 331.86 417.33 329.59 412.36 Z" />
<path fill="#12140f" opacity="1.00" d=" M 180.82 407.37 C 183.99 406.94 187.64 404.10 190.69 406.28 C 195.85 409.83 194.98 418.68 189.66 421.72 C 186.61 421.40 183.67 420.64 180.79 419.66 C 180.80 416.58 180.81 410.44 180.82 407.37 Z" />
<path fill="#12140f" opacity="1.00" d=" M 292.41 406.40 C 297.35 404.65 303.67 408.17 304.52 413.40 C 306.67 419.88 298.92 426.27 293.03 423.05 C 285.64 420.96 284.90 408.55 292.41 406.40 Z" />
<path fill="#12140f" opacity="1.00" d=" M 412.38 406.39 C 419.72 404.27 426.87 412.28 423.32 419.29 C 420.43 425.99 410.16 424.78 407.29 418.69 C 404.35 414.05 407.34 407.74 412.38 406.39 Z" />
<path fill="#12140f" opacity="1.00" d=" M 234.41 408.51 C 240.65 406.46 246.15 413.17 245.07 419.03 C 243.73 425.81 233.42 428.68 229.21 422.80 C 224.82 417.95 227.78 409.24 234.41 408.51 Z" />
<path fill="#12140f" opacity="1.00" d=" M 381.35 410.35 C 384.31 408.17 388.67 408.54 391.80 410.20 C 392.56 413.72 392.23 417.39 392.32 420.97 C 389.38 420.99 383.50 421.02 380.56 421.04 C 379.95 417.53 379.07 413.47 381.35 410.35 Z" />
<path fill="#12140f" opacity="1.00" d=" M 156.43 414.43 C 159.36 411.21 166.20 410.30 168.06 414.95 C 169.85 419.70 169.86 427.08 164.69 429.83 C 161.04 429.87 157.66 428.61 154.33 427.31 C 155.40 423.15 154.07 418.21 156.43 414.43 Z" />
<path fill="#12140f" opacity="1.00" d=" M 494.96 421.05 C 494.28 417.34 496.63 411.91 500.98 412.06 C 504.82 412.77 508.40 414.57 512.00 416.05 L 512.00 424.17 C 509.85 426.55 507.32 429.09 503.99 429.54 C 499.44 429.61 494.64 425.88 494.96 421.05 Z" />
<path fill="#12140f" opacity="1.00" d=" M 135.94 413.77 C 139.31 414.02 142.69 414.37 146.04 414.76 C 145.93 417.57 145.71 423.20 145.60 426.01 C 141.50 425.84 137.39 425.57 133.39 424.63 C 134.07 420.95 134.95 417.36 135.94 413.77 Z" />
<path fill="#12140f" opacity="1.00" d=" M 200.42 421.40 C 207.80 417.87 216.78 429.66 210.49 435.50 C 208.58 437.41 205.98 439.22 203.14 438.85 C 198.75 437.97 195.24 434.17 194.24 429.89 C 194.08 426.13 196.75 422.37 200.42 421.40 Z" />
<path fill="#12140f" opacity="1.00" d=" M 356.34 422.33 C 359.57 420.58 363.28 421.71 366.63 422.45 C 366.15 426.40 365.50 430.38 364.42 434.23 C 360.91 434.03 357.48 433.92 353.99 433.70 C 354.79 430.27 352.45 424.62 356.34 422.33 Z" />
<path fill="#12140f" opacity="1.00" d=" M 277.27 427.31 C 284.27 420.63 298.03 431.72 291.80 439.78 C 288.69 445.14 282.27 443.28 277.23 442.99 C 277.47 437.86 274.91 432.19 277.27 427.31 Z" />
<path fill="#12140f" opacity="1.00" d=" M 316.39 425.35 C 324.73 421.99 332.73 434.95 325.29 440.31 C 319.96 446.77 308.38 439.72 309.94 432.14 C 311.80 429.79 312.96 425.83 316.39 425.35 Z" />
<path fill="#12140f" opacity="1.00" d=" M 252.49 428.58 C 256.07 428.12 259.64 428.69 263.13 429.39 C 263.07 434.37 263.03 439.40 262.98 444.40 C 258.87 444.46 254.73 444.71 250.66 444.25 C 246.37 442.97 245.38 437.60 243.73 434.16 C 246.65 432.32 249.21 429.77 252.49 428.58 Z" />
<path fill="#12140f" opacity="1.00" d=" M 394.35 429.42 C 397.47 428.23 400.88 428.50 404.16 428.59 C 404.21 432.49 404.21 436.39 404.16 440.30 C 399.77 440.30 395.36 440.44 391.03 439.70 C 392.59 436.93 390.76 431.28 394.35 429.42 Z" />
<path fill="#12140f" opacity="1.00" d=" M 174.77 435.58 C 179.85 436.61 187.51 433.86 190.80 439.37 C 192.10 443.44 190.52 447.71 187.30 450.29 C 184.42 453.80 177.19 454.63 175.60 449.58 C 175.11 444.91 174.94 440.26 174.77 435.58 Z" />
<path fill="#12140f" opacity="1.00" d=" M 221.88 438.67 C 225.54 438.71 229.30 438.12 232.89 439.09 C 233.69 442.91 233.58 446.87 233.56 450.76 C 229.10 450.84 224.72 450.04 220.56 448.53 C 220.93 445.18 221.43 441.98 221.88 438.67 Z" />
<path fill="#12140f" opacity="1.00" d=" M 367.55 445.04 C 370.52 445.03 376.45 445.01 379.42 445.00 C 379.39 448.55 380.28 452.31 378.82 455.69 C 375.50 456.78 371.95 456.93 368.52 457.50 C 367.76 453.40 367.51 449.20 367.55 445.04 Z" />
<path fill="#12140f" opacity="1.00" d=" M 334.03 456.00 C 334.43 450.91 339.86 447.09 344.88 447.99 C 349.34 449.40 352.00 453.48 354.96 456.80 C 352.32 460.90 349.13 466.42 343.15 464.98 C 339.17 463.50 334.26 460.81 334.03 456.00 Z" />
<path fill="#12140f" opacity="1.00" d=" M 492.20 467.20 C 497.26 462.31 504.62 466.50 509.20 469.82 C 508.37 473.88 508.05 479.70 503.37 481.43 C 495.55 485.98 485.52 473.61 492.20 467.20 Z" />
<path fill="#12140f" opacity="1.00" d=" M 426.41 470.39 C 431.83 467.66 437.43 473.68 435.91 478.97 C 435.17 482.47 432.59 485.23 431.02 488.37 C 426.11 487.53 419.22 484.47 420.99 478.00 C 421.77 475.14 422.86 470.77 426.41 470.39 Z" />
</g>
<g id="#d7c599ff">
<path fill="#d7c599" opacity="1.00" d=" M 227.19 35.16 C 232.95 33.28 236.81 39.18 241.11 42.00 C 249.26 37.62 258.75 37.57 267.65 39.54 C 272.84 41.06 277.52 37.58 282.45 36.61 C 307.30 30.34 332.28 43.04 357.16 37.25 C 364.05 35.26 369.92 39.69 376.32 41.05 C 380.84 40.70 385.05 37.60 389.68 38.32 C 400.20 43.17 404.64 54.64 409.13 64.46 C 416.03 66.18 422.99 68.78 428.22 73.77 C 436.14 80.67 441.64 89.72 448.18 97.83 C 452.85 103.50 458.78 107.90 464.26 112.73 C 474.39 121.60 483.73 131.31 493.79 140.24 C 499.03 144.44 496.36 152.27 497.24 158.01 C 496.45 161.96 498.36 167.06 495.45 170.42 C 493.10 173.29 489.46 174.51 486.15 175.86 C 492.59 184.46 497.92 193.96 499.54 204.74 C 493.42 202.98 487.23 201.41 481.07 199.84 C 481.06 202.65 481.04 208.28 481.03 211.09 C 487.32 210.01 493.59 208.71 499.94 207.97 C 501.97 219.25 494.44 228.54 487.40 236.30 C 485.46 232.40 483.55 228.49 481.49 224.65 C 480.04 230.41 478.98 236.25 477.90 242.09 C 484.99 238.96 491.90 235.46 498.87 232.09 C 496.53 247.77 496.09 263.82 498.37 279.54 C 492.35 281.89 486.15 284.42 481.74 289.34 C 486.83 291.54 491.86 293.89 496.97 296.07 C 496.68 317.99 497.70 339.96 496.69 361.86 C 493.91 369.82 484.24 368.86 477.64 370.60 C 476.77 375.77 477.24 381.62 474.07 386.13 C 466.51 396.42 456.34 404.35 448.01 413.96 C 445.55 410.77 443.34 407.29 440.34 404.61 C 436.30 402.67 432.38 406.58 428.91 408.11 C 433.33 412.09 438.17 415.58 442.62 419.53 C 432.34 429.33 421.67 438.70 410.60 447.59 C 403.45 453.17 398.84 461.16 392.40 467.43 C 388.84 470.78 383.38 469.33 379.03 469.99 C 353.96 470.44 328.93 472.66 303.83 471.94 C 307.40 467.01 311.10 462.08 313.53 456.47 C 309.36 455.86 305.18 455.47 300.97 455.58 C 301.17 462.74 301.71 469.90 301.83 477.07 C 296.58 476.64 288.41 477.05 285.98 471.02 C 285.17 466.74 287.44 462.57 288.32 458.45 C 285.35 457.36 282.27 456.41 279.13 455.96 C 274.75 459.67 273.30 465.47 271.41 470.65 C 265.80 469.07 260.57 466.49 255.48 463.70 C 250.36 467.60 244.98 472.52 238.01 471.94 C 230.51 472.01 222.75 473.06 215.37 471.52 C 208.19 467.75 207.98 458.50 205.43 451.68 C 203.26 454.02 200.55 456.21 199.67 459.42 C 199.10 464.74 198.72 470.09 198.53 475.45 C 192.60 472.48 186.88 469.16 181.19 465.78 C 175.79 462.48 168.95 464.09 163.27 461.62 C 159.02 459.04 155.73 455.23 152.19 451.82 C 136.77 435.88 119.04 422.27 104.59 405.38 C 95.43 395.36 87.29 383.63 74.61 377.77 C 76.24 369.88 79.75 362.64 83.98 355.83 C 80.75 354.41 77.54 352.96 74.28 351.63 C 72.21 357.93 70.31 364.29 68.13 370.56 C 64.00 361.06 60.75 350.76 61.28 340.30 C 61.66 333.02 66.85 327.32 72.52 323.33 C 66.80 315.15 62.59 306.01 60.44 296.24 C 67.03 296.03 73.63 295.97 80.22 295.63 C 79.34 291.92 78.11 288.33 76.45 284.91 C 70.35 284.89 64.25 284.86 58.15 284.75 C 60.73 279.36 65.26 275.19 67.71 269.75 C 70.55 263.91 63.39 260.08 60.53 255.90 C 64.69 249.75 69.51 244.11 74.15 238.33 C 70.05 236.49 65.97 234.62 61.84 232.87 C 58.70 210.97 68.38 188.68 61.37 167.16 C 66.94 166.74 72.50 166.17 78.06 165.57 C 75.31 156.59 66.33 153.42 58.55 150.36 C 63.96 144.36 71.85 141.36 77.39 135.53 C 83.05 126.96 87.70 117.46 95.77 110.78 C 107.39 100.79 119.30 90.82 127.93 77.97 C 134.33 82.35 141.14 86.26 148.67 88.36 C 148.13 80.09 142.45 73.72 138.24 67.04 C 148.38 58.33 157.82 48.85 167.14 39.28 C 170.55 41.41 173.93 44.02 178.02 44.59 C 183.25 44.19 186.56 39.43 190.21 36.19 C 202.46 38.46 215.11 38.38 227.19 35.16 M 306.78 42.77 C 304.17 46.11 305.83 50.51 306.74 54.16 C 310.16 53.76 313.59 53.32 317.02 52.98 C 317.55 49.39 318.00 45.79 318.47 42.19 C 314.67 41.90 309.91 39.86 306.78 42.77 M 257.41 49.38 C 253.38 50.58 249.89 55.14 251.47 59.41 C 253.21 66.24 263.67 69.61 267.78 62.78 C 274.04 56.67 264.65 46.49 257.41 49.38 M 286.66 49.61 C 277.56 53.28 283.17 69.36 292.86 67.12 C 298.70 65.06 299.91 59.46 299.68 53.96 C 295.65 51.69 291.85 47.00 286.66 49.61 M 231.38 50.31 C 225.96 52.01 221.69 59.46 227.01 63.99 C 230.21 70.35 240.00 68.14 242.39 62.35 C 245.56 56.09 238.16 47.64 231.38 50.31 M 344.32 50.29 C 337.52 51.20 334.64 60.69 339.73 65.28 C 343.85 71.74 355.03 67.46 354.09 60.06 C 355.17 54.43 349.93 48.82 344.32 50.29 M 366.45 50.50 C 359.91 51.53 355.48 60.93 361.67 65.36 C 366.60 72.64 378.13 67.60 378.89 59.86 C 379.15 53.67 372.83 47.54 366.45 50.50 M 158.83 54.56 C 157.59 59.20 155.12 69.56 163.94 67.03 C 171.56 70.07 168.89 59.71 170.85 56.56 C 167.04 54.97 162.94 54.38 158.83 54.56 M 191.31 55.57 C 191.78 59.44 192.37 63.28 193.08 67.11 C 195.45 67.03 200.19 66.88 202.56 66.81 C 203.89 63.58 204.17 60.03 204.87 56.65 C 200.72 54.05 195.85 54.31 191.31 55.57 M 320.80 62.81 C 315.60 64.52 314.28 70.49 313.75 75.25 C 318.42 78.65 326.23 82.14 330.82 76.83 C 336.98 70.76 328.79 59.22 320.80 62.81 M 385.41 65.37 C 382.76 66.09 380.87 68.37 379.79 70.79 C 376.46 78.45 387.87 86.43 393.95 80.96 C 396.73 78.73 398.49 75.07 397.60 71.42 C 395.66 66.99 390.23 63.66 385.41 65.37 M 168.34 75.30 C 165.83 78.00 167.57 82.59 166.21 85.62 C 170.26 86.38 175.80 87.67 178.65 83.76 C 178.89 80.68 178.47 77.59 178.34 74.51 C 175.00 74.67 171.58 74.40 168.34 75.30 M 206.40 75.35 C 200.69 76.77 199.09 84.93 202.97 89.02 C 207.04 94.43 217.34 92.55 218.93 85.90 C 220.42 79.00 212.95 72.79 206.40 75.35 M 240.20 75.58 C 234.63 75.82 229.78 81.76 232.60 87.35 C 235.62 94.39 247.55 94.43 249.96 86.91 C 251.95 80.55 246.20 75.04 240.20 75.58 M 287.61 77.93 C 286.66 83.01 284.61 89.57 290.23 92.77 C 294.75 97.87 301.87 92.84 303.70 87.83 C 304.10 84.48 303.49 81.12 303.32 77.77 C 298.08 77.73 292.84 77.82 287.61 77.93 M 355.12 82.01 C 355.02 85.42 355.47 88.81 355.74 92.21 C 359.25 92.24 362.72 92.20 366.24 92.13 C 366.36 88.27 366.29 84.41 366.24 80.55 C 362.50 80.67 358.72 80.96 355.12 82.01 M 414.32 81.28 C 412.70 84.40 412.91 88.13 412.16 91.46 C 415.92 92.23 419.95 93.19 423.67 91.67 C 426.08 89.32 426.74 85.12 424.72 82.30 C 422.70 78.63 417.48 79.54 414.32 81.28 M 334.43 82.43 C 331.20 84.64 329.33 88.25 326.87 91.19 C 329.02 93.31 330.67 96.10 333.33 97.66 C 337.22 98.50 341.17 97.04 345.02 96.34 C 345.00 91.80 344.99 87.25 345.02 82.71 C 341.58 82.06 337.74 80.49 334.43 82.43 M 257.05 92.09 C 255.46 98.13 260.39 103.99 266.26 104.43 C 269.70 103.58 274.46 101.31 274.10 97.05 C 275.52 90.56 269.27 87.40 265.13 84.23 C 262.26 86.58 258.32 88.35 257.05 92.09 M 396.31 85.40 C 392.60 85.85 389.17 88.48 388.17 92.14 C 387.27 98.19 394.20 104.39 399.93 100.96 C 407.71 98.08 404.58 84.42 396.31 85.40 M 191.95 93.16 C 188.77 94.16 184.82 96.10 185.01 99.99 C 183.63 106.01 189.77 113.23 196.04 109.06 C 204.05 105.68 200.19 92.62 191.95 93.16 M 151.38 96.31 C 146.53 97.76 146.04 104.04 144.78 107.98 C 148.44 109.90 151.67 113.21 155.92 113.78 C 162.32 113.44 164.67 106.13 165.25 100.78 C 160.87 98.70 156.66 94.99 151.38 96.31 M 369.33 96.32 C 362.28 97.90 360.71 107.65 365.65 112.35 C 369.64 116.94 378.65 114.82 379.55 108.61 C 381.44 102.28 375.48 95.77 369.33 96.32 M 420.86 100.62 C 420.88 103.56 420.91 109.45 420.92 112.40 C 424.49 113.44 428.08 114.16 431.76 114.82 C 433.18 109.09 434.09 102.87 431.38 97.38 C 427.80 98.29 424.25 99.17 420.86 100.62 M 308.47 109.60 C 309.67 115.77 317.11 117.15 322.17 118.23 C 323.65 114.62 327.90 111.13 326.33 106.84 C 325.58 103.21 322.15 101.10 318.87 99.99 C 313.62 99.18 306.29 103.38 308.47 109.60 M 207.13 108.12 C 205.73 113.98 211.49 120.44 217.56 118.53 C 221.01 117.16 223.51 114.20 226.46 112.04 C 224.79 108.34 223.55 103.36 219.38 101.57 C 214.33 99.40 208.22 102.93 207.13 108.12 M 234.19 113.91 C 235.39 120.68 243.60 121.52 249.08 121.74 C 251.56 117.90 254.67 112.80 251.70 108.30 C 246.82 101.43 234.04 105.21 234.19 113.91 M 285.55 106.65 C 285.40 110.63 285.86 114.61 287.40 118.30 C 290.50 117.78 293.69 117.30 296.83 116.83 C 297.31 113.66 297.77 110.48 298.32 107.33 C 294.25 105.48 289.83 106.12 285.55 106.65 M 334.97 119.02 C 338.54 126.24 347.67 121.48 352.32 118.09 C 350.21 113.77 349.65 106.19 343.60 105.48 C 336.15 103.06 329.50 113.22 334.97 119.02 M 127.90 108.06 C 127.94 110.53 128.01 115.47 128.04 117.94 C 131.42 119.22 135.53 119.53 138.78 117.76 C 140.44 114.21 139.37 110.19 139.40 106.42 C 135.55 106.85 131.71 107.39 127.90 108.06 M 391.72 109.68 C 389.26 112.36 384.67 115.09 387.32 119.58 C 389.78 123.44 395.35 126.06 399.65 123.65 C 403.50 121.26 404.11 116.46 405.51 112.58 C 401.15 111.46 396.34 107.57 391.72 109.68 M 176.41 112.50 C 166.72 113.78 168.35 129.36 177.13 130.90 C 182.59 131.08 188.46 126.14 187.02 120.13 C 185.54 115.85 181.77 110.60 176.41 112.50 M 439.48 112.47 C 432.49 114.35 432.21 124.54 437.73 128.28 C 441.68 131.63 448.10 129.80 450.27 125.26 C 454.68 118.78 447.11 108.80 439.48 112.47 M 106.69 115.70 C 102.97 118.58 102.91 123.71 102.23 127.89 C 105.87 129.86 109.23 134.99 113.88 132.94 C 119.51 130.25 122.97 122.86 120.07 116.94 C 117.66 112.06 110.09 111.61 106.69 115.70 M 350.71 131.72 C 345.53 135.71 343.56 142.13 343.48 148.42 C 350.77 146.02 357.76 142.56 363.79 137.77 C 369.46 133.09 371.73 125.56 372.44 118.49 C 364.91 122.38 357.38 126.46 350.71 131.72 M 201.08 125.05 C 198.47 126.42 196.15 128.14 194.11 130.24 C 193.72 134.12 193.67 139.21 197.98 141.03 C 202.57 146.16 209.57 141.43 212.23 136.94 C 213.03 130.64 207.18 124.84 201.08 125.05 M 268.15 125.07 C 267.29 128.65 267.62 132.34 267.58 135.99 C 270.62 135.97 276.70 135.95 279.73 135.93 C 279.24 132.24 278.63 128.57 277.90 124.92 C 275.46 124.96 270.59 125.03 268.15 125.07 M 313.81 126.46 C 314.25 131.48 314.71 136.50 315.08 141.53 C 319.05 141.69 323.16 142.13 327.04 141.03 C 331.21 139.08 331.97 133.74 333.31 129.94 C 330.19 128.39 327.46 125.79 323.96 125.17 C 320.53 125.06 317.16 125.85 313.81 126.46 M 410.16 127.15 C 406.65 129.55 407.69 134.94 410.20 137.79 C 416.36 144.57 424.19 149.58 432.35 153.64 C 432.86 150.52 433.75 147.29 432.85 144.15 C 429.43 136.75 422.62 131.64 416.90 126.09 C 414.97 124.00 411.91 125.67 410.16 127.15 M 457.41 125.37 C 450.71 126.99 449.59 136.23 454.75 140.25 C 458.40 143.87 464.09 141.02 466.08 137.04 C 469.28 131.77 464.32 122.25 457.41 125.37 M 156.35 131.32 C 152.20 132.80 147.87 137.61 150.94 142.04 C 153.09 149.60 164.32 150.74 168.08 144.05 C 171.50 137.26 163.28 129.53 156.35 131.32 M 388.32 131.27 C 380.39 132.30 377.67 144.07 385.29 147.68 C 391.77 153.99 404.84 144.86 400.13 136.90 C 397.32 133.83 392.88 130.38 388.32 131.27 M 223.42 132.38 C 219.24 133.60 216.05 138.17 217.37 142.62 C 218.58 146.83 223.11 149.08 227.04 150.04 C 231.83 149.74 237.50 146.31 237.68 141.00 C 237.30 134.48 229.23 130.56 223.42 132.38 M 288.27 135.29 C 287.32 138.50 287.95 141.84 288.42 145.07 C 293.01 145.02 297.58 145.00 302.18 144.98 C 302.62 141.86 302.99 138.70 303.43 135.59 C 298.90 133.24 292.47 131.60 288.27 135.29 M 100.36 138.33 C 93.71 140.07 91.73 148.76 96.66 153.34 C 102.05 159.81 114.85 152.82 111.41 144.63 C 109.27 140.86 105.20 136.80 100.36 138.33 M 120.18 144.24 C 115.96 151.01 125.59 159.68 132.32 156.35 C 138.00 154.60 139.54 147.86 140.23 142.76 C 136.85 141.23 133.77 138.63 130.00 138.18 C 125.98 138.23 121.89 140.51 120.18 144.24 M 473.39 141.31 C 470.77 142.15 468.95 144.59 468.16 147.13 C 465.24 155.87 479.80 163.91 484.74 154.74 C 489.53 147.70 481.12 138.12 473.39 141.31 M 254.32 143.28 C 248.90 144.94 243.50 149.15 245.49 155.56 C 248.10 163.56 260.77 163.78 264.04 156.01 C 268.14 149.68 260.88 141.86 254.32 143.28 M 173.04 155.14 C 171.67 158.49 173.64 161.88 174.61 165.05 C 179.28 165.06 183.94 165.09 188.62 165.13 C 190.43 158.79 191.37 150.08 183.89 147.00 C 177.77 144.67 174.77 150.70 173.04 155.14 M 363.38 165.12 C 368.61 164.97 373.82 164.81 379.06 164.63 C 379.32 158.85 380.52 149.72 373.90 147.06 C 363.94 144.62 359.92 157.81 363.38 165.12 M 314.61 148.56 C 306.91 149.19 302.45 160.21 308.89 165.14 C 315.20 170.57 324.61 162.80 323.48 155.60 C 322.54 151.63 318.72 148.54 314.61 148.56 M 276.41 150.38 C 271.99 151.66 268.72 156.73 270.64 161.33 C 272.29 166.01 278.30 169.79 283.03 167.06 C 293.84 164.36 286.27 146.24 276.41 150.38 M 445.30 151.26 C 442.97 153.72 443.01 157.57 441.86 160.50 C 446.29 161.98 450.97 161.85 455.59 161.95 C 455.35 159.19 454.87 153.67 454.63 150.91 C 451.55 150.39 448.24 150.06 445.30 151.26 M 400.50 152.92 C 399.99 156.83 397.70 161.82 400.98 165.01 C 403.60 167.92 407.92 168.60 411.64 167.80 C 416.81 164.83 414.46 157.78 415.49 153.03 C 410.49 152.98 405.48 152.95 400.50 152.92 M 141.06 160.93 C 140.97 163.86 140.89 166.80 140.81 169.74 C 144.10 170.33 148.03 171.29 150.81 168.80 C 153.75 165.99 155.96 162.52 157.88 158.96 C 152.24 159.28 146.61 159.88 141.06 160.93 M 206.42 163.38 C 198.56 165.10 199.25 177.33 206.24 179.83 C 211.26 182.74 216.77 178.18 219.02 173.85 C 219.56 167.53 213.06 160.62 206.42 163.38 M 338.04 163.65 C 337.59 166.92 337.05 170.15 336.63 173.43 C 339.62 174.61 342.89 176.67 346.18 175.31 C 350.35 174.18 350.55 168.63 349.95 165.26 C 347.08 161.60 342.01 163.71 338.04 163.65 M 423.37 163.38 C 419.98 164.34 417.58 167.58 417.19 171.01 C 418.52 175.71 423.08 180.86 428.59 178.61 C 433.45 177.66 434.41 171.71 435.37 167.84 C 431.50 166.05 428.02 162.60 423.37 163.38 M 105.11 164.77 C 106.31 169.51 108.33 176.09 114.12 176.79 C 119.72 179.38 124.93 171.29 120.84 167.15 C 116.81 162.74 110.32 164.56 105.11 164.77 M 292.37 168.36 C 289.41 171.06 289.47 176.12 291.81 179.21 C 294.32 181.80 298.58 180.95 301.60 179.68 C 304.28 177.25 302.30 172.50 303.80 169.68 C 300.26 168.20 296.04 165.90 292.37 168.36 M 380.55 167.90 C 382.60 172.82 383.98 178.27 387.67 182.32 C 395.48 189.19 405.96 191.27 414.89 196.23 C 419.36 198.27 423.22 201.64 427.97 203.08 C 431.80 200.98 432.96 196.47 434.48 192.71 C 414.89 188.42 398.08 177.03 380.55 167.90 M 230.00 169.28 C 228.60 173.01 226.56 176.64 226.28 180.69 C 228.36 182.60 230.21 187.19 233.67 185.65 C 238.94 183.83 241.62 177.39 241.06 172.17 C 238.14 169.37 233.58 170.06 230.00 169.28 M 437.91 180.85 C 439.66 184.27 441.38 187.70 443.11 191.14 C 449.72 186.87 456.34 182.61 462.81 178.13 C 464.64 181.72 466.39 185.37 468.59 188.76 C 470.96 182.83 471.14 176.40 471.44 170.11 C 460.64 174.82 449.13 177.43 437.91 180.85 M 171.80 170.73 C 170.44 173.34 168.73 175.79 167.68 178.55 C 165.21 185.66 174.57 192.73 180.67 188.68 C 183.83 186.48 186.70 182.21 184.73 178.33 C 182.94 172.96 176.60 171.66 171.80 170.73 M 85.15 175.89 C 87.45 183.74 94.30 188.88 97.80 196.07 C 99.57 199.95 98.33 204.31 98.39 208.43 C 101.76 206.74 106.35 205.66 107.94 201.90 C 109.56 196.81 105.29 193.97 102.08 191.29 C 100.81 186.26 100.88 180.60 97.78 176.22 C 94.98 171.89 89.25 175.51 85.15 175.89 M 314.34 185.61 C 316.03 191.63 323.31 192.44 328.46 193.20 C 331.09 188.71 333.96 181.84 329.34 177.66 C 324.10 171.40 311.08 177.07 314.34 185.61 M 250.29 177.24 C 247.99 180.08 247.07 185.18 250.30 187.73 C 253.47 189.55 257.33 187.97 260.69 188.01 C 260.97 184.40 261.08 180.75 261.34 177.15 C 257.73 176.84 253.62 175.31 250.29 177.24 M 362.57 181.77 C 360.67 186.11 358.86 190.50 357.78 195.13 C 362.07 197.38 366.23 201.52 371.62 199.71 C 376.31 198.14 378.26 191.72 375.24 187.77 C 372.91 183.07 367.09 182.51 362.57 181.77 M 270.00 186.92 C 269.56 191.38 269.10 195.84 268.69 200.32 C 272.16 201.87 275.77 203.36 279.71 202.94 C 285.23 198.41 282.66 190.30 280.43 184.54 C 276.92 185.26 273.46 186.02 270.00 186.92 M 155.20 188.51 C 151.23 188.92 147.96 191.83 145.93 195.10 C 143.88 202.49 153.49 211.45 159.99 206.01 C 168.71 202.17 165.80 186.36 155.20 188.51 M 192.65 191.65 C 188.75 195.30 190.99 201.48 194.75 204.28 C 197.98 206.89 202.33 204.92 206.07 204.64 C 206.05 199.84 206.06 195.03 206.08 190.24 C 201.74 190.18 196.04 187.66 192.65 191.65 M 343.98 188.15 C 342.13 192.16 339.58 196.18 339.47 200.71 C 340.54 204.18 344.08 207.32 347.86 206.88 C 353.60 204.85 356.46 197.45 354.10 191.92 C 352.42 188.15 346.98 189.29 343.98 188.15 M 71.47 189.63 C 71.13 192.61 69.88 195.83 71.23 198.72 C 73.40 201.87 78.27 200.64 81.21 201.96 C 81.28 198.24 81.23 194.56 81.13 190.86 C 77.92 190.44 74.69 189.98 71.47 189.63 M 117.41 190.59 C 112.44 192.35 113.08 199.45 116.38 202.63 C 119.97 206.60 125.52 205.45 130.26 205.43 C 130.85 200.23 130.95 194.99 131.21 189.77 C 126.61 189.95 121.99 190.11 117.41 190.59 M 457.39 192.39 C 453.01 193.62 449.79 198.67 451.83 203.05 C 453.05 209.00 461.16 209.72 465.23 206.23 C 470.17 200.92 465.40 189.66 457.39 192.39 M 218.93 197.53 C 218.88 201.95 218.84 206.38 218.79 210.82 C 223.24 211.59 228.90 213.15 232.35 209.35 C 235.88 206.21 235.57 200.01 231.82 197.17 C 228.26 193.65 223.00 196.44 218.93 197.53 M 295.81 195.53 C 295.61 199.91 295.41 204.27 295.23 208.66 C 299.34 208.86 303.46 209.07 307.58 209.28 C 308.96 205.80 310.31 201.60 307.70 198.30 C 305.13 194.24 299.85 195.70 295.81 195.53 M 385.39 196.35 C 380.34 197.54 379.20 204.14 380.60 208.36 C 382.65 214.15 392.22 213.95 394.43 208.40 C 397.46 202.47 392.83 193.43 385.39 196.35 M 322.63 204.60 C 318.19 207.23 317.84 213.56 320.28 217.72 C 322.97 221.46 328.42 220.95 332.28 222.13 C 333.76 219.05 335.84 216.20 336.75 212.88 C 336.80 206.45 328.32 200.25 322.63 204.60 M 249.28 207.50 C 247.70 210.65 247.83 214.34 247.08 217.70 C 250.55 218.06 254.41 219.35 257.71 217.75 C 261.47 215.30 259.17 210.25 259.39 206.50 C 256.87 206.75 251.81 207.25 249.28 207.50 M 364.44 208.46 C 358.21 209.41 355.81 218.29 360.67 222.31 C 364.73 227.87 375.74 225.20 375.99 218.01 C 377.56 212.01 370.16 205.66 364.44 208.46 M 403.17 208.75 C 402.74 213.39 402.26 218.02 401.76 222.65 C 405.87 223.99 410.13 225.65 414.55 224.60 C 419.27 222.84 420.25 217.07 421.33 212.87 C 416.14 208.37 409.70 207.48 403.17 208.75 M 172.41 210.28 C 166.98 213.20 166.14 222.15 171.30 225.70 C 175.58 228.34 182.55 227.80 184.71 222.69 C 189.10 215.52 179.38 207.44 172.41 210.28 M 69.62 212.03 C 69.65 215.38 69.71 218.73 69.76 222.09 C 73.12 221.92 76.48 221.74 79.84 221.58 C 79.64 218.38 79.39 215.19 79.15 212.00 C 75.98 212.03 72.78 211.98 69.62 212.03 M 437.23 213.30 C 437.16 216.46 437.06 219.58 437.03 222.75 C 437.78 223.45 438.53 224.16 439.29 224.87 C 442.18 224.53 445.13 224.21 448.03 223.90 C 447.93 221.22 447.71 215.86 447.60 213.18 C 444.15 213.17 440.66 213.23 437.23 213.30 M 110.76 214.75 C 106.17 216.44 105.82 222.22 104.75 226.14 C 108.97 228.26 113.14 232.56 118.36 230.41 C 121.55 228.63 125.77 225.09 124.14 220.99 C 122.80 215.36 116.19 211.82 110.76 214.75 M 140.39 216.40 C 136.14 218.14 132.62 223.47 135.03 227.94 C 137.49 233.68 146.11 236.65 150.68 231.67 C 157.01 225.35 147.84 214.57 140.39 216.40 M 270.00 216.00 C 270.00 218.75 270.00 224.25 270.00 227.00 C 273.99 226.99 277.99 226.99 282.00 227.00 C 282.00 224.25 282.00 218.75 282.00 216.00 C 277.99 216.00 273.99 216.00 270.00 216.00 M 462.45 217.34 C 459.38 219.08 456.53 222.52 458.61 226.36 C 460.89 232.56 471.06 232.15 472.85 225.87 C 474.87 219.90 467.48 215.51 462.45 217.34 M 335.82 235.01 C 339.47 236.98 342.72 240.15 346.94 240.86 C 353.26 239.62 354.55 232.04 355.12 226.72 C 351.52 225.14 348.23 222.11 344.11 222.10 C 338.35 223.27 336.53 230.01 335.82 235.01 M 197.38 223.37 C 192.29 224.81 189.60 231.26 192.03 235.93 C 194.02 240.63 200.01 241.13 204.21 242.26 C 205.96 238.44 209.46 235.00 208.54 230.38 C 208.23 225.10 201.98 222.56 197.38 223.37 M 89.29 226.41 C 85.61 226.90 82.78 230.07 81.34 233.31 C 80.80 238.27 84.26 243.74 89.32 244.73 C 93.16 245.70 96.95 242.74 98.36 239.33 C 100.94 233.42 96.05 225.25 89.29 226.41 M 227.30 226.45 C 222.00 226.96 217.78 232.84 219.99 237.93 C 221.46 243.83 229.97 247.68 234.30 242.33 C 241.15 237.40 235.37 224.94 227.30 226.45 M 302.40 226.35 C 298.47 227.34 295.43 232.33 297.93 236.04 C 299.53 240.59 305.88 245.11 310.28 241.30 C 317.20 236.55 311.02 222.65 302.40 226.35 M 392.85 227.99 C 391.97 230.71 390.94 233.40 390.41 236.22 C 389.16 241.13 395.76 246.13 399.97 242.99 C 403.80 240.10 404.03 234.77 404.57 230.46 C 403.24 229.38 401.92 228.30 400.63 227.21 C 397.98 227.44 395.46 227.74 392.85 227.99 M 416.63 231.74 C 417.26 236.03 417.78 240.38 418.65 244.65 C 421.86 243.60 425.94 243.99 428.65 241.65 C 430.02 238.63 430.08 234.78 427.80 232.18 C 424.14 231.33 420.34 231.80 416.63 231.74 M 367.69 232.70 C 366.93 236.77 366.57 240.94 367.32 245.05 C 370.76 245.08 374.11 245.07 377.58 245.15 C 378.69 241.36 379.18 237.42 379.61 233.51 C 375.67 232.87 371.67 232.82 367.69 232.70 M 167.33 235.32 C 161.91 236.93 160.72 243.43 159.77 248.13 C 164.31 251.82 173.59 256.32 177.35 249.31 C 182.32 242.75 174.47 233.73 167.33 235.32 M 251.31 234.73 C 250.38 239.52 245.55 246.32 250.71 250.28 C 253.15 253.23 258.07 255.34 261.27 252.28 C 263.75 249.63 268.46 246.89 265.62 242.40 C 264.00 236.25 256.45 235.55 251.31 234.73 M 450.33 238.24 C 448.36 240.90 448.11 244.43 446.92 247.41 C 451.08 249.27 455.67 249.27 460.15 249.43 C 460.66 245.75 461.06 242.03 461.43 238.34 C 457.81 237.94 453.75 236.49 450.33 238.24 M 127.69 243.77 C 127.45 247.08 127.21 250.38 127.43 253.71 C 129.99 257.76 135.56 255.09 139.56 255.35 C 139.29 252.83 138.76 247.79 138.49 245.27 C 135.93 242.08 131.18 243.84 127.69 243.77 M 318.96 250.02 C 315.84 258.28 325.54 255.60 329.61 255.90 C 331.01 252.25 331.15 248.25 331.73 244.44 C 327.02 243.02 316.86 242.07 318.96 250.02 M 346.94 244.22 C 337.62 245.37 337.96 257.37 344.65 261.37 C 349.34 265.46 356.94 260.62 357.06 255.06 C 358.10 249.06 352.62 243.97 346.94 244.22 M 276.42 245.41 C 270.57 246.73 267.66 255.33 272.71 259.28 C 276.80 265.27 286.69 262.86 288.04 255.99 C 289.98 249.67 282.64 242.56 276.42 245.41 M 387.39 248.45 C 383.40 249.42 380.39 253.71 381.92 257.97 C 379.74 264.56 390.34 270.00 394.26 264.26 C 398.46 258.90 396.03 246.00 387.39 248.45 M 106.44 250.39 C 101.31 252.51 99.14 259.62 102.97 264.02 C 105.51 269.55 114.35 269.24 117.10 264.07 C 121.95 257.65 114.61 246.29 106.44 250.39 M 407.93 250.19 C 408.28 256.43 408.96 262.64 409.81 268.82 C 406.07 269.85 402.33 270.87 398.62 272.02 C 401.43 275.78 404.47 279.36 407.45 283.00 C 410.09 275.12 414.36 267.82 416.58 259.82 C 419.25 253.67 412.02 251.77 407.93 250.19 M 185.33 253.32 C 181.81 254.60 178.79 258.08 178.97 261.96 C 179.73 267.18 184.34 272.23 189.89 271.89 C 194.92 270.36 198.88 263.99 196.08 258.93 C 193.83 255.54 189.66 252.19 185.33 253.32 M 292.86 260.89 C 292.24 264.57 293.09 268.34 293.65 271.99 C 298.66 272.03 303.65 272.08 308.67 272.16 C 310.13 266.27 310.33 259.02 304.70 255.29 C 300.20 251.80 294.26 256.37 292.86 260.89 M 430.50 253.91 C 429.97 258.00 427.79 263.27 431.71 266.29 C 434.72 270.12 441.52 272.38 445.20 268.27 C 447.02 263.83 445.78 258.67 446.42 254.01 C 442.44 253.99 434.48 253.94 430.50 253.91 M 474.33 254.35 C 469.17 255.38 466.26 262.32 469.33 266.66 C 472.48 270.24 479.00 271.11 482.35 267.35 C 485.31 264.63 486.14 258.95 482.65 256.38 C 480.26 254.78 477.22 253.69 474.33 254.35 M 221.40 255.29 C 219.00 256.45 217.09 258.65 216.16 261.14 C 213.73 268.07 222.29 274.42 228.59 271.63 C 233.79 270.52 234.06 263.82 235.23 259.86 C 230.92 257.63 226.77 253.50 221.40 255.29 M 80.29 270.72 C 84.20 274.64 90.75 272.35 95.57 273.60 C 97.18 267.44 98.39 258.84 90.84 256.11 C 82.57 253.06 75.33 263.84 80.29 270.72 M 147.78 256.87 C 146.23 260.15 143.26 263.06 143.06 266.85 C 144.24 270.19 146.14 274.34 150.10 274.88 C 153.42 274.93 157.55 274.68 159.82 271.83 C 162.12 269.25 160.69 265.18 160.92 262.24 C 157.90 258.03 152.37 257.75 147.78 256.87 M 364.53 258.57 C 357.06 260.30 356.97 271.59 363.62 274.42 C 369.08 277.84 376.62 273.15 376.97 267.01 C 376.46 261.16 370.65 255.65 364.53 258.57 M 243.69 266.70 C 241.19 268.71 239.30 272.00 240.58 275.21 C 241.90 281.49 249.00 283.62 254.62 283.65 C 255.34 282.64 256.07 281.63 256.80 280.63 C 256.88 276.87 257.02 269.36 257.09 265.60 C 252.70 265.03 247.02 262.58 243.69 266.70 M 342.32 268.29 C 339.32 268.75 336.58 271.02 336.10 274.10 C 333.24 283.27 348.39 287.88 351.99 279.94 C 355.22 274.12 348.04 267.60 342.32 268.29 M 122.73 271.74 C 118.68 274.41 117.59 281.17 122.03 283.99 C 125.97 288.28 132.03 286.03 137.00 285.32 C 137.01 280.39 137.03 275.46 137.05 270.55 C 132.32 269.81 126.72 268.24 122.73 271.74 M 268.55 275.97 C 270.20 280.27 272.37 286.72 277.99 286.97 C 286.68 289.43 292.71 274.49 283.99 271.00 C 278.28 265.74 272.75 272.70 268.55 275.97 M 456.39 270.34 C 452.05 271.43 449.74 277.19 451.95 281.03 C 453.72 286.59 462.03 290.72 466.29 285.32 C 474.29 279.43 464.34 267.42 456.39 270.34 M 381.03 276.99 C 381.03 279.82 381.03 285.48 381.03 288.32 C 384.76 288.54 388.49 288.43 392.22 288.12 C 392.62 284.87 392.85 281.58 393.11 278.33 C 392.31 277.55 391.51 276.77 390.72 275.99 C 387.48 276.31 384.26 276.67 381.03 276.99 M 426.32 286.60 C 431.25 296.61 442.51 302.63 453.54 302.41 C 446.41 293.13 435.44 286.64 431.13 275.35 C 427.65 277.92 424.00 281.70 426.32 286.60 M 163.62 288.35 C 165.70 293.93 172.54 294.30 177.46 295.20 C 180.33 290.56 182.98 283.20 177.83 279.17 C 172.14 273.22 159.34 280.33 163.62 288.35 M 313.57 278.97 C 313.27 282.48 311.71 286.33 313.25 289.71 C 316.32 293.02 322.00 292.77 325.71 290.71 C 329.13 287.86 326.63 282.78 326.40 278.98 C 322.11 278.98 317.84 278.97 313.57 278.97 M 197.48 281.71 C 197.88 285.88 195.43 293.12 201.11 293.90 C 208.61 296.27 210.82 287.79 210.96 282.49 C 206.51 281.67 201.98 281.71 197.48 281.71 M 100.41 282.49 C 93.59 283.19 91.86 292.25 96.17 296.83 C 99.56 301.26 106.95 300.64 109.77 295.78 C 115.65 290.16 107.69 279.72 100.41 282.49 M 294.80 282.02 C 292.82 285.77 290.88 290.00 292.59 294.36 C 294.16 298.64 299.80 298.94 303.29 300.40 C 304.95 296.37 308.35 292.35 306.38 287.66 C 304.91 282.83 298.77 282.70 294.80 282.02 M 403.36 287.37 C 399.22 289.70 398.88 295.21 397.74 299.22 C 402.31 301.77 406.96 304.28 412.15 305.34 C 413.50 302.70 415.26 300.24 416.32 297.45 C 418.88 290.22 409.52 283.56 403.36 287.37 M 361.32 288.49 C 356.91 288.56 353.93 293.50 355.35 297.63 C 357.38 304.31 368.30 306.20 371.69 299.66 C 374.11 292.99 367.59 287.65 361.32 288.49 M 143.52 291.38 C 141.27 292.99 139.80 295.40 138.21 297.62 C 132.51 296.23 126.75 295.14 121.03 293.87 C 121.03 298.34 121.03 302.80 121.04 307.28 C 127.17 305.56 133.07 303.20 139.05 301.05 C 141.64 300.40 145.84 298.46 144.94 304.51 C 148.55 302.75 152.19 301.05 155.84 299.37 C 153.39 294.89 149.78 288.46 143.52 291.38 M 222.37 291.24 C 217.82 293.38 215.39 300.11 218.74 304.25 C 221.44 307.62 226.56 309.96 230.63 307.64 C 234.77 305.33 235.08 299.84 236.23 295.86 C 231.92 293.61 227.76 289.53 222.37 291.24 M 247.01 289.73 C 245.17 293.34 241.95 296.58 241.56 300.79 C 242.81 306.12 249.10 311.97 254.63 308.63 C 259.16 306.13 259.10 300.05 260.13 295.74 C 255.89 293.44 251.65 291.12 247.01 289.73 M 331.28 298.35 C 329.72 301.50 330.65 305.04 331.40 308.28 C 335.33 307.90 339.24 307.49 343.17 307.09 C 342.82 303.21 342.45 299.33 342.07 295.46 C 339.18 297.36 332.60 293.92 331.28 298.35 M 459.27 304.10 C 459.31 308.79 462.42 313.72 467.13 314.91 C 470.62 315.95 473.27 312.55 475.81 310.79 C 479.22 304.57 473.77 298.83 470.07 294.50 C 465.72 296.27 459.80 298.61 459.27 304.10 M 266.75 310.16 C 270.83 312.13 274.58 316.15 279.61 314.65 C 283.29 313.51 285.52 309.63 285.93 305.98 C 285.78 301.93 281.95 299.00 278.64 297.29 C 270.91 295.24 267.26 304.10 266.75 310.16 M 304.74 307.85 C 303.43 311.46 305.77 315.07 306.43 318.58 C 310.14 317.91 314.08 318.02 317.60 316.57 C 321.03 312.76 320.99 305.40 316.05 302.92 C 311.71 300.54 306.10 303.36 304.74 307.85 M 378.06 308.09 C 377.80 311.88 378.35 316.83 382.05 318.96 C 386.22 323.41 393.77 319.05 394.93 313.90 C 396.19 308.44 392.01 304.59 389.30 300.59 C 385.61 302.50 379.07 303.02 378.06 308.09 M 161.29 304.41 C 157.56 304.92 154.28 308.20 154.02 311.99 C 152.11 320.30 165.16 326.85 169.78 318.78 C 175.58 312.98 168.36 303.66 161.29 304.41 M 179.62 314.40 C 188.81 318.06 197.75 322.50 205.20 329.12 C 208.34 326.16 211.44 323.18 214.58 320.23 C 209.09 313.57 199.75 315.75 192.24 315.68 C 192.03 312.91 191.61 307.38 191.40 304.61 C 185.58 304.91 181.70 309.35 179.62 314.40 M 415.33 317.60 C 416.85 321.54 421.04 323.38 424.00 326.05 C 426.95 323.39 431.07 321.53 432.69 317.68 C 433.84 313.37 430.60 308.91 426.85 307.11 C 420.86 303.68 412.11 310.98 415.33 317.60 M 359.61 307.53 C 356.36 308.43 352.55 310.34 351.85 313.98 C 350.12 319.97 355.83 326.28 361.87 325.83 C 365.87 324.88 369.68 321.39 369.82 317.10 C 369.23 312.12 364.48 308.08 359.61 307.53 M 85.40 308.40 C 85.28 311.05 85.04 316.35 84.93 318.99 C 87.79 318.99 93.50 319.00 96.36 319.00 C 96.50 315.25 96.35 311.50 95.65 307.81 C 92.23 308.02 88.81 308.18 85.40 308.40 M 102.61 313.06 C 102.52 316.78 102.65 320.51 102.75 324.23 C 106.62 324.23 110.48 324.18 114.35 324.09 C 113.73 319.97 113.26 315.86 112.43 311.79 C 109.16 312.21 105.89 312.68 102.61 313.06 M 127.70 312.49 C 127.07 316.52 126.75 320.59 127.01 324.67 C 130.91 324.69 134.81 324.69 138.71 324.68 C 138.92 321.28 139.08 317.81 139.29 314.43 C 135.51 313.37 131.60 312.84 127.70 312.49 M 239.39 314.33 C 231.87 316.41 234.44 329.94 241.98 329.99 C 246.38 331.53 249.98 327.66 250.86 323.88 C 251.44 318.11 245.50 311.47 239.39 314.33 M 483.86 319.85 C 484.28 322.86 484.77 325.92 485.24 328.95 C 489.72 327.42 493.33 323.86 492.77 318.52 C 489.77 318.77 486.81 319.27 483.86 319.85 M 277.69 321.71 C 276.01 325.83 272.24 330.16 274.06 334.90 C 275.35 337.46 277.73 339.54 280.35 340.71 C 286.98 342.46 293.33 334.88 290.42 328.63 C 288.37 323.61 282.32 322.66 277.69 321.71 M 328.39 323.24 C 323.94 325.79 323.90 331.69 323.16 336.08 C 327.28 338.47 331.47 340.79 335.99 342.42 C 337.99 338.30 342.21 334.53 340.61 329.41 C 339.17 324.43 333.33 321.60 328.39 323.24 M 397.71 326.71 C 392.48 330.08 394.62 336.15 395.36 341.13 C 399.36 341.09 407.36 341.02 411.36 340.99 C 411.99 337.03 413.04 332.70 411.08 328.93 C 408.40 324.58 401.30 321.86 397.71 326.71 M 450.28 327.09 C 448.52 329.88 448.04 333.24 447.03 336.32 C 451.47 338.89 456.61 338.43 461.55 338.34 C 461.14 334.49 460.60 330.66 459.93 326.87 C 457.52 326.92 452.70 327.03 450.28 327.09 M 302.69 330.65 C 297.85 333.14 300.85 340.02 299.40 344.20 C 302.80 345.79 306.97 349.48 310.70 346.71 C 315.02 343.20 314.82 336.18 312.43 331.61 C 310.57 327.93 305.66 328.81 302.69 330.65 M 80.49 331.69 C 80.46 334.39 80.47 336.98 80.60 339.71 C 82.19 343.26 87.87 341.17 90.36 342.75 C 90.28 339.21 90.53 335.61 89.83 332.13 C 86.79 331.21 83.59 331.59 80.49 331.69 M 426.19 333.47 C 420.94 334.02 417.36 340.21 419.98 344.95 C 421.56 351.32 431.78 354.87 435.04 348.02 C 440.14 342.21 433.57 332.01 426.19 333.47 M 364.77 336.87 C 359.18 341.28 361.73 352.53 368.98 353.67 C 373.44 353.54 377.32 350.12 378.47 345.84 C 378.59 343.13 378.83 337.71 378.95 335.00 C 374.20 335.38 369.32 335.43 364.77 336.87 M 108.65 336.60 C 102.39 338.97 105.86 347.62 104.53 352.42 C 107.85 353.19 111.22 353.76 114.65 353.74 C 122.40 349.39 119.24 331.97 108.65 336.60 M 218.57 335.97 C 218.29 339.46 216.63 343.34 218.28 346.67 C 222.62 351.04 231.11 350.94 234.73 345.72 C 234.73 342.42 233.98 339.20 233.40 335.98 C 228.46 335.99 223.51 335.97 218.57 335.97 M 135.66 337.90 C 135.49 341.64 135.51 345.41 135.78 349.15 C 139.45 349.69 143.11 350.09 146.81 350.49 C 147.54 346.28 147.42 342.00 147.41 337.76 C 143.49 337.75 139.58 337.81 135.66 337.90 M 166.84 337.32 C 166.39 341.04 165.91 344.72 165.58 348.46 C 169.09 349.55 172.69 350.13 176.33 350.65 C 177.52 347.11 180.30 342.85 177.72 339.29 C 175.11 336.17 170.18 337.86 166.84 337.32 M 248.84 337.68 C 248.35 341.33 247.90 344.94 247.58 348.62 C 251.81 349.32 256.11 349.28 260.39 349.28 C 260.39 345.54 260.55 341.76 259.90 338.07 C 256.29 337.15 252.52 337.70 248.84 337.68 M 201.31 339.27 C 197.71 341.14 192.56 344.80 195.43 349.57 C 196.68 355.23 204.45 357.96 208.67 353.68 C 214.62 348.75 208.65 337.45 201.31 339.27 M 474.75 340.79 C 472.19 343.90 473.70 348.33 473.54 352.07 C 476.31 351.95 481.85 351.71 484.62 351.60 C 485.20 348.64 485.71 345.62 486.36 342.69 C 482.95 340.73 478.50 338.00 474.75 340.79 M 383.52 342.89 C 383.54 347.29 382.21 352.72 386.08 355.89 C 391.73 360.73 397.89 365.04 402.67 370.85 C 405.60 367.78 408.50 364.68 411.36 361.54 C 401.86 355.66 392.53 349.50 383.52 342.89 M 272.37 345.20 C 266.86 348.49 269.62 356.13 268.58 361.24 C 273.50 361.00 278.44 360.93 283.32 360.21 C 285.70 359.78 286.07 356.77 286.45 354.79 C 286.20 348.18 278.63 343.34 272.37 345.20 M 338.42 346.38 C 335.37 347.29 332.82 349.96 332.17 353.09 C 331.93 360.75 342.80 366.83 348.27 360.30 C 356.07 354.64 346.38 342.59 338.42 346.38 M 448.89 346.73 C 446.90 350.80 442.81 354.54 444.39 359.59 C 445.84 364.70 452.17 367.83 457.06 365.09 C 461.79 362.64 460.84 356.10 461.77 351.85 C 457.75 349.51 453.43 347.72 448.89 346.73 M 233.58 357.45 C 233.54 361.07 233.62 364.73 233.80 368.36 C 237.66 368.52 241.52 368.35 245.38 368.26 C 245.31 365.12 245.84 361.79 245.08 358.75 C 242.89 354.43 237.32 357.36 233.58 357.45 M 207.57 368.36 C 208.15 373.86 214.85 374.50 219.06 374.91 C 220.63 371.81 222.88 368.76 222.88 365.15 C 221.79 362.31 220.59 358.26 217.04 357.82 C 211.33 356.46 204.87 362.32 207.57 368.36 M 154.61 356.58 C 153.54 361.05 147.93 366.99 153.02 370.97 C 154.97 374.96 160.95 376.30 164.26 373.27 C 167.40 370.42 167.77 365.29 165.04 361.98 C 163.14 358.10 157.95 358.09 154.61 356.58 M 305.25 357.48 C 304.76 360.84 304.19 364.15 303.69 367.52 C 307.00 369.02 311.31 371.03 314.70 368.75 C 316.59 366.44 317.52 362.76 316.09 360.00 C 314.12 356.19 308.31 359.10 305.25 357.48 M 97.40 361.33 C 91.60 363.23 89.44 372.72 94.67 376.36 C 97.72 379.86 102.62 378.32 106.69 378.60 C 107.62 374.89 108.27 371.14 108.65 367.35 C 107.01 363.04 102.36 358.91 97.40 361.33 M 122.13 360.14 C 119.74 364.28 115.04 368.18 117.36 373.59 C 118.50 378.78 125.16 379.06 129.15 380.23 C 131.12 376.16 135.17 372.43 133.64 367.39 C 132.33 362.41 126.12 361.65 122.13 360.14 M 363.06 362.98 C 362.89 367.00 362.66 371.06 363.27 375.06 C 366.75 375.09 370.15 375.06 373.66 375.14 C 374.39 371.88 374.82 368.53 374.88 365.19 C 372.00 361.78 366.79 363.53 363.06 362.98 M 336.31 368.29 C 331.93 370.26 327.37 375.13 329.63 380.34 C 332.09 387.10 343.04 387.70 346.28 381.27 C 350.55 375.27 343.00 366.52 336.31 368.29 M 186.38 370.73 C 185.69 374.61 185.70 378.55 185.64 382.48 C 189.34 382.17 193.47 383.04 196.72 380.87 C 197.18 377.71 196.91 374.46 196.97 371.30 C 193.45 371.09 189.89 370.87 186.38 370.73 M 258.48 371.47 C 253.82 372.83 251.13 378.52 254.08 382.88 C 256.50 388.54 265.37 388.28 268.11 383.06 C 272.19 377.48 265.29 367.81 258.48 371.47 M 418.41 373.38 C 413.04 374.80 409.24 382.84 413.99 387.01 C 416.55 392.68 425.34 392.21 427.98 386.92 C 433.27 381.06 426.05 370.19 418.41 373.38 M 226.38 376.33 C 221.46 377.89 217.39 384.28 221.00 388.97 C 223.07 393.53 230.30 396.42 234.02 392.02 C 242.71 387.75 234.92 373.01 226.38 376.33 M 144.39 377.43 C 139.93 377.27 138.12 382.88 139.55 386.40 C 141.21 390.47 146.99 389.71 150.21 390.97 C 151.28 388.09 152.78 385.23 152.81 382.09 C 152.56 378.23 147.86 376.01 144.39 377.43 M 290.36 377.37 C 286.29 378.85 281.45 382.49 283.45 387.60 C 284.65 393.82 293.89 397.63 298.29 392.31 C 305.66 387.16 298.22 375.14 290.36 377.37 M 166.43 379.39 C 162.35 381.35 159.50 386.14 160.29 390.68 C 161.23 396.56 169.34 400.21 173.97 395.98 C 181.10 390.83 175.63 376.76 166.43 379.39 M 451.76 378.64 C 450.88 380.52 449.97 382.37 449.26 384.32 C 447.45 388.51 449.61 393.10 450.83 397.17 C 453.32 395.74 457.15 395.58 458.89 392.88 C 461.52 389.15 460.46 384.09 461.57 379.91 C 458.32 379.47 454.99 378.98 451.76 378.64 M 356.21 385.28 C 355.14 388.94 355.99 392.82 356.40 396.54 C 359.80 395.90 363.41 395.96 366.64 394.63 C 369.27 392.25 367.21 387.54 368.66 384.79 C 364.67 383.85 359.62 381.95 356.21 385.28 M 386.82 385.48 C 387.03 388.89 387.18 392.25 387.40 395.68 C 391.26 395.82 395.13 395.95 399.00 396.08 C 399.00 393.18 398.99 387.37 398.99 384.46 C 394.91 384.44 390.84 384.83 386.82 385.48 M 116.30 386.43 C 110.85 387.86 106.50 395.16 110.98 400.00 C 113.82 405.43 122.55 406.30 125.71 400.70 C 130.14 394.30 123.38 385.61 116.30 386.43 M 312.36 389.44 C 309.18 391.03 310.43 396.01 308.88 398.39 C 312.95 399.69 317.52 401.43 321.73 399.80 C 323.76 397.03 324.90 392.52 322.23 389.77 C 319.56 387.18 315.40 388.07 312.36 389.44 M 243.37 390.38 C 240.73 392.55 241.30 396.76 239.92 399.49 C 244.15 400.58 248.50 400.88 252.85 401.06 C 253.08 397.85 254.30 394.34 252.73 391.30 C 250.51 388.42 246.22 388.59 243.37 390.38 M 206.98 398.04 C 207.36 402.00 207.76 405.99 208.11 409.97 C 210.83 409.98 216.28 410.00 219.00 410.01 C 218.99 405.99 218.99 401.99 219.00 397.99 C 214.99 398.00 210.98 398.02 206.98 398.04 M 261.13 407.12 C 258.85 415.46 268.57 417.26 274.04 419.25 C 275.91 415.22 281.03 410.77 278.07 405.96 C 275.53 397.85 262.47 398.77 261.13 407.12 M 329.59 412.36 C 331.86 417.33 338.48 417.05 342.95 417.72 C 344.66 414.90 346.82 412.21 347.60 408.95 C 347.64 404.94 343.98 401.93 340.70 400.28 C 333.87 397.99 326.45 405.61 329.59 412.36 M 180.82 407.37 C 180.81 410.44 180.80 416.58 180.79 419.66 C 183.67 420.64 186.61 421.40 189.66 421.72 C 194.98 418.68 195.85 409.83 190.69 406.28 C 187.64 404.10 183.99 406.94 180.82 407.37 M 292.41 406.40 C 284.90 408.55 285.64 420.96 293.03 423.05 C 298.92 426.27 306.67 419.88 304.52 413.40 C 303.67 408.17 297.35 404.65 292.41 406.40 M 412.38 406.39 C 407.34 407.74 404.35 414.05 407.29 418.69 C 410.16 424.78 420.43 425.99 423.32 419.29 C 426.87 412.28 419.72 404.27 412.38 406.39 M 234.41 408.51 C 227.78 409.24 224.82 417.95 229.21 422.80 C 233.42 428.68 243.73 425.81 245.07 419.03 C 246.15 413.17 240.65 406.46 234.41 408.51 M 381.35 410.35 C 379.07 413.47 379.95 417.53 380.56 421.04 C 383.50 421.02 389.38 420.99 392.32 420.97 C 392.23 417.39 392.56 413.72 391.80 410.20 C 388.67 408.54 384.31 408.17 381.35 410.35 M 156.43 414.43 C 154.07 418.21 155.40 423.15 154.33 427.31 C 157.66 428.61 161.04 429.87 164.69 429.83 C 169.86 427.08 169.85 419.70 168.06 414.95 C 166.20 410.30 159.36 411.21 156.43 414.43 M 135.94 413.77 C 134.95 417.36 134.07 420.95 133.39 424.63 C 137.39 425.57 141.50 425.84 145.60 426.01 C 145.71 423.20 145.93 417.57 146.04 414.76 C 142.69 414.37 139.31 414.02 135.94 413.77 M 200.42 421.40 C 196.75 422.37 194.08 426.13 194.24 429.89 C 195.24 434.17 198.75 437.97 203.14 438.85 C 205.98 439.22 208.58 437.41 210.49 435.50 C 216.78 429.66 207.80 417.87 200.42 421.40 M 356.34 422.33 C 352.45 424.62 354.79 430.27 353.99 433.70 C 357.48 433.92 360.91 434.03 364.42 434.23 C 365.50 430.38 366.15 426.40 366.63 422.45 C 363.28 421.71 359.57 420.58 356.34 422.33 M 277.27 427.31 C 274.91 432.19 277.47 437.86 277.23 442.99 C 282.27 443.28 288.69 445.14 291.80 439.78 C 298.03 431.72 284.27 420.63 277.27 427.31 M 316.39 425.35 C 312.96 425.83 311.80 429.79 309.94 432.14 C 308.38 439.72 319.96 446.77 325.29 440.31 C 332.73 434.95 324.73 421.99 316.39 425.35 M 252.49 428.58 C 249.21 429.77 246.65 432.32 243.73 434.16 C 245.38 437.60 246.37 442.97 250.66 444.25 C 254.73 444.71 258.87 444.46 262.98 444.40 C 263.03 439.40 263.07 434.37 263.13 429.39 C 259.64 428.69 256.07 428.12 252.49 428.58 M 394.35 429.42 C 390.76 431.28 392.59 436.93 391.03 439.70 C 395.36 440.44 399.77 440.30 404.16 440.30 C 404.21 436.39 404.21 432.49 404.16 428.59 C 400.88 428.50 397.47 428.23 394.35 429.42 M 174.77 435.58 C 174.94 440.26 175.11 444.91 175.60 449.58 C 177.19 454.63 184.42 453.80 187.30 450.29 C 190.52 447.71 192.10 443.44 190.80 439.37 C 187.51 433.86 179.85 436.61 174.77 435.58 M 221.88 438.67 C 221.43 441.98 220.93 445.18 220.56 448.53 C 224.72 450.04 229.10 450.84 233.56 450.76 C 233.58 446.87 233.69 442.91 232.89 439.09 C 229.30 438.12 225.54 438.71 221.88 438.67 M 367.55 445.04 C 367.51 449.20 367.76 453.40 368.52 457.50 C 371.95 456.93 375.50 456.78 378.82 455.69 C 380.28 452.31 379.39 448.55 379.42 445.00 C 376.45 445.01 370.52 445.03 367.55 445.04 M 334.03 456.00 C 334.26 460.81 339.17 463.50 343.15 464.98 C 349.13 466.42 352.32 460.90 354.96 456.80 C 352.00 453.48 349.34 449.40 344.88 447.99 C 339.86 447.09 334.43 450.91 334.03 456.00 Z" />
</g>
</svg>
