<?xml version="1.0" encoding="UTF-8" ?>
<!DOCTYPE svg PUBLIC "-//W3C//DTD SVG 1.1//EN" "http://www.w3.org/Graphics/SVG/1.1/DTD/svg11.dtd">
<svg width="1024pt" height="768pt" viewBox="0 0 1024 768" version="1.1" xmlns="http://www.w3.org/2000/svg">
<g id="#eec39aff">
<path fill="#eec39a" opacity="1.00" d=" M 0.00 0.00 L 1024.00 0.00 L 1024.00 768.00 L 0.00 768.00 L 0.00 0.00 M 316.83 5.69 C 315.01 10.71 313.53 15.86 311.56 20.82 C 308.77 26.44 304.24 31.07 302.07 37.03 C 299.17 42.29 300.13 48.42 299.69 54.14 C 301.30 53.69 302.92 53.24 304.54 52.78 C 305.42 47.43 305.93 41.72 309.08 37.11 C 314.14 30.13 317.94 22.37 320.44 14.12 C 321.65 9.76 327.31 9.30 330.97 9.98 C 334.41 10.30 340.12 10.12 341.48 14.35 C 347.20 31.95 358.67 49.08 355.36 68.35 C 354.35 75.08 348.00 78.97 342.17 81.30 C 334.61 84.70 326.01 81.00 319.07 77.89 C 311.58 74.12 308.11 66.26 305.23 58.89 C 303.29 59.61 301.35 60.33 299.43 61.11 C 301.57 67.03 304.09 72.95 308.20 77.80 C 317.81 87.11 332.73 89.91 345.43 86.57 C 350.21 84.88 356.18 83.44 358.12 78.09 C 362.13 71.44 361.03 63.39 360.91 56.02 C 360.14 41.66 353.47 28.62 348.66 15.33 C 346.78 11.55 345.69 5.90 340.71 5.31 C 332.78 4.52 324.77 5.24 316.83 5.69 M 932.21 28.22 C 923.80 36.49 914.60 43.88 906.03 51.94 C 903.02 59.23 899.76 66.91 899.89 74.98 C 897.35 97.63 913.85 120.72 936.02 125.78 C 946.57 126.16 957.65 127.29 967.86 123.91 C 975.68 120.71 978.06 112.01 981.14 104.92 C 987.02 92.61 988.46 78.42 985.94 65.08 C 982.14 53.91 973.23 45.48 968.59 34.67 C 966.60 35.49 964.61 36.28 962.63 37.07 C 966.17 43.52 969.62 50.06 974.01 56.00 C 978.12 61.86 982.23 68.50 981.64 75.99 C 982.01 89.13 976.51 101.38 970.66 112.81 C 967.43 119.21 959.46 120.76 952.99 121.01 C 934.28 123.62 915.57 111.36 908.83 94.08 C 903.89 86.22 904.05 76.54 906.71 67.90 C 908.51 62.46 909.32 55.86 914.59 52.58 C 924.33 45.45 931.77 35.57 941.90 28.99 C 949.49 23.53 955.59 31.81 960.95 35.98 C 962.94 34.77 964.96 33.62 967.01 32.51 C 962.36 28.27 957.55 23.81 951.68 21.40 C 944.66 20.91 937.24 23.13 932.21 28.22 M 52.47 40.46 C 42.70 53.03 36.12 68.68 36.58 84.84 C 45.97 85.10 55.39 85.47 64.71 86.76 C 65.50 85.13 66.27 83.49 67.02 81.84 C 60.33 80.78 53.59 80.02 46.84 79.50 C 51.94 68.88 56.32 57.40 65.57 49.56 C 68.74 47.11 73.44 48.67 77.01 47.39 C 79.32 52.63 81.52 57.91 83.72 63.19 C 86.65 69.94 85.81 77.49 86.34 84.65 C 82.01 83.95 77.64 83.51 73.30 82.96 C 72.53 84.67 71.78 86.38 71.04 88.10 C 91.90 93.20 113.60 89.26 134.68 92.29 C 141.78 93.85 148.99 94.74 156.25 95.08 L 153.99 90.90 C 134.29 83.47 112.65 86.65 92.09 86.00 C 91.78 73.52 92.25 60.84 89.46 48.60 C 86.92 42.50 83.80 33.11 75.02 35.79 C 67.52 36.20 58.80 35.64 52.47 40.46 M 405.57 52.56 C 399.79 60.56 397.30 70.83 398.35 80.61 C 399.24 84.33 403.21 85.94 406.03 87.95 C 412.24 91.85 419.71 93.39 426.98 92.92 C 430.65 93.26 436.03 92.45 436.06 87.32 C 427.25 87.85 417.72 88.03 410.02 82.97 C 407.60 81.07 403.31 79.75 403.41 76.04 C 404.15 65.66 409.62 55.11 419.34 50.50 C 425.31 50.67 431.22 52.02 437.23 52.00 C 434.93 44.68 426.05 44.96 420.03 45.01 C 414.01 44.42 409.82 49.27 405.57 52.56 M 421.43 59.49 C 416.32 60.53 411.60 63.41 408.12 67.26 C 408.05 71.87 406.19 78.48 413.08 78.94 C 413.83 75.95 414.22 72.85 415.23 69.93 C 417.49 67.38 420.86 66.27 423.83 64.77 C 424.46 65.80 425.10 66.82 425.73 67.85 C 423.44 69.72 419.55 70.95 421.13 75.10 C 417.86 82.30 427.88 81.94 431.55 83.43 C 430.19 80.22 428.83 77.03 427.10 74.01 C 428.98 73.99 432.75 73.95 434.63 73.93 C 434.20 70.71 435.15 66.85 432.76 64.30 C 429.91 61.21 426.08 57.76 421.43 59.49 M 799.54 78.98 C 778.02 79.01 756.51 79.00 735.00 79.00 L 735.00 84.00 C 756.65 84.00 778.30 83.99 799.96 84.02 C 799.38 91.79 799.10 99.57 799.27 107.36 C 809.01 103.94 803.50 91.37 805.22 84.03 C 830.26 84.03 855.27 82.94 880.31 83.74 L 878.11 79.59 C 870.37 77.09 861.97 78.25 853.99 78.16 C 837.66 79.21 821.27 79.05 804.92 79.01 C 805.18 74.09 805.48 69.18 805.79 64.27 C 796.62 63.49 800.94 73.84 799.54 78.98 M 686.90 68.88 C 680.87 71.82 675.67 78.77 676.92 85.85 C 683.76 98.64 700.13 98.79 712.63 98.35 C 714.26 91.81 714.24 84.74 711.42 78.53 C 709.53 79.36 707.65 80.22 705.78 81.08 C 707.17 84.53 708.56 87.98 709.68 91.53 C 699.80 95.23 689.25 90.61 682.26 83.48 C 684.47 80.18 686.76 76.95 689.08 73.73 C 693.64 75.05 698.24 76.33 702.58 78.30 C 705.42 79.86 708.19 77.26 710.79 76.34 C 704.35 70.43 695.46 67.88 686.90 68.88 M 519.66 94.68 C 513.94 95.71 506.90 99.25 507.13 106.00 C 507.63 112.29 508.05 121.12 514.64 124.31 C 522.95 126.88 531.88 126.30 540.40 125.34 C 545.72 121.72 550.62 116.86 552.73 110.64 C 544.75 109.58 542.99 118.56 536.71 120.67 C 530.49 121.11 523.99 120.86 518.02 118.93 C 513.96 115.61 513.49 109.51 511.73 104.91 C 518.27 101.64 525.27 97.51 532.96 99.14 C 540.55 99.80 545.81 106.82 553.73 106.36 C 551.48 103.02 549.94 98.75 546.01 96.99 C 538.12 92.28 528.31 94.00 519.66 94.68 M 462.71 101.70 C 459.41 104.54 458.35 111.03 462.20 113.81 C 470.76 120.30 482.01 120.87 492.09 118.20 C 492.45 112.78 495.04 106.38 491.66 101.40 C 490.24 99.22 488.63 96.65 485.88 96.12 C 477.89 95.78 469.31 96.78 462.71 101.70 M 243.93 107.02 C 240.27 109.31 238.44 113.52 237.41 117.53 C 244.87 115.79 250.79 110.74 257.65 107.63 C 257.83 109.05 258.01 110.46 258.19 111.88 C 264.92 111.08 271.73 110.71 278.46 111.74 C 283.44 113.91 287.92 117.14 292.81 119.52 C 292.87 117.63 292.98 113.84 293.03 111.95 C 289.06 109.97 285.39 107.13 280.98 106.24 C 275.24 105.57 269.44 105.78 263.69 105.48 C 274.83 102.46 287.68 99.32 298.15 105.79 C 303.04 108.37 305.83 113.23 309.07 117.48 C 304.95 120.19 299.82 122.10 297.94 127.17 C 303.56 126.86 310.50 127.16 313.68 121.55 C 314.28 117.24 314.27 112.26 311.15 108.88 C 306.89 104.02 301.67 99.19 295.18 97.73 C 277.66 95.26 259.53 98.81 243.93 107.02 M 519.91 105.74 C 520.03 108.94 519.95 112.12 520.01 115.34 C 526.31 115.68 534.21 117.14 538.77 111.73 C 538.86 108.21 537.99 104.75 537.54 101.28 C 531.47 101.95 525.29 102.68 519.91 105.74 M 656.83 116.83 C 643.35 127.33 632.31 142.48 631.16 160.02 C 630.58 182.28 631.18 204.55 631.02 226.81 C 654.08 229.59 677.58 230.58 700.53 226.41 C 711.66 224.38 723.02 225.14 734.27 224.97 C 735.68 221.93 736.85 218.80 738.06 215.68 C 727.04 221.09 714.52 219.61 702.69 220.87 C 692.79 221.92 683.01 224.17 673.01 224.02 C 660.62 224.48 648.35 222.79 636.05 221.71 C 636.13 203.47 635.55 185.24 636.23 167.02 C 636.42 159.28 638.26 151.53 641.70 144.59 C 646.32 134.57 655.16 127.58 662.57 119.73 C 665.94 123.87 671.75 128.11 668.23 134.22 C 664.25 141.31 655.02 141.09 648.07 142.52 C 648.84 162.75 646.61 182.84 644.81 202.94 C 651.98 203.21 659.16 203.55 666.36 203.72 C 671.14 196.14 679.03 190.68 687.93 189.34 C 695.11 190.13 698.84 197.66 704.92 200.82 C 705.47 194.63 707.58 188.08 713.95 185.85 C 718.73 181.36 725.08 184.48 729.72 187.30 C 735.52 193.29 733.12 201.65 732.10 208.82 C 733.64 208.59 736.71 208.12 738.25 207.89 C 738.41 199.45 740.77 189.53 734.26 182.75 C 728.46 178.67 720.76 177.00 713.86 178.97 C 708.94 180.89 704.88 184.47 701.10 188.08 C 689.71 179.84 673.54 185.08 664.77 194.76 C 661.61 199.80 655.11 197.46 650.34 198.52 C 653.41 181.64 653.19 164.46 653.11 147.37 C 658.36 146.44 663.89 145.97 668.79 143.71 C 677.89 136.32 675.01 122.17 667.75 114.43 C 664.24 115.58 659.99 114.68 656.83 116.83 M 244.06 121.90 C 259.82 119.66 276.31 122.41 289.58 131.47 C 293.54 134.31 296.01 139.34 301.84 138.94 C 301.48 131.83 296.27 126.50 289.98 124.05 C 280.44 120.04 270.71 115.09 260.00 115.90 C 254.77 116.84 245.13 113.98 244.06 121.90 M 241.01 131.37 C 255.59 129.15 268.61 136.67 281.84 141.35 C 290.35 144.54 293.63 154.91 302.73 156.99 C 300.83 144.14 288.80 135.76 276.93 132.96 C 269.20 130.87 262.28 125.70 254.00 125.95 C 249.30 126.26 241.68 124.23 241.01 131.37 M 219.92 133.90 C 214.61 138.91 218.27 147.09 217.16 153.33 C 221.62 149.44 222.04 143.07 225.60 138.55 C 228.32 135.03 231.55 131.84 233.08 127.52 C 228.35 128.38 222.52 129.14 219.92 133.90 M 864.10 136.07 C 858.68 142.37 854.22 149.45 848.48 155.47 C 845.40 159.17 847.62 164.67 846.81 168.99 C 847.38 186.27 845.36 204.06 850.06 220.93 C 851.00 223.90 852.30 227.61 855.78 228.30 C 866.31 231.26 877.40 229.98 888.15 229.26 C 904.53 227.98 919.30 218.62 935.97 219.48 L 935.99 214.79 C 927.26 215.12 918.34 214.91 910.07 218.13 C 894.15 223.77 876.62 227.18 859.94 223.08 C 855.14 221.92 855.44 215.57 853.94 211.96 C 850.42 194.61 852.04 176.74 852.66 159.18 C 861.18 153.47 864.02 142.44 873.09 137.45 C 874.08 140.99 875.29 144.90 873.48 148.40 C 871.62 153.51 865.44 154.78 861.27 157.26 C 859.30 168.17 858.27 179.22 856.37 190.14 C 855.76 200.14 853.68 212.26 862.89 219.19 C 884.99 212.98 908.12 211.12 930.99 210.80 L 930.99 205.93 C 909.24 205.41 887.68 208.29 866.27 211.79 C 864.43 210.09 862.59 208.41 860.77 206.73 C 860.92 191.76 864.74 177.22 866.08 162.37 C 871.01 160.37 876.21 157.72 878.60 152.66 C 881.35 145.80 879.21 138.19 877.60 131.30 C 872.94 132.33 867.57 132.37 864.10 136.07 M 418.91 137.15 C 420.39 148.03 423.13 158.68 424.64 169.56 C 426.80 183.99 432.27 197.62 435.26 211.87 C 433.49 210.62 431.81 209.22 429.82 208.34 C 426.26 209.04 423.16 210.89 420.14 212.77 C 418.95 211.23 417.85 209.62 416.57 208.17 C 411.72 207.38 409.33 211.93 406.18 214.52 C 407.26 190.60 408.38 166.68 408.48 142.73 C 400.56 142.95 403.95 151.29 402.98 155.98 C 403.19 177.05 400.86 198.03 400.89 219.10 C 414.37 219.04 427.87 218.48 441.25 216.82 C 440.26 200.61 433.36 185.66 430.30 169.85 C 428.17 159.77 427.60 149.39 424.64 139.50 C 423.21 138.91 420.34 137.74 418.91 137.15 M 224.89 141.01 C 225.18 148.99 225.62 156.98 226.05 164.96 L 231.11 164.99 C 230.82 157.00 230.37 149.02 229.95 141.04 L 224.89 141.01 M 235.84 143.00 C 235.92 151.21 235.78 159.43 236.50 167.62 C 236.79 170.34 238.05 173.38 241.85 173.04 C 241.42 163.03 240.98 153.02 240.84 143.01 L 235.84 143.00 M 44.03 151.04 C 40.23 154.32 39.62 159.90 37.59 164.22 C 32.00 164.25 26.35 163.95 20.84 165.07 C 15.73 167.22 13.05 172.57 12.26 177.82 C 14.95 176.68 17.69 175.67 20.20 174.16 C 25.44 170.54 32.34 172.75 38.26 172.03 C 42.13 179.93 49.44 186.26 58.59 186.60 C 57.62 183.04 57.49 179.03 54.87 176.21 C 50.84 171.46 47.69 165.98 46.17 159.90 C 50.24 158.11 56.37 153.97 59.49 159.40 C 60.08 168.08 58.77 176.81 59.86 185.50 C 67.70 182.87 70.17 172.49 79.06 172.06 C 86.65 172.11 88.83 180.88 92.22 186.04 C 94.84 185.69 97.48 185.38 100.11 185.02 C 99.86 182.72 99.60 180.42 99.33 178.12 C 96.63 176.44 93.71 174.61 92.43 171.55 C 92.05 166.98 92.92 162.49 93.59 158.01 C 96.40 157.63 99.26 157.31 102.08 156.93 C 103.88 160.89 106.81 164.84 105.37 169.51 C 104.04 174.76 101.17 179.69 101.35 185.27 C 104.84 184.58 108.31 183.77 111.75 182.89 C 112.59 179.36 113.39 175.82 114.25 172.29 C 123.44 169.73 132.48 165.81 142.27 166.99 C 144.56 169.71 146.86 172.50 150.22 174.01 C 149.49 169.55 150.71 162.16 144.70 161.34 C 134.63 160.82 124.57 162.34 114.61 163.69 C 113.51 160.07 112.83 156.18 111.06 152.86 C 104.97 149.16 97.12 149.86 90.35 150.33 C 85.93 152.38 86.43 158.64 82.64 161.39 C 78.65 162.24 74.59 162.73 70.58 163.44 C 68.90 158.75 69.65 150.99 63.62 149.38 C 57.19 149.03 50.01 148.04 44.03 151.04 M 478.79 163.76 C 475.33 167.94 470.98 171.75 468.92 176.90 C 466.54 185.90 467.62 196.61 474.75 203.25 C 481.76 209.36 490.93 211.77 499.19 215.68 C 508.11 219.18 516.32 224.97 526.11 225.77 C 536.38 226.39 546.71 226.38 557.00 225.81 C 565.42 225.23 574.39 222.74 580.08 216.08 C 586.77 209.06 594.76 202.45 598.08 193.02 C 601.36 186.01 600.16 177.93 599.36 170.53 C 596.92 165.00 591.11 161.02 585.03 160.94 C 575.78 160.96 566.21 161.14 557.38 164.12 C 556.81 165.32 555.68 167.73 555.11 168.94 C 564.69 168.08 574.17 165.91 583.84 166.19 C 588.55 167.46 592.65 170.95 594.70 175.38 C 595.31 180.69 594.62 186.28 591.98 190.98 C 586.28 201.41 577.94 210.46 567.95 216.89 C 557.89 222.74 546.06 221.18 535.01 220.87 C 522.62 220.77 511.59 214.34 500.60 209.43 C 493.63 206.12 486.08 203.85 479.83 199.17 C 475.36 193.97 470.72 186.44 474.56 179.50 C 478.21 174.03 482.28 167.81 489.01 166.01 C 500.21 164.87 510.86 168.99 521.19 172.73 C 526.71 174.87 532.41 171.57 538.01 171.34 C 542.66 169.73 551.59 172.88 551.96 165.11 C 542.22 165.53 532.44 167.43 522.69 166.18 C 514.37 164.84 506.62 160.54 498.02 160.90 C 491.82 161.53 483.91 159.17 478.79 163.76 M 571.11 175.05 C 562.94 179.47 553.59 180.54 544.67 182.60 C 537.75 183.73 530.56 185.54 523.61 183.52 C 512.28 182.14 501.62 175.49 489.95 177.87 C 486.10 178.50 484.20 182.64 483.90 186.17 C 489.75 185.88 496.73 179.28 501.99 184.98 C 508.58 188.28 510.75 195.65 514.97 201.10 C 521.80 208.47 532.26 208.47 541.35 210.57 C 552.24 212.50 562.90 206.86 570.30 199.29 C 575.42 194.31 573.21 186.50 575.47 180.38 C 579.56 176.18 587.04 177.54 590.07 171.95 C 583.68 172.28 576.75 171.49 571.11 175.05 M 253.70 229.74 C 246.24 230.44 239.33 226.91 232.37 224.86 C 233.55 227.66 232.81 232.59 236.57 233.46 C 250.73 238.08 267.25 239.12 279.94 230.18 C 280.29 226.88 280.60 223.53 280.90 220.23 C 270.57 219.78 263.12 227.36 253.70 229.74 M 286.83 221.02 C 292.11 231.22 303.89 237.42 315.29 234.25 C 322.63 232.60 334.07 230.10 333.60 220.30 C 327.56 222.28 322.15 225.97 315.92 227.32 C 312.24 227.11 309.20 224.38 305.85 223.14 C 300.03 220.16 293.06 221.71 286.83 221.02 M 958.82 229.75 C 955.28 230.76 950.63 231.42 950.03 236.10 C 960.13 235.72 969.97 233.34 979.94 231.89 C 982.02 247.41 983.07 263.06 985.66 278.52 C 988.04 291.88 986.73 305.52 987.02 319.00 C 986.52 341.27 987.78 363.52 987.34 385.79 C 980.88 385.15 974.36 384.99 967.89 384.81 C 965.52 360.22 968.66 335.39 965.51 310.85 C 964.29 287.75 960.27 264.93 957.02 242.06 C 955.31 241.64 953.60 241.22 951.91 240.83 C 953.33 255.31 955.70 269.66 957.85 284.05 C 959.72 297.02 960.18 310.12 961.62 323.14 C 962.63 345.36 961.25 367.62 962.76 389.83 C 972.58 390.33 982.42 391.07 992.27 391.12 C 993.62 377.77 991.93 364.37 992.02 351.00 C 991.17 322.67 994.24 294.02 989.12 265.96 C 987.06 252.68 986.39 239.24 984.97 225.88 C 976.24 227.14 967.48 228.17 958.82 229.75 M 108.43 242.53 C 103.95 245.82 104.30 252.38 102.75 257.13 C 99.92 266.46 92.01 274.60 81.98 275.67 C 74.34 274.97 64.68 272.09 62.16 263.83 C 59.13 256.56 56.98 245.33 47.05 244.89 C 38.73 243.70 30.29 243.98 21.90 243.82 C 21.57 258.41 23.47 272.89 24.32 287.43 C 31.07 286.48 37.60 284.61 44.15 282.78 C 36.97 309.53 37.80 337.53 38.02 364.97 C 40.52 365.02 43.03 365.06 45.54 365.10 C 41.35 349.80 42.80 333.60 43.90 317.99 C 44.86 304.43 49.37 291.37 49.34 277.70 C 42.55 278.23 35.75 278.88 29.14 280.57 C 27.65 270.02 26.76 259.41 26.81 248.75 C 32.56 249.03 38.36 249.01 44.05 249.98 C 54.66 252.48 54.87 265.63 59.72 273.33 C 69.98 282.48 86.49 283.75 97.91 275.96 C 103.83 271.37 107.70 264.38 109.07 257.06 C 110.18 254.11 109.69 249.74 112.47 247.54 C 118.18 245.41 124.18 244.33 130.09 242.92 C 135.72 252.79 133.67 264.71 133.79 275.56 C 123.72 276.39 113.69 277.50 103.63 278.33 C 104.93 289.33 110.51 299.00 113.57 309.49 C 118.39 323.58 124.89 337.19 127.15 352.05 C 115.38 352.20 103.65 351.40 91.93 350.62 C 84.48 349.63 77.52 352.58 70.59 354.70 C 64.46 356.61 57.65 355.77 51.77 358.54 C 51.36 359.89 50.53 362.59 50.12 363.94 C 58.12 362.26 66.17 360.83 74.25 359.57 C 80.28 358.28 86.11 354.99 92.46 356.18 C 106.04 357.36 119.71 357.02 133.33 357.00 C 131.68 336.71 122.50 318.32 116.82 299.05 C 115.52 293.43 111.70 288.92 109.96 283.46 C 119.25 281.89 128.71 281.51 138.00 279.92 C 139.49 277.25 138.98 273.89 139.22 271.03 C 139.27 259.85 139.98 248.13 135.15 237.73 C 126.23 238.71 116.70 238.63 108.43 242.53 M 398.28 300.22 C 395.68 305.38 396.46 311.61 395.16 317.14 C 391.34 338.57 385.46 359.98 387.23 381.98 C 387.85 399.21 394.24 415.43 399.39 431.68 C 402.97 442.17 411.51 451.58 422.93 453.27 C 426.80 454.59 430.55 452.37 433.37 449.90 C 425.81 447.91 417.46 446.00 411.88 440.11 C 404.36 432.20 402.14 421.03 398.97 410.99 C 395.13 399.40 391.59 387.34 392.11 374.99 C 392.67 353.28 399.23 332.38 401.92 310.95 C 402.26 301.58 411.96 296.10 420.03 294.12 C 428.25 293.95 438.49 292.23 444.50 299.46 C 454.29 310.55 464.78 322.28 467.61 337.31 C 468.67 353.72 465.58 369.98 463.24 386.15 C 461.25 400.53 463.48 415.67 457.35 429.27 C 453.11 439.98 441.27 444.93 436.74 455.44 C 448.72 454.08 456.48 443.73 462.10 434.11 C 468.25 421.68 466.46 407.39 468.06 394.05 C 470.63 372.12 476.10 349.72 471.23 327.70 C 466.81 315.06 457.65 304.84 449.42 294.54 C 442.80 287.21 431.71 288.98 422.97 288.88 C 413.33 287.90 404.20 292.97 398.28 300.22 M 246.05 291.09 C 244.46 302.02 244.99 313.24 247.54 323.98 C 232.35 324.08 216.80 322.93 201.99 327.06 C 202.74 334.84 210.10 337.93 216.10 340.96 C 213.46 341.22 208.18 341.73 205.54 341.99 C 204.97 346.24 204.14 350.44 204.09 354.76 C 207.63 358.48 213.33 358.00 217.89 359.31 C 212.79 362.34 207.22 366.04 208.04 373.05 C 219.06 379.41 231.84 373.76 243.54 372.49 C 249.68 371.11 256.56 371.47 262.04 367.99 C 268.44 363.32 274.41 357.33 282.29 355.26 C 301.31 349.19 321.42 352.62 340.87 354.26 C 341.22 344.17 341.89 334.10 342.15 324.00 C 321.98 323.71 301.77 324.78 281.64 323.40 C 276.32 322.41 269.49 321.09 267.92 315.06 C 264.68 304.62 258.36 292.27 246.05 291.09 M 691.05 323.91 C 692.01 340.43 694.07 356.83 697.23 373.08 C 707.89 372.93 718.56 372.44 729.22 371.87 C 728.79 370.23 728.35 368.60 727.93 366.98 C 719.37 367.18 710.83 367.92 702.27 368.04 C 699.75 355.46 696.94 342.89 696.77 329.98 C 709.30 331.34 721.91 330.95 734.50 331.07 C 734.81 344.68 732.44 358.62 735.73 371.99 C 737.11 371.99 738.49 372.00 739.89 372.01 C 738.62 357.81 740.45 343.58 739.53 329.38 C 739.35 327.07 737.24 325.76 735.06 326.01 C 720.35 325.96 705.68 325.34 691.05 323.91 M 406.02 329.90 C 406.00 332.62 406.00 335.34 406.03 338.07 C 407.68 337.94 410.99 337.69 412.65 337.56 C 412.74 335.92 412.94 332.64 413.04 331.00 C 410.69 330.63 408.35 330.26 406.02 329.90 M 445.89 331.96 C 446.20 334.61 446.59 337.31 446.95 339.98 C 448.74 339.99 452.30 339.99 454.08 340.00 C 453.89 337.42 453.72 334.86 453.57 332.30 C 451.00 332.18 448.44 332.06 445.89 331.96 M 863.59 343.05 C 863.38 345.04 862.97 349.02 862.77 351.01 C 839.18 350.98 815.59 351.01 792.00 351.00 L 792.00 356.00 C 815.50 356.15 839.01 355.58 862.51 356.43 C 863.92 359.65 865.93 362.88 869.54 364.02 C 869.45 361.33 869.37 358.64 869.31 355.97 C 889.87 355.79 910.45 356.48 931.01 355.80 C 935.16 356.57 937.58 354.83 938.27 350.60 C 915.22 351.13 892.14 351.43 869.10 350.46 C 867.24 347.99 865.40 345.52 863.59 343.05 M 422.44 400.11 C 421.88 403.84 421.33 407.58 420.78 411.32 C 426.08 413.32 431.44 415.39 437.22 415.48 C 435.89 410.10 430.58 408.59 426.56 405.97 C 430.34 405.73 434.09 406.15 437.86 406.37 C 437.90 397.11 427.94 400.76 422.44 400.11 M 324.02 408.93 C 323.01 417.37 320.96 429.25 311.65 432.47 C 291.62 436.61 271.16 438.07 250.92 440.87 C 249.54 438.05 249.05 432.95 245.03 432.95 C 236.68 430.92 235.06 440.92 234.15 446.56 C 230.93 447.32 227.75 448.17 224.56 449.03 C 225.12 454.71 226.48 460.25 230.26 464.71 C 227.09 465.53 223.96 466.49 220.89 467.62 C 220.91 470.52 220.94 476.31 220.95 479.21 C 232.81 485.27 246.79 483.02 259.56 482.45 C 268.81 481.89 276.30 475.65 285.43 474.63 C 293.59 473.56 301.71 471.16 310.01 471.67 C 320.76 471.94 331.60 472.64 342.31 471.24 C 347.37 470.50 350.65 466.01 352.63 461.64 C 353.00 451.84 344.73 443.71 346.96 433.74 C 348.75 425.19 349.15 416.45 349.03 407.73 C 341.54 408.42 344.74 416.86 343.03 421.55 C 342.56 429.16 339.05 436.28 338.80 443.87 C 340.91 449.48 345.02 454.08 347.60 459.48 C 343.94 462.17 340.63 465.89 336.00 466.85 C 329.02 467.33 322.00 467.10 315.01 467.12 C 315.67 466.35 316.33 465.58 317.00 464.82 C 307.03 462.41 297.34 466.53 287.41 466.76 C 277.95 467.50 270.46 473.82 261.60 476.41 C 252.47 479.10 242.76 478.26 233.43 477.44 C 230.02 476.85 227.29 474.53 224.89 472.18 C 229.59 470.44 234.62 470.08 239.60 470.19 C 238.84 463.76 234.72 458.80 230.29 454.46 C 230.93 453.60 231.56 452.74 232.20 451.89 C 235.39 452.56 238.53 453.34 241.71 454.06 C 240.35 448.83 239.99 443.12 243.14 438.47 C 243.92 440.73 244.67 443.00 245.40 445.28 C 252.12 445.44 258.89 445.69 265.54 444.46 C 282.63 441.57 300.16 441.34 316.96 436.72 C 320.28 435.81 322.26 432.69 324.04 430.02 C 329.57 423.56 327.30 414.43 328.11 406.73 L 324.02 408.93 M 44.13 416.83 C 49.31 427.79 47.86 440.24 48.12 452.00 C 47.68 470.82 49.45 489.99 45.10 508.50 C 43.36 517.26 44.19 526.27 43.86 535.15 C 60.93 534.88 77.89 532.70 94.97 532.77 C 89.51 523.39 91.07 512.06 88.08 501.89 C 86.20 489.07 85.69 476.04 82.99 463.33 C 88.53 464.82 94.29 464.95 99.98 465.40 C 99.99 490.79 100.08 516.18 99.90 541.57 C 111.24 544.15 123.06 542.76 134.58 543.05 C 132.44 535.12 133.84 526.92 135.94 519.17 C 139.53 498.40 141.78 476.31 135.44 455.90 C 132.84 442.69 132.96 429.19 132.87 415.79 C 110.32 418.25 87.65 418.30 65.00 418.00 C 65.00 419.75 65.00 423.24 65.00 424.99 C 85.96 424.90 106.93 425.46 127.88 424.39 C 128.04 437.77 129.02 451.20 131.78 464.31 C 135.59 477.58 133.73 491.52 132.13 505.01 C 131.44 516.17 126.91 526.72 127.63 538.05 C 120.90 537.96 114.18 537.86 107.46 537.70 C 106.71 537.01 105.95 536.32 105.19 535.65 C 104.80 510.50 105.08 485.36 104.99 460.22 C 95.90 459.54 86.83 458.54 77.75 457.80 C 78.75 471.59 81.69 485.15 82.43 498.97 C 83.04 508.68 87.17 517.83 86.35 527.73 C 73.72 527.89 61.23 529.86 48.62 530.28 C 48.68 517.03 52.57 504.23 52.85 491.02 C 53.51 469.74 52.32 448.44 53.60 427.18 C 56.61 424.97 58.80 421.92 60.65 418.72 C 55.52 415.85 49.75 414.65 44.13 416.83 M 323.40 451.24 C 319.66 452.97 315.49 450.39 311.71 450.67 C 313.84 453.79 315.23 460.60 320.99 457.97 C 327.81 459.40 332.86 453.86 333.63 447.59 C 330.14 448.61 326.76 449.88 323.40 451.24 M 858.28 458.02 C 858.07 465.68 858.08 473.35 857.84 481.02 C 857.93 494.39 853.06 507.90 857.69 521.04 C 877.78 520.86 898.00 521.94 917.97 519.13 C 942.80 517.41 967.26 512.72 991.97 509.91 C 992.02 494.31 992.02 478.70 991.99 463.10 C 974.52 462.92 957.04 461.12 939.58 462.63 C 916.17 465.17 892.55 465.60 869.05 464.29 C 869.53 465.97 870.22 470.05 872.99 469.88 C 893.46 470.83 913.97 469.48 934.41 468.27 C 951.90 466.39 969.47 468.16 987.01 468.10 C 986.98 480.34 987.00 492.58 986.96 504.82 C 963.75 508.69 940.43 512.01 916.98 513.98 C 898.83 516.74 880.41 516.18 862.13 515.70 C 860.38 498.76 864.37 481.78 864.00 464.81 C 863.42 461.78 862.04 458.32 858.28 458.02 M 555.82 495.01 C 552.18 496.69 552.06 501.64 552.27 505.00 C 553.45 515.92 555.15 526.78 555.35 537.80 C 569.87 539.49 584.50 540.56 599.12 539.21 C 598.72 536.46 598.42 533.81 598.07 531.10 C 586.41 537.56 572.82 533.40 560.33 532.83 C 559.83 524.36 559.08 515.91 557.58 507.57 C 557.18 504.75 557.30 500.64 560.67 499.76 C 568.16 497.36 576.02 496.43 583.82 495.61 C 586.97 505.89 588.70 516.50 590.32 527.11 C 592.17 526.69 594.01 526.25 595.86 525.82 C 593.82 513.80 591.72 501.79 588.81 489.94 C 577.73 490.97 566.47 491.53 555.82 495.01 M 725.63 489.92 C 725.41 491.93 724.96 495.93 724.73 497.93 C 705.59 500.44 686.26 500.14 667.00 500.01 L 667.01 504.99 C 685.86 504.97 704.82 505.72 723.58 503.24 C 723.43 507.00 723.31 510.63 723.45 514.45 C 728.03 512.49 729.24 507.62 730.68 503.43 C 750.61 501.88 770.50 498.98 790.54 499.58 C 805.06 499.89 819.47 497.75 833.99 497.75 L 833.99 492.76 C 822.95 492.88 811.96 493.62 800.97 494.42 C 777.58 493.40 754.32 496.57 731.01 497.87 C 729.23 495.19 727.44 492.55 725.63 489.92 M 377.00 523.99 C 361.26 527.17 345.04 524.89 329.22 527.21 C 307.49 531.90 286.31 538.75 264.89 544.62 C 255.80 546.72 247.95 552.05 240.84 557.87 C 237.18 560.70 238.04 565.91 238.01 569.97 C 237.97 579.22 246.24 586.99 255.09 588.18 C 267.40 591.38 280.07 592.69 292.64 594.39 C 303.57 597.14 314.85 597.40 326.00 598.61 C 338.02 599.10 349.95 601.03 362.00 600.98 C 387.45 601.04 413.08 602.11 438.32 598.08 C 453.15 595.73 468.82 596.59 482.97 590.96 C 491.41 585.93 500.02 581.07 507.72 574.90 C 511.57 571.83 517.07 569.86 518.46 564.62 C 519.42 559.20 518.86 553.62 519.18 548.17 C 512.32 542.72 503.69 540.64 495.85 537.07 C 487.91 533.04 478.51 533.46 470.74 528.91 C 455.22 521.05 437.14 521.98 420.28 521.85 C 420.56 525.55 420.85 529.27 421.14 532.99 C 434.08 533.02 447.04 532.50 459.98 533.37 C 467.33 533.71 473.90 537.40 481.01 538.90 C 488.36 540.02 494.91 543.66 501.82 546.14 C 506.24 548.02 511.28 549.84 513.86 554.19 C 514.58 558.27 513.45 563.28 509.76 565.63 C 496.66 573.68 485.11 585.01 469.86 588.91 C 457.31 591.11 444.55 591.82 431.95 593.63 C 408.81 597.11 385.30 596.21 361.99 595.70 C 339.21 593.40 316.15 593.13 293.63 588.63 C 280.20 586.96 266.55 585.53 253.68 581.11 C 249.04 579.61 245.73 575.52 243.72 571.24 C 242.13 567.56 244.11 563.38 247.10 561.14 C 251.92 557.64 256.77 554.05 262.20 551.57 C 275.34 547.36 288.76 544.08 301.93 539.95 C 314.32 536.00 327.47 535.64 340.26 533.84 C 347.92 532.71 355.64 534.22 363.32 533.92 C 380.83 530.78 398.65 533.45 416.29 533.03 C 415.55 529.29 414.77 525.63 413.91 521.94 C 401.59 521.99 389.14 521.61 377.00 523.99 M 41.88 570.47 C 43.40 577.25 45.42 583.93 46.35 590.85 C 36.95 593.74 27.40 596.13 18.05 599.19 C 16.69 599.66 15.17 600.29 14.80 601.84 C 12.44 607.85 13.42 614.54 12.70 620.85 C 35.57 625.38 59.14 622.39 82.20 621.05 C 80.53 605.01 76.82 589.21 76.77 573.02 C 71.12 572.98 65.47 572.99 59.82 573.09 C 60.26 575.00 60.73 576.91 61.19 578.83 C 64.70 578.44 68.21 578.06 71.73 577.81 C 72.56 590.67 74.24 603.45 76.19 616.19 C 56.78 618.08 37.08 619.30 17.72 616.20 C 18.48 612.50 19.22 608.77 19.96 605.09 C 30.09 601.58 40.46 598.88 50.77 595.97 C 52.57 590.36 46.44 580.27 54.32 577.85 C 54.16 576.59 54.00 575.34 53.84 574.10 C 49.89 572.77 45.92 571.48 41.88 570.47 M 115.49 574.93 C 116.71 582.29 116.92 589.76 117.32 597.21 C 128.64 596.14 139.94 592.69 151.35 594.66 C 156.20 597.15 157.99 603.17 160.02 607.84 C 145.95 618.50 127.59 614.37 111.25 616.03 C 110.60 603.13 108.66 590.23 109.80 577.32 C 107.09 576.16 104.07 575.70 101.24 575.03 C 103.97 590.25 106.33 605.61 106.29 621.12 C 120.06 620.59 133.86 620.40 147.61 619.43 C 153.76 619.21 158.95 615.82 164.23 613.10 C 163.47 606.61 165.47 598.83 160.14 593.88 C 158.61 591.80 156.61 589.54 153.89 589.19 C 143.24 588.46 132.61 589.67 122.06 590.96 C 122.01 585.64 121.97 580.32 121.93 575.02 C 120.32 575.00 117.10 574.95 115.49 574.93 M 482.45 616.55 C 453.81 617.40 425.24 619.89 396.86 623.79 C 364.23 628.51 331.43 634.84 301.03 648.02 C 291.23 652.94 280.58 657.80 274.07 667.05 C 268.16 673.55 268.94 684.12 274.36 690.65 C 282.49 700.14 293.97 705.91 305.27 710.78 C 335.26 722.93 367.25 729.08 399.13 733.82 C 440.17 739.23 481.61 741.54 523.00 741.01 C 569.71 740.17 616.51 736.47 662.40 727.42 C 683.43 723.24 704.26 717.52 723.97 708.98 C 735.27 703.43 747.64 697.44 753.65 685.66 C 756.52 679.18 754.83 671.05 750.19 665.80 C 742.03 656.64 730.82 650.99 719.73 646.22 C 689.46 633.97 657.17 627.79 624.99 623.06 C 577.77 616.96 530.03 614.69 482.45 616.55 Z" />
<path fill="#eec39a" opacity="1.00" d=" M 465.27 108.02 C 470.65 104.17 476.89 102.08 483.23 100.40 C 485.61 104.33 486.69 108.79 487.57 113.26 C 479.57 115.24 471.70 112.75 465.27 108.02 Z" />
<path fill="#eec39a" opacity="1.00" d=" M 519.75 197.74 C 525.88 193.99 532.64 191.01 540.00 191.05 C 548.85 190.97 558.86 189.26 566.62 194.58 C 560.69 199.02 554.45 204.04 547.01 205.48 C 537.66 204.26 527.82 203.02 519.75 197.74 Z" />
<path fill="#eec39a" opacity="1.00" d=" M 249.93 299.97 C 254.07 301.57 257.44 304.87 258.59 309.22 C 259.94 314.77 261.51 320.99 266.32 324.64 C 271.45 327.31 277.20 328.83 283.01 328.79 C 301.03 329.41 319.06 328.85 337.09 329.02 C 336.43 335.29 335.88 341.58 335.06 347.83 C 315.75 347.36 295.51 344.40 276.81 350.65 C 265.85 353.94 259.05 365.38 247.17 366.28 C 236.52 367.73 225.93 371.26 215.10 370.04 C 223.10 360.94 236.06 361.94 246.88 359.66 C 249.93 359.26 250.00 355.78 250.81 353.36 C 236.57 353.39 221.45 356.22 207.84 350.71 C 209.81 348.98 211.87 347.01 214.62 346.73 C 225.57 345.46 236.68 344.95 247.47 342.55 C 248.20 341.59 249.67 339.68 250.40 338.73 C 237.31 336.74 222.89 339.03 211.23 331.48 C 226.56 326.70 243.20 328.67 258.67 332.03 C 254.42 321.75 249.34 311.43 249.93 299.97 Z" />
</g>
<g id="#76428aff">
<path fill="#76428a" opacity="1.00" d=" M 316.83 5.69 C 324.77 5.24 332.78 4.52 340.71 5.31 C 345.69 5.90 346.78 11.55 348.66 15.33 C 353.47 28.62 360.14 41.66 360.91 56.02 C 361.03 63.39 362.13 71.44 358.12 78.09 C 356.18 83.44 350.21 84.88 345.43 86.57 C 332.73 89.91 317.81 87.11 308.20 77.80 C 304.09 72.95 301.57 67.03 299.43 61.11 C 301.35 60.33 303.29 59.61 305.23 58.89 C 308.11 66.26 311.58 74.12 319.07 77.89 C 326.01 81.00 334.61 84.70 342.17 81.30 C 348.00 78.97 354.35 75.08 355.36 68.35 C 358.67 49.08 347.20 31.95 341.48 14.35 C 340.12 10.12 334.41 10.30 330.97 9.98 C 327.31 9.30 321.65 9.76 320.44 14.12 C 317.94 22.37 314.14 30.13 309.08 37.11 C 305.93 41.72 305.42 47.43 304.54 52.78 C 302.92 53.24 301.30 53.69 299.69 54.14 C 300.13 48.42 299.17 42.29 302.07 37.03 C 304.24 31.07 308.77 26.44 311.56 20.82 C 313.53 15.86 315.01 10.71 316.83 5.69 Z" />
<path fill="#76428a" opacity="1.00" d=" M 932.21 28.22 C 937.24 23.13 944.66 20.91 951.68 21.40 C 957.55 23.81 962.36 28.27 967.01 32.51 C 964.96 33.62 962.94 34.77 960.95 35.98 C 955.59 31.81 949.49 23.53 941.90 28.99 C 931.77 35.57 924.33 45.45 914.59 52.58 C 909.32 55.86 908.51 62.46 906.71 67.90 C 904.05 76.54 903.89 86.22 908.83 94.08 C 915.57 111.36 934.28 123.62 952.99 121.01 C 959.46 120.76 967.43 119.21 970.66 112.81 C 976.51 101.38 982.01 89.13 981.64 75.99 C 982.23 68.50 978.12 61.86 974.01 56.00 C 969.62 50.06 966.17 43.52 962.63 37.07 C 964.61 36.28 966.60 35.49 968.59 34.67 C 973.23 45.48 982.14 53.91 985.94 65.08 C 988.46 78.42 987.02 92.61 981.14 104.92 C 978.06 112.01 975.68 120.71 967.86 123.91 C 957.65 127.29 946.57 126.16 936.02 125.78 C 913.85 120.72 897.35 97.63 899.89 74.98 C 899.76 66.91 903.02 59.23 906.03 51.94 C 914.60 43.88 923.80 36.49 932.21 28.22 Z" />
<path fill="#76428a" opacity="1.00" d=" M 52.47 40.46 C 58.80 35.64 67.52 36.20 75.02 35.79 C 83.80 33.11 86.92 42.50 89.46 48.60 C 92.25 60.84 91.78 73.52 92.09 86.00 C 112.65 86.65 134.29 83.47 153.99 90.90 L 156.25 95.08 C 148.99 94.74 141.78 93.85 134.68 92.29 C 113.60 89.26 91.90 93.20 71.04 88.10 C 71.78 86.38 72.53 84.67 73.30 82.96 C 77.64 83.51 82.01 83.95 86.34 84.65 C 85.81 77.49 86.65 69.94 83.72 63.19 C 81.52 57.91 79.32 52.63 77.01 47.39 C 73.44 48.67 68.74 47.11 65.57 49.56 C 56.32 57.40 51.94 68.88 46.84 79.50 C 53.59 80.02 60.33 80.78 67.02 81.84 C 66.27 83.49 65.50 85.13 64.71 86.76 C 55.39 85.47 45.97 85.10 36.58 84.84 C 36.12 68.68 42.70 53.03 52.47 40.46 Z" />
<path fill="#76428a" opacity="1.00" d=" M 405.57 52.56 C 409.82 49.27 414.01 44.42 420.03 45.01 C 426.05 44.96 434.93 44.68 437.23 52.00 C 431.22 52.02 425.31 50.67 419.34 50.50 C 409.62 55.11 404.15 65.66 403.41 76.04 C 403.31 79.75 407.60 81.07 410.02 82.97 C 417.72 88.03 427.25 87.85 436.06 87.32 C 436.03 92.45 430.65 93.26 426.98 92.92 C 419.71 93.39 412.24 91.85 406.03 87.95 C 403.21 85.94 399.24 84.33 398.35 80.61 C 397.30 70.83 399.79 60.56 405.57 52.56 Z" />
<path fill="#76428a" opacity="1.00" d=" M 421.43 59.49 C 426.08 57.76 429.91 61.21 432.76 64.30 C 435.15 66.85 434.20 70.71 434.63 73.93 C 432.75 73.95 428.98 73.99 427.10 74.01 C 428.83 77.03 430.19 80.22 431.55 83.43 C 427.88 81.94 417.86 82.30 421.13 75.10 C 419.55 70.95 423.44 69.72 425.73 67.85 C 425.10 66.82 424.46 65.80 423.83 64.77 C 420.86 66.27 417.49 67.38 415.23 69.93 C 414.22 72.85 413.83 75.95 413.08 78.94 C 406.19 78.48 408.05 71.87 408.12 67.26 C 411.60 63.41 416.32 60.53 421.43 59.49 Z" />
<path fill="#76428a" opacity="1.00" d=" M 799.54 78.98 C 800.94 73.84 796.62 63.49 805.79 64.27 C 805.48 69.18 805.18 74.09 804.92 79.01 C 821.27 79.05 837.66 79.21 853.99 78.16 C 861.97 78.25 870.37 77.09 878.11 79.59 L 880.31 83.74 C 855.27 82.94 830.26 84.03 805.22 84.03 C 803.50 91.37 809.01 103.94 799.27 107.36 C 799.10 99.57 799.38 91.79 799.96 84.02 C 778.30 83.99 756.65 84.00 735.00 84.00 L 735.00 79.00 C 756.51 79.00 778.02 79.01 799.54 78.98 Z" />
<path fill="#76428a" opacity="1.00" d=" M 686.90 68.88 C 695.46 67.88 704.35 70.43 710.79 76.34 C 708.19 77.26 705.42 79.86 702.58 78.30 C 698.24 76.33 693.64 75.05 689.08 73.73 C 686.76 76.95 684.47 80.18 682.26 83.48 C 689.25 90.61 699.80 95.23 709.68 91.53 C 708.56 87.98 707.17 84.53 705.78 81.08 C 707.65 80.22 709.53 79.36 711.42 78.53 C 714.24 84.74 714.26 91.81 712.63 98.35 C 700.13 98.79 683.76 98.64 676.92 85.85 C 675.67 78.77 680.87 71.82 686.90 68.88 Z" />
<path fill="#76428a" opacity="1.00" d=" M 519.66 94.68 C 528.31 94.00 538.12 92.28 546.01 96.99 C 549.94 98.75 551.48 103.02 553.73 106.36 C 545.81 106.82 540.55 99.80 532.96 99.14 C 525.27 97.51 518.27 101.64 511.73 104.91 C 513.49 109.51 513.96 115.61 518.02 118.93 C 523.99 120.86 530.49 121.11 536.71 120.67 C 542.99 118.56 544.75 109.58 552.73 110.64 C 550.62 116.86 545.72 121.72 540.40 125.34 C 531.88 126.30 522.95 126.88 514.64 124.31 C 508.05 121.12 507.63 112.29 507.13 106.00 C 506.90 99.25 513.94 95.71 519.66 94.68 Z" />
<path fill="#76428a" opacity="1.00" d=" M 462.71 101.70 C 469.31 96.78 477.89 95.78 485.88 96.12 C 488.63 96.65 490.24 99.22 491.66 101.40 C 495.04 106.38 492.45 112.78 492.09 118.20 C 482.01 120.87 470.76 120.30 462.20 113.81 C 458.35 111.03 459.41 104.54 462.71 101.70 M 465.27 108.02 C 471.70 112.75 479.57 115.24 487.57 113.26 C 486.69 108.79 485.61 104.33 483.23 100.40 C 476.89 102.08 470.65 104.17 465.27 108.02 Z" />
<path fill="#76428a" opacity="1.00" d=" M 243.93 107.02 C 259.53 98.81 277.66 95.26 295.18 97.73 C 301.67 99.19 306.89 104.02 311.15 108.88 C 314.27 112.26 314.28 117.24 313.68 121.55 C 310.50 127.16 303.56 126.86 297.94 127.17 C 299.82 122.10 304.95 120.19 309.07 117.48 C 305.83 113.23 303.04 108.37 298.15 105.79 C 287.68 99.32 274.83 102.46 263.69 105.48 C 269.44 105.78 275.24 105.57 280.98 106.24 C 285.39 107.13 289.06 109.97 293.03 111.95 C 292.98 113.84 292.87 117.63 292.81 119.52 C 287.92 117.14 283.44 113.91 278.46 111.74 C 271.73 110.71 264.92 111.08 258.19 111.88 C 258.01 110.46 257.83 109.05 257.65 107.63 C 250.79 110.74 244.87 115.79 237.41 117.53 C 238.44 113.52 240.27 109.31 243.93 107.02 Z" />
<path fill="#76428a" opacity="1.00" d=" M 519.91 105.74 C 525.29 102.68 531.47 101.95 537.54 101.28 C 537.99 104.75 538.86 108.21 538.77 111.73 C 534.21 117.14 526.31 115.68 520.01 115.34 C 519.95 112.12 520.03 108.94 519.91 105.74 Z" />
<path fill="#76428a" opacity="1.00" d=" M 656.83 116.83 C 659.99 114.68 664.24 115.58 667.75 114.43 C 675.01 122.17 677.89 136.32 668.79 143.71 C 663.89 145.97 658.36 146.44 653.11 147.37 C 653.19 164.46 653.41 181.64 650.34 198.52 C 655.11 197.46 661.61 199.80 664.77 194.76 C 673.54 185.08 689.71 179.84 701.10 188.08 C 704.88 184.47 708.94 180.89 713.86 178.97 C 720.76 177.00 728.46 178.67 734.26 182.75 C 740.77 189.53 738.41 199.45 738.25 207.89 C 736.71 208.12 733.64 208.59 732.10 208.82 C 733.12 201.65 735.52 193.29 729.72 187.30 C 725.08 184.48 718.73 181.36 713.95 185.85 C 707.58 188.08 705.47 194.63 704.92 200.82 C 698.84 197.66 695.11 190.13 687.93 189.34 C 679.03 190.68 671.14 196.14 666.36 203.72 C 659.16 203.55 651.98 203.21 644.81 202.94 C 646.61 182.84 648.84 162.75 648.07 142.52 C 655.02 141.09 664.25 141.31 668.23 134.22 C 671.75 128.11 665.94 123.87 662.57 119.73 C 655.16 127.58 646.32 134.57 641.70 144.59 C 638.26 151.53 636.42 159.28 636.23 167.02 C 635.55 185.24 636.13 203.47 636.05 221.71 C 648.35 222.79 660.62 224.48 673.01 224.02 C 683.01 224.17 692.79 221.92 702.69 220.87 C 714.52 219.61 727.04 221.09 738.06 215.68 C 736.85 218.80 735.68 221.93 734.27 224.97 C 723.02 225.14 711.66 224.38 700.53 226.41 C 677.58 230.58 654.08 229.59 631.02 226.81 C 631.18 204.55 630.58 182.28 631.16 160.02 C 632.31 142.48 643.35 127.33 656.83 116.83 Z" />
<path fill="#76428a" opacity="1.00" d=" M 244.06 121.90 C 245.13 113.98 254.77 116.84 260.00 115.90 C 270.71 115.09 280.44 120.04 289.98 124.05 C 296.27 126.50 301.48 131.83 301.84 138.94 C 296.01 139.34 293.54 134.31 289.58 131.47 C 276.31 122.41 259.82 119.66 244.06 121.90 Z" />
<path fill="#76428a" opacity="1.00" d=" M 241.01 131.37 C 241.68 124.23 249.30 126.26 254.00 125.95 C 262.28 125.70 269.20 130.87 276.93 132.96 C 288.80 135.76 300.83 144.14 302.73 156.99 C 293.63 154.91 290.35 144.54 281.84 141.35 C 268.61 136.67 255.59 129.15 241.01 131.37 Z" />
<path fill="#76428a" opacity="1.00" d=" M 219.92 133.90 C 222.52 129.14 228.35 128.38 233.08 127.52 C 231.55 131.84 228.32 135.03 225.60 138.55 C 222.04 143.07 221.62 149.44 217.16 153.33 C 218.27 147.09 214.61 138.91 219.92 133.90 Z" />
<path fill="#76428a" opacity="1.00" d=" M 864.10 136.07 C 867.57 132.37 872.94 132.33 877.60 131.30 C 879.21 138.19 881.35 145.80 878.60 152.66 C 876.21 157.72 871.01 160.37 866.08 162.37 C 864.74 177.22 860.92 191.76 860.77 206.73 C 862.59 208.41 864.43 210.09 866.27 211.79 C 887.68 208.29 909.24 205.41 930.99 205.93 L 930.99 210.80 C 908.12 211.12 884.99 212.98 862.89 219.19 C 853.68 212.26 855.76 200.14 856.37 190.14 C 858.27 179.22 859.30 168.17 861.27 157.26 C 865.44 154.78 871.62 153.51 873.48 148.40 C 875.29 144.90 874.08 140.99 873.09 137.45 C 864.02 142.44 861.18 153.47 852.66 159.18 C 852.04 176.74 850.42 194.61 853.94 211.96 C 855.44 215.57 855.14 221.92 859.94 223.08 C 876.62 227.18 894.15 223.77 910.07 218.13 C 918.34 214.91 927.26 215.12 935.99 214.79 L 935.97 219.48 C 919.30 218.62 904.53 227.98 888.15 229.26 C 877.40 229.98 866.31 231.26 855.78 228.30 C 852.30 227.61 851.00 223.90 850.06 220.93 C 845.36 204.06 847.38 186.27 846.81 168.99 C 847.62 164.67 845.40 159.17 848.48 155.47 C 854.22 149.45 858.68 142.37 864.10 136.07 Z" />
<path fill="#76428a" opacity="1.00" d=" M 418.91 137.15 C 420.34 137.74 423.21 138.91 424.64 139.50 C 427.60 149.39 428.17 159.77 430.30 169.85 C 433.36 185.66 440.26 200.61 441.25 216.82 C 427.87 218.48 414.37 219.04 400.89 219.10 C 400.86 198.03 403.19 177.05 402.98 155.98 C 403.95 151.29 400.56 142.95 408.48 142.73 C 408.38 166.68 407.26 190.60 406.18 214.52 C 409.33 211.93 411.72 207.38 416.57 208.17 C 417.85 209.62 418.95 211.23 420.14 212.77 C 423.16 210.89 426.26 209.04 429.82 208.34 C 431.81 209.22 433.49 210.62 435.26 211.87 C 432.27 197.62 426.80 183.99 424.64 169.56 C 423.13 158.68 420.39 148.03 418.91 137.15 Z" />
<path fill="#76428a" opacity="1.00" d=" M 224.89 141.01 L 229.95 141.04 C 230.37 149.02 230.82 157.00 231.11 164.99 L 226.05 164.96 C 225.62 156.98 225.18 148.99 224.89 141.01 Z" />
<path fill="#76428a" opacity="1.00" d=" M 235.84 143.00 L 240.84 143.01 C 240.98 153.02 241.42 163.03 241.85 173.04 C 238.05 173.38 236.79 170.34 236.50 167.62 C 235.78 159.43 235.92 151.21 235.84 143.00 Z" />
<path fill="#76428a" opacity="1.00" d=" M 44.03 151.04 C 50.01 148.04 57.19 149.03 63.62 149.38 C 69.65 150.99 68.90 158.75 70.58 163.44 C 74.59 162.73 78.65 162.24 82.64 161.39 C 86.43 158.64 85.93 152.38 90.35 150.33 C 97.12 149.86 104.97 149.16 111.06 152.86 C 112.83 156.18 113.51 160.07 114.61 163.69 C 124.57 162.34 134.63 160.82 144.70 161.34 C 150.71 162.16 149.49 169.55 150.22 174.01 C 146.86 172.50 144.56 169.71 142.27 166.99 C 132.48 165.81 123.44 169.73 114.25 172.29 C 113.39 175.82 112.59 179.36 111.75 182.89 C 108.31 183.77 104.84 184.58 101.35 185.27 C 101.17 179.69 104.04 174.76 105.37 169.51 C 106.81 164.84 103.88 160.89 102.08 156.93 C 99.26 157.31 96.40 157.63 93.59 158.01 C 92.92 162.49 92.05 166.98 92.43 171.55 C 93.71 174.61 96.63 176.44 99.33 178.12 C 99.60 180.42 99.86 182.72 100.11 185.02 C 97.48 185.38 94.84 185.69 92.22 186.04 C 88.83 180.88 86.65 172.11 79.06 172.06 C 70.17 172.49 67.70 182.87 59.86 185.50 C 58.77 176.81 60.08 168.08 59.49 159.40 C 56.37 153.97 50.24 158.11 46.17 159.90 C 47.69 165.98 50.84 171.46 54.87 176.21 C 57.49 179.03 57.62 183.04 58.59 186.60 C 49.44 186.26 42.13 179.93 38.26 172.03 C 32.34 172.75 25.44 170.54 20.20 174.16 C 17.69 175.67 14.95 176.68 12.26 177.82 C 13.05 172.57 15.73 167.22 20.84 165.07 C 26.35 163.95 32.00 164.25 37.59 164.22 C 39.62 159.90 40.23 154.32 44.03 151.04 Z" />
<path fill="#76428a" opacity="1.00" d=" M 478.79 163.76 C 483.91 159.17 491.82 161.53 498.02 160.90 C 506.62 160.54 514.37 164.84 522.69 166.18 C 532.44 167.43 542.22 165.53 551.96 165.11 C 551.59 172.88 542.66 169.73 538.01 171.34 C 532.41 171.57 526.71 174.87 521.19 172.73 C 510.86 168.99 500.21 164.87 489.01 166.01 C 482.28 167.81 478.21 174.03 474.56 179.50 C 470.72 186.44 475.36 193.97 479.83 199.17 C 486.08 203.85 493.63 206.12 500.60 209.43 C 511.59 214.34 522.62 220.77 535.01 220.87 C 546.06 221.18 557.89 222.74 567.95 216.89 C 577.94 210.46 586.28 201.41 591.98 190.98 C 594.62 186.28 595.31 180.69 594.70 175.38 C 592.65 170.95 588.55 167.46 583.84 166.19 C 574.17 165.91 564.69 168.08 555.11 168.94 C 555.68 167.73 556.81 165.32 557.38 164.12 C 566.21 161.14 575.78 160.96 585.03 160.94 C 591.11 161.02 596.92 165.00 599.36 170.53 C 600.16 177.93 601.36 186.01 598.08 193.02 C 594.76 202.45 586.77 209.06 580.08 216.08 C 574.39 222.74 565.42 225.23 557.00 225.81 C 546.71 226.38 536.38 226.39 526.11 225.77 C 516.32 224.97 508.11 219.18 499.19 215.68 C 490.93 211.77 481.76 209.36 474.75 203.25 C 467.62 196.61 466.54 185.90 468.92 176.90 C 470.98 171.75 475.33 167.94 478.79 163.76 Z" />
<path fill="#76428a" opacity="1.00" d=" M 571.11 175.05 C 576.75 171.49 583.68 172.28 590.07 171.95 C 587.04 177.54 579.56 176.18 575.47 180.38 C 573.21 186.50 575.42 194.31 570.30 199.29 C 562.90 206.86 552.24 212.50 541.35 210.57 C 532.26 208.47 521.80 208.47 514.97 201.10 C 510.75 195.65 508.58 188.28 501.99 184.98 C 496.73 179.28 489.75 185.88 483.90 186.17 C 484.20 182.64 486.10 178.50 489.95 177.87 C 501.62 175.49 512.28 182.14 523.61 183.52 C 530.56 185.54 537.75 183.73 544.67 182.60 C 553.59 180.54 562.94 179.47 571.11 175.05 M 519.75 197.74 C 527.82 203.02 537.66 204.26 547.01 205.48 C 554.45 204.04 560.69 199.02 566.62 194.58 C 558.86 189.26 548.85 190.97 540.00 191.05 C 532.64 191.01 525.88 193.99 519.75 197.74 Z" />
<path fill="#76428a" opacity="1.00" d=" M 253.70 229.74 C 263.12 227.36 270.57 219.78 280.90 220.23 C 280.60 223.53 280.29 226.88 279.94 230.18 C 267.25 239.12 250.73 238.08 236.57 233.46 C 232.81 232.59 233.55 227.66 232.37 224.86 C 239.33 226.91 246.24 230.44 253.70 229.74 Z" />
<path fill="#76428a" opacity="1.00" d=" M 286.83 221.02 C 293.06 221.71 300.03 220.16 305.85 223.14 C 309.20 224.38 312.24 227.11 315.92 227.32 C 322.15 225.97 327.56 222.28 333.60 220.30 C 334.07 230.10 322.63 232.60 315.29 234.25 C 303.89 237.42 292.11 231.22 286.83 221.02 Z" />
<path fill="#76428a" opacity="1.00" d=" M 958.82 229.75 C 967.48 228.17 976.24 227.14 984.97 225.88 C 986.39 239.24 987.06 252.68 989.12 265.96 C 994.24 294.02 991.17 322.67 992.02 351.00 C 991.93 364.37 993.62 377.77 992.27 391.12 C 982.42 391.07 972.58 390.33 962.76 389.83 C 961.25 367.62 962.63 345.36 961.62 323.14 C 960.18 310.12 959.72 297.02 957.85 284.05 C 955.70 269.66 953.33 255.31 951.91 240.83 C 953.60 241.22 955.31 241.64 957.02 242.06 C 960.27 264.93 964.29 287.75 965.51 310.85 C 968.66 335.39 965.52 360.22 967.89 384.81 C 974.36 384.99 980.88 385.15 987.34 385.79 C 987.78 363.52 986.52 341.27 987.02 319.00 C 986.73 305.52 988.04 291.88 985.66 278.52 C 983.07 263.06 982.02 247.41 979.94 231.89 C 969.97 233.34 960.13 235.72 950.03 236.10 C 950.63 231.42 955.28 230.76 958.82 229.75 Z" />
<path fill="#76428a" opacity="1.00" d=" M 108.43 242.53 C 116.70 238.63 126.23 238.71 135.15 237.73 C 139.98 248.13 139.27 259.85 139.22 271.03 C 138.98 273.89 139.49 277.25 138.00 279.92 C 128.71 281.51 119.25 281.89 109.96 283.46 C 111.70 288.92 115.52 293.43 116.82 299.05 C 122.50 318.32 131.68 336.71 133.33 357.00 C 119.71 357.02 106.04 357.36 92.46 356.18 C 86.11 354.99 80.28 358.28 74.25 359.57 C 66.17 360.83 58.12 362.26 50.12 363.94 C 50.53 362.59 51.36 359.89 51.77 358.54 C 57.65 355.77 64.46 356.61 70.59 354.70 C 77.52 352.58 84.48 349.63 91.93 350.62 C 103.65 351.40 115.38 352.20 127.15 352.05 C 124.89 337.19 118.39 323.58 113.57 309.49 C 110.51 299.00 104.93 289.33 103.63 278.33 C 113.69 277.50 123.72 276.39 133.79 275.56 C 133.67 264.71 135.72 252.79 130.09 242.92 C 124.18 244.33 118.18 245.41 112.47 247.54 C 109.69 249.74 110.18 254.11 109.07 257.06 C 107.70 264.38 103.83 271.37 97.91 275.96 C 86.49 283.75 69.98 282.48 59.72 273.33 C 54.87 265.63 54.66 252.48 44.05 249.98 C 38.36 249.01 32.56 249.03 26.81 248.75 C 26.76 259.41 27.65 270.02 29.14 280.57 C 35.75 278.88 42.55 278.23 49.34 277.70 C 49.37 291.37 44.86 304.43 43.90 317.99 C 42.80 333.60 41.35 349.80 45.54 365.10 C 43.03 365.06 40.52 365.02 38.02 364.97 C 37.80 337.53 36.97 309.53 44.15 282.78 C 37.60 284.61 31.07 286.48 24.32 287.43 C 23.47 272.89 21.57 258.41 21.90 243.82 C 30.29 243.98 38.73 243.70 47.05 244.89 C 56.98 245.33 59.13 256.56 62.16 263.83 C 64.68 272.09 74.34 274.97 81.98 275.67 C 92.01 274.60 99.92 266.46 102.75 257.13 C 104.30 252.38 103.95 245.82 108.43 242.53 Z" />
<path fill="#76428a" opacity="1.00" d=" M 398.28 300.22 C 404.20 292.97 413.33 287.90 422.97 288.88 C 431.71 288.98 442.80 287.21 449.42 294.54 C 457.65 304.84 466.81 315.06 471.23 327.70 C 476.10 349.72 470.63 372.12 468.06 394.05 C 466.46 407.39 468.25 421.68 462.10 434.11 C 456.48 443.73 448.72 454.08 436.74 455.44 C 441.27 444.93 453.11 439.98 457.35 429.27 C 463.48 415.67 461.25 400.53 463.24 386.15 C 465.58 369.98 468.67 353.72 467.61 337.31 C 464.78 322.28 454.29 310.55 444.50 299.46 C 438.49 292.23 428.25 293.95 420.03 294.12 C 411.96 296.10 402.26 301.58 401.92 310.95 C 399.23 332.38 392.67 353.28 392.11 374.99 C 391.59 387.34 395.13 399.40 398.97 410.99 C 402.14 421.03 404.36 432.20 411.88 440.11 C 417.46 446.00 425.81 447.91 433.37 449.90 C 430.55 452.37 426.80 454.59 422.93 453.27 C 411.51 451.58 402.97 442.17 399.39 431.68 C 394.24 415.43 387.85 399.21 387.23 381.98 C 385.46 359.98 391.34 338.57 395.16 317.14 C 396.46 311.61 395.68 305.38 398.28 300.22 Z" />
<path fill="#76428a" opacity="1.00" d=" M 246.05 291.09 C 258.36 292.27 264.68 304.62 267.92 315.06 C 269.49 321.09 276.32 322.41 281.64 323.40 C 301.77 324.78 321.98 323.71 342.15 324.00 C 341.89 334.10 341.22 344.17 340.87 354.26 C 321.42 352.62 301.31 349.19 282.29 355.26 C 274.41 357.33 268.44 363.32 262.04 367.99 C 256.56 371.47 249.68 371.11 243.54 372.49 C 231.84 373.76 219.06 379.41 208.04 373.05 C 207.22 366.04 212.79 362.34 217.89 359.31 C 213.33 358.00 207.63 358.48 204.09 354.76 C 204.14 350.44 204.97 346.24 205.54 341.99 C 208.18 341.73 213.46 341.22 216.10 340.96 C 210.10 337.93 202.74 334.84 201.99 327.06 C 216.80 322.93 232.35 324.08 247.54 323.98 C 244.99 313.24 244.46 302.02 246.05 291.09 M 249.93 299.97 C 249.34 311.43 254.42 321.75 258.67 332.03 C 243.20 328.67 226.56 326.70 211.23 331.48 C 222.89 339.03 237.31 336.74 250.40 338.73 C 249.67 339.68 248.20 341.59 247.47 342.55 C 236.68 344.95 225.57 345.46 214.62 346.73 C 211.87 347.01 209.81 348.98 207.84 350.71 C 221.45 356.22 236.57 353.39 250.81 353.36 C 250.00 355.78 249.93 359.26 246.88 359.66 C 236.06 361.94 223.10 360.94 215.10 370.04 C 225.93 371.26 236.52 367.73 247.17 366.28 C 259.05 365.38 265.85 353.94 276.81 350.65 C 295.51 344.40 315.75 347.36 335.06 347.83 C 335.88 341.58 336.43 335.29 337.09 329.02 C 319.06 328.85 301.03 329.41 283.01 328.79 C 277.20 328.83 271.45 327.31 266.32 324.64 C 261.51 320.99 259.94 314.77 258.59 309.22 C 257.44 304.87 254.07 301.57 249.93 299.97 Z" />
<path fill="#76428a" opacity="1.00" d=" M 691.05 323.91 C 705.68 325.34 720.35 325.96 735.06 326.01 C 737.24 325.76 739.35 327.07 739.53 329.38 C 740.45 343.58 738.62 357.81 739.89 372.01 C 738.49 372.00 737.11 371.99 735.73 371.99 C 732.44 358.62 734.81 344.68 734.50 331.07 C 721.91 330.95 709.30 331.34 696.77 329.98 C 696.94 342.89 699.75 355.46 702.27 368.04 C 710.83 367.92 719.37 367.18 727.93 366.98 C 728.35 368.60 728.79 370.23 729.22 371.87 C 718.56 372.44 707.89 372.93 697.23 373.08 C 694.07 356.83 692.01 340.43 691.05 323.91 Z" />
<path fill="#76428a" opacity="1.00" d=" M 406.02 329.90 C 408.35 330.26 410.69 330.63 413.04 331.00 C 412.94 332.64 412.74 335.92 412.65 337.56 C 410.99 337.69 407.68 337.94 406.03 338.07 C 406.00 335.34 406.00 332.62 406.02 329.90 Z" />
<path fill="#76428a" opacity="1.00" d=" M 445.89 331.96 C 448.44 332.06 451.00 332.18 453.57 332.30 C 453.72 334.86 453.89 337.42 454.08 340.00 C 452.30 339.99 448.74 339.99 446.95 339.98 C 446.59 337.31 446.20 334.61 445.89 331.96 Z" />
<path fill="#76428a" opacity="1.00" d=" M 863.59 343.05 C 865.40 345.52 867.24 347.99 869.10 350.46 C 892.14 351.43 915.22 351.13 938.27 350.60 C 937.58 354.83 935.16 356.57 931.01 355.80 C 910.45 356.48 889.87 355.79 869.31 355.97 C 869.37 358.64 869.45 361.33 869.54 364.02 C 865.93 362.88 863.92 359.65 862.51 356.43 C 839.01 355.58 815.50 356.15 792.00 356.00 L 792.00 351.00 C 815.59 351.01 839.18 350.98 862.77 351.01 C 862.97 349.02 863.38 345.04 863.59 343.05 Z" />
<path fill="#76428a" opacity="1.00" d=" M 422.44 400.11 C 427.94 400.76 437.90 397.11 437.86 406.37 C 434.09 406.15 430.34 405.73 426.56 405.97 C 430.58 408.59 435.89 410.10 437.22 415.48 C 431.44 415.39 426.08 413.32 420.78 411.32 C 421.33 407.58 421.88 403.84 422.44 400.11 Z" />
<path fill="#76428a" opacity="1.00" d=" M 324.02 408.93 L 328.11 406.73 C 327.30 414.43 329.57 423.56 324.04 430.02 C 322.26 432.69 320.28 435.81 316.96 436.72 C 300.16 441.34 282.63 441.57 265.54 444.46 C 258.89 445.69 252.12 445.44 245.40 445.28 C 244.67 443.00 243.92 440.73 243.14 438.47 C 239.99 443.12 240.35 448.83 241.71 454.06 C 238.53 453.34 235.39 452.56 232.20 451.89 C 231.56 452.74 230.93 453.60 230.29 454.46 C 234.72 458.80 238.84 463.76 239.60 470.19 C 234.62 470.08 229.59 470.44 224.89 472.18 C 227.29 474.53 230.02 476.85 233.43 477.44 C 242.76 478.26 252.47 479.10 261.60 476.41 C 270.46 473.82 277.95 467.50 287.41 466.76 C 297.34 466.53 307.03 462.41 317.00 464.82 C 316.33 465.58 315.67 466.35 315.01 467.12 C 322.00 467.10 329.02 467.33 336.00 466.85 C 340.63 465.89 343.94 462.17 347.60 459.48 C 345.02 454.08 340.91 449.48 338.80 443.87 C 339.05 436.28 342.56 429.16 343.03 421.55 C 344.74 416.86 341.54 408.42 349.03 407.73 C 349.15 416.45 348.75 425.19 346.96 433.74 C 344.73 443.71 353.00 451.84 352.63 461.64 C 350.65 466.01 347.37 470.50 342.31 471.24 C 331.60 472.64 320.76 471.94 310.01 471.67 C 301.71 471.16 293.59 473.56 285.43 474.63 C 276.30 475.65 268.81 481.89 259.56 482.45 C 246.79 483.02 232.81 485.27 220.95 479.21 C 220.94 476.31 220.91 470.52 220.89 467.62 C 223.96 466.49 227.09 465.53 230.26 464.71 C 226.48 460.25 225.12 454.71 224.56 449.03 C 227.75 448.17 230.93 447.32 234.15 446.56 C 235.06 440.92 236.68 430.92 245.03 432.95 C 249.05 432.95 249.54 438.05 250.92 440.87 C 271.16 438.07 291.62 436.61 311.65 432.47 C 320.96 429.25 323.01 417.37 324.02 408.93 Z" />
<path fill="#76428a" opacity="1.00" d=" M 44.13 416.83 C 49.75 414.65 55.52 415.85 60.65 418.72 C 58.80 421.92 56.61 424.97 53.60 427.18 C 52.32 448.44 53.51 469.74 52.85 491.02 C 52.57 504.23 48.68 517.03 48.62 530.28 C 61.23 529.86 73.72 527.89 86.35 527.73 C 87.17 517.83 83.04 508.68 82.43 498.97 C 81.69 485.15 78.75 471.59 77.75 457.80 C 86.83 458.54 95.90 459.54 104.99 460.22 C 105.08 485.36 104.80 510.50 105.19 535.65 C 105.95 536.32 106.71 537.01 107.46 537.70 C 114.18 537.86 120.90 537.96 127.63 538.05 C 126.91 526.72 131.44 516.17 132.13 505.01 C 133.73 491.52 135.59 477.58 131.78 464.31 C 129.02 451.20 128.04 437.77 127.88 424.39 C 106.93 425.46 85.96 424.90 65.00 424.99 C 65.00 423.24 65.00 419.75 65.00 418.00 C 87.65 418.30 110.32 418.25 132.87 415.79 C 132.96 429.19 132.84 442.69 135.44 455.90 C 141.78 476.31 139.53 498.40 135.94 519.17 C 133.84 526.92 132.44 535.12 134.58 543.05 C 123.06 542.76 111.24 544.15 99.90 541.57 C 100.08 516.18 99.99 490.79 99.98 465.40 C 94.29 464.95 88.53 464.82 82.99 463.33 C 85.69 476.04 86.20 489.07 88.08 501.89 C 91.07 512.06 89.51 523.39 94.97 532.77 C 77.89 532.70 60.93 534.88 43.86 535.15 C 44.19 526.27 43.36 517.26 45.10 508.50 C 49.45 489.99 47.68 470.82 48.12 452.00 C 47.86 440.24 49.31 427.79 44.13 416.83 Z" />
<path fill="#76428a" opacity="1.00" d=" M 323.40 451.24 C 326.76 449.88 330.14 448.61 333.63 447.59 C 332.86 453.86 327.81 459.40 320.99 457.97 C 315.23 460.60 313.84 453.79 311.71 450.67 C 315.49 450.39 319.66 452.97 323.40 451.24 Z" />
<path fill="#76428a" opacity="1.00" d=" M 858.28 458.02 C 862.04 458.32 863.42 461.78 864.00 464.81 C 864.37 481.78 860.38 498.76 862.13 515.70 C 880.41 516.18 898.83 516.74 916.98 513.98 C 940.43 512.01 963.75 508.69 986.96 504.82 C 987.00 492.58 986.98 480.34 987.01 468.10 C 969.47 468.16 951.90 466.39 934.41 468.27 C 913.97 469.48 893.46 470.83 872.99 469.88 C 870.22 470.05 869.53 465.97 869.05 464.29 C 892.55 465.60 916.17 465.17 939.58 462.63 C 957.04 461.12 974.52 462.92 991.99 463.10 C 992.02 478.70 992.02 494.31 991.97 509.91 C 967.26 512.72 942.80 517.41 917.97 519.13 C 898.00 521.94 877.78 520.86 857.69 521.04 C 853.06 507.90 857.93 494.39 857.84 481.02 C 858.08 473.35 858.07 465.68 858.28 458.02 Z" />
<path fill="#76428a" opacity="1.00" d=" M 555.82 495.01 C 566.47 491.53 577.73 490.97 588.81 489.94 C 591.72 501.79 593.82 513.80 595.86 525.82 C 594.01 526.25 592.17 526.69 590.32 527.11 C 588.70 516.50 586.97 505.89 583.82 495.61 C 576.02 496.43 568.16 497.36 560.67 499.76 C 557.30 500.64 557.18 504.75 557.58 507.57 C 559.08 515.91 559.83 524.36 560.33 532.83 C 572.82 533.40 586.41 537.56 598.07 531.10 C 598.42 533.81 598.72 536.46 599.12 539.21 C 584.50 540.56 569.87 539.49 555.35 537.80 C 555.15 526.78 553.45 515.92 552.27 505.00 C 552.06 501.64 552.18 496.69 555.82 495.01 Z" />
<path fill="#76428a" opacity="1.00" d=" M 725.63 489.92 C 727.44 492.55 729.23 495.19 731.01 497.87 C 754.32 496.57 777.58 493.40 800.97 494.42 C 811.96 493.62 822.95 492.88 833.99 492.76 L 833.99 497.75 C 819.47 497.75 805.06 499.89 790.54 499.58 C 770.50 498.98 750.61 501.88 730.68 503.43 C 729.24 507.62 728.03 512.49 723.45 514.45 C 723.31 510.63 723.43 507.00 723.58 503.24 C 704.82 505.72 685.86 504.97 667.01 504.99 L 667.00 500.01 C 686.26 500.14 705.59 500.44 724.73 497.93 C 724.96 495.93 725.41 491.93 725.63 489.92 Z" />
<path fill="#76428a" opacity="1.00" d=" M 377.00 523.99 C 389.14 521.61 401.59 521.99 413.91 521.94 C 414.77 525.63 415.55 529.29 416.29 533.03 C 398.65 533.45 380.83 530.78 363.32 533.92 C 355.64 534.22 347.92 532.71 340.26 533.84 C 327.47 535.64 314.32 536.00 301.93 539.95 C 288.76 544.08 275.34 547.36 262.20 551.57 C 256.77 554.05 251.92 557.64 247.10 561.14 C 244.11 563.38 242.13 567.56 243.72 571.24 C 245.73 575.52 249.04 579.61 253.68 581.11 C 266.55 585.53 280.20 586.96 293.63 588.63 C 316.15 593.13 339.21 593.40 361.99 595.70 C 385.30 596.21 408.81 597.11 431.95 593.63 C 444.55 591.82 457.31 591.11 469.86 588.91 C 485.11 585.01 496.66 573.68 509.76 565.63 C 513.45 563.28 514.58 558.27 513.86 554.19 C 511.28 549.84 506.24 548.02 501.82 546.14 C 494.91 543.66 488.36 540.02 481.01 538.90 C 473.90 537.40 467.33 533.71 459.98 533.37 C 447.04 532.50 434.08 533.02 421.14 532.99 C 420.85 529.27 420.56 525.55 420.28 521.85 C 437.14 521.98 455.22 521.05 470.74 528.91 C 478.51 533.46 487.91 533.04 495.85 537.07 C 503.69 540.64 512.32 542.72 519.18 548.17 C 518.86 553.62 519.42 559.20 518.46 564.62 C 517.07 569.86 511.57 571.83 507.72 574.90 C 500.02 581.07 491.41 585.93 482.97 590.96 C 468.82 596.59 453.15 595.73 438.32 598.08 C 413.08 602.11 387.45 601.04 362.00 600.98 C 349.95 601.03 338.02 599.10 326.00 598.61 C 314.85 597.40 303.57 597.14 292.64 594.39 C 280.07 592.69 267.40 591.38 255.09 588.18 C 246.24 586.99 237.97 579.22 238.01 569.97 C 238.04 565.91 237.18 560.70 240.84 557.87 C 247.95 552.05 255.80 546.72 264.89 544.62 C 286.31 538.75 307.49 531.90 329.22 527.21 C 345.04 524.89 361.26 527.17 377.00 523.99 Z" />
<path fill="#76428a" opacity="1.00" d=" M 41.88 570.47 C 45.92 571.48 49.89 572.77 53.84 574.10 C 54.00 575.34 54.16 576.59 54.32 577.85 C 46.44 580.27 52.57 590.36 50.77 595.97 C 40.46 598.88 30.09 601.58 19.96 605.09 C 19.22 608.77 18.48 612.50 17.72 616.20 C 37.08 619.30 56.78 618.08 76.19 616.19 C 74.24 603.45 72.56 590.67 71.73 577.81 C 68.21 578.06 64.70 578.44 61.19 578.83 C 60.73 576.91 60.26 575.00 59.82 573.09 C 65.47 572.99 71.12 572.98 76.77 573.02 C 76.82 589.21 80.53 605.01 82.20 621.05 C 59.14 622.39 35.57 625.38 12.70 620.85 C 13.42 614.54 12.44 607.85 14.80 601.84 C 15.17 600.29 16.69 599.66 18.05 599.19 C 27.40 596.13 36.95 593.74 46.35 590.85 C 45.42 583.93 43.40 577.25 41.88 570.47 Z" />
<path fill="#76428a" opacity="1.00" d=" M 115.49 574.93 C 117.10 574.95 120.32 575.00 121.93 575.02 C 121.97 580.32 122.01 585.64 122.06 590.96 C 132.61 589.67 143.24 588.46 153.89 589.19 C 156.61 589.54 158.61 591.80 160.14 593.88 C 165.47 598.83 163.47 606.61 164.23 613.10 C 158.95 615.82 153.76 619.21 147.61 619.43 C 133.86 620.40 120.06 620.59 106.29 621.12 C 106.33 605.61 103.97 590.25 101.24 575.03 C 104.07 575.70 107.09 576.16 109.80 577.32 C 108.66 590.23 110.60 603.13 111.25 616.03 C 127.59 614.37 145.95 618.50 160.02 607.84 C 157.99 603.17 156.20 597.15 151.35 594.66 C 139.94 592.69 128.64 596.14 117.32 597.21 C 116.92 589.76 116.71 582.29 115.49 574.93 Z" />
</g>
<g id="#9badb7ff">
<path fill="#9badb7" opacity="1.00" d=" M 482.45 616.55 C 530.03 614.69 577.77 616.96 624.99 623.06 C 657.17 627.79 689.46 633.97 719.73 646.22 C 730.82 650.99 742.03 656.64 750.19 665.80 C 754.83 671.05 756.52 679.18 753.65 685.66 C 747.64 697.44 735.27 703.43 723.97 708.98 C 704.26 717.52 683.43 723.24 662.40 727.42 C 616.51 736.47 569.71 740.17 523.00 741.01 C 481.61 741.54 440.17 739.23 399.13 733.82 C 367.25 729.08 335.26 722.93 305.27 710.78 C 293.97 705.91 282.49 700.14 274.36 690.65 C 268.94 684.12 268.16 673.55 274.07 667.05 C 280.58 657.80 291.23 652.94 301.03 648.02 C 331.43 634.84 364.23 628.51 396.86 623.79 C 425.24 619.89 453.81 617.40 482.45 616.55 Z" />
</g>
</svg>
