<?xml version="1.0" encoding="UTF-8" ?>
<!DOCTYPE svg PUBLIC "-//W3C//DTD SVG 1.1//EN" "http://www.w3.org/Graphics/SVG/1.1/DTD/svg11.dtd">
<svg width="1024pt" height="768pt" viewBox="0 0 1024 768" version="1.1" xmlns="http://www.w3.org/2000/svg">
<g id="#d9a066ff">
<path fill="#d9a066" opacity="1.00" d=" M 0.00 0.00 L 1024.00 0.00 L 1024.00 14.55 C 1018.19 14.96 1012.38 15.15 1006.64 15.89 C 999.00 17.19 991.80 20.59 983.95 20.59 C 954.94 22.29 925.81 19.39 896.85 21.98 C 880.42 25.36 863.57 25.62 846.93 27.39 C 818.20 27.16 790.74 37.65 762.01 37.40 C 735.51 41.23 708.68 39.87 682.00 40.00 C 565.33 40.02 448.65 39.95 331.98 40.06 C 315.43 40.41 299.56 35.20 283.26 33.33 C 269.22 31.29 255.29 28.03 241.02 28.07 C 177.35 27.66 113.66 28.42 50.00 27.82 C 33.16 25.79 16.71 21.34 0.00 18.46 L 0.00 0.00 Z" />
<path fill="#d9a066" opacity="1.00" d=" M 780.01 168.71 C 793.34 168.06 806.63 166.87 820.00 166.96 C 876.66 166.97 933.33 167.09 990.00 166.91 C 1001.33 167.03 1012.81 166.87 1024.00 169.04 L 1024.00 227.19 C 1016.55 225.66 1009.00 224.76 1001.52 223.51 C 984.73 220.99 968.10 216.82 951.02 217.02 C 877.67 216.96 804.33 217.00 730.98 217.00 C 718.15 216.44 705.80 220.67 693.02 220.81 C 664.68 221.59 636.33 220.65 607.99 220.89 C 584.94 220.11 563.11 229.95 540.02 228.99 C 380.01 228.99 219.99 229.07 59.98 228.93 C 52.02 228.99 44.01 229.57 36.36 231.88 C 24.54 235.40 12.30 237.00 0.00 237.33 L 0.00 179.00 C 163.67 178.99 327.35 179.02 491.02 178.99 C 509.05 179.48 526.43 174.26 544.07 171.53 C 582.75 169.51 621.57 172.87 660.22 169.65 C 700.12 167.90 740.09 169.88 780.01 168.71 Z" />
<path fill="#d9a066" opacity="1.00" d=" M 393.89 249.07 C 396.95 246.67 400.11 244.39 403.33 242.19 C 400.26 244.59 397.11 246.89 393.89 249.07 Z" />
<path fill="#d9a066" opacity="1.00" d=" M 279.98 362.14 C 300.71 362.02 321.26 358.63 342.00 358.97 C 418.66 359.00 495.33 359.04 572.00 358.97 C 591.05 359.07 610.23 358.14 629.16 360.76 C 640.73 362.49 652.49 361.70 664.11 363.00 C 672.85 364.14 681.52 365.94 690.22 367.38 C 709.30 368.94 728.71 366.49 747.60 370.39 C 761.07 373.17 774.77 374.48 788.41 376.23 C 810.05 378.20 831.41 382.50 853.11 384.04 C 882.30 386.84 909.59 398.43 938.40 403.15 C 951.68 404.89 965.61 405.29 977.99 410.98 C 992.24 418.19 1008.67 418.02 1024.00 421.10 L 1024.00 486.12 C 1011.69 479.02 998.12 473.72 983.94 472.06 C 969.42 469.87 954.71 468.85 940.42 465.35 C 932.38 463.17 925.24 458.37 916.96 457.05 C 907.90 454.91 898.59 454.28 889.40 453.15 C 860.59 448.43 833.30 436.84 804.11 434.04 C 788.02 432.79 772.06 430.39 756.10 428.09 C 736.90 425.82 717.58 424.13 698.60 420.39 C 679.71 416.49 660.30 418.94 641.22 417.38 C 627.23 415.01 613.29 411.87 599.01 412.06 C 585.25 412.26 571.77 408.91 558.02 409.06 C 504.68 408.82 451.34 409.14 398.00 408.95 C 374.93 408.54 352.02 411.66 328.98 412.13 C 309.62 412.51 291.27 419.88 272.01 421.08 C 257.02 422.81 241.90 423.84 227.15 427.17 C 211.56 430.38 195.43 429.88 179.98 433.91 C 157.48 439.25 134.49 443.19 112.83 451.51 C 102.19 454.70 90.78 453.40 80.03 456.20 C 67.97 458.40 57.38 465.04 45.53 467.92 C 29.85 471.67 14.07 476.00 0.00 484.10 L 0.00 417.49 C 11.26 412.40 22.73 407.33 35.04 405.41 C 44.55 403.51 54.51 404.40 63.83 401.51 C 86.77 392.64 111.21 388.85 135.02 383.09 C 149.20 379.75 163.92 380.19 178.15 377.17 C 192.90 373.85 208.02 372.81 223.01 371.07 C 242.27 369.88 260.62 362.51 279.98 362.14 Z" />
<path fill="#d9a066" opacity="1.00" d=" M 393.04 525.33 C 424.29 523.09 455.59 518.92 486.98 521.55 C 523.77 526.50 560.98 522.42 597.93 524.53 C 646.75 530.00 696.00 524.90 744.95 527.72 C 763.64 530.07 782.41 531.72 801.10 534.09 C 826.04 539.11 850.36 546.74 875.00 552.99 C 889.03 556.50 902.88 560.73 916.81 564.63 C 926.56 568.73 936.21 573.19 945.42 578.43 C 954.32 583.24 963.97 586.74 972.04 593.00 C 979.93 599.15 988.33 604.62 996.31 610.67 C 1005.18 617.44 1015.38 622.28 1024.00 629.42 L 1024.00 716.41 C 1016.08 709.19 1007.66 702.53 999.39 695.74 C 987.61 688.28 976.07 680.51 964.84 672.24 C 947.06 661.76 931.46 648.00 913.93 637.18 C 898.50 629.77 883.71 621.02 867.81 614.63 C 853.88 610.73 840.03 606.50 826.00 602.99 C 801.36 596.74 777.04 589.11 752.10 584.09 C 733.41 581.72 714.64 580.07 695.95 577.72 C 647.00 574.90 597.75 580.00 548.93 574.53 C 523.97 573.29 498.97 574.30 474.00 573.88 C 458.19 573.53 442.35 574.51 426.91 578.05 C 413.37 580.33 399.84 582.70 386.28 584.83 C 364.17 586.69 341.14 587.80 320.75 597.52 C 310.69 602.51 299.42 603.95 289.11 608.23 C 277.76 612.95 265.80 616.97 256.07 624.75 C 245.92 632.42 234.47 638.00 223.51 644.38 C 214.40 649.59 204.15 652.57 195.36 658.38 C 186.80 663.78 179.13 670.70 169.64 674.51 C 162.27 677.33 155.82 681.91 149.04 685.83 C 138.61 691.34 128.05 696.73 118.23 703.29 C 112.12 708.83 105.40 713.73 100.02 720.03 C 91.77 729.13 82.91 737.65 73.53 745.58 C 65.82 752.17 59.95 760.45 53.28 768.00 L 0.00 768.00 L 0.00 724.81 C 7.13 713.66 15.62 703.38 25.54 694.61 C 35.93 685.99 45.51 676.43 54.04 665.97 C 71.23 649.06 94.00 640.02 114.21 627.47 C 124.61 623.45 133.69 616.99 142.80 610.71 C 153.25 603.12 165.91 599.62 176.85 592.88 C 184.80 587.79 194.15 585.86 202.92 582.71 C 214.57 578.54 220.04 565.48 231.80 561.56 C 245.17 554.90 260.34 553.34 273.68 546.65 C 293.62 537.67 315.85 536.67 337.28 534.83 C 355.90 531.86 374.49 528.68 393.04 525.33 Z" />
<path fill="#d9a066" opacity="1.00" d=" M 626.41 615.02 C 645.48 611.86 664.67 615.58 683.67 617.33 C 714.41 618.97 745.21 617.34 775.97 618.16 C 790.76 618.72 805.19 622.41 819.96 623.20 C 831.67 623.69 842.49 629.44 851.60 636.44 C 859.36 642.27 865.48 650.23 874.11 654.89 C 878.49 657.31 882.64 660.45 885.06 664.95 C 889.04 671.44 894.10 678.00 893.92 686.04 C 895.06 694.57 889.88 702.39 884.25 708.24 C 875.19 716.18 863.55 719.97 852.59 724.46 C 824.06 732.25 795.90 741.45 766.98 747.77 C 747.55 753.72 727.01 751.30 707.04 752.33 C 683.44 755.30 659.88 759.69 636.00 759.09 C 618.67 758.85 601.35 758.08 584.03 757.73 C 564.66 755.77 545.55 751.45 526.04 750.81 C 512.05 750.39 498.30 747.70 484.52 745.55 C 471.21 743.55 459.90 735.90 448.39 729.53 C 441.02 725.10 431.03 730.67 424.31 724.68 C 419.70 721.08 418.83 714.42 413.65 711.46 C 408.06 707.41 399.39 704.41 398.45 696.57 C 395.47 687.64 405.39 682.85 406.90 674.95 C 409.31 667.26 414.25 660.57 421.13 656.29 C 428.92 651.73 436.26 646.40 444.33 642.31 C 455.49 637.47 467.98 638.61 479.51 635.24 C 491.35 631.96 503.72 631.43 515.68 628.70 C 533.48 624.70 551.66 622.85 569.63 619.84 C 588.54 617.68 608.07 621.48 626.41 615.02 Z" />
</g>
<g id="#eec39aff">
<path fill="#eec39a" opacity="1.00" d=" M 1006.64 15.89 C 1012.38 15.15 1018.19 14.96 1024.00 14.55 L 1024.00 169.04 C 1012.81 166.87 1001.33 167.03 990.00 166.91 C 933.33 167.09 876.66 166.97 820.00 166.96 C 806.63 166.87 793.34 168.06 780.01 168.71 C 740.09 169.88 700.12 167.90 660.22 169.65 C 621.57 172.87 582.75 169.51 544.07 171.53 C 526.43 174.26 509.05 179.48 491.02 178.99 C 327.35 179.02 163.67 178.99 0.00 179.00 L 0.00 18.46 C 16.71 21.34 33.16 25.79 50.00 27.82 C 113.66 28.42 177.35 27.66 241.02 28.07 C 255.29 28.03 269.22 31.29 283.26 33.33 C 299.56 35.20 315.43 40.41 331.98 40.06 C 448.65 39.95 565.33 40.02 682.00 40.00 C 708.68 39.87 735.51 41.23 762.01 37.40 C 790.74 37.65 818.20 27.16 846.93 27.39 C 863.57 25.62 880.42 25.36 896.85 21.98 C 925.81 19.39 954.94 22.29 983.95 20.59 C 991.80 20.59 999.00 17.19 1006.64 15.89 M 30.15 55.09 C 25.11 63.85 22.31 73.89 21.82 83.98 C 21.22 94.74 20.22 105.75 22.62 116.37 C 23.13 118.80 24.88 120.73 26.90 122.07 C 32.61 125.83 38.45 129.57 44.86 132.04 C 51.66 134.75 59.07 133.82 66.20 134.29 C 65.63 141.77 64.25 149.76 67.44 156.85 C 69.14 148.43 68.82 139.69 71.39 131.43 C 61.21 130.65 50.15 132.16 40.76 127.27 C 35.86 124.66 30.98 121.87 26.77 118.23 C 23.69 114.29 24.47 108.66 24.13 104.01 C 24.43 91.65 24.45 79.02 28.05 67.09 C 30.35 60.14 33.01 52.62 39.71 48.70 C 51.21 41.03 65.55 44.31 78.44 44.42 C 83.18 45.51 89.32 44.20 93.21 47.77 C 97.84 54.14 95.56 62.75 96.09 70.02 C 96.36 82.43 92.80 94.35 89.10 106.03 C 86.57 122.81 90.00 140.24 98.09 155.10 C 98.78 154.90 100.14 154.50 100.82 154.30 C 93.54 140.91 89.68 125.43 91.51 110.18 C 92.96 101.91 96.19 94.11 97.74 85.87 C 99.71 76.72 99.21 67.28 98.89 58.00 C 99.10 52.56 96.95 46.84 92.47 43.59 C 80.26 40.40 67.50 40.62 55.01 41.20 C 45.00 41.05 35.66 46.99 30.15 55.09 M 804.11 44.90 C 801.47 56.43 803.81 68.79 805.57 80.42 C 805.11 84.65 808.15 87.31 811.31 89.15 C 812.40 80.11 813.85 71.10 814.25 61.99 C 813.50 62.01 811.99 62.05 811.24 62.07 C 810.56 67.52 809.68 72.95 808.56 78.34 C 806.31 68.18 805.95 57.74 805.90 47.37 C 811.76 47.88 817.44 50.22 820.46 55.57 C 827.66 64.49 824.16 76.30 824.01 86.74 C 822.75 87.22 821.50 87.70 820.27 88.18 C 818.81 79.55 818.83 70.75 818.13 62.04 C 817.37 62.03 815.86 62.01 815.10 62.00 C 816.17 71.13 815.83 80.35 815.98 89.53 C 819.15 90.45 822.21 91.03 825.52 91.67 C 828.24 81.69 828.89 71.06 827.15 60.87 C 824.08 51.21 815.07 42.11 804.11 44.90 M 671.67 47.15 C 670.84 48.35 672.92 49.62 673.71 48.47 C 674.57 47.23 672.46 45.95 671.67 47.15 M 169.42 50.51 C 164.10 51.14 160.23 55.31 156.32 58.57 C 160.64 58.33 164.05 55.48 167.93 53.95 C 172.25 52.15 177.06 53.51 181.55 53.56 C 191.77 54.75 202.00 56.26 211.87 59.26 C 214.59 60.36 217.33 62.41 217.90 65.46 C 220.02 73.72 217.60 82.19 216.33 90.37 C 212.29 108.00 214.87 126.18 213.23 144.04 C 200.34 146.08 186.82 145.88 174.17 142.76 C 167.08 135.24 163.73 124.77 162.58 114.65 C 161.05 95.53 159.18 76.40 155.81 57.50 C 141.02 84.02 143.39 115.60 141.86 144.88 C 136.65 142.75 131.00 140.65 125.30 142.07 C 129.04 144.08 132.97 145.68 136.90 147.26 C 130.47 152.19 125.53 158.75 121.78 165.89 C 122.71 166.27 123.65 166.64 124.59 167.02 C 127.02 162.17 130.20 157.76 133.75 153.68 C 131.90 159.27 128.96 164.68 128.70 170.68 C 133.15 164.40 135.24 156.81 139.67 150.53 C 138.32 157.57 136.37 164.49 135.22 171.57 C 136.29 171.61 137.36 171.64 138.43 171.67 C 139.71 163.09 141.82 154.66 144.49 146.42 C 148.36 152.77 146.11 160.34 146.03 167.35 C 150.90 163.25 151.36 156.32 148.58 150.69 C 143.47 140.16 145.71 128.21 145.96 116.99 C 147.23 100.07 147.66 82.47 154.54 66.67 C 156.25 81.09 158.68 95.44 159.32 109.97 C 159.83 119.88 162.22 129.90 167.36 138.46 C 169.36 141.64 171.13 145.89 175.31 146.60 C 185.83 148.60 196.66 148.88 207.33 148.27 C 210.82 147.66 215.81 146.86 216.48 142.61 C 217.37 132.76 216.87 122.85 217.17 112.98 C 217.11 98.01 221.19 83.48 222.69 68.66 C 232.86 85.38 238.70 104.49 239.84 124.01 C 240.77 130.77 236.15 136.20 234.63 142.41 C 234.09 148.23 235.55 153.96 236.53 159.66 C 237.79 151.97 237.04 143.99 239.21 136.45 C 240.23 145.05 240.67 153.74 242.60 162.21 C 243.17 161.87 244.33 161.19 244.90 160.85 C 243.42 153.15 242.77 145.32 243.47 137.48 C 246.34 144.84 247.17 152.77 248.53 160.50 C 249.27 160.63 250.77 160.89 251.52 161.01 C 250.35 152.79 248.58 144.65 246.33 136.65 C 251.84 144.31 254.56 153.44 258.01 162.11 C 258.58 161.77 259.70 161.08 260.26 160.73 C 257.48 151.81 253.81 143.14 248.83 135.20 C 252.96 133.18 257.06 131.10 261.15 128.97 C 260.80 128.44 260.10 127.36 259.74 126.82 C 254.38 129.07 249.22 132.24 243.32 132.73 C 241.71 115.64 240.66 97.78 232.73 82.19 C 227.72 69.95 219.42 57.09 205.48 54.36 C 193.69 51.72 181.56 49.15 169.42 50.51 M 310.31 56.29 C 320.57 55.44 330.82 53.03 341.15 54.74 C 349.01 56.20 357.39 56.78 364.63 60.43 C 371.03 65.55 369.62 75.86 366.28 82.28 C 361.88 87.78 353.57 86.02 347.61 85.44 C 343.44 84.70 342.13 80.16 340.41 76.92 C 337.16 79.85 334.01 83.23 329.94 84.94 C 325.19 84.69 318.36 85.32 315.76 80.26 C 311.17 72.01 310.82 62.24 308.22 53.32 C 305.97 60.64 308.28 68.40 310.47 75.43 C 312.31 80.99 316.22 86.04 321.95 87.87 C 320.01 109.36 319.44 131.00 322.99 152.37 C 310.23 153.26 297.50 155.47 285.08 158.43 C 295.43 160.89 306.00 156.41 316.37 156.10 C 307.46 159.42 298.25 161.84 289.07 164.30 C 288.83 165.43 288.60 166.56 288.37 167.70 C 292.37 166.63 296.36 165.51 300.36 164.43 C 297.26 166.55 294.14 168.66 291.44 171.29 C 296.92 171.13 301.17 167.16 305.77 164.73 C 312.09 160.57 319.08 157.65 326.10 154.93 C 325.12 143.28 322.96 131.72 323.15 120.00 C 323.15 109.52 324.83 99.15 325.37 88.70 C 330.44 87.90 334.96 85.60 338.99 82.53 C 343.20 86.44 348.08 89.81 354.11 89.93 C 351.16 112.71 347.98 136.49 355.07 158.83 C 345.96 159.11 336.83 159.35 327.81 160.74 C 328.14 161.27 328.79 162.34 329.12 162.87 C 335.87 162.16 342.65 162.26 349.43 162.53 C 341.52 164.45 333.35 165.05 325.36 166.58 C 328.86 167.56 332.44 168.04 336.04 168.48 C 332.41 169.66 328.71 170.71 325.32 172.47 C 327.38 173.46 329.72 173.62 331.90 172.89 C 341.13 170.19 350.33 167.22 359.07 163.18 C 351.11 139.44 353.72 113.98 357.40 89.68 C 360.60 88.61 364.01 87.79 366.75 85.71 C 370.50 82.70 371.15 77.41 371.99 73.00 C 372.04 67.72 371.23 60.87 365.91 58.16 C 357.84 53.91 348.57 52.78 339.69 51.32 C 329.78 50.65 318.52 49.58 310.31 56.29 M 663.98 51.00 C 664.08 63.00 664.22 75.00 664.29 87.00 C 663.46 96.71 671.14 104.42 670.90 113.99 C 671.34 123.45 663.85 130.23 661.35 138.84 C 662.18 138.82 663.84 138.78 664.67 138.76 C 667.99 132.31 672.76 126.32 673.89 118.96 C 674.25 113.48 674.21 107.76 672.13 102.59 C 670.73 98.65 667.97 95.15 667.63 90.88 C 667.16 77.59 667.14 64.29 666.95 51.00 C 666.21 51.00 664.72 51.00 663.98 51.00 M 650.88 53.00 C 650.81 67.70 650.48 82.90 656.10 96.79 C 659.79 104.36 657.92 112.95 657.79 120.98 C 657.77 127.70 654.54 133.65 652.52 139.87 C 653.40 139.89 655.15 139.93 656.03 139.95 C 662.15 128.20 661.56 114.91 662.11 102.06 C 662.27 98.28 659.48 95.23 658.36 91.81 C 652.65 79.66 654.10 65.98 653.92 53.00 C 653.16 53.00 651.64 53.00 650.88 53.00 M 917.02 54.58 C 917.02 55.36 917.03 56.92 917.03 57.70 C 925.53 58.15 934.06 59.53 941.71 63.43 C 948.89 69.44 953.29 83.09 944.46 89.41 C 939.53 92.92 934.42 96.41 928.79 98.66 C 919.59 100.15 908.97 96.60 903.31 88.97 C 902.49 84.64 904.32 80.02 903.77 75.65 L 900.06 78.05 C 897.88 83.59 897.86 90.67 892.32 94.33 C 888.45 99.12 881.89 96.53 876.84 96.02 C 867.47 93.41 856.57 90.96 850.74 82.44 C 849.33 74.11 850.09 65.45 849.88 56.99 C 849.16 57.00 847.71 57.01 846.99 57.01 C 846.99 66.58 847.02 76.16 847.15 85.74 C 857.96 95.21 872.60 100.60 886.97 99.97 C 892.79 100.74 895.90 95.28 899.81 92.21 C 908.81 99.83 920.83 105.41 932.77 100.74 C 939.27 97.12 946.13 93.68 951.64 88.60 C 953.55 78.74 952.45 66.77 943.92 60.18 C 935.55 56.12 926.18 55.11 917.02 54.58 M 545.77 63.84 C 546.06 65.12 546.37 66.39 546.69 67.67 C 562.81 57.88 582.68 63.20 598.63 70.31 C 602.96 89.31 602.50 109.11 601.43 128.44 C 599.41 135.88 600.15 147.97 591.00 150.99 C 577.38 154.79 562.72 153.35 549.09 150.21 C 542.94 130.44 540.68 109.67 541.31 89.01 C 540.99 81.47 543.25 73.62 540.58 66.30 C 538.21 71.47 537.22 77.23 534.03 82.02 C 530.03 88.53 526.49 95.32 522.93 102.08 C 519.56 108.30 518.17 115.31 516.05 122.02 C 512.95 132.47 514.12 143.47 513.83 154.21 C 518.76 157.23 524.11 159.45 529.59 161.29 C 528.89 154.15 526.40 147.23 527.05 139.98 C 527.26 127.64 532.82 116.36 538.65 105.79 C 539.70 120.69 541.59 135.65 546.24 149.89 C 546.86 151.75 548.48 153.11 550.37 153.57 C 561.72 156.72 573.73 156.56 585.36 155.41 C 592.21 154.86 598.74 150.42 600.94 143.79 C 606.83 127.39 604.44 109.66 605.47 92.61 C 608.39 101.08 610.91 109.72 612.53 118.55 C 614.71 129.46 618.84 139.84 621.31 150.69 C 622.19 158.59 629.22 163.05 633.31 169.21 C 633.34 166.43 633.11 163.65 632.72 160.89 C 635.58 162.20 638.45 163.48 641.34 164.76 C 641.51 164.12 641.85 162.84 642.02 162.20 C 640.29 161.19 638.56 160.17 636.84 159.15 C 639.51 158.79 642.02 158.40 644.74 158.07 C 647.19 160.90 649.50 163.93 652.64 166.04 C 651.32 163.02 649.82 160.09 648.39 157.15 C 653.65 156.18 658.89 155.08 664.15 154.06 C 663.82 153.51 663.15 152.41 662.82 151.86 C 651.42 153.67 639.65 154.70 629.02 159.56 C 627.71 142.80 629.20 125.68 624.89 109.27 C 621.75 93.40 615.19 76.28 601.07 67.08 C 595.28 64.86 589.12 63.86 583.26 61.84 C 571.18 56.97 557.67 59.71 545.77 63.84 M 601.08 61.39 C 601.00 63.28 601.01 65.18 601.07 67.08 C 602.04 65.22 602.15 63.21 601.08 61.39 M 739.03 61.52 C 739.05 62.29 739.09 63.83 739.10 64.60 C 744.38 65.66 749.67 66.79 754.83 68.38 C 749.36 70.90 743.40 72.16 737.51 73.23 C 741.55 75.07 745.63 76.87 749.77 78.50 C 749.91 79.91 750.05 81.33 750.20 82.74 C 742.76 84.56 736.13 79.84 729.33 77.72 C 726.22 85.23 722.46 92.47 719.57 100.09 C 717.36 98.57 715.17 97.04 712.98 95.52 C 715.37 83.76 727.55 76.34 727.76 64.01 C 724.51 67.49 722.26 71.72 719.45 75.54 C 716.00 80.95 710.66 86.07 711.01 92.99 C 709.68 99.52 716.28 103.30 721.62 104.20 C 724.52 96.71 728.14 89.53 731.14 82.08 C 737.20 84.44 743.40 88.00 750.16 86.25 C 754.71 85.38 752.24 78.72 753.64 76.02 C 752.11 75.64 750.61 75.27 749.10 74.91 C 753.25 73.18 759.53 71.40 757.18 65.09 C 751.44 62.75 745.07 62.54 739.03 61.52 M 30.32 71.97 C 39.50 71.34 48.67 69.33 57.64 67.33 C 49.14 61.77 38.19 67.42 30.32 71.97 M 65.16 67.47 C 73.46 70.15 82.41 68.93 90.84 67.53 C 82.54 64.85 73.59 66.07 65.16 67.47 M 66.10 80.86 C 69.98 82.78 73.33 86.81 77.84 86.87 C 81.59 84.72 86.58 81.06 85.91 76.26 C 84.07 74.40 81.50 73.64 79.10 72.82 C 80.42 74.96 81.89 77.00 83.32 79.07 C 81.15 80.65 79.08 82.39 76.77 83.78 C 72.31 84.05 70.28 78.85 69.00 75.52 C 72.24 74.04 75.51 72.62 78.67 70.98 C 72.23 68.98 65.08 73.44 66.10 80.86 M 39.19 71.09 C 38.75 74.13 38.73 77.21 39.13 80.25 C 40.78 78.92 42.33 77.46 44.11 76.31 C 46.27 76.27 48.41 76.54 50.52 76.94 C 48.40 77.08 46.28 77.15 44.16 77.22 C 43.77 78.37 43.38 79.53 42.99 80.68 C 45.71 80.50 48.42 80.22 51.09 79.67 C 51.04 80.77 50.98 81.87 50.93 82.97 C 47.94 82.66 44.95 82.36 41.97 82.03 C 42.67 83.37 43.38 84.71 44.09 86.06 C 47.43 85.90 50.77 85.72 54.12 85.55 C 53.61 82.27 53.92 78.69 52.25 75.75 C 49.44 71.53 43.45 71.99 39.19 71.09 M 567.61 93.46 C 560.25 94.41 552.84 95.37 545.80 97.77 C 546.15 98.35 546.85 99.50 547.19 100.07 C 554.79 98.18 562.47 96.29 570.31 95.85 C 577.83 96.71 584.94 101.00 592.70 98.80 C 585.59 96.42 578.09 95.35 571.21 92.29 C 570.66 85.24 571.31 77.81 568.58 71.14 C 566.95 78.46 568.04 86.04 567.61 93.46 M 73.23 75.03 C 70.04 77.11 73.55 81.96 76.77 80.97 C 79.96 78.89 76.45 74.04 73.23 75.03 M 167.30 81.57 C 166.63 82.76 166.10 84.03 165.51 85.27 C 167.13 85.40 168.75 85.53 170.36 85.69 C 170.61 84.86 171.10 83.20 171.35 82.37 C 170.01 82.06 168.68 81.68 167.30 81.57 M 206.37 81.44 C 206.36 82.48 206.36 83.52 206.37 84.56 C 206.93 84.56 208.07 84.56 208.63 84.56 C 208.63 83.52 208.63 82.48 208.63 81.44 C 208.07 81.44 206.93 81.44 206.37 81.44 M 46.23 105.33 C 54.16 107.50 62.56 107.01 70.54 105.37 C 69.07 101.29 67.79 97.14 65.98 93.20 C 65.55 96.62 65.83 100.07 66.36 103.46 C 61.04 103.88 55.69 103.78 50.36 103.86 C 54.08 97.80 59.86 92.89 61.77 85.86 C 56.03 91.85 50.36 98.08 46.23 105.33 M 470.64 87.13 C 470.95 90.93 471.36 94.72 471.87 98.50 C 472.96 102.75 476.72 105.79 477.73 110.05 C 477.82 118.05 476.01 125.93 475.70 133.92 C 473.03 133.96 467.67 134.03 465.00 134.07 C 465.01 134.77 465.02 136.17 465.03 136.87 C 469.62 137.19 474.20 137.55 478.79 137.92 C 479.49 127.79 480.83 117.73 481.55 107.61 C 482.86 106.69 484.16 105.74 485.44 104.76 C 488.86 106.51 492.45 107.89 496.08 109.16 C 497.29 119.00 496.95 128.93 497.14 138.82 C 502.08 138.33 507.01 138.09 511.98 137.79 C 511.98 137.10 511.99 135.73 512.00 135.04 C 508.04 135.01 504.10 134.98 500.16 134.96 C 500.01 125.39 499.04 115.85 498.93 106.30 C 500.59 103.14 503.58 100.92 505.84 98.21 C 504.80 89.78 496.36 86.65 489.14 85.12 C 489.17 85.94 489.25 87.58 489.29 88.40 C 493.83 89.99 498.06 92.26 502.37 94.39 C 500.06 98.84 496.82 106.30 490.29 103.94 C 487.96 101.60 487.17 98.19 485.94 95.27 C 485.61 95.24 484.96 95.18 484.63 95.15 C 483.44 98.54 482.02 101.85 480.27 105.00 C 476.41 100.97 473.60 95.99 472.92 90.36 C 475.68 89.99 481.20 89.26 483.97 88.89 C 483.97 88.15 483.98 86.68 483.98 85.94 C 479.53 86.34 475.08 86.74 470.64 87.13 M 770.76 94.02 C 771.03 102.88 773.80 111.52 773.35 120.40 C 772.79 122.55 773.15 127.22 769.88 127.69 C 760.33 129.86 750.50 130.26 740.85 131.82 C 729.48 133.14 718.74 137.61 707.21 137.92 C 709.38 145.11 708.62 152.70 710.15 160.00 C 719.75 163.25 728.32 156.84 737.14 154.24 C 749.16 150.85 761.25 147.55 773.61 145.52 C 783.92 143.57 794.76 142.87 804.17 137.80 C 800.23 130.46 793.23 125.60 787.34 119.98 C 788.21 112.19 790.11 104.59 792.09 97.02 C 790.80 97.05 789.52 97.07 788.25 97.09 C 786.94 102.35 785.34 107.58 785.20 113.06 C 785.47 116.85 783.73 121.97 787.05 124.93 C 790.94 128.80 795.00 132.52 799.30 135.95 C 794.97 139.03 789.71 140.30 784.48 140.70 C 766.95 142.85 749.69 146.73 732.80 151.82 C 726.54 153.92 720.74 157.25 714.27 158.72 C 713.78 157.55 713.31 156.38 712.84 155.21 C 715.91 154.78 718.89 154.29 721.99 153.85 C 721.96 153.25 721.91 152.03 721.88 151.43 C 718.46 150.66 715.09 149.87 711.74 148.86 C 713.49 148.24 715.26 147.62 717.02 146.99 C 716.99 146.28 716.94 144.85 716.91 144.14 C 714.86 142.91 712.83 141.68 710.82 140.44 C 716.25 139.76 721.86 139.65 727.16 138.09 C 740.79 133.91 755.14 133.25 769.17 131.16 C 770.38 129.96 775.16 131.31 775.46 128.40 C 778.64 116.99 774.33 105.48 773.62 94.06 C 772.90 94.05 771.47 94.03 770.76 94.02 M 393.83 98.90 C 385.85 107.42 380.90 118.29 378.62 129.66 C 377.74 136.83 370.41 140.63 369.63 147.79 C 372.38 145.93 374.69 143.54 376.89 141.07 C 375.89 144.98 375.09 148.94 374.53 152.94 C 375.38 152.94 377.08 152.94 377.93 152.94 C 378.26 150.25 378.77 147.61 379.15 144.94 C 382.19 147.22 385.20 149.55 388.45 151.54 C 386.27 145.03 378.68 140.19 381.58 132.47 C 382.86 121.44 388.60 111.74 394.73 102.75 C 395.24 113.47 394.62 124.41 397.12 134.93 C 399.81 142.43 408.22 145.30 414.88 148.47 C 414.82 147.21 414.76 145.96 414.71 144.70 C 408.72 141.72 401.37 138.52 399.56 131.41 C 397.24 121.43 398.21 111.06 397.93 100.91 C 402.57 100.29 407.23 99.69 411.91 99.47 C 411.93 98.26 411.96 97.05 411.99 95.85 C 406.00 96.88 399.42 96.28 393.83 98.90 M 420.03 97.73 C 420.06 98.96 420.11 100.18 420.16 101.40 C 426.11 102.56 432.30 105.51 433.83 112.01 C 435.41 121.58 433.15 131.46 430.64 140.71 C 428.94 145.24 422.89 144.95 419.12 145.78 C 419.10 146.47 419.07 147.84 419.05 148.52 C 423.67 147.40 430.91 148.78 433.28 143.34 C 437.78 132.66 437.29 120.66 437.86 109.33 C 440.50 112.33 442.91 115.56 444.95 119.02 C 448.50 125.30 448.70 132.75 449.32 139.76 C 445.58 142.56 441.78 145.32 438.00 148.07 C 438.09 149.54 438.19 151.02 438.29 152.50 C 441.91 150.03 445.47 147.49 449.00 144.89 C 448.75 150.10 448.44 155.30 448.31 160.52 C 449.42 160.71 450.55 160.90 451.68 161.09 C 451.56 155.60 452.04 150.13 452.33 144.66 C 454.74 148.98 457.21 153.30 459.33 157.78 C 460.16 157.80 461.82 157.85 462.65 157.88 C 461.24 151.38 456.82 146.30 453.60 140.67 C 450.73 132.38 451.68 122.80 446.95 115.12 C 441.18 105.69 431.03 99.05 420.03 97.73 M 27.06 109.32 C 36.80 123.48 55.19 127.25 71.18 128.84 C 78.40 129.41 83.72 122.91 83.96 116.09 C 79.43 113.87 74.98 111.17 69.97 110.23 C 61.87 109.01 53.54 108.90 45.68 106.39 C 42.15 105.47 38.79 103.72 35.12 103.37 C 32.06 104.77 29.77 107.39 27.06 109.32 M 171.52 120.09 C 176.75 119.70 181.93 118.75 187.17 118.33 C 192.66 118.14 198.00 119.72 203.43 120.31 C 200.25 116.95 195.83 114.55 191.02 115.30 C 184.38 115.49 176.90 115.71 171.52 120.09 M 551.57 122.39 C 566.27 119.38 583.01 117.38 596.27 125.75 C 596.59 124.45 596.90 123.15 597.23 121.86 C 589.69 119.48 582.08 116.41 574.01 116.86 C 566.40 116.95 556.93 115.68 551.57 122.39 M 182.32 123.54 C 185.57 125.35 189.05 126.67 192.61 127.75 C 193.01 127.02 193.82 125.55 194.23 124.82 C 193.09 123.62 191.97 122.41 190.86 121.19 C 188.02 122.00 185.16 122.74 182.32 123.54 M 568.42 132.66 C 568.35 133.13 568.21 134.05 568.14 134.52 C 570.30 135.49 572.41 136.57 574.46 137.77 C 571.21 137.39 568.00 136.81 564.78 136.32 C 565.52 137.84 566.22 139.40 567.32 140.71 C 570.86 141.22 574.40 140.42 577.95 140.12 C 575.96 137.07 573.65 134.24 571.35 131.43 C 570.62 131.74 569.15 132.35 568.42 132.66 Z" />
<path fill="#eec39a" opacity="1.00" d=" M 601.96 70.61 C 617.13 83.40 621.56 103.76 624.32 122.45 C 625.20 133.68 625.24 144.97 625.85 156.22 C 622.25 141.55 617.28 127.24 614.43 112.38 C 612.87 105.72 610.98 99.10 607.61 93.10 C 603.75 86.23 602.89 78.29 601.96 70.61 Z" />
<path fill="#eec39a" opacity="1.00" d=" M 526.27 101.45 C 530.09 94.48 533.87 87.49 537.92 80.65 C 537.59 88.37 539.25 96.62 536.01 103.93 C 532.35 112.93 526.99 121.33 525.13 131.00 C 523.16 139.29 523.83 147.95 525.79 156.16 C 522.86 155.30 519.95 154.39 517.01 153.59 C 517.12 143.06 515.96 132.27 519.05 122.02 C 521.24 115.09 522.65 107.82 526.27 101.45 Z" />
<path fill="#eec39a" opacity="1.00" d=" M 34.94 106.11 C 43.68 109.05 52.50 112.03 61.82 112.29 C 68.43 112.65 74.83 114.42 80.85 117.10 C 79.71 119.70 79.06 122.86 76.63 124.61 C 72.49 126.77 67.64 125.32 63.28 124.95 C 51.31 123.65 39.92 118.66 30.63 111.05 C 32.06 109.39 33.49 107.74 34.94 106.11 M 42.42 113.63 C 51.03 119.41 61.84 118.87 71.77 119.82 C 70.17 118.17 68.64 116.14 65.95 116.21 C 58.28 114.23 50.28 114.19 42.42 113.63 Z" />
<path fill="#eec39a" opacity="1.00" d=" M 693.02 220.81 C 705.80 220.67 718.15 216.44 730.98 217.00 C 804.33 217.00 877.67 216.96 951.02 217.02 C 968.10 216.82 984.73 220.99 1001.52 223.51 C 1009.00 224.76 1016.55 225.66 1024.00 227.19 L 1024.00 421.10 C 1008.67 418.02 992.24 418.19 977.99 410.98 C 965.61 405.29 951.68 404.89 938.40 403.15 C 909.59 398.43 882.30 386.84 853.11 384.04 C 831.41 382.50 810.05 378.20 788.41 376.23 C 774.77 374.48 761.07 373.17 747.60 370.39 C 728.71 366.49 709.30 368.94 690.22 367.38 C 681.52 365.94 672.85 364.14 664.11 363.00 C 652.49 361.70 640.73 362.49 629.16 360.76 C 610.23 358.14 591.05 359.07 572.00 358.97 C 495.33 359.04 418.66 359.00 342.00 358.97 C 321.26 358.63 300.71 362.02 279.98 362.14 C 260.62 362.51 242.27 369.88 223.01 371.07 C 208.02 372.81 192.90 373.85 178.15 377.17 C 163.92 380.19 149.20 379.75 135.02 383.09 C 111.21 388.85 86.77 392.64 63.83 401.51 C 54.51 404.40 44.55 403.51 35.04 405.41 C 22.73 407.33 11.26 412.40 0.00 417.49 L 0.00 237.33 C 12.30 237.00 24.54 235.40 36.36 231.88 C 44.01 229.57 52.02 228.99 59.98 228.93 C 219.99 229.07 380.01 228.99 540.02 228.99 C 563.11 229.95 584.94 220.11 607.99 220.89 C 636.33 220.65 664.68 221.59 693.02 220.81 M 592.00 240.05 C 589.73 244.73 593.27 249.68 595.15 253.85 C 597.76 258.71 597.76 264.37 598.59 269.70 C 587.52 271.81 576.40 273.66 565.40 276.06 C 566.15 278.72 566.26 281.79 567.85 284.16 C 570.07 286.13 573.20 286.57 575.92 287.56 C 570.44 288.77 565.31 291.06 560.16 293.21 C 560.11 293.95 560.02 295.43 559.97 296.17 C 566.48 297.66 573.12 298.08 579.79 298.08 C 576.26 299.82 572.39 300.96 569.17 303.24 C 566.96 308.25 569.56 310.76 574.57 310.55 C 585.40 311.57 595.77 307.05 605.86 303.77 C 614.29 300.86 623.22 299.87 631.90 297.93 C 631.93 297.17 631.99 295.66 632.02 294.91 C 621.76 296.97 611.19 297.81 601.30 301.42 C 592.05 304.74 582.03 309.45 572.03 306.55 C 578.91 301.13 587.84 299.73 595.83 296.58 C 595.89 295.42 595.95 294.27 596.02 293.13 C 586.80 294.65 577.39 294.81 568.08 294.17 C 577.50 289.93 587.66 287.54 597.95 286.74 C 597.96 286.08 597.99 284.77 598.01 284.11 C 588.18 283.06 575.92 287.08 568.20 279.14 C 578.84 275.83 590.06 274.96 600.92 272.52 C 600.98 267.80 600.83 263.07 600.45 258.38 C 599.80 252.08 593.72 247.77 594.36 241.19 C 595.89 240.77 597.43 240.36 598.98 239.95 C 604.97 250.61 605.51 263.12 608.41 274.66 C 618.99 281.29 631.92 283.19 642.85 289.37 C 642.89 287.92 642.94 286.46 643.00 285.01 C 633.35 280.69 623.03 278.05 613.50 273.52 C 609.11 271.83 610.25 265.95 609.15 262.46 C 608.01 252.92 604.82 243.72 600.53 235.16 C 597.78 236.51 593.40 236.73 592.00 240.05 M 684.07 240.30 C 682.10 254.02 682.97 267.98 683.87 281.76 C 673.75 276.80 663.68 270.41 651.99 270.49 C 651.48 274.35 651.00 278.20 650.68 282.09 C 658.37 287.12 666.69 291.08 675.21 294.50 C 663.02 294.26 651.12 297.00 639.99 301.81 C 639.95 303.34 639.91 304.89 639.88 306.43 C 647.88 309.78 656.58 311.01 665.20 311.48 C 657.34 313.47 649.35 315.61 642.81 320.64 C 642.89 322.14 642.98 323.65 643.07 325.16 C 649.24 326.33 655.64 327.06 661.88 325.94 C 672.62 323.64 682.43 318.50 692.62 314.58 C 700.98 311.26 710.12 311.15 718.98 310.64 C 718.98 309.93 718.99 308.53 719.00 307.82 C 709.19 308.01 699.12 308.20 689.88 311.87 C 676.08 316.99 662.32 325.95 647.03 322.67 C 655.75 315.42 667.87 315.38 678.03 311.17 C 678.03 310.42 678.02 308.92 678.01 308.17 C 666.47 308.07 654.83 307.78 643.66 304.58 C 656.54 297.14 671.74 297.71 686.09 297.28 C 686.02 296.56 685.89 295.11 685.82 294.39 C 674.56 290.96 663.84 285.95 653.60 280.18 C 654.11 277.98 654.62 275.78 655.11 273.57 C 666.49 276.09 676.57 282.19 686.84 287.44 C 687.84 272.97 684.78 258.50 686.81 244.03 C 689.09 245.10 691.38 246.16 693.69 247.21 C 696.14 262.62 699.84 281.31 715.51 288.62 C 713.27 282.90 708.29 278.98 705.26 273.76 C 699.84 264.77 698.57 254.14 695.67 244.27 C 692.39 241.69 687.93 241.33 684.07 240.30 M 393.89 249.07 C 397.11 246.89 400.26 244.59 403.33 242.19 C 400.11 244.39 396.95 246.67 393.89 249.07 M 297.86 251.81 C 291.60 253.72 285.03 256.90 282.26 263.25 C 275.72 276.37 275.70 291.99 279.06 306.02 C 279.64 314.41 288.89 317.46 291.47 324.88 C 292.98 328.53 296.61 331.71 296.68 335.84 C 294.16 343.22 289.62 350.08 289.63 358.19 C 290.87 357.51 293.36 356.13 294.60 355.45 C 298.85 349.49 300.78 342.18 302.86 335.25 C 303.24 335.19 303.99 335.06 304.37 335.00 C 306.34 342.15 304.35 356.90 315.38 356.95 C 314.38 352.12 312.63 347.53 311.23 342.82 C 310.06 339.17 311.26 335.34 311.95 331.71 C 316.47 336.86 321.64 342.02 328.96 342.61 C 323.97 332.13 313.71 325.45 307.72 315.63 C 307.15 309.65 308.86 303.67 308.76 297.68 C 300.01 299.64 303.22 310.31 300.67 316.48 C 294.78 313.93 286.75 312.08 284.78 305.17 C 280.06 291.34 281.57 275.00 289.88 262.88 C 304.16 252.32 323.19 252.78 340.12 254.10 C 336.65 256.23 333.17 258.40 330.13 261.13 C 319.30 269.28 315.95 284.17 316.99 297.03 C 317.23 309.00 325.68 320.14 336.88 324.14 C 347.69 328.20 359.79 329.21 371.07 327.03 C 379.02 322.73 384.94 315.24 389.44 307.57 C 392.99 289.80 386.31 269.28 369.99 259.99 C 385.19 260.53 400.75 258.47 415.76 261.27 C 424.83 271.49 421.66 285.93 426.11 297.95 C 428.38 303.63 427.69 309.79 427.92 315.75 C 423.37 315.59 418.58 317.53 414.13 316.20 C 411.98 312.30 412.15 306.11 405.92 306.13 C 406.48 311.24 407.42 316.30 408.79 321.26 C 400.85 327.16 390.30 324.79 381.06 326.09 L 381.02 330.97 C 388.09 330.66 395.16 330.38 402.25 330.30 C 399.56 337.76 392.23 342.70 391.25 350.91 C 397.94 349.45 401.93 343.90 406.03 339.01 C 405.72 344.74 405.36 350.49 405.26 356.23 C 414.80 355.58 409.52 344.25 411.42 338.48 C 419.69 337.12 432.27 335.18 433.70 324.88 C 433.65 312.14 432.66 299.31 429.58 286.91 C 427.38 277.98 427.78 268.09 423.15 259.88 C 421.80 257.11 418.88 255.51 415.87 255.31 C 399.01 254.40 382.12 255.02 365.26 255.41 C 363.45 249.54 357.02 249.47 352.04 249.00 C 334.09 249.06 315.15 245.27 297.86 251.81 M 39.38 260.14 C 38.81 261.37 37.68 263.82 37.11 265.04 C 50.93 264.24 64.42 258.58 78.34 260.71 C 84.15 264.73 89.15 270.09 92.95 276.04 C 95.89 279.84 94.63 285.16 93.30 289.30 C 90.35 294.11 84.71 296.47 79.97 299.05 C 73.51 297.77 68.75 292.82 66.94 286.67 C 57.72 290.03 50.08 296.51 43.15 303.26 C 40.08 300.96 36.79 298.55 35.37 294.83 C 34.59 284.90 34.95 274.94 34.94 265.00 L 29.97 265.00 C 30.02 276.51 29.41 288.06 30.60 299.54 C 32.60 305.46 39.27 307.91 44.82 309.22 C 43.75 317.64 42.24 326.00 41.31 334.43 C 42.11 347.20 43.63 359.93 45.12 372.64 C 36.79 373.32 28.41 374.07 20.31 376.23 C 16.71 377.28 12.52 378.53 11.98 383.17 C 24.90 382.31 37.14 377.10 50.23 377.62 C 47.76 353.65 47.29 329.34 50.71 305.45 C 53.58 300.80 58.99 298.37 63.30 295.25 C 68.52 302.37 77.48 305.12 86.10 304.56 C 86.30 314.82 85.48 325.05 84.14 335.22 C 84.79 349.08 89.02 362.67 87.82 376.67 C 76.48 377.18 64.93 376.65 53.86 379.57 C 53.36 380.90 52.35 383.58 51.85 384.92 C 65.51 382.63 79.30 381.61 93.13 381.17 C 92.97 371.57 92.33 362.00 91.73 352.42 C 91.42 345.87 93.83 339.36 92.30 332.84 C 90.75 322.21 90.89 311.43 91.27 300.73 C 100.69 295.28 101.38 283.21 99.09 273.82 C 96.94 267.90 91.72 263.88 87.48 259.51 C 85.18 257.84 83.10 255.10 80.05 254.97 C 66.35 254.30 52.48 256.17 39.38 260.14 M 496.01 256.05 C 487.96 259.15 479.26 263.87 476.70 272.79 C 475.41 277.53 475.39 283.40 478.67 287.33 C 484.01 292.30 491.04 296.76 498.72 294.97 C 492.25 290.66 482.60 289.54 479.59 281.37 C 477.34 268.77 490.44 260.56 501.05 258.17 C 511.02 259.57 519.05 268.29 522.50 277.43 C 524.11 288.10 511.93 296.87 501.98 294.26 C 501.99 295.08 502.02 296.71 502.03 297.52 C 506.35 297.47 511.03 298.25 514.92 295.88 C 522.16 292.19 528.29 283.86 525.50 275.44 C 523.24 267.56 516.62 262.44 510.91 257.08 C 506.99 253.17 500.76 255.22 496.01 256.05 M 198.62 266.70 C 195.80 268.31 194.46 271.40 192.78 274.02 C 190.71 277.44 187.46 280.17 186.22 284.07 C 182.62 293.62 183.94 304.04 184.09 314.01 C 182.68 323.92 195.04 326.25 202.10 327.56 C 201.45 319.93 193.29 319.44 189.28 314.71 C 188.40 304.59 188.24 293.52 193.57 284.46 C 197.64 279.28 199.90 271.54 207.19 270.08 C 214.47 268.79 220.49 274.32 226.35 277.71 C 232.29 284.43 234.27 294.16 233.75 302.90 C 231.38 313.92 223.91 323.01 221.47 334.01 C 229.34 333.27 231.53 325.09 234.40 319.29 C 235.67 315.77 238.19 312.70 238.84 308.96 C 239.73 298.21 239.34 286.73 233.97 277.08 C 231.32 271.59 225.03 269.65 220.25 266.56 C 213.88 262.17 205.27 263.67 198.62 266.70 M 490.81 271.96 C 493.15 272.70 495.63 272.58 498.06 272.71 C 497.92 270.53 497.66 266.17 497.52 263.98 C 494.52 265.83 490.22 267.66 490.81 271.96 M 504.13 265.11 C 504.23 268.59 504.37 272.05 504.58 275.55 C 506.99 274.69 509.45 273.76 511.38 272.01 C 510.61 268.36 507.18 266.58 504.13 265.11 M 483.23 275.36 C 483.17 276.27 483.07 278.10 483.01 279.01 C 492.09 284.07 502.13 289.39 512.92 287.36 C 513.32 285.61 513.74 283.86 514.16 282.12 C 510.03 283.24 505.52 285.26 501.26 283.71 C 495.00 281.47 489.33 277.94 483.23 275.36 M 898.94 277.96 C 894.18 280.32 895.50 286.57 894.30 290.80 C 867.32 292.96 840.28 293.35 813.22 293.11 C 812.33 294.56 811.45 296.01 810.59 297.47 C 823.57 295.03 836.87 296.30 850.00 296.02 C 865.87 296.39 881.64 294.29 897.48 293.73 C 898.36 289.16 896.75 282.25 902.48 280.53 C 916.46 277.53 934.92 286.02 935.88 301.84 C 936.51 301.87 937.78 301.93 938.41 301.96 C 937.22 297.73 938.17 292.54 934.96 289.11 C 926.70 278.33 911.80 274.14 898.94 277.96 M 215.15 282.08 C 212.01 285.73 213.57 290.76 213.66 295.11 C 216.52 294.73 219.42 294.39 222.29 294.02 C 221.85 290.01 221.71 285.95 220.73 282.03 C 219.33 282.04 216.54 282.07 215.15 282.08 M 197.85 284.93 C 196.70 288.90 195.91 292.94 195.33 297.04 C 198.03 296.70 200.74 296.36 203.45 296.01 C 203.58 291.21 205.49 284.78 197.85 284.93 M 205.00 309.31 C 201.63 309.53 195.81 309.11 195.98 314.63 C 205.34 314.19 214.71 314.56 224.07 314.96 C 224.84 312.00 225.54 308.99 226.22 306.01 C 219.40 308.47 212.20 309.10 205.00 309.31 Z" />
<path fill="#eec39a" opacity="1.00" d=" M 335.72 264.71 C 343.22 259.13 352.28 253.61 362.05 255.73 C 362.21 258.59 360.99 262.15 363.44 264.26 C 367.44 266.99 371.99 269.05 375.55 272.42 C 381.89 281.34 386.37 292.46 384.48 303.57 C 381.34 309.42 376.80 314.50 371.78 318.81 C 364.07 326.08 352.07 322.53 343.07 319.94 C 331.16 316.82 322.03 305.39 322.10 293.04 C 322.62 282.35 326.64 271.10 335.72 264.71 Z" />
<path fill="#eec39a" opacity="1.00" d=" M 419.98 321.97 C 423.16 320.02 426.24 322.92 428.96 324.34 C 424.69 327.19 420.66 330.90 415.53 332.11 C 412.72 331.78 410.11 330.83 407.49 329.87 C 411.61 327.17 415.61 324.26 419.98 321.97 Z" />
<path fill="#eec39a" opacity="1.00" d=" M 296.36 322.79 C 299.50 322.83 302.70 322.47 305.80 323.17 C 307.05 325.12 307.45 327.44 307.96 329.67 C 302.59 330.25 299.13 326.55 296.36 322.79 Z" />
<path fill="#eec39a" opacity="1.00" d=" M 328.98 412.13 C 352.02 411.66 374.93 408.54 398.00 408.95 C 451.34 409.14 504.68 408.82 558.02 409.06 C 571.77 408.91 585.25 412.26 599.01 412.06 C 613.29 411.87 627.23 415.01 641.22 417.38 C 660.30 418.94 679.71 416.49 698.60 420.39 C 717.58 424.13 736.90 425.82 756.10 428.09 C 772.06 430.39 788.02 432.79 804.11 434.04 C 833.30 436.84 860.59 448.43 889.40 453.15 C 898.59 454.28 907.90 454.91 916.96 457.05 C 925.24 458.37 932.38 463.17 940.42 465.35 C 954.71 468.85 969.42 469.87 983.94 472.06 C 998.12 473.72 1011.69 479.02 1024.00 486.12 L 1024.00 629.42 C 1015.38 622.28 1005.18 617.44 996.31 610.67 C 988.33 604.62 979.93 599.15 972.04 593.00 C 963.97 586.74 954.32 583.24 945.42 578.43 C 936.21 573.19 926.56 568.73 916.81 564.63 C 902.88 560.73 889.03 556.50 875.00 552.99 C 850.36 546.74 826.04 539.11 801.10 534.09 C 782.41 531.72 763.64 530.07 744.95 527.72 C 696.00 524.90 646.75 530.00 597.93 524.53 C 560.98 522.42 523.77 526.50 486.98 521.55 C 455.59 518.92 424.29 523.09 393.04 525.33 C 374.49 528.68 355.90 531.86 337.28 534.83 C 315.85 536.67 293.62 537.67 273.68 546.65 C 260.34 553.34 245.17 554.90 231.80 561.56 C 220.04 565.48 214.57 578.54 202.92 582.71 C 194.15 585.86 184.80 587.79 176.85 592.88 C 165.91 599.62 153.25 603.12 142.80 610.71 C 133.69 616.99 124.61 623.45 114.21 627.47 C 94.00 640.02 71.23 649.06 54.04 665.97 C 45.51 676.43 35.93 685.99 25.54 694.61 C 15.62 703.38 7.13 713.66 0.00 724.81 L 0.00 484.10 C 14.07 476.00 29.85 471.67 45.53 467.92 C 57.38 465.04 67.97 458.40 80.03 456.20 C 90.78 453.40 102.19 454.70 112.83 451.51 C 134.49 443.19 157.48 439.25 179.98 433.91 C 195.43 429.88 211.56 430.38 227.15 427.17 C 241.90 423.84 257.02 422.81 272.01 421.08 C 291.27 419.88 309.62 412.51 328.98 412.13 M 381.82 424.58 C 373.36 428.43 365.49 433.43 358.63 439.73 C 359.04 440.36 359.86 441.63 360.27 442.26 C 362.38 441.42 364.48 440.55 366.59 439.72 C 365.05 442.78 363.69 445.97 363.11 449.37 C 365.00 448.39 366.88 447.38 368.72 446.31 C 369.10 452.23 368.28 459.78 374.41 463.05 C 378.33 455.05 381.00 446.49 382.56 437.72 C 393.48 441.98 403.75 447.88 415.02 451.26 C 414.36 444.43 408.38 440.26 403.89 435.85 C 409.73 437.45 415.50 439.30 421.37 440.82 C 421.56 440.12 421.93 438.72 422.12 438.02 C 418.04 435.05 413.82 432.30 409.64 429.51 C 412.68 430.03 415.70 430.49 418.77 430.97 C 419.49 430.10 420.22 429.24 420.94 428.38 C 415.45 425.20 410.53 421.08 404.90 418.16 C 396.44 416.21 388.57 420.03 381.82 424.58 M 517.39 419.45 C 509.34 423.02 502.16 431.31 503.37 440.64 C 508.36 450.12 518.56 454.82 526.01 462.04 C 526.34 461.13 526.66 460.23 527.00 459.32 C 520.04 453.95 512.34 449.08 507.22 441.78 C 504.73 437.76 507.10 432.84 509.41 429.33 C 512.15 424.64 517.20 420.92 522.97 421.95 C 540.51 421.82 558.29 423.76 575.16 428.75 C 582.90 430.84 588.07 437.89 591.17 444.86 C 593.12 455.85 591.66 467.21 589.03 477.98 C 587.33 485.65 586.88 493.55 584.96 501.19 C 582.83 506.88 575.69 507.79 570.73 509.64 C 557.79 510.85 544.60 507.60 532.88 502.18 C 526.97 500.03 524.62 493.52 523.67 487.85 C 523.95 480.23 527.89 472.93 526.85 465.22 C 522.83 471.46 521.85 479.02 520.44 486.16 C 521.01 494.20 525.84 502.52 533.56 505.58 C 548.77 512.15 567.73 517.37 582.79 507.79 C 590.91 502.46 589.25 492.08 591.02 483.88 C 593.70 471.12 596.68 457.91 594.12 444.88 C 590.17 434.61 580.89 426.37 570.07 424.05 C 552.85 420.11 535.06 417.65 517.39 419.45 M 295.66 433.66 C 290.01 435.01 291.16 443.12 295.51 445.51 C 302.10 449.82 311.45 451.64 318.45 447.32 C 311.87 446.27 304.96 446.60 298.63 444.35 C 294.81 443.25 295.74 438.75 295.19 435.63 C 302.07 436.63 308.97 437.92 315.39 440.67 C 315.59 439.97 315.99 438.57 316.19 437.87 C 309.75 435.10 302.74 432.66 295.66 433.66 M 301.45 440.20 C 305.67 441.85 309.90 443.59 314.36 444.51 C 311.52 440.10 306.45 438.76 301.45 440.20 M 329.73 452.70 C 330.07 453.22 330.75 454.26 331.10 454.78 C 337.48 452.05 344.46 451.71 351.32 451.53 C 352.17 454.86 352.90 458.14 353.57 461.55 C 347.03 463.43 340.17 462.48 333.54 461.66 C 333.34 462.36 332.94 463.76 332.74 464.46 C 339.12 466.32 346.35 467.02 352.64 464.61 C 359.44 461.29 355.58 450.07 349.00 448.98 C 342.36 448.43 335.57 449.43 329.73 452.70 M 336.92 455.78 C 338.31 457.40 339.59 459.19 341.38 460.42 C 343.73 460.33 346.14 460.07 348.51 459.83 C 346.84 459.29 343.50 458.21 341.83 457.66 C 344.05 456.78 346.27 455.89 348.49 454.98 C 344.62 454.92 340.73 455.08 336.92 455.78 M 440.78 458.10 C 440.40 458.69 439.65 459.87 439.27 460.46 C 440.92 461.86 442.69 463.19 444.04 464.91 C 446.13 468.72 444.20 473.67 445.24 477.76 C 440.12 476.97 435.42 474.64 431.96 470.77 C 432.10 467.38 434.05 464.49 435.61 461.60 C 434.91 461.39 433.52 460.97 432.82 460.76 C 431.25 464.13 427.60 468.12 430.06 471.89 C 433.30 476.47 438.53 480.94 444.62 479.79 C 447.57 478.05 449.22 474.48 448.15 470.98 C 449.71 465.16 444.30 461.64 440.78 458.10 M 388.67 466.52 C 386.31 469.00 384.05 472.14 384.08 475.70 C 388.89 480.74 395.54 483.68 402.62 481.78 C 406.96 479.73 405.05 473.50 402.37 470.66 C 399.35 465.76 393.90 465.16 388.67 466.52 M 435.43 468.93 C 435.96 469.88 437.03 471.79 437.57 472.74 C 439.28 471.45 440.95 470.09 442.58 468.69 C 440.19 468.62 437.80 468.70 435.43 468.93 M 167.74 477.67 C 169.51 480.61 172.70 481.32 175.63 479.60 C 186.74 473.33 202.87 477.90 208.80 489.18 C 209.59 495.34 207.90 502.05 204.29 507.08 C 200.34 509.11 197.01 511.99 195.30 516.15 C 184.82 515.48 174.94 511.88 164.76 509.63 C 164.25 514.42 165.76 519.93 163.22 524.22 C 158.03 528.69 150.28 529.07 143.82 528.39 C 132.47 528.94 127.85 512.40 135.15 505.17 C 142.95 497.40 151.90 490.89 161.03 484.79 C 159.15 482.97 156.58 481.09 154.06 483.04 C 146.03 488.07 138.88 494.52 132.18 501.19 C 123.50 508.12 125.83 522.02 132.26 529.79 C 136.55 532.59 141.77 533.24 146.67 534.47 C 150.41 551.86 151.74 569.70 150.71 587.47 C 142.70 588.82 134.70 590.30 126.86 592.48 C 128.81 594.40 130.47 597.31 134.05 595.82 C 142.21 596.01 150.24 594.53 158.29 593.43 C 159.04 589.61 160.51 585.92 160.77 582.01 C 161.46 565.66 160.59 549.29 161.55 532.96 C 166.32 528.59 171.08 523.46 170.79 516.49 C 177.79 518.61 184.90 520.42 192.11 521.70 C 198.84 535.47 193.93 551.13 195.68 565.81 C 209.68 560.86 222.80 552.79 232.72 541.66 C 232.66 539.90 232.79 535.98 230.24 538.34 C 222.13 543.88 215.14 551.06 206.20 555.45 C 207.05 539.29 202.38 521.46 210.59 506.63 C 214.12 499.10 216.66 488.48 210.29 481.76 C 206.04 475.54 198.04 473.77 191.36 471.56 C 182.78 469.28 174.84 473.55 167.74 477.67 M 419.64 471.45 C 419.45 475.44 420.44 479.35 421.95 483.02 C 425.47 491.66 427.73 500.75 429.34 509.93 C 425.51 509.95 417.83 510.00 413.99 510.02 C 413.70 501.08 415.41 491.97 413.63 483.15 C 408.70 492.23 411.70 503.02 411.26 512.83 C 418.17 512.97 425.07 512.80 431.99 512.68 C 431.23 498.19 426.47 484.15 419.64 471.45 M 267.74 475.85 C 259.72 478.58 252.73 487.25 256.01 495.99 C 261.90 506.26 273.06 512.62 284.49 514.77 C 306.36 519.62 328.78 524.62 351.28 521.17 C 357.36 519.79 362.06 515.37 366.87 511.72 C 365.06 506.59 361.83 501.96 357.54 498.61 C 353.30 495.99 348.41 494.55 344.36 491.60 C 341.26 489.31 338.56 486.45 335.03 484.77 C 337.79 492.88 346.34 496.07 353.43 499.53 C 358.68 501.74 361.81 506.87 364.10 511.86 C 357.91 515.29 351.55 519.80 344.03 519.06 C 324.39 520.49 305.17 515.84 286.08 512.06 C 275.20 510.06 263.47 505.20 258.34 494.69 C 257.92 490.91 258.52 486.76 260.53 483.46 C 264.87 479.12 270.85 476.72 277.01 477.87 C 290.99 476.59 303.06 485.89 316.98 484.84 C 319.64 484.83 324.95 484.81 327.60 484.80 C 327.60 484.24 327.61 483.12 327.62 482.56 C 318.41 481.70 308.68 482.74 299.98 479.05 C 289.80 474.95 278.54 473.60 267.74 475.85 M 267.69 495.49 C 276.43 500.42 285.79 504.12 295.04 507.97 C 306.63 511.95 319.65 516.81 331.68 511.68 C 337.18 509.00 334.16 502.65 332.75 498.22 C 331.78 501.74 331.56 505.40 330.66 508.94 C 323.53 512.62 315.37 510.36 308.01 508.91 C 296.42 506.68 286.03 500.97 275.12 496.78 C 275.20 494.92 275.29 493.06 275.36 491.20 C 272.80 492.63 270.25 494.07 267.69 495.49 M 47.10 497.73 C 49.90 498.19 52.76 498.07 55.52 497.33 C 68.16 494.58 82.07 492.88 94.00 498.99 C 96.55 500.24 97.11 503.38 97.16 505.96 C 97.21 512.58 97.26 519.32 95.73 525.83 C 94.29 531.38 89.45 535.00 84.78 537.77 C 74.16 538.25 64.59 532.79 55.75 527.58 C 51.61 532.24 48.02 537.32 44.26 542.28 C 40.28 548.35 34.47 553.42 26.70 552.90 C 24.57 546.87 23.01 540.26 24.92 533.96 C 27.03 522.36 34.65 513.11 39.97 502.94 C 41.51 500.69 41.38 497.97 41.17 495.41 C 32.51 511.82 18.52 527.72 21.47 547.53 C 23.72 553.77 30.60 555.51 36.61 555.74 C 40.74 575.50 45.92 595.20 53.91 613.78 C 47.21 617.09 40.19 620.08 34.78 625.42 C 42.77 622.71 50.25 618.81 58.08 615.71 C 55.37 609.70 52.16 603.87 50.49 597.45 C 46.28 582.52 41.53 567.73 38.39 552.52 C 44.87 545.78 50.50 538.30 56.05 530.79 C 64.77 536.28 74.42 540.40 84.73 541.59 C 86.45 558.04 92.11 573.65 95.27 589.82 C 88.94 590.96 82.57 591.95 76.37 593.72 C 83.59 594.84 90.85 593.73 98.00 592.65 C 96.35 574.43 88.56 557.45 87.22 539.17 C 91.15 535.48 96.64 532.76 98.37 527.36 C 100.90 519.03 100.33 510.13 99.39 501.62 C 97.99 494.93 89.65 494.06 84.36 492.55 C 71.81 490.95 58.60 492.18 47.10 497.73 Z" />
<path fill="#eec39a" opacity="1.00" d=" M 388.42 423.48 C 396.41 418.90 406.75 420.14 413.46 426.43 C 407.80 425.83 402.03 424.92 396.38 426.01 C 402.42 429.11 408.85 431.56 414.35 435.63 C 407.23 433.74 399.93 431.89 392.53 432.84 C 399.55 436.47 406.30 440.84 411.28 447.08 C 401.14 443.46 391.77 438.00 381.65 434.31 C 383.57 430.54 385.18 426.31 388.42 423.48 Z" />
<path fill="#eec39a" opacity="1.00" d=" M 365.64 436.56 C 370.21 433.64 374.88 430.88 379.72 428.43 C 378.08 438.54 378.71 449.42 373.21 458.44 C 372.79 450.80 371.22 442.87 373.26 435.32 C 370.71 435.67 368.18 436.13 365.64 436.56 Z" />
<path fill="#eec39a" opacity="1.00" d=" M 387.06 471.93 C 390.20 470.91 393.32 469.24 396.70 469.38 C 401.23 470.34 401.69 476.14 403.00 479.55 C 397.46 478.76 391.75 478.24 386.89 475.26 C 386.93 474.43 387.02 472.76 387.06 471.93 M 391.42 474.45 C 391.42 474.97 391.42 476.03 391.42 476.55 C 392.96 476.55 396.04 476.55 397.58 476.55 C 397.58 476.03 397.58 474.97 397.58 474.45 C 396.04 474.45 392.96 474.45 391.42 474.45 Z" />
<path fill="#eec39a" opacity="1.00" d=" M 426.91 578.05 C 442.35 574.51 458.19 573.53 474.00 573.88 C 498.97 574.30 523.97 573.29 548.93 574.53 C 597.75 580.00 647.00 574.90 695.95 577.72 C 714.64 580.07 733.41 581.72 752.10 584.09 C 777.04 589.11 801.36 596.74 826.00 602.99 C 840.03 606.50 853.88 610.73 867.81 614.63 C 883.71 621.02 898.50 629.77 913.93 637.18 C 931.46 648.00 947.06 661.76 964.84 672.24 C 976.07 680.51 987.61 688.28 999.39 695.74 C 1007.66 702.53 1016.08 709.19 1024.00 716.41 L 1024.00 768.00 L 53.28 768.00 C 59.95 760.45 65.82 752.17 73.53 745.58 C 82.91 737.65 91.77 729.13 100.02 720.03 C 105.40 713.73 112.12 708.83 118.23 703.29 C 128.05 696.73 138.61 691.34 149.04 685.83 C 155.82 681.91 162.27 677.33 169.64 674.51 C 179.13 670.70 186.80 663.78 195.36 658.38 C 204.15 652.57 214.40 649.59 223.51 644.38 C 234.47 638.00 245.92 632.42 256.07 624.75 C 265.80 616.97 277.76 612.95 289.11 608.23 C 299.42 603.95 310.69 602.51 320.75 597.52 C 341.14 587.80 364.17 586.69 386.28 584.83 C 399.84 582.70 413.37 580.33 426.91 578.05 M 626.41 615.02 C 608.07 621.48 588.54 617.68 569.63 619.84 C 551.66 622.85 533.48 624.70 515.68 628.70 C 503.72 631.43 491.35 631.96 479.51 635.24 C 467.98 638.61 455.49 637.47 444.33 642.31 C 436.26 646.40 428.92 651.73 421.13 656.29 C 414.25 660.57 409.31 667.26 406.90 674.95 C 405.39 682.85 395.47 687.64 398.45 696.57 C 399.39 704.41 408.06 707.41 413.65 711.46 C 418.83 714.42 419.70 721.08 424.31 724.68 C 431.03 730.67 441.02 725.10 448.39 729.53 C 459.90 735.90 471.21 743.55 484.52 745.55 C 498.30 747.70 512.05 750.39 526.04 750.81 C 545.55 751.45 564.66 755.77 584.03 757.73 C 601.35 758.08 618.67 758.85 636.00 759.09 C 659.88 759.69 683.44 755.30 707.04 752.33 C 727.01 751.30 747.55 753.72 766.98 747.77 C 795.90 741.45 824.06 732.25 852.59 724.46 C 863.55 719.97 875.19 716.18 884.25 708.24 C 889.88 702.39 895.06 694.57 893.92 686.04 C 894.10 678.00 889.04 671.44 885.06 664.95 C 882.64 660.45 878.49 657.31 874.11 654.89 C 865.48 650.23 859.36 642.27 851.60 636.44 C 842.49 629.44 831.67 623.69 819.96 623.20 C 805.19 622.41 790.76 618.72 775.97 618.16 C 745.21 617.34 714.41 618.97 683.67 617.33 C 664.67 615.58 645.48 611.86 626.41 615.02 Z" />
</g>
<g id="#76428aff">
<path fill="#76428a" opacity="1.00" d=" M 30.15 55.09 C 35.66 46.99 45.00 41.05 55.01 41.20 C 67.50 40.62 80.26 40.40 92.47 43.59 C 96.95 46.84 99.10 52.56 98.89 58.00 C 99.21 67.28 99.71 76.72 97.74 85.87 C 96.19 94.11 92.96 101.91 91.51 110.18 C 89.68 125.43 93.54 140.91 100.82 154.30 C 100.14 154.50 98.78 154.90 98.09 155.10 C 90.00 140.24 86.57 122.81 89.10 106.03 C 92.80 94.35 96.36 82.43 96.09 70.02 C 95.56 62.75 97.84 54.14 93.21 47.77 C 89.32 44.20 83.18 45.51 78.44 44.42 C 65.55 44.31 51.21 41.03 39.71 48.70 C 33.01 52.62 30.35 60.14 28.05 67.09 C 24.45 79.02 24.43 91.65 24.13 104.01 C 24.47 108.66 23.69 114.29 26.77 118.23 C 30.98 121.87 35.86 124.66 40.76 127.27 C 50.15 132.16 61.21 130.65 71.39 131.43 C 68.82 139.69 69.14 148.43 67.44 156.85 C 64.25 149.76 65.63 141.77 66.20 134.29 C 59.07 133.82 51.66 134.75 44.86 132.04 C 38.45 129.57 32.61 125.83 26.90 122.07 C 24.88 120.73 23.13 118.80 22.62 116.37 C 20.22 105.75 21.22 94.74 21.82 83.98 C 22.31 73.89 25.11 63.85 30.15 55.09 Z" />
<path fill="#76428a" opacity="1.00" d=" M 804.11 44.90 C 815.07 42.11 824.08 51.21 827.15 60.87 C 828.89 71.06 828.24 81.69 825.52 91.67 C 822.21 91.03 819.15 90.45 815.98 89.53 C 815.83 80.35 816.17 71.13 815.10 62.00 C 815.86 62.01 817.37 62.03 818.13 62.04 C 818.83 70.75 818.81 79.55 820.27 88.18 C 821.50 87.70 822.75 87.22 824.01 86.74 C 824.16 76.30 827.66 64.49 820.46 55.57 C 817.44 50.22 811.76 47.88 805.90 47.37 C 805.95 57.74 806.31 68.18 808.56 78.34 C 809.68 72.95 810.56 67.52 811.24 62.07 C 811.99 62.05 813.50 62.01 814.25 61.99 C 813.85 71.10 812.40 80.11 811.31 89.15 C 808.15 87.31 805.11 84.65 805.57 80.42 C 803.81 68.79 801.47 56.43 804.11 44.90 Z" />
<path fill="#76428a" opacity="1.00" d=" M 671.67 47.15 C 672.46 45.95 674.57 47.23 673.71 48.47 C 672.92 49.62 670.84 48.35 671.67 47.15 Z" />
<path fill="#76428a" opacity="1.00" d=" M 169.42 50.51 C 181.56 49.15 193.69 51.72 205.48 54.36 C 219.42 57.09 227.72 69.95 232.73 82.19 C 240.66 97.78 241.71 115.64 243.32 132.73 C 249.22 132.24 254.38 129.07 259.74 126.82 C 260.10 127.36 260.80 128.44 261.15 128.97 C 257.06 131.10 252.96 133.18 248.83 135.20 C 253.81 143.14 257.48 151.81 260.26 160.73 C 259.70 161.08 258.58 161.77 258.01 162.11 C 254.56 153.44 251.84 144.31 246.33 136.65 C 248.58 144.65 250.35 152.79 251.52 161.01 C 250.77 160.89 249.27 160.63 248.53 160.50 C 247.17 152.77 246.34 144.84 243.47 137.48 C 242.77 145.32 243.42 153.15 244.90 160.85 C 244.33 161.19 243.17 161.87 242.60 162.21 C 240.67 153.74 240.23 145.05 239.21 136.45 C 237.04 143.99 237.79 151.97 236.53 159.66 C 235.55 153.96 234.09 148.23 234.63 142.41 C 236.15 136.20 240.77 130.77 239.84 124.01 C 238.70 104.49 232.86 85.38 222.69 68.66 C 221.19 83.48 217.11 98.01 217.17 112.98 C 216.87 122.85 217.37 132.76 216.48 142.61 C 215.81 146.86 210.82 147.66 207.33 148.27 C 196.66 148.88 185.83 148.60 175.31 146.60 C 171.13 145.89 169.36 141.64 167.36 138.46 C 162.22 129.90 159.83 119.88 159.32 109.97 C 158.68 95.44 156.25 81.09 154.54 66.67 C 147.66 82.47 147.23 100.07 145.96 116.99 C 145.71 128.21 143.47 140.16 148.58 150.69 C 151.36 156.32 150.90 163.25 146.03 167.35 C 146.11 160.34 148.36 152.77 144.49 146.42 C 141.82 154.66 139.71 163.09 138.43 171.67 C 137.36 171.64 136.29 171.61 135.22 171.57 C 136.37 164.49 138.32 157.57 139.67 150.53 C 135.24 156.81 133.15 164.40 128.70 170.68 C 128.96 164.68 131.90 159.27 133.75 153.68 C 130.20 157.76 127.02 162.17 124.59 167.02 C 123.65 166.64 122.71 166.27 121.78 165.89 C 125.53 158.75 130.47 152.19 136.90 147.26 C 132.97 145.68 129.04 144.08 125.30 142.07 C 131.00 140.65 136.65 142.75 141.86 144.88 C 143.39 115.60 141.02 84.02 155.81 57.50 C 159.18 76.40 161.05 95.53 162.58 114.65 C 163.73 124.77 167.08 135.24 174.17 142.76 C 186.82 145.88 200.34 146.08 213.23 144.04 C 214.87 126.18 212.29 108.00 216.33 90.37 C 217.60 82.19 220.02 73.72 217.90 65.46 C 217.33 62.41 214.59 60.36 211.87 59.26 C 202.00 56.26 191.77 54.75 181.55 53.56 C 177.06 53.51 172.25 52.15 167.93 53.95 C 164.05 55.48 160.64 58.33 156.32 58.57 C 160.23 55.31 164.10 51.14 169.42 50.51 Z" />
<path fill="#76428a" opacity="1.00" d=" M 310.31 56.29 C 318.52 49.58 329.78 50.65 339.69 51.32 C 348.57 52.78 357.84 53.91 365.91 58.16 C 371.23 60.87 372.04 67.72 371.99 73.00 C 371.15 77.41 370.50 82.70 366.75 85.71 C 364.01 87.79 360.60 88.61 357.40 89.68 C 353.72 113.98 351.11 139.44 359.07 163.18 C 350.33 167.22 341.13 170.19 331.90 172.89 C 329.72 173.62 327.38 173.46 325.32 172.47 C 328.71 170.71 332.41 169.66 336.04 168.48 C 332.44 168.04 328.86 167.56 325.36 166.58 C 333.35 165.05 341.52 164.45 349.43 162.53 C 342.65 162.26 335.87 162.16 329.12 162.87 C 328.79 162.34 328.14 161.27 327.81 160.74 C 336.83 159.35 345.96 159.11 355.07 158.83 C 347.98 136.49 351.16 112.71 354.11 89.93 C 348.08 89.81 343.20 86.44 338.99 82.53 C 334.96 85.60 330.44 87.90 325.37 88.70 C 324.83 99.15 323.15 109.52 323.15 120.00 C 322.96 131.72 325.12 143.28 326.10 154.93 C 319.08 157.65 312.09 160.57 305.77 164.73 C 301.17 167.16 296.92 171.13 291.44 171.29 C 294.14 168.66 297.26 166.55 300.36 164.43 C 296.36 165.51 292.37 166.63 288.37 167.70 C 288.60 166.56 288.83 165.43 289.07 164.30 C 298.25 161.84 307.46 159.42 316.37 156.10 C 306.00 156.41 295.43 160.89 285.08 158.43 C 297.50 155.47 310.23 153.26 322.99 152.37 C 319.44 131.00 320.01 109.36 321.95 87.87 C 316.22 86.04 312.31 80.99 310.47 75.43 C 308.28 68.40 305.97 60.64 308.22 53.32 C 310.82 62.24 311.17 72.01 315.76 80.26 C 318.36 85.32 325.19 84.69 329.94 84.94 C 334.01 83.23 337.16 79.85 340.41 76.92 C 342.13 80.16 343.44 84.70 347.61 85.44 C 353.57 86.02 361.88 87.78 366.28 82.28 C 369.62 75.86 371.03 65.55 364.63 60.43 C 357.39 56.78 349.01 56.20 341.15 54.74 C 330.82 53.03 320.57 55.44 310.31 56.29 Z" />
<path fill="#76428a" opacity="1.00" d=" M 663.98 51.00 C 664.72 51.00 666.21 51.00 666.95 51.00 C 667.14 64.29 667.16 77.59 667.63 90.88 C 667.97 95.15 670.73 98.65 672.13 102.59 C 674.21 107.76 674.25 113.48 673.89 118.96 C 672.76 126.32 667.99 132.31 664.67 138.76 C 663.84 138.78 662.18 138.82 661.35 138.84 C 663.85 130.23 671.34 123.45 670.90 113.99 C 671.14 104.42 663.46 96.71 664.29 87.00 C 664.22 75.00 664.08 63.00 663.98 51.00 Z" />
<path fill="#76428a" opacity="1.00" d=" M 650.88 53.00 C 651.64 53.00 653.16 53.00 653.92 53.00 C 654.10 65.98 652.65 79.66 658.36 91.81 C 659.48 95.23 662.27 98.28 662.11 102.06 C 661.56 114.91 662.15 128.20 656.03 139.95 C 655.15 139.93 653.40 139.89 652.52 139.87 C 654.54 133.65 657.77 127.70 657.79 120.98 C 657.92 112.95 659.79 104.36 656.10 96.79 C 650.48 82.90 650.81 67.70 650.88 53.00 Z" />
<path fill="#76428a" opacity="1.00" d=" M 917.02 54.58 C 926.18 55.11 935.55 56.12 943.92 60.18 C 952.45 66.77 953.55 78.74 951.64 88.60 C 946.13 93.68 939.27 97.12 932.77 100.74 C 920.83 105.41 908.81 99.83 899.81 92.21 C 895.90 95.28 892.79 100.74 886.97 99.97 C 872.60 100.60 857.96 95.21 847.15 85.74 C 847.02 76.16 846.99 66.58 846.99 57.01 C 847.71 57.01 849.16 57.00 849.88 56.99 C 850.09 65.45 849.33 74.11 850.74 82.44 C 856.57 90.96 867.47 93.41 876.84 96.02 C 881.89 96.53 888.45 99.12 892.32 94.33 C 897.86 90.67 897.88 83.59 900.06 78.05 L 903.77 75.65 C 904.32 80.02 902.49 84.64 903.31 88.97 C 908.97 96.60 919.59 100.15 928.79 98.66 C 934.42 96.41 939.53 92.92 944.46 89.41 C 953.29 83.09 948.89 69.44 941.71 63.43 C 934.06 59.53 925.53 58.15 917.03 57.70 C 917.03 56.92 917.02 55.36 917.02 54.58 Z" />
<path fill="#76428a" opacity="1.00" d=" M 545.77 63.84 C 557.67 59.71 571.18 56.97 583.26 61.84 C 589.12 63.86 595.28 64.86 601.07 67.08 C 615.19 76.28 621.75 93.40 624.89 109.27 C 629.20 125.68 627.71 142.80 629.02 159.56 C 639.65 154.70 651.42 153.67 662.82 151.86 C 663.15 152.41 663.82 153.51 664.15 154.06 C 658.89 155.08 653.65 156.18 648.39 157.15 C 649.82 160.09 651.32 163.02 652.64 166.04 C 649.50 163.93 647.19 160.90 644.74 158.07 C 642.02 158.40 639.51 158.79 636.84 159.15 C 638.56 160.17 640.29 161.19 642.02 162.20 C 641.85 162.84 641.51 164.12 641.34 164.76 C 638.45 163.48 635.58 162.20 632.72 160.89 C 633.11 163.65 633.34 166.43 633.31 169.21 C 629.22 163.05 622.19 158.59 621.31 150.69 C 618.84 139.84 614.71 129.46 612.53 118.55 C 610.91 109.72 608.39 101.08 605.47 92.61 C 604.44 109.66 606.83 127.39 600.94 143.79 C 598.74 150.42 592.21 154.86 585.36 155.41 C 573.73 156.56 561.72 156.72 550.37 153.57 C 548.48 153.11 546.86 151.75 546.24 149.89 C 541.59 135.65 539.70 120.69 538.65 105.79 C 532.82 116.36 527.26 127.64 527.05 139.98 C 526.40 147.23 528.89 154.15 529.59 161.29 C 524.11 159.45 518.76 157.23 513.83 154.21 C 514.12 143.47 512.95 132.47 516.05 122.02 C 518.17 115.31 519.56 108.30 522.93 102.08 C 526.49 95.32 530.03 88.53 534.03 82.02 C 537.22 77.23 538.21 71.47 540.58 66.30 C 543.25 73.62 540.99 81.47 541.31 89.01 C 540.68 109.67 542.94 130.44 549.09 150.21 C 562.72 153.35 577.38 154.79 591.00 150.99 C 600.15 147.97 599.41 135.88 601.43 128.44 C 602.50 109.11 602.96 89.31 598.63 70.31 C 582.68 63.20 562.81 57.88 546.69 67.67 C 546.37 66.39 546.06 65.12 545.77 63.84 M 601.96 70.61 C 602.89 78.29 603.75 86.23 607.61 93.10 C 610.98 99.10 612.87 105.72 614.43 112.38 C 617.28 127.24 622.25 141.55 625.85 156.22 C 625.24 144.97 625.20 133.68 624.32 122.45 C 621.56 103.76 617.13 83.40 601.96 70.61 M 526.27 101.45 C 522.65 107.82 521.24 115.09 519.05 122.02 C 515.96 132.27 517.12 143.06 517.01 153.59 C 519.95 154.39 522.86 155.30 525.79 156.16 C 523.83 147.95 523.16 139.29 525.13 131.00 C 526.99 121.33 532.35 112.93 536.01 103.93 C 539.25 96.62 537.59 88.37 537.92 80.65 C 533.87 87.49 530.09 94.48 526.27 101.45 Z" />
<path fill="#76428a" opacity="1.00" d=" M 601.08 61.39 C 602.15 63.21 602.04 65.22 601.07 67.08 C 601.01 65.18 601.00 63.28 601.08 61.39 Z" />
<path fill="#76428a" opacity="1.00" d=" M 739.03 61.52 C 745.07 62.54 751.44 62.75 757.18 65.09 C 759.53 71.40 753.25 73.18 749.10 74.91 C 750.61 75.27 752.11 75.64 753.64 76.02 C 752.24 78.72 754.71 85.38 750.16 86.25 C 743.40 88.00 737.20 84.44 731.14 82.08 C 728.14 89.53 724.52 96.71 721.62 104.20 C 716.28 103.30 709.68 99.52 711.01 92.99 C 710.66 86.07 716.00 80.95 719.45 75.54 C 722.26 71.72 724.51 67.49 727.76 64.01 C 727.55 76.34 715.37 83.76 712.98 95.52 C 715.17 97.04 717.36 98.57 719.57 100.09 C 722.46 92.47 726.22 85.23 729.33 77.72 C 736.13 79.84 742.76 84.56 750.20 82.74 C 750.05 81.33 749.91 79.91 749.77 78.50 C 745.63 76.87 741.55 75.07 737.51 73.23 C 743.40 72.16 749.36 70.90 754.83 68.38 C 749.67 66.79 744.38 65.66 739.10 64.60 C 739.09 63.83 739.05 62.29 739.03 61.52 Z" />
<path fill="#76428a" opacity="1.00" d=" M 30.32 71.97 C 38.19 67.42 49.14 61.77 57.64 67.33 C 48.67 69.33 39.50 71.34 30.32 71.97 Z" />
<path fill="#76428a" opacity="1.00" d=" M 65.16 67.47 C 73.59 66.07 82.54 64.85 90.84 67.53 C 82.41 68.93 73.46 70.15 65.16 67.47 Z" />
<path fill="#76428a" opacity="1.00" d=" M 66.10 80.86 C 65.08 73.44 72.23 68.98 78.67 70.98 C 75.51 72.62 72.24 74.04 69.00 75.52 C 70.28 78.85 72.31 84.05 76.77 83.78 C 79.08 82.39 81.15 80.65 83.32 79.07 C 81.89 77.00 80.42 74.96 79.10 72.82 C 81.50 73.64 84.07 74.40 85.91 76.26 C 86.58 81.06 81.59 84.72 77.84 86.87 C 73.33 86.81 69.98 82.78 66.10 80.86 Z" />
<path fill="#76428a" opacity="1.00" d=" M 39.19 71.09 C 43.45 71.99 49.44 71.53 52.25 75.75 C 53.92 78.69 53.61 82.27 54.12 85.55 C 50.77 85.72 47.43 85.90 44.09 86.06 C 43.38 84.71 42.67 83.37 41.97 82.03 C 44.95 82.36 47.94 82.66 50.93 82.97 C 50.98 81.87 51.04 80.77 51.09 79.67 C 48.42 80.22 45.71 80.50 42.99 80.68 C 43.38 79.53 43.77 78.37 44.16 77.22 C 46.28 77.15 48.40 77.08 50.52 76.94 C 48.41 76.54 46.27 76.27 44.11 76.31 C 42.33 77.46 40.78 78.92 39.13 80.25 C 38.73 77.21 38.75 74.13 39.19 71.09 Z" />
<path fill="#76428a" opacity="1.00" d=" M 567.61 93.46 C 568.04 86.04 566.95 78.46 568.58 71.14 C 571.31 77.81 570.66 85.24 571.21 92.29 C 578.09 95.35 585.59 96.42 592.70 98.80 C 584.94 101.00 577.83 96.71 570.31 95.85 C 562.47 96.29 554.79 98.18 547.19 100.07 C 546.85 99.50 546.15 98.35 545.80 97.77 C 552.84 95.37 560.25 94.41 567.61 93.46 Z" />
<path fill="#76428a" opacity="1.00" d=" M 73.23 75.03 C 76.45 74.04 79.96 78.89 76.77 80.97 C 73.55 81.96 70.04 77.11 73.23 75.03 Z" />
<path fill="#76428a" opacity="1.00" d=" M 167.30 81.57 C 168.68 81.68 170.01 82.06 171.35 82.37 C 171.10 83.20 170.61 84.86 170.36 85.69 C 168.75 85.53 167.13 85.40 165.51 85.27 C 166.10 84.03 166.63 82.76 167.30 81.57 Z" />
<path fill="#76428a" opacity="1.00" d=" M 206.37 81.44 C 206.93 81.44 208.07 81.44 208.63 81.44 C 208.63 82.48 208.63 83.52 208.63 84.56 C 208.07 84.56 206.93 84.56 206.37 84.56 C 206.36 83.52 206.36 82.48 206.37 81.44 Z" />
<path fill="#76428a" opacity="1.00" d=" M 46.23 105.33 C 50.36 98.08 56.03 91.85 61.77 85.86 C 59.86 92.89 54.08 97.80 50.36 103.86 C 55.69 103.78 61.04 103.88 66.36 103.46 C 65.83 100.07 65.55 96.62 65.98 93.20 C 67.79 97.14 69.07 101.29 70.54 105.37 C 62.56 107.01 54.16 107.50 46.23 105.33 Z" />
<path fill="#76428a" opacity="1.00" d=" M 470.64 87.13 C 475.08 86.74 479.53 86.34 483.98 85.94 C 483.98 86.68 483.97 88.15 483.97 88.89 C 481.20 89.26 475.68 89.99 472.92 90.36 C 473.60 95.99 476.41 100.97 480.27 105.00 C 482.02 101.85 483.44 98.54 484.63 95.15 C 484.96 95.18 485.61 95.24 485.94 95.27 C 487.17 98.19 487.96 101.60 490.29 103.94 C 496.82 106.30 500.06 98.84 502.37 94.39 C 498.06 92.26 493.83 89.99 489.29 88.40 C 489.25 87.58 489.17 85.94 489.14 85.12 C 496.36 86.65 504.80 89.78 505.84 98.21 C 503.58 100.92 500.59 103.14 498.93 106.30 C 499.04 115.85 500.01 125.39 500.16 134.96 C 504.10 134.98 508.04 135.01 512.00 135.04 C 511.99 135.73 511.98 137.10 511.98 137.79 C 507.01 138.09 502.08 138.33 497.14 138.82 C 496.95 128.93 497.29 119.00 496.08 109.16 C 492.45 107.89 488.86 106.51 485.44 104.76 C 484.16 105.74 482.86 106.69 481.55 107.61 C 480.83 117.73 479.49 127.79 478.79 137.92 C 474.20 137.55 469.62 137.19 465.03 136.87 C 465.02 136.17 465.01 134.77 465.00 134.07 C 467.67 134.03 473.03 133.96 475.70 133.92 C 476.01 125.93 477.82 118.05 477.73 110.05 C 476.72 105.79 472.96 102.75 471.87 98.50 C 471.36 94.72 470.95 90.93 470.64 87.13 Z" />
<path fill="#76428a" opacity="1.00" d=" M 770.76 94.02 C 771.47 94.03 772.90 94.05 773.62 94.06 C 774.33 105.48 778.64 116.99 775.46 128.40 C 775.16 131.31 770.38 129.96 769.17 131.16 C 755.14 133.25 740.79 133.91 727.16 138.09 C 721.86 139.65 716.25 139.76 710.82 140.44 C 712.83 141.68 714.86 142.91 716.91 144.14 C 716.94 144.85 716.99 146.28 717.02 146.99 C 715.26 147.62 713.49 148.24 711.74 148.86 C 715.09 149.87 718.46 150.66 721.88 151.43 C 721.91 152.03 721.96 153.25 721.99 153.85 C 718.89 154.29 715.91 154.78 712.84 155.21 C 713.31 156.38 713.78 157.55 714.27 158.72 C 720.74 157.25 726.54 153.92 732.80 151.82 C 749.69 146.73 766.95 142.85 784.48 140.70 C 789.71 140.30 794.97 139.03 799.30 135.95 C 795.00 132.52 790.94 128.80 787.05 124.93 C 783.73 121.97 785.47 116.85 785.20 113.06 C 785.34 107.58 786.94 102.35 788.25 97.09 C 789.52 97.07 790.80 97.05 792.09 97.02 C 790.11 104.59 788.21 112.19 787.34 119.98 C 793.23 125.60 800.23 130.46 804.17 137.80 C 794.76 142.87 783.92 143.57 773.61 145.52 C 761.25 147.55 749.16 150.85 737.14 154.24 C 728.32 156.84 719.75 163.25 710.15 160.00 C 708.62 152.70 709.38 145.11 707.21 137.92 C 718.74 137.61 729.48 133.14 740.85 131.82 C 750.50 130.26 760.33 129.86 769.88 127.69 C 773.15 127.22 772.79 122.55 773.35 120.40 C 773.80 111.52 771.03 102.88 770.76 94.02 Z" />
<path fill="#76428a" opacity="1.00" d=" M 393.83 98.90 C 399.42 96.28 406.00 96.88 411.99 95.85 C 411.96 97.05 411.93 98.26 411.91 99.47 C 407.23 99.69 402.57 100.29 397.93 100.91 C 398.21 111.06 397.24 121.43 399.56 131.41 C 401.37 138.52 408.72 141.72 414.71 144.70 C 414.76 145.96 414.82 147.21 414.88 148.47 C 408.22 145.30 399.81 142.43 397.12 134.93 C 394.62 124.41 395.24 113.47 394.73 102.75 C 388.60 111.74 382.86 121.44 381.58 132.47 C 378.68 140.19 386.27 145.03 388.45 151.54 C 385.20 149.55 382.19 147.22 379.15 144.94 C 378.77 147.61 378.26 150.25 377.93 152.94 C 377.08 152.94 375.38 152.94 374.53 152.94 C 375.09 148.94 375.89 144.98 376.89 141.07 C 374.69 143.54 372.38 145.93 369.63 147.79 C 370.41 140.63 377.74 136.83 378.62 129.66 C 380.90 118.29 385.85 107.42 393.83 98.90 Z" />
<path fill="#76428a" opacity="1.00" d=" M 420.03 97.73 C 431.03 99.05 441.18 105.69 446.95 115.12 C 451.68 122.80 450.73 132.38 453.60 140.67 C 456.82 146.30 461.24 151.38 462.65 157.88 C 461.82 157.85 460.16 157.80 459.33 157.78 C 457.21 153.30 454.74 148.98 452.33 144.66 C 452.04 150.13 451.56 155.60 451.68 161.09 C 450.55 160.90 449.42 160.71 448.31 160.52 C 448.44 155.30 448.75 150.10 449.00 144.89 C 445.47 147.49 441.91 150.03 438.29 152.50 C 438.19 151.02 438.09 149.54 438.00 148.07 C 441.78 145.32 445.58 142.56 449.32 139.76 C 448.70 132.75 448.50 125.30 444.95 119.02 C 442.91 115.56 440.50 112.33 437.86 109.33 C 437.29 120.66 437.78 132.66 433.28 143.34 C 430.91 148.78 423.67 147.40 419.05 148.52 C 419.07 147.84 419.10 146.47 419.12 145.78 C 422.89 144.95 428.94 145.24 430.64 140.71 C 433.15 131.46 435.41 121.58 433.83 112.01 C 432.30 105.51 426.11 102.56 420.16 101.40 C 420.11 100.18 420.06 98.96 420.03 97.73 Z" />
<path fill="#76428a" opacity="1.00" d=" M 27.06 109.32 C 29.77 107.39 32.06 104.77 35.12 103.37 C 38.79 103.72 42.15 105.47 45.68 106.39 C 53.54 108.90 61.87 109.01 69.97 110.23 C 74.98 111.17 79.43 113.87 83.96 116.09 C 83.72 122.91 78.40 129.41 71.18 128.84 C 55.19 127.25 36.80 123.48 27.06 109.32 M 34.94 106.11 C 33.49 107.74 32.06 109.39 30.63 111.05 C 39.92 118.66 51.31 123.65 63.28 124.95 C 67.64 125.32 72.49 126.77 76.63 124.61 C 79.06 122.86 79.71 119.70 80.85 117.10 C 74.83 114.42 68.43 112.65 61.82 112.29 C 52.50 112.03 43.68 109.05 34.94 106.11 Z" />
<path fill="#76428a" opacity="1.00" d=" M 42.42 113.63 C 50.28 114.19 58.28 114.23 65.95 116.21 C 68.64 116.14 70.17 118.17 71.77 119.82 C 61.84 118.87 51.03 119.41 42.42 113.63 Z" />
<path fill="#76428a" opacity="1.00" d=" M 171.52 120.09 C 176.90 115.71 184.38 115.49 191.02 115.30 C 195.83 114.55 200.25 116.95 203.43 120.31 C 198.00 119.72 192.66 118.14 187.17 118.33 C 181.93 118.75 176.75 119.70 171.52 120.09 Z" />
<path fill="#76428a" opacity="1.00" d=" M 551.57 122.39 C 556.93 115.68 566.40 116.95 574.01 116.86 C 582.08 116.41 589.69 119.48 597.23 121.86 C 596.90 123.15 596.59 124.45 596.27 125.75 C 583.01 117.38 566.27 119.38 551.57 122.39 Z" />
<path fill="#76428a" opacity="1.00" d=" M 182.32 123.54 C 185.16 122.74 188.02 122.00 190.86 121.19 C 191.97 122.41 193.09 123.62 194.23 124.82 C 193.82 125.55 193.01 127.02 192.61 127.75 C 189.05 126.67 185.57 125.35 182.32 123.54 Z" />
<path fill="#76428a" opacity="1.00" d=" M 568.42 132.66 C 569.15 132.35 570.62 131.74 571.35 131.43 C 573.65 134.24 575.96 137.07 577.95 140.12 C 574.40 140.42 570.86 141.22 567.32 140.71 C 566.22 139.40 565.52 137.84 564.78 136.32 C 568.00 136.81 571.21 137.39 574.46 137.77 C 572.41 136.57 570.30 135.49 568.14 134.52 C 568.21 134.05 568.35 133.13 568.42 132.66 Z" />
<path fill="#76428a" opacity="1.00" d=" M 592.00 240.05 C 593.40 236.73 597.78 236.51 600.53 235.16 C 604.82 243.72 608.01 252.92 609.15 262.46 C 610.25 265.95 609.11 271.83 613.50 273.52 C 623.03 278.05 633.35 280.69 643.00 285.01 C 642.94 286.46 642.89 287.92 642.85 289.37 C 631.92 283.19 618.99 281.29 608.41 274.66 C 605.51 263.12 604.97 250.61 598.98 239.95 C 597.43 240.36 595.89 240.77 594.36 241.19 C 593.72 247.77 599.80 252.08 600.45 258.38 C 600.83 263.07 600.98 267.80 600.92 272.52 C 590.06 274.96 578.84 275.83 568.20 279.14 C 575.92 287.08 588.18 283.06 598.01 284.11 C 597.99 284.77 597.96 286.08 597.95 286.74 C 587.66 287.54 577.50 289.93 568.08 294.17 C 577.39 294.81 586.80 294.65 596.02 293.13 C 595.95 294.27 595.89 295.42 595.83 296.58 C 587.84 299.73 578.91 301.13 572.03 306.55 C 582.03 309.45 592.05 304.74 601.30 301.42 C 611.19 297.81 621.76 296.97 632.02 294.91 C 631.99 295.66 631.93 297.17 631.90 297.93 C 623.22 299.87 614.29 300.86 605.86 303.77 C 595.77 307.05 585.40 311.57 574.57 310.55 C 569.56 310.76 566.96 308.25 569.17 303.24 C 572.39 300.96 576.26 299.82 579.79 298.08 C 573.12 298.08 566.48 297.66 559.97 296.17 C 560.02 295.43 560.11 293.95 560.16 293.21 C 565.31 291.06 570.44 288.77 575.92 287.56 C 573.20 286.57 570.07 286.13 567.85 284.16 C 566.26 281.79 566.15 278.72 565.40 276.06 C 576.40 273.66 587.52 271.81 598.59 269.70 C 597.76 264.37 597.76 258.71 595.15 253.85 C 593.27 249.68 589.73 244.73 592.00 240.05 Z" />
<path fill="#76428a" opacity="1.00" d=" M 684.07 240.30 C 687.93 241.33 692.39 241.69 695.67 244.27 C 698.57 254.14 699.84 264.77 705.26 273.76 C 708.29 278.98 713.27 282.90 715.51 288.62 C 699.84 281.31 696.14 262.62 693.69 247.21 C 691.38 246.16 689.09 245.10 686.81 244.03 C 684.78 258.50 687.84 272.97 686.84 287.44 C 676.57 282.19 666.49 276.09 655.11 273.57 C 654.62 275.78 654.11 277.98 653.60 280.18 C 663.84 285.95 674.56 290.96 685.82 294.39 C 685.89 295.11 686.02 296.56 686.09 297.28 C 671.74 297.71 656.54 297.14 643.66 304.58 C 654.83 307.78 666.47 308.07 678.01 308.17 C 678.02 308.92 678.03 310.42 678.03 311.17 C 667.87 315.38 655.75 315.42 647.03 322.67 C 662.32 325.95 676.08 316.99 689.88 311.87 C 699.12 308.20 709.19 308.01 719.00 307.82 C 718.99 308.53 718.98 309.93 718.98 310.64 C 710.12 311.15 700.98 311.26 692.62 314.58 C 682.43 318.50 672.62 323.64 661.88 325.94 C 655.64 327.06 649.24 326.33 643.07 325.16 C 642.98 323.65 642.89 322.14 642.81 320.64 C 649.35 315.61 657.34 313.47 665.20 311.48 C 656.58 311.01 647.88 309.78 639.88 306.43 C 639.91 304.89 639.95 303.34 639.99 301.81 C 651.12 297.00 663.02 294.26 675.21 294.50 C 666.69 291.08 658.37 287.12 650.68 282.09 C 651.00 278.20 651.48 274.35 651.99 270.49 C 663.68 270.41 673.75 276.80 683.87 281.76 C 682.97 267.98 682.10 254.02 684.07 240.30 Z" />
<path fill="#76428a" opacity="1.00" d=" M 297.86 251.81 C 315.15 245.27 334.09 249.06 352.04 249.00 C 357.02 249.47 363.45 249.54 365.26 255.41 C 382.12 255.02 399.01 254.40 415.87 255.31 C 418.88 255.51 421.80 257.11 423.15 259.88 C 427.78 268.09 427.38 277.98 429.58 286.91 C 432.66 299.31 433.65 312.14 433.70 324.88 C 432.27 335.18 419.69 337.12 411.42 338.48 C 409.52 344.25 414.80 355.58 405.26 356.23 C 405.36 350.49 405.72 344.74 406.03 339.01 C 401.93 343.90 397.94 349.45 391.25 350.91 C 392.23 342.70 399.56 337.76 402.25 330.30 C 395.16 330.38 388.09 330.66 381.02 330.97 L 381.06 326.09 C 390.30 324.79 400.85 327.16 408.79 321.26 C 407.42 316.30 406.48 311.24 405.92 306.13 C 412.15 306.11 411.98 312.30 414.13 316.20 C 418.58 317.53 423.37 315.59 427.92 315.75 C 427.69 309.79 428.38 303.63 426.11 297.95 C 421.66 285.93 424.83 271.49 415.76 261.27 C 400.75 258.47 385.19 260.53 369.99 259.99 C 386.31 269.28 392.99 289.80 389.44 307.57 C 384.94 315.24 379.02 322.73 371.07 327.03 C 359.79 329.21 347.69 328.20 336.88 324.14 C 325.68 320.14 317.23 309.00 316.99 297.03 C 315.95 284.17 319.30 269.28 330.13 261.13 C 333.17 258.40 336.65 256.23 340.12 254.10 C 323.19 252.78 304.16 252.32 289.88 262.88 C 281.57 275.00 280.06 291.34 284.78 305.17 C 286.75 312.08 294.78 313.93 300.67 316.48 C 303.22 310.31 300.01 299.64 308.76 297.68 C 308.86 303.67 307.15 309.65 307.72 315.63 C 313.71 325.45 323.97 332.13 328.96 342.61 C 321.64 342.02 316.47 336.86 311.95 331.71 C 311.26 335.34 310.06 339.17 311.23 342.82 C 312.63 347.53 314.38 352.12 315.38 356.95 C 304.35 356.90 306.34 342.15 304.37 335.00 C 303.99 335.06 303.24 335.19 302.86 335.25 C 300.78 342.18 298.85 349.49 294.60 355.45 C 293.36 356.13 290.87 357.51 289.63 358.19 C 289.62 350.08 294.16 343.22 296.68 335.84 C 296.61 331.71 292.98 328.53 291.47 324.88 C 288.89 317.46 279.64 314.41 279.06 306.02 C 275.70 291.99 275.72 276.37 282.26 263.25 C 285.03 256.90 291.60 253.72 297.86 251.81 M 335.72 264.71 C 326.64 271.10 322.62 282.35 322.10 293.04 C 322.03 305.39 331.16 316.82 343.07 319.94 C 352.07 322.53 364.07 326.08 371.78 318.81 C 376.80 314.50 381.34 309.42 384.48 303.57 C 386.37 292.46 381.89 281.34 375.55 272.42 C 371.99 269.05 367.44 266.99 363.44 264.26 C 360.99 262.15 362.21 258.59 362.05 255.73 C 352.28 253.61 343.22 259.13 335.72 264.71 M 419.98 321.97 C 415.61 324.26 411.61 327.17 407.49 329.87 C 410.11 330.83 412.72 331.78 415.53 332.11 C 420.66 330.90 424.69 327.19 428.96 324.34 C 426.24 322.92 423.16 320.02 419.98 321.97 M 296.36 322.79 C 299.13 326.55 302.59 330.25 307.96 329.67 C 307.45 327.44 307.05 325.12 305.80 323.17 C 302.70 322.47 299.50 322.83 296.36 322.79 Z" />
<path fill="#76428a" opacity="1.00" d=" M 39.38 260.14 C 52.48 256.17 66.35 254.30 80.05 254.97 C 83.10 255.10 85.18 257.84 87.48 259.51 C 91.72 263.88 96.94 267.90 99.09 273.82 C 101.38 283.21 100.69 295.28 91.27 300.73 C 90.89 311.43 90.75 322.21 92.30 332.84 C 93.83 339.36 91.42 345.87 91.73 352.42 C 92.33 362.00 92.97 371.57 93.13 381.17 C 79.30 381.61 65.51 382.63 51.85 384.92 C 52.35 383.58 53.36 380.90 53.86 379.57 C 64.93 376.65 76.48 377.18 87.82 376.67 C 89.02 362.67 84.79 349.08 84.14 335.22 C 85.48 325.05 86.30 314.82 86.10 304.56 C 77.48 305.12 68.52 302.37 63.30 295.25 C 58.99 298.37 53.58 300.80 50.71 305.45 C 47.29 329.34 47.76 353.65 50.23 377.62 C 37.14 377.10 24.90 382.31 11.98 383.17 C 12.52 378.53 16.71 377.28 20.31 376.23 C 28.41 374.07 36.79 373.32 45.12 372.64 C 43.63 359.93 42.11 347.20 41.31 334.43 C 42.24 326.00 43.75 317.64 44.82 309.22 C 39.27 307.91 32.60 305.46 30.60 299.54 C 29.41 288.06 30.02 276.51 29.97 265.00 L 34.94 265.00 C 34.95 274.94 34.59 284.90 35.37 294.83 C 36.79 298.55 40.08 300.96 43.15 303.26 C 50.08 296.51 57.72 290.03 66.94 286.67 C 68.75 292.82 73.51 297.77 79.97 299.05 C 84.71 296.47 90.35 294.11 93.30 289.30 C 94.63 285.16 95.89 279.84 92.95 276.04 C 89.15 270.09 84.15 264.73 78.34 260.71 C 64.42 258.58 50.93 264.24 37.11 265.04 C 37.68 263.82 38.81 261.37 39.38 260.14 Z" />
<path fill="#76428a" opacity="1.00" d=" M 496.01 256.05 C 500.76 255.22 506.99 253.17 510.91 257.08 C 516.62 262.44 523.24 267.56 525.50 275.44 C 528.29 283.86 522.16 292.19 514.92 295.88 C 511.03 298.25 506.35 297.47 502.03 297.52 C 502.02 296.71 501.99 295.08 501.98 294.26 C 511.93 296.87 524.11 288.10 522.50 277.43 C 519.05 268.29 511.02 259.57 501.05 258.17 C 490.44 260.56 477.34 268.77 479.59 281.37 C 482.60 289.54 492.25 290.66 498.72 294.97 C 491.04 296.76 484.01 292.30 478.67 287.33 C 475.39 283.40 475.41 277.53 476.70 272.79 C 479.26 263.87 487.96 259.15 496.01 256.05 Z" />
<path fill="#76428a" opacity="1.00" d=" M 198.62 266.70 C 205.27 263.67 213.88 262.17 220.25 266.56 C 225.03 269.65 231.32 271.59 233.97 277.08 C 239.34 286.73 239.73 298.21 238.84 308.96 C 238.19 312.70 235.67 315.77 234.40 319.29 C 231.53 325.09 229.34 333.27 221.47 334.01 C 223.91 323.01 231.38 313.92 233.75 302.90 C 234.27 294.16 232.29 284.43 226.35 277.71 C 220.49 274.32 214.47 268.79 207.19 270.08 C 199.90 271.54 197.64 279.28 193.57 284.46 C 188.24 293.52 188.40 304.59 189.28 314.71 C 193.29 319.44 201.45 319.93 202.10 327.56 C 195.04 326.25 182.68 323.92 184.09 314.01 C 183.94 304.04 182.62 293.62 186.22 284.07 C 187.46 280.17 190.71 277.44 192.78 274.02 C 194.46 271.40 195.80 268.31 198.62 266.70 Z" />
<path fill="#76428a" opacity="1.00" d=" M 490.81 271.96 C 490.22 267.66 494.52 265.83 497.52 263.98 C 497.66 266.17 497.92 270.53 498.06 272.71 C 495.63 272.58 493.15 272.70 490.81 271.96 Z" />
<path fill="#76428a" opacity="1.00" d=" M 504.13 265.11 C 507.18 266.58 510.61 268.36 511.38 272.01 C 509.45 273.76 506.99 274.69 504.58 275.55 C 504.37 272.05 504.23 268.59 504.13 265.11 Z" />
<path fill="#76428a" opacity="1.00" d=" M 483.23 275.36 C 489.33 277.94 495.00 281.47 501.26 283.71 C 505.52 285.26 510.03 283.24 514.16 282.12 C 513.74 283.86 513.32 285.61 512.92 287.36 C 502.13 289.39 492.09 284.07 483.01 279.01 C 483.07 278.10 483.17 276.27 483.23 275.36 Z" />
<path fill="#76428a" opacity="1.00" d=" M 898.94 277.96 C 911.80 274.14 926.70 278.33 934.96 289.11 C 938.17 292.54 937.22 297.73 938.41 301.96 C 937.78 301.93 936.51 301.87 935.88 301.84 C 934.92 286.02 916.46 277.53 902.48 280.53 C 896.75 282.25 898.36 289.16 897.48 293.73 C 881.64 294.29 865.87 296.39 850.00 296.02 C 836.87 296.30 823.57 295.03 810.59 297.47 C 811.45 296.01 812.33 294.56 813.22 293.11 C 840.28 293.35 867.32 292.96 894.30 290.80 C 895.50 286.57 894.18 280.32 898.94 277.96 Z" />
<path fill="#76428a" opacity="1.00" d=" M 215.15 282.08 C 216.54 282.07 219.33 282.04 220.73 282.03 C 221.71 285.95 221.85 290.01 222.29 294.02 C 219.42 294.39 216.52 294.73 213.66 295.11 C 213.57 290.76 212.01 285.73 215.15 282.08 Z" />
<path fill="#76428a" opacity="1.00" d=" M 197.85 284.93 C 205.49 284.78 203.58 291.21 203.45 296.01 C 200.74 296.36 198.03 296.70 195.33 297.04 C 195.91 292.94 196.70 288.90 197.85 284.93 Z" />
<path fill="#76428a" opacity="1.00" d=" M 205.00 309.31 C 212.20 309.10 219.40 308.47 226.22 306.01 C 225.54 308.99 224.84 312.00 224.07 314.96 C 214.71 314.56 205.34 314.19 195.98 314.63 C 195.81 309.11 201.63 309.53 205.00 309.31 Z" />
<path fill="#76428a" opacity="1.00" d=" M 381.82 424.58 C 388.57 420.03 396.44 416.21 404.90 418.16 C 410.53 421.08 415.45 425.20 420.94 428.38 C 420.22 429.24 419.49 430.10 418.77 430.97 C 415.70 430.49 412.68 430.03 409.64 429.51 C 413.82 432.30 418.04 435.05 422.12 438.02 C 421.93 438.72 421.56 440.12 421.37 440.82 C 415.50 439.30 409.73 437.45 403.89 435.85 C 408.38 440.26 414.36 444.43 415.02 451.26 C 403.75 447.88 393.48 441.98 382.56 437.72 C 381.00 446.49 378.33 455.05 374.41 463.05 C 368.28 459.78 369.10 452.23 368.72 446.31 C 366.88 447.38 365.00 448.39 363.11 449.37 C 363.69 445.97 365.05 442.78 366.59 439.72 C 364.48 440.55 362.38 441.42 360.27 442.26 C 359.86 441.63 359.04 440.36 358.63 439.73 C 365.49 433.43 373.36 428.43 381.82 424.58 M 388.42 423.48 C 385.18 426.31 383.57 430.54 381.65 434.31 C 391.77 438.00 401.14 443.46 411.28 447.08 C 406.30 440.84 399.55 436.47 392.53 432.84 C 399.93 431.89 407.23 433.74 414.35 435.63 C 408.85 431.56 402.42 429.11 396.38 426.01 C 402.03 424.92 407.80 425.83 413.46 426.43 C 406.75 420.14 396.41 418.90 388.42 423.48 M 365.64 436.56 C 368.18 436.13 370.71 435.67 373.26 435.32 C 371.22 442.87 372.79 450.80 373.21 458.44 C 378.71 449.42 378.08 438.54 379.72 428.43 C 374.88 430.88 370.21 433.64 365.64 436.56 Z" />
<path fill="#76428a" opacity="1.00" d=" M 517.39 419.45 C 535.06 417.65 552.85 420.11 570.07 424.05 C 580.89 426.37 590.17 434.61 594.12 444.88 C 596.68 457.91 593.70 471.12 591.02 483.88 C 589.25 492.08 590.91 502.46 582.79 507.79 C 567.73 517.37 548.77 512.15 533.56 505.58 C 525.84 502.52 521.01 494.20 520.44 486.16 C 521.85 479.02 522.83 471.46 526.85 465.22 C 527.89 472.93 523.95 480.23 523.67 487.85 C 524.62 493.52 526.97 500.03 532.88 502.18 C 544.60 507.60 557.79 510.85 570.73 509.64 C 575.69 507.79 582.83 506.88 584.96 501.19 C 586.88 493.55 587.33 485.65 589.03 477.98 C 591.66 467.21 593.12 455.85 591.17 444.86 C 588.07 437.89 582.90 430.84 575.16 428.75 C 558.29 423.76 540.51 421.82 522.97 421.95 C 517.20 420.92 512.15 424.64 509.41 429.33 C 507.10 432.84 504.73 437.76 507.22 441.78 C 512.34 449.08 520.04 453.95 527.00 459.32 C 526.66 460.23 526.34 461.13 526.01 462.04 C 518.56 454.82 508.36 450.12 503.37 440.64 C 502.16 431.31 509.34 423.02 517.39 419.45 Z" />
<path fill="#76428a" opacity="1.00" d=" M 295.66 433.66 C 302.74 432.66 309.75 435.10 316.19 437.87 C 315.99 438.57 315.59 439.97 315.39 440.67 C 308.97 437.92 302.07 436.63 295.19 435.63 C 295.74 438.75 294.81 443.25 298.63 444.35 C 304.96 446.60 311.87 446.27 318.45 447.32 C 311.45 451.64 302.10 449.82 295.51 445.51 C 291.16 443.12 290.01 435.01 295.66 433.66 Z" />
<path fill="#76428a" opacity="1.00" d=" M 301.45 440.20 C 306.45 438.76 311.52 440.10 314.36 444.51 C 309.90 443.59 305.67 441.85 301.45 440.20 Z" />
<path fill="#76428a" opacity="1.00" d=" M 329.73 452.70 C 335.57 449.43 342.36 448.43 349.00 448.98 C 355.58 450.07 359.44 461.29 352.64 464.61 C 346.35 467.02 339.12 466.32 332.74 464.46 C 332.94 463.76 333.34 462.36 333.54 461.66 C 340.17 462.48 347.03 463.43 353.57 461.55 C 352.90 458.14 352.17 454.86 351.32 451.53 C 344.46 451.71 337.48 452.05 331.10 454.78 C 330.75 454.26 330.07 453.22 329.73 452.70 Z" />
<path fill="#76428a" opacity="1.00" d=" M 336.92 455.78 C 340.73 455.08 344.62 454.92 348.49 454.98 C 346.27 455.89 344.05 456.78 341.83 457.66 C 343.50 458.21 346.84 459.29 348.51 459.83 C 346.14 460.07 343.73 460.33 341.38 460.42 C 339.59 459.19 338.31 457.40 336.92 455.78 Z" />
<path fill="#76428a" opacity="1.00" d=" M 440.78 458.10 C 444.30 461.64 449.71 465.16 448.15 470.98 C 449.22 474.48 447.57 478.05 444.62 479.79 C 438.53 480.94 433.30 476.47 430.06 471.89 C 427.60 468.12 431.25 464.13 432.82 460.76 C 433.52 460.97 434.91 461.39 435.61 461.60 C 434.05 464.49 432.10 467.38 431.96 470.77 C 435.42 474.64 440.12 476.97 445.24 477.76 C 444.20 473.67 446.13 468.72 444.04 464.91 C 442.69 463.19 440.92 461.86 439.27 460.46 C 439.65 459.87 440.40 458.69 440.78 458.10 Z" />
<path fill="#76428a" opacity="1.00" d=" M 388.67 466.52 C 393.90 465.16 399.35 465.76 402.37 470.66 C 405.05 473.50 406.96 479.73 402.62 481.78 C 395.54 483.68 388.89 480.74 384.08 475.70 C 384.05 472.14 386.31 469.00 388.67 466.52 M 387.06 471.93 C 387.02 472.76 386.93 474.43 386.89 475.26 C 391.75 478.24 397.46 478.76 403.00 479.55 C 401.69 476.14 401.23 470.34 396.70 469.38 C 393.32 469.24 390.20 470.91 387.06 471.93 Z" />
<path fill="#76428a" opacity="1.00" d=" M 435.43 468.93 C 437.80 468.70 440.19 468.62 442.58 468.69 C 440.95 470.09 439.28 471.45 437.57 472.74 C 437.03 471.79 435.96 469.88 435.43 468.93 Z" />
<path fill="#76428a" opacity="1.00" d=" M 167.74 477.67 C 174.84 473.55 182.78 469.28 191.36 471.56 C 198.04 473.77 206.04 475.54 210.29 481.76 C 216.66 488.48 214.12 499.10 210.59 506.63 C 202.38 521.46 207.05 539.29 206.20 555.45 C 215.14 551.06 222.13 543.88 230.24 538.34 C 232.79 535.98 232.66 539.90 232.72 541.66 C 222.80 552.79 209.68 560.86 195.68 565.81 C 193.93 551.13 198.84 535.47 192.11 521.70 C 184.90 520.42 177.79 518.61 170.79 516.49 C 171.08 523.46 166.32 528.59 161.55 532.96 C 160.59 549.29 161.46 565.66 160.77 582.01 C 160.51 585.92 159.04 589.61 158.29 593.43 C 150.24 594.53 142.21 596.01 134.05 595.82 C 130.47 597.31 128.81 594.40 126.86 592.48 C 134.70 590.30 142.70 588.82 150.71 587.47 C 151.74 569.70 150.41 551.86 146.67 534.47 C 141.77 533.24 136.55 532.59 132.26 529.79 C 125.83 522.02 123.50 508.12 132.18 501.19 C 138.88 494.52 146.03 488.07 154.06 483.04 C 156.58 481.09 159.15 482.97 161.03 484.79 C 151.90 490.89 142.95 497.40 135.15 505.17 C 127.85 512.40 132.47 528.94 143.82 528.39 C 150.28 529.07 158.03 528.69 163.22 524.22 C 165.76 519.93 164.25 514.42 164.76 509.63 C 174.94 511.88 184.82 515.48 195.30 516.15 C 197.01 511.99 200.34 509.11 204.29 507.08 C 207.90 502.05 209.59 495.34 208.80 489.18 C 202.87 477.90 186.74 473.33 175.63 479.60 C 172.70 481.32 169.51 480.61 167.74 477.67 Z" />
<path fill="#76428a" opacity="1.00" d=" M 419.64 471.45 C 426.47 484.15 431.23 498.19 431.99 512.68 C 425.07 512.80 418.17 512.97 411.26 512.83 C 411.70 503.02 408.70 492.23 413.63 483.15 C 415.41 491.97 413.70 501.08 413.99 510.02 C 417.83 510.00 425.51 509.95 429.34 509.93 C 427.73 500.75 425.47 491.66 421.95 483.02 C 420.44 479.35 419.45 475.44 419.64 471.45 Z" />
<path fill="#76428a" opacity="1.00" d=" M 391.42 474.45 C 392.96 474.45 396.04 474.45 397.58 474.45 C 397.58 474.97 397.58 476.03 397.58 476.55 C 396.04 476.55 392.96 476.55 391.42 476.55 C 391.42 476.03 391.42 474.97 391.42 474.45 Z" />
<path fill="#76428a" opacity="1.00" d=" M 267.74 475.85 C 278.54 473.60 289.80 474.95 299.98 479.05 C 308.68 482.74 318.41 481.70 327.62 482.56 C 327.61 483.12 327.60 484.24 327.60 484.80 C 324.95 484.81 319.64 484.83 316.98 484.84 C 303.06 485.89 290.99 476.59 277.01 477.87 C 270.85 476.72 264.87 479.12 260.53 483.46 C 258.52 486.76 257.92 490.91 258.34 494.69 C 263.47 505.20 275.20 510.06 286.08 512.06 C 305.17 515.84 324.39 520.49 344.03 519.06 C 351.55 519.80 357.91 515.29 364.10 511.86 C 361.81 506.87 358.68 501.74 353.43 499.53 C 346.34 496.07 337.79 492.88 335.03 484.77 C 338.56 486.45 341.26 489.31 344.36 491.60 C 348.41 494.55 353.30 495.99 357.54 498.61 C 361.83 501.96 365.06 506.59 366.87 511.72 C 362.06 515.37 357.36 519.79 351.28 521.17 C 328.78 524.62 306.36 519.62 284.49 514.77 C 273.06 512.62 261.90 506.26 256.01 495.99 C 252.73 487.25 259.72 478.58 267.74 475.85 Z" />
<path fill="#76428a" opacity="1.00" d=" M 267.69 495.49 C 270.25 494.07 272.80 492.63 275.36 491.20 C 275.29 493.06 275.20 494.92 275.12 496.78 C 286.03 500.97 296.42 506.68 308.01 508.91 C 315.37 510.36 323.53 512.62 330.66 508.94 C 331.56 505.40 331.78 501.74 332.75 498.22 C 334.16 502.65 337.18 509.00 331.68 511.68 C 319.65 516.81 306.63 511.95 295.04 507.97 C 285.79 504.12 276.43 500.42 267.69 495.49 Z" />
<path fill="#76428a" opacity="1.00" d=" M 47.10 497.73 C 58.60 492.18 71.81 490.95 84.36 492.55 C 89.65 494.06 97.99 494.93 99.39 501.62 C 100.33 510.13 100.90 519.03 98.37 527.36 C 96.64 532.76 91.15 535.48 87.22 539.17 C 88.56 557.45 96.35 574.43 98.00 592.65 C 90.85 593.73 83.59 594.84 76.37 593.72 C 82.57 591.95 88.94 590.96 95.27 589.82 C 92.11 573.65 86.45 558.04 84.73 541.59 C 74.42 540.40 64.77 536.28 56.05 530.79 C 50.50 538.30 44.87 545.78 38.39 552.52 C 41.53 567.73 46.28 582.52 50.49 597.45 C 52.16 603.87 55.37 609.70 58.08 615.71 C 50.25 618.81 42.77 622.71 34.78 625.42 C 40.19 620.08 47.21 617.09 53.91 613.78 C 45.92 595.20 40.74 575.50 36.61 555.74 C 30.60 555.51 23.72 553.77 21.47 547.53 C 18.52 527.72 32.51 511.82 41.17 495.41 C 41.38 497.97 41.51 500.69 39.97 502.94 C 34.65 513.11 27.03 522.36 24.92 533.96 C 23.01 540.26 24.57 546.87 26.70 552.90 C 34.47 553.42 40.28 548.35 44.26 542.28 C 48.02 537.32 51.61 532.24 55.75 527.58 C 64.59 532.79 74.16 538.25 84.78 537.77 C 89.45 535.00 94.29 531.38 95.73 525.83 C 97.26 519.32 97.21 512.58 97.16 505.96 C 97.11 503.38 96.55 500.24 94.00 498.99 C 82.07 492.88 68.16 494.58 55.52 497.33 C 52.76 498.07 49.90 498.19 47.10 497.73 Z" />
</g>
</svg>
