<?xml version="1.0" encoding="UTF-8" ?>
<!DOCTYPE svg PUBLIC "-//W3C//DTD SVG 1.1//EN" "http://www.w3.org/Graphics/SVG/1.1/DTD/svg11.dtd">
<svg width="200pt" height="200pt" viewBox="0 0 200 200" version="1.1" xmlns="http://www.w3.org/2000/svg">
<g id="#080706ff">
<path fill="#080706" opacity="1.00" d=" M 26.61 40.11 C 40.05 43.58 53.94 44.19 67.75 44.15 C 69.15 49.55 70.61 54.94 72.91 60.03 C 78.12 61.16 86.31 57.76 88.93 64.07 C 91.97 72.21 91.91 81.13 93.35 89.63 C 94.60 101.83 99.58 113.14 103.19 124.73 C 111.81 124.11 120.45 124.09 129.09 123.90 C 130.86 110.49 132.69 97.09 135.40 83.83 C 134.59 79.54 131.97 75.72 130.06 71.80 C 124.16 73.12 116.39 72.67 113.25 66.62 C 111.19 57.61 117.51 49.23 124.91 44.93 C 129.59 42.13 135.45 45.79 136.44 50.63 C 137.55 55.75 135.96 60.81 134.97 65.79 C 133.64 70.28 137.18 74.11 138.91 77.95 C 150.29 78.01 161.65 78.79 172.96 80.00 C 171.34 88.83 170.42 97.76 169.79 106.71 C 176.00 107.16 182.21 107.55 188.41 108.13 C 189.85 113.05 191.43 117.95 192.42 123.00 C 185.12 121.90 177.83 120.71 170.54 119.50 C 169.42 123.07 168.07 126.57 166.43 129.94 C 171.20 133.29 176.68 135.97 180.39 140.60 C 183.46 144.35 183.43 149.88 187.27 153.09 C 184.23 155.43 181.89 158.67 178.52 160.56 C 171.16 161.21 162.49 162.86 156.27 157.75 C 149.50 153.57 146.09 145.66 146.25 137.85 C 134.56 137.24 122.82 136.39 111.13 137.26 C 100.54 138.93 90.61 143.23 80.09 145.17 C 76.76 145.48 71.72 147.59 72.08 141.52 C 66.31 142.75 60.48 143.87 55.00 146.10 C 54.07 151.91 53.85 157.88 52.38 163.59 C 50.31 168.51 44.02 168.41 39.51 167.67 C 31.29 166.99 25.05 160.96 19.69 155.30 C 16.84 152.31 15.96 147.97 16.08 143.96 C 15.74 136.95 17.44 128.50 24.30 125.05 C 26.03 123.12 28.37 125.05 30.31 125.51 C 28.59 121.97 27.04 118.35 25.65 114.67 C 22.77 115.14 19.89 115.57 17.01 116.02 C 15.14 112.47 13.23 108.95 11.39 105.38 C 15.62 105.20 19.85 105.02 24.08 104.84 C 21.94 88.40 18.99 71.88 19.52 55.26 C 22.04 50.29 25.06 45.55 26.61 40.11 M 29.23 46.19 C 28.75 48.43 28.31 50.68 27.94 52.94 C 38.30 57.49 49.28 60.03 60.48 61.46 C 60.61 65.64 60.46 69.82 60.97 73.97 C 69.32 78.50 78.95 79.59 88.31 79.78 C 87.10 74.89 85.93 69.98 83.98 65.32 C 79.20 64.58 73.91 65.65 69.48 63.55 C 66.31 59.02 65.55 53.30 63.73 48.20 C 52.20 47.98 40.70 47.32 29.23 46.19 M 117.75 60.80 C 115.66 64.87 121.35 68.19 124.87 67.97 C 128.99 66.12 130.91 61.50 132.67 57.64 C 134.01 53.84 130.26 51.11 128.24 48.44 C 124.10 51.90 119.39 55.38 117.75 60.80 M 23.93 56.90 C 23.75 73.11 26.03 89.19 28.99 105.08 C 45.93 105.35 64.65 100.86 80.24 109.79 C 84.23 114.49 83.63 121.48 86.16 126.99 C 90.21 126.67 94.26 126.37 98.30 125.93 C 95.49 116.88 92.20 107.95 90.43 98.62 C 89.03 93.67 89.39 87.61 84.90 84.14 C 76.05 81.34 65.15 84.03 57.75 77.34 C 55.77 73.55 55.54 69.12 54.62 65.02 C 44.17 63.19 33.80 60.91 23.93 56.90 M 140.11 81.87 C 143.91 90.67 147.34 99.63 150.43 108.70 C 155.50 107.84 160.60 107.10 165.73 106.68 C 166.18 99.08 166.42 91.45 167.71 83.93 C 158.53 83.02 149.34 82.07 140.11 81.87 M 138.72 93.38 C 136.60 99.99 135.57 106.89 134.67 113.76 C 138.02 112.14 141.47 110.71 144.98 109.48 C 143.78 103.81 142.02 98.19 138.72 93.38 M 47.69 109.19 C 56.57 112.47 65.97 115.45 73.22 121.78 C 76.43 127.64 77.91 134.30 81.01 140.24 C 87.92 138.34 94.86 136.56 101.80 134.76 C 100.74 133.30 99.73 131.81 98.73 130.31 C 93.50 130.81 88.24 130.84 83.00 131.07 C 80.04 125.82 79.59 119.49 76.70 114.30 C 68.41 108.31 57.53 107.50 47.69 109.19 M 19.87 109.31 C 19.05 111.48 24.14 111.09 23.96 109.25 C 22.86 108.30 20.99 108.47 19.87 109.31 M 140.02 117.03 C 135.91 119.22 134.58 124.00 132.33 127.73 C 122.89 128.01 113.46 128.29 104.03 128.83 L 104.03 133.80 C 114.94 133.14 125.87 132.98 136.79 132.82 C 137.93 127.85 139.10 122.89 140.23 117.93 C 148.42 114.91 157.34 115.44 165.92 114.81 C 165.96 113.50 166.00 112.20 166.03 110.90 C 157.25 112.26 148.06 112.95 140.02 117.03 M 169.93 110.88 C 169.99 112.24 170.06 113.60 170.12 114.97 C 175.55 115.69 180.97 116.43 186.41 117.04 C 185.60 115.38 184.75 113.75 183.92 112.11 C 179.26 111.64 174.58 111.39 169.93 110.88 M 145.22 121.24 C 143.65 123.13 143.20 125.66 142.40 127.92 C 149.38 127.03 156.36 126.10 163.36 125.36 C 164.33 123.29 165.20 121.18 165.99 119.04 C 159.11 119.95 151.93 119.38 145.22 121.24 M 20.69 140.03 C 24.67 141.71 28.79 142.99 32.93 144.20 C 31.24 139.24 29.63 134.25 27.80 129.35 C 24.23 131.97 22.24 136.01 20.69 140.03 M 30.75 130.19 C 31.73 133.78 32.99 137.27 34.14 140.81 C 34.86 140.89 36.29 141.07 37.01 141.15 C 36.71 138.69 36.12 133.78 35.83 131.33 C 34.14 130.93 32.45 130.55 30.75 130.19 M 37.77 131.01 C 38.70 134.88 39.65 138.75 40.42 142.66 C 42.48 139.86 44.60 137.10 46.51 134.19 C 43.61 133.10 40.69 132.06 37.77 131.01 M 161.95 133.66 C 162.32 136.89 162.72 140.10 163.18 143.33 C 164.82 141.22 166.46 139.12 168.10 137.00 C 166.10 135.79 164.06 134.66 161.95 133.66 M 153.51 137.50 C 155.96 139.57 158.45 141.60 160.95 143.62 C 160.68 140.63 160.26 137.66 159.82 134.70 C 157.67 135.53 155.57 136.48 153.51 137.50 M 40.45 146.86 C 43.97 146.50 47.48 146.04 50.99 145.59 C 50.14 142.54 49.38 139.48 48.56 136.44 C 45.83 139.89 43.11 143.36 40.45 146.86 M 167.08 141.16 C 167.43 142.80 167.80 144.43 168.18 146.07 C 170.61 144.99 173.02 143.88 175.42 142.75 C 173.71 141.29 171.90 139.97 170.02 138.74 C 169.04 139.55 168.06 140.36 167.08 141.16 M 150.52 139.72 C 151.25 143.96 153.05 147.50 158.75 145.88 C 156.07 143.73 153.31 141.68 150.52 139.72 M 19.69 142.98 C 20.47 145.77 21.33 148.53 22.24 151.28 C 26.05 150.39 29.50 148.50 32.83 146.51 C 28.52 145.07 24.09 144.07 19.69 142.98 M 168.41 148.74 C 172.37 150.13 176.38 151.34 180.46 152.36 C 179.67 149.84 178.81 147.34 177.96 144.84 C 174.75 146.08 171.56 147.36 168.41 148.74 M 38.45 150.88 C 41.99 153.85 45.50 156.86 48.89 160.01 C 49.29 155.94 49.72 151.89 50.00 147.82 C 46.16 148.87 42.40 150.27 38.45 150.88 M 153.75 148.57 C 156.14 150.72 158.60 152.78 161.24 154.63 C 160.85 152.54 160.58 150.40 159.76 148.41 C 158.26 148.45 155.25 148.53 153.75 148.57 M 24.62 153.24 C 26.66 155.19 28.69 157.13 30.75 159.06 C 31.67 155.98 32.60 152.90 33.36 149.77 C 30.46 150.96 27.55 152.12 24.62 153.24 M 162.87 149.80 C 163.17 152.22 163.61 154.62 164.12 157.00 C 167.97 156.92 171.82 156.86 175.68 156.83 C 176.49 155.96 177.31 155.11 178.14 154.26 C 173.04 152.80 168.00 151.14 162.87 149.80 M 35.42 151.81 C 34.53 154.59 33.65 157.37 32.86 160.19 C 37.16 163.19 42.52 163.74 47.62 163.23 C 44.48 158.53 39.93 155.09 35.42 151.81 Z" />
</g>
<g id="#76ae47ff">
<path fill="#76ae47" opacity="1.00" d=" M 29.23 46.19 C 40.70 47.32 52.20 47.98 63.73 48.20 C 65.55 53.30 66.31 59.02 69.48 63.55 C 73.91 65.65 79.20 64.58 83.98 65.32 C 85.93 69.98 87.10 74.89 88.31 79.78 C 78.95 79.59 69.32 78.50 60.97 73.97 C 60.46 69.82 60.61 65.64 60.48 61.46 C 49.28 60.03 38.30 57.49 27.94 52.94 C 28.31 50.68 28.75 48.43 29.23 46.19 Z" />
<path fill="#76ae47" opacity="1.00" d=" M 47.69 109.19 C 57.53 107.50 68.41 108.31 76.70 114.30 C 79.59 119.49 80.04 125.82 83.00 131.07 C 88.24 130.84 93.50 130.81 98.73 130.31 C 99.73 131.81 100.74 133.30 101.80 134.76 C 94.86 136.56 87.92 138.34 81.01 140.24 C 77.91 134.30 76.43 127.64 73.22 121.78 C 65.97 115.45 56.57 112.47 47.69 109.19 Z" />
<path fill="#76ae47" opacity="1.00" d=" M 140.02 117.03 C 148.06 112.95 157.25 112.26 166.03 110.90 C 166.00 112.20 165.96 113.50 165.92 114.81 C 157.34 115.44 148.42 114.91 140.23 117.93 C 139.10 122.89 137.93 127.85 136.79 132.82 C 125.87 132.98 114.94 133.14 104.03 133.80 L 104.03 128.83 C 113.46 128.29 122.89 128.01 132.33 127.73 C 134.58 124.00 135.91 119.22 140.02 117.03 Z" />
<path fill="#76ae47" opacity="1.00" d=" M 169.93 110.88 C 174.58 111.39 179.26 111.64 183.92 112.11 C 184.75 113.75 185.60 115.38 186.41 117.04 C 180.97 116.43 175.55 115.69 170.12 114.97 C 170.06 113.60 169.99 112.24 169.93 110.88 Z" />
</g>
<g id="#373334ff">
<path fill="#373334" opacity="1.00" d=" M 23.93 56.90 C 33.80 60.91 44.17 63.19 54.62 65.02 C 55.54 69.12 55.77 73.55 57.75 77.34 C 65.15 84.03 76.05 81.34 84.90 84.14 C 89.39 87.61 89.03 93.67 90.43 98.62 C 92.20 107.95 95.49 116.88 98.30 125.93 C 94.26 126.37 90.21 126.67 86.16 126.99 C 83.63 121.48 84.23 114.49 80.24 109.79 C 64.65 100.86 45.93 105.35 28.99 105.08 C 26.03 89.19 23.75 73.11 23.93 56.90 Z" />
<path fill="#373334" opacity="1.00" d=" M 140.11 81.87 C 149.34 82.07 158.53 83.02 167.71 83.93 C 166.42 91.45 166.18 99.08 165.73 106.68 C 160.60 107.10 155.50 107.84 150.43 108.70 C 147.34 99.63 143.91 90.67 140.11 81.87 Z" />
<path fill="#373334" opacity="1.00" d=" M 138.72 93.38 C 142.02 98.19 143.78 103.81 144.98 109.48 C 141.47 110.71 138.02 112.14 134.67 113.76 C 135.57 106.89 136.60 99.99 138.72 93.38 Z" />
<path fill="#373334" opacity="1.00" d=" M 145.22 121.24 C 151.93 119.38 159.11 119.95 165.99 119.04 C 165.20 121.18 164.33 123.29 163.36 125.36 C 156.36 126.10 149.38 127.03 142.40 127.92 C 143.20 125.66 143.65 123.13 145.22 121.24 Z" />
</g>
</svg>
