<?xml version="1.0" encoding="UTF-8" ?>
<!DOCTYPE svg PUBLIC "-//W3C//DTD SVG 1.1//EN" "http://www.w3.org/Graphics/SVG/1.1/DTD/svg11.dtd">
<svg width="273pt" height="243pt" viewBox="0 0 273 243" version="1.1" xmlns="http://www.w3.org/2000/svg">
<g id="#2e27253a">
<path fill="#2e2725" opacity="0.23" d=" M 108.79 0.00 L 112.98 0.00 C 112.05 1.53 109.43 2.07 108.79 0.00 Z" />
</g>
<g id="#503862ff">
<path fill="#503862" opacity="1.00" d=" M 222.70 14.39 C 230.89 9.47 240.87 9.33 250.09 10.40 C 255.13 11.57 259.66 15.26 261.36 20.23 C 260.55 20.03 259.75 19.84 258.95 19.66 C 258.84 24.27 257.28 28.66 254.65 32.43 C 253.58 33.93 252.34 35.31 250.88 36.42 C 248.06 38.38 245.36 40.51 242.89 42.88 C 242.07 43.19 241.26 43.51 240.46 43.84 C 238.10 44.84 235.75 45.89 233.46 47.03 C 233.01 47.26 232.11 47.72 231.66 47.95 C 228.09 49.03 224.41 49.81 221.00 51.37 C 220.47 51.63 219.42 52.15 218.89 52.41 C 218.19 52.76 217.50 53.11 216.81 53.47 C 216.39 53.36 215.55 53.14 215.13 53.03 C 214.00 52.17 212.91 51.25 211.82 50.34 C 226.62 46.92 241.73 41.72 252.79 30.85 C 255.96 27.40 255.16 21.39 251.96 18.19 C 250.28 16.08 247.42 15.91 245.07 15.02 C 240.76 13.74 236.48 11.18 231.85 12.58 L 231.15 13.05 C 230.63 14.02 230.13 15.00 229.66 16.00 L 229.61 15.93 C 229.26 15.44 228.54 14.47 228.19 13.98 C 226.36 14.15 224.53 14.29 222.70 14.39 Z" />
</g>
<g id="#74596fff">
<path fill="#74596f" opacity="1.00" d=" M 231.85 12.58 C 236.48 11.18 240.76 13.74 245.07 15.02 C 242.43 14.68 239.75 14.26 237.09 14.54 C 234.67 15.29 232.23 16.02 229.66 16.00 C 230.13 15.00 230.63 14.02 231.15 13.05 C 231.23 15.46 234.33 13.24 231.85 12.58 Z" />
<path fill="#74596f" opacity="1.00" d=" M 222.70 14.39 C 224.53 14.29 226.36 14.15 228.19 13.98 C 228.54 14.47 229.26 15.44 229.61 15.93 C 223.86 17.59 218.56 20.23 213.47 23.34 C 213.51 22.29 213.54 21.24 213.55 20.19 C 213.14 20.09 212.31 19.88 211.90 19.77 C 215.36 18.17 218.66 16.26 222.00 14.43 L 222.70 14.39 Z" />
</g>
<g id="#91849bff">
<path fill="#91849b" opacity="1.00" d=" M 231.15 13.05 L 231.85 12.58 C 234.33 13.24 231.23 15.46 231.15 13.05 Z" />
</g>
<g id="#4e3254ff">
<path fill="#4e3254" opacity="1.00" d=" M 193.64 28.05 C 200.36 26.91 205.89 22.65 211.90 19.77 C 212.31 19.88 213.14 20.09 213.55 20.19 C 213.54 21.24 213.51 22.29 213.47 23.34 C 203.88 28.80 192.56 32.36 181.52 29.74 C 185.53 28.98 189.62 28.74 193.64 28.05 Z" />
</g>
<g id="#6c5d67ff">
<path fill="#6c5d67" opacity="1.00" d=" M 258.95 19.66 C 259.75 19.84 260.55 20.03 261.36 20.23 C 263.28 25.74 261.29 31.90 258.07 36.47 C 257.65 36.61 256.82 36.90 256.40 37.04 C 255.91 35.47 255.35 33.92 254.65 32.43 C 257.28 28.66 258.84 24.27 258.95 19.66 M 259.10 25.37 C 258.22 26.59 258.44 27.32 259.78 27.56 C 260.65 26.35 260.42 25.62 259.10 25.37 M 258.86 33.01 C 258.99 31.46 259.11 29.92 259.21 28.37 C 256.18 28.49 255.69 32.85 258.86 33.01 Z" />
</g>
<g id="#a0a199ff">
<path fill="#a0a199" opacity="1.00" d=" M 259.10 25.37 C 260.42 25.62 260.65 26.35 259.78 27.56 C 258.44 27.32 258.22 26.59 259.10 25.37 Z" />
</g>
<g id="#574047b0">
<path fill="#574047" opacity="0.69" d=" M 180.13 28.47 C 184.57 27.59 189.15 28.15 193.64 28.05 C 189.62 28.74 185.53 28.98 181.52 29.74 C 181.17 29.42 180.48 28.79 180.13 28.47 Z" />
</g>
<g id="#9a8e91ff">
<path fill="#9a8e91" opacity="1.00" d=" M 258.86 33.01 C 255.69 32.85 256.18 28.49 259.21 28.37 C 259.11 29.92 258.99 31.46 258.86 33.01 Z" />
</g>
<g id="#a4a095ff">
<path fill="#a4a095" opacity="1.00" d=" M 250.88 36.42 C 252.34 35.31 253.58 33.93 254.65 32.43 C 255.35 33.92 255.91 35.47 256.40 37.04 C 254.37 38.65 252.68 40.63 250.90 42.49 C 250.93 40.47 250.90 38.45 250.88 36.42 Z" />
</g>
<g id="#5c4e6bff">
<path fill="#5c4e6b" opacity="1.00" d=" M 48.31 35.36 C 53.30 34.64 58.15 36.40 63.11 36.44 C 69.35 37.59 75.09 40.98 79.22 45.78 C 80.70 48.10 81.69 50.71 82.98 53.14 C 85.78 62.24 84.74 71.93 83.98 81.26 C 83.81 75.75 83.97 70.23 83.86 64.71 C 82.60 64.94 81.34 65.28 80.05 65.28 C 76.87 61.12 76.46 55.26 72.24 51.81 C 73.17 49.74 74.04 47.64 74.85 45.51 C 73.58 44.93 72.32 44.33 71.05 43.74 C 70.58 45.76 70.12 47.77 69.68 49.80 C 68.90 49.83 67.33 49.88 66.54 49.91 C 65.83 49.14 65.11 48.39 64.42 47.60 C 65.00 45.52 65.11 43.36 65.00 41.21 C 64.50 40.82 63.50 40.04 63.00 39.64 C 62.54 40.69 62.08 41.74 61.61 42.79 C 60.39 42.27 59.19 41.70 57.90 41.38 C 56.00 41.45 54.68 43.07 53.22 44.06 C 54.63 45.08 56.33 45.42 58.03 45.53 C 59.87 47.27 61.55 49.16 63.20 51.07 C 62.60 52.77 62.40 54.71 61.26 56.15 C 59.49 57.64 57.34 58.59 55.31 59.68 C 55.19 58.58 55.07 57.49 54.95 56.40 C 55.22 56.17 55.77 55.71 56.04 55.49 C 56.47 55.79 57.32 56.39 57.75 56.69 C 60.38 53.71 58.54 49.88 57.77 46.54 C 52.69 47.96 47.27 48.09 42.11 47.01 C 40.57 46.63 39.01 47.01 37.52 47.41 C 37.92 46.25 38.32 45.09 38.72 43.94 C 35.23 44.31 31.73 44.57 28.23 44.75 L 27.24 44.81 C 31.48 43.67 35.71 42.47 39.78 40.84 C 42.77 39.25 45.15 36.67 48.31 35.36 M 49.13 41.36 C 48.70 42.74 49.19 43.27 50.59 42.93 C 51.02 41.55 50.54 41.02 49.13 41.36 M 46.32 44.49 C 45.25 46.56 49.68 47.30 49.87 45.19 C 49.41 43.82 47.31 43.61 46.32 44.49 M 74.40 51.15 C 73.25 52.57 75.70 54.35 76.71 52.83 C 77.87 51.40 75.41 49.61 74.40 51.15 M 77.19 55.22 C 75.89 56.23 77.35 58.89 78.84 57.70 C 80.16 56.69 78.67 54.02 77.19 55.22 Z" />
</g>
<g id="#78717aff">
<path fill="#78717a" opacity="1.00" d=" M 242.89 42.88 C 245.36 40.51 248.06 38.38 250.88 36.42 C 250.90 38.45 250.93 40.47 250.90 42.49 C 250.76 42.65 250.47 42.96 250.32 43.11 C 249.08 42.07 248.30 39.52 246.29 40.32 C 245.69 42.30 246.00 44.40 246.00 46.44 C 245.69 46.64 245.08 47.05 244.78 47.26 C 244.14 45.80 243.51 44.34 242.89 42.88 Z" />
</g>
<g id="#5b3d51df">
<path fill="#5b3d51" opacity="0.87" d=" M 256.40 37.04 C 256.82 36.90 257.65 36.61 258.07 36.47 C 255.67 40.77 252.14 44.40 248.08 47.17 C 243.74 50.30 239.51 53.68 234.73 56.12 C 234.89 55.26 235.05 54.39 235.21 53.53 C 235.91 53.14 236.61 52.75 237.31 52.34 C 238.97 51.37 240.55 50.27 242.10 49.14 C 242.99 48.51 243.88 47.88 244.78 47.26 C 245.08 47.05 245.69 46.64 246.00 46.44 C 247.54 45.46 249.02 44.40 250.32 43.11 C 250.47 42.96 250.76 42.65 250.90 42.49 C 252.68 40.63 254.37 38.65 256.40 37.04 Z" />
</g>
<g id="#706d79ff">
<path fill="#706d79" opacity="1.00" d=" M 61.61 42.79 C 62.08 41.74 62.54 40.69 63.00 39.64 C 63.50 40.04 64.50 40.82 65.00 41.21 C 65.11 43.36 65.00 45.52 64.42 47.60 C 63.26 46.13 62.40 44.47 61.61 42.79 Z" />
</g>
<g id="#9f9f94ff">
<path fill="#9f9f94" opacity="1.00" d=" M 246.29 40.32 C 248.30 39.52 249.08 42.07 250.32 43.11 C 249.02 44.40 247.54 45.46 246.00 46.44 C 246.00 44.40 245.69 42.30 246.29 40.32 Z" />
</g>
<g id="#a59ab0ff">
<path fill="#a59ab0" opacity="1.00" d=" M 49.13 41.36 C 50.54 41.02 51.02 41.55 50.59 42.93 C 49.19 43.27 48.70 42.74 49.13 41.36 Z" />
</g>
<g id="#544266ff">
<path fill="#544266" opacity="1.00" d=" M 53.22 44.06 C 54.68 43.07 56.00 41.45 57.90 41.38 C 59.19 41.70 60.39 42.27 61.61 42.79 C 62.40 44.47 63.26 46.13 64.42 47.60 C 65.11 48.39 65.83 49.14 66.54 49.91 C 66.49 52.27 66.93 54.58 67.76 56.78 C 67.98 58.17 68.14 59.57 68.26 60.98 C 64.95 58.98 60.60 59.36 57.32 61.23 C 52.96 63.45 47.79 63.82 43.81 66.83 C 38.65 70.25 33.51 74.79 26.99 74.91 C 23.30 75.12 25.00 69.54 27.65 69.19 C 30.40 68.67 33.34 68.30 35.42 66.23 C 34.57 66.12 32.86 65.91 32.00 65.80 C 33.29 64.06 33.74 61.22 36.23 60.86 C 36.40 62.69 36.75 64.50 37.21 66.28 C 37.22 65.17 37.21 64.06 37.18 62.95 C 37.42 62.66 37.92 62.06 38.16 61.76 C 39.16 62.82 40.05 64.01 41.27 64.84 C 44.06 64.71 44.39 61.39 45.53 59.48 C 44.75 59.46 43.20 59.42 42.42 59.40 L 42.24 59.40 C 41.83 58.79 41.00 57.56 40.58 56.94 C 42.54 56.28 44.51 55.64 46.44 54.86 C 47.73 54.46 48.93 53.16 48.57 51.71 C 48.11 50.07 46.23 50.71 45.30 51.44 L 44.70 51.76 C 41.38 52.22 37.67 52.21 35.15 54.78 C 32.88 55.45 30.59 56.03 28.30 56.64 C 25.42 55.44 20.96 57.66 19.49 54.10 C 19.89 53.79 20.70 53.17 21.10 52.86 C 22.75 53.28 24.41 53.67 26.09 53.94 C 35.66 50.71 46.18 47.79 56.15 51.02 C 53.70 55.52 49.21 58.25 45.89 62.02 C 49.21 60.67 52.27 58.77 54.95 56.40 C 55.07 57.49 55.19 58.58 55.31 59.68 C 57.34 58.59 59.49 57.64 61.26 56.15 C 62.40 54.71 62.60 52.77 63.20 51.07 C 61.55 49.16 59.87 47.27 58.03 45.53 C 56.33 45.42 54.63 45.08 53.22 44.06 Z" />
</g>
<g id="#a0a399ff">
<path fill="#a0a399" opacity="1.00" d=" M 240.46 43.84 C 241.26 43.51 242.07 43.19 242.89 42.88 C 243.51 44.34 244.14 45.80 244.78 47.26 C 243.88 47.88 242.99 48.51 242.10 49.14 C 241.53 49.25 240.40 49.48 239.83 49.59 C 240.04 47.67 240.25 45.76 240.46 43.84 Z" />
</g>
<g id="#655979ff">
<path fill="#655979" opacity="1.00" d=" M 28.23 44.75 C 31.73 44.57 35.23 44.31 38.72 43.94 C 38.32 45.09 37.92 46.25 37.52 47.41 C 33.45 48.52 29.74 50.67 25.65 51.68 C 25.23 51.34 24.39 50.67 23.97 50.34 C 23.78 50.85 23.53 51.34 23.22 51.81 C 24.18 52.51 25.13 53.24 26.09 53.94 C 24.41 53.67 22.75 53.28 21.10 52.86 C 20.70 53.17 19.89 53.79 19.49 54.10 C 20.14 49.58 24.25 46.32 28.23 44.75 Z" />
</g>
<g id="#7a7385ff">
<path fill="#7a7385" opacity="1.00" d=" M 46.32 44.49 C 47.31 43.61 49.41 43.82 49.87 45.19 C 49.68 47.30 45.25 46.56 46.32 44.49 Z" />
</g>
<g id="#797b7bff">
<path fill="#797b7b" opacity="1.00" d=" M 71.05 43.74 C 72.32 44.33 73.58 44.93 74.85 45.51 C 74.04 47.64 73.17 49.74 72.24 51.81 C 71.60 51.31 70.32 50.30 69.68 49.80 C 70.12 47.77 70.58 45.76 71.05 43.74 Z" />
</g>
<g id="#74677aff">
<path fill="#74677a" opacity="1.00" d=" M 233.46 47.03 C 235.75 45.89 238.10 44.84 240.46 43.84 C 240.25 45.76 240.04 47.67 239.83 49.59 C 240.40 49.48 241.53 49.25 242.10 49.14 C 240.55 50.27 238.97 51.37 237.31 52.34 C 236.76 50.72 236.21 49.10 235.67 47.48 C 235.11 47.36 234.01 47.14 233.46 47.03 Z" />
</g>
<g id="#818687ff">
<path fill="#818687" opacity="1.00" d=" M 37.52 47.41 C 39.01 47.01 40.57 46.63 42.11 47.01 C 47.27 48.09 52.69 47.96 57.77 46.54 C 58.54 49.88 60.38 53.71 57.75 56.69 C 57.32 56.39 56.47 55.79 56.04 55.49 C 55.77 55.71 55.22 56.17 54.95 56.40 C 52.27 58.77 49.21 60.67 45.89 62.02 C 49.21 58.25 53.70 55.52 56.15 51.02 C 46.18 47.79 35.66 50.71 26.09 53.94 C 25.13 53.24 24.18 52.51 23.22 51.81 C 23.53 51.34 23.78 50.85 23.97 50.34 C 24.39 50.67 25.23 51.34 25.65 51.68 C 29.74 50.67 33.45 48.52 37.52 47.41 Z" />
</g>
<g id="#a09a8eff">
<path fill="#a09a8e" opacity="1.00" d=" M 233.46 47.03 C 234.01 47.14 235.11 47.36 235.67 47.48 C 236.21 49.10 236.76 50.72 237.31 52.34 C 236.61 52.75 235.91 53.14 235.21 53.53 L 233.60 54.40 C 231.81 52.68 231.44 50.33 231.66 47.95 C 232.11 47.72 233.01 47.26 233.46 47.03 Z" />
<path fill="#a09a8e" opacity="1.00" d=" M 45.30 51.44 C 46.23 50.71 48.11 50.07 48.57 51.71 C 48.93 53.16 47.73 54.46 46.44 54.86 C 46.58 54.41 46.87 53.51 47.01 53.06 C 46.58 52.66 45.73 51.84 45.30 51.44 Z" />
<path fill="#a09a8e" opacity="1.00" d=" M 36.16 60.22 C 38.10 59.46 40.17 59.33 42.24 59.40 L 42.42 59.40 C 40.94 60.07 39.51 60.84 38.16 61.76 C 37.92 62.06 37.42 62.66 37.18 62.95 C 37.21 64.06 37.22 65.17 37.21 66.28 C 36.75 64.50 36.40 62.69 36.23 60.86 L 36.16 60.22 Z" />
</g>
<g id="#66606fff">
<path fill="#66606f" opacity="1.00" d=" M 221.00 51.37 C 224.41 49.81 228.09 49.03 231.66 47.95 C 231.44 50.33 231.81 52.68 233.60 54.40 C 225.75 58.17 218.10 62.41 209.98 65.58 C 210.10 65.05 210.34 64.00 210.46 63.48 C 209.96 63.68 208.97 64.07 208.47 64.27 C 210.89 62.01 214.26 61.35 217.25 60.16 C 217.51 59.73 218.03 58.88 218.29 58.45 C 215.65 59.29 212.97 60.04 210.23 60.43 C 210.06 59.00 209.91 57.58 209.75 56.16 C 210.34 55.25 210.92 54.35 211.51 53.45 C 212.71 53.29 213.92 53.15 215.13 53.03 C 215.55 53.14 216.39 53.36 216.81 53.47 C 217.50 53.11 218.19 52.76 218.89 52.41 C 218.85 53.90 218.87 55.39 218.88 56.89 C 219.72 56.96 221.39 57.10 222.22 57.17 C 221.83 55.23 221.42 53.30 221.00 51.37 M 224.63 51.56 C 223.91 52.95 224.56 54.46 224.99 55.83 C 226.26 55.09 227.53 54.35 228.80 53.60 C 228.39 52.43 227.98 51.26 227.58 50.09 C 226.58 50.54 225.48 50.84 224.63 51.56 M 211.74 54.77 C 211.89 56.20 212.04 57.63 212.20 59.06 C 213.32 58.60 215.10 59.06 215.78 57.86 C 215.70 56.71 215.58 55.56 215.42 54.42 C 214.19 54.53 212.96 54.65 211.74 54.77 Z" />
</g>
<g id="#4c3d5aff">
<path fill="#4c3d5a" opacity="1.00" d=" M 67.76 56.78 C 66.93 54.58 66.49 52.27 66.54 49.91 C 67.33 49.88 68.90 49.83 69.68 49.80 C 70.32 50.30 71.60 51.31 72.24 51.81 C 76.46 55.26 76.87 61.12 80.05 65.28 C 81.34 65.28 82.60 64.94 83.86 64.71 C 83.97 70.23 83.81 75.75 83.98 81.26 C 83.77 83.59 83.34 85.91 82.57 88.12 C 81.64 89.95 81.19 92.28 82.67 93.97 C 82.94 94.38 83.49 95.19 83.76 95.60 C 84.69 95.51 86.56 95.34 87.49 95.25 C 94.53 90.40 100.58 84.25 107.97 79.92 C 113.74 75.45 120.86 73.35 127.87 71.73 C 135.50 68.45 143.63 66.02 151.98 65.68 C 158.01 65.15 164.15 65.82 170.09 64.43 C 176.63 63.21 182.61 60.19 188.69 57.62 C 196.12 54.37 203.96 52.27 211.82 50.34 C 212.91 51.25 214.00 52.17 215.13 53.03 C 213.92 53.15 212.71 53.29 211.51 53.45 C 210.92 54.35 210.34 55.25 209.75 56.16 C 209.12 56.20 207.86 56.29 207.24 56.33 C 206.92 57.73 206.61 59.13 206.30 60.53 C 207.61 60.51 208.92 60.50 210.23 60.43 C 212.97 60.04 215.65 59.29 218.29 58.45 C 218.03 58.88 217.51 59.73 217.25 60.16 C 214.26 61.35 210.89 62.01 208.47 64.27 C 208.11 64.59 207.40 65.21 207.04 65.52 C 203.41 65.05 200.66 67.42 197.66 68.98 C 190.93 70.93 184.36 73.84 178.75 78.04 C 176.62 79.08 173.79 79.17 172.51 81.45 C 170.74 84.08 167.33 86.54 169.02 90.09 C 172.65 87.59 175.50 84.12 179.55 82.20 C 182.58 78.49 187.46 77.57 191.22 74.88 C 194.11 72.91 196.93 70.66 200.48 70.00 C 202.54 69.70 203.81 68.03 204.94 66.44 C 206.62 66.18 208.31 65.95 209.98 65.58 C 218.10 62.41 225.75 58.17 233.60 54.40 L 235.21 53.53 C 235.05 54.39 234.89 55.26 234.73 56.12 C 225.75 61.32 216.38 65.93 206.71 69.74 C 198.60 72.64 191.51 77.66 184.33 82.30 C 178.81 85.62 174.76 90.71 170.49 95.41 C 166.39 98.60 163.68 103.41 158.85 105.66 C 153.74 107.93 151.59 113.37 148.05 117.30 C 149.34 118.09 150.66 118.84 152.03 119.49 C 149.50 120.01 147.03 120.87 145.05 122.59 C 145.58 123.57 146.10 124.55 146.63 125.54 C 147.48 125.09 148.32 124.65 149.17 124.21 C 149.78 125.33 150.39 126.45 151.00 127.58 C 152.05 126.23 153.10 124.87 154.12 123.50 C 154.40 124.06 154.67 124.63 154.94 125.20 C 154.26 127.31 154.65 129.40 155.62 131.35 C 157.14 130.54 158.66 129.72 160.18 128.90 C 160.29 130.20 160.41 131.51 160.56 132.81 L 160.65 133.41 C 162.83 134.03 165.03 134.53 167.21 135.15 C 167.53 135.24 168.17 135.42 168.49 135.51 C 169.43 134.29 170.37 133.07 171.31 131.86 C 171.30 132.98 171.28 135.22 171.27 136.34 C 171.80 136.34 172.85 136.33 173.38 136.32 C 172.48 138.54 171.53 140.79 169.78 142.49 C 168.47 142.11 166.99 140.31 165.71 141.68 C 164.64 142.49 163.71 143.45 162.75 144.38 C 163.89 145.00 165.03 145.61 166.17 146.23 C 165.56 146.86 164.96 147.49 164.36 148.13 C 162.49 147.70 160.58 147.23 158.67 147.66 C 160.44 144.84 162.76 141.81 162.56 138.32 C 161.65 135.63 158.22 136.29 156.01 135.95 C 149.21 135.92 142.41 135.68 135.65 134.78 C 134.85 134.63 134.06 134.46 133.27 134.27 C 132.61 133.16 131.94 132.07 131.27 130.98 C 130.17 129.16 129.07 127.36 127.93 125.57 C 131.81 125.83 133.46 121.54 137.10 120.90 C 137.48 119.77 137.86 118.65 138.25 117.53 C 139.36 117.09 140.48 116.67 141.58 116.17 C 142.05 115.87 142.99 115.28 143.46 114.98 C 145.22 114.52 147.06 114.39 148.79 113.81 C 149.91 112.83 149.40 111.29 149.36 110.02 C 149.06 108.32 148.76 106.62 148.35 104.94 C 147.97 104.44 147.21 103.43 146.82 102.93 C 147.20 101.45 147.58 99.97 147.95 98.48 L 148.78 99.21 C 150.85 100.77 152.30 102.93 153.71 105.07 C 155.28 101.50 155.08 97.13 153.20 93.71 C 153.95 92.55 154.71 91.41 155.52 90.30 C 155.67 90.16 155.96 89.87 156.10 89.72 C 156.75 92.03 158.08 94.01 160.04 95.41 C 160.62 93.06 161.06 90.68 161.30 88.28 C 163.77 90.24 162.60 93.45 162.44 96.10 C 163.59 95.99 164.75 95.89 165.91 95.78 C 166.31 94.02 166.74 92.22 166.59 90.40 C 166.38 86.60 166.03 82.63 168.03 79.21 C 168.67 77.67 169.27 76.12 169.87 74.57 C 170.34 74.56 171.29 74.53 171.76 74.51 C 173.91 74.46 175.65 73.15 177.31 71.93 C 175.56 69.85 172.97 69.40 170.42 69.23 C 170.60 70.26 170.79 71.28 171.00 72.31 C 168.68 70.91 166.35 69.52 163.99 68.18 C 162.86 69.40 161.73 70.62 160.60 71.84 C 158.80 71.69 157.00 71.53 155.19 71.44 C 153.60 71.39 152.02 71.36 150.44 71.35 C 149.51 70.59 148.58 69.81 147.66 69.04 C 147.83 71.81 147.72 74.61 147.00 77.30 C 145.03 74.77 143.50 71.94 141.61 69.37 C 140.37 69.38 139.15 69.60 137.93 69.77 C 138.88 75.55 138.29 81.39 138.29 87.20 C 137.87 90.30 137.25 93.37 136.43 96.40 C 136.91 96.44 137.88 96.51 138.36 96.55 C 137.36 97.57 136.36 98.60 135.43 99.69 C 135.13 97.29 134.89 94.88 134.81 92.46 C 135.75 91.12 136.21 89.52 136.07 87.89 C 136.33 83.01 138.88 77.04 135.06 72.96 C 134.06 71.43 132.12 71.92 130.59 71.71 C 130.87 73.70 131.18 75.69 131.48 77.69 C 131.12 77.51 130.40 77.15 130.04 76.97 C 128.38 76.09 126.91 74.85 125.14 74.21 C 123.54 74.44 122.09 75.22 120.60 75.81 C 121.87 76.19 123.15 76.57 124.42 76.99 L 124.89 77.71 C 124.24 78.95 123.59 80.19 122.95 81.44 C 121.91 80.69 120.86 79.97 119.81 79.26 C 119.04 80.07 118.27 80.89 117.51 81.71 C 117.61 82.46 117.73 83.20 117.86 83.95 C 116.02 84.27 114.17 84.60 112.33 84.93 C 111.73 83.71 111.12 82.48 110.52 81.26 C 110.17 81.37 109.46 81.59 109.10 81.70 C 106.65 81.79 107.14 84.86 109.53 84.07 C 109.58 85.87 109.57 87.75 108.40 89.24 C 106.73 87.63 105.82 84.03 102.89 85.02 C 102.92 87.74 104.94 89.95 105.96 92.39 C 105.14 92.52 103.50 92.77 102.68 92.90 C 102.32 92.96 101.59 93.08 101.23 93.14 C 101.12 93.41 100.89 93.96 100.78 94.23 C 100.47 95.02 100.18 95.81 99.89 96.61 C 99.51 97.23 98.75 98.46 98.38 99.08 C 97.97 98.51 97.16 97.37 96.75 96.80 C 95.99 95.78 95.21 94.79 94.42 93.80 C 93.67 95.41 92.92 97.03 92.19 98.66 C 91.38 98.15 90.58 97.65 89.77 97.15 C 89.08 97.75 88.39 98.35 87.70 98.95 C 89.78 104.26 89.22 109.90 88.99 115.45 C 92.81 112.78 92.19 107.37 91.33 103.37 C 91.79 103.27 92.70 103.05 93.16 102.95 C 93.56 107.46 93.13 111.98 93.22 116.50 L 93.19 117.35 C 93.11 118.52 93.11 119.70 93.05 120.87 C 93.54 120.51 94.54 119.77 95.04 119.41 C 95.99 119.99 96.95 120.57 97.90 121.16 C 99.26 120.80 100.64 120.45 101.99 120.04 C 102.20 121.26 102.41 122.48 102.61 123.71 C 101.05 125.25 99.32 126.84 99.35 129.22 C 95.39 128.43 91.31 128.09 87.55 126.51 C 85.41 130.47 83.50 134.56 81.67 138.68 C 79.06 140.59 75.95 141.95 73.99 144.63 C 71.49 147.82 66.88 148.24 64.34 151.42 C 62.12 154.12 62.79 157.86 61.71 160.99 C 59.45 162.61 59.92 157.66 59.46 156.68 C 56.99 158.70 55.77 161.70 56.09 164.88 C 54.38 163.90 53.80 162.00 53.13 160.28 C 52.38 161.34 51.60 162.40 50.80 163.43 C 50.41 160.63 50.34 156.77 53.37 155.38 C 57.90 153.37 59.62 148.21 63.81 145.78 C 68.04 143.18 71.50 139.57 75.54 136.72 C 77.19 131.18 80.34 125.98 80.37 120.04 C 78.82 118.11 76.70 116.77 74.81 115.21 C 75.81 115.19 77.82 115.15 78.82 115.13 C 77.24 113.04 75.58 111.02 73.86 109.05 C 74.17 108.81 74.81 108.33 75.13 108.08 L 76.08 107.34 C 75.23 104.85 73.95 102.54 72.64 100.27 C 70.54 95.44 70.34 90.13 70.22 84.94 C 70.32 84.54 70.52 83.72 70.62 83.31 C 71.33 82.22 71.76 81.05 71.92 79.78 C 72.00 79.18 72.18 77.99 72.27 77.40 C 72.64 76.34 72.99 75.28 73.31 74.21 C 74.68 71.99 75.71 69.35 74.43 66.82 C 74.55 66.20 74.78 64.95 74.90 64.33 C 74.78 63.87 74.53 62.94 74.41 62.48 C 74.24 61.97 73.91 60.95 73.74 60.43 C 70.77 61.58 71.57 58.64 71.86 57.32 C 71.36 57.03 70.38 56.44 69.88 56.15 C 69.35 56.31 68.29 56.62 67.76 56.78 M 201.59 57.61 C 201.37 59.29 201.17 61.00 201.59 62.67 C 202.94 61.96 205.02 61.83 205.49 60.06 C 205.98 57.56 203.50 56.80 201.59 57.61 M 195.50 59.63 C 195.41 61.03 195.31 62.42 195.21 63.82 C 196.63 63.67 198.06 63.52 199.48 63.38 C 199.58 62.04 199.82 60.68 199.60 59.34 C 198.35 57.86 196.86 59.06 195.50 59.63 M 190.70 60.36 C 190.69 61.23 190.67 62.96 190.65 63.83 C 188.84 63.79 187.17 63.16 185.61 62.28 C 185.37 63.55 185.12 64.82 184.87 66.09 C 185.16 66.65 185.72 67.78 186.01 68.34 C 187.35 67.41 188.65 66.40 189.91 65.34 C 191.16 65.41 192.41 65.49 193.66 65.57 C 194.16 63.25 193.63 60.29 190.70 60.36 M 180.04 70.93 C 181.87 70.70 182.99 69.12 184.06 67.81 C 183.54 67.52 182.49 66.93 181.97 66.64 C 179.03 64.26 176.27 70.96 180.04 70.93 M 73.34 82.90 C 74.25 83.24 75.16 83.59 76.07 83.94 C 76.32 80.73 77.60 77.23 76.09 74.20 C 73.97 76.60 73.94 79.92 73.34 82.90 M 79.95 75.91 C 79.73 77.48 79.55 79.04 79.37 80.61 C 79.92 80.58 81.03 80.53 81.58 80.50 C 81.82 78.67 82.48 76.28 79.95 75.91 M 114.16 78.29 C 113.74 79.50 114.10 80.34 115.23 80.80 C 117.12 80.14 118.54 78.66 119.40 76.88 C 117.63 77.24 115.84 77.61 114.16 78.29 M 79.17 83.04 C 78.59 84.70 79.10 85.28 80.71 84.78 C 81.28 83.11 80.77 82.53 79.17 83.04 M 74.02 94.69 C 76.02 92.27 75.73 89.03 75.36 86.14 C 71.35 87.33 72.88 91.90 74.02 94.69 M 79.07 88.04 C 77.00 90.55 78.48 93.92 78.85 96.75 C 81.49 95.26 80.19 91.20 80.44 88.50 C 80.10 88.39 79.41 88.16 79.07 88.04 M 98.38 89.30 C 96.89 90.60 99.19 92.89 100.47 91.39 C 102.01 90.04 99.73 87.71 98.38 89.30 M 81.34 98.37 C 80.70 99.66 80.06 100.95 79.42 102.25 C 80.22 101.93 81.02 101.63 81.83 101.36 C 81.73 102.14 81.49 102.87 81.09 103.56 L 79.32 102.91 C 75.42 104.35 79.33 106.82 80.84 108.39 C 81.52 107.87 82.21 107.36 82.87 106.81 C 83.02 107.37 83.33 108.48 83.49 109.04 L 82.81 109.26 C 84.65 110.32 86.32 111.63 87.85 113.11 C 87.81 110.39 88.52 107.29 86.85 104.91 C 88.19 103.50 87.52 100.44 85.68 99.78 C 85.75 99.44 85.90 98.75 85.97 98.40 C 84.43 98.39 82.88 98.38 81.34 98.37 M 76.66 108.73 C 77.75 110.64 79.44 112.06 81.34 113.13 C 81.24 111.81 81.13 110.50 80.98 109.19 C 79.55 108.88 78.11 108.73 76.66 108.73 M 79.92 116.83 C 81.74 118.62 84.30 119.02 86.49 117.61 C 87.34 118.00 88.19 118.40 89.05 118.80 C 88.88 118.31 88.55 117.34 88.39 116.85 C 86.48 115.51 84.82 113.89 83.31 112.12 C 82.16 113.76 82.14 116.12 79.92 116.83 M 94.77 121.71 C 94.48 123.93 94.52 126.54 97.12 127.25 C 97.69 125.08 98.32 121.25 94.77 121.71 Z" />
</g>
<g id="#a4a794ff">
<path fill="#a4a794" opacity="1.00" d=" M 224.63 51.56 C 225.48 50.84 226.58 50.54 227.58 50.09 C 227.98 51.26 228.39 52.43 228.80 53.60 C 227.53 54.35 226.26 55.09 224.99 55.83 C 224.56 54.46 223.91 52.95 224.63 51.56 Z" />
</g>
<g id="#7e7c80ff">
<path fill="#7e7c80" opacity="1.00" d=" M 74.40 51.15 C 75.41 49.61 77.87 51.40 76.71 52.83 C 75.70 54.35 73.25 52.57 74.40 51.15 Z" />
</g>
<g id="#786069ff">
<path fill="#786069" opacity="1.00" d=" M 35.15 54.78 C 37.67 52.21 41.38 52.22 44.70 51.76 C 41.96 53.79 38.20 53.35 35.15 54.78 Z" />
<path fill="#786069" opacity="1.00" d=" M 74.60 152.72 C 78.01 152.17 78.10 147.90 81.04 146.57 C 79.21 150.75 77.92 155.12 77.78 159.72 C 77.04 157.20 77.51 154.58 77.55 152.02 C 76.28 152.97 75.17 154.12 74.03 155.23 C 73.21 152.63 74.11 150.02 75.78 148.00 C 75.31 149.55 74.96 151.13 74.60 152.72 Z" />
<path fill="#786069" opacity="1.00" d=" M 134.51 180.99 C 136.27 179.57 138.12 178.28 140.07 177.14 C 139.57 178.37 139.07 179.62 138.50 180.83 C 137.47 178.60 135.92 180.12 134.51 180.99 Z" />
<path fill="#786069" opacity="1.00" d=" M 130.48 191.53 C 131.71 190.72 132.95 189.92 134.20 189.14 C 133.26 191.90 131.02 194.34 131.41 197.42 L 131.40 198.31 C 130.24 196.29 130.27 193.93 130.26 191.67 L 130.48 191.53 Z" />
<path fill="#786069" opacity="1.00" d=" M 91.31 213.06 C 92.08 210.98 93.28 209.10 94.76 207.46 C 93.94 211.56 96.35 215.71 94.56 219.71 C 92.59 218.05 91.66 215.54 91.31 213.06 Z" />
</g>
<g id="#8c878aff">
<path fill="#8c878a" opacity="1.00" d=" M 218.89 52.41 C 219.42 52.15 220.47 51.63 221.00 51.37 C 221.42 53.30 221.83 55.23 222.22 57.17 C 221.39 57.10 219.72 56.96 218.88 56.89 C 218.87 55.39 218.85 53.90 218.89 52.41 Z" />
</g>
<g id="#949381ff">
<path fill="#949381" opacity="1.00" d=" M 211.74 54.77 C 212.96 54.65 214.19 54.53 215.42 54.42 C 215.58 55.56 215.70 56.71 215.78 57.86 C 215.10 59.06 213.32 58.60 212.20 59.06 C 212.04 57.63 211.89 56.20 211.74 54.77 Z" />
</g>
<g id="#84817fff">
<path fill="#84817f" opacity="1.00" d=" M 77.19 55.22 C 78.67 54.02 80.16 56.69 78.84 57.70 C 77.35 58.89 75.89 56.23 77.19 55.22 Z" />
</g>
<g id="#62546eff">
<path fill="#62546e" opacity="1.00" d=" M 67.76 56.78 C 68.29 56.62 69.35 56.31 69.88 56.15 C 70.38 56.44 71.36 57.03 71.86 57.32 C 71.57 58.64 70.77 61.58 73.74 60.43 C 73.91 60.95 74.24 61.97 74.41 62.48 C 73.65 62.84 72.14 63.57 71.38 63.94 C 72.40 64.89 73.42 65.85 74.43 66.82 C 75.71 69.35 74.68 71.99 73.31 74.21 C 70.30 72.03 69.39 76.49 72.27 77.40 C 72.18 77.99 72.00 79.18 71.92 79.78 C 69.39 77.77 69.09 82.02 70.62 83.31 C 70.52 83.72 70.32 84.54 70.22 84.94 C 68.20 81.95 67.59 78.36 67.41 74.82 C 68.22 70.25 68.86 65.62 68.26 60.98 C 68.14 59.57 67.98 58.17 67.76 56.78 M 73.33 67.79 C 72.04 68.63 71.55 71.44 72.99 72.29 C 74.39 71.58 75.03 68.39 73.33 67.79 Z" />
</g>
<g id="#9b9d94ff">
<path fill="#9b9d94" opacity="1.00" d=" M 207.24 56.33 C 207.86 56.29 209.12 56.20 209.75 56.16 C 209.91 57.58 210.06 59.00 210.23 60.43 C 208.92 60.50 207.61 60.51 206.30 60.53 C 206.61 59.13 206.92 57.73 207.24 56.33 Z" />
</g>
<g id="#8d8e85ff">
<path fill="#8d8e85" opacity="1.00" d=" M 201.59 57.61 C 203.50 56.80 205.98 57.56 205.49 60.06 C 205.02 61.83 202.94 61.96 201.59 62.67 C 201.17 61.00 201.37 59.29 201.59 57.61 Z" />
</g>
<g id="#a1a491ff">
<path fill="#a1a491" opacity="1.00" d=" M 195.50 59.63 C 196.86 59.06 198.35 57.86 199.60 59.34 C 199.82 60.68 199.58 62.04 199.48 63.38 C 198.06 63.52 196.63 63.67 195.21 63.82 C 195.31 62.42 195.41 61.03 195.50 59.63 Z" />
</g>
<g id="#7b6187ff">
<path fill="#7b6187" opacity="1.00" d=" M 38.16 61.76 C 39.51 60.84 40.94 60.07 42.42 59.40 C 43.20 59.42 44.75 59.46 45.53 59.48 C 44.39 61.39 44.06 64.71 41.27 64.84 C 40.05 64.01 39.16 62.82 38.16 61.76 Z" />
</g>
<g id="#878983ff">
<path fill="#878983" opacity="1.00" d=" M 190.70 60.36 C 193.63 60.29 194.16 63.25 193.66 65.57 C 192.41 65.49 191.16 65.41 189.91 65.34 C 188.65 66.40 187.35 67.41 186.01 68.34 C 185.72 67.78 185.16 66.65 184.87 66.09 C 185.12 64.82 185.37 63.55 185.61 62.28 C 187.17 63.16 188.84 63.79 190.65 63.83 C 190.67 62.96 190.69 61.23 190.70 60.36 Z" />
</g>
<g id="#91918eff">
<path fill="#91918e" opacity="1.00" d=" M 71.38 63.94 C 72.14 63.57 73.65 62.84 74.41 62.48 C 74.53 62.94 74.78 63.87 74.90 64.33 C 74.78 64.95 74.55 66.20 74.43 66.82 C 73.42 65.85 72.40 64.89 71.38 63.94 Z" />
</g>
<g id="#a1a399ff">
<path fill="#a1a399" opacity="1.00" d=" M 208.47 64.27 C 208.97 64.07 209.96 63.68 210.46 63.48 C 210.34 64.00 210.10 65.05 209.98 65.58 C 208.31 65.95 206.62 66.18 204.94 66.44 C 203.81 68.03 202.54 69.70 200.48 70.00 C 196.93 70.66 194.11 72.91 191.22 74.88 C 187.46 77.57 182.58 78.49 179.55 82.20 C 179.30 80.81 179.03 79.42 178.75 78.04 C 184.36 73.84 190.93 70.93 197.66 68.98 C 200.66 67.42 203.41 65.05 207.04 65.52 C 207.40 65.21 208.11 64.59 208.47 64.27 Z" />
</g>
<g id="#847b87ff">
<path fill="#847b87" opacity="1.00" d=" M 27.65 69.19 C 29.03 67.96 30.52 66.88 32.00 65.80 C 32.86 65.91 34.57 66.12 35.42 66.23 C 33.34 68.30 30.40 68.67 27.65 69.19 Z" />
<path fill="#847b87" opacity="1.00" d=" M 105.98 130.69 C 106.55 129.40 107.21 128.15 107.89 126.91 C 109.74 131.13 111.68 135.32 113.17 139.70 C 109.24 140.40 105.24 140.60 101.26 140.37 C 104.22 143.08 102.36 147.45 102.83 150.96 C 102.68 149.04 102.64 147.11 102.58 145.20 C 101.94 144.18 100.27 143.14 102.18 141.85 C 97.85 142.06 93.27 140.98 89.11 142.54 C 89.27 142.36 89.58 142.00 89.73 141.83 C 92.31 141.40 94.91 141.13 97.49 140.70 C 93.93 139.97 90.31 139.60 86.68 139.61 C 86.79 139.17 87.02 138.28 87.14 137.84 C 90.51 136.92 94.00 138.09 97.37 138.50 C 98.05 138.14 98.74 137.78 99.42 137.42 C 100.20 137.76 100.97 138.10 101.75 138.44 C 102.50 138.08 103.26 137.72 104.02 137.37 C 106.04 137.82 108.06 138.28 110.08 138.72 C 109.54 136.66 109.00 134.60 108.46 132.53 C 107.63 131.92 106.81 131.31 105.98 130.69 Z" />
</g>
<g id="#8d8b83ff">
<path fill="#8d8b83" opacity="1.00" d=" M 180.04 70.93 C 176.27 70.96 179.03 64.26 181.97 66.64 C 182.49 66.93 183.54 67.52 184.06 67.81 C 182.99 69.12 181.87 70.70 180.04 70.93 Z" />
</g>
<g id="#a6a5a3ff">
<path fill="#a6a5a3" opacity="1.00" d=" M 73.33 67.79 C 75.03 68.39 74.39 71.58 72.99 72.29 C 71.55 71.44 72.04 68.63 73.33 67.79 Z" />
</g>
<g id="#6a5d66ff">
<path fill="#6a5d66" opacity="1.00" d=" M 137.93 69.77 C 139.15 69.60 140.37 69.38 141.61 69.37 C 143.50 71.94 145.03 74.77 147.00 77.30 C 146.62 78.88 146.20 80.45 145.79 82.03 C 146.25 82.02 147.17 82.02 147.63 82.02 C 147.22 82.63 146.82 83.24 146.42 83.86 C 145.80 83.93 144.55 84.07 143.92 84.14 C 144.45 82.16 145.05 79.88 143.49 78.17 C 143.57 77.13 143.68 76.09 143.77 75.05 C 142.65 75.17 141.53 75.30 140.41 75.42 C 140.60 77.94 139.21 81.33 141.89 82.91 C 141.37 84.63 140.86 86.35 140.20 88.02 C 140.02 86.97 139.82 85.92 139.60 84.88 C 139.27 85.46 138.62 86.62 138.29 87.20 C 138.29 81.39 138.88 75.55 137.93 69.77 Z" />
</g>
<g id="#85857bff">
<path fill="#85857b" opacity="1.00" d=" M 147.66 69.04 C 148.58 69.81 149.51 70.59 150.44 71.35 C 151.02 71.81 152.17 72.73 152.75 73.19 C 151.40 76.33 149.62 79.25 147.63 82.02 C 147.17 82.02 146.25 82.02 145.79 82.03 C 146.20 80.45 146.62 78.88 147.00 77.30 C 147.72 74.61 147.83 71.81 147.66 69.04 Z" />
</g>
<g id="#584d5cff">
<path fill="#584d5c" opacity="1.00" d=" M 160.60 71.84 C 161.73 70.62 162.86 69.40 163.99 68.18 C 166.35 69.52 168.68 70.91 171.00 72.31 C 171.19 72.86 171.57 73.96 171.76 74.51 C 171.29 74.53 170.34 74.56 169.87 74.57 C 169.27 76.12 168.67 77.67 168.03 79.21 C 169.14 76.12 168.76 70.57 164.16 71.64 C 164.31 77.96 165.63 84.17 166.59 90.40 C 166.74 92.22 166.31 94.02 165.91 95.78 C 164.75 95.89 163.59 95.99 162.44 96.10 C 162.60 93.45 163.77 90.24 161.30 88.28 C 160.98 83.53 160.48 78.78 160.52 74.00 C 160.54 73.46 160.58 72.38 160.60 71.84 Z" />
</g>
<g id="#8d8f7cff">
<path fill="#8d8f7c" opacity="1.00" d=" M 170.42 69.23 C 172.97 69.40 175.56 69.85 177.31 71.93 C 175.65 73.15 173.91 74.46 171.76 74.51 C 171.57 73.96 171.19 72.86 171.00 72.31 C 170.79 71.28 170.60 70.26 170.42 69.23 Z" />
</g>
<g id="#51495cff">
<path fill="#51495c" opacity="1.00" d=" M 150.44 71.35 C 152.02 71.36 153.60 71.39 155.19 71.44 C 155.30 72.54 155.43 73.63 155.58 74.73 C 154.32 76.85 153.07 78.98 151.91 81.16 C 151.60 83.19 152.44 85.09 153.51 86.76 C 152.72 88.12 151.95 89.48 151.17 90.84 C 149.42 89.57 147.13 88.45 145.41 90.47 C 144.95 93.01 145.99 95.51 146.15 98.04 C 145.73 100.85 142.55 99.70 140.67 99.54 C 139.87 100.64 138.77 101.61 138.35 102.94 C 138.57 104.18 139.41 105.19 140.07 106.24 C 141.20 106.42 142.34 106.56 143.48 106.67 C 144.17 108.32 144.89 109.96 145.68 111.57 C 146.90 111.05 148.13 110.53 149.36 110.02 C 149.40 111.29 149.91 112.83 148.79 113.81 C 147.06 114.39 145.22 114.52 143.46 114.98 C 142.26 112.71 141.47 109.81 139.00 108.58 C 136.98 108.20 135.86 110.16 134.52 111.26 C 134.53 112.76 134.49 114.27 134.45 115.78 C 133.21 116.14 131.96 116.50 130.72 116.86 C 130.84 118.20 130.95 119.54 131.07 120.88 C 130.14 121.39 129.21 121.89 128.28 122.41 C 129.14 120.04 129.45 117.53 129.75 115.04 C 130.61 114.66 131.48 114.29 132.35 113.91 C 131.74 111.98 130.58 109.80 131.97 107.91 C 134.19 104.65 137.09 101.81 138.64 98.11 C 138.57 97.72 138.43 96.94 138.36 96.55 C 137.72 93.55 139.21 90.75 140.20 88.02 C 140.86 86.35 141.37 84.63 141.89 82.91 C 142.42 81.33 142.95 79.75 143.49 78.17 C 145.05 79.88 144.45 82.16 143.92 84.14 C 143.27 85.89 142.68 87.67 142.17 89.47 C 144.11 88.04 145.35 85.97 146.42 83.86 C 146.82 83.24 147.22 82.63 147.63 82.02 C 149.62 79.25 151.40 76.33 152.75 73.19 C 152.17 72.73 151.02 71.81 150.44 71.35 Z" />
</g>
<g id="#93948aff">
<path fill="#93948a" opacity="1.00" d=" M 155.19 71.44 C 157.00 71.53 158.80 71.69 160.60 71.84 C 160.58 72.38 160.54 73.46 160.52 74.00 C 159.35 75.36 158.07 76.62 156.80 77.89 C 156.37 76.84 155.97 75.79 155.58 74.73 C 155.43 73.63 155.30 72.54 155.19 71.44 Z" />
<path fill="#93948a" opacity="1.00" d=" M 139.60 84.88 C 139.82 85.92 140.02 86.97 140.20 88.02 C 139.21 90.75 137.72 93.55 138.36 96.55 C 137.88 96.51 136.91 96.44 136.43 96.40 C 137.25 93.37 137.87 90.30 138.29 87.20 C 138.62 86.62 139.27 85.46 139.60 84.88 Z" />
</g>
<g id="#5f5965ff">
<path fill="#5f5965" opacity="1.00" d=" M 130.59 71.71 C 132.12 71.92 134.06 71.43 135.06 72.96 C 138.88 77.04 136.33 83.01 136.07 87.89 C 133.26 87.49 133.46 90.98 134.81 92.46 C 134.89 94.88 135.13 97.29 135.43 99.69 C 134.92 100.50 134.44 101.31 133.96 102.13 C 133.37 102.34 132.17 102.76 131.58 102.97 C 132.08 99.34 131.02 95.78 130.42 92.24 C 131.17 92.23 132.65 92.21 133.40 92.21 C 131.97 91.50 130.54 90.81 129.11 90.12 C 128.52 92.99 128.38 95.93 128.81 98.83 C 127.45 97.74 126.00 96.75 124.50 95.85 C 124.95 98.76 126.53 102.66 124.89 105.01 C 122.04 104.87 122.64 101.23 122.23 99.25 C 121.76 99.29 120.82 99.36 120.35 99.39 C 120.89 102.38 121.38 105.38 121.81 108.39 L 120.08 108.37 C 119.92 107.78 119.59 106.61 119.43 106.02 C 117.92 108.01 116.35 109.95 114.72 111.83 C 113.37 110.91 112.00 110.00 110.76 108.93 C 110.71 107.18 111.18 105.48 111.50 103.78 C 110.87 103.61 109.62 103.29 109.00 103.13 C 109.42 106.20 110.52 109.17 110.60 112.29 C 109.29 111.32 108.18 109.39 106.30 110.30 C 104.55 107.96 102.73 105.68 100.75 103.53 C 99.87 103.83 98.99 104.14 98.11 104.44 C 100.51 106.26 102.82 108.24 104.55 110.74 C 101.20 109.49 98.12 107.57 94.63 106.68 C 95.10 109.47 97.86 110.23 100.04 111.31 C 98.27 111.33 96.50 111.36 94.74 111.39 C 94.23 113.09 93.70 114.79 93.22 116.50 C 93.13 111.98 93.56 107.46 93.16 102.95 C 92.88 101.51 92.53 100.08 92.19 98.66 C 92.92 97.03 93.67 95.41 94.42 93.80 C 95.21 94.79 95.99 95.78 96.75 96.80 C 96.65 97.54 96.45 99.02 96.34 99.76 C 95.21 99.26 94.08 98.75 92.95 98.26 C 95.11 99.65 97.28 101.01 99.45 102.39 C 100.15 100.52 100.89 98.52 99.89 96.61 C 100.18 95.81 100.47 95.02 100.78 94.23 C 103.28 95.97 103.99 99.69 107.05 100.58 C 110.12 97.31 105.02 94.56 102.68 92.90 C 103.50 92.77 105.14 92.52 105.96 92.39 C 104.94 89.95 102.92 87.74 102.89 85.02 C 105.82 84.03 106.73 87.63 108.40 89.24 C 109.57 87.75 109.58 85.87 109.53 84.07 C 109.65 83.22 109.51 82.43 109.10 81.70 C 109.46 81.59 110.17 81.37 110.52 81.26 C 111.12 82.48 111.73 83.71 112.33 84.93 C 114.17 84.60 116.02 84.27 117.86 83.95 C 118.72 85.31 119.70 86.60 120.73 87.84 C 121.94 89.25 123.18 90.64 124.41 92.04 C 125.46 91.09 126.74 90.28 127.34 88.95 C 127.10 87.42 126.62 85.95 126.13 84.50 C 125.14 83.40 124.08 82.37 122.95 81.44 C 123.59 80.19 124.24 78.95 124.89 77.71 C 126.90 80.75 127.56 85.14 131.25 86.70 C 130.90 83.45 130.40 80.22 130.04 76.97 C 130.40 77.15 131.12 77.51 131.48 77.69 C 131.18 75.69 130.87 73.70 130.59 71.71 M 133.42 76.24 C 133.03 78.68 132.24 81.21 133.19 83.63 C 133.95 83.70 135.48 83.85 136.25 83.93 C 136.19 81.47 135.81 79.05 135.30 76.65 C 134.83 76.55 133.89 76.34 133.42 76.24 M 112.42 88.92 C 112.51 92.47 115.65 95.47 118.61 97.16 C 119.38 96.35 120.15 95.55 120.94 94.75 C 120.61 93.30 120.26 91.86 119.90 90.42 C 117.80 89.53 115.79 88.43 113.74 87.43 C 113.41 87.80 112.75 88.55 112.42 88.92 M 106.77 89.48 C 106.02 93.69 109.50 98.90 114.09 98.06 C 113.50 94.04 109.84 91.64 106.77 89.48 M 103.02 100.95 C 103.23 103.59 104.54 106.12 107.00 107.33 C 106.64 104.78 106.15 101.37 103.02 100.95 M 114.31 107.97 C 115.60 106.60 116.90 105.23 118.21 103.87 C 117.22 102.84 116.10 101.93 114.86 101.22 C 114.50 103.39 112.50 106.00 114.31 107.97 Z" />
</g>
<g id="#929188ff">
<path fill="#929188" opacity="1.00" d=" M 164.16 71.64 C 168.76 70.57 169.14 76.12 168.03 79.21 C 166.03 82.63 166.38 86.60 166.59 90.40 C 165.63 84.17 164.31 77.96 164.16 71.64 Z" />
</g>
<g id="#98999dff">
<path fill="#98999d" opacity="1.00" d=" M 72.27 77.40 C 69.39 76.49 70.30 72.03 73.31 74.21 C 72.99 75.28 72.64 76.34 72.27 77.40 Z" />
</g>
<g id="#7a7077ff">
<path fill="#7a7077" opacity="1.00" d=" M 120.60 75.81 C 122.09 75.22 123.54 74.44 125.14 74.21 C 126.91 74.85 128.38 76.09 130.04 76.97 C 130.40 80.22 130.90 83.45 131.25 86.70 C 127.56 85.14 126.90 80.75 124.89 77.71 L 124.42 76.99 C 123.15 76.57 121.87 76.19 120.60 75.81 Z" />
</g>
<g id="#615f65ff">
<path fill="#615f65" opacity="1.00" d=" M 156.80 77.89 C 158.07 76.62 159.35 75.36 160.52 74.00 C 160.48 78.78 160.98 83.53 161.30 88.28 C 161.06 90.68 160.62 93.06 160.04 95.41 C 158.08 94.01 156.75 92.03 156.10 89.72 C 157.20 88.88 158.32 88.08 159.45 87.29 C 160.05 84.60 160.66 81.73 159.14 79.21 C 158.57 79.33 157.43 79.57 156.86 79.69 C 155.18 80.07 153.54 80.62 151.91 81.16 C 153.07 78.98 154.32 76.85 155.58 74.73 C 155.97 75.79 156.37 76.84 156.80 77.89 Z" />
</g>
<g id="#5d5469ff">
<path fill="#5d5469" opacity="1.00" d=" M 66.68 104.27 C 63.08 94.68 65.35 84.46 67.41 74.82 C 67.59 78.36 68.20 81.95 70.22 84.94 C 70.34 90.13 70.54 95.44 72.64 100.27 C 71.30 103.26 73.54 105.78 75.13 108.08 C 74.81 108.33 74.17 108.81 73.86 109.05 C 72.31 107.27 70.74 105.50 69.19 103.72 C 69.38 105.70 69.51 107.69 69.46 109.68 C 69.05 109.02 68.21 107.71 67.79 107.05 C 68.08 103.22 70.66 98.35 67.10 95.34 C 66.94 98.31 66.79 101.29 66.68 104.27 Z" />
</g>
<g id="#605568ff">
<path fill="#605568" opacity="1.00" d=" M 73.34 82.90 C 73.94 79.92 73.97 76.60 76.09 74.20 C 77.60 77.23 76.32 80.73 76.07 83.94 C 75.16 83.59 74.25 83.24 73.34 82.90 Z" />
</g>
<g id="#8a8e82ff">
<path fill="#8a8e82" opacity="1.00" d=" M 140.41 75.42 C 141.53 75.30 142.65 75.17 143.77 75.05 C 143.68 76.09 143.57 77.13 143.49 78.17 C 142.95 79.75 142.42 81.33 141.89 82.91 C 139.21 81.33 140.60 77.94 140.41 75.42 Z" />
</g>
<g id="#8f9287ff">
<path fill="#8f9287" opacity="1.00" d=" M 79.95 75.91 C 82.48 76.28 81.82 78.67 81.58 80.50 C 81.03 80.53 79.92 80.58 79.37 80.61 C 79.55 79.04 79.73 77.48 79.95 75.91 Z" />
<path fill="#8f9287" opacity="1.00" d=" M 152.70 179.07 C 153.28 178.83 154.46 178.35 155.05 178.12 C 154.36 180.79 153.83 183.51 153.77 186.28 C 153.85 188.29 153.47 190.24 151.44 191.06 C 151.01 186.98 152.30 183.07 152.70 179.07 Z" />
</g>
<g id="#979790ff">
<path fill="#979790" opacity="1.00" d=" M 133.42 76.24 C 133.89 76.34 134.83 76.55 135.30 76.65 C 135.81 79.05 136.19 81.47 136.25 83.93 C 135.48 83.85 133.95 83.70 133.19 83.63 C 132.24 81.21 133.03 78.68 133.42 76.24 Z" />
<path fill="#979790" opacity="1.00" d=" M 104.98 186.80 C 105.70 185.85 106.41 184.90 107.14 183.97 C 106.45 185.36 105.83 186.80 105.20 188.23 C 104.72 188.51 103.77 189.09 103.30 189.37 C 103.11 189.86 102.75 190.83 102.56 191.31 C 100.08 193.70 98.47 196.83 96.03 199.29 C 96.69 197.81 97.38 196.36 98.09 194.91 C 97.74 193.90 97.39 192.89 97.02 191.89 C 97.85 192.65 98.79 192.97 99.83 192.85 C 100.68 191.42 99.37 190.16 98.89 188.89 L 100.65 188.95 L 100.77 190.72 C 101.35 190.06 101.91 189.39 102.46 188.71 C 102.19 188.15 101.65 187.01 101.38 186.44 C 102.58 186.57 103.78 186.68 104.98 186.80 Z" />
</g>
<g id="#727071ff">
<path fill="#727071" opacity="1.00" d=" M 114.16 78.29 C 115.84 77.61 117.63 77.24 119.40 76.88 C 118.54 78.66 117.12 80.14 115.23 80.80 C 114.10 80.34 113.74 79.50 114.16 78.29 Z" />
</g>
<g id="#706571ff">
<path fill="#706571" opacity="1.00" d=" M 172.51 81.45 C 173.79 79.17 176.62 79.08 178.75 78.04 C 179.03 79.42 179.30 80.81 179.55 82.20 C 175.50 84.12 172.65 87.59 169.02 90.09 C 167.33 86.54 170.74 84.08 172.51 81.45 Z" />
</g>
<g id="#969795ff">
<path fill="#969795" opacity="1.00" d=" M 70.62 83.31 C 69.09 82.02 69.39 77.77 71.92 79.78 C 71.76 81.05 71.33 82.22 70.62 83.31 Z" />
</g>
<g id="#83817eff">
<path fill="#83817e" opacity="1.00" d=" M 117.51 81.71 C 118.27 80.89 119.04 80.07 119.81 79.26 C 120.86 79.97 121.91 80.69 122.95 81.44 C 124.08 82.37 125.14 83.40 126.13 84.50 C 124.33 85.60 122.53 86.72 120.73 87.84 C 119.70 86.60 118.72 85.31 117.86 83.95 C 117.73 83.20 117.61 82.46 117.51 81.71 Z" />
</g>
<g id="#86867eff">
<path fill="#86867e" opacity="1.00" d=" M 151.91 81.16 C 153.54 80.62 155.18 80.07 156.86 79.69 C 157.10 83.00 156.42 86.26 155.21 89.33 C 154.64 88.47 154.07 87.62 153.51 86.76 C 152.44 85.09 151.60 83.19 151.91 81.16 Z" />
</g>
<g id="#a4a98dff">
<path fill="#a4a98d" opacity="1.00" d=" M 156.86 79.69 C 157.43 79.57 158.57 79.33 159.14 79.21 C 160.66 81.73 160.05 84.60 159.45 87.29 C 158.32 88.08 157.20 88.88 156.10 89.72 C 155.96 89.87 155.67 90.16 155.52 90.30 L 155.21 89.33 C 156.42 86.26 157.10 83.00 156.86 79.69 Z" />
</g>
<g id="#7f7587ff">
<path fill="#7f7587" opacity="1.00" d=" M 109.53 84.07 C 107.14 84.86 106.65 81.79 109.10 81.70 C 109.51 82.43 109.65 83.22 109.53 84.07 Z" />
</g>
<g id="#7d767cff">
<path fill="#7d767c" opacity="1.00" d=" M 79.17 83.04 C 80.77 82.53 81.28 83.11 80.71 84.78 C 79.10 85.28 78.59 84.70 79.17 83.04 Z" />
</g>
<g id="#7c737bff">
<path fill="#7c737b" opacity="1.00" d=" M 143.92 84.14 C 144.55 84.07 145.80 83.93 146.42 83.86 C 145.35 85.97 144.11 88.04 142.17 89.47 C 142.68 87.67 143.27 85.89 143.92 84.14 Z" />
</g>
<g id="#9fa38cff">
<path fill="#9fa38c" opacity="1.00" d=" M 120.73 87.84 C 122.53 86.72 124.33 85.60 126.13 84.50 C 126.62 85.95 127.10 87.42 127.34 88.95 C 126.74 90.28 125.46 91.09 124.41 92.04 C 123.18 90.64 121.94 89.25 120.73 87.84 Z" />
</g>
<g id="#736877ff">
<path fill="#736877" opacity="1.00" d=" M 74.02 94.69 C 72.88 91.90 71.35 87.33 75.36 86.14 C 75.73 89.03 76.02 92.27 74.02 94.69 Z" />
</g>
<g id="#6f6b73ff">
<path fill="#6f6b73" opacity="1.00" d=" M 153.51 86.76 C 154.07 87.62 154.64 88.47 155.21 89.33 L 155.52 90.30 C 154.71 91.41 153.95 92.55 153.20 93.71 C 151.75 93.17 150.31 92.61 148.88 92.03 C 147.79 94.02 146.72 96.28 147.95 98.48 C 147.58 99.97 147.20 101.45 146.82 102.93 C 145.91 102.22 144.96 101.55 144.02 100.88 C 142.42 102.43 140.86 104.10 140.07 106.24 C 139.41 105.19 138.57 104.18 138.35 102.94 C 138.77 101.61 139.87 100.64 140.67 99.54 C 142.55 99.70 145.73 100.85 146.15 98.04 C 145.99 95.51 144.95 93.01 145.41 90.47 C 147.13 88.45 149.42 89.57 151.17 90.84 C 151.95 89.48 152.72 88.12 153.51 86.76 Z" />
<path fill="#6f6b73" opacity="1.00" d=" M 67.10 95.34 C 70.66 98.35 68.08 103.22 67.79 107.05 C 67.30 106.16 66.93 105.23 66.68 104.27 C 66.79 101.29 66.94 98.31 67.10 95.34 Z" />
</g>
<g id="#737078ff">
<path fill="#737078" opacity="1.00" d=" M 79.07 88.04 C 79.41 88.16 80.10 88.39 80.44 88.50 C 80.19 91.20 81.49 95.26 78.85 96.75 C 78.48 93.92 77.00 90.55 79.07 88.04 Z" />
</g>
<g id="#624953bd">
<path fill="#624953" opacity="0.74" d=" M 82.67 93.97 C 81.19 92.28 81.64 89.95 82.57 88.12 C 83.49 89.83 83.44 92.21 82.67 93.97 Z" />
</g>
<g id="#8a8e84ff">
<path fill="#8a8e84" opacity="1.00" d=" M 112.42 88.92 C 112.75 88.55 113.41 87.80 113.74 87.43 C 115.79 88.43 117.80 89.53 119.90 90.42 C 120.26 91.86 120.61 93.30 120.94 94.75 C 120.15 95.55 119.38 96.35 118.61 97.16 C 115.65 95.47 112.51 92.47 112.42 88.92 Z" />
</g>
<g id="#7f7f86ff">
<path fill="#7f7f86" opacity="1.00" d=" M 134.81 92.46 C 133.46 90.98 133.26 87.49 136.07 87.89 C 136.21 89.52 135.75 91.12 134.81 92.46 Z" />
</g>
<g id="#63586aff">
<path fill="#63586a" opacity="1.00" d=" M 98.38 89.30 C 99.73 87.71 102.01 90.04 100.47 91.39 C 99.19 92.89 96.89 90.60 98.38 89.30 Z" />
</g>
<g id="#868886ff">
<path fill="#868886" opacity="1.00" d=" M 106.77 89.48 C 109.84 91.64 113.50 94.04 114.09 98.06 C 109.50 98.90 106.02 93.69 106.77 89.48 Z" />
</g>
<g id="#a4a893ff">
<path fill="#a4a893" opacity="1.00" d=" M 129.11 90.12 C 130.54 90.81 131.97 91.50 133.40 92.21 C 132.65 92.21 131.17 92.23 130.42 92.24 C 131.02 95.78 132.08 99.34 131.58 102.97 C 129.64 107.52 127.27 112.23 122.62 114.54 C 122.77 111.66 125.92 109.11 124.81 106.32 C 122.81 107.03 122.89 110.09 121.65 111.70 C 119.92 112.50 119.46 110.38 118.59 109.38 C 118.97 109.13 119.71 108.62 120.08 108.37 L 121.81 108.39 C 121.38 105.38 120.89 102.38 120.35 99.39 C 120.82 99.36 121.76 99.29 122.23 99.25 C 122.64 101.23 122.04 104.87 124.89 105.01 C 126.53 102.66 124.95 98.76 124.50 95.85 C 126.00 96.75 127.45 97.74 128.81 98.83 C 128.38 95.93 128.52 92.99 129.11 90.12 Z" />
</g>
<g id="#a3a58cff">
<path fill="#a3a58c" opacity="1.00" d=" M 147.95 98.48 C 146.72 96.28 147.79 94.02 148.88 92.03 C 150.31 92.61 151.75 93.17 153.20 93.71 C 151.71 95.52 150.24 97.36 148.78 99.21 L 147.95 98.48 Z" />
</g>
<g id="#7d7c7cff">
<path fill="#7d7c7c" opacity="1.00" d=" M 101.23 93.14 C 101.59 93.08 102.32 92.96 102.68 92.90 C 105.02 94.56 110.12 97.31 107.05 100.58 C 103.99 99.69 103.28 95.97 100.78 94.23 C 100.89 93.96 101.12 93.41 101.23 93.14 Z" />
</g>
<g id="#83837bff">
<path fill="#83837b" opacity="1.00" d=" M 153.20 93.71 C 155.08 97.13 155.28 101.50 153.71 105.07 C 152.30 102.93 150.85 100.77 148.78 99.21 C 150.24 97.36 151.71 95.52 153.20 93.71 Z" />
</g>
<g id="#636469ff">
<path fill="#636469" opacity="1.00" d=" M 87.70 98.95 C 88.39 98.35 89.08 97.75 89.77 97.15 C 90.58 97.65 91.38 98.15 92.19 98.66 C 92.53 100.08 92.88 101.51 93.16 102.95 C 92.70 103.05 91.79 103.27 91.33 103.37 C 92.19 107.37 92.81 112.78 88.99 115.45 C 89.22 109.90 89.78 104.26 87.70 98.95 Z" />
</g>
<g id="#949792ff">
<path fill="#949792" opacity="1.00" d=" M 96.34 99.76 C 96.45 99.02 96.65 97.54 96.75 96.80 C 97.16 97.37 97.97 98.51 98.38 99.08 C 98.75 98.46 99.51 97.23 99.89 96.61 C 100.89 98.52 100.15 100.52 99.45 102.39 C 97.28 101.01 95.11 99.65 92.95 98.26 C 94.08 98.75 95.21 99.26 96.34 99.76 Z" />
<path fill="#949792" opacity="1.00" d=" M 167.47 131.38 C 169.53 131.33 171.60 131.28 173.67 131.24 C 173.93 132.24 174.19 133.25 174.44 134.26 C 174.17 134.77 173.64 135.80 173.38 136.32 C 172.85 136.33 171.80 136.34 171.27 136.34 C 171.28 135.22 171.30 132.98 171.31 131.86 C 170.37 133.07 169.43 134.29 168.49 135.51 C 168.17 135.42 167.53 135.24 167.21 135.15 C 167.30 133.89 167.38 132.64 167.47 131.38 Z" />
</g>
<g id="#443251ff">
<path fill="#443251" opacity="1.00" d=" M 138.36 96.55 C 138.43 96.94 138.57 97.72 138.64 98.11 C 137.09 101.81 134.19 104.65 131.97 107.91 C 130.58 109.80 131.74 111.98 132.35 113.91 C 131.48 114.29 130.61 114.66 129.75 115.04 C 129.45 117.53 129.14 120.04 128.28 122.41 C 127.62 123.95 126.87 125.45 126.13 126.95 C 127.46 128.74 129.12 130.25 131.27 130.98 C 131.94 132.07 132.61 133.16 133.27 134.27 C 132.67 133.91 131.48 133.20 130.88 132.84 C 130.21 131.53 129.60 131.56 129.07 132.94 C 126.31 137.43 121.81 140.74 119.79 145.73 C 116.57 151.50 116.76 158.34 114.80 164.54 C 113.29 168.41 111.10 172.08 110.81 176.33 C 111.39 176.40 112.55 176.55 113.14 176.62 C 111.39 178.80 109.60 180.95 107.81 183.09 C 107.64 183.31 107.31 183.75 107.14 183.97 C 106.41 184.90 105.70 185.85 104.98 186.80 C 103.78 186.68 102.58 186.57 101.38 186.44 C 103.12 182.33 107.41 178.89 106.38 174.01 C 105.53 169.20 107.46 164.00 105.25 159.46 C 104.51 157.13 103.82 154.78 103.15 152.42 C 103.07 152.06 102.91 151.32 102.83 150.96 C 102.36 147.45 104.22 143.08 101.26 140.37 C 105.24 140.60 109.24 140.40 113.17 139.70 C 111.68 135.32 109.74 131.13 107.89 126.91 C 109.71 124.10 113.27 124.10 116.18 123.27 C 119.22 122.62 122.10 121.27 124.60 119.42 C 125.21 118.03 125.73 116.60 126.27 115.18 C 123.14 116.60 120.12 119.41 116.45 118.56 C 118.63 117.45 120.69 116.14 122.57 114.58 C 122.58 114.57 122.61 114.55 122.62 114.54 C 127.27 112.23 129.64 107.52 131.58 102.97 C 132.17 102.76 133.37 102.34 133.96 102.13 C 134.44 101.31 134.92 100.50 135.43 99.69 C 136.36 98.60 137.36 97.57 138.36 96.55 Z" />
</g>
<g id="#71696fff">
<path fill="#71696f" opacity="1.00" d=" M 81.34 98.37 C 82.88 98.38 84.43 98.39 85.97 98.40 C 85.90 98.75 85.75 99.44 85.68 99.78 C 84.98 101.61 85.64 103.48 86.85 104.91 C 88.52 107.29 87.81 110.39 87.85 113.11 C 86.32 111.63 84.65 110.32 82.81 109.26 L 83.49 109.04 C 85.29 108.86 85.58 106.79 84.97 105.42 C 84.15 105.70 83.45 106.17 82.87 106.81 C 82.21 107.36 81.52 107.87 80.84 108.39 C 79.33 106.82 75.42 104.35 79.32 102.91 L 81.09 103.56 C 81.49 102.87 81.73 102.14 81.83 101.36 C 81.02 101.63 80.22 101.93 79.42 102.25 C 80.06 100.95 80.70 99.66 81.34 98.37 Z" />
</g>
<g id="#8d8a8dff">
<path fill="#8d8a8d" opacity="1.00" d=" M 86.85 104.91 C 85.64 103.48 84.98 101.61 85.68 99.78 C 87.52 100.44 88.19 103.50 86.85 104.91 Z" />
</g>
<g id="#79777eff">
<path fill="#79777e" opacity="1.00" d=" M 75.13 108.08 C 73.54 105.78 71.30 103.26 72.64 100.27 C 73.95 102.54 75.23 104.85 76.08 107.34 L 75.13 108.08 Z" />
</g>
<g id="#857f83ff">
<path fill="#857f83" opacity="1.00" d=" M 103.02 100.95 C 106.15 101.37 106.64 104.78 107.00 107.33 C 104.54 106.12 103.23 103.59 103.02 100.95 Z" />
</g>
<g id="#969988ff">
<path fill="#969988" opacity="1.00" d=" M 140.07 106.24 C 140.86 104.10 142.42 102.43 144.02 100.88 C 144.96 101.55 145.91 102.22 146.82 102.93 C 147.21 103.43 147.97 104.44 148.35 104.94 C 146.73 105.54 145.12 106.15 143.48 106.67 C 142.34 106.56 141.20 106.42 140.07 106.24 Z" />
</g>
<g id="#767476ff">
<path fill="#767476" opacity="1.00" d=" M 114.31 107.97 C 112.50 106.00 114.50 103.39 114.86 101.22 C 116.10 101.93 117.22 102.84 118.21 103.87 C 116.90 105.23 115.60 106.60 114.31 107.97 Z" />
</g>
<g id="#929183ff">
<path fill="#929183" opacity="1.00" d=" M 98.11 104.44 C 98.99 104.14 99.87 103.83 100.75 103.53 C 102.73 105.68 104.55 107.96 106.30 110.30 C 108.18 109.39 109.29 111.32 110.60 112.29 C 110.52 109.17 109.42 106.20 109.00 103.13 C 109.62 103.29 110.87 103.61 111.50 103.78 C 111.18 105.48 110.71 107.18 110.76 108.93 C 112.00 110.00 113.37 110.91 114.72 111.83 C 116.35 109.95 117.92 108.01 119.43 106.02 C 119.59 106.61 119.92 107.78 120.08 108.37 C 119.71 108.62 118.97 109.13 118.59 109.38 C 118.28 109.61 117.65 110.08 117.34 110.32 C 116.93 111.37 116.54 112.43 116.17 113.49 C 114.96 113.42 113.75 113.34 112.55 113.28 C 112.27 114.23 112.22 115.23 111.97 116.19 C 111.75 116.31 111.30 116.55 111.08 116.68 C 110.13 115.14 109.15 113.63 108.10 112.17 C 108.51 114.68 108.68 117.24 108.38 119.79 C 108.94 120.02 110.08 120.49 110.65 120.72 C 110.60 121.29 110.51 122.44 110.47 123.01 C 108.96 121.87 106.70 121.04 106.47 118.88 C 106.40 116.50 106.60 114.08 105.96 111.75 C 105.61 112.38 104.92 113.63 104.58 114.26 C 103.68 113.06 102.79 111.86 101.90 110.66 C 101.14 111.94 100.59 113.46 99.31 114.34 C 97.79 114.77 96.21 114.88 94.65 115.12 C 94.60 115.73 94.50 116.97 94.46 117.58 C 94.14 117.53 93.51 117.41 93.19 117.35 L 93.22 116.50 C 93.70 114.79 94.23 113.09 94.74 111.39 C 96.50 111.36 98.27 111.33 100.04 111.31 C 97.86 110.23 95.10 109.47 94.63 106.68 C 98.12 107.57 101.20 109.49 104.55 110.74 C 102.82 108.24 100.51 106.26 98.11 104.44 Z" />
</g>
<g id="#72717eff">
<path fill="#72717e" opacity="1.00" d=" M 69.19 103.72 C 70.74 105.50 72.31 107.27 73.86 109.05 C 75.58 111.02 77.24 113.04 78.82 115.13 C 77.82 115.15 75.81 115.19 74.81 115.21 C 72.64 113.91 71.04 111.90 69.46 109.96 L 69.46 109.68 C 69.51 107.69 69.38 105.70 69.19 103.72 Z" />
</g>
<g id="#8a8a8aff">
<path fill="#8a8a8a" opacity="1.00" d=" M 82.87 106.81 C 83.45 106.17 84.15 105.70 84.97 105.42 C 85.58 106.79 85.29 108.86 83.49 109.04 C 83.33 108.48 83.02 107.37 82.87 106.81 Z" />
</g>
<g id="#767575ff">
<path fill="#767575" opacity="1.00" d=" M 148.35 104.94 C 148.76 106.62 149.06 108.32 149.36 110.02 C 148.13 110.53 146.90 111.05 145.68 111.57 C 144.89 109.96 144.17 108.32 143.48 106.67 C 145.12 106.15 146.73 105.54 148.35 104.94 Z" />
</g>
<g id="#595267ff">
<path fill="#595267" opacity="1.00" d=" M 121.65 111.70 C 122.89 110.09 122.81 107.03 124.81 106.32 C 125.92 109.11 122.77 111.66 122.62 114.54 C 122.61 114.55 122.58 114.57 122.57 114.58 C 119.28 114.02 116.58 116.46 113.72 117.65 C 114.40 117.88 115.77 118.33 116.45 118.56 C 120.12 119.41 123.14 116.60 126.27 115.18 C 125.73 116.60 125.21 118.03 124.60 119.42 C 121.25 119.35 118.00 120.27 114.85 121.32 C 113.77 120.85 112.68 120.36 111.60 119.88 C 112.00 121.09 112.40 122.30 112.80 123.52 C 113.65 123.46 115.33 123.33 116.18 123.27 C 113.27 124.10 109.71 124.10 107.89 126.91 C 107.21 128.15 106.55 129.40 105.98 130.69 C 105.58 131.77 105.20 132.86 104.83 133.95 C 104.02 133.68 103.20 133.41 102.39 133.15 C 101.45 131.78 100.42 130.49 99.35 129.22 C 99.32 126.84 101.05 125.25 102.61 123.71 C 102.41 122.48 102.20 121.26 101.99 120.04 C 102.42 119.89 103.27 119.59 103.69 119.44 C 103.78 118.84 103.96 117.63 104.04 117.03 C 101.46 116.44 98.84 116.56 96.44 117.73 C 96.92 118.87 97.41 120.01 97.90 121.16 C 96.95 120.57 95.99 119.99 95.04 119.41 C 94.54 119.77 93.54 120.51 93.05 120.87 C 93.11 119.70 93.11 118.52 93.19 117.35 C 93.51 117.41 94.14 117.53 94.46 117.58 C 94.50 116.97 94.60 115.73 94.65 115.12 C 96.21 114.88 97.79 114.77 99.31 114.34 C 100.59 113.46 101.14 111.94 101.90 110.66 C 102.79 111.86 103.68 113.06 104.58 114.26 C 104.92 113.63 105.61 112.38 105.96 111.75 C 106.60 114.08 106.40 116.50 106.47 118.88 C 106.70 121.04 108.96 121.87 110.47 123.01 C 110.51 122.44 110.60 121.29 110.65 120.72 C 110.08 120.49 108.94 120.02 108.38 119.79 C 108.68 117.24 108.51 114.68 108.10 112.17 C 109.15 113.63 110.13 115.14 111.08 116.68 C 111.30 116.55 111.75 116.31 111.97 116.19 C 112.22 115.23 112.27 114.23 112.55 113.28 C 113.75 113.34 114.96 113.42 116.17 113.49 C 116.54 112.43 116.93 111.37 117.34 110.32 C 117.65 110.08 118.28 109.61 118.59 109.38 C 119.46 110.38 119.92 112.50 121.65 111.70 M 104.13 123.55 C 102.34 124.96 105.08 127.10 106.38 125.54 C 107.72 124.21 105.35 122.27 104.13 123.55 Z" />
</g>
<g id="#75707dff">
<path fill="#75707d" opacity="1.00" d=" M 76.66 108.73 C 78.11 108.73 79.55 108.88 80.98 109.19 C 81.13 110.50 81.24 111.81 81.34 113.13 C 79.44 112.06 77.75 110.64 76.66 108.73 Z" />
</g>
<g id="#7c7c77ff">
<path fill="#7c7c77" opacity="1.00" d=" M 134.52 111.26 C 135.86 110.16 136.98 108.20 139.00 108.58 C 141.47 109.81 142.26 112.71 143.46 114.98 C 142.99 115.28 142.05 115.87 141.58 116.17 C 138.50 115.87 135.26 114.61 134.52 111.26 Z" />
</g>
<g id="#6b6b60ff">
<path fill="#6b6b60" opacity="1.00" d=" M 134.45 115.78 C 134.49 114.27 134.53 112.76 134.52 111.26 C 135.26 114.61 138.50 115.87 141.58 116.17 C 140.48 116.67 139.36 117.09 138.25 117.53 C 137.86 118.65 137.48 119.77 137.10 120.90 C 133.46 121.54 131.81 125.83 127.93 125.57 C 129.07 127.36 130.17 129.16 131.27 130.98 C 129.12 130.25 127.46 128.74 126.13 126.95 C 126.87 125.45 127.62 123.95 128.28 122.41 C 129.21 121.89 130.14 121.39 131.07 120.88 C 130.95 119.54 130.84 118.20 130.72 116.86 C 131.96 116.50 133.21 116.14 134.45 115.78 M 132.13 121.21 C 133.57 120.71 136.65 117.72 133.87 117.08 C 131.30 116.46 131.71 119.65 132.13 121.21 Z" />
</g>
<g id="#7b777aff">
<path fill="#7b777a" opacity="1.00" d=" M 79.92 116.83 C 82.14 116.12 82.16 113.76 83.31 112.12 C 84.82 113.89 86.48 115.51 88.39 116.85 C 88.55 117.34 88.88 118.31 89.05 118.80 C 88.19 118.40 87.34 118.00 86.49 117.61 C 84.30 119.02 81.74 118.62 79.92 116.83 Z" />
</g>
<g id="#928995ff">
<path fill="#928995" opacity="1.00" d=" M 113.72 117.65 C 116.58 116.46 119.28 114.02 122.57 114.58 C 120.69 116.14 118.63 117.45 116.45 118.56 C 115.77 118.33 114.40 117.88 113.72 117.65 Z" />
</g>
<g id="#8b857fff">
<path fill="#8b857f" opacity="1.00" d=" M 96.44 117.73 C 98.84 116.56 101.46 116.44 104.04 117.03 C 103.96 117.63 103.78 118.84 103.69 119.44 C 103.27 119.59 102.42 119.89 101.99 120.04 C 100.64 120.45 99.26 120.80 97.90 121.16 C 97.41 120.01 96.92 118.87 96.44 117.73 Z" />
<path fill="#8b857f" opacity="1.00" d=" M 135.79 190.26 C 139.98 185.16 143.50 179.60 146.36 173.65 C 146.40 175.32 146.50 176.99 146.67 178.66 C 146.70 178.88 146.75 179.34 146.78 179.56 L 146.50 179.50 C 146.10 179.41 145.30 179.23 144.89 179.14 C 142.08 182.97 140.70 188.53 135.79 190.26 Z" />
</g>
<g id="#7d7b7bff">
<path fill="#7d7b7b" opacity="1.00" d=" M 132.13 121.21 C 131.71 119.65 131.30 116.46 133.87 117.08 C 136.65 117.72 133.57 120.71 132.13 121.21 Z" />
</g>
<g id="#6d687dff">
<path fill="#6d687d" opacity="1.00" d=" M 114.85 121.32 C 118.00 120.27 121.25 119.35 124.60 119.42 C 122.10 121.27 119.22 122.62 116.18 123.27 C 115.33 123.33 113.65 123.46 112.80 123.52 C 112.40 122.30 112.00 121.09 111.60 119.88 C 112.68 120.36 113.77 120.85 114.85 121.32 Z" />
</g>
<g id="#868781ff">
<path fill="#868781" opacity="1.00" d=" M 145.05 122.59 C 147.03 120.87 149.50 120.01 152.03 119.49 L 152.26 119.43 C 154.83 122.31 157.57 125.10 160.86 127.14 C 162.47 128.28 164.45 129.11 165.47 130.90 C 165.54 133.49 162.18 132.39 160.56 132.81 C 160.41 131.51 160.29 130.20 160.18 128.90 C 158.66 129.72 157.14 130.54 155.62 131.35 C 154.65 129.40 154.26 127.31 154.94 125.20 C 154.67 124.63 154.40 124.06 154.12 123.50 C 153.10 124.87 152.05 126.23 151.00 127.58 C 150.39 126.45 149.78 125.33 149.17 124.21 C 148.32 124.65 147.48 125.09 146.63 125.54 C 146.10 124.55 145.58 123.57 145.05 122.59 Z" />
</g>
<g id="#5d4a58ff">
<path fill="#5d4a58" opacity="1.00" d=" M 152.26 119.43 C 156.55 120.36 159.36 123.93 162.99 126.10 C 166.20 129.29 171.25 128.46 174.84 130.96 C 176.60 132.97 175.86 135.86 175.53 138.24 C 175.17 136.91 174.81 135.58 174.44 134.26 C 174.19 133.25 173.93 132.24 173.67 131.24 C 171.60 131.28 169.53 131.33 167.47 131.38 C 167.38 132.64 167.30 133.89 167.21 135.15 C 165.03 134.53 162.83 134.03 160.65 133.41 L 160.56 132.81 C 162.18 132.39 165.54 133.49 165.47 130.90 C 164.45 129.11 162.47 128.28 160.86 127.14 C 157.57 125.10 154.83 122.31 152.26 119.43 Z" />
<path fill="#5d4a58" opacity="1.00" d=" M 133.57 174.44 C 133.48 173.02 134.69 172.06 136.01 172.11 C 135.78 173.77 135.86 175.57 135.06 177.09 C 133.41 178.80 131.26 179.91 129.31 181.23 C 130.51 181.55 131.71 181.86 132.92 182.15 C 132.41 182.24 131.40 182.42 130.89 182.51 C 129.93 183.97 128.97 185.43 127.96 186.87 C 126.47 184.18 126.61 180.21 129.14 178.15 C 130.51 176.80 132.10 175.68 133.57 174.44 Z" />
</g>
<g id="#635874ff">
<path fill="#635874" opacity="1.00" d=" M 94.77 121.71 C 98.32 121.25 97.69 125.08 97.12 127.25 C 94.52 126.54 94.48 123.93 94.77 121.71 Z" />
</g>
<g id="#878585ff">
<path fill="#878585" opacity="1.00" d=" M 104.13 123.55 C 105.35 122.27 107.72 124.21 106.38 125.54 C 105.08 127.10 102.34 124.96 104.13 123.55 Z" />
</g>
<g id="#4d3e59ff">
<path fill="#4d3e59" opacity="1.00" d=" M 104.83 133.95 C 105.20 132.86 105.58 131.77 105.98 130.69 C 106.81 131.31 107.63 131.92 108.46 132.53 C 109.00 134.60 109.54 136.66 110.08 138.72 C 108.06 138.28 106.04 137.82 104.02 137.37 C 103.26 137.72 102.50 138.08 101.75 138.44 C 100.97 138.10 100.20 137.76 99.42 137.42 C 98.74 137.78 98.05 138.14 97.37 138.50 C 94.00 138.09 90.51 136.92 87.14 137.84 C 87.02 138.28 86.79 139.17 86.68 139.61 C 90.31 139.60 93.93 139.97 97.49 140.70 C 94.91 141.13 92.31 141.40 89.73 141.83 C 89.58 142.00 89.27 142.36 89.11 142.54 C 87.59 145.92 86.53 149.48 85.39 153.00 C 84.57 152.02 83.78 151.01 82.98 150.01 C 80.79 152.89 83.20 157.64 78.99 158.99 C 79.10 159.51 79.32 160.54 79.43 161.05 C 79.01 160.83 78.16 160.40 77.73 160.18 L 77.78 159.72 C 77.92 155.12 79.21 150.75 81.04 146.57 C 78.10 147.90 78.01 152.17 74.60 152.72 C 74.96 151.13 75.31 149.55 75.78 148.00 C 76.63 146.43 77.63 144.89 77.79 143.07 C 76.52 143.57 75.26 144.10 73.99 144.63 C 75.95 141.95 79.06 140.59 81.67 138.68 C 80.72 140.25 79.63 141.73 78.62 143.27 C 82.46 142.13 84.21 138.42 87.04 136.00 C 92.15 135.80 97.30 136.25 102.37 135.18 C 102.37 134.67 102.39 133.65 102.39 133.15 C 103.20 133.41 104.02 133.68 104.83 133.95 Z" />
</g>
<g id="#72535fe6">
<path fill="#72535f" opacity="0.90" d=" M 129.07 132.94 C 129.60 131.56 130.21 131.53 130.88 132.84 C 130.43 132.87 129.52 132.92 129.07 132.94 Z" />
</g>
<g id="#643c42ff">
<path fill="#643c42" opacity="1.00" d=" M 135.65 134.78 C 142.41 135.68 149.21 135.92 156.01 135.95 C 158.22 136.29 161.65 135.63 162.56 138.32 C 162.76 141.81 160.44 144.84 158.67 147.66 C 158.00 148.23 157.33 148.78 156.66 149.34 C 153.67 151.73 150.48 154.15 148.93 157.78 L 148.62 158.38 C 147.68 159.51 146.66 160.58 145.66 161.67 C 145.49 161.32 145.17 160.63 145.00 160.28 C 148.24 151.41 159.26 148.31 161.54 138.81 C 153.59 134.46 143.86 138.55 135.65 134.78 Z" />
<path fill="#643c42" opacity="1.00" d=" M 103.15 152.42 C 103.82 154.78 104.51 157.13 105.25 159.46 C 105.04 164.17 105.86 169.06 104.15 173.59 C 104.71 166.52 103.83 159.45 103.15 152.42 Z" />
<path fill="#643c42" opacity="1.00" d=" M 147.98 193.69 C 148.93 193.61 149.88 193.52 150.83 193.43 C 151.26 194.59 151.70 195.75 152.09 196.93 C 152.17 198.50 152.18 200.06 152.11 201.63 C 148.58 200.67 148.80 196.52 147.98 193.69 Z" />
</g>
<g id="#533744ec">
<path fill="#533744" opacity="0.93" d=" M 174.44 134.26 C 174.81 135.58 175.17 136.91 175.53 138.24 C 173.77 141.16 171.06 143.30 168.87 145.86 C 163.31 151.82 158.51 158.63 155.84 166.39 C 155.62 165.80 155.17 164.60 154.95 164.00 C 156.32 160.82 157.76 157.67 159.27 154.57 C 159.47 154.22 159.87 153.53 160.08 153.18 C 161.39 151.40 162.86 149.75 164.36 148.13 C 164.96 147.49 165.56 146.86 166.17 146.23 C 167.37 144.98 168.58 143.74 169.78 142.49 C 171.53 140.79 172.48 138.54 173.38 136.32 C 173.64 135.80 174.17 134.77 174.44 134.26 Z" />
</g>
<g id="#7b7077ff">
<path fill="#7b7077" opacity="1.00" d=" M 165.71 141.68 C 166.99 140.31 168.47 142.11 169.78 142.49 C 168.58 143.74 167.37 144.98 166.17 146.23 C 165.03 145.61 163.89 145.00 162.75 144.38 C 163.71 143.45 164.64 142.49 165.71 141.68 Z" />
</g>
<g id="#726e75ff">
<path fill="#726e75" opacity="1.00" d=" M 158.67 147.66 C 160.58 147.23 162.49 147.70 164.36 148.13 C 162.86 149.75 161.39 151.40 160.08 153.18 C 158.94 151.90 157.80 150.62 156.66 149.34 C 157.33 148.78 158.00 148.23 158.67 147.66 M 158.33 149.33 C 158.81 149.87 158.81 149.87 158.33 149.33 Z" />
</g>
<g id="#a9a7abff">
<path fill="#a9a7ab" opacity="1.00" d=" M 158.33 149.33 C 158.81 149.87 158.81 149.87 158.33 149.33 Z" />
</g>
<g id="#50465aff">
<path fill="#50465a" opacity="1.00" d=" M 148.93 157.78 C 150.48 154.15 153.67 151.73 156.66 149.34 C 157.80 150.62 158.94 151.90 160.08 153.18 C 159.87 153.53 159.47 154.22 159.27 154.57 C 155.34 155.06 153.49 158.80 152.07 162.02 C 152.68 162.41 153.33 162.78 153.93 163.20 C 152.74 165.95 152.27 168.93 153.31 171.80 C 152.97 172.62 152.63 173.46 152.31 174.29 C 151.83 171.09 151.33 167.89 150.86 164.68 C 148.94 164.02 146.86 163.44 145.66 161.67 C 146.66 160.58 147.68 159.51 148.62 158.38 C 148.52 159.04 148.32 160.36 148.22 161.02 C 148.56 161.14 149.23 161.38 149.57 161.50 C 150.48 160.44 151.40 159.39 152.32 158.34 C 151.47 158.20 149.78 157.92 148.93 157.78 M 153.25 154.00 C 152.91 155.39 153.44 155.88 154.83 155.46 C 155.17 154.06 154.64 153.57 153.25 154.00 Z" />
</g>
<g id="#80787bff">
<path fill="#80787b" opacity="1.00" d=" M 153.25 154.00 C 154.64 153.57 155.17 154.06 154.83 155.46 C 153.44 155.88 152.91 155.39 153.25 154.00 Z" />
</g>
<g id="#716672ff">
<path fill="#716672" opacity="1.00" d=" M 152.07 162.02 C 153.49 158.80 155.34 155.06 159.27 154.57 C 157.76 157.67 156.32 160.82 154.95 164.00 L 153.93 163.20 C 153.33 162.78 152.68 162.41 152.07 162.02 Z" />
</g>
<g id="#736d74ff">
<path fill="#736d74" opacity="1.00" d=" M 148.93 157.78 C 149.78 157.92 151.47 158.20 152.32 158.34 C 151.40 159.39 150.48 160.44 149.57 161.50 C 149.23 161.38 148.56 161.14 148.22 161.02 C 148.32 160.36 148.52 159.04 148.62 158.38 L 148.93 157.78 Z" />
</g>
<g id="#413449ff">
<path fill="#413449" opacity="1.00" d=" M 105.25 159.46 C 107.46 164.00 105.53 169.20 106.38 174.01 C 107.41 178.89 103.12 182.33 101.38 186.44 C 101.65 187.01 102.19 188.15 102.46 188.71 C 101.91 189.39 101.35 190.06 100.77 190.72 L 100.65 188.95 L 98.89 188.89 C 99.37 190.16 100.68 191.42 99.83 192.85 C 98.79 192.97 97.85 192.65 97.02 191.89 C 97.39 192.89 97.74 193.90 98.09 194.91 C 97.38 196.36 96.69 197.81 96.03 199.29 C 98.47 196.83 100.08 193.70 102.56 191.31 C 102.75 190.83 103.11 189.86 103.30 189.37 C 103.77 189.09 104.72 188.51 105.20 188.23 C 105.83 186.80 106.45 185.36 107.14 183.97 C 107.31 183.75 107.64 183.31 107.81 183.09 C 109.11 184.40 110.50 184.75 111.68 183.22 C 107.85 187.62 104.21 192.17 100.90 196.97 C 98.77 200.42 97.46 204.39 94.76 207.46 C 93.28 209.10 92.08 210.98 91.31 213.06 C 90.73 212.65 89.57 211.84 89.00 211.44 C 85.83 214.37 82.50 216.99 78.65 218.95 C 77.33 219.05 76.01 219.14 74.69 219.22 L 73.99 218.65 C 72.73 217.12 70.84 218.13 69.86 219.38 C 69.30 219.74 68.19 220.45 67.64 220.80 C 66.69 217.92 69.31 215.70 69.55 212.95 C 67.17 212.42 65.37 215.14 63.26 214.70 C 62.30 212.45 64.34 210.14 65.24 208.12 L 66.06 208.03 C 67.58 207.99 68.88 207.18 70.15 206.45 C 72.72 206.02 74.77 204.27 77.10 203.44 C 81.32 204.16 85.05 201.59 87.70 198.55 C 88.52 197.50 89.60 196.78 90.94 196.62 C 91.06 194.26 93.47 193.22 94.76 191.54 C 97.18 188.64 99.31 185.50 101.31 182.31 C 103.04 179.71 103.06 176.45 104.15 173.59 C 105.86 169.06 105.04 164.17 105.25 159.46 M 94.52 195.16 C 94.58 198.52 97.51 193.70 94.52 195.16 M 89.90 200.85 C 91.60 201.79 93.81 204.22 95.54 202.07 C 94.04 200.96 90.24 196.81 89.90 200.85 M 86.39 206.27 C 85.96 207.68 86.44 208.16 87.83 207.72 C 88.26 206.30 87.78 205.82 86.39 206.27 M 69.88 208.74 C 69.88 209.27 69.88 210.35 69.88 210.88 C 72.81 210.48 76.87 212.10 78.64 208.89 C 75.77 208.42 72.70 207.68 69.88 208.74 M 84.52 208.27 C 83.77 209.34 84.25 211.12 85.35 211.79 C 87.23 211.58 86.37 207.40 84.52 208.27 M 67.09 209.15 C 65.70 209.82 65.65 210.48 66.93 211.13 C 68.32 210.46 68.37 209.80 67.09 209.15 M 81.01 211.24 C 79.81 212.69 82.24 214.85 83.64 213.76 C 84.61 212.37 82.36 210.34 81.01 211.24 M 77.04 213.55 C 75.77 215.03 78.28 217.20 79.59 215.76 C 80.67 214.36 78.27 212.47 77.04 213.55 M 71.15 215.07 C 69.76 215.75 69.70 216.42 70.95 217.08 C 72.34 216.39 72.41 215.72 71.15 215.07 Z" />
</g>
<g id="#45354dff">
<path fill="#45354d" opacity="1.00" d=" M 135.61 165.50 C 139.18 164.65 142.87 163.51 145.00 160.28 C 145.17 160.63 145.49 161.32 145.66 161.67 C 146.86 163.44 148.94 164.02 150.86 164.68 C 151.33 167.89 151.83 171.09 152.31 174.29 C 152.45 175.88 152.61 177.47 152.70 179.07 C 152.30 183.07 151.01 186.98 151.44 191.06 C 153.47 190.24 153.85 188.29 153.77 186.28 C 154.48 188.28 155.14 190.32 155.41 192.44 C 154.98 194.37 153.52 195.70 152.09 196.93 C 151.70 195.75 151.26 194.59 150.83 193.43 C 149.88 193.52 148.93 193.61 147.98 193.69 C 147.29 191.47 148.38 189.29 148.67 187.09 C 149.17 183.35 149.63 179.59 149.73 175.82 C 148.34 176.30 147.55 177.57 146.67 178.66 C 146.50 176.99 146.40 175.32 146.36 173.65 C 143.50 179.60 139.98 185.16 135.79 190.26 C 140.70 188.53 142.08 182.97 144.89 179.14 C 145.30 179.23 146.10 179.41 146.50 179.50 C 143.50 184.02 142.93 191.15 136.83 192.77 C 134.21 193.18 132.89 195.51 131.41 197.42 C 131.02 194.34 133.26 191.90 134.20 189.14 C 132.95 189.92 131.71 190.72 130.48 191.53 C 130.87 190.31 131.30 189.11 131.77 187.92 C 132.67 184.48 136.79 183.73 138.50 180.83 C 139.07 179.62 139.57 178.37 140.07 177.14 C 138.12 178.28 136.27 179.57 134.51 180.99 C 134.12 181.28 133.32 181.86 132.92 182.15 C 131.71 181.86 130.51 181.55 129.31 181.23 C 131.26 179.91 133.41 178.80 135.06 177.09 C 135.86 175.57 135.78 173.77 136.01 172.11 C 136.42 171.80 137.23 171.16 137.64 170.85 C 138.09 170.49 138.99 169.77 139.45 169.41 C 137.52 169.09 135.61 168.79 133.68 168.48 C 134.32 167.49 134.97 166.49 135.61 165.50 Z" />
</g>
<g id="#63585fff">
<path fill="#63585f" opacity="1.00" d=" M 153.31 171.80 C 152.27 168.93 152.74 165.95 153.93 163.20 L 154.95 164.00 C 155.17 164.60 155.62 165.80 155.84 166.39 C 156.58 175.06 156.88 183.83 155.41 192.44 C 155.14 190.32 154.48 188.28 153.77 186.28 C 153.83 183.51 154.36 180.79 155.05 178.12 C 154.46 178.35 153.28 178.83 152.70 179.07 C 152.61 177.47 152.45 175.88 152.31 174.29 C 152.63 173.46 152.97 172.62 153.31 171.80 Z" />
</g>
<g id="#6a4865ff">
<path fill="#6a4865" opacity="1.00" d=" M 110.81 176.33 C 111.10 172.08 113.29 168.41 114.80 164.54 C 113.61 168.95 113.78 173.53 113.79 178.05 C 113.89 180.00 112.73 181.68 111.68 183.22 C 110.50 184.75 109.11 184.40 107.81 183.09 C 109.60 180.95 111.39 178.80 113.14 176.62 C 112.55 176.55 111.39 176.40 110.81 176.33 Z" />
</g>
<g id="#624048cb">
<path fill="#624048" opacity="0.80" d=" M 133.27 168.42 L 133.68 168.48 C 135.61 168.79 137.52 169.09 139.45 169.41 C 138.99 169.77 138.09 170.49 137.64 170.85 L 137.80 169.77 C 136.16 170.15 134.55 170.61 132.96 171.14 C 133.04 170.46 133.19 169.10 133.27 168.42 Z" />
</g>
<g id="#68637dff">
<path fill="#68637d" opacity="1.00" d=" M 94.52 195.16 C 97.51 193.70 94.58 198.52 94.52 195.16 Z" />
</g>
<g id="#68646fff">
<path fill="#68646f" opacity="1.00" d=" M 89.90 200.85 C 90.24 196.81 94.04 200.96 95.54 202.07 C 93.81 204.22 91.60 201.79 89.90 200.85 Z" />
</g>
<g id="#523633ac">
<path fill="#523633" opacity="0.67" d=" M 66.06 208.03 C 65.70 206.17 68.98 205.14 70.15 206.45 C 68.88 207.18 67.58 207.99 66.06 208.03 Z" />
</g>
<g id="#625f65ff">
<path fill="#625f65" opacity="1.00" d=" M 86.39 206.27 C 87.78 205.82 88.26 206.30 87.83 207.72 C 86.44 208.16 85.96 207.68 86.39 206.27 Z" />
</g>
<g id="#625a60ff">
<path fill="#625a60" opacity="1.00" d=" M 69.88 208.74 C 72.70 207.68 75.77 208.42 78.64 208.89 C 76.87 212.10 72.81 210.48 69.88 210.88 C 69.88 210.35 69.88 209.27 69.88 208.74 Z" />
</g>
<g id="#6b616aff">
<path fill="#6b616a" opacity="1.00" d=" M 84.52 208.27 C 86.37 207.40 87.23 211.58 85.35 211.79 C 84.25 211.12 83.77 209.34 84.52 208.27 Z" />
</g>
<g id="#6c637dff">
<path fill="#6c637d" opacity="1.00" d=" M 67.09 209.15 C 68.37 209.80 68.32 210.46 66.93 211.13 C 65.65 210.48 65.70 209.82 67.09 209.15 Z" />
</g>
<g id="#73656cff">
<path fill="#73656c" opacity="1.00" d=" M 81.01 211.24 C 82.36 210.34 84.61 212.37 83.64 213.76 C 82.24 214.85 79.81 212.69 81.01 211.24 Z" />
</g>
<g id="#6c636aff">
<path fill="#6c636a" opacity="1.00" d=" M 77.04 213.55 C 78.27 212.47 80.67 214.36 79.59 215.76 C 78.28 217.20 75.77 215.03 77.04 213.55 Z" />
</g>
<g id="#756a78ff">
<path fill="#756a78" opacity="1.00" d=" M 71.15 215.07 C 72.41 215.72 72.34 216.39 70.95 217.08 C 69.70 216.42 69.76 215.75 71.15 215.07 Z" />
</g>
<g id="#6b524bc7">
<path fill="#6b524b" opacity="0.78" d=" M 69.86 219.38 C 70.84 218.13 72.73 217.12 73.99 218.65 C 73.11 219.78 71.09 220.13 69.86 219.38 Z" />
</g>
</svg>
