<?xml version="1.0" encoding="UTF-8" ?>
<!DOCTYPE svg PUBLIC "-//W3C//DTD SVG 1.1//EN" "http://www.w3.org/Graphics/SVG/1.1/DTD/svg11.dtd">
<svg width="120pt" height="120pt" viewBox="0 0 120 120" version="1.1" xmlns="http://www.w3.org/2000/svg">
<g id="#000000ff">
<path fill="#000000" opacity="1.00" d=" M 74.19 24.77 C 79.07 7.56 108.05 3.94 114.71 21.52 C 108.55 19.19 103.61 13.83 96.86 13.21 C 88.85 13.04 81.31 17.64 77.51 24.65 C 76.68 24.68 75.02 24.74 74.19 24.77 Z" />
<path fill="#000000" opacity="1.00" d=" M 24.83 17.91 C 32.45 12.79 42.10 11.88 51.03 11.92 C 58.85 12.88 64.64 19.43 66.39 26.80 C 60.36 23.97 57.55 16.91 50.83 15.18 C 39.56 13.78 28.47 18.78 20.64 26.67 C 21.33 23.52 21.82 19.77 24.83 17.91 Z" />
<path fill="#000000" opacity="1.00" d=" M 89.76 26.60 C 95.09 23.72 100.91 26.00 105.26 29.48 C 96.88 25.65 86.57 25.82 78.93 31.31 C 88.64 32.84 98.37 34.24 108.03 36.10 C 107.36 33.98 106.68 31.86 106.02 29.74 C 106.96 30.32 107.90 30.90 108.84 31.48 C 109.02 33.42 109.18 35.37 109.31 37.32 L 108.29 37.19 C 107.06 37.03 105.84 36.87 104.61 36.70 C 102.83 36.43 101.05 36.14 99.28 35.83 C 97.74 35.55 96.20 35.26 94.66 34.97 C 93.17 34.69 90.20 34.15 88.72 33.88 C 87.48 33.98 86.25 34.09 85.01 34.19 C 83.41 34.32 81.80 34.47 80.20 34.62 L 79.15 34.72 C 79.50 32.01 80.00 29.33 80.54 26.66 C 82.47 26.79 84.41 26.91 86.35 27.09 C 87.51 27.34 88.70 27.10 89.76 26.60 Z" />
<path fill="#000000" opacity="1.00" d=" M 26.93 30.72 C 30.46 28.94 34.02 26.86 38.02 26.46 C 42.69 26.74 47.10 28.50 51.18 30.69 C 45.00 29.59 38.63 27.80 32.36 29.32 C 29.12 30.30 28.38 34.06 27.08 36.73 C 35.78 36.14 44.51 35.45 53.12 34.01 L 52.02 34.37 C 50.70 34.78 49.37 35.18 48.03 35.50 C 47.22 35.60 45.61 35.79 44.81 35.89 C 43.39 36.14 40.56 36.64 39.15 36.90 C 37.42 37.20 35.69 37.53 33.97 37.88 C 32.69 38.14 31.41 38.42 30.13 38.69 C 29.06 38.92 27.99 39.14 26.92 39.36 C 26.93 36.48 26.93 33.60 26.93 30.72 Z" />
<path fill="#000000" opacity="1.00" d=" M 61.76 39.06 C 62.66 39.03 64.46 38.96 65.36 38.93 C 66.52 45.24 67.79 51.57 67.83 58.01 C 67.77 60.76 65.95 63.14 63.86 64.77 C 56.36 70.14 48.60 75.56 42.98 83.00 C 40.37 86.66 43.58 91.30 46.99 93.02 C 50.91 95.81 57.34 99.60 61.55 95.56 C 65.29 92.40 69.39 89.30 71.79 84.93 C 73.22 80.12 73.50 75.03 74.23 70.07 C 74.97 70.05 76.46 70.02 77.20 70.00 C 76.93 73.70 76.60 77.39 76.21 81.08 C 77.20 88.93 69.72 93.30 64.80 97.82 C 56.66 104.64 44.58 97.92 39.60 90.37 C 35.91 81.71 44.06 75.50 49.82 70.85 C 54.54 66.39 61.54 63.71 64.57 57.66 C 65.38 51.38 63.03 45.15 61.76 39.06 Z" />
</g>
<g id="#ffccaaff">
<path fill="#ffccaa" opacity="1.00" d=" M 86.35 27.09 C 86.17 25.28 89.27 24.99 89.76 26.60 C 88.70 27.10 87.51 27.34 86.35 27.09 Z" />
<path fill="#ffccaa" opacity="1.00" d=" M 78.93 31.31 C 86.57 25.82 96.88 25.65 105.26 29.48 C 105.45 29.55 105.83 29.67 106.02 29.74 C 106.68 31.86 107.36 33.98 108.03 36.10 C 98.37 34.24 88.64 32.84 78.93 31.31 Z" />
<path fill="#ffccaa" opacity="1.00" d=" M 32.36 29.32 C 38.63 27.80 45.00 29.59 51.18 30.69 C 52.83 31.06 54.44 31.58 56.07 32.04 C 55.11 32.72 54.20 33.51 53.12 34.01 C 44.51 35.45 35.78 36.14 27.08 36.73 C 28.38 34.06 29.12 30.30 32.36 29.32 Z" />
<path fill="#ffccaa" opacity="1.00" d=" M 108.84 31.48 C 110.55 33.43 112.21 35.43 113.75 37.52 C 112.29 37.73 110.82 37.93 109.36 38.13 L 109.31 37.32 C 109.18 35.37 109.02 33.42 108.84 31.48 Z" />
<path fill="#ffccaa" opacity="1.00" d=" M 88.72 33.88 C 90.20 34.15 93.17 34.69 94.66 34.97 C 92.78 35.67 90.37 36.25 88.82 34.55 L 88.72 33.88 Z" />
<path fill="#ffccaa" opacity="1.00" d=" M 39.15 36.90 C 40.56 36.64 43.39 36.14 44.81 35.89 L 44.87 36.53 C 43.47 38.42 40.93 37.75 39.15 36.90 Z" />
</g>
<g id="#ab5236ff">
<path fill="#ab5236" opacity="1.00" d=" M 80.20 34.62 C 81.80 34.47 83.41 34.32 85.01 34.19 C 84.56 36.91 84.11 39.63 83.67 42.36 C 89.47 46.05 95.61 49.30 102.32 51.00 C 103.40 46.29 104.25 41.52 104.61 36.70 C 105.84 36.87 107.06 37.03 108.29 37.19 C 107.02 42.17 108.85 48.91 104.58 52.76 C 96.45 54.44 88.32 50.94 82.72 45.23 C 79.95 42.46 80.76 38.20 80.20 34.62 Z" />
<path fill="#ab5236" opacity="1.00" d=" M 48.03 35.50 C 49.37 35.18 50.70 34.78 52.02 34.37 C 53.45 39.46 56.38 45.46 53.57 50.54 C 49.86 54.12 44.22 55.62 39.17 54.86 C 32.37 52.39 29.71 45.40 26.92 39.36 C 27.99 39.14 29.06 38.92 30.13 38.69 C 33.17 43.21 35.45 48.92 40.50 51.51 C 44.23 51.86 49.30 50.80 51.05 47.08 C 51.64 43.02 49.24 39.25 48.03 35.50 Z" />
</g>
<g id="#fff1e8ff">
<path fill="#fff1e8" opacity="1.00" d=" M 85.01 34.19 C 86.25 34.09 87.48 33.98 88.72 33.88 L 88.82 34.55 C 89.35 37.28 89.58 40.33 91.51 42.51 C 93.58 44.81 96.69 45.65 99.46 46.77 C 99.42 43.12 99.41 39.48 99.28 35.83 C 101.05 36.14 102.83 36.43 104.61 36.70 C 104.25 41.52 103.40 46.29 102.32 51.00 C 95.61 49.30 89.47 46.05 83.67 42.36 C 84.11 39.63 84.56 36.91 85.01 34.19 Z" />
<path fill="#fff1e8" opacity="1.00" d=" M 44.81 35.89 C 45.61 35.79 47.22 35.60 48.03 35.50 C 49.24 39.25 51.64 43.02 51.05 47.08 C 49.30 50.80 44.23 51.86 40.50 51.51 C 35.45 48.92 33.17 43.21 30.13 38.69 C 31.41 38.42 32.69 38.14 33.97 37.88 C 35.13 40.31 35.91 43.08 37.91 44.98 C 40.25 46.46 43.13 46.72 45.76 47.56 C 45.58 43.87 45.24 40.20 44.87 36.53 L 44.81 35.89 Z" />
</g>
<g id="#1d2b53ff">
<path fill="#1d2b53" opacity="1.00" d=" M 88.82 34.55 C 90.37 36.25 92.78 35.67 94.66 34.97 C 96.20 35.26 97.74 35.55 99.28 35.83 C 99.41 39.48 99.42 43.12 99.46 46.77 C 96.69 45.65 93.58 44.81 91.51 42.51 C 89.58 40.33 89.35 37.28 88.82 34.55 Z" />
<path fill="#1d2b53" opacity="1.00" d=" M 33.97 37.88 C 35.69 37.53 37.42 37.20 39.15 36.90 C 40.93 37.75 43.47 38.42 44.87 36.53 C 45.24 40.20 45.58 43.87 45.76 47.56 C 43.13 46.72 40.25 46.46 37.91 44.98 C 35.91 43.08 35.13 40.31 33.97 37.88 Z" />
</g>
</svg>
