<?xml version="1.0" encoding="UTF-8" ?>
<!DOCTYPE svg PUBLIC "-//W3C//DTD SVG 1.1//EN" "http://www.w3.org/Graphics/SVG/1.1/DTD/svg11.dtd">
<svg width="120pt" height="120pt" viewBox="0 0 120 120" version="1.1" xmlns="http://www.w3.org/2000/svg">
<g id="#fffefeff">
<path fill="#fffefe" opacity="1.00" d=" M 0.00 0.00 L 120.00 0.00 L 120.00 120.00 L 76.05 120.00 C 81.42 118.10 87.16 119.64 92.65 118.66 C 96.79 117.32 99.80 113.80 104.11 112.75 C 102.11 94.50 101.71 76.13 99.10 57.95 C 98.39 49.19 100.33 40.12 97.39 31.63 C 95.76 26.22 93.92 20.37 89.39 16.65 C 81.90 11.36 72.85 6.60 63.39 8.36 C 59.55 9.19 55.24 9.42 52.18 12.19 C 49.07 14.76 45.10 16.39 42.52 19.53 C 39.38 27.29 35.65 34.79 32.54 42.56 C 29.31 49.50 26.53 56.71 25.23 64.27 C 24.46 68.60 22.31 72.60 22.05 77.02 C 21.71 83.64 22.36 90.29 21.87 96.90 C 21.09 100.50 19.27 103.82 18.77 107.51 C 25.14 108.78 31.66 110.93 36.26 115.76 C 39.48 119.31 44.67 118.74 48.91 120.00 L 0.00 120.00 L 0.00 0.00 Z" />
<path fill="#fffefe" opacity="1.00" d=" M 40.79 36.21 C 42.18 35.45 43.54 34.64 45.02 34.05 C 46.88 34.04 46.94 36.39 47.11 37.75 C 45.84 38.03 44.64 39.14 43.30 38.81 C 42.41 38.00 41.60 37.10 40.79 36.21 M 43.17 36.15 C 42.64 37.77 43.20 38.32 44.84 37.81 C 45.36 36.18 44.80 35.63 43.17 36.15 Z" />
<path fill="#fffefe" opacity="1.00" d=" M 85.72 36.09 C 88.44 35.85 92.23 35.49 92.23 39.30 C 91.03 38.59 89.94 37.73 88.83 36.89 C 88.44 37.43 87.65 38.52 87.26 39.06 C 86.72 38.08 86.22 37.09 85.72 36.09 Z" />
<path fill="#fffefe" opacity="1.00" d=" M 47.07 86.07 C 50.36 86.04 53.65 86.04 56.94 86.07 C 58.23 97.38 52.48 108.25 45.02 116.34 C 44.73 112.52 45.74 108.81 46.00 105.03 C 45.90 98.67 47.62 92.45 47.07 86.07 Z" />
<path fill="#fffefe" opacity="1.00" d=" M 70.10 85.95 C 73.65 86.83 77.29 87.18 80.94 87.15 C 81.13 96.03 81.15 105.02 78.61 113.62 C 78.01 114.59 77.13 115.32 76.34 116.12 C 74.80 113.85 72.29 112.08 71.82 109.25 C 70.11 101.60 69.78 93.76 70.10 85.95 Z" />
</g>
<g id="#514886ff">
<path fill="#514886" opacity="1.00" d=" M 63.39 8.36 C 72.85 6.60 81.90 11.36 89.39 16.65 C 93.92 20.37 95.76 26.22 97.39 31.63 C 100.33 40.12 98.39 49.19 99.10 57.95 C 101.71 76.13 102.11 94.50 104.11 112.75 C 99.80 113.80 96.79 117.32 92.65 118.66 C 87.16 119.64 81.42 118.10 76.05 120.00 L 48.91 120.00 C 44.67 118.74 39.48 119.31 36.26 115.76 C 31.66 110.93 25.14 108.78 18.77 107.51 C 19.27 103.82 21.09 100.50 21.87 96.90 C 22.36 90.29 21.71 83.64 22.05 77.02 C 22.31 72.60 24.46 68.60 25.23 64.27 C 26.53 56.71 29.31 49.50 32.54 42.56 C 35.65 34.79 39.38 27.29 42.52 19.53 C 45.10 16.39 49.07 14.76 52.18 12.19 C 55.24 9.42 59.55 9.19 63.39 8.36 M 40.79 36.21 C 41.60 37.10 42.41 38.00 43.30 38.81 C 44.64 39.14 45.84 38.03 47.11 37.75 C 46.94 36.39 46.88 34.04 45.02 34.05 C 43.54 34.64 42.18 35.45 40.79 36.21 M 85.72 36.09 C 86.22 37.09 86.72 38.08 87.26 39.06 C 87.65 38.52 88.44 37.43 88.83 36.89 C 89.94 37.73 91.03 38.59 92.23 39.30 C 92.23 35.49 88.44 35.85 85.72 36.09 M 58.43 73.24 C 58.31 72.10 58.45 70.96 58.51 69.82 C 56.15 69.96 53.60 70.07 51.77 71.77 C 48.60 74.59 45.27 78.26 45.89 82.84 C 49.00 85.34 53.00 85.22 56.76 84.99 C 56.85 84.21 57.04 82.65 57.13 81.87 C 57.46 82.37 58.13 83.36 58.46 83.86 C 60.45 81.95 62.62 80.26 64.78 78.56 C 65.12 80.46 64.50 83.47 67.08 83.95 C 71.48 85.13 76.09 86.51 80.69 85.83 C 83.00 83.63 84.65 79.65 82.98 76.63 C 82.00 76.45 81.02 76.25 80.05 76.03 C 80.69 75.33 81.34 74.65 82.00 73.96 C 80.27 73.04 78.50 72.13 76.52 71.93 C 75.96 73.43 75.41 75.00 74.27 76.19 C 74.48 74.82 74.80 73.47 75.03 72.11 C 70.54 68.23 61.27 66.72 58.43 73.24 M 62.28 82.27 C 60.85 83.55 59.35 84.75 57.82 85.91 C 61.30 85.92 64.84 86.89 68.29 86.05 C 66.37 84.67 64.32 83.48 62.28 82.27 M 47.07 86.07 C 47.62 92.45 45.90 98.67 46.00 105.03 C 45.74 108.81 44.73 112.52 45.02 116.34 C 52.48 108.25 58.23 97.38 56.94 86.07 C 53.65 86.04 50.36 86.04 47.07 86.07 M 70.10 85.95 C 69.78 93.76 70.11 101.60 71.82 109.25 C 72.29 112.08 74.80 113.85 76.34 116.12 C 77.13 115.32 78.01 114.59 78.61 113.62 C 81.15 105.02 81.13 96.03 80.94 87.15 C 77.29 87.18 73.65 86.83 70.10 85.95 M 57.67 87.00 C 60.18 91.51 66.40 91.26 69.60 87.66 C 65.61 87.66 61.66 86.86 57.67 87.00 Z" />
</g>
<g id="#000000ff">
<path fill="#000000" opacity="1.00" d=" M 43.17 36.15 C 44.80 35.63 45.36 36.18 44.84 37.81 C 43.20 38.32 42.64 37.77 43.17 36.15 Z" />
<path fill="#000000" opacity="1.00" d=" M 62.17 72.17 C 63.79 71.65 64.35 72.20 63.83 73.83 C 62.20 74.35 61.65 73.79 62.17 72.17 Z" />
<path fill="#000000" opacity="1.00" d=" M 54.20 73.21 C 54.84 73.85 54.84 73.85 54.20 73.21 Z" />
<path fill="#000000" opacity="1.00" d=" M 58.43 73.24 C 62.41 75.77 66.97 77.12 71.67 77.36 C 71.14 75.81 70.62 74.26 70.11 72.70 C 71.50 73.85 72.89 75.01 74.27 76.19 C 73.88 76.66 73.09 77.59 72.70 78.06 C 67.77 77.84 60.89 78.65 58.43 73.24 Z" />
<path fill="#000000" opacity="1.00" d=" M 78.10 74.25 C 81.35 74.46 76.57 77.33 78.10 74.25 Z" />
<path fill="#000000" opacity="1.00" d=" M 54.21 76.21 C 54.85 76.84 54.85 76.84 54.21 76.21 Z" />
<path fill="#000000" opacity="1.00" d=" M 76.00 80.03 C 74.67 80.03 74.30 77.53 75.61 77.20 C 76.98 77.38 77.11 79.42 76.00 80.03 Z" />
<path fill="#000000" opacity="1.00" d=" M 78.33 77.12 C 79.33 76.34 81.25 77.70 80.67 78.88 C 79.67 79.65 77.75 78.30 78.33 77.12 Z" />
<path fill="#000000" opacity="1.00" d=" M 51.10 78.25 C 54.35 78.46 49.57 81.32 51.10 78.25 Z" />
<path fill="#000000" opacity="1.00" d=" M 57.25 78.10 C 60.33 76.58 57.45 81.35 57.25 78.10 Z" />
<path fill="#000000" opacity="1.00" d=" M 69.05 79.38 C 70.42 79.06 70.94 79.58 70.62 80.95 C 69.21 81.31 68.68 80.79 69.05 79.38 Z" />
<path fill="#000000" opacity="1.00" d=" M 76.00 80.03 C 77.09 79.58 79.16 80.51 78.69 81.86 C 77.59 82.54 75.80 81.25 76.00 80.03 Z" />
<path fill="#000000" opacity="1.00" d=" M 51.25 81.31 C 52.14 80.77 54.40 80.26 54.74 81.59 C 54.00 82.46 49.89 83.47 51.25 81.31 Z" />
<path fill="#000000" opacity="1.00" d=" M 77.05 83.38 C 78.42 83.05 78.94 83.58 78.62 84.95 C 77.21 85.31 76.69 84.79 77.05 83.38 Z" />
</g>
<g id="#1d2b53ff">
<path fill="#1d2b53" opacity="1.00" d=" M 58.43 73.24 C 61.27 66.72 70.54 68.23 75.03 72.11 C 74.80 73.47 74.48 74.82 74.27 76.19 C 72.89 75.01 71.50 73.85 70.11 72.70 C 70.62 74.26 71.14 75.81 71.67 77.36 C 66.97 77.12 62.41 75.77 58.43 73.24 M 62.17 72.17 C 61.65 73.79 62.20 74.35 63.83 73.83 C 64.35 72.20 63.79 71.65 62.17 72.17 Z" />
<path fill="#1d2b53" opacity="1.00" d=" M 50.18 74.97 C 51.37 75.57 51.26 76.25 49.83 77.03 C 48.64 76.44 48.75 75.75 50.18 74.97 Z" />
<path fill="#1d2b53" opacity="1.00" d=" M 71.99 80.38 C 73.28 79.66 77.76 83.47 74.38 82.98 C 73.36 82.58 71.36 81.84 71.99 80.38 Z" />
</g>
<g id="#ffccaaff">
<path fill="#ffccaa" opacity="1.00" d=" M 51.77 71.77 C 53.60 70.07 56.15 69.96 58.51 69.82 C 58.45 70.96 58.31 72.10 58.43 73.24 C 60.89 78.65 67.77 77.84 72.70 78.06 C 73.09 77.59 73.88 76.66 74.27 76.19 C 75.41 75.00 75.96 73.43 76.52 71.93 C 78.50 72.13 80.27 73.04 82.00 73.96 C 81.34 74.65 80.69 75.33 80.05 76.03 C 81.02 76.25 82.00 76.45 82.98 76.63 C 84.65 79.65 83.00 83.63 80.69 85.83 C 76.09 86.51 71.48 85.13 67.08 83.95 C 64.50 83.47 65.12 80.46 64.78 78.56 C 62.62 80.26 60.45 81.95 58.46 83.86 C 58.13 83.36 57.46 82.37 57.13 81.87 C 57.04 82.65 56.85 84.21 56.76 84.99 C 53.00 85.22 49.00 85.34 45.89 82.84 C 45.27 78.26 48.60 74.59 51.77 71.77 M 54.20 73.21 C 54.84 73.85 54.84 73.85 54.20 73.21 M 78.10 74.25 C 76.57 77.33 81.35 74.46 78.10 74.25 M 50.18 74.97 C 48.75 75.75 48.64 76.44 49.83 77.03 C 51.26 76.25 51.37 75.57 50.18 74.97 M 54.21 76.21 C 54.85 76.84 54.85 76.84 54.21 76.21 M 76.00 80.03 C 75.80 81.25 77.59 82.54 78.69 81.86 C 79.16 80.51 77.09 79.58 76.00 80.03 C 77.11 79.42 76.98 77.38 75.61 77.20 C 74.30 77.53 74.67 80.03 76.00 80.03 M 78.33 77.12 C 77.75 78.30 79.67 79.65 80.67 78.88 C 81.25 77.70 79.33 76.34 78.33 77.12 M 51.10 78.25 C 49.57 81.32 54.35 78.46 51.10 78.25 M 57.25 78.10 C 57.45 81.35 60.33 76.58 57.25 78.10 M 69.05 79.38 C 68.68 80.79 69.21 81.31 70.62 80.95 C 70.94 79.58 70.42 79.06 69.05 79.38 M 71.99 80.38 C 71.36 81.84 73.36 82.58 74.38 82.98 C 77.76 83.47 73.28 79.66 71.99 80.38 M 51.25 81.31 C 49.89 83.47 54.00 82.46 54.74 81.59 C 54.40 80.26 52.14 80.77 51.25 81.31 M 77.05 83.38 C 76.69 84.79 77.21 85.31 78.62 84.95 C 78.94 83.58 78.42 83.05 77.05 83.38 Z" />
<path fill="#ffccaa" opacity="1.00" d=" M 57.67 87.00 C 61.66 86.86 65.61 87.66 69.60 87.66 C 66.40 91.26 60.18 91.51 57.67 87.00 Z" />
</g>
<g id="#ff004dff">
<path fill="#ff004d" opacity="1.00" d=" M 62.28 82.27 C 64.32 83.48 66.37 84.67 68.29 86.05 C 64.84 86.89 61.30 85.92 57.82 85.91 C 59.35 84.75 60.85 83.55 62.28 82.27 Z" />
</g>
</svg>
