<?xml version="1.0" encoding="UTF-8" ?>
<!DOCTYPE svg PUBLIC "-//W3C//DTD SVG 1.1//EN" "http://www.w3.org/Graphics/SVG/1.1/DTD/svg11.dtd">
<svg width="323pt" height="207pt" viewBox="0 0 323 207" version="1.1" xmlns="http://www.w3.org/2000/svg">
<g id="#1d82b6d1">
<path fill="#1d82b6" opacity="0.82" d=" M 143.86 31.84 C 151.92 25.80 160.61 20.70 169.47 15.94 C 168.85 16.85 168.22 17.77 167.60 18.68 C 154.30 25.24 143.03 35.22 129.69 41.68 C 117.85 47.41 107.49 55.72 95.66 61.45 C 95.65 61.04 95.63 60.21 95.62 59.79 C 102.77 56.52 109.43 52.30 115.94 47.92 C 124.82 41.82 135.01 38.00 143.86 31.84 Z" />
</g>
<g id="#b97469ff">
<path fill="#b97469" opacity="1.00" d=" M 169.47 15.94 C 169.56 16.33 169.73 17.11 169.82 17.50 L 170.02 18.41 C 170.35 20.26 170.63 22.13 170.99 23.98 C 171.11 24.64 171.35 25.96 171.47 26.63 C 172.03 30.30 172.55 33.98 173.09 37.66 C 175.30 38.17 177.49 38.70 179.69 39.23 C 180.04 39.71 180.74 40.68 181.09 41.16 C 176.33 40.29 171.53 39.69 166.73 39.20 C 171.78 40.32 176.86 41.34 181.95 42.33 C 182.24 42.73 182.81 43.54 183.10 43.94 C 180.17 43.99 174.32 44.09 171.39 44.15 C 171.61 45.76 172.05 48.99 172.27 50.60 C 172.34 51.10 172.47 52.09 172.53 52.58 C 172.66 71.68 169.24 90.91 172.79 109.88 C 172.62 123.37 174.38 136.66 176.99 149.85 C 177.03 150.38 177.12 151.43 177.17 151.96 C 177.33 154.73 177.51 157.54 177.63 160.33 C 177.65 160.78 177.67 161.68 177.69 162.13 C 177.71 163.70 177.74 166.85 177.76 168.42 C 177.17 168.59 175.98 168.93 175.39 169.10 C 175.36 166.66 175.33 164.21 175.23 161.77 C 175.17 161.34 175.06 160.49 175.01 160.06 C 174.91 157.38 174.89 154.70 174.94 152.03 C 174.91 151.58 174.86 150.69 174.83 150.24 C 171.28 129.68 169.98 108.82 169.12 88.00 C 168.47 73.00 172.70 57.82 169.18 42.98 C 165.88 41.20 162.12 40.44 158.65 39.07 C 158.45 38.41 158.03 37.10 157.82 36.44 C 162.09 36.56 166.36 36.78 170.63 36.92 C 169.47 30.87 168.51 24.78 167.60 18.68 C 168.22 17.77 168.85 16.85 169.47 15.94 Z" />
</g>
<g id="#1b7babc5">
<path fill="#1b7bab" opacity="0.77" d=" M 169.82 17.50 C 182.21 26.37 190.65 39.28 199.98 51.06 C 202.72 54.07 206.33 56.08 209.43 58.67 C 214.97 63.06 218.70 69.30 224.31 73.64 C 231.59 78.74 234.06 87.77 239.77 94.24 C 245.94 103.04 256.03 108.03 261.84 117.11 C 266.70 123.46 268.86 131.62 274.78 137.18 C 280.18 141.86 285.96 146.08 291.31 150.82 C 290.84 150.81 289.88 150.80 289.41 150.79 C 282.45 145.53 275.23 140.30 269.78 133.41 C 264.93 125.91 261.37 117.47 254.91 111.12 C 249.42 105.94 243.46 101.21 238.83 95.19 C 233.95 89.58 231.52 82.15 225.78 77.24 C 219.84 71.53 214.70 65.01 208.39 59.68 C 193.07 48.36 184.33 30.80 170.02 18.41 L 169.82 17.50 Z" />
</g>
<g id="#1b719eb7">
<path fill="#1b719e" opacity="0.72" d=" M 170.99 23.98 C 174.40 29.15 178.34 33.96 181.72 39.15 C 182.51 40.57 183.35 41.94 184.33 43.23 C 191.24 53.03 195.48 64.34 201.40 74.70 C 206.33 83.41 213.66 90.34 220.92 97.07 C 229.63 105.08 237.38 114.06 246.18 121.97 C 244.89 121.17 243.58 120.43 242.26 119.68 C 236.99 116.06 233.03 110.94 228.51 106.49 C 218.97 96.41 207.31 88.02 200.41 75.70 C 194.46 65.21 190.12 53.82 183.10 43.94 C 182.81 43.54 182.24 42.73 181.95 42.33 C 181.74 42.04 181.30 41.45 181.09 41.16 C 180.74 40.68 180.04 39.71 179.69 39.23 C 176.86 35.09 173.94 30.99 171.47 26.63 C 171.35 25.96 171.11 24.64 170.99 23.98 Z" />
</g>
<g id="#b9756afe">
<path fill="#b9756a" opacity="1.00" d=" M 181.72 39.15 C 184.25 38.43 186.17 41.25 184.33 43.23 C 183.35 41.94 182.51 40.57 181.72 39.15 Z" />
<path fill="#b9756a" opacity="1.00" d=" M 139.35 41.26 C 141.72 44.00 144.14 46.76 145.90 49.94 C 147.15 54.00 146.81 58.40 147.35 62.57 L 147.37 63.59 C 146.94 79.86 156.56 93.80 161.11 108.87 C 165.70 122.38 167.99 136.55 173.02 149.93 C 173.04 150.40 173.09 151.35 173.11 151.82 C 173.50 154.49 173.88 157.16 174.25 159.84 C 174.21 160.53 174.11 161.93 174.07 162.62 C 172.50 163.80 171.00 165.05 169.48 166.27 C 169.25 164.85 169.02 163.44 168.79 162.02 C 168.68 161.43 168.47 160.23 168.37 159.64 C 167.97 157.42 167.55 155.20 167.06 153.01 C 166.93 152.43 166.66 151.26 166.52 150.68 C 164.98 143.50 161.41 137.01 158.94 130.14 C 154.32 116.06 148.44 102.26 146.49 87.46 C 143.72 72.08 147.87 55.22 139.35 41.26 M 147.98 82.77 C 149.92 93.91 151.98 105.16 156.39 115.64 C 160.93 127.02 163.83 139.22 169.48 150.06 C 169.29 150.58 168.91 151.64 168.72 152.17 C 169.65 154.57 170.55 156.98 171.49 159.39 C 171.33 157.02 171.18 154.65 171.07 152.29 C 171.06 151.94 171.03 151.24 171.01 150.89 C 169.66 147.27 168.12 143.71 167.12 139.98 C 162.28 120.45 157.13 100.81 147.98 82.77 Z" />
</g>
<g id="#208dc6e3">
<path fill="#208dc6" opacity="0.89" d=" M 147.35 62.57 C 152.55 55.38 158.31 48.61 164.16 41.95 C 159.27 49.69 153.82 57.08 147.37 63.59 L 147.35 62.57 Z" />
</g>
<g id="#1e84b9d4">
<path fill="#1e84b9" opacity="0.83" d=" M 114.97 87.98 C 126.76 76.66 133.08 61.21 140.17 46.80 C 136.81 60.28 129.14 72.09 121.34 83.38 C 119.40 85.72 117.41 88.22 114.68 89.66 C 107.83 90.08 101.09 87.94 95.08 84.81 L 95.65 84.08 C 101.71 86.11 108.58 90.51 114.97 87.98 Z" />
</g>
<g id="#1a75a3bc">
<path fill="#1a75a3" opacity="0.74" d=" M 172.27 50.60 C 178.15 60.19 185.05 69.50 188.29 80.43 C 191.54 95.12 199.01 108.43 207.01 121.01 C 207.30 121.48 207.87 122.41 208.16 122.87 C 207.73 122.89 206.87 122.92 206.44 122.94 C 206.07 122.37 205.33 121.24 204.96 120.67 C 197.52 108.40 190.43 95.56 187.29 81.43 C 184.13 71.02 177.60 62.08 172.53 52.58 C 172.47 52.09 172.34 51.10 172.27 50.60 Z" />
</g>
<g id="#b9756aff">
<path fill="#b9756a" opacity="1.00" d=" M 93.21 60.00 C 94.00 59.66 94.80 59.32 95.60 58.99 L 95.62 59.79 C 95.63 60.21 95.65 61.04 95.66 61.45 C 95.82 66.95 96.23 72.43 96.55 77.92 C 100.11 79.47 103.62 81.17 106.84 83.37 C 103.76 82.81 100.70 82.12 97.65 81.42 C 96.98 82.31 96.32 83.19 95.65 84.08 L 95.08 84.81 L 94.69 85.30 C 93.76 84.40 92.83 83.49 91.92 82.57 C 92.44 81.61 92.95 80.66 93.42 79.67 C 93.26 79.56 92.96 79.33 92.81 79.22 C 92.48 78.99 91.82 78.53 91.50 78.30 C 89.01 76.67 86.50 75.04 84.29 73.03 C 87.74 73.88 91.03 75.21 94.25 76.68 C 93.95 71.12 93.70 65.55 93.21 60.00 Z" />
<path fill="#b9756a" opacity="1.00" d=" M 91.73 89.03 C 92.33 88.24 92.95 87.46 93.57 86.69 C 93.70 107.47 95.66 128.17 96.08 148.94 C 96.12 149.41 96.19 150.35 96.22 150.82 C 96.44 153.58 96.69 156.37 96.86 159.14 C 96.87 159.59 96.91 160.48 96.93 160.93 C 95.58 165.49 94.09 170.01 92.56 174.52 C 92.99 170.32 93.62 166.15 94.06 161.95 C 94.09 161.50 94.17 160.58 94.21 160.13 C 94.34 157.10 94.21 154.07 94.17 151.05 C 94.16 150.55 94.13 149.55 94.12 149.05 C 93.87 129.02 91.15 109.07 91.73 89.03 Z" />
</g>
<g id="#19719eb5">
<path fill="#19719e" opacity="0.71" d=" M 91.50 78.30 C 91.82 78.53 92.48 78.99 92.81 79.22 C 85.44 88.52 73.79 93.26 67.11 103.17 C 60.95 111.89 52.71 118.71 45.18 126.18 C 38.39 134.10 31.90 142.39 23.76 149.02 C 23.04 149.60 22.30 150.16 21.55 150.70 C 20.64 151.31 19.73 151.90 18.81 152.49 C 19.69 151.42 20.57 150.35 21.48 149.32 C 28.62 141.80 37.00 135.43 42.73 126.65 C 50.80 118.08 60.58 111.04 67.02 101.02 C 72.98 91.17 85.68 88.25 91.50 78.30 Z" />
</g>
<g id="#2084b8d5">
<path fill="#2084b8" opacity="0.84" d=" M 69.94 111.95 C 77.35 102.23 85.67 93.09 91.92 82.57 C 92.83 83.49 93.76 84.40 94.69 85.30 C 94.41 85.65 93.85 86.35 93.57 86.69 C 92.95 87.46 92.33 88.24 91.73 89.03 C 81.37 107.02 85.78 128.77 81.63 148.37 C 82.57 128.70 82.04 108.50 88.83 89.72 C 82.58 97.53 76.98 105.86 70.48 113.47 C 59.05 124.35 49.78 137.19 39.78 149.32 C 38.86 149.36 37.94 149.41 37.03 149.43 C 48.57 137.42 57.73 123.34 69.94 111.95 Z" />
</g>
<g id="#df3d23ff">
<path fill="#df3d23" opacity="1.00" d=" M 207.01 121.01 C 218.75 120.33 230.50 119.74 242.26 119.68 C 243.58 120.43 244.89 121.17 246.18 121.97 C 248.87 124.23 251.49 126.57 254.07 128.95 C 252.53 135.50 251.57 142.16 251.01 148.86 C 250.98 149.36 250.90 150.36 250.86 150.87 C 250.66 153.86 250.47 156.89 250.37 159.90 C 250.37 160.40 250.37 161.39 250.38 161.89 C 250.50 164.51 250.65 167.14 250.83 169.77 C 249.80 170.05 248.77 170.29 247.73 170.52 C 248.16 158.67 249.12 146.84 250.04 135.02 C 236.97 135.00 223.91 134.97 210.85 135.02 C 210.07 149.41 209.76 163.82 209.19 178.22 C 207.69 178.35 206.18 178.38 204.67 178.37 C 200.22 173.58 195.76 168.14 195.79 161.20 C 195.81 160.66 195.86 159.58 195.88 159.04 C 196.07 156.27 196.43 153.52 196.77 150.78 C 196.83 150.30 196.95 149.34 197.01 148.86 C 197.65 140.23 198.83 131.48 197.52 122.85 C 199.99 122.10 202.46 121.38 204.96 120.67 C 205.33 121.24 206.07 122.37 206.44 122.94 C 204.20 123.09 201.97 123.32 199.74 123.55 C 203.19 126.62 206.30 130.52 210.69 132.20 C 224.40 133.86 238.39 133.55 252.11 131.96 C 249.32 128.81 247.22 124.60 243.30 122.77 C 231.66 121.12 219.86 122.38 208.16 122.87 C 207.87 122.41 207.30 121.48 207.01 121.01 M 200.99 128.50 C 198.88 141.05 197.60 153.87 198.49 166.60 C 200.08 170.68 203.87 173.43 206.82 176.54 C 208.43 163.23 208.24 149.77 208.43 136.39 C 208.47 132.28 203.19 131.11 200.99 128.50 Z" />
</g>
<g id="#b3202aff">
<path fill="#b3202a" opacity="1.00" d=" M 208.16 122.87 C 219.86 122.38 231.66 121.12 243.30 122.77 C 247.22 124.60 249.32 128.81 252.11 131.96 C 238.39 133.55 224.40 133.86 210.69 132.20 C 206.30 130.52 203.19 126.62 199.74 123.55 C 201.97 123.32 204.20 123.09 206.44 122.94 C 206.87 122.92 207.73 122.89 208.16 122.87 Z" />
</g>
<g id="#b4202aff">
<path fill="#b4202a" opacity="1.00" d=" M 200.99 128.50 C 203.19 131.11 208.47 132.28 208.43 136.39 C 208.24 149.77 208.43 163.23 206.82 176.54 C 203.87 173.43 200.08 170.68 198.49 166.60 C 197.60 153.87 198.88 141.05 200.99 128.50 Z" />
</g>
<g id="#b31f29ff">
<path fill="#b31f29" opacity="1.00" d=" M 210.85 135.02 C 223.91 134.97 236.97 135.00 250.04 135.02 C 249.12 146.84 248.16 158.67 247.73 170.52 C 234.88 173.06 222.18 176.43 209.19 178.22 C 209.76 163.82 210.07 149.41 210.85 135.02 M 233.94 136.60 C 235.21 140.46 236.40 144.35 237.90 148.15 C 240.31 148.51 245.12 149.25 247.53 149.62 C 247.25 147.08 246.69 142.01 246.41 139.48 C 242.54 137.58 238.12 137.26 233.94 136.60 Z" />
</g>
<g id="#df3e22ff">
<path fill="#df3e22" opacity="1.00" d=" M 233.94 136.60 C 238.12 137.26 242.54 137.58 246.41 139.48 C 246.69 142.01 247.25 147.08 247.53 149.62 C 245.12 149.25 240.31 148.51 237.90 148.15 C 236.40 144.35 235.21 140.46 233.94 136.60 M 237.66 139.40 C 238.99 143.42 238.94 149.23 245.59 147.57 C 246.55 141.71 242.07 140.14 237.66 139.40 Z" />
</g>
<g id="#783a80ff">
<path fill="#783a80" opacity="1.00" d=" M 39.78 149.32 C 57.88 147.94 76.00 149.13 94.12 149.05 C 94.13 149.55 94.16 150.55 94.17 151.05 C 75.15 151.00 56.12 150.35 37.11 151.45 C 36.55 151.46 35.44 151.49 34.89 151.50 C 30.43 151.52 25.97 151.25 21.55 150.70 C 22.30 150.16 23.04 149.60 23.76 149.02 C 28.17 149.43 32.60 149.53 37.03 149.43 C 37.94 149.41 38.86 149.36 39.78 149.32 Z" />
</g>
<g id="#78397ffe">
<path fill="#78397f" opacity="1.00" d=" M 13.67 148.98 C 15.62 149.07 19.53 149.23 21.48 149.32 C 20.57 150.35 19.69 151.42 18.81 152.49 C 22.18 154.73 25.47 157.09 28.95 159.15 C 29.40 159.35 30.29 159.76 30.74 159.96 C 31.90 160.41 33.07 160.83 34.25 161.23 C 34.84 161.45 36.02 161.89 36.61 162.12 C 43.74 167.23 52.16 170.19 60.81 171.42 C 88.36 175.70 115.92 181.95 143.98 180.56 C 155.80 180.54 167.23 176.72 179.05 176.74 C 187.63 176.43 196.12 177.99 204.67 178.37 C 206.18 178.38 207.69 178.35 209.19 178.22 C 222.18 176.43 234.88 173.06 247.73 170.52 C 248.77 170.29 249.80 170.05 250.83 169.77 C 259.44 167.25 267.83 164.09 276.27 161.06 C 277.37 160.71 278.47 160.37 279.57 160.02 C 285.33 158.25 290.95 156.03 296.44 153.56 C 281.21 153.23 266.00 152.62 250.86 150.87 C 250.90 150.36 250.98 149.36 251.01 148.86 C 263.78 150.17 276.56 151.32 289.41 150.79 C 289.88 150.80 290.84 150.81 291.31 150.82 C 295.69 150.86 300.06 150.55 304.42 150.18 C 301.19 162.06 292.31 170.89 286.45 181.42 C 283.91 185.69 281.75 190.18 279.23 194.46 C 278.52 195.90 276.91 196.59 275.37 196.52 C 262.43 196.31 249.38 195.33 236.53 197.39 C 219.94 200.24 203.06 197.25 186.40 199.25 C 178.00 200.04 169.57 199.41 161.15 199.49 C 135.23 202.25 109.05 201.06 83.15 198.76 C 65.55 196.10 47.68 195.58 30.23 191.90 C 24.35 177.73 17.23 164.01 13.67 148.98 M 17.77 154.67 C 19.88 163.90 24.39 172.30 27.89 181.05 C 29.59 184.35 30.64 189.17 34.78 190.28 C 42.71 193.08 51.33 192.69 59.56 193.81 C 90.57 197.49 121.89 200.90 153.12 198.03 C 161.08 196.80 169.14 197.53 177.15 197.66 C 186.11 197.74 194.98 195.63 203.95 196.46 C 214.40 197.09 224.96 197.02 235.32 195.32 C 248.30 193.02 261.55 194.78 274.62 193.51 C 276.29 193.11 277.48 191.78 278.44 190.43 C 282.50 184.54 285.90 178.24 289.29 171.95 C 264.56 176.34 239.36 176.57 214.45 179.43 C 203.57 180.55 192.65 179.66 181.82 178.45 C 170.93 178.36 160.62 182.86 149.69 182.68 C 133.91 182.71 118.05 182.68 102.40 180.51 C 85.87 177.50 69.22 175.18 52.71 172.08 C 44.31 170.62 37.60 165.26 29.90 162.06 C 25.49 160.23 21.75 157.22 17.77 154.67 M 269.30 166.29 C 259.37 170.13 248.85 171.91 238.62 174.70 C 251.85 174.34 265.03 172.93 278.16 171.32 C 283.28 170.23 289.45 170.45 293.36 166.37 C 296.95 163.58 297.92 158.95 299.25 154.86 C 289.55 159.40 279.24 162.35 269.30 166.29 Z" />
</g>
<g id="#793a80ff">
<path fill="#793a80" opacity="1.00" d=" M 96.08 148.94 C 111.34 150.06 126.66 150.15 141.93 151.26 C 150.12 152.04 158.34 151.21 166.52 150.68 C 166.66 151.26 166.93 152.43 167.06 153.01 C 143.45 153.86 119.77 152.53 96.22 150.82 C 96.19 150.35 96.12 149.41 96.08 148.94 Z" />
<path fill="#793a80" opacity="1.00" d=" M 169.48 150.06 C 169.86 150.26 170.63 150.68 171.01 150.89 C 171.03 151.24 171.06 151.94 171.07 152.29 C 170.48 152.26 169.31 152.20 168.72 152.17 C 168.91 151.64 169.29 150.58 169.48 150.06 Z" />
<path fill="#793a80" opacity="1.00" d=" M 173.02 149.93 C 173.47 150.01 174.38 150.16 174.83 150.24 C 174.86 150.69 174.91 151.58 174.94 152.03 C 174.48 151.98 173.57 151.87 173.11 151.82 C 173.09 151.35 173.04 150.40 173.02 149.93 Z" />
</g>
<g id="#793a80fe">
<path fill="#793a80" opacity="1.00" d=" M 176.99 149.85 C 183.65 149.39 190.33 149.14 197.01 148.86 C 196.95 149.34 196.83 150.30 196.77 150.78 C 190.24 151.23 183.70 151.56 177.17 151.96 C 177.12 151.43 177.03 150.38 176.99 149.85 Z" />
</g>
<g id="#24513aff">
<path fill="#24513a" opacity="1.00" d=" M 37.11 151.45 C 56.12 150.35 75.15 151.00 94.17 151.05 C 94.21 154.07 94.34 157.10 94.21 160.13 C 74.23 158.33 54.18 159.72 34.25 161.23 C 33.07 160.83 31.90 160.41 30.74 159.96 C 32.85 157.11 34.98 154.29 37.11 151.45 Z" />
</g>
<g id="#24523bff">
<path fill="#24523b" opacity="1.00" d=" M 18.81 152.49 C 19.73 151.90 20.64 151.31 21.55 150.70 C 25.97 151.25 30.43 151.52 34.89 151.50 C 32.92 154.05 30.94 156.61 28.95 159.15 C 25.47 157.09 22.18 154.73 18.81 152.49 Z" />
<path fill="#24523b" opacity="1.00" d=" M 250.86 150.87 C 266.00 152.62 281.21 153.23 296.44 153.56 C 290.95 156.03 285.33 158.25 279.57 160.02 C 269.84 159.69 260.09 159.04 250.37 159.90 C 250.47 156.89 250.66 153.86 250.86 150.87 Z" />
</g>
<g id="#248bb5ff">
<path fill="#248bb5" opacity="1.00" d=" M 34.89 151.50 C 35.44 151.49 36.55 151.46 37.11 151.45 C 34.98 154.29 32.85 157.11 30.74 159.96 C 30.29 159.76 29.40 159.35 28.95 159.15 C 30.94 156.61 32.92 154.05 34.89 151.50 Z" />
</g>
<g id="#24523aff">
<path fill="#24523a" opacity="1.00" d=" M 96.22 150.82 C 119.77 152.53 143.45 153.86 167.06 153.01 C 167.55 155.20 167.97 157.42 168.37 159.64 C 144.53 159.41 120.69 159.43 96.86 159.14 C 96.69 156.37 96.44 153.58 96.22 150.82 Z" />
</g>
<g id="#23513bff">
<path fill="#23513b" opacity="1.00" d=" M 177.17 151.96 C 183.70 151.56 190.24 151.23 196.77 150.78 C 196.43 153.52 196.07 156.27 195.88 159.04 C 189.79 159.49 183.71 159.90 177.63 160.33 C 177.51 157.54 177.33 154.73 177.17 151.96 Z" />
</g>
<g id="#23674eff">
<path fill="#23674e" opacity="1.00" d=" M 17.77 154.67 C 21.75 157.22 25.49 160.23 29.90 162.06 C 37.60 165.26 44.31 170.62 52.71 172.08 C 69.22 175.18 85.87 177.50 102.40 180.51 C 118.05 182.68 133.91 182.71 149.69 182.68 C 160.62 182.86 170.93 178.36 181.82 178.45 C 192.65 179.66 203.57 180.55 214.45 179.43 C 239.36 176.57 264.56 176.34 289.29 171.95 C 285.90 178.24 282.50 184.54 278.44 190.43 C 277.48 191.78 276.29 193.11 274.62 193.51 C 261.55 194.78 248.30 193.02 235.32 195.32 C 224.96 197.02 214.40 197.09 203.95 196.46 C 194.98 195.63 186.11 197.74 177.15 197.66 C 169.14 197.53 161.08 196.80 153.12 198.03 C 121.89 200.90 90.57 197.49 59.56 193.81 C 51.33 192.69 42.71 193.08 34.78 190.28 C 30.64 189.17 29.59 184.35 27.89 181.05 C 24.39 172.30 19.88 163.90 17.77 154.67 Z" />
<path fill="#23674e" opacity="1.00" d=" M 269.30 166.29 C 279.24 162.35 289.55 159.40 299.25 154.86 C 297.92 158.95 296.95 163.58 293.36 166.37 C 289.45 170.45 283.28 170.23 278.16 171.32 C 265.03 172.93 251.85 174.34 238.62 174.70 C 248.85 171.91 259.37 170.13 269.30 166.29 Z" />
</g>
<g id="#5a3138ff">
<path fill="#5a3138" opacity="1.00" d=" M 34.25 161.23 C 54.18 159.72 74.23 158.33 94.21 160.13 C 94.17 160.58 94.09 161.50 94.06 161.95 C 74.91 160.38 55.76 162.13 36.61 162.12 C 36.02 161.89 34.84 161.45 34.25 161.23 Z" />
<path fill="#5a3138" opacity="1.00" d=" M 96.86 159.14 C 120.69 159.43 144.53 159.41 168.37 159.64 C 168.47 160.23 168.68 161.43 168.79 162.02 C 151.87 161.06 134.92 161.11 117.99 161.27 C 110.97 161.32 103.90 162.08 96.93 160.93 C 96.91 160.48 96.87 159.59 96.86 159.14 Z" />
</g>
<g id="#5b3038ff">
<path fill="#5b3038" opacity="1.00" d=" M 177.63 160.33 C 183.71 159.90 189.79 159.49 195.88 159.04 C 195.86 159.58 195.81 160.66 195.79 161.20 C 189.76 161.56 183.72 161.85 177.69 162.13 C 177.67 161.68 177.65 160.78 177.63 160.33 Z" />
<path fill="#5b3038" opacity="1.00" d=" M 250.37 159.90 C 260.09 159.04 269.84 159.69 279.57 160.02 C 278.47 160.37 277.37 160.71 276.27 161.06 C 267.63 161.34 259.00 161.37 250.38 161.89 C 250.37 161.39 250.37 160.40 250.37 159.90 Z" />
</g>
<g id="#5b3138ff">
<path fill="#5b3138" opacity="1.00" d=" M 174.25 159.84 L 175.01 160.06 C 175.06 160.49 175.17 161.34 175.23 161.77 C 174.94 161.98 174.36 162.41 174.07 162.62 C 174.11 161.93 174.21 160.53 174.25 159.84 Z" />
</g>
<g id="#f96a09ff">
<path fill="#f96a09" opacity="1.00" d=" M 36.61 162.12 C 55.76 162.13 74.91 160.38 94.06 161.95 C 93.62 166.15 92.99 170.32 92.56 174.52 C 94.09 170.01 95.58 165.49 96.93 160.93 C 103.90 162.08 110.97 161.32 117.99 161.27 C 134.92 161.11 151.87 161.06 168.79 162.02 C 169.02 163.44 169.25 164.85 169.48 166.27 C 171.00 165.05 172.50 163.80 174.07 162.62 C 174.36 162.41 174.94 161.98 175.23 161.77 C 175.33 164.21 175.36 166.66 175.39 169.10 C 175.98 168.93 177.17 168.59 177.76 168.42 C 177.74 166.85 177.71 163.70 177.69 162.13 C 183.72 161.85 189.76 161.56 195.79 161.20 C 195.76 168.14 200.22 173.58 204.67 178.37 C 196.12 177.99 187.63 176.43 179.05 176.74 C 167.23 176.72 155.80 180.54 143.98 180.56 C 115.92 181.95 88.36 175.70 60.81 171.42 C 52.16 170.19 43.74 167.23 36.61 162.12 Z" />
</g>
<g id="#fa6a0aff">
<path fill="#fa6a0a" opacity="1.00" d=" M 250.38 161.89 C 259.00 161.37 267.63 161.34 276.27 161.06 C 267.83 164.09 259.44 167.25 250.83 169.77 C 250.65 167.14 250.50 164.51 250.38 161.89 Z" />
</g>
</svg>
