<?xml version="1.0" encoding="UTF-8" ?>
<!DOCTYPE svg PUBLIC "-//W3C//DTD SVG 1.1//EN" "http://www.w3.org/Graphics/SVG/1.1/DTD/svg11.dtd">
<svg width="120pt" height="120pt" viewBox="0 0 120 120" version="1.1" xmlns="http://www.w3.org/2000/svg">
<g id="#000000ff">
<path fill="#000000" opacity="1.00" d=" M 45.95 17.95 C 54.09 15.99 63.18 16.13 70.60 20.41 C 83.71 27.37 90.51 42.28 92.43 56.41 C 93.44 71.57 93.76 87.26 90.05 102.08 C 84.33 108.10 74.45 106.09 67.00 106.84 C 51.68 105.93 36.12 106.70 21.03 103.48 C 27.44 86.66 21.11 67.80 26.76 50.71 C 31.12 39.13 33.35 23.74 45.95 17.95 M 47.67 18.68 C 41.05 21.01 36.83 27.03 34.27 33.29 C 30.13 43.90 25.72 54.77 25.37 66.31 C 24.63 78.57 25.53 90.98 23.19 103.11 C 39.36 105.14 55.69 105.61 71.97 105.69 C 77.71 105.26 85.00 105.88 89.05 101.08 C 92.12 90.08 91.90 78.32 92.03 66.98 C 92.16 51.65 87.14 35.08 75.02 25.00 C 67.52 18.78 57.19 16.43 47.67 18.68 Z" />
<path fill="#000000" opacity="1.00" d=" M 65.41 31.95 C 70.84 31.77 77.00 29.72 81.87 33.16 C 76.37 33.00 70.87 32.56 65.41 31.95 Z" />
<path fill="#000000" opacity="1.00" d=" M 35.75 35.24 C 39.11 32.78 43.31 32.50 47.32 32.06 C 43.48 33.18 39.68 34.44 35.75 35.24 Z" />
<path fill="#000000" opacity="1.00" d=" M 72.29 38.36 C 74.97 37.47 77.82 37.30 80.60 36.85 C 80.70 41.54 80.79 46.23 80.75 50.93 C 77.25 50.52 73.75 50.08 70.28 49.46 C 70.93 45.81 70.60 41.78 72.29 38.36 M 73.43 39.50 C 71.81 42.09 71.97 45.41 71.04 48.20 C 73.87 48.92 76.72 49.59 79.60 50.11 C 79.60 45.93 79.58 41.76 79.53 37.58 C 77.46 38.11 75.32 38.49 73.43 39.50 Z" />
<path fill="#000000" opacity="1.00" d=" M 35.33 40.35 C 37.30 38.07 40.69 38.09 43.38 37.07 C 43.19 40.83 45.36 44.91 43.83 48.59 C 41.15 49.62 38.29 50.05 35.51 50.74 C 34.75 47.35 33.91 43.69 35.33 40.35 M 36.36 41.40 C 35.41 44.20 36.03 47.16 36.51 49.98 C 38.56 49.19 40.72 48.57 42.60 47.41 C 44.20 44.46 42.28 41.02 41.97 37.97 C 40.04 38.98 37.87 39.75 36.36 41.40 Z" />
<path fill="#000000" opacity="1.00" d=" M 38.08 42.85 C 38.67 43.03 39.86 43.38 40.45 43.55 C 40.62 44.14 40.97 45.33 41.15 45.92 C 40.35 45.94 38.77 46.00 37.98 46.02 C 38.00 45.23 38.06 43.65 38.08 42.85 Z" />
<path fill="#000000" opacity="1.00" d=" M 75.32 43.50 C 77.02 42.43 78.36 45.39 76.84 46.34 C 75.16 47.35 73.79 44.45 75.32 43.50 Z" />
<path fill="#000000" opacity="1.00" d=" M 53.19 48.85 C 59.10 50.60 63.60 54.96 67.37 59.64 C 65.94 61.14 64.54 62.71 62.80 63.86 C 60.27 62.88 58.24 61.03 56.09 59.45 C 56.72 64.45 57.44 69.44 58.13 74.43 C 61.47 74.39 64.82 74.37 68.14 74.05 C 67.06 79.40 65.38 84.60 63.53 89.74 C 59.66 88.02 54.72 88.41 51.28 85.71 C 48.64 82.99 47.76 79.12 46.02 75.83 C 45.31 83.92 52.72 92.63 61.17 90.16 C 67.71 87.89 68.63 79.83 69.14 73.91 C 69.08 68.93 68.33 63.99 67.93 59.03 C 70.78 68.30 72.65 79.29 66.90 87.89 C 60.74 96.29 46.68 90.58 45.70 81.09 C 44.12 75.27 41.33 68.42 45.39 62.99 C 44.86 66.85 44.34 70.71 43.84 74.57 C 48.25 74.51 52.65 74.23 57.05 74.01 C 56.62 70.89 56.19 67.76 55.77 64.63 C 52.78 64.23 49.80 63.74 46.83 63.24 C 48.94 58.44 50.68 53.47 53.19 48.85 M 49.36 63.43 C 52.31 62.09 54.79 59.98 57.50 58.23 C 59.25 59.40 60.44 61.18 61.80 62.74 C 63.12 62.33 64.44 61.92 65.77 61.51 C 63.42 57.00 60.15 52.24 55.04 50.74 C 50.49 53.24 50.55 58.96 49.36 63.43 M 50.86 75.06 C 51.06 76.20 51.26 77.34 51.46 78.48 C 52.08 78.64 53.32 78.97 53.94 79.13 C 53.97 77.75 54.00 76.36 54.03 74.98 C 53.24 75.00 51.65 75.04 50.86 75.06 M 61.95 75.10 C 61.99 76.44 62.03 77.78 62.07 79.12 C 63.21 78.92 64.36 78.72 65.50 78.52 C 65.63 77.96 65.89 76.85 66.02 76.29 C 64.66 75.89 63.31 75.50 61.95 75.10 Z" />
</g>
<g id="#5f574fff">
<path fill="#5f574f" opacity="1.00" d=" M 47.67 18.68 C 57.19 16.43 67.52 18.78 75.02 25.00 C 87.14 35.08 92.16 51.65 92.03 66.98 C 91.90 78.32 92.12 90.08 89.05 101.08 C 85.00 105.88 77.71 105.26 71.97 105.69 C 55.69 105.61 39.36 105.14 23.19 103.11 C 25.53 90.98 24.63 78.57 25.37 66.31 C 25.72 54.77 30.13 43.90 34.27 33.29 C 36.83 27.03 41.05 21.01 47.67 18.68 M 65.41 31.95 C 70.87 32.56 76.37 33.00 81.87 33.16 C 77.00 29.72 70.84 31.77 65.41 31.95 M 35.75 35.24 C 39.68 34.44 43.48 33.18 47.32 32.06 C 43.31 32.50 39.11 32.78 35.75 35.24 M 72.29 38.36 C 70.60 41.78 70.93 45.81 70.28 49.46 C 73.75 50.08 77.25 50.52 80.75 50.93 C 80.79 46.23 80.70 41.54 80.60 36.85 C 77.82 37.30 74.97 37.47 72.29 38.36 M 35.33 40.35 C 33.91 43.69 34.75 47.35 35.51 50.74 C 38.29 50.05 41.15 49.62 43.83 48.59 C 45.36 44.91 43.19 40.83 43.38 37.07 C 40.69 38.09 37.30 38.07 35.33 40.35 M 53.19 48.85 C 50.68 53.47 48.94 58.44 46.83 63.24 L 45.39 62.99 C 41.33 68.42 44.12 75.27 45.70 81.09 C 46.68 90.58 60.74 96.29 66.90 87.89 C 72.65 79.29 70.78 68.30 67.93 59.03 L 67.37 59.64 C 63.60 54.96 59.10 50.60 53.19 48.85 Z" />
</g>
<g id="#fff1e8ff">
<path fill="#fff1e8" opacity="1.00" d=" M 73.43 39.50 C 75.32 38.49 77.46 38.11 79.53 37.58 C 79.58 41.76 79.60 45.93 79.60 50.11 C 76.72 49.59 73.87 48.92 71.04 48.20 C 71.97 45.41 71.81 42.09 73.43 39.50 M 75.32 43.50 C 73.79 44.45 75.16 47.35 76.84 46.34 C 78.36 45.39 77.02 42.43 75.32 43.50 Z" />
<path fill="#fff1e8" opacity="1.00" d=" M 36.36 41.40 C 37.87 39.75 40.04 38.98 41.97 37.97 C 42.28 41.02 44.20 44.46 42.60 47.41 C 40.72 48.57 38.56 49.19 36.51 49.98 C 36.03 47.16 35.41 44.20 36.36 41.40 M 38.08 42.85 C 38.06 43.65 38.00 45.23 37.98 46.02 C 38.77 46.00 40.35 45.94 41.15 45.92 C 40.97 45.33 40.62 44.14 40.45 43.55 C 39.86 43.38 38.67 43.03 38.08 42.85 Z" />
<path fill="#fff1e8" opacity="1.00" d=" M 50.86 75.06 C 51.65 75.04 53.24 75.00 54.03 74.98 C 54.00 76.36 53.97 77.75 53.94 79.13 C 53.32 78.97 52.08 78.64 51.46 78.48 C 51.26 77.34 51.06 76.20 50.86 75.06 Z" />
<path fill="#fff1e8" opacity="1.00" d=" M 61.95 75.10 C 63.31 75.50 64.66 75.89 66.02 76.29 C 65.89 76.85 65.63 77.96 65.50 78.52 C 64.36 78.72 63.21 78.92 62.07 79.12 C 62.03 77.78 61.99 76.44 61.95 75.10 Z" />
</g>
<g id="#7e2553ff">
<path fill="#7e2553" opacity="1.00" d=" M 49.36 63.43 C 50.55 58.96 50.49 53.24 55.04 50.74 C 60.15 52.24 63.42 57.00 65.77 61.51 C 64.44 61.92 63.12 62.33 61.80 62.74 C 60.44 61.18 59.25 59.40 57.50 58.23 C 54.79 59.98 52.31 62.09 49.36 63.43 Z" />
</g>
<g id="#ffccaaff">
<path fill="#ffccaa" opacity="1.00" d=" M 56.09 59.45 C 58.24 61.03 60.27 62.88 62.80 63.86 C 64.54 62.71 65.94 61.14 67.37 59.64 L 67.93 59.03 C 68.33 63.99 69.08 68.93 69.14 73.91 L 68.14 74.05 C 64.82 74.37 61.47 74.39 58.13 74.43 C 57.44 69.44 56.72 64.45 56.09 59.45 Z" />
<path fill="#ffccaa" opacity="1.00" d=" M 45.39 62.99 L 46.83 63.24 C 49.80 63.74 52.78 64.23 55.77 64.63 C 56.19 67.76 56.62 70.89 57.05 74.01 C 52.65 74.23 48.25 74.51 43.84 74.57 C 44.34 70.71 44.86 66.85 45.39 62.99 Z" />
</g>
<g id="#ff004dff">
<path fill="#ff004d" opacity="1.00" d=" M 68.14 74.05 L 69.14 73.91 C 68.63 79.83 67.71 87.89 61.17 90.16 C 52.72 92.63 45.31 83.92 46.02 75.83 C 47.76 79.12 48.64 82.99 51.28 85.71 C 54.72 88.41 59.66 88.02 63.53 89.74 C 65.38 84.60 67.06 79.40 68.14 74.05 Z" />
</g>
</svg>
