<?xml version="1.0" standalone="no"?>
<!DOCTYPE svg PUBLIC "-//W3C//DTD SVG 1.1//EN" "http://www.w3.org/Graphics/SVG/1.1/DTD/svg11.dtd" >
<svg xmlns="http://www.w3.org/2000/svg" xmlns:xlink="http://www.w3.org/1999/xlink" version="1.1">
<metadata>
Created by FontForge 20190801 at Wed Jun 12 19:48:25 2002
 By Jimmy Wärting
Copyright (c) Typographer Mediengestaltung, 2002. All rights reserved. Sans Serif Shaded von Stephenson, Blake &#38; Co. Ltd., Sheffield. Eine der huebschesten Endstrichlosen aus dem zweiten Viertel des 19. Jahrhunderts. Digitalisiert durch Dieter Steffmann, Kreuztal.
</metadata>
<defs>
<font id="SansSerifShaded" horiz-adv-x="601" >
  <font-face 
    font-family="Sans Serif Shaded"
    font-weight="400"
    font-stretch="normal"
    units-per-em="1000"
    panose-1="4 0 0 0 0 0 0 0 0 0"
    ascent="800"
    descent="-200"
    x-height="843"
    cap-height="838"
    bbox="11 -132 1500 866"
    underline-thickness="50"
    underline-position="-125"
    unicode-range="U+0020-F000"
  />
<missing-glyph 
 />
    <glyph glyph-name=".notdef" 
 />
    <glyph glyph-name=".null" horiz-adv-x="0" 
 />
    <glyph glyph-name="nonmarkingreturn" 
 />
    <glyph glyph-name="space" unicode=" " 
 />
    <glyph glyph-name="space" unicode="&#xa0;" 
 />
    <glyph glyph-name="zero" unicode="0" horiz-adv-x="718" 
d="M660 340q0 170 -91 331q-107 188 -262 188q-63 0 -108.5 -21.5t-75 -68t-44 -119t-14.5 -174.5q0 -107 23 -195t66 -151t105.5 -97.5t140.5 -34.5q129 0 194.5 89.5t65.5 252.5zM531 464q0 -91 -11 -155.5t-34 -105t-58.5 -59.5t-83.5 -19h-72q-52 0 -89 20.5t-60.5 67
t-34.5 121.5t-11 183q0 71 13.5 131.5t39 104.5t61 68.5t80.5 24.5h62q47 0 84 -27t62.5 -77t38.5 -120.5t13 -157.5zM348 496v96q0 48 -9 65.5t-32 17.5q-17 0 -24.5 -8t-13.5 -14q-13 -20 -13 -292q0 -60 43 -60q27 0 37.5 15.5t10.5 60.5z" />
    <glyph glyph-name="one" unicode="1" horiz-adv-x="486" 
d="M401 595q0 73 -34 128q-5 9 -26.5 35t-58.5 71l-8 3q-2 -1 -14.5 -10t-30 -21.5t-37.5 -27t-36.5 -27t-27.5 -21t-11 -10.5l2 -3q3 0 67 46q66 46 72 51l5 -4q8 -27 8 -54q0 -23 -0.5 -64t-2 -90t-2.5 -103t-2.5 -103t-2 -90t-0.5 -64q0 -112 -6 -113h-162q-11 5 -11 155
v46q0 29 0.5 62.5t1 68.5t1 66t0.5 55v37q0 25 1 38.5t4 22.5t9 16t17 18l-2 3q-6 0 -12 -5t-11 -12t-9 -15.5t-6 -14.5l-5 -501q0 -19 9.5 -43t24 -47.5t32 -43.5t33.5 -30q120 -6 168 -6h41q14 21 17 61.5t3 83.5v16q0 29 -0.5 55.5t-0.5 46.5t-0.5 32.5t-0.5 14.5
q0 20 0.5 60.5t1.5 85t1.5 85t0.5 60.5z" />
    <glyph glyph-name="two" unicode="2" horiz-adv-x="702" 
d="M631 25q1 22 1.5 40t0.5 33v22q0 22 -1 35t-6 22.5t-15.5 18t-28.5 21.5q-30 21 -54 76q1 6 10.5 18.5t22 28t24 32t17.5 28.5q22 47 22 112q0 30 -4.5 56.5t-15.5 53.5t-29.5 55.5t-46.5 62.5l-3 1q-20 16 -34.5 28.5t-24.5 21.5q-80 51 -145 51q-66 0 -111.5 -14
t-74 -46.5t-41 -86t-12.5 -132.5q0 -20 2.5 -34t11 -26t25 -24.5t44.5 -29.5q38 -23 51 -50l-1 -4q-7 -8 -25.5 -24.5t-50.5 -40.5l-63 -48v-24q0 -191 115 -260q17 0 53.5 -1.5t94.5 -1.5l278 2l13 9zM516 165q0 -35 -3 -39l-8 -3q-2 2 -9 2h-121q-15 0 -45 -0.5t-63 -1
t-63 -1t-45 -0.5q-10 0 -18.5 -0.5t-15.5 -0.5q-14 0 -22.5 4t-12.5 17.5t-5 40.5t-1 72q0 10 2.5 18t11 17.5t24.5 22t43 32.5q46 34 77.5 64.5t51.5 60.5t29 61t9 66q0 63 -44 63l-24 -6q-24 -18 -24 -64q0 -9 1 -28.5t1 -30.5l-13 -13h-128q-10 13 -10 90q0 110 55 168.5
t161 58.5q45 0 83.5 -18.5t66 -50.5t43.5 -74t16 -90q0 -138 -112 -231q-59 -44 -87 -63l-13 -10q0 -4 20 -4l183 1q3 -2 5 -8t2.5 -20t1 -38.5t0.5 -63.5z" />
    <glyph glyph-name="three" unicode="3" horiz-adv-x="677" 
d="M614 222q0 41 -12.5 74.5t-41.5 71.5q-22 26 -23 36q1 3 6.5 11.5t13 19t14.5 21.5t11 20q15 34 15 78q0 60 -25.5 115t-68 97t-97.5 67t-114 25q-109 0 -167 -64t-58 -185v-16q72 -89 122 -131l22 -3q6 -5 6 -17q0 -25 -6 -28h-146q-6 -3 -6 -25q0 -83 22.5 -155
t63 -124.5t97 -82.5t125.5 -30q57 0 102.5 15t78 44t49.5 70.5t17 95.5zM511 329q0 -46 -18 -83.5t-49 -64.5t-73 -41.5t-91 -14.5q-209 0 -209 222q0 19 1 31t6 18t15.5 8t29.5 2h39q22 0 60 -6q2 -17 3.5 -34.5t6 -32t14 -24t27.5 -9.5q51 0 51 66q0 33 -13.5 47t-57.5 16
q-25 0 -25 14v105l4 5q12 5 27 5q20 0 32.5 2.5t20 10t10 21t2.5 36.5q0 28 -13 44t-27 16h-3q-13 0 -21 -3.5t-13.5 -13.5t-8 -27.5t-4.5 -45.5l-5 -6h-88q-13 0 -27 1t-29 3q-6 3 -6 24q0 45 13 85.5t36 72t56 50t72 18.5h80q18 0 38 -8t38 -20t33.5 -26.5t25.5 -28.5
q37 -52 37 -126q0 -76 -85 -125q-20 -11 -20 -13l5 -5q28 -19 47.5 -35.5t32 -35t18 -41t5.5 -53.5z" />
    <glyph glyph-name="four" unicode="4" horiz-adv-x="735" 
d="M681 147v144q0 6 -8 17.5t-18.5 24t-20 23.5t-12.5 15q-20 32 -20 68q0 2 1.5 23t1.5 51q0 42 -13 65q-44 67 -44 70t7 14.5t16 24.5t16.5 24.5t7.5 14.5q0 4 -10.5 20t-24.5 35.5t-29 38t-24 28.5h-26q-26 0 -59.5 1t-65 2t-55 2t-28.5 1l-16 -9q-9 -23 -26.5 -57.5
t-38.5 -74t-43 -80.5t-41.5 -76t-34 -61t-18.5 -35l-2 -1q-8 -17 -12 -27t-5.5 -23.5t-2 -35t-0.5 -61.5q0 -26 3.5 -40t9 -22t13 -13.5t16.5 -14.5l48 -51t17 -18q19 -14 57 -14h31q14 1 24 1h19q1 -1 17.5 -21.5t36 -45.5t36 -46t19.5 -23l204 -2q3 0 5.5 19.5t3.5 43
t2 43.5t1 22q10 5 30 5.5t43 2.5zM564 285l-13 -11h-66l-8 -9q-1 -4 -1 -117l-9 -15h-165l-8 8l-4 125q-1 2 -17 4.5t-39.5 4t-51 2.5t-53 2t-45.5 1.5t-27 0.5l-10 5l-2 45q-1 11 -1 20v18q0 35 4 47q1 3 27.5 54.5t78.5 152.5q104 202 111 209q8 8 16 8h81q129 0 136 -10
q-9 -27 -146 -201q-137 -171 -144 -196q1 -4 14 -4h60q10 0 13 6q-1 6 -1 11v12q0 29 7 51q0 1 13 12.5t31.5 28.5t41 37t41.5 37t32.5 28.5t14.5 12.5h1q3 0 3 -12v-54q0 2 -0.5 -10t-0.5 -30q0 -17 -0.5 -36.5t-0.5 -32.5v-17q0 -32 4 -39.5t7 -7.5h2q0 1 1 1v0q1 0 1 -1
l11 -1q54 0 56 -3q5 -12 5 -48v-89z" />
    <glyph glyph-name="five" unicode="5" horiz-adv-x="695" 
d="M630 244q0 18 -5.5 47.5t-18 62.5t-33.5 66t-51 60q-18 15 -18 29v1q18 17 36.5 32t33 33.5t23.5 44t9 62.5q0 13 -13.5 39t-33 52t-40 46t-34.5 20q-1 4 -20 4h-96q-7 -16 -12 -28.5t-7 -23.5l-18 -10l-34 13q-17 18 -28.5 29.5t-21.5 18t-20.5 8.5t-24.5 2h-12t-21 -1
h-25q-17 0 -29 -2t-14 -10v-28q0 -139 -3 -233t-8 -146q0 -6 -4 -9.5t-8.5 -6.5t-8.5 -5t-4 -3l2 -103q1 -63 30 -119t75 -98.5t105 -67.5t120 -25q52 0 95 18t73.5 51t47 79t16.5 101zM520 337q0 -42 -11.5 -73t-33.5 -55t-55.5 -42t-76.5 -33l-60 -3h1q-53 0 -90 12.5
t-61.5 41t-37.5 75t-17 113.5q0 7 4 19l13 6q8 -1 15 -1h14h10q5 0 10 1l32 -4q5 0 10 0.5t10 0.5h11q12 0 18.5 -6.5t8.5 -36.5q1 -15 6.5 -25.5t12.5 -16.5t14 -9t10 -3h1q21 0 37.5 10.5t16.5 28.5v87q0 6 -3.5 13t-9 13.5t-12 11t-12.5 4.5q-17 0 -30.5 -6.5t-26.5 -14
t-27.5 -14t-32.5 -6.5q-59 0 -69 6l-6 15q0 17 1.5 52.5t3.5 78.5t4.5 88.5t4.5 83t3.5 61.5l1.5 24l85 2q10 0 22.5 -1t28.5 -3q7 -11 13 -22t13.5 -20t18 -15t27.5 -6h12q7 3 12 12t9.5 19.5t8.5 19.5t7 11h106q13 0 19 -8q0 -198 -131 -198q-42 0 -72 21t-47 56l-4 4
q-1 0 -2.5 -4t-2.5 -9.5t-2 -10.5t-1 -7v-103q0 -10 7 -11q57 23 92 23q16 0 16 -4q79 -7 121 -72t42 -171z" />
    <glyph glyph-name="six" unicode="6" horiz-adv-x="706" 
d="M644 494q0 68 -27 135t-72.5 119.5t-105 85t-125.5 32.5q-17 0 -30 -3l-1 -1q-5 -3 -21.5 -7.5t-37.5 -12t-41 -17.5t-30 -23q-90 -116 -90 -360q0 -96 24.5 -177t69.5 -140.5t108.5 -92.5t141.5 -33q51 0 93 18t72.5 49.5t47.5 74.5t17 93q0 61 -29.5 122.5t-80.5 114.5
l3 3l107 2q7 4 7 18zM529 343q0 -100 -55.5 -155.5t-155.5 -55.5q-154 0 -206 115q-35 78 -35 254q0 172 64 262t190 90q37 0 70.5 -14t59.5 -37.5t41.5 -55t15.5 -66.5v-70l-11 -7h-90q-15 0 -29 1t-28 3q-5 13 -7 25t-6 21.5t-12 15.5t-24 6l-5.5 -2l-16.5 -6
q-16 -22 -16 -104v-12l7 -7q1 0 9 3t18 6t19 5.5t13 2.5q91 0 140.5 -58.5t49.5 -159.5zM360 367v-2q3 3 3 6q0 5 -4 11.5t-10 12.5t-11.5 10.5t-8.5 6.5h-34q-23 -14 -23 -30v-50q0 -10 9 -23t19 -13h32q3 0 8 4.5t9 10.5t7 12t3 9q1 14 1 22v13z" />
    <glyph glyph-name="seven" unicode="7" horiz-adv-x="645" 
d="M606 652q0 105 -107 188q-176 6 -267 6h-149q-9 0 -9 -61v-118q0 -3 13 -23t29.5 -42.5t31 -42t16.5 -20.5l102 -4l5 -5q-8 -62 -84 -204q-80 -152 -93 -206q4 -9 16.5 -26t27.5 -35.5t29.5 -35t22.5 -23.5q100 -9 176 -9q11 0 21 2q13 23 43 105t78 225q98 291 98 329z
M491 801q0 -142 -6 -158q-2 -8 -87 -263q-63 -191 -98 -256q-5 -3 -19 -3q-7 0 -25 1t-40.5 2l-45 2t-37.5 1h-17l-5 5q9 47 120 275q107 219 107 250q0 3 -14.5 5t-32.5 3t-33 1.5t-16 0.5h-27t-50 -1h-16q-18 0 -33 1t-27 3q-6 7 -6 54q0 5 2 26t2 47v11t-1 10l8 16h87
q300 0 308 -5q2 -2 2 -28z" />
    <glyph glyph-name="eight" unicode="8" horiz-adv-x="687" 
d="M633 214q0 33 -13.5 66.5t-30 62t-31 50t-17.5 31.5q1 7 8.5 23.5t16.5 36t16 39t7 33.5q0 58 -24 112t-64.5 95.5t-93.5 66t-112 24.5q-49 0 -90.5 -15t-71.5 -42.5t-47 -66t-17 -84.5q0 -77 62 -159v-8q-67 -82 -67 -148q0 -59 28 -119t73.5 -108.5t102.5 -79
t115 -30.5q52 0 98 16t79.5 45t53 69.5t19.5 89.5zM529 326q0 -47 -17 -85t-47.5 -65t-72.5 -42t-93 -15q-45 0 -86.5 16.5t-73 45t-50 66.5t-18.5 81q0 78 77 149l1 7q-8 16 -43 70q-2 3 -7 13.5t-10 26t-8.5 34.5t-3.5 39q0 31 18.5 63t47.5 58t63 42t66 16q49 0 90 -11
t71 -32t46.5 -51t16.5 -67q0 -99 -65 -169l9 -12.5t21 -29t24 -34t18 -28.5q26 -47 26 -86zM352 626q0 57 -45 57q-40 0 -40 -39q0 -5 6 -15.5t15 -21t19.5 -18.5t19.5 -8h7q18 13 18 45zM334 328q0 19 -12 35t-26.5 27.5t-26.5 18.5t-12 8h1q-4 0 -9 -9.5t-9 -22.5t-7 -26
t-3 -19q0 -61 56 -61q19 0 33.5 15t14.5 34z" />
    <glyph glyph-name="nine" unicode="9" horiz-adv-x="706" 
d="M649 362q0 155 -86 313q-101 183 -241 183h-62q-38 0 -73 -20.5t-62 -53t-43 -71.5t-16 -76q0 -62 20 -114t58 -101l27 -35l-27 -3q-2 0 -8.5 0.5t-14 1.5t-15.5 1.5t-12 0.5q-18 0 -22 -7v-11q0 -84 21 -153t60.5 -118.5t95 -77t124.5 -27.5q65 0 116 26.5t86.5 74.5
t54.5 116t19 151zM526 507q0 -388 -217 -388q-117 0 -171.5 52.5t-54.5 169.5q0 23 9 28t27 5h21q3 0 20 -1.5t37 -3.5t36 -4t17 -2q4 -11 4.5 -24.5t2.5 -25.5t9.5 -20t25.5 -8q24 0 34.5 20t10.5 65l-1 67l-4 2q-6 0 -18 -3.5t-25.5 -7t-26.5 -7t-19 -3.5q-38 0 -69 16.5
t-53 45t-34 67.5t-12 84q0 76 38 130.5t113 74.5l57 15h32q27 -7 50 -14t42.5 -18t35.5 -26.5t31 -38.5q52 -85 52 -247zM340 587v22q0 11 -1.5 23t-5.5 22t-10.5 16.5t-16.5 6.5q-23 0 -38 -10.5t-15 -24.5v-56q0 -17 13 -27.5t30 -10.5q16 0 30 12t14 27z" />
    <glyph glyph-name="colon" unicode=":" horiz-adv-x="454" 
d="M378 38l1 164q0 3 -11 14.5t-23.5 24.5t-23.5 23.5l-11 10.5q-14 14 -23 22t-11 12q1 3 21 3q-1 0 7 -0.5t18.5 -1t20.5 -1t15 -0.5q18 1 21 6v171l-8.5 10.5t-19 22.5t-19.5 22.5t-10 11.5q-23 23 -34.5 37.5t-22.5 22.5t-26.5 11t-47.5 3h-105l-5 -5q0 -6 -0.5 -18.5
t-1 -27t-1 -27t-0.5 -18.5q0 -29 1.5 -49.5t7.5 -35.5t17.5 -28t31.5 -27q27 -21 37 -51l-13 -8h-19q-9 0 -26.5 2.5t-26.5 2.5l-11 -11q0 -7 -1 -19.5t-1 -17.5v-136q6 -12 16 -23t21.5 -21.5t23.5 -21.5t22 -24q9 -11 14 -17.5t20.5 -10t49 -5t100.5 -1.5q31 0 36 9z
M254 583v-20q0 -6 -0.5 -16t-1 -20.5t-1 -20t-0.5 -15.5v-18q0 -22 -8 -22h-51q-28 0 -52.5 1.5t-45.5 3.5q-7 8 -7 132v3q0 10 1 15.5t6 8.5t16 4t31 1l67 -1q17 -4 29 -4h16q1 -14 1 -22v-10zM253 281v-92q0 -9 -1.5 -20.5t-6.5 -11.5l-155 2q-5 1 -6 6v96q0 6 2 19t2 20
v18l-0.5 -0.5t-0.5 -1.5q1 10 10 10h28q10 0 30 -2.5t30 -2.5q15 0 26 1t19 1q14 0 18.5 -7.5t4.5 -34.5z" />
    <glyph glyph-name="semicolon" unicode=";" horiz-adv-x="429" 
d="M372 469q0 12 -4.5 23.5t-18.5 28.5t-39 42t-65 66h-115q-1 -1 -2 -1t-2 -1q-5 1 -7 1.5t-1 0.5l-44 -2q-6 -81 -6 -144v-24q0 -3 9 -16t20.5 -28t20.5 -26.5t9 -10.5q36 -31 40 -41l-96 -1q-3 -2 -5 -10.5t-3 -19.5t-1 -23v-20q0 -31 0.5 -51t2 -33t5.5 -21.5t12 -16.5
q17 -19 17 -21q0 -6 -4.5 -12t-9.5 -11.5t-9.5 -9.5t-5.5 -6q1 -3 12 -16.5t27 -31t35 -37.5t36 -37.5t29 -29t15 -12.5q32 8 57.5 31t43 56.5t27 75.5t9.5 89q0 15 -15.5 38.5t-34.5 45.5t-34.5 39t-15.5 19q0 7 8 7l90 -2q13 17 13 153zM247 529v-2q0 -1 -1 -2q-1 1 -1 2
v2q0 2 1 2t1 -2zM243 536l-2 -3v1q-1 0 -1 -12t-0.5 -26.5t-2.5 -26.5t-7 -12q-33 0 -69 0.5t-76 1.5q-5 2 -8 12.5t-3 39.5q0 2 1 7t1 7v90q0 8 8 8h139q3 0 9.5 -1t8.5 -1l2 -3v-82zM234 290q0 -117 -5 -142q-13 -60 -82 -113q-13 -10 -17 -10h-3q-40 40 -42 56
q1 3 8 11.5t15 19t14.5 21.5t6.5 20l-2 4l-2 4l-9 4q-6 -1 -11 -1.5t-10 -0.5q-21 0 -21 11v62q0 88 11 88h57q29 0 49.5 -1.5t34.5 -3.5q8 -2 8 -29z" />
    <glyph glyph-name="question" unicode="?" horiz-adv-x="618" 
d="M576 547q0 58 -25 112.5t-67 96t-96.5 66.5t-112.5 25q-62 0 -106 -16t-72 -51t-41 -91t-13 -136v-15q8 -15 25.5 -37.5t37.5 -44.5t39.5 -40t30.5 -24v-58q10 -10 16 -23v-1l-4 -2h-34q-12 -8 -12 -87v-86q0 -12 115 -127l9 -9q5 0 18 -1t28 -2t29 -2t21 -1h79l8 10
q3 28 3 115v20q-1 1 -10.5 14.5t-21 30.5t-21 32t-9.5 19q4 14 24 37.5t44 49t45.5 48t29.5 33.5q43 64 43 145zM487 650q0 -45 -16 -81.5t-40 -69.5t-51.5 -64.5t-50.5 -67.5q-23 -30 -45 -30q-96 0 -99 4l-1 28q0 34 19 65.5t41.5 60.5t41.5 56.5t19 53.5t-14.5 43
t-39.5 17q-27 0 -39 -26t-14 -98q-8 -5 -25 -5q-71 0 -111 3l-8 9v13q0 76 12.5 129.5t39 87t68.5 48.5t101 15q45 0 83.5 -13.5t67 -38.5t45 -60.5t16.5 -78.5zM320 289q3 -3 3 -102q0 -59 -11 -59h-91q-39 0 -53.5 2t-14.5 10v41q0 97 1 100q1 15 10 15h21q100 0 135 -7z
" />
    <glyph glyph-name="A" unicode="A" horiz-adv-x="731" 
d="M695 3q-55 325 -132 646q-8 2 -52 67l-34 49q-29 42 -58 62.5t-63 19.5l-104 -1q-16 0 -31.5 -1.5t-32.5 -3.5l-11 -11q-4 -18 -8.5 -45t-11.5 -63q-3 -12 -4 -27t-3.5 -38t-6.5 -54.5t-11 -76.5l-8.5 -51t-12.5 -73t-14 -83.5t-12.5 -82t-9 -68t-3.5 -41.5v-9
q91 -109 108 -118h154q7 1 24 102q3 11 5 11q51 -56 78 -85t31 -31q7 -6 192 -6h18zM550 124q-2 -3 -6 -3h-93q-11 0 -32 1t-32 1l-10 7q-12 76 -16 82q-5 8 -22 8l-89 -2l-3 -13.5t-7 -30t-7.5 -30.5t-5.5 -15l-123 -2l-17 2l-3 6q0 31 4.5 72.5t11.5 88t15.5 96t15.5 96.5
q50 325 62 340q14 8 35 8q139 0 177 -7l7 -7l2 -10q6 -28 15 -68.5t20 -94.5l82 -401q10 -50 14.5 -78t4.5 -35v-11zM328 368q0 5 -1 14t-3 21l-10 49q-4 14 -7.5 34t-8.5 47q-1 13 -7 17l-3 -2q0 -3 -1 -12t-3.5 -27t-6 -47.5t-8.5 -73.5l-3 -21l2 -5l52 -2q8 0 8 8z" />
    <glyph glyph-name="B" unicode="B" horiz-adv-x="788" 
d="M709 199q0 49 -29 105q-4 7 -18 30.5t-39 63.5v3q76 69 76 157q0 141 -102.5 217t-293.5 75l-171 -1q-2 -2 -4 -65.5t-4 -189.5l-2 -176q-1 -22 -1 -43v-43l2 -205q18 -25 31 -42t24 -29.5t21 -20.5t21 -15q40 -26 106 -26q187 0 262 28q121 43 121 177zM606 312
q0 -128 -102 -164q-51 -18 -206 -18h-15q-8 0 -19 1l-120 2l-6 6l-2 80q-1 7 -1 12v8q0 94 3 300l5 285l6 8q26 2 61.5 3t81.5 1h83q220 0 220 -191q0 -54 -15.5 -81.5t-59.5 -45.5q-45 -17 -62 -30l5 -5q143 -26 143 -171zM414 632q0 51 -50 51h-20q-5 0 -9 -0.5t-8 -1.5
q-6 -2 -6 -60v-43q0 -13 22 -13h37q34 0 34 67zM414 343v21q0 59 -30 59h-59q-6 0 -6 -44v-46q-1 -5 -1 -10v-15q0 -14 17 -14h11q38 0 53 11t15 38z" />
    <glyph glyph-name="C" unicode="C" horiz-adv-x="723" 
d="M537 373v2q0 1 -10.5 2.5t-19.5 2.5t-11 1h-22q-11 0 -11 -6q0 -2 6 -3h67zM657 520q1 4 1 11v11q0 64 -27 122t-72 102t-104 70.5t-122 26.5q-168 0 -223 -141q-33 -84 -33 -286q0 -187 92 -312q91 -124 243 -124q49 0 93 16.5t76.5 45.5t51.5 70t19 90v12
q-78 111 -109 133l-3 -3l-1 -22q-3 -58 -12.5 -99t-31.5 -67.5t-58.5 -38.5t-92.5 -12q-255 0 -255 272v93q0 100 13.5 169t42.5 112t75 62t111 19q205 0 205 -210q0 -27 -5 -35h-67q-11 0 -31.5 2t-31.5 2l-5 4q-12 70 -59 70l-7 -1q-4 -1 -10 -2t-14 -3q-29 -26 -29 -84
v-175q0 -129 48 -129q33 0 45 8.5t17 35.5q3 20 14 28t22 10t20 1.5t9 2.5q0 5 -48 7l-8 13l-3 182q0 11 5 19q5 -3 22.5 -18.5t38 -34t39 -34.5t25.5 -21q49 -1 79 -3t41 -4l12 7z" />
    <glyph glyph-name="D" unicode="D" horiz-adv-x="833" 
d="M768 358q0 147 -79 286q-83 146 -190 185q-41 15 -170 15q-11 0 -31.5 -0.5t-44.5 -0.5q-23 0 -44 -0.5t-31 -0.5h-23h-10t-10 1l-3 -3q-9 -194 -9 -655v-24t-1 -16v-3q0 -10 2 -16.5t8 -14.5t17.5 -21t31.5 -35q45 -51 55 -55l178 -6q93 0 159.5 21.5t110 66t64 113
t20.5 163.5zM644 429q0 -156 -46 -229.5t-145 -73.5h-222q-24 0 -46 1t-42 3l-8 8v-1l5 285q1 34 1 67v65q0 12 -0.5 35.5t-0.5 48.5q0 26 -0.5 49.5t-0.5 35.5q0 102 10 106l260 2q120 1 177.5 -95.5t57.5 -306.5zM444 415v165q0 27 -3.5 44.5t-12.5 28t-24.5 14.5t-39.5 4
h-23q-5 0 -8 -10.5t-5.5 -27.5t-3.5 -39.5t-1 -46.5v-53v-30t1 -31l2 -134q8 -8 53 -8q22 0 35 4.5t19.5 18t8.5 38t2 63.5z" />
    <glyph glyph-name="E" unicode="E" horiz-adv-x="786" 
d="M673 148q0 44 -52 103t-52 101l1 95q-4 6 -11.5 13.5t-19 18.5t-27.5 27.5t-37 39.5l1 2q27 3 44 3l137 -3l7 7q7 18 7 146v13q-10 17 -33.5 47t-75.5 85q-12 0 -32.5 0.5l-41 1t-37.5 1.5t-21 1h-57h-53q-18 -1 -32 -1h-22h-122q-7 -3 -11.5 -92.5t-4.5 -273.5l-1 -347
q0 -7 14 -27t39 -48l24 -28q24 -27 23 -27q13 -5 407 -5q10 0 17 0.5t12 1.5l6 9q2 39 3 73t1 63zM561 266q0 -33 -3 -127l-8 -6h-128l-139 -4q-19 -1 -30 -1h-15q-23 1 -45.5 2.5t-42.5 5.5q-10 11 -10 94v112q0 19 -0.5 51.5t-1 65.5t-1 59.5t-0.5 34.5l-1 97
q0 65 4.5 109.5t10.5 67.5l7 8q6 0 18.5 1.5t18.5 1.5l250 -2q56 0 81 -2t33 -6l2 -22q0 -5 1 -10v-10q0 -97 -14 -111q-7 -1 -17 -1.5t-24 -0.5h-13q-6 0 -16.5 0.5t-21.5 0.5t-21 0.5t-16 0.5h-47q-38 0 -44 -6l-3 -95l7 -14q23 0 50 -1.5t59 -3.5q10 -3 10 -11v-25
q0 -79 -5 -87q-5 -3 -32 -3t-89 -5l-3 -5v-10q0 -5 -1 -13l-4 -64q-1 -8 -1 -13v-8v-6l10 -11q70 3 119.5 2.5t78.5 2.5h7q21 0 25.5 -7.5t4.5 -25.5z" />
    <glyph glyph-name="F" unicode="F" horiz-adv-x="698" 
d="M682 689q0 10 -12.5 30.5t-30.5 42.5t-37.5 42t-33.5 30q-103 7 -182 10t-136 3q-6 0 -19.5 -0.5t-27.5 -0.5t-27 -0.5t-19 -0.5h-11l-9 -8q-9 -186 -9 -629q0 -60 3 -82l95 -119l6 6q3 0 12.5 -1.5t20 -3t19.5 -3t11 -1.5l58 -3q15 -1 27 -1.5t20 -0.5h33l9 8q4 12 4 36
q0 239 10 246h115q8 5 8 48q0 37 -2.5 59.5t-7.5 36.5t-12.5 22.5t-18.5 17.5q-36 27 -60 60v1q0 4 34 4l160 -2l7 8v13t1 19l2 86v27zM573 772q0 -91 -8 -105h-64q-20 1 -45 1h-55h-17q-37 0 -48 -8l-2 -81q0 -25 7.5 -35.5t26.5 -10.5q10 0 29 1.5t29 1.5h12q8 0 13 -1
l7 -8l1 -87q0 -13 -0.5 -22.5t-1.5 -14.5l-7 -6h-9t-12 1h-21q-36 0 -72 -3l-5 -6v-80q0 -90 -2.5 -133.5t-3.5 -51.5h-135q-19 0 -33.5 3t-14.5 8v234q0 171 2 285t6 174l1 1q17 5 56 5h30t43 -1l206 -4q25 -1 43 -1h30l11 -9q2 -24 3 -35v-12z" />
    <glyph glyph-name="G" unicode="G" horiz-adv-x="758" 
d="M655 -6q10 4 10 14l2 333q-5 11 -31.5 40t-85.5 82h-2q-2 -5 -2.5 -28t-1.5 -51.5t-1 -56.5v-43v-48q0 -69 3 -115q-2 -5 -40 -5q-100 0 -105 8v49q-8 -1 -27 -19l-15 -13q-14 -14 -32.5 -18.5t-45.5 -4.5q-125 0 -166 125q-24 73 -24 228v9q0 169 62.5 262t177.5 93
q205 0 205 -181l-1 -48q-11 -8 -39 -8q-75 0 -94 9q-3 30 -19 51.5t-41 21.5q-65 0 -65 -200v-43q0 -19 1 -33l1 -47q0 -39 9.5 -60t37.5 -21l7 2q4 1 9 2t12 3l19 22l4 38l-11 11l-47 4l-11 8v94q0 7 6 9l232 -4q9 9 28 9l67 -2q6 -1 10 -1h8q5 3 5 6q0 144 -94 256
q-98 114 -227 114q-71 0 -121 -24t-81.5 -75.5t-46 -133.5t-14.5 -199q0 -86 22 -162t60.5 -133t91.5 -90t115 -33q25 0 44.5 9.5t51.5 28.5l9 -6.5t20 -14t20.5 -14l9.5 -6.5h131zM517 482q-13 -5 -25 -5h-12q-82 0 -82 15q0 3 1 4v57q0 28 6 28q5 0 14 -6.5t14.5 -12
l6.5 -6.5q25 -25 44 -42.5t33 -28.5v-3z" />
    <glyph glyph-name="H" unicode="H" horiz-adv-x="881" 
d="M757 227l-1 421q0 7 -32 54l-30 44q-10 15 -21 30.5t-21 29t-18 23t-12 11.5l-186 1l-1 -16q-1 -18 -2 -36.5t-3 -37.5l-3 -18q-7 0 -29 30l-22 30q-5 5 -11.5 14t-14.5 20q-17 20 -92 20q-8 0 -24 -1t-25 -1l-66 1l-6 -5q-14 -76 -14 -268v-26q0 -14 1 -32l1 -79l3 -171
l1 -102q0 -4 6.5 -17.5t17 -31.5t22.5 -37.5t24 -36t22 -27.5t15 -11h192q6 2 8 27t2 60l2 20q6 0 49 -49l54 -60q19 -6 173 -6h27l10 8q0 16 0.5 43l1 54t1.5 49t1 28v51zM623 823l2 -500q0 -187 -6 -193l-113 -1h-22q-10 0 -21 -1h2q-25 3 -25 21q0 257 -3 265q-2 3 -23 3
l-87 -2l-6 -9v-20q0 -11 1 -26v-126q-1 -22 -1 -45q0 -22 -1 -46q-5 -11 -28 -11q-6 0 -18.5 0.5t-27.5 0.5q-14 0 -26.5 0.5t-18.5 0.5h-13q-5 -1 -8 -1h-5q-6 1 -12 1t-11 3t-8 10t-3 22v139q0 66 -1 140t-1 144v53q0 42 1.5 88t3.5 99l8 5h89q83 0 85 -9v-14
q-1 -26 -2.5 -73.5t-1.5 -102.5q0 -70 7 -74l108 3q2 25 3.5 50.5t1.5 51.5v51q-1 8 -1 13v9v65q0 13 1 17l5 7h102q72 0 74 -8z" />
    <glyph glyph-name="I" unicode="I" horiz-adv-x="561" 
d="M439 615q0 67 -37 122l-84 101h-189l-3 -4v-36q0 -24 -1 -56.5t-2 -68.5t-2.5 -72.5t-2.5 -68.5t-2 -57t-1 -36q0 -277 3 -320q0 -5 42 -51l33 -38q8 -10 14 -16l10 -10q9 -4 75 -5l139 -4q8 11 8 620zM321 823v5q-1 1 -1.5 -6.5t-0.5 -19.5t-0.5 -26.5t-1.5 -26.5
q-2 -54 -3.5 -102.5t-1.5 -93.5v-52v-31t1 -43v-74v-57v-54q0 -25 -1 -46t-4 -35l-1 -9q0 -4 2.5 -12t2.5 -10q0 -11 -38 -11h-27q-6 0 -18.5 0.5t-25.5 0.5t-25.5 0.5t-18.5 0.5h-13q-5 -1 -12 -1l-8 10q0 22 -1 43t-1 39v-1l1.5 59.5t3.5 179.5v9q0 29 2.5 71.5t2.5 98.5
v59q0 141 3 144h181z" />
    <glyph glyph-name="J" unicode="J" horiz-adv-x="674" 
d="M324 -2q124 0 183.5 95.5t59.5 304.5v114t-1 56q-6 119 -29 163q-13 25 -89 107q-24 6 -36 6h-161q-5 -3 -5 -16v-6q0 -5 0.5 -16t1 -24t1 -24.5t0.5 -17.5v-33t-1 -30t-2.5 -36.5t-4.5 -51.5q-3 -35 -3 -58v-9v-12q0 -6 1 -14l2 -82q0 -44 -8 -52q-3 5 -12 17.5
t-20.5 26t-25 24t-26.5 10.5q-113 0 -128 -3l-7 -7v-28l-2 -41q-1 -5 -1 -9v-5q0 -137 61 -213q23 -27 24 -37q87 -99 228 -99zM440 836v-220q0 -64 -1 -108.5t-1.5 -74.5t-1.5 -46.5t-1 -25.5q-3 -48 -7 -84t-13.5 -62t-26.5 -43.5t-46 -28.5q-41 -15 -71 -15
q-76 0 -124.5 10t-77 37t-39.5 75t-11 124q0 23 5 41l10 9q37 2 55 3.5t19 1.5q56 0 58 -5v-72v-24q0 -9 1 -14l16 -19q5 -2 9.5 -3t7.5 -2l6 -2q32 0 39 22q8 24 8 438q0 63 3 80l15 10l104 1q1 0 18 -2t38 -2q8 0 9 1z" />
    <glyph glyph-name="K" unicode="K" horiz-adv-x="804" 
d="M695 5q-2 3 -25.5 75.5t-68.5 198.5l-54 150q0 23 63 136q73 130 78 150q-2 6 -10 21t-18.5 32.5t-22 34.5t-20.5 29q-11 6 -139 6q-40 0 -50 -10l-40 -68q-2 2 -27 40l-16 23q-4 5 -7.5 9t-5.5 6l-183 3l-8 -8q-12 -173 -12 -338v-338q0 -10 8 -27.5t22 -38.5t32.5 -44
t38.5 -43q15 -6 91 -6h85q5 0 10 6l3 53h3q4 -6 12.5 -16t17 -19.5t16.5 -17t13 -9.5h17h16q9 0 19 -1l92 -2h65q5 3 5 13zM595 823q-2 -2 -16.5 -33.5t-43.5 -89.5l-52 -102q-7 -13 -8.5 -16.5t-1.5 -6.5v-5q0 -52 58 -216t58 -223l-1 -9l-38 -1h-15t-24 1l-42 2
q-12 1 -24.5 1.5t-25.5 2.5l-29 114q-5 16 -11.5 40t-14.5 56q-4 15 -6 17q-33 -15 -33 -122q0 -19 0.5 -38.5t1.5 -39.5v-19q-3 -9 -39 -9q-131 0 -141 6l-6 9v249q0 423 13 436l20 6h92q24 0 36.5 -0.5t18.5 -2.5t7.5 -6.5t3.5 -13.5l1 -157q1 -7 6 -7q6 0 50 90
q45 91 54 94h15h27q15 0 32 -1l75 -4z" />
    <glyph glyph-name="L" unicode="L" horiz-adv-x="690" 
d="M681 118q0 54 -39 104q-4 5 -23.5 25t-54.5 55q-18 6 -28 6l-70 1l-7 8q-1 7 -1.5 17.5t-0.5 24.5q0 19 0.5 44.5t1.5 58.5l4 137q1 32 1.5 57.5t0.5 44.5q0 -3 -1 -3q-6 0 -29 38q-10 11 -24.5 27.5t-33.5 39.5l-23 27q-5 5 -7 7.5t-3 3.5q-28 2 -51 3t-41 1h-32
q-21 0 -72 -3q-5 -5 -14 -188q-4 -85 -6 -139t-2 -77v-97q0 -74 2 -120t6 -66q17 -83 97 -154h46h45q26 0 55 -1l218 -4q23 -1 39 -1h24q9 0 13.5 3t6.5 15.5t2.5 37t0.5 67.5zM561 181q0 -56 -14 -56h-108h-55q-26 0 -52 1l-99 2q-23 1 -44 1.5t-38 1.5q-8 11 -8 62v129
q0 11 0.5 28.5t1.5 40.5l6 194q4 112 3 168.5t4 70.5l10 6q45 0 79 0.5t57 1.5l31 -2q3 -2 3 -38q0 -2 -0.5 -22t-1.5 -58l-2 -85q-1 -30 -2 -62.5t-1.5 -64t-1 -60t-0.5 -49.5q0 -93 6 -99h223q3 -8 3 -9v-102z" />
    <glyph glyph-name="M" unicode="M" horiz-adv-x="1038" 
d="M904 613q0 27 -15.5 66t-39 76t-51.5 63t-53 26h-231q-6 -4 -14 -39l-9 -45l-5 -4l-4 3q-11 16 -27 37t-38 48l-98 2q-35 1 -53 1.5l-18 0.5h1h-99l-6 -6q-5 -176 -7.5 -306t-2.5 -218v-54q0 1 0 -11q0 -11 1 -34l2 -91q64 -86 73 -94q23 -25 60 -29q8 -1 38.5 -1.5
t85.5 -0.5q20 0 23 8v52q8 -4 26 -20t47 -40h92l5 8.5t11 19t11.5 19.5t7.5 9q6 -5 17 -15t29 -19.5t42 -17t55 -7.5h124q12 0 17 8zM776 757v-431v-96q0 -35 -1 -47q-2 -51 -8 -56h-121q-52 0 -62 9l-1 425l-8 9q-3 -3 -30 -220q-27 -216 -34 -223q-10 -1 -24.5 -1.5
t-33.5 -0.5q-21 0 -37 0.5t-27 1.5q-9 13 -34 212l-28 218l-8 7q-1 1 -2 1q-2 0 -2 -6l-2 -265v-30q0 -25 -1 -54.5t-3 -53.5t-5 -24h-144q-6 0 -10 7v133q0 220 2 357t6 195l12 10q3 -1 52 -1h141q49 0 51 -3q3 -8 24 -108q3 -17 7 -35t8 -34t7.5 -27t5.5 -13l3 3l38 165
q12 52 26 52l235 -2q8 -5 8 -74z" />
    <glyph glyph-name="N" unicode="N" horiz-adv-x="876" 
d="M737 12v30q0 49 4 187q1 34 1 59q0 20 -1 59.5t-1 59.5q0 34 1 69l2 63q1 28 2 46l1 18q0 77 -32 133q-22 38 -87 105q-35 6 -98 6h-66q-19 0 -24 -15q-3 -7 -3 -31v-44q0 -8 -3 -8h-1q-19 23 -60 66q-10 9 -31 24q-15 8 -38 8l-167 -1q-3 -2 -3 -69v-319
q0 -72 -0.5 -91.5t-1.5 -53.5l-3 -60q-1 -26 -1 -31q0 -70 33 -122q19 -30 83 -94h190l14 17q0 -11 -1 12t-1 32q0 34 5 37q30 -20 70 -64q14 -17 21 -22q14 -13 25 -14q20 -4 154 -4l12 3zM619 132q-4 -4 -31 -4q-131 0 -148 11q-21 33 -48 110q-32 90 -51 137l-27 66
l-3 -1v-21q0 -20 1 -59l4 -167q1 -40 1 -60l-6 -6q-76 -4 -98 -3l-64 2q-5 25 -6 58q-3 89 -3 356v282l4 8h169q12 0 25 -5q48 -141 80 -221q12 -32 23 -55l4 -1q0 40 -1 105q-2 85 -2 105q-1 36 -1 54l8 13q10 0 31 1t31 1q104 0 63 2q47 -2 47 -23z" />
    <glyph glyph-name="O" unicode="O" horiz-adv-x="807" 
d="M737 342q0 189 -100 344q-114 178 -292 178q-69 0 -118 -22.5t-80.5 -72t-46 -127t-14.5 -187.5q0 -78 9.5 -138t30.5 -107.5t55 -84.5t84 -68q92 -59 149 -59h78q54 0 99 26.5t77.5 73t50.5 109.5t18 135zM611 464q0 -177 -39 -249q-54 -101 -211 -101q-167 0 -223 107
q-38 74 -38 257q0 94 13.5 164.5t44 116.5t78.5 69t117 23q73 0 122.5 -20.5t79.5 -66t43 -119.5t13 -181zM418 467v41q0 51 -2.5 85t-7.5 54t-14 28.5t-21 8.5h-33q-14 0 -23 -8.5t-14.5 -29t-8 -53.5t-2.5 -82v-145q0 -83 65 -83q63 0 63 122q0 17 -1 33t-1 29z" />
    <glyph glyph-name="P" unicode="P" horiz-adv-x="751" 
d="M731 484q0 144 -90 251q-92 108 -215 108l-279 -2q-1 -4 -4 -83t-4 -235l-2 -326v-21q0 -9 1 -18l2 -37q25 -39 43.5 -63t37.5 -37t41.5 -17.5t55.5 -4.5h59q5 1 8 1h6h51l9 9q2 227 11 239q143 20 194 53q75 49 75 183zM620 590q0 -95 -30.5 -140t-100.5 -55
q-2 0 -146 -9l-7 -6l-2 -178v-23q0 -11 1 -23q0 -15 -5.5 -22.5t-14 -10t-20 -2t-23.5 0.5l-119 2q-4 1 -4 8v204q0 27 1.5 68t3.5 92.5t3.5 112.5t1.5 129q0 23 -0.5 44.5t-1.5 41.5l6 7l211 1q66 0 112.5 -13.5t76.5 -42.5t43.5 -75t13.5 -111zM442 600v26q0 15 -13.5 30
t-28.5 15h-54q-7 0 -7 -41v-86q0 -11 22 -11h21q37 0 48.5 14.5t11.5 52.5z" />
    <glyph glyph-name="Q" unicode="Q" horiz-adv-x="790" 
d="M723 362q0 184 -94 332q-109 172 -280 172q-69 0 -119.5 -22t-83.5 -69.5t-49 -121t-16 -176.5q0 -64 7.5 -116.5t22.5 -97t37 -84t52 -78.5q0 1 -6.5 -9.5t-14 -25.5t-14.5 -29.5t-7 -20.5q31 -127 191 -127l9 4l6 65q15 -9 41 -41l20 -24q10 -12 12 -13
q175 -12 193 -12h12q7 1 9 9q-4 14 -11.5 27.5t-19 30.5t-27 39t-36.5 54q49 37 81 70t51 70.5t26.5 84t7.5 109.5zM600 440q0 -147 -49.5 -222.5t-147.5 -85.5q-8 -2 -8 -4l4 -6q23 -4 46.5 -17.5t43 -32.5t31.5 -40.5t12 -40.5q0 -8 -23 -8h-17q-9 0 -21 1l-49 3
q-32 2 -47.5 3.5l-15.5 1.5h1q-4 4 -15 37q-7 22 -30 22q-16 0 -26 -13t-19 -26h-20q-82 0 -82 11q0 14 11 30t27.5 31t37 27.5t40.5 19.5l-49 17q-67 24 -104.5 97.5t-37.5 184.5v123q0 71 18.5 127.5t53 95.5t84.5 60t113 21q64 0 109 -22t73.5 -71t42 -129t13.5 -195z
M413 411v40v-71l1 39t2 117v13q0 136 -68 136q-26 0 -40.5 -11t-21.5 -38t-8.5 -72t-1.5 -113q0 -50 3 -80.5t10.5 -47.5t20.5 -23t34 -6q38 0 53.5 26t15.5 91z" />
    <glyph glyph-name="R" unicode="R" horiz-adv-x="817" 
d="M718 164q0 38 -2.5 64t-8.5 45t-15.5 34t-23.5 32q-24 27 -39 65v1q76 66 76 151q0 133 -77 202t-238 83q-28 2 -87.5 3.5t-153.5 1.5h-17l-6 -6q-6 -152 -6 -627q0 -17 -1 -30t-1 -25q0 -16 5.5 -30.5t20.5 -32.5q5 -6 28.5 -27.5t65.5 -58.5l20 -3h161l4 4
q1 14 1.5 34.5t2.5 48.5l6 4l64 -61q15 -15 26 -23t21 -11.5t21 -4.5t26 -1l12 1q2 0 8.5 -0.5t15.5 -1.5q4 1 17 1h12q10 -1 19.5 -1.5t18.5 -0.5q19 2 20 12q2 46 3 85.5t1 72.5zM606 639q0 -130 -96 -149q-28 -6 -28 -11l6 -5l48 -12q22 -8 35.5 -23.5t20.5 -49t9 -90.5
t2 -148q0 -23 -3 -26h-172l-6 7q-3 12 -3 31l5 94q1 8 1 14v12q0 113 -76 113h-18l-5 -8l-2 -214v-20t-1 -21l-12 -7q-8 4 -42 4q-20 0 -43.5 -1t-44.5 -1q-43 0 -44 9q-3 37 -3 66v15q-2 17 -3.5 38.5t-1.5 47.5q0 16 1 32t2.5 38t2.5 52.5t1 75.5v71q-1 23 -1 41v29v56
q0 128 6 133l8 2q20 0 55.5 1t87.5 3q13 1 22 1h16q147 0 211.5 -48.5t64.5 -151.5zM420 602q0 57 -32 68q-7 2 -8 3h-51q-7 0 -7 -35v-9q0 -6 1 -11v-51q-1 1 -1 4q1 -21 14 -21h39q3 0 7 0.5t9 1.5l1 2q28 4 28 48z" />
    <glyph glyph-name="S" unicode="S" horiz-adv-x="670" 
d="M627 200q0 31 -4 55.5t-15.5 47t-32 45.5t-52.5 53q-53 48 -75 84q14 19 65 57l55 43l1 7q0 7 -15.5 32.5t-39.5 56.5t-52.5 62.5t-53.5 51.5q-4 2 -10.5 6.5t-15.5 10.5q-2 2 -10.5 7t-22 10t-32 9t-42.5 4q-41 0 -77.5 -15.5t-64 -42.5t-45 -64.5t-20.5 -81.5v-7
q0 -17 5.5 -47t29.5 -66q11 -16 27.5 -40.5t38.5 -57.5q5 -10 9.5 -19.5t6.5 -18.5q-7 -14 -38.5 -35t-85.5 -67q17 -93 133 -189q118 -96 210 -96q46 0 87 14.5t71 41.5t47.5 64.5t17.5 84.5zM516 309v-10q0 -39 -18 -73t-48 -59.5t-68 -40.5t-78 -15q-39 0 -75 12
t-66.5 34t-54 51.5t-38.5 65.5v1q54 54 105 76q15 -12 30.5 -26t30 -25t27 -18.5t21.5 -7.5q14 0 28 12.5t14 26.5q0 34 -64 82q-99 73 -120 97q-64 68 -64 154q0 13 2 25t7.5 25.5t15 29t24.5 35.5q14 17 34 31.5t61 31.5q1 0 10 2.5t11 2.5l23 4h35q29 0 69 -21.5
t96 -82.5q6 -7 13.5 -16t15.5 -22q-2 -6 -26 -26t-76 -57q-12 11 -26 23.5t-28.5 23.5t-28 18t-23.5 7q-3 0 -8 -5t-10 -11.5t-8.5 -12.5t-3.5 -9q0 -32 65 -78q48 -33 78 -57t44 -38q72 -77 72 -160z" />
    <glyph glyph-name="T" unicode="T" horiz-adv-x="719" 
d="M676 692q0 20 -25.5 52t-65.5 70l-25 25q-4 1 -187 6l-140 4q-26 1 -44 1h-25h-111q-11 -8 -11 -174q0 -5 13 -25.5t30 -44t33.5 -44.5t23.5 -25q31 -7 52 -9q1 -1 1 -36q-3 -90 -3 -175v-47q-1 -16 -1 -28v-19q0 -84 3 -91q4 -11 18.5 -31t32 -40.5t34.5 -36.5t26 -18
q26 -5 58 -6h22q28 0 60.5 1t64.5 9q9 19 9 392q0 96 3 123q7 10 44 10l102 -2q8 11 8 159zM558 781v-26q0 -61 -10 -94l-145 -1l-6 -6q-13 -59 -13 -167q0 -26 1 -69.5t3 -104.5q1 -16 1 -27v-19v-78q0 -62 -8 -65q-173 4 -174 6q-4 3 -4 37v-7q0 2 0.5 16.5t1 45t1.5 80.5
t2 124l1 138q0 92 -4 96q-14 2 -26 3t-23 1l-92 -1l-8 6q-5 22 -5 104q0 69 42 69q14 0 71.5 -1t160.5 -3q221 -5 230 -11z" />
    <glyph glyph-name="U" unicode="U" horiz-adv-x="824" 
d="M451 -2q7 -3 15 -3q13 0 52 14l12 5q97 27 138.5 105.5t41.5 214.5v17q0 11 -1 25l-4 115q-1 13 -1 22v15q0 143 -15 181q-16 41 -110 137q-52 2 -76 3l-99 -3l-4 -3q0 -31 -1.5 -55t-3.5 -41h-2l-10.5 15t-24 33t-25.5 33.5t-15 17.5h-75h-13q-7 0 -16 1h-84l-6 -7
q-9 -344 -9 -453q0 -84 12 -146t39.5 -106.5t72.5 -74.5t110 -51q5 -2 12.5 -2.5t19 -1t28.5 -2.5t42 -5zM575 452q0 -226 -35 -261q-57 -58 -166 -58q-69 0 -117 12.5t-77.5 40.5t-42.5 72.5t-13 108.5q0 44 1 95.5t3 112.5l3 99q2 49 3 83l3 78q22 5 67 5h25h11t18 -1
l44 -2l6 -5q1 -12 1 -30t1 -42v-122q0 -14 -1 -37.5t-2 -46.5t-2 -41t-1 -21q-1 -15 -1 -26v-19q0 -136 39 -136q46 0 55 28q10 27 10 163v318q0 14 28 17h93q4 0 13.5 -1t25.5 -3l6 -6l2 -12v-363z" />
    <glyph glyph-name="V" unicode="V" horiz-adv-x="722" 
d="M643 675q0 2 -8.5 17t-19.5 34t-23 38t-18 29l-20 30q-8 12 -12 16q-44 6 -84 6l-89 -1q-3 -2 -6 -7.5t-6 -17.5t-6 -32t-6 -50q-1 -13 -7 -13h-2q-2 2 -5.5 7t-10.5 14l-28 37q-10 13 -20 27.5t-21 30.5q-20 7 -45 7h-142q-5 -3 -5 -12q0 -35 5 -81t16 -103
q50 -258 71 -391.5t26 -140.5q24 -37 47 -65t45 -48q15 -9 91 -9l168 2q5 11 60 332l42 247q7 43 10 67.5t3 29.5zM536 811q0 -5 -20 -137t-58 -380q-22 -150 -32 -171l-12 -3l-4 -2q-188 0 -219 6q-9 8 -63 326q-54 319 -54 370v11q3 3 8 3h150l11 -9q8 -45 20 -111.5
t26 -156.5q10 -68 21 -94l3 -5q5 0 10 29q1 6 21 171q20 160 37 170h145l9 -6z" />
    <glyph glyph-name="W" unicode="W" horiz-adv-x="1152" 
d="M1049 677q-5 19 -21 47.5t-36 55.5t-40 46t-32 19h-147q-2 -17 -7.5 -47t-15.5 -74l-4 -2q-16 14 -38 40.5t-51 64.5q-19 25 -79 25h-145h-8q-18 0 -25 -5t-10 -18t-4.5 -35.5t-9.5 -58.5q-6 4 -21 22l-58 72q-7 8 -12 13t-8 7l-195 2q-3 -2 -3 -8q0 -38 2.5 -72t8.5 -71
t15.5 -79t23 -95.5t31 -122.5t39.5 -158l3 -21q10 -59 39.5 -118t85.5 -104h223l8 8l20 98q5 0 26.5 -24t70.5 -82q37 -8 70 -8h104q74 0 80 6q7 4 22 92l70 415q4 22 9 47t9.5 48.5t7.5 42.5t2 31v1zM943 826q-2 -8 -5 -34.5t-11 -71.5l-96 -591q-5 -6 -30 -6h-11
q-5 0 -19.5 -0.5t-32 -1t-34.5 -1t-27 -0.5h-37q-24 0 -36.5 2t-19 9.5t-9 22t-4.5 39.5q-2 23 -6 56t-8.5 68.5t-9.5 71t-10 63t-9 45t-7 17.5t-6 -21.5t-8 -64.5l-38 -292q0 -7 -33 -8.5t-108 -1.5q-33 0 -53.5 0.5t-28.5 1.5q-10 5 -39 133.5t-82 382.5
q-11 54 -18.5 100.5t-12.5 85.5v1q0 11 27 11h91q9 0 27 -1t27 -1q4 0 22 -75l50 -205q0 -8 6 -36l5 -26q1 -12 5 -19l4 -5l4 5q2 29 7 76t13 113q20 159 27 169l35 3h193l4 -8q10 -51 24 -125t33 -174l11 -57q4 -22 8 -22l6 9q20 142 33.5 237t22.5 129q5 5 12 5h99
q45 0 53 -8z" />
    <glyph glyph-name="X" unicode="X" horiz-adv-x="770" 
d="M680 8q-2 14 -24 66t-65 142q-82 171 -82 203q0 23 61 144q66 132 72 159q-14 35 -27.5 58.5t-29 37.5t-36 19.5t-49.5 5.5h-85q-3 -3 -9 -16l-13 -28q-9 -20 -27 -45q-10 10 -22 29.5t-42 60.5q-11 3 -79 3h-122l-5 -7q3 -32 73 -194q65 -153 65 -175q0 -16 -68 -167
q-21 -45 -34 -75t-21 -49t-11.5 -30t-3.5 -20q0 -3 13 -19l28 -37q33 -44 52 -63q15 -3 41 -3h87q13 13 32 58l18 43l4 2q24 -19 50 -67q36 -51 144 -51l46 1q17 1 26 1.5t10 0.5h24zM562 134q0 -5 -3 -5l-76 -1q-18 0 -42.5 1t-56.5 3q-8 2 -62 146l-3 1q-8 -8 -36 -74
q-8 -17 -17 -36.5t-20 -39.5h-8q-130 0 -130 11q0 13 27 71.5t77 170.5q12 26 20.5 48.5t13.5 40.5q-2 11 -7 25t-13.5 34.5t-20.5 49.5t-28 70q-25 63 -37.5 93.5t-18.5 45t-7 21.5t-4 22l8 6q8 -5 24 -5q4 0 67 6q5 1 8 1h5h-1l19 -1q10 -1 24 -2t33 -2q-1 1 3 -8.5
t10 -25t13.5 -33.5t14 -34t11.5 -27l5 -11q8 8 18 33.5t32 78.5q16 27 50 27q80 0 95 -4l5 -6q0 -17 -67 -151q-66 -135 -66 -152q0 -34 70 -195q71 -162 71 -193z" />
    <glyph glyph-name="Y" unicode="Y" horiz-adv-x="662" 
d="M604 701v10q-23 34 -72 102q-6 7 -11.5 12.5l-10.5 10.5l-71 6h-99q-3 0 -19 -43q-17 -43 -15 -41q-5 4 -23 26.5t-55 59.5q-4 0 -11 0.5t-14.5 1t-13.5 1t-8 1.5h-149q-5 -2 -5 -10q0 -1 138 -406q5 -17 5 -149q0 -122 10 -158q16 -63 96 -123l52 -2q13 -1 21 -1h12h30
q86 0 105 10l2 72q0 8 -0.5 28t-1.5 51l-4 104q-1 24 -1.5 41t-0.5 28v35q0 12 1.5 21.5t6 21.5t13.5 35l42 111q51 133 51 144zM502 825q0 -54 -68 -210t-68 -222v1l5 -166q1 -17 1 -29v-20q0 -42 -3 -54l-83 -6q-29 0 -54 0.5t-47 1.5q-8 19 -8 255q0 84 -56 229
q-35 91 -55 147.5t-25 80.5v1q0 5 20 5h50q21 0 108 -3q3 -2 6.5 -11.5t11 -30t19 -54t31.5 -81.5l3 4q11 17 22.5 56t28.5 109l5 3h155z" />
    <glyph glyph-name="Z" unicode="Z" horiz-adv-x="818" 
d="M707 671q0 3 -10 19.5t-25.5 39.5t-35.5 51.5t-40 55.5q-18 6 -156 6h-290q-8 -6 -8 -50q0 -42 1 -73.5t3 -54.5q32 -32 68 -74l26 -31q23 -26 23 -44q0 -6 -22 -42t-82 -108l-17 -21q-35 -53 -35 -100q0 -90 4 -102q12 -40 86 -129q16 -15 45 -15h441q7 0 7 88
q0 69 -92 197q-6 10 -14 14.5t-37 6.5l-22 1q0 4 7.5 17.5t20 33.5t29 44.5t34.5 50.5l27 39q17 20 29 44t20 48t11.5 47t3.5 41zM593 779v-41q0 -59 -3 -78q-1 -10 -44.5 -74.5t-125.5 -185.5q-20 -30 -34.5 -54t-24.5 -43v-2q0 -9 36 -9h181q3 -3 3 -38v-97q0 -21 -6 -31
l-249 -2q-44 0 -93.5 2t-105.5 5q-9 12 -9 31v120q12 16 60 84l54 76q47 66 85 124.5t58 100.5q-6 7 -79 7h-136q-5 3 -5 10v138l3 7q60 2 122.5 3.5t128.5 1.5q31 0 177 -6l6 -6z" />
    <glyph glyph-name="OE" unicode="&#x152;" horiz-adv-x="1124" 
d="M989 10l1 166q-3 3 -27 33l-26 33q-7 8 -13.5 16t-12.5 16l-21 25q-8 10 -8 8q0 100 -4 120q-3 17 -13.5 27t-24.5 21t-30.5 26.5t-31.5 43.5v2q9 1 19.5 1.5t22.5 0.5l152 -2l11 8l4 65q1 13 1 24v19q0 27 -17 60t-43 61.5t-56.5 47.5t-57.5 19h-466q-65 0 -110.5 -22.5
t-73.5 -71t-40.5 -125.5t-12.5 -186q0 -181 46 -263q6 -7 13 -23q13 -25 33 -48t44 -42t52 -33t57 -20q38 -8 114 -13t191 -6h-15t-15 1h332q21 0 26 11zM862 680q-3 -5 -37 -5q-10 0 -26 0.5t-32.5 1t-29.5 1.5t-16 1h-28q-66 0 -66 -14v-92q0 -11 6 -12q19 0 47.5 -0.5
t66.5 -1.5l10 -7v-16t1 -22v-37v-31t-9 -20q-1 0 -10.5 0.5t-27.5 1.5l-47 1q-24 -2 -39 -6l-2 -113q0 -5 7 -9h27h90q42 0 76 -1q22 -1 30.5 -2t8.5 -11v-122q0 -31 -5 -36h-103h24q2 0 -15 1t-47 1q-29 0 -67.5 0.5t-78 1t-77 1t-65.5 1.5q-56 1 -96.5 4.5t-69.5 11
t-49.5 18.5t-35.5 28q-16 17 -26 37t-16 49t-8 70.5t-2 100.5q0 200 38 274q56 110 233 110l263 -1q2 -2 7 -2h5q4 0 24.5 0.5t46.5 1t53 1t45 0.5q21 0 23 -9zM438 650q0 33 -19 33h-43q-19 0 -31 -7t-19 -24.5t-10 -47t-3 -75.5v-144q0 -29 3 -45.5t12 -25t24.5 -11
t39.5 -2.5l26 1q2 0 4 0.5l6 1.5q10 13 10 346z" />
    <glyph glyph-name="sterling" unicode="&#xa3;" horiz-adv-x="782" 
d="M719 196q0 4 -13 26t-31 48.5t-35.5 51t-26.5 33.5q-17 1 -33.5 3t-19.5 13q0 4 0.5 7.5t0.5 7.5q0 21 -3 37.5t-13.5 33.5t-30.5 38t-53 51l-1 32h1q3 0 17.5 -14.5l31.5 -31.5t30 -31.5l13 -14.5q9 -12 17 -17l135 -2l9 3v23q0 72 -24.5 137.5t-67 116t-99.5 80
t-123 29.5q-104 0 -157.5 -68t-53.5 -191q0 -33 -23 -33q-5 0 -21.5 2t-27.5 2q-9 -3 -9 -106q0 -31 13 -63q-14 -15 -28 -28t-25 -28t-18 -34.5t-7 -46.5q0 -48 19.5 -95t51.5 -85t74 -61.5t86 -23.5q23 0 73 14q4 9 8 14.5t11 11t18.5 13t31.5 19.5q8 -3 58 -46
q31 -27 75 -27q170 0 170 200zM607 300q0 -96 -28.5 -137.5t-91.5 -41.5q-55 0 -92 27q-29 20 -47.5 32t-26.5 16q-1 -1 -52 -49q-32 -30 -66 -30q-152 0 -152 137q0 28 6.5 52.5t18.5 42.5t30 28.5t41 10.5q-1 0 12.5 -2t41.5 -6q6 1 6 11l-1 33l-8 7q-14 0 -32 -1t-23 -1
q-9 0 -14 1t-8 7t-3.5 18.5t-0.5 36.5q0 38 3.5 53t17.5 15q1 0 16.5 -1t24.5 -1q12 0 17 3q4 81 17.5 135.5t38 87.5t62 47t90.5 14q47 0 83 -16.5t60.5 -47t37 -73.5t12.5 -95q0 -4 -2.5 -6.5t-10 -4t-22.5 -2.5t-39 -1q-28 0 -41.5 6.5t-19.5 16.5t-8 22t-5.5 22
t-11.5 16.5t-28 6.5l-6 -2t-19 -6l-16 -22q0 -3 -0.5 -12.5t-1 -20.5t-1 -22.5t-0.5 -17.5q0 -16 2 -21t7 -5t11.5 1.5t17.5 1.5q8 0 18 -1.5t22 -5.5q6 -8 6 -55v-18q0 -38 -4 -48t-24 -10q-8 0 -20 0.5t-28 0.5l-5 -4v-12q0 -10 -0.5 -23.5l-1 -27t-1 -24.5t-0.5 -15
q13 -19 24.5 -25t12.5 -11l24 -8q15 0 24.5 2t15.5 9t10.5 20.5t9.5 36.5q1 7 6 7h61q35 0 48 -4l6 -10v-37zM204 278q0 23 -29 23h-11q-22 0 -22 -43q0 -14 5.5 -18t14.5 -13h9q33 0 33 51z" />
    <glyph glyph-name="periodcentered" unicode="&#xb7;" horiz-adv-x="483" 
d="M392 247l1 164q0 2 -11 15l-47 48l-11 10q-14 14 -30 28.5t-21 28.5h-181q-3 -6 -3 -43v-136l25.5 -31t83.5 -83q10 -10 158 -10q31 0 36 9zM276 528q0 -1 -2 -1q-1 0 -1 1v1q0 1 1 1q2 0 2 -2zM267 394q0 -28 -8 -28l-155 2q-5 1 -6 6v96q0 6 2 19.5t2 19.5l-1 20l127 1
q28 0 33.5 -3t5.5 -11v-3v-119z" />
    <glyph glyph-name="periodcentered" unicode="&#x2219;" horiz-adv-x="483" 
d="M392 247l1 164q0 2 -11 15l-47 48l-11 10q-14 14 -30 28.5t-21 28.5h-181q-3 -6 -3 -43v-136l25.5 -31t83.5 -83q10 -10 158 -10q31 0 36 9zM276 528q0 -1 -2 -1q-1 0 -1 1v1q0 1 1 1q2 0 2 -2zM267 394q0 -28 -8 -28l-155 2q-5 1 -6 6v96q0 6 2 19.5t2 19.5l-1 20l127 1
q28 0 33.5 -3t5.5 -11v-3v-119z" />
    <glyph glyph-name="AE" unicode="&#xc6;" horiz-adv-x="1072" 
d="M941 45q0 8 -0.5 24t-0.5 33t-0.5 33t-0.5 24v16q-4 8 -11.5 16t-20 21t-32 32.5t-47.5 50.5q-4 5 -4 143l-13 16q-10 11 -24 29t-33 41l-13 15l12 3h81l-1 2h13q20 -1 29.5 -1.5t10.5 -0.5h12q28 0 33 6l2 160q-31 36 -59.5 68.5t-56.5 61.5q-14 5 -215 9q-159 3 -200 3
l-120 -1q-6 -10 -111 -350q-107 -348 -107 -363q0 -2 7 -12.5t18 -24.5t24 -30t25 -29.5t21 -22.5t12 -9h172q5 7 13 32.5t29 74.5q8 -4 20 -19l31 -36q25 -31 37 -43t20 -14l364 -3q11 0 32.5 -2t32.5 -2q16 0 19 18v31zM809 170q0 -6 -1.5 -15t-3.5 -22q-30 -2 -59 -3
t-58 -1q-274 0 -287 15q-1 10 -1.5 24t-0.5 33v17t1 32l3 139q-6 9 -55 9h-29q-13 -8 -44 -131t-40 -128h-153q0 23 104 362q102 330 107 335q10 2 64 2q85 0 196.5 -2t253.5 -6l3 -3v-132q0 -24 -6 -31h-27h4q-2 0 -12 0.5t-25 1t-25 0.5q-23 1 -35 1h-12q-80 0 -81 -10
l-3 -93l4 -10q2 -1 34 -1.5t75 -11.5q2 -8 2 -62q0 -24 -1.5 -37.5t-5 -20t-9.5 -8.5t-14 -2q1 0 -5.5 0.5t-20.5 1.5l-35 1q-2 0 -3 -4l-1 1l-11 1q-4 0 -7 -3v-98l7 -9h156l36 -2q21 0 21 -16v-114zM614 127q0 -2 -2 -2q-1 0 -1 1v2q0 1 1 1q2 0 2 -2zM409 674q0 5 -5 7
q-2 -2 -9.5 -23t-16 -45t-15 -43.5l-6.5 -19.5q0 -8 21 -8h17q5 5 8 6v23q0 33 3 89q0 2 1.5 6.5t1.5 7.5z" />
    <glyph glyph-name="a" unicode="a" horiz-adv-x="731" 
d="M695 3q-55 325 -132 646q-8 2 -52 67l-34 49q-29 42 -58 62.5t-63 19.5l-104 -1q-16 0 -31.5 -1.5t-32.5 -3.5l-11 -11q-4 -18 -8.5 -45t-11.5 -63q-3 -12 -4 -27t-3.5 -38t-6.5 -54.5t-11 -76.5l-8.5 -51t-12.5 -73t-14 -83.5t-12.5 -82t-9 -68t-3.5 -41.5v-9
q91 -109 108 -118h154q7 1 24 102q3 11 5 11q51 -56 78 -85t31 -31q7 -6 192 -6h18zM550 124q-2 -3 -6 -3h-93q-11 0 -32 1t-32 1l-10 7q-12 76 -16 82q-5 8 -22 8l-89 -2l-3 -13.5t-7 -30t-7.5 -30.5t-5.5 -15l-123 -2l-17 2l-3 6q0 31 4.5 72.5t11.5 88t15.5 96t15.5 96.5
q50 325 62 340q14 8 35 8q139 0 177 -7l7 -7l2 -10q6 -28 15 -68.5t20 -94.5l82 -401q10 -50 14.5 -78t4.5 -35v-11zM328 368q0 5 -1 14t-3 21l-10 49q-4 14 -7.5 34t-8.5 47q-1 13 -7 17l-3 -2q0 -3 -1 -12t-3.5 -27t-6 -47.5t-8.5 -73.5l-3 -21l2 -5l52 -2q8 0 8 8z" />
    <glyph glyph-name="b" unicode="b" horiz-adv-x="788" 
d="M709 199q0 49 -29 105q-4 7 -18 30.5t-39 63.5v3q76 69 76 157q0 141 -102.5 217t-293.5 75l-171 -1q-2 -2 -4 -65.5t-4 -189.5l-2 -176q-1 -22 -1 -43v-43l2 -205q18 -25 31 -42t24 -29.5t21 -20.5t21 -15q40 -26 106 -26q187 0 262 28q121 43 121 177zM606 312
q0 -128 -102 -164q-51 -18 -206 -18h-15q-8 0 -19 1l-120 2l-6 6l-2 80q-1 7 -1 12v8q0 94 3 300l5 285l6 8q26 2 61.5 3t81.5 1h83q220 0 220 -191q0 -54 -15.5 -81.5t-59.5 -45.5q-45 -17 -62 -30l5 -5q143 -26 143 -171zM414 632q0 51 -50 51h-20q-5 0 -9 -0.5t-8 -1.5
q-6 -2 -6 -60v-43q0 -13 22 -13h37q34 0 34 67zM414 343v21q0 59 -30 59h-59q-6 0 -6 -44v-46q-1 -5 -1 -10v-15q0 -14 17 -14h11q38 0 53 11t15 38z" />
    <glyph glyph-name="c" unicode="c" horiz-adv-x="723" 
d="M537 373v2q0 1 -10.5 2.5t-19.5 2.5t-11 1h-22q-11 0 -11 -6q0 -2 6 -3h67zM657 520q1 4 1 11v11q0 64 -27 122t-72 102t-104 70.5t-122 26.5q-168 0 -223 -141q-33 -84 -33 -286q0 -187 92 -312q91 -124 243 -124q49 0 93 16.5t76.5 45.5t51.5 70t19 90v12
q-78 111 -109 133l-3 -3l-1 -22q-3 -58 -12.5 -99t-31.5 -67.5t-58.5 -38.5t-92.5 -12q-255 0 -255 272v93q0 100 13.5 169t42.5 112t75 62t111 19q205 0 205 -210q0 -27 -5 -35h-67q-11 0 -31.5 2t-31.5 2l-5 4q-12 70 -59 70l-7 -1q-4 -1 -10 -2t-14 -3q-29 -26 -29 -84
v-175q0 -129 48 -129q33 0 45 8.5t17 35.5q3 20 14 28t22 10t20 1.5t9 2.5q0 5 -48 7l-8 13l-3 182q0 11 5 19q5 -3 22.5 -18.5t38 -34t39 -34.5t25.5 -21q49 -1 79 -3t41 -4l12 7z" />
    <glyph glyph-name="d" unicode="d" horiz-adv-x="833" 
d="M768 358q0 147 -79 286q-83 146 -190 185q-41 15 -170 15q-11 0 -31.5 -0.5t-44.5 -0.5q-23 0 -44 -0.5t-31 -0.5h-23h-10t-10 1l-3 -3q-9 -194 -9 -655v-24t-1 -16v-3q0 -10 2 -16.5t8 -14.5t17.5 -21t31.5 -35q45 -51 55 -55l178 -6q93 0 159.5 21.5t110 66t64 113
t20.5 163.5zM644 429q0 -156 -46 -229.5t-145 -73.5h-222q-24 0 -46 1t-42 3l-8 8v-1l5 285q1 34 1 67v65q0 12 -0.5 35.5t-0.5 48.5q0 26 -0.5 49.5t-0.5 35.5q0 102 10 106l260 2q120 1 177.5 -95.5t57.5 -306.5zM444 415v165q0 27 -3.5 44.5t-12.5 28t-24.5 14.5t-39.5 4
h-23q-5 0 -8 -10.5t-5.5 -27.5t-3.5 -39.5t-1 -46.5v-53v-30t1 -31l2 -134q8 -8 53 -8q22 0 35 4.5t19.5 18t8.5 38t2 63.5z" />
    <glyph glyph-name="e" unicode="e" horiz-adv-x="786" 
d="M673 148q0 44 -52 103t-52 101l1 95q-4 6 -11.5 13.5t-19 18.5t-27.5 27.5t-37 39.5l1 2q27 3 44 3l137 -3l7 7q7 18 7 146v13q-10 17 -33.5 47t-75.5 85q-12 0 -32.5 0.5l-41 1t-37.5 1.5t-21 1h-57h-53q-18 -1 -32 -1h-22h-122q-7 -3 -11.5 -92.5t-4.5 -273.5l-1 -347
q0 -7 14 -27t39 -48l24 -28q24 -27 23 -27q13 -5 407 -5q10 0 17 0.5t12 1.5l6 9q2 39 3 73t1 63zM561 266q0 -33 -3 -127l-8 -6h-128l-139 -4q-19 -1 -30 -1h-15q-23 1 -45.5 2.5t-42.5 5.5q-10 11 -10 94v112q0 19 -0.5 51.5t-1 65.5t-1 59.5t-0.5 34.5l-1 97
q0 65 4.5 109.5t10.5 67.5l7 8q6 0 18.5 1.5t18.5 1.5l250 -2q56 0 81 -2t33 -6l2 -22q0 -5 1 -10v-10q0 -97 -14 -111q-7 -1 -17 -1.5t-24 -0.5h-13q-6 0 -16.5 0.5t-21.5 0.5t-21 0.5t-16 0.5h-47q-38 0 -44 -6l-3 -95l7 -14q23 0 50 -1.5t59 -3.5q10 -3 10 -11v-25
q0 -79 -5 -87q-5 -3 -32 -3t-89 -5l-3 -5v-10q0 -5 -1 -13l-4 -64q-1 -8 -1 -13v-8v-6l10 -11q70 3 119.5 2.5t78.5 2.5h7q21 0 25.5 -7.5t4.5 -25.5z" />
    <glyph glyph-name="f" unicode="f" horiz-adv-x="698" 
d="M682 689q0 10 -12.5 30.5t-30.5 42.5t-37.5 42t-33.5 30q-103 7 -182 10t-136 3q-6 0 -19.5 -0.5t-27.5 -0.5t-27 -0.5t-19 -0.5h-11l-9 -8q-9 -186 -9 -629q0 -60 3 -82l95 -119l6 6q3 0 12.5 -1.5t20 -3t19.5 -3t11 -1.5l58 -3q15 -1 27 -1.5t20 -0.5h33l9 8q4 12 4 36
q0 239 10 246h115q8 5 8 48q0 37 -2.5 59.5t-7.5 36.5t-12.5 22.5t-18.5 17.5q-36 27 -60 60v1q0 4 34 4l160 -2l7 8v13t1 19l2 86v27zM573 772q0 -91 -8 -105h-64q-20 1 -45 1h-55h-17q-37 0 -48 -8l-2 -81q0 -25 7.5 -35.5t26.5 -10.5q10 0 29 1.5t29 1.5h12q8 0 13 -1
l7 -8l1 -87q0 -13 -0.5 -22.5t-1.5 -14.5l-7 -6h-9t-12 1h-21q-36 0 -72 -3l-5 -6v-80q0 -90 -2.5 -133.5t-3.5 -51.5h-135q-19 0 -33.5 3t-14.5 8v234q0 171 2 285t6 174l1 1q17 5 56 5h30t43 -1l206 -4q25 -1 43 -1h30l11 -9q2 -24 3 -35v-12z" />
    <glyph glyph-name="g" unicode="g" horiz-adv-x="758" 
d="M655 -6q10 4 10 14l2 333q-5 11 -31.5 40t-85.5 82h-2q-2 -5 -2.5 -28t-1.5 -51.5t-1 -56.5v-43v-48q0 -69 3 -115q-2 -5 -40 -5q-100 0 -105 8v49q-8 -1 -27 -19l-15 -13q-14 -14 -32.5 -18.5t-45.5 -4.5q-125 0 -166 125q-24 73 -24 228v9q0 169 62.5 262t177.5 93
q205 0 205 -181l-1 -48q-11 -8 -39 -8q-75 0 -94 9q-3 30 -19 51.5t-41 21.5q-65 0 -65 -200v-43q0 -19 1 -33l1 -47q0 -39 9.5 -60t37.5 -21l7 2q4 1 9 2t12 3l19 22l4 38l-11 11l-47 4l-11 8v94q0 7 6 9l232 -4q9 9 28 9l67 -2q6 -1 10 -1h8q5 3 5 6q0 144 -94 256
q-98 114 -227 114q-71 0 -121 -24t-81.5 -75.5t-46 -133.5t-14.5 -199q0 -86 22 -162t60.5 -133t91.5 -90t115 -33q25 0 44.5 9.5t51.5 28.5l9 -6.5t20 -14t20.5 -14l9.5 -6.5h131zM517 482q-13 -5 -25 -5h-12q-82 0 -82 15q0 3 1 4v57q0 28 6 28q5 0 14 -6.5t14.5 -12
l6.5 -6.5q25 -25 44 -42.5t33 -28.5v-3z" />
    <glyph glyph-name="h" unicode="h" horiz-adv-x="881" 
d="M757 227l-1 421q0 7 -32 54l-30 44q-10 15 -21 30.5t-21 29t-18 23t-12 11.5l-186 1l-1 -16q-1 -18 -2 -36.5t-3 -37.5l-3 -18q-7 0 -29 30l-22 30q-5 5 -11.5 14t-14.5 20q-17 20 -92 20q-8 0 -24 -1t-25 -1l-66 1l-6 -5q-14 -76 -14 -268v-26q0 -14 1 -32l1 -79l3 -171
l1 -102q0 -4 6.5 -17.5t17 -31.5t22.5 -37.5t24 -36t22 -27.5t15 -11h192q6 2 8 27t2 60l2 20q6 0 49 -49l54 -60q19 -6 173 -6h27l10 8q0 16 0.5 43l1 54t1.5 49t1 28v51zM623 823l2 -500q0 -187 -6 -193l-113 -1h-22q-10 0 -21 -1h2q-25 3 -25 21q0 257 -3 265q-2 3 -23 3
l-87 -2l-6 -9v-20q0 -11 1 -26v-126q-1 -22 -1 -45q0 -22 -1 -46q-5 -11 -28 -11q-6 0 -18.5 0.5t-27.5 0.5q-14 0 -26.5 0.5t-18.5 0.5h-13q-5 -1 -8 -1h-5q-6 1 -12 1t-11 3t-8 10t-3 22v139q0 66 -1 140t-1 144v53q0 42 1.5 88t3.5 99l8 5h89q83 0 85 -9v-14
q-1 -26 -2.5 -73.5t-1.5 -102.5q0 -70 7 -74l108 3q2 25 3.5 50.5t1.5 51.5v51q-1 8 -1 13v9v65q0 13 1 17l5 7h102q72 0 74 -8z" />
    <glyph glyph-name="i" unicode="i" horiz-adv-x="561" 
d="M439 615q0 67 -37 122l-84 101h-189l-3 -4v-36q0 -24 -1 -56.5t-2 -68.5t-2.5 -72.5t-2.5 -68.5t-2 -57t-1 -36q0 -277 3 -320q0 -5 42 -51l33 -38q8 -10 14 -16l10 -10q9 -4 75 -5l139 -4q8 11 8 620zM321 823v5q-1 1 -1.5 -6.5t-0.5 -19.5t-0.5 -26.5t-1.5 -26.5
q-2 -54 -3.5 -102.5t-1.5 -93.5v-52v-31t1 -43v-74v-57v-54q0 -25 -1 -46t-4 -35l-1 -9q0 -4 2.5 -12t2.5 -10q0 -11 -38 -11h-27q-6 0 -18.5 0.5t-25.5 0.5t-25.5 0.5t-18.5 0.5h-13q-5 -1 -12 -1l-8 10q0 22 -1 43t-1 39v-1l1.5 59.5t3.5 179.5v9q0 29 2.5 71.5t2.5 98.5
v59q0 141 3 144h181z" />
    <glyph glyph-name="j" unicode="j" horiz-adv-x="674" 
d="M324 -2q124 0 183.5 95.5t59.5 304.5v114t-1 56q-6 119 -29 163q-13 25 -89 107q-24 6 -36 6h-161q-5 -3 -5 -16v-6q0 -5 0.5 -16t1 -24t1 -24.5t0.5 -17.5v-33t-1 -30t-2.5 -36.5t-4.5 -51.5q-3 -35 -3 -58v-9v-12q0 -6 1 -14l2 -82q0 -44 -8 -52q-3 5 -12 17.5
t-20.5 26t-25 24t-26.5 10.5q-113 0 -128 -3l-7 -7v-28l-2 -41q-1 -5 -1 -9v-5q0 -137 61 -213q23 -27 24 -37q87 -99 228 -99zM440 836v-220q0 -64 -1 -108.5t-1.5 -74.5t-1.5 -46.5t-1 -25.5q-3 -48 -7 -84t-13.5 -62t-26.5 -43.5t-46 -28.5q-41 -15 -71 -15
q-76 0 -124.5 10t-77 37t-39.5 75t-11 124q0 23 5 41l10 9q37 2 55 3.5t19 1.5q56 0 58 -5v-72v-24q0 -9 1 -14l16 -19q5 -2 9.5 -3t7.5 -2l6 -2q32 0 39 22q8 24 8 438q0 63 3 80l15 10l104 1q1 0 18 -2t38 -2q8 0 9 1z" />
    <glyph glyph-name="k" unicode="k" horiz-adv-x="804" 
d="M695 5q-2 3 -25.5 75.5t-68.5 198.5l-54 150q0 23 63 136q73 130 78 150q-2 6 -10 21t-18.5 32.5t-22 34.5t-20.5 29q-11 6 -139 6q-40 0 -50 -10l-40 -68q-2 2 -27 40l-16 23q-4 5 -7.5 9t-5.5 6l-183 3l-8 -8q-12 -173 -12 -338v-338q0 -10 8 -27.5t22 -38.5t32.5 -44
t38.5 -43q15 -6 91 -6h85q5 0 10 6l3 53h3q4 -6 12.5 -16t17 -19.5t16.5 -17t13 -9.5h17h16q9 0 19 -1l92 -2h65q5 3 5 13zM595 823q-2 -2 -16.5 -33.5t-43.5 -89.5l-52 -102q-7 -13 -8.5 -16.5t-1.5 -6.5v-5q0 -52 58 -216t58 -223l-1 -9l-38 -1h-15t-24 1l-42 2
q-12 1 -24.5 1.5t-25.5 2.5l-29 114q-5 16 -11.5 40t-14.5 56q-4 15 -6 17q-33 -15 -33 -122q0 -19 0.5 -38.5t1.5 -39.5v-19q-3 -9 -39 -9q-131 0 -141 6l-6 9v249q0 423 13 436l20 6h92q24 0 36.5 -0.5t18.5 -2.5t7.5 -6.5t3.5 -13.5l1 -157q1 -7 6 -7q6 0 50 90
q45 91 54 94h15h27q15 0 32 -1l75 -4z" />
    <glyph glyph-name="l" unicode="l" horiz-adv-x="690" 
d="M681 118q0 54 -39 104q-4 5 -23.5 25t-54.5 55q-18 6 -28 6l-70 1l-7 8q-1 7 -1.5 17.5t-0.5 24.5q0 19 0.5 44.5t1.5 58.5l4 137q1 32 1.5 57.5t0.5 44.5q0 -3 -1 -3q-6 0 -29 38q-10 11 -24.5 27.5t-33.5 39.5l-23 27q-5 5 -7 7.5t-3 3.5q-28 2 -51 3t-41 1h-32
q-21 0 -72 -3q-5 -5 -14 -188q-4 -85 -6 -139t-2 -77v-97q0 -74 2 -120t6 -66q17 -83 97 -154h46h45q26 0 55 -1l218 -4q23 -1 39 -1h24q9 0 13.5 3t6.5 15.5t2.5 37t0.5 67.5zM561 181q0 -56 -14 -56h-108h-55q-26 0 -52 1l-99 2q-23 1 -44 1.5t-38 1.5q-8 11 -8 62v129
q0 11 0.5 28.5t1.5 40.5l6 194q4 112 3 168.5t4 70.5l10 6q45 0 79 0.5t57 1.5l31 -2q3 -2 3 -38q0 -2 -0.5 -22t-1.5 -58l-2 -85q-1 -30 -2 -62.5t-1.5 -64t-1 -60t-0.5 -49.5q0 -93 6 -99h223q3 -8 3 -9v-102z" />
    <glyph glyph-name="m" unicode="m" horiz-adv-x="1038" 
d="M904 613q0 27 -15.5 66t-39 76t-51.5 63t-53 26h-231q-6 -4 -14 -39l-9 -45l-5 -4l-4 3q-11 16 -27 37t-38 48l-98 2q-35 1 -53 1.5l-18 0.5h1h-99l-6 -6q-5 -176 -7.5 -306t-2.5 -218v-54q0 1 0 -11q0 -11 1 -34l2 -91q64 -86 73 -94q23 -25 60 -29q8 -1 38.5 -1.5
t85.5 -0.5q20 0 23 8v52q8 -4 26 -20t47 -40h92l5 8.5t11 19t11.5 19.5t7.5 9q6 -5 17 -15t29 -19.5t42 -17t55 -7.5h124q12 0 17 8zM776 757v-431v-96q0 -35 -1 -47q-2 -51 -8 -56h-121q-52 0 -62 9l-1 425l-8 9q-3 -3 -30 -220q-27 -216 -34 -223q-10 -1 -24.5 -1.5
t-33.5 -0.5q-21 0 -37 0.5t-27 1.5q-9 13 -34 212l-28 218l-8 7q-1 1 -2 1q-2 0 -2 -6l-2 -265v-30q0 -25 -1 -54.5t-3 -53.5t-5 -24h-144q-6 0 -10 7v133q0 220 2 357t6 195l12 10q3 -1 52 -1h141q49 0 51 -3q3 -8 24 -108q3 -17 7 -35t8 -34t7.5 -27t5.5 -13l3 3l38 165
q12 52 26 52l235 -2q8 -5 8 -74z" />
    <glyph glyph-name="n" unicode="n" horiz-adv-x="876" 
d="M737 12v30q0 49 4 187q1 34 1 59q0 20 -1 59.5t-1 59.5q0 34 1 69l2 63q1 28 2 46l1 18q0 77 -32 133q-22 38 -87 105q-35 6 -98 6h-66q-19 0 -24 -15q-3 -7 -3 -31v-44q0 -8 -3 -8h-1q-19 23 -60 66q-10 9 -31 24q-15 8 -38 8l-167 -1q-3 -2 -3 -69v-319
q0 -72 -0.5 -91.5t-1.5 -53.5l-3 -60q-1 -26 -1 -31q0 -70 33 -122q19 -30 83 -94h190l14 17q0 -11 -1 12t-1 32q0 34 5 37q30 -20 70 -64q14 -17 21 -22q14 -13 25 -14q20 -4 154 -4l12 3zM619 132q-4 -4 -31 -4q-131 0 -148 11q-21 33 -48 110q-32 90 -51 137l-27 66
l-3 -1v-21q0 -20 1 -59l4 -167q1 -40 1 -60l-6 -6q-76 -4 -98 -3l-64 2q-5 25 -6 58q-3 89 -3 356v282l4 8h169q12 0 25 -5q48 -141 80 -221q12 -32 23 -55l4 -1q0 40 -1 105q-2 85 -2 105q-1 36 -1 54l8 13q10 0 31 1t31 1q104 0 63 2q47 -2 47 -23z" />
    <glyph glyph-name="o" unicode="o" horiz-adv-x="807" 
d="M737 342q0 189 -100 344q-114 178 -292 178q-69 0 -118 -22.5t-80.5 -72t-46 -127t-14.5 -187.5q0 -78 9.5 -138t30.5 -107.5t55 -84.5t84 -68q92 -59 149 -59h78q54 0 99 26.5t77.5 73t50.5 109.5t18 135zM611 464q0 -177 -39 -249q-54 -101 -211 -101q-167 0 -223 107
q-38 74 -38 257q0 94 13.5 164.5t44 116.5t78.5 69t117 23q73 0 122.5 -20.5t79.5 -66t43 -119.5t13 -181zM418 467v41q0 51 -2.5 85t-7.5 54t-14 28.5t-21 8.5h-33q-14 0 -23 -8.5t-14.5 -29t-8 -53.5t-2.5 -82v-145q0 -83 65 -83q63 0 63 122q0 17 -1 33t-1 29z" />
    <glyph glyph-name="p" unicode="p" horiz-adv-x="751" 
d="M731 484q0 144 -90 251q-92 108 -215 108l-279 -2q-1 -4 -4 -83t-4 -235l-2 -326v-21q0 -9 1 -18l2 -37q25 -39 43.5 -63t37.5 -37t41.5 -17.5t55.5 -4.5h59q5 1 8 1h6h51l9 9q2 227 11 239q143 20 194 53q75 49 75 183zM620 590q0 -95 -30.5 -140t-100.5 -55
q-2 0 -146 -9l-7 -6l-2 -178v-23q0 -11 1 -23q0 -15 -5.5 -22.5t-14 -10t-20 -2t-23.5 0.5l-119 2q-4 1 -4 8v204q0 27 1.5 68t3.5 92.5t3.5 112.5t1.5 129q0 23 -0.5 44.5t-1.5 41.5l6 7l211 1q66 0 112.5 -13.5t76.5 -42.5t43.5 -75t13.5 -111zM442 600v26q0 15 -13.5 30
t-28.5 15h-54q-7 0 -7 -41v-86q0 -11 22 -11h21q37 0 48.5 14.5t11.5 52.5z" />
    <glyph glyph-name="q" unicode="q" horiz-adv-x="790" 
d="M723 362q0 184 -94 332q-109 172 -280 172q-69 0 -119.5 -22t-83.5 -69.5t-49 -121t-16 -176.5q0 -64 7.5 -116.5t22.5 -97t37 -84t52 -78.5q0 1 -6.5 -9.5t-14 -25.5t-14.5 -29.5t-7 -20.5q31 -127 191 -127l9 4l6 65q15 -9 41 -41l20 -24q10 -12 12 -13
q175 -12 193 -12h12q7 1 9 9q-4 14 -11.5 27.5t-19 30.5t-27 39t-36.5 54q49 37 81 70t51 70.5t26.5 84t7.5 109.5zM600 440q0 -147 -49.5 -222.5t-147.5 -85.5q-8 -2 -8 -4l4 -6q23 -4 46.5 -17.5t43 -32.5t31.5 -40.5t12 -40.5q0 -8 -23 -8h-17q-9 0 -21 1l-49 3
q-32 2 -47.5 3.5l-15.5 1.5h1q-4 4 -15 37q-7 22 -30 22q-16 0 -26 -13t-19 -26h-20q-82 0 -82 11q0 14 11 30t27.5 31t37 27.5t40.5 19.5l-49 17q-67 24 -104.5 97.5t-37.5 184.5v123q0 71 18.5 127.5t53 95.5t84.5 60t113 21q64 0 109 -22t73.5 -71t42 -129t13.5 -195z
M413 411v40v-71l1 39t2 117v13q0 136 -68 136q-26 0 -40.5 -11t-21.5 -38t-8.5 -72t-1.5 -113q0 -50 3 -80.5t10.5 -47.5t20.5 -23t34 -6q38 0 53.5 26t15.5 91z" />
    <glyph glyph-name="r" unicode="r" horiz-adv-x="817" 
d="M718 164q0 38 -2.5 64t-8.5 45t-15.5 34t-23.5 32q-24 27 -39 65v1q76 66 76 151q0 133 -77 202t-238 83q-28 2 -87.5 3.5t-153.5 1.5h-17l-6 -6q-6 -152 -6 -627q0 -17 -1 -30t-1 -25q0 -16 5.5 -30.5t20.5 -32.5q5 -6 28.5 -27.5t65.5 -58.5l20 -3h161l4 4
q1 14 1.5 34.5t2.5 48.5l6 4l64 -61q15 -15 26 -23t21 -11.5t21 -4.5t26 -1l12 1q2 0 8.5 -0.5t15.5 -1.5q4 1 17 1h12q10 -1 19.5 -1.5t18.5 -0.5q19 2 20 12q2 46 3 85.5t1 72.5zM606 639q0 -130 -96 -149q-28 -6 -28 -11l6 -5l48 -12q22 -8 35.5 -23.5t20.5 -49t9 -90.5
t2 -148q0 -23 -3 -26h-172l-6 7q-3 12 -3 31l5 94q1 8 1 14v12q0 113 -76 113h-18l-5 -8l-2 -214v-20t-1 -21l-12 -7q-8 4 -42 4q-20 0 -43.5 -1t-44.5 -1q-43 0 -44 9q-3 37 -3 66v15q-2 17 -3.5 38.5t-1.5 47.5q0 16 1 32t2.5 38t2.5 52.5t1 75.5v71q-1 23 -1 41v29v56
q0 128 6 133l8 2q20 0 55.5 1t87.5 3q13 1 22 1h16q147 0 211.5 -48.5t64.5 -151.5zM420 602q0 57 -32 68q-7 2 -8 3h-51q-7 0 -7 -35v-9q0 -6 1 -11v-51q-1 1 -1 4q1 -21 14 -21h39q3 0 7 0.5t9 1.5l1 2q28 4 28 48z" />
    <glyph glyph-name="s" unicode="s" horiz-adv-x="670" 
d="M627 200q0 31 -4 55.5t-15.5 47t-32 45.5t-52.5 53q-53 48 -75 84q14 19 65 57l55 43l1 7q0 7 -15.5 32.5t-39.5 56.5t-52.5 62.5t-53.5 51.5q-4 2 -10.5 6.5t-15.5 10.5q-2 2 -10.5 7t-22 10t-32 9t-42.5 4q-41 0 -77.5 -15.5t-64 -42.5t-45 -64.5t-20.5 -81.5v-7
q0 -17 5.5 -47t29.5 -66q11 -16 27.5 -40.5t38.5 -57.5q5 -10 9.5 -19.5t6.5 -18.5q-7 -14 -38.5 -35t-85.5 -67q17 -93 133 -189q118 -96 210 -96q46 0 87 14.5t71 41.5t47.5 64.5t17.5 84.5zM516 309v-10q0 -39 -18 -73t-48 -59.5t-68 -40.5t-78 -15q-39 0 -75 12
t-66.5 34t-54 51.5t-38.5 65.5v1q54 54 105 76q15 -12 30.5 -26t30 -25t27 -18.5t21.5 -7.5q14 0 28 12.5t14 26.5q0 34 -64 82q-99 73 -120 97q-64 68 -64 154q0 13 2 25t7.5 25.5t15 29t24.5 35.5q14 17 34 31.5t61 31.5q1 0 10 2.5t11 2.5l23 4h35q29 0 69 -21.5
t96 -82.5q6 -7 13.5 -16t15.5 -22q-2 -6 -26 -26t-76 -57q-12 11 -26 23.5t-28.5 23.5t-28 18t-23.5 7q-3 0 -8 -5t-10 -11.5t-8.5 -12.5t-3.5 -9q0 -32 65 -78q48 -33 78 -57t44 -38q72 -77 72 -160z" />
    <glyph glyph-name="t" unicode="t" horiz-adv-x="719" 
d="M676 692q0 20 -25.5 52t-65.5 70l-25 25q-4 1 -187 6l-140 4q-26 1 -44 1h-25h-111q-11 -8 -11 -174q0 -5 13 -25.5t30 -44t33.5 -44.5t23.5 -25q31 -7 52 -9q1 -1 1 -36q-3 -90 -3 -175v-47q-1 -16 -1 -28v-19q0 -84 3 -91q4 -11 18.5 -31t32 -40.5t34.5 -36.5t26 -18
q26 -5 58 -6h22q28 0 60.5 1t64.5 9q9 19 9 392q0 96 3 123q7 10 44 10l102 -2q8 11 8 159zM558 781v-26q0 -61 -10 -94l-145 -1l-6 -6q-13 -59 -13 -167q0 -26 1 -69.5t3 -104.5q1 -16 1 -27v-19v-78q0 -62 -8 -65q-173 4 -174 6q-4 3 -4 37v-7q0 2 0.5 16.5t1 45t1.5 80.5
t2 124l1 138q0 92 -4 96q-14 2 -26 3t-23 1l-92 -1l-8 6q-5 22 -5 104q0 69 42 69q14 0 71.5 -1t160.5 -3q221 -5 230 -11z" />
    <glyph glyph-name="u" unicode="u" horiz-adv-x="824" 
d="M451 -2q7 -3 15 -3q13 0 52 14l12 5q97 27 138.5 105.5t41.5 214.5v17q0 11 -1 25l-4 115q-1 13 -1 22v15q0 143 -15 181q-16 41 -110 137q-52 2 -76 3l-99 -3l-4 -3q0 -31 -1.5 -55t-3.5 -41h-2l-10.5 15t-24 33t-25.5 33.5t-15 17.5h-75h-13q-7 0 -16 1h-84l-6 -7
q-9 -344 -9 -453q0 -84 12 -146t39.5 -106.5t72.5 -74.5t110 -51q5 -2 12.5 -2.5t19 -1t28.5 -2.5t42 -5zM575 452q0 -226 -35 -261q-57 -58 -166 -58q-69 0 -117 12.5t-77.5 40.5t-42.5 72.5t-13 108.5q0 44 1 95.5t3 112.5l3 99q2 49 3 83l3 78q22 5 67 5h25h11t18 -1
l44 -2l6 -5q1 -12 1 -30t1 -42v-122q0 -14 -1 -37.5t-2 -46.5t-2 -41t-1 -21q-1 -15 -1 -26v-19q0 -136 39 -136q46 0 55 28q10 27 10 163v318q0 14 28 17h93q4 0 13.5 -1t25.5 -3l6 -6l2 -12v-363z" />
    <glyph glyph-name="v" unicode="v" horiz-adv-x="722" 
d="M643 675q0 2 -8.5 17t-19.5 34t-23 38t-18 29l-20 30q-8 12 -12 16q-44 6 -84 6l-89 -1q-3 -2 -6 -7.5t-6 -17.5t-6 -32t-6 -50q-1 -13 -7 -13h-2q-2 2 -5.5 7t-10.5 14l-28 37q-10 13 -20 27.5t-21 30.5q-20 7 -45 7h-142q-5 -3 -5 -12q0 -35 5 -81t16 -103
q50 -258 71 -391.5t26 -140.5q24 -37 47 -65t45 -48q15 -9 91 -9l168 2q5 11 60 332l42 247q7 43 10 67.5t3 29.5zM536 811q0 -5 -20 -137t-58 -380q-22 -150 -32 -171l-12 -3l-4 -2q-188 0 -219 6q-9 8 -63 326q-54 319 -54 370v11q3 3 8 3h150l11 -9q8 -45 20 -111.5
t26 -156.5q10 -68 21 -94l3 -5q5 0 10 29q1 6 21 171q20 160 37 170h145l9 -6z" />
    <glyph glyph-name="w" unicode="w" horiz-adv-x="1152" 
d="M1049 677q-5 19 -21 47.5t-36 55.5t-40 46t-32 19h-147q-2 -17 -7.5 -47t-15.5 -74l-4 -2q-16 14 -38 40.5t-51 64.5q-19 25 -79 25h-145h-8q-18 0 -25 -5t-10 -18t-4.5 -35.5t-9.5 -58.5q-6 4 -21 22l-58 72q-7 8 -12 13t-8 7l-195 2q-3 -2 -3 -8q0 -38 2.5 -72t8.5 -71
t15.5 -79t23 -95.5t31 -122.5t39.5 -158l3 -21q10 -59 39.5 -118t85.5 -104h223l8 8l20 98q5 0 26.5 -24t70.5 -82q37 -8 70 -8h104q74 0 80 6q7 4 22 92l70 415q4 22 9 47t9.5 48.5t7.5 42.5t2 31v1zM943 826q-2 -8 -5 -34.5t-11 -71.5l-96 -591q-5 -6 -30 -6h-11
q-5 0 -19.5 -0.5t-32 -1t-34.5 -1t-27 -0.5h-37q-24 0 -36.5 2t-19 9.5t-9 22t-4.5 39.5q-2 23 -6 56t-8.5 68.5t-9.5 71t-10 63t-9 45t-7 17.5t-6 -21.5t-8 -64.5l-38 -292q0 -7 -33 -8.5t-108 -1.5q-33 0 -53.5 0.5t-28.5 1.5q-10 5 -39 133.5t-82 382.5
q-11 54 -18.5 100.5t-12.5 85.5v1q0 11 27 11h91q9 0 27 -1t27 -1q4 0 22 -75l50 -205q0 -8 6 -36l5 -26q1 -12 5 -19l4 -5l4 5q2 29 7 76t13 113q20 159 27 169l35 3h193l4 -8q10 -51 24 -125t33 -174l11 -57q4 -22 8 -22l6 9q20 142 33.5 237t22.5 129q5 5 12 5h99
q45 0 53 -8z" />
    <glyph glyph-name="x" unicode="x" horiz-adv-x="770" 
d="M680 8q-2 14 -24 66t-65 142q-82 171 -82 203q0 23 61 144q66 132 72 159q-14 35 -27.5 58.5t-29 37.5t-36 19.5t-49.5 5.5h-85q-3 -3 -9 -16l-13 -28q-9 -20 -27 -45q-10 10 -22 29.5t-42 60.5q-11 3 -79 3h-122l-5 -7q3 -32 73 -194q65 -153 65 -175q0 -16 -68 -167
q-21 -45 -34 -75t-21 -49t-11.5 -30t-3.5 -20q0 -3 13 -19l28 -37q33 -44 52 -63q15 -3 41 -3h87q13 13 32 58l18 43l4 2q24 -19 50 -67q36 -51 144 -51l46 1q17 1 26 1.5t10 0.5h24zM562 134q0 -5 -3 -5l-76 -1q-18 0 -42.5 1t-56.5 3q-8 2 -62 146l-3 1q-8 -8 -36 -74
q-8 -17 -17 -36.5t-20 -39.5h-8q-130 0 -130 11q0 13 27 71.5t77 170.5q12 26 20.5 48.5t13.5 40.5q-2 11 -7 25t-13.5 34.5t-20.5 49.5t-28 70q-25 63 -37.5 93.5t-18.5 45t-7 21.5t-4 22l8 6q8 -5 24 -5q4 0 67 6q5 1 8 1h5h-1l19 -1q10 -1 24 -2t33 -2q-1 1 3 -8.5
t10 -25t13.5 -33.5t14 -34t11.5 -27l5 -11q8 8 18 33.5t32 78.5q16 27 50 27q80 0 95 -4l5 -6q0 -17 -67 -151q-66 -135 -66 -152q0 -34 70 -195q71 -162 71 -193z" />
    <glyph glyph-name="y" unicode="y" horiz-adv-x="662" 
d="M604 701v10q-23 34 -72 102q-6 7 -11.5 12.5l-10.5 10.5l-71 6h-99q-3 0 -19 -43q-17 -43 -15 -41q-5 4 -23 26.5t-55 59.5q-4 0 -11 0.5t-14.5 1t-13.5 1t-8 1.5h-149q-5 -2 -5 -10q0 -1 138 -406q5 -17 5 -149q0 -122 10 -158q16 -63 96 -123l52 -2q13 -1 21 -1h12h30
q86 0 105 10l2 72q0 8 -0.5 28t-1.5 51l-4 104q-1 24 -1.5 41t-0.5 28v35q0 12 1.5 21.5t6 21.5t13.5 35l42 111q51 133 51 144zM502 825q0 -54 -68 -210t-68 -222v1l5 -166q1 -17 1 -29v-20q0 -42 -3 -54l-83 -6q-29 0 -54 0.5t-47 1.5q-8 19 -8 255q0 84 -56 229
q-35 91 -55 147.5t-25 80.5v1q0 5 20 5h50q21 0 108 -3q3 -2 6.5 -11.5t11 -30t19 -54t31.5 -81.5l3 4q11 17 22.5 56t28.5 109l5 3h155z" />
    <glyph glyph-name="z" unicode="z" horiz-adv-x="818" 
d="M707 671q0 3 -10 19.5t-25.5 39.5t-35.5 51.5t-40 55.5q-18 6 -156 6h-290q-8 -6 -8 -50q0 -42 1 -73.5t3 -54.5q32 -32 68 -74l26 -31q23 -26 23 -44q0 -6 -22 -42t-82 -108l-17 -21q-35 -53 -35 -100q0 -90 4 -102q12 -40 86 -129q16 -15 45 -15h441q7 0 7 88
q0 69 -92 197q-6 10 -14 14.5t-37 6.5l-22 1q0 4 7.5 17.5t20 33.5t29 44.5t34.5 50.5l27 39q17 20 29 44t20 48t11.5 47t3.5 41zM593 779v-41q0 -59 -3 -78q-1 -10 -44.5 -74.5t-125.5 -185.5q-20 -30 -34.5 -54t-24.5 -43v-2q0 -9 36 -9h181q3 -3 3 -38v-97q0 -21 -6 -31
l-249 -2q-44 0 -93.5 2t-105.5 5q-9 12 -9 31v120q12 16 60 84l54 76q47 66 85 124.5t58 100.5q-6 7 -79 7h-136q-5 3 -5 10v138l3 7q60 2 122.5 3.5t128.5 1.5q31 0 177 -6l6 -6z" />
    <glyph glyph-name="period" unicode="." horiz-adv-x="437" 
d="M370 7l1 164q0 3 -11 14.5t-23.5 24.5t-23.5 23.5l-11 10.5q-14 14 -29.5 28t-21.5 29h-181q-3 -6 -3 -43v-136q0 -2 14 -17.5t32 -35t36 -37.5t27 -24q11 -10 158 -10q31 0 36 9zM254 288q0 -1 -2 -1q-1 0 -1 1v1q0 1 1 1q2 0 2 -2zM245 250v-92q0 -9 -1.5 -20.5
t-6.5 -11.5l-155 2q-5 1 -6 6v96q0 6 2 19t2 20l-1 20l133 1q23 0 28 -4t5 -23v-13z" />
    <glyph glyph-name="exclam" unicode="!" horiz-adv-x="464" 
d="M410 664q-1 1 -9.5 16.5t-23 39.5t-28 47t-24 40.5t-12.5 18.5l-79 5l-63 4.5l-77 5.5l-4 2l-16 -10l-2 -22q0 -47 4.5 -114.5t14.5 -158.5q10 -97 19.5 -152.5t17.5 -72.5v-1q0 -5 -14.5 -6t-29.5 -1q-6 -6 -6 -65l2 -122q0 -3 16.5 -21.5t37 -39.5t38.5 -38.5t21 -18.5
q4 -1 24 -1h59h85q2 -1 5 -1t6 5t4.5 22t2.5 49t1 85q0 4 -7.5 15t-16 23t-16 23.5t-7.5 16.5q0 18 5.5 52t14.5 75.5t18.5 86.5t18.5 86.5t14.5 75t5.5 51.5zM305 818q0 -6 -9.5 -65.5t-28.5 -174.5q-14 -83 -21 -131t-12 -72.5t-10 -31.5t-14 -7h-70q-8 0 -12 6.5t-8 30
t-8 69t-11 123.5q-10 107 -15 169t-5 81l0.5 3t1.5 8l12 6q22 0 58 -2t70 -5t58 -5zM261 273q0 -8 -0.5 -23t-1.5 -32t-1.5 -32.5t-0.5 -23.5v-32l-6 -6h-10q-21 0 -46 1t-46.5 1.5t-36 1.5t-15.5 1q-10 3 -10 93q0 6 0.5 14.5t0.5 18.5t0.5 18.5t0.5 14.5l6 6q17 1 25 1.5
l8 0.5h-2q8 0 24.5 -0.5t34.5 -0.5t34.5 -0.5t24.5 -0.5q17 0 17 -21z" />
    <glyph glyph-name="comma" unicode="," horiz-adv-x="396" 
d="M339 75v136q-11 9 -24.5 23t-28 31t-29 35.5t-27.5 36.5h-172l-4 -4q0 -10 -0.5 -29.5t-0.5 -41.5t-0.5 -42t-0.5 -30q0 -14 5.5 -25.5t11.5 -20t11.5 -14t5.5 -8.5q0 -5 -4.5 -11t-9.5 -11.5t-9.5 -9.5t-5.5 -6q2 -5 13 -18t26.5 -30.5t34 -37t35 -36t29 -28.5t16.5 -14
q17 4 39 22t42 41.5t33.5 48.5t13.5 43zM221 292q0 -115 -6 -142q-15 -68 -81 -113q-14 -9 -17 -9h-3q-41 41 -42 56q1 3 8 11.5t15 19t14.5 21.5t6.5 20q-2 4 -4.5 7t-28.5 4q-22 1 -22 10v62q0 87 11 87h57q6 0 17.5 -0.5t24.5 -1.5t25 -1.5t17 -0.5q8 -6 8 -30z" />
    <glyph glyph-name="DST" unicode="&#xf000;" horiz-adv-x="1591" 
d="M1500 -39v842h-1409v-842h1409zM1475 564q0 -70 -92 -70q-6 0 -18.5 0.5t-26.5 1.5t-26.5 1.5t-18.5 0.5q-73 0 -73 -51v-302q0 -30 19 -43v-56q-72 16 -72 86v324q0 96 115 96l10 -1t23.5 -1.5t26.5 -1.5t21 -1q57 0 57 21q0 19 -42 19q-4 0 -16 -0.5t-26 -1t-27.5 -1
t-19.5 -0.5q-122 0 -122 87v132h57q0 -3 -1 -14.5t-2 -25.5t-2 -28.5t-1 -21.5q0 -77 43 -77q4 0 17 1t28.5 1.5t31 1.5t23.5 1q114 0 114 -77zM1086 137q0 -39 -23.5 -64t-62.5 -25h-283q-29 0 -49.5 20.5t-20.5 50.5t18 51.5t47 21.5h280v-53l-21 1t-49.5 2t-57.5 2t-45 1
q-118 0 -118 -24q0 -22 22 -22h251q62 0 62 46v76q0 51 -87 51q-10 0 -33 -1.5t-49 -3.5t-50 -3.5t-35 -1.5q-135 0 -135 96v89q0 45 26.5 74t71.5 29h247q77 0 90 -76h-51q-20 21 -43 21h-244q-42 0 -42 -43v-96q0 -42 80 -42q9 0 32.5 1.5t50 3t50 3t34.5 1.5
q137 0 137 -92v-94zM578 803l-1 -686q0 -30 -22 -52.5t-52 -22.5q-76 0 -76 142q0 11 1.5 36t1.5 50q0 13 -11 30t-28 35t-36.5 36t-35.5 35q-83 83 -99 83q-26 0 -26 -37v-311q0 -43 36 -43h81q15 10 25 21h53q-13 -73 -77 -73h-82q-89 0 -89 97v331q0 15 7 27.5t18.5 21.5
t26.5 14t31 5q21 0 46 -16.5t54 -44t62 -63t69 -73.5q31 -30 31 -75q0 -1 -0.5 -12.5t-1.5 -27t-1.5 -31.5t-0.5 -25q0 -76 22 -76l20 21v684h54z" />
  </font>
</defs>
</svg>
