<?xml version="1.0" encoding="UTF-8" ?>
<!DOCTYPE svg PUBLIC "-//W3C//DTD SVG 1.1//EN" "http://www.w3.org/Graphics/SVG/1.1/DTD/svg11.dtd">
<svg width="187pt" height="159pt" viewBox="0 0 187 159" version="1.1" xmlns="http://www.w3.org/2000/svg">
<g id="#000000ff">
<path fill="#000000" opacity="1.00" d=" M 128.38 10.88 C 132.47 9.98 137.25 8.22 141.00 10.98 C 145.49 13.24 149.31 16.66 152.42 20.57 C 161.04 33.10 169.56 46.99 168.88 62.85 C 168.09 72.34 167.75 82.04 165.13 91.25 C 162.33 97.07 158.85 102.69 154.33 107.35 C 150.43 111.36 145.04 113.22 139.93 115.15 C 140.18 123.12 139.77 131.22 141.36 139.09 C 138.68 139.35 136.01 139.63 133.35 139.99 C 134.79 131.76 135.73 123.45 136.16 115.10 C 128.10 112.07 117.50 109.87 113.97 101.01 C 105.97 78.71 109.10 54.36 116.12 32.26 C 118.55 23.23 125.97 16.82 132.95 11.13 C 131.42 11.05 129.90 10.97 128.38 10.88 M 134.54 10.12 C 134.68 10.44 134.96 11.09 135.10 11.41 C 137.69 12.03 135.94 7.93 134.54 10.12 M 138.24 11.63 C 134.94 11.60 131.97 13.42 129.60 15.57 C 124.17 20.36 119.06 26.13 117.13 33.26 C 112.66 48.70 108.71 64.84 110.83 81.01 C 112.00 89.21 112.69 98.30 118.03 105.01 C 123.18 109.26 129.53 111.76 135.93 113.47 C 136.43 107.42 136.81 101.37 137.09 95.31 C 129.08 92.81 120.79 90.72 113.71 86.04 C 121.42 88.77 128.96 91.98 136.88 94.13 C 137.27 87.30 137.86 80.48 138.02 73.63 C 129.72 71.92 121.53 69.30 114.43 64.57 C 122.16 67.42 129.85 70.40 137.79 72.66 C 138.31 65.43 138.82 58.21 139.19 50.97 C 133.24 46.90 125.86 45.22 120.57 40.15 C 126.38 42.88 132.31 45.37 137.90 48.55 C 136.84 41.15 137.98 33.74 138.86 26.40 C 141.36 33.56 141.33 41.24 142.83 48.62 C 149.20 45.98 154.40 41.33 160.41 38.04 C 155.45 43.14 148.84 46.05 143.27 50.34 C 142.71 57.26 142.92 64.22 142.92 71.16 C 149.30 66.82 155.81 62.49 163.12 59.89 C 156.68 64.15 149.50 67.48 143.73 72.67 C 141.65 79.31 142.66 86.67 141.97 93.56 C 149.58 91.55 156.82 88.38 164.38 86.22 C 156.96 90.07 149.14 93.20 141.03 95.26 C 141.04 101.32 141.08 107.38 141.11 113.44 C 152.49 110.13 159.84 99.94 164.38 89.57 C 166.63 80.79 167.16 71.68 167.77 62.67 C 168.06 51.43 163.65 40.74 157.76 31.40 C 153.13 23.39 147.59 14.54 138.24 11.63 Z" />
<path fill="#000000" opacity="1.00" d=" M 32.68 16.70 C 41.79 13.42 51.65 11.60 61.35 12.65 C 67.15 14.30 72.58 18.00 75.61 23.31 C 83.90 39.74 86.38 59.08 82.45 77.07 C 83.27 76.74 84.09 76.42 84.91 76.10 C 78.58 84.80 74.04 94.77 66.73 102.76 C 63.75 107.06 58.45 108.20 53.94 110.12 C 54.01 119.67 54.59 129.19 55.00 138.72 C 51.87 139.89 48.76 141.11 45.64 142.33 C 49.38 132.37 50.08 121.50 49.32 110.96 C 41.99 111.09 34.63 112.04 27.30 111.55 C 20.91 109.49 20.11 100.80 20.40 95.16 C 21.31 87.54 19.63 79.95 16.53 73.03 C 16.53 60.30 17.27 47.44 20.14 35.00 C 21.65 27.65 25.98 20.38 32.68 16.70 M 34.34 17.42 C 30.15 19.30 27.43 23.27 24.19 26.34 C 30.04 31.10 36.81 34.77 44.20 36.41 C 36.34 37.36 29.81 32.15 23.70 28.01 C 20.93 34.16 20.08 40.91 19.81 47.60 C 27.93 55.20 38.53 58.68 48.88 62.07 C 49.61 54.60 50.11 47.10 50.03 39.59 C 47.90 38.86 45.79 38.11 43.68 37.34 C 45.60 37.49 47.51 37.67 49.43 37.86 C 49.65 30.27 50.10 22.67 50.90 15.11 C 54.62 21.10 52.53 28.63 53.39 35.25 C 61.05 32.47 68.65 29.46 75.83 25.58 C 71.62 19.88 66.13 14.49 58.87 13.26 C 50.53 13.05 42.22 14.80 34.34 17.42 M 51.12 20.54 C 48.82 23.96 55.07 21.31 51.12 20.54 M 53.32 36.47 C 53.47 44.78 53.04 53.08 53.08 61.39 C 62.76 55.94 72.73 50.96 81.97 44.77 C 80.33 38.78 78.09 32.98 75.91 27.17 C 68.57 30.70 61.04 33.84 53.32 36.47 M 53.15 63.16 C 54.20 70.44 54.63 77.80 55.12 85.14 L 55.69 84.96 C 62.62 82.65 69.82 81.20 76.65 78.59 C 79.06 77.49 82.24 76.52 81.97 72.97 C 84.04 64.18 82.66 55.06 82.19 46.15 C 73.10 52.77 62.74 57.35 53.15 63.16 M 19.00 48.87 C 18.29 56.77 17.59 64.72 18.33 72.64 C 19.22 75.64 22.83 76.32 25.08 77.97 C 32.67 82.49 41.43 84.29 50.06 85.61 C 49.45 78.33 48.89 71.04 48.59 63.74 C 38.12 60.17 27.77 55.74 19.00 48.87 M 20.21 77.02 C 21.80 84.85 22.68 92.86 21.93 100.85 C 22.42 104.37 23.79 109.20 27.66 110.18 C 34.66 110.82 41.68 110.04 48.68 109.92 C 49.51 102.13 49.95 94.31 50.23 86.50 C 39.53 85.78 29.45 82.27 20.21 77.02 M 55.69 84.96 C 55.20 92.76 55.07 100.58 54.95 108.40 C 68.17 104.60 74.38 90.60 80.04 79.27 C 71.99 81.44 64.04 84.07 55.69 84.96 Z" />
</g>
<g id="#00e436ff">
<path fill="#00e436" opacity="1.00" d=" M 138.24 11.63 C 147.59 14.54 153.13 23.39 157.76 31.40 C 163.65 40.74 168.06 51.43 167.77 62.67 C 167.16 71.68 166.63 80.79 164.38 89.57 C 159.84 99.94 152.49 110.13 141.11 113.44 C 141.08 107.38 141.04 101.32 141.03 95.26 C 149.14 93.20 156.96 90.07 164.38 86.22 C 156.82 88.38 149.58 91.55 141.97 93.56 C 142.66 86.67 141.65 79.31 143.73 72.67 C 149.50 67.48 156.68 64.15 163.12 59.89 C 155.81 62.49 149.30 66.82 142.92 71.16 C 142.92 64.22 142.71 57.26 143.27 50.34 C 148.84 46.05 155.45 43.14 160.41 38.04 C 154.40 41.33 149.20 45.98 142.83 48.62 C 141.33 41.24 141.36 33.56 138.86 26.40 C 137.98 33.74 136.84 41.15 137.90 48.55 C 132.31 45.37 126.38 42.88 120.57 40.15 C 125.86 45.22 133.24 46.90 139.19 50.97 C 138.82 58.21 138.31 65.43 137.79 72.66 C 129.85 70.40 122.16 67.42 114.43 64.57 C 121.53 69.30 129.72 71.92 138.02 73.63 C 137.86 80.48 137.27 87.30 136.88 94.13 C 128.96 91.98 121.42 88.77 113.71 86.04 C 120.79 90.72 129.08 92.81 137.09 95.31 C 136.81 101.37 136.43 107.42 135.93 113.47 C 129.53 111.76 123.18 109.26 118.03 105.01 C 112.69 98.30 112.00 89.21 110.83 81.01 C 108.71 64.84 112.66 48.70 117.13 33.26 C 119.06 26.13 124.17 20.36 129.60 15.57 C 131.97 13.42 134.94 11.60 138.24 11.63 Z" />
<path fill="#00e436" opacity="1.00" d=" M 34.34 17.42 C 42.22 14.80 50.53 13.05 58.87 13.26 C 66.13 14.49 71.62 19.88 75.83 25.58 C 68.65 29.46 61.05 32.47 53.39 35.25 C 52.53 28.63 54.62 21.10 50.90 15.11 C 50.10 22.67 49.65 30.27 49.43 37.86 C 47.51 37.67 45.60 37.49 43.68 37.34 C 45.79 38.11 47.90 38.86 50.03 39.59 C 50.11 47.10 49.61 54.60 48.88 62.07 C 38.53 58.68 27.93 55.20 19.81 47.60 C 20.08 40.91 20.93 34.16 23.70 28.01 C 29.81 32.15 36.34 37.36 44.20 36.41 C 36.81 34.77 30.04 31.10 24.19 26.34 C 27.43 23.27 30.15 19.30 34.34 17.42 Z" />
<path fill="#00e436" opacity="1.00" d=" M 53.32 36.47 C 61.04 33.84 68.57 30.70 75.91 27.17 C 78.09 32.98 80.33 38.78 81.97 44.77 C 72.73 50.96 62.76 55.94 53.08 61.39 C 53.04 53.08 53.47 44.78 53.32 36.47 Z" />
<path fill="#00e436" opacity="1.00" d=" M 53.15 63.16 C 62.74 57.35 73.10 52.77 82.19 46.15 C 82.66 55.06 84.04 64.18 81.97 72.97 C 82.24 76.52 79.06 77.49 76.65 78.59 C 69.82 81.20 62.62 82.65 55.69 84.96 L 55.12 85.14 C 54.63 77.80 54.20 70.44 53.15 63.16 Z" />
<path fill="#00e436" opacity="1.00" d=" M 19.00 48.87 C 27.77 55.74 38.12 60.17 48.59 63.74 C 48.89 71.04 49.45 78.33 50.06 85.61 C 41.43 84.29 32.67 82.49 25.08 77.97 C 22.83 76.32 19.22 75.64 18.33 72.64 C 17.59 64.72 18.29 56.77 19.00 48.87 Z" />
<path fill="#00e436" opacity="1.00" d=" M 20.21 77.02 C 29.45 82.27 39.53 85.78 50.23 86.50 C 49.95 94.31 49.51 102.13 48.68 109.92 C 41.68 110.04 34.66 110.82 27.66 110.18 C 23.79 109.20 22.42 104.37 21.93 100.85 C 22.68 92.86 21.80 84.85 20.21 77.02 Z" />
<path fill="#00e436" opacity="1.00" d=" M 55.69 84.96 C 64.04 84.07 71.99 81.44 80.04 79.27 C 74.38 90.60 68.17 104.60 54.95 108.40 C 55.07 100.58 55.20 92.76 55.69 84.96 Z" />
</g>
</svg>
