<?xml version="1.0" encoding="UTF-8" ?>
<!DOCTYPE svg PUBLIC "-//W3C//DTD SVG 1.1//EN" "http://www.w3.org/Graphics/SVG/1.1/DTD/svg11.dtd">
<svg width="120pt" height="120pt" viewBox="0 0 120 120" version="1.1" xmlns="http://www.w3.org/2000/svg">
<g id="#1a1423ec">
<path fill="#1a1423" opacity="0.93" d=" M 36.38 30.84 C 36.95 24.82 35.22 18.16 38.98 12.92 C 41.54 17.50 43.92 22.18 46.07 26.97 C 53.68 26.99 61.30 27.00 68.92 27.00 C 68.74 22.38 68.40 17.75 68.71 13.12 C 73.50 14.89 77.16 18.45 79.93 22.67 C 78.59 27.73 75.50 32.49 75.42 37.85 C 76.80 49.91 82.03 61.12 83.56 73.16 C 84.97 80.09 78.45 86.13 72.01 86.91 C 59.23 90.03 44.79 91.89 32.79 85.16 C 29.48 83.24 29.03 78.84 29.80 75.44 C 31.75 60.54 34.83 45.80 36.38 30.84 M 69.38 15.50 C 69.57 19.67 69.82 23.83 70.03 27.99 C 61.70 28.00 53.37 27.99 45.05 27.97 C 43.11 23.89 41.15 19.81 39.10 15.78 C 40.06 20.44 41.07 25.08 42.12 29.71 C 40.71 25.58 38.99 21.56 37.10 17.63 C 37.32 22.67 37.76 27.69 38.43 32.69 C 38.21 32.89 37.76 33.29 37.54 33.49 C 34.45 47.39 33.86 61.75 30.68 75.65 C 29.64 79.33 31.58 83.38 35.08 84.89 C 47.74 91.23 62.69 88.54 75.61 84.49 C 80.61 81.87 84.88 75.81 81.93 70.03 C 78.93 57.74 75.12 45.64 73.62 33.04 C 75.14 30.79 77.11 28.63 77.66 25.89 C 77.41 22.77 76.06 19.85 75.29 16.85 C 74.47 17.01 72.83 17.35 72.01 17.52 C 72.18 21.61 72.08 25.73 72.60 29.80 C 71.17 25.16 71.61 20.20 71.24 15.42 C 70.77 15.44 69.84 15.48 69.38 15.50 Z" />
</g>
<g id="#feae33ff">
<path fill="#feae33" opacity="1.00" d=" M 69.38 15.50 C 69.84 15.48 70.77 15.44 71.24 15.42 C 71.61 20.20 71.17 25.16 72.60 29.80 C 72.91 30.89 73.28 31.96 73.62 33.04 C 75.12 45.64 78.93 57.74 81.93 70.03 C 84.88 75.81 80.61 81.87 75.61 84.49 C 62.69 88.54 47.74 91.23 35.08 84.89 C 31.58 83.38 29.64 79.33 30.68 75.65 C 33.86 61.75 34.45 47.39 37.54 33.49 C 37.76 33.29 38.21 32.89 38.43 32.69 C 39.68 31.81 40.97 30.99 42.25 30.17 C 42.22 30.05 42.15 29.83 42.12 29.71 C 41.07 25.08 40.06 20.44 39.10 15.78 C 41.15 19.81 43.11 23.89 45.05 27.97 C 53.37 27.99 61.70 28.00 70.03 27.99 C 69.82 23.83 69.57 19.67 69.38 15.50 M 65.03 38.80 C 68.10 39.14 71.17 39.45 74.25 39.73 C 73.06 37.49 72.25 35.03 70.71 32.99 C 67.24 32.41 66.43 36.52 65.03 38.80 M 40.66 33.04 C 39.93 34.68 39.20 36.33 38.47 37.97 C 40.59 38.91 42.76 39.77 45.05 40.15 C 47.02 36.54 45.53 33.16 40.66 33.04 M 50.25 69.89 C 51.62 73.85 57.56 72.42 60.29 73.95 C 64.56 62.36 66.04 49.82 63.43 37.67 C 63.66 46.15 63.37 54.63 62.59 63.07 C 58.68 62.59 54.15 63.45 50.74 61.25 C 45.54 54.57 47.95 45.48 47.12 37.64 C 45.11 48.45 47.28 59.48 50.25 69.89 M 49.31 47.19 C 50.80 50.95 52.54 54.60 54.25 58.27 C 58.94 56.52 61.28 52.13 61.11 47.11 C 58.16 47.13 52.26 47.17 49.31 47.19 Z" />
</g>
<g id="#f6757aff">
<path fill="#f6757a" opacity="1.00" d=" M 72.01 17.52 C 72.83 17.35 74.47 17.01 75.29 16.85 C 76.06 19.85 77.41 22.77 77.66 25.89 C 77.11 28.63 75.14 30.79 73.62 33.04 C 73.28 31.96 72.91 30.89 72.60 29.80 C 72.08 25.73 72.18 21.61 72.01 17.52 Z" />
<path fill="#f6757a" opacity="1.00" d=" M 53.88 64.07 C 55.59 64.03 57.30 64.00 59.01 63.98 C 59.00 65.33 58.99 66.68 58.99 68.03 C 57.70 67.99 56.41 67.95 55.13 67.91 C 54.71 66.63 54.29 65.35 53.88 64.07 Z" />
</g>
<g id="#f6747aff">
<path fill="#f6747a" opacity="1.00" d=" M 37.10 17.63 C 38.99 21.56 40.71 25.58 42.12 29.71 C 42.15 29.83 42.22 30.05 42.25 30.17 C 40.97 30.99 39.68 31.81 38.43 32.69 C 37.76 27.69 37.32 22.67 37.10 17.63 Z" />
</g>
<g id="#201c2cfe">
<path fill="#201c2c" opacity="1.00" d=" M 65.03 38.80 C 66.43 36.52 67.24 32.41 70.71 32.99 C 72.25 35.03 73.06 37.49 74.25 39.73 C 71.17 39.45 68.10 39.14 65.03 38.80 M 66.61 37.56 C 67.97 37.18 69.33 36.79 70.70 36.43 C 70.18 37.32 69.66 38.22 69.14 39.11 C 69.96 39.01 71.60 38.83 72.42 38.74 C 71.58 37.03 70.73 35.33 69.87 33.64 C 68.78 34.94 67.69 36.24 66.61 37.56 Z" />
</g>
<g id="#181424ff">
<path fill="#181424" opacity="1.00" d=" M 40.66 33.04 C 45.53 33.16 47.02 36.54 45.05 40.15 C 42.76 39.77 40.59 38.91 38.47 37.97 C 39.20 36.33 39.93 34.68 40.66 33.04 M 40.84 34.84 C 41.20 36.29 41.56 37.73 41.93 39.18 C 42.57 39.00 43.84 38.65 44.48 38.48 C 44.65 37.84 45.00 36.57 45.18 35.93 C 43.73 35.56 42.29 35.20 40.84 34.84 Z" />
</g>
<g id="#edeceeff">
<path fill="#edecee" opacity="1.00" d=" M 66.61 37.56 C 67.69 36.24 68.78 34.94 69.87 33.64 C 70.73 35.33 71.58 37.03 72.42 38.74 C 71.60 38.83 69.96 39.01 69.14 39.11 C 69.66 38.22 70.18 37.32 70.70 36.43 C 69.33 36.79 67.97 37.18 66.61 37.56 Z" />
</g>
<g id="#b7b6bbff">
<path fill="#b7b6bb" opacity="1.00" d=" M 40.84 34.84 C 42.29 35.20 43.73 35.56 45.18 35.93 C 45.00 36.57 44.65 37.84 44.48 38.48 C 43.84 38.65 42.57 39.00 41.93 39.18 C 41.56 37.73 41.20 36.29 40.84 34.84 Z" />
</g>
<g id="#1b1625ff">
<path fill="#1b1625" opacity="1.00" d=" M 50.25 69.89 C 47.28 59.48 45.11 48.45 47.12 37.64 C 47.95 45.48 45.54 54.57 50.74 61.25 C 54.15 63.45 58.68 62.59 62.59 63.07 C 63.37 54.63 63.66 46.15 63.43 37.67 C 66.04 49.82 64.56 62.36 60.29 73.95 C 57.56 72.42 51.62 73.85 50.25 69.89 M 49.58 62.68 C 49.98 68.05 52.86 73.01 59.08 73.06 C 60.18 69.97 61.15 66.83 61.89 63.64 C 61.20 65.19 59.81 68.28 59.12 69.83 C 55.47 68.09 52.60 65.28 49.58 62.68 M 53.88 64.07 C 54.29 65.35 54.71 66.63 55.13 67.91 C 56.41 67.95 57.70 67.99 58.99 68.03 C 58.99 66.68 59.00 65.33 59.01 63.98 C 57.30 64.00 55.59 64.03 53.88 64.07 Z" />
</g>
<g id="#181425ff">
<path fill="#181425" opacity="1.00" d=" M 49.31 47.19 C 52.26 47.17 58.16 47.13 61.11 47.11 C 61.28 52.13 58.94 56.52 54.25 58.27 C 52.54 54.60 50.80 50.95 49.31 47.19 M 51.27 48.31 C 52.82 51.29 54.53 54.18 56.42 56.96 C 57.76 54.11 58.83 51.13 59.79 48.13 C 57.66 48.18 53.40 48.26 51.27 48.31 Z" />
</g>
<g id="#3f2831ff">
<path fill="#3f2831" opacity="1.00" d=" M 51.27 48.31 C 53.40 48.26 57.66 48.18 59.79 48.13 C 58.83 51.13 57.76 54.11 56.42 56.96 C 54.53 54.18 52.82 51.29 51.27 48.31 Z" />
</g>
<g id="#3a4365ff">
<path fill="#3a4365" opacity="1.00" d=" M 49.58 62.68 C 52.60 65.28 55.47 68.09 59.12 69.83 C 59.81 68.28 61.20 65.19 61.89 63.64 C 61.15 66.83 60.18 69.97 59.08 73.06 C 52.86 73.01 49.98 68.05 49.58 62.68 Z" />
</g>
</svg>
