<?xml version="1.0" encoding="UTF-8" ?>
<!DOCTYPE svg PUBLIC "-//W3C//DTD SVG 1.1//EN" "http://www.w3.org/Graphics/SVG/1.1/DTD/svg11.dtd">
<svg width="239pt" height="79pt" viewBox="0 0 239 79" version="1.1" xmlns="http://www.w3.org/2000/svg">
<g id="#60656975">
<path fill="#606569" opacity="0.46" d=" M 81.57 0.00 L 96.22 0.00 L 97.46 0.85 C 93.47 0.85 89.48 0.91 85.52 1.42 C 84.58 1.15 83.65 0.88 82.72 0.60 L 81.57 0.00 Z" />
</g>
<g id="#19202c66">
<path fill="#19202c" opacity="0.40" d=" M 96.22 0.00 L 111.55 0.00 L 110.49 0.90 C 106.15 1.08 101.80 1.11 97.46 0.85 L 96.22 0.00 Z" />
</g>
<g id="#0509114d">
<path fill="#050911" opacity="0.30" d=" M 111.55 0.00 L 141.12 0.00 L 141.29 1.26 C 139.06 1.19 136.82 1.20 134.59 1.14 C 134.02 1.12 132.87 1.09 132.30 1.07 C 125.03 0.89 117.76 1.09 110.49 0.90 L 111.55 0.00 Z" />
</g>
<g id="#fefffdff">
<path fill="#fefffd" opacity="1.00" d=" M 74.70 7.94 C 76.43 4.59 79.22 2.02 82.72 0.60 C 83.65 0.88 84.58 1.15 85.52 1.42 C 85.90 1.72 86.65 2.31 87.02 2.61 C 102.04 1.60 117.11 1.81 132.16 1.51 C 132.58 11.15 134.26 20.68 134.68 30.31 C 132.74 30.29 130.79 30.31 128.85 30.25 C 123.10 30.04 117.37 29.15 111.61 29.46 C 97.73 29.29 83.85 29.47 69.98 29.73 C 69.66 29.56 69.02 29.23 68.70 29.06 C 69.80 28.92 70.88 28.72 71.98 28.55 C 75.26 28.46 78.55 28.62 81.83 28.68 C 82.76 27.53 83.56 26.21 85.00 25.62 C 84.92 26.49 84.75 28.21 84.67 29.08 L 87.70 28.21 C 85.16 22.83 87.27 16.58 86.40 10.85 C 86.30 8.49 86.40 6.13 86.74 3.79 C 85.50 3.69 84.27 3.60 83.03 3.54 C 83.76 3.38 85.22 3.05 85.95 2.89 C 85.12 2.43 84.30 1.96 83.48 1.50 C 80.61 2.89 78.07 4.88 76.37 7.60 L 74.70 7.94 M 91.69 3.42 C 90.38 3.34 89.07 3.34 87.75 3.43 C 87.83 8.44 87.67 13.46 87.82 18.47 C 87.68 21.37 87.54 24.29 88.06 27.15 L 87.78 28.56 C 93.03 28.49 98.29 28.69 103.55 28.48 C 104.77 28.77 106.02 28.87 107.28 28.77 C 116.21 28.46 125.10 30.04 134.04 29.52 C 133.84 28.10 133.64 26.67 133.45 25.24 C 132.70 25.31 131.21 25.45 130.46 25.52 C 131.38 24.81 132.42 24.38 133.58 24.22 C 133.41 23.31 133.08 21.48 132.92 20.56 C 132.21 16.90 132.20 13.15 131.72 9.46 C 132.06 8.22 131.55 6.92 130.96 5.84 C 131.95 4.31 131.74 3.25 130.31 2.66 C 129.05 2.47 127.80 2.48 126.56 2.68 C 116.00 2.48 105.43 2.78 94.87 2.61 C 93.79 2.81 92.73 3.08 91.69 3.42 Z" />
<path fill="#fefffd" opacity="1.00" d=" M 77.04 9.48 C 78.52 7.06 80.36 4.70 83.03 3.54 C 81.22 5.98 78.93 8.06 77.48 10.76 L 77.04 9.48 Z" />
<path fill="#fefffd" opacity="1.00" d=" M 204.11 6.98 C 205.50 7.15 206.89 7.34 208.29 7.52 C 211.33 12.69 213.70 18.22 216.83 23.34 L 216.98 23.69 C 217.60 26.61 218.69 29.38 220.01 32.04 C 217.61 32.15 215.21 32.05 212.84 31.65 C 214.49 31.27 216.15 30.91 217.82 30.55 C 215.09 25.63 211.37 21.36 208.53 16.51 C 206.87 13.42 205.75 10.08 204.11 6.98 Z" />
<path fill="#fefffd" opacity="1.00" d=" M 73.33 14.45 C 74.57 12.80 75.82 11.15 77.04 9.48 C 76.71 12.06 74.92 14.05 73.59 16.17 L 73.25 15.83 C 73.27 15.49 73.31 14.80 73.33 14.45 Z" />
<path fill="#fefffd" opacity="1.00" d=" M 71.31 17.01 C 71.79 16.71 72.76 16.13 73.25 15.83 C 73.12 17.97 71.94 20.28 69.83 21.03 C 70.09 19.61 70.85 18.36 71.31 17.01 Z" />
<path fill="#fefffd" opacity="1.00" d=" M 170.60 18.98 C 172.41 17.29 174.05 19.85 175.53 20.64 C 175.08 20.82 174.18 21.20 173.73 21.39 C 172.67 20.60 171.63 19.80 170.60 18.98 Z" />
<path fill="#fefffd" opacity="1.00" d=" M 68.10 22.60 C 68.53 22.21 69.40 21.42 69.83 21.03 L 70.25 21.51 C 69.05 23.00 68.00 24.63 67.51 26.50 C 66.61 27.02 65.69 27.47 64.78 27.96 C 65.42 27.41 66.69 26.32 67.33 25.77 C 67.06 25.22 66.53 24.12 66.27 23.57 C 66.52 23.38 67.03 23.01 67.28 22.83 L 67.77 22.90 L 68.10 22.60 Z" />
<path fill="#fefffd" opacity="1.00" d=" M 61.83 33.60 C 62.69 33.64 63.54 33.65 64.40 33.62 C 64.84 33.44 65.71 33.09 66.15 32.91 C 66.66 33.11 67.68 33.49 68.19 33.69 C 66.48 34.04 64.76 34.29 63.03 34.47 C 62.73 34.26 62.13 33.82 61.83 33.60 Z" />
<path fill="#fefffd" opacity="1.00" d=" M 124.96 38.10 C 127.45 37.41 130.03 37.09 132.62 37.09 C 133.89 37.12 135.16 37.14 136.43 37.16 C 136.42 37.61 136.43 38.05 136.45 38.50 C 132.62 38.49 128.79 38.31 124.96 38.10 Z" />
<path fill="#fefffd" opacity="1.00" d=" M 218.72 37.42 C 220.35 37.38 221.97 37.38 223.61 37.42 C 223.88 37.42 224.43 37.43 224.70 37.43 C 226.04 38.19 227.66 38.26 229.14 37.91 C 231.47 38.12 233.71 38.82 235.71 40.05 C 235.38 41.52 235.26 43.01 235.34 44.51 L 235.18 43.85 C 234.36 42.03 234.67 38.79 232.04 38.60 C 229.29 38.27 226.51 38.53 223.74 38.31 C 222.06 38.07 220.38 37.76 218.72 37.42 Z" />
</g>
<g id="#1d1f1fff">
<path fill="#1d1f1f" opacity="1.00" d=" M 85.52 1.42 C 89.48 0.91 93.47 0.85 97.46 0.85 C 101.80 1.11 106.15 1.08 110.49 0.90 C 117.76 1.09 125.03 0.89 132.30 1.07 L 132.16 1.51 C 117.11 1.81 102.04 1.60 87.02 2.61 C 86.65 2.31 85.90 1.72 85.52 1.42 Z" />
<path fill="#1d1f1f" opacity="1.00" d=" M 76.37 7.60 C 78.07 4.88 80.61 2.89 83.48 1.50 C 84.30 1.96 85.12 2.43 85.95 2.89 C 85.22 3.05 83.76 3.38 83.03 3.54 C 80.36 4.70 78.52 7.06 77.04 9.48 C 75.82 11.15 74.57 12.80 73.33 14.45 C 72.96 11.81 75.27 9.81 76.37 7.60 Z" />
<path fill="#1d1f1f" opacity="1.00" d=" M 130.31 2.66 C 131.74 3.25 131.95 4.31 130.96 5.84 C 130.24 4.86 130.03 3.80 130.31 2.66 Z" />
<path fill="#1d1f1f" opacity="1.00" d=" M 83.03 3.54 C 84.27 3.60 85.50 3.69 86.74 3.79 C 86.40 6.13 86.30 8.49 86.40 10.85 L 85.58 11.32 C 85.73 9.05 85.73 6.77 85.71 4.49 C 80.72 5.18 78.18 10.71 76.34 14.88 C 76.26 15.00 76.11 15.25 76.03 15.37 C 75.03 16.53 74.11 17.74 73.26 19.01 C 73.13 19.19 72.87 19.56 72.73 19.74 C 73.84 20.12 74.96 20.48 76.07 20.83 C 75.26 20.68 73.62 20.39 72.81 20.24 C 72.21 21.22 71.63 22.20 70.99 23.15 C 69.91 24.34 68.73 25.45 67.51 26.50 C 68.00 24.63 69.05 23.00 70.25 21.51 L 69.83 21.03 C 71.94 20.28 73.12 17.97 73.25 15.83 L 73.59 16.17 C 74.92 14.05 76.71 12.06 77.04 9.48 L 77.48 10.76 C 78.93 8.06 81.22 5.98 83.03 3.54 Z" />
<path fill="#1d1f1f" opacity="1.00" d=" M 177.90 4.58 C 180.00 4.31 182.10 4.02 184.20 3.77 C 186.86 3.89 190.82 2.81 192.07 6.02 C 195.45 12.97 199.01 19.87 201.98 27.01 C 202.03 27.94 202.15 29.80 202.20 30.74 C 201.23 29.85 200.63 28.66 200.31 27.39 C 198.91 22.96 196.54 18.94 194.64 14.72 C 193.55 11.25 191.84 8.01 189.84 4.98 C 185.86 4.74 181.88 4.61 177.90 4.58 Z" />
<path fill="#1d1f1f" opacity="1.00" d=" M 123.05 22.22 C 123.50 22.23 124.41 22.24 124.86 22.24 C 124.99 22.78 125.25 23.86 125.39 24.40 C 126.33 24.09 127.28 23.78 128.23 23.48 C 127.45 25.03 126.65 26.57 125.88 28.12 C 127.43 27.29 128.95 26.42 130.46 25.52 C 131.21 25.45 132.70 25.31 133.45 25.24 C 133.64 26.67 133.84 28.10 134.04 29.52 C 125.10 30.04 116.21 28.46 107.28 28.77 C 107.63 27.38 108.03 25.99 108.48 24.63 C 110.15 24.53 111.82 24.39 113.50 24.30 C 113.63 24.99 113.90 26.37 114.04 27.06 C 114.48 26.84 115.36 26.40 115.80 26.18 C 116.23 25.98 117.08 25.59 117.50 25.40 C 118.83 26.10 120.23 26.67 121.69 27.05 C 121.68 25.76 121.67 24.47 121.64 23.18 C 121.99 22.94 122.70 22.46 123.05 22.22 Z" />
<path fill="#1d1f1f" opacity="1.00" d=" M 88.06 27.15 C 93.17 25.56 98.54 27.31 103.55 28.48 C 98.29 28.69 93.03 28.49 87.78 28.56 L 88.06 27.15 Z" />
</g>
<g id="#1a3755ff">
<path fill="#1a3755" opacity="1.00" d=" M 132.30 1.07 C 132.87 1.09 134.02 1.12 134.59 1.14 C 134.69 10.92 136.26 20.64 137.09 30.39 C 136.49 30.37 135.29 30.33 134.68 30.31 C 134.26 20.68 132.58 11.15 132.16 1.51 L 132.30 1.07 Z" />
<path fill="#1a3755" opacity="1.00" d=" M 124.96 38.10 C 128.79 38.31 132.62 38.49 136.45 38.50 C 136.50 38.86 136.59 39.58 136.64 39.94 C 132.80 39.72 127.91 41.27 124.96 38.10 Z" />
<path fill="#1a3755" opacity="1.00" d=" M 230.65 65.97 C 231.58 62.57 231.15 58.57 233.62 55.77 C 233.75 61.43 231.97 66.81 229.75 71.94 C 221.83 73.49 213.78 74.27 205.74 74.76 C 205.17 73.62 204.60 72.49 204.05 71.35 C 207.54 68.68 206.84 64.16 205.14 60.68 C 206.45 59.78 207.65 58.39 209.38 58.43 C 212.40 58.10 214.85 60.23 217.28 61.68 C 218.50 61.51 219.71 61.33 220.94 61.17 C 223.47 63.02 226.41 64.28 229.61 63.65 C 229.95 64.42 230.30 65.19 230.65 65.97 Z" />
</g>
<g id="#beb9b8ff">
<path fill="#beb9b8" opacity="1.00" d=" M 134.59 1.14 C 136.82 1.20 139.06 1.19 141.29 1.26 L 141.44 1.27 C 155.28 2.29 169.18 1.83 183.05 2.06 C 186.17 2.22 189.52 2.01 192.31 3.69 C 195.23 8.27 196.96 13.47 199.71 18.15 C 199.97 18.69 200.48 19.78 200.74 20.32 C 201.58 23.30 203.19 26.00 203.99 28.99 C 203.11 31.35 200.67 33.17 198.08 32.83 C 177.82 30.76 157.39 31.86 137.09 30.39 C 136.26 20.64 134.69 10.92 134.59 1.14 M 136.03 2.56 L 135.87 4.03 C 135.99 5.52 136.43 6.96 137.33 8.17 C 136.54 10.23 136.59 12.85 137.51 14.87 C 137.28 16.60 137.90 18.31 138.24 19.99 L 138.30 20.31 C 138.28 23.13 137.21 26.69 139.06 29.09 L 139.94 29.09 C 141.44 28.24 140.68 26.25 141.00 24.89 C 143.85 24.22 143.19 26.87 142.33 28.54 C 150.21 29.67 158.40 28.24 166.19 30.17 C 166.63 30.08 167.52 29.89 167.96 29.80 C 173.25 30.73 178.58 29.85 183.90 30.05 C 189.24 31.02 194.76 30.10 200.04 31.45 C 200.08 30.95 200.16 29.96 200.19 29.46 C 199.45 24.17 195.87 19.86 194.64 14.72 C 196.54 18.94 198.91 22.96 200.31 27.39 C 200.63 28.66 201.23 29.85 202.20 30.74 C 202.15 29.80 202.03 27.94 201.98 27.01 C 199.01 19.87 195.45 12.97 192.07 6.02 C 190.82 2.81 186.86 3.89 184.20 3.77 C 182.20 3.11 180.09 3.22 178.02 3.19 C 168.38 2.91 158.73 2.89 149.08 2.85 C 144.73 2.64 140.38 2.70 136.03 2.56 Z" />
<path fill="#beb9b8" opacity="1.00" d=" M 3.23 49.08 C 4.37 51.37 6.76 53.55 5.54 56.31 C 4.29 54.08 3.61 51.60 3.23 49.08 Z" />
</g>
<g id="#303546ff">
<path fill="#303546" opacity="1.00" d=" M 141.44 1.27 C 143.30 1.03 145.16 0.78 147.04 0.77 C 161.58 0.76 176.12 1.22 190.66 1.04 C 195.32 1.35 199.98 1.74 204.63 2.11 C 200.92 4.86 196.20 1.67 192.31 3.69 C 189.52 2.01 186.17 2.22 183.05 2.06 C 169.18 1.83 155.28 2.29 141.44 1.27 Z" />
</g>
<g id="#dee8e8ff">
<path fill="#dee8e8" opacity="1.00" d=" M 190.66 1.04 C 196.24 1.33 202.02 0.27 207.47 1.66 L 206.51 1.80 C 206.04 1.88 205.10 2.03 204.63 2.11 C 199.98 1.74 195.32 1.35 190.66 1.04 Z" />
<path fill="#dee8e8" opacity="1.00" d=" M 198.81 4.59 C 201.49 4.39 204.25 3.96 206.87 4.78 C 207.33 5.70 207.80 6.62 208.29 7.52 C 206.89 7.34 205.50 7.15 204.11 6.98 C 205.75 10.08 206.87 13.42 208.53 16.51 C 211.37 21.36 215.09 25.63 217.82 30.55 C 216.15 30.91 214.49 31.27 212.84 31.65 C 215.21 32.05 217.61 32.15 220.01 32.04 C 218.69 29.38 217.60 26.61 216.98 23.69 C 218.69 26.93 220.14 30.29 221.64 33.64 C 220.97 33.20 220.26 32.92 219.49 32.80 C 216.47 32.79 213.44 33.04 210.42 32.73 C 208.74 30.77 207.78 28.33 206.71 26.01 C 203.69 19.31 200.45 12.71 197.27 6.09 C 197.65 5.72 198.42 4.97 198.81 4.59 Z" />
<path fill="#dee8e8" opacity="1.00" d=" M 76.03 15.37 C 76.11 15.25 76.26 15.00 76.34 14.88 L 76.22 15.16 L 76.03 15.37 Z" />
<path fill="#dee8e8" opacity="1.00" d=" M 70.99 23.15 C 71.63 22.20 72.21 21.22 72.81 20.24 C 73.62 20.39 75.26 20.68 76.07 20.83 C 76.28 20.88 76.70 20.98 76.91 21.04 C 75.48 21.94 74.05 22.84 72.61 23.73 C 72.21 23.59 71.40 23.29 70.99 23.15 Z" />
<path fill="#dee8e8" opacity="1.00" d=" M 5.11 36.49 C 19.02 34.25 33.10 33.57 47.17 33.16 C 37.47 34.16 27.71 34.30 18.05 35.62 C 13.07 36.39 7.86 36.52 3.17 38.51 C 2.92 38.76 2.41 39.24 2.16 39.48 C 1.76 40.93 1.63 42.43 1.84 43.92 C 1.49 43.21 0.79 41.78 0.44 41.07 L 0.00 41.96 L 0.00 39.89 L 0.01 41.49 C 1.60 39.79 2.67 37.17 5.11 36.49 Z" />
</g>
<g id="#3d5b83ff">
<path fill="#3d5b83" opacity="1.00" d=" M 204.63 2.11 C 205.10 2.03 206.04 1.88 206.51 1.80 C 206.60 2.55 206.78 4.04 206.87 4.78 C 204.25 3.96 201.49 4.39 198.81 4.59 C 198.42 4.97 197.65 5.72 197.27 6.09 C 200.45 12.71 203.69 19.31 206.71 26.01 C 205.78 25.42 204.86 24.82 203.94 24.22 C 204.57 26.69 206.37 29.85 203.89 31.88 C 201.81 34.64 198.08 34.25 195.03 34.67 C 199.08 34.71 203.16 34.57 207.16 35.38 C 205.36 35.80 203.55 36.19 201.73 36.49 C 188.18 35.67 174.55 36.21 161.07 34.48 C 152.72 34.33 144.36 34.34 136.02 34.01 C 135.70 33.71 135.08 33.11 134.76 32.81 C 132.71 33.05 130.66 33.27 128.59 33.30 C 128.69 32.29 128.78 31.27 128.85 30.25 C 130.79 30.31 132.74 30.29 134.68 30.31 C 135.29 30.33 136.49 30.37 137.09 30.39 C 157.39 31.86 177.82 30.76 198.08 32.83 C 200.67 33.17 203.11 31.35 203.99 28.99 C 203.19 26.00 201.58 23.30 200.74 20.32 C 200.68 19.87 200.57 18.96 200.51 18.50 L 199.71 18.15 C 196.96 13.47 195.23 8.27 192.31 3.69 C 196.20 1.67 200.92 4.86 204.63 2.11 Z" />
</g>
<g id="#484953ff">
<path fill="#484953" opacity="1.00" d=" M 206.51 1.80 L 207.47 1.66 C 210.38 8.97 214.24 15.90 216.83 23.34 C 213.70 18.22 211.33 12.69 208.29 7.52 C 207.80 6.62 207.33 5.70 206.87 4.78 C 206.78 4.04 206.60 2.55 206.51 1.80 Z" />
<path fill="#484953" opacity="1.00" d=" M 59.82 32.88 C 62.05 29.82 63.74 26.39 66.27 23.57 C 66.53 24.12 67.06 25.22 67.33 25.77 C 66.69 26.32 65.42 27.41 64.78 27.96 C 65.69 27.47 66.61 27.02 67.51 26.50 C 68.73 25.45 69.91 24.34 70.99 23.15 C 71.40 23.29 72.21 23.59 72.61 23.73 C 72.94 23.87 73.61 24.14 73.95 24.28 C 72.06 25.15 70.95 26.48 71.98 28.55 C 70.88 28.72 69.80 28.92 68.70 29.06 C 69.02 29.23 69.66 29.56 69.98 29.73 C 71.62 30.66 73.25 31.72 75.14 32.07 C 72.14 32.10 69.02 31.88 66.15 32.91 C 65.71 33.09 64.84 33.44 64.40 33.62 C 63.54 33.65 62.69 33.64 61.83 33.60 C 61.33 33.42 60.33 33.06 59.82 32.88 M 66.28 29.27 C 66.77 29.72 66.77 29.72 66.28 29.27 Z" />
</g>
<g id="#6b6d6fff">
<path fill="#6b6d6f" opacity="1.00" d=" M 91.69 3.42 C 92.73 3.08 93.79 2.81 94.87 2.61 C 105.43 2.78 116.00 2.48 126.56 2.68 C 126.20 3.08 125.49 3.89 125.13 4.29 C 123.15 4.38 121.17 4.35 119.19 4.32 C 119.20 6.38 119.18 8.45 119.33 10.51 C 119.79 11.36 120.26 12.21 120.75 13.05 C 116.63 13.48 112.30 14.95 108.33 13.06 C 110.52 12.14 114.43 12.36 114.43 9.12 C 114.79 7.48 114.34 5.82 114.11 4.20 C 112.05 4.20 109.99 4.18 107.93 4.10 C 107.20 4.07 105.73 4.01 104.99 3.97 C 103.37 3.91 101.85 4.42 100.37 5.01 C 100.61 7.18 100.79 9.35 100.83 11.53 C 100.41 13.68 100.11 15.86 99.88 18.05 C 99.43 18.26 98.53 18.69 98.08 18.90 C 98.24 16.98 98.43 15.06 98.66 13.14 C 99.07 10.41 99.19 7.63 98.99 4.87 C 97.78 4.75 96.58 4.60 95.38 4.44 C 94.15 4.11 92.92 3.78 91.69 3.42 Z" />
</g>
<g id="#9d9f9dff">
<path fill="#9d9f9d" opacity="1.00" d=" M 126.56 2.68 C 127.80 2.48 129.05 2.47 130.31 2.66 C 130.03 3.80 130.24 4.86 130.96 5.84 C 131.55 6.92 132.06 8.22 131.72 9.46 C 130.70 12.68 130.33 16.06 130.80 19.41 C 128.68 19.33 126.55 19.24 124.43 19.10 C 125.47 17.10 127.47 16.10 129.40 15.16 C 129.56 14.62 129.89 13.53 130.06 12.99 C 128.39 13.96 126.75 14.97 125.13 16.02 C 125.15 14.70 125.15 13.39 125.16 12.07 C 125.14 9.48 125.06 6.88 125.13 4.29 C 125.49 3.89 126.20 3.08 126.56 2.68 Z" />
</g>
<g id="#4c4d54ff">
<path fill="#4c4d54" opacity="1.00" d=" M 136.03 2.56 C 140.38 2.70 144.73 2.64 149.08 2.85 L 149.02 4.06 C 144.63 4.13 140.25 4.09 135.87 4.03 L 136.03 2.56 Z" />
</g>
<g id="#585e68ff">
<path fill="#585e68" opacity="1.00" d=" M 149.08 2.85 C 158.73 2.89 168.38 2.91 178.02 3.19 C 180.09 3.22 182.20 3.11 184.20 3.77 C 182.10 4.02 180.00 4.31 177.90 4.58 C 181.88 4.61 185.86 4.74 189.84 4.98 C 191.84 8.01 193.55 11.25 194.64 14.72 C 195.87 19.86 199.45 24.17 200.19 29.46 C 200.16 29.96 200.08 30.95 200.04 31.45 C 194.76 30.10 189.24 31.02 183.90 30.05 C 184.15 28.52 184.40 26.98 184.64 25.45 C 182.57 24.80 180.46 24.32 178.35 23.81 C 177.89 23.32 176.95 22.33 176.48 21.83 C 179.08 21.73 181.68 21.74 184.28 21.80 C 184.25 21.13 184.18 19.77 184.15 19.10 C 182.60 15.18 181.19 11.20 179.54 7.33 C 179.14 5.99 177.76 5.56 176.57 5.19 C 172.81 4.05 168.84 4.12 164.96 4.01 L 163.61 3.97 C 161.59 3.92 159.57 3.90 157.55 3.90 L 156.65 3.91 C 154.10 3.94 151.56 4.02 149.02 4.06 L 149.08 2.85 Z" />
</g>
<g id="#646871ff">
<path fill="#646871" opacity="1.00" d=" M 87.75 3.43 C 89.07 3.34 90.38 3.34 91.69 3.42 C 92.92 3.78 94.15 4.11 95.38 4.44 C 92.78 8.83 89.59 12.99 88.49 18.09 L 87.82 18.47 C 87.67 13.46 87.83 8.44 87.75 3.43 Z" />
</g>
<g id="#949d7eff">
<path fill="#949d7e" opacity="1.00" d=" M 100.37 5.01 C 101.85 4.42 103.37 3.91 104.99 3.97 C 104.45 6.93 103.96 9.89 103.50 12.86 C 102.85 12.94 101.56 13.10 100.91 13.17 L 100.83 11.53 C 100.79 9.35 100.61 7.18 100.37 5.01 Z" />
</g>
<g id="#7d8c72ff">
<path fill="#7d8c72" opacity="1.00" d=" M 104.99 3.97 C 105.73 4.01 107.20 4.07 107.93 4.10 C 107.54 4.39 106.75 4.96 106.35 5.25 C 106.10 8.04 105.99 10.84 106.01 13.64 C 106.78 13.45 107.56 13.26 108.33 13.06 C 112.30 14.95 116.63 13.48 120.75 13.05 C 120.26 12.21 119.79 11.36 119.33 10.51 C 121.35 10.71 123.28 11.32 125.16 12.07 C 125.15 13.39 125.15 14.70 125.13 16.02 C 126.75 14.97 128.39 13.96 130.06 12.99 C 129.89 13.53 129.56 14.62 129.40 15.16 C 127.47 16.10 125.47 17.10 124.43 19.10 C 126.55 19.24 128.68 19.33 130.80 19.41 C 130.33 16.06 130.70 12.68 131.72 9.46 C 132.20 13.15 132.21 16.90 132.92 20.56 C 126.05 19.50 119.09 21.08 112.22 20.45 C 108.60 19.22 104.74 19.20 101.01 19.98 C 101.01 17.71 101.03 15.44 100.91 13.17 C 101.56 13.10 102.85 12.94 103.50 12.86 C 103.96 9.89 104.45 6.93 104.99 3.97 Z" />
</g>
<g id="#959c7dff">
<path fill="#959c7d" opacity="1.00" d=" M 107.93 4.10 C 109.99 4.18 112.05 4.20 114.11 4.20 C 114.34 5.82 114.79 7.48 114.43 9.12 C 114.43 12.36 110.52 12.14 108.33 13.06 C 107.56 13.26 106.78 13.45 106.01 13.64 C 105.99 10.84 106.10 8.04 106.35 5.25 C 106.75 4.96 107.54 4.39 107.93 4.10 Z" />
</g>
<g id="#98a281ff">
<path fill="#98a281" opacity="1.00" d=" M 119.19 4.32 C 121.17 4.35 123.15 4.38 125.13 4.29 C 125.06 6.88 125.14 9.48 125.16 12.07 C 123.28 11.32 121.35 10.71 119.33 10.51 C 119.18 8.45 119.20 6.38 119.19 4.32 Z" />
</g>
<g id="#9aa592ff">
<path fill="#9aa592" opacity="1.00" d=" M 135.87 4.03 C 140.25 4.09 144.63 4.13 149.02 4.06 C 151.56 4.02 154.10 3.94 156.65 3.91 C 156.88 6.05 157.10 8.19 157.24 10.34 C 153.66 11.09 149.93 11.36 146.37 10.30 C 143.76 9.42 141.08 10.43 138.43 10.09 C 138.15 9.61 137.61 8.65 137.33 8.17 C 136.43 6.96 135.99 5.52 135.87 4.03 Z" />
</g>
<g id="#626569ff">
<path fill="#626569" opacity="1.00" d=" M 156.65 3.91 L 157.55 3.90 C 158.32 8.92 158.68 13.99 158.92 19.05 C 158.98 19.52 159.09 20.44 159.15 20.91 C 161.13 21.05 163.12 21.11 165.10 21.17 C 165.41 23.20 165.73 25.24 165.99 27.28 C 162.12 27.76 158.14 28.40 154.31 27.38 C 152.46 26.88 150.55 26.69 148.64 26.71 C 148.56 26.36 148.39 25.68 148.30 25.33 C 145.34 24.50 142.27 23.95 139.20 24.49 C 138.90 23.10 138.59 21.70 138.30 20.31 L 138.24 19.99 C 138.75 20.06 139.77 20.20 140.27 20.27 C 140.31 19.48 140.38 17.89 140.42 17.10 C 140.69 18.07 140.97 19.05 141.24 20.02 C 146.85 20.77 152.53 20.73 158.18 20.67 L 157.84 19.13 C 157.41 16.22 157.40 13.27 157.24 10.34 C 157.10 8.19 156.88 6.05 156.65 3.91 Z" />
</g>
<g id="#909b84ff">
<path fill="#909b84" opacity="1.00" d=" M 157.55 3.90 C 159.57 3.90 161.59 3.92 163.61 3.97 C 163.83 9.36 164.69 14.69 165.12 20.06 C 163.05 19.73 160.99 19.39 158.92 19.05 C 158.68 13.99 158.32 8.92 157.55 3.90 Z" />
</g>
<g id="#bdc1c0ff">
<path fill="#bdc1c0" opacity="1.00" d=" M 163.61 3.97 L 164.96 4.01 C 166.38 9.19 166.69 14.60 167.27 19.93 C 167.19 23.24 168.12 26.90 166.30 29.91 C 166.22 29.25 166.06 27.94 165.99 27.28 C 165.73 25.24 165.41 23.20 165.10 21.17 C 163.12 21.11 161.13 21.05 159.15 20.91 C 159.09 20.44 158.98 19.52 158.92 19.05 C 160.99 19.39 163.05 19.73 165.12 20.06 C 164.69 14.69 163.83 9.36 163.61 3.97 Z" />
</g>
<g id="#8a9981ff">
<path fill="#8a9981" opacity="1.00" d=" M 164.96 4.01 C 168.84 4.12 172.81 4.05 176.57 5.19 C 177.76 5.56 179.14 5.99 179.54 7.33 C 181.19 11.20 182.60 15.18 184.15 19.10 C 181.24 19.36 178.26 19.50 175.53 20.64 C 174.05 19.85 172.41 17.29 170.60 18.98 C 169.89 19.28 169.18 19.56 168.47 19.84 C 168.52 23.13 170.21 26.93 167.96 29.80 C 167.52 29.89 166.63 30.08 166.19 30.17 L 166.30 29.91 C 168.12 26.90 167.19 23.24 167.27 19.93 C 166.69 14.60 166.38 9.19 164.96 4.01 Z" />
</g>
<g id="#88987dff">
<path fill="#88987d" opacity="1.00" d=" M 76.34 14.88 C 78.18 10.71 80.72 5.18 85.71 4.49 C 85.73 6.77 85.73 9.05 85.58 11.32 C 84.37 12.88 83.24 14.50 82.14 16.14 C 80.61 15.40 79.08 14.68 77.52 14.02 C 78.41 15.74 79.74 17.13 81.37 18.17 C 80.81 18.30 79.68 18.56 79.12 18.69 C 78.57 18.40 78.02 18.11 77.46 17.82 C 76.16 18.52 74.71 18.81 73.26 19.01 C 74.11 17.74 75.03 16.53 76.03 15.37 L 76.22 15.16 L 76.34 14.88 Z" />
</g>
<g id="#919873ff">
<path fill="#919873" opacity="1.00" d=" M 95.38 4.44 C 96.58 4.60 97.78 4.75 98.99 4.87 C 99.19 7.63 99.07 10.41 98.66 13.14 C 97.73 11.75 96.66 11.48 95.43 12.34 C 92.71 13.77 91.44 17.01 88.49 18.09 C 89.59 12.99 92.78 8.83 95.38 4.44 Z" />
</g>
<g id="#44709dff">
<path fill="#44709d" opacity="1.00" d=" M 74.70 7.94 L 76.37 7.60 C 75.27 9.81 72.96 11.81 73.33 14.45 C 71.84 13.81 70.61 15.74 71.31 17.01 C 70.80 17.22 69.80 17.66 69.30 17.88 C 69.24 17.41 69.14 16.48 69.09 16.01 C 70.88 13.26 72.80 10.61 74.70 7.94 Z" />
<path fill="#44709d" opacity="1.00" d=" M 219.49 32.80 C 220.26 32.92 220.97 33.20 221.64 33.64 C 222.30 34.90 222.95 36.16 223.61 37.42 C 221.97 37.38 220.35 37.38 218.72 37.42 C 220.38 37.76 222.06 38.07 223.74 38.31 C 219.57 39.34 215.28 39.26 211.02 39.34 C 195.14 40.17 179.26 39.16 163.40 38.35 C 155.47 38.68 147.64 36.38 139.72 37.47 C 138.80 36.64 137.89 35.80 136.99 34.94 C 136.75 34.71 136.26 34.25 136.02 34.01 C 144.36 34.34 152.72 34.33 161.07 34.48 C 174.55 36.21 188.18 35.67 201.73 36.49 C 207.27 36.94 212.83 36.87 218.38 36.78 C 216.45 35.58 214.48 34.44 212.51 33.31 C 214.84 33.18 217.16 32.94 219.49 32.80 Z" />
</g>
<g id="#727c70ff">
<path fill="#727c70" opacity="1.00" d=" M 137.33 8.17 C 137.61 8.65 138.15 9.61 138.43 10.09 C 138.51 11.74 137.88 13.29 137.51 14.87 C 136.59 12.85 136.54 10.23 137.33 8.17 Z" />
</g>
<g id="#8a9884ff">
<path fill="#8a9884" opacity="1.00" d=" M 138.43 10.09 C 141.08 10.43 143.76 9.42 146.37 10.30 C 149.93 11.36 153.66 11.09 157.24 10.34 C 157.40 13.27 157.41 16.22 157.84 19.13 C 152.35 19.40 146.44 17.94 141.24 20.02 C 140.97 19.05 140.69 18.07 140.42 17.10 C 140.38 17.89 140.31 19.48 140.27 20.27 C 139.77 20.20 138.75 20.06 138.24 19.99 C 137.90 18.31 137.28 16.60 137.51 14.87 C 137.88 13.29 138.51 11.74 138.43 10.09 Z" />
</g>
<g id="#5a5c63ff">
<path fill="#5a5c63" opacity="1.00" d=" M 85.58 11.32 L 86.40 10.85 C 87.27 16.58 85.16 22.83 87.70 28.21 L 84.67 29.08 C 84.75 28.21 84.92 26.49 85.00 25.62 C 83.65 25.36 82.30 25.12 80.95 24.88 C 81.77 23.09 82.52 21.26 83.18 19.41 C 82.73 19.10 81.82 18.48 81.37 18.17 C 79.74 17.13 78.41 15.74 77.52 14.02 C 79.08 14.68 80.61 15.40 82.14 16.14 C 83.24 14.50 84.37 12.88 85.58 11.32 Z" />
</g>
<g id="#55575bff">
<path fill="#55575b" opacity="1.00" d=" M 95.43 12.34 C 96.66 11.48 97.73 11.75 98.66 13.14 C 98.43 15.06 98.24 16.98 98.08 18.90 C 98.53 18.69 99.43 18.26 99.88 18.05 C 100.11 15.86 100.41 13.68 100.83 11.53 L 100.91 13.17 C 101.03 15.44 101.01 17.71 101.01 19.98 C 100.43 20.14 99.27 20.47 98.70 20.63 C 102.21 21.62 104.45 25.73 108.48 24.63 C 108.03 25.99 107.63 27.38 107.28 28.77 C 106.02 28.87 104.77 28.77 103.55 28.48 C 98.54 27.31 93.17 25.56 88.06 27.15 C 87.54 24.29 87.68 21.37 87.82 18.47 L 88.49 18.09 C 91.44 17.01 92.71 13.77 95.43 12.34 Z" />
</g>
<g id="#4a79a7ff">
<path fill="#4a79a7" opacity="1.00" d=" M 57.63 31.86 C 61.46 26.59 65.33 21.34 69.09 16.01 C 69.14 16.48 69.24 17.41 69.30 17.88 C 68.76 19.41 68.17 20.96 68.10 22.60 L 67.66 22.50 L 67.28 22.83 C 67.03 23.01 66.52 23.38 66.27 23.57 C 63.74 26.39 62.05 29.82 59.82 32.88 C 60.33 33.06 61.33 33.42 61.83 33.60 C 62.13 33.82 62.73 34.26 63.03 34.47 C 62.12 34.83 60.30 35.55 59.39 35.91 C 59.44 35.43 59.55 34.46 59.61 33.98 C 59.05 34.93 58.50 35.88 58.00 36.87 C 52.41 35.58 46.66 36.73 41.00 36.83 C 33.62 37.75 26.20 36.00 18.86 37.28 C 13.64 37.82 8.44 39.62 3.17 38.51 C 7.86 36.52 13.07 36.39 18.05 35.62 C 27.71 34.30 37.47 34.16 47.17 33.16 C 50.68 33.02 54.20 32.66 57.63 31.86 Z" />
</g>
<g id="#686a72ff">
<path fill="#686a72" opacity="1.00" d=" M 77.46 17.82 C 78.02 18.11 78.57 18.40 79.12 18.69 C 79.68 18.56 80.81 18.30 81.37 18.17 C 81.82 18.48 82.73 19.10 83.18 19.41 C 82.52 21.26 81.77 23.09 80.95 24.88 C 82.30 25.12 83.65 25.36 85.00 25.62 C 83.56 26.21 82.76 27.53 81.83 28.68 C 78.55 28.62 75.26 28.46 71.98 28.55 C 70.95 26.48 72.06 25.15 73.95 24.28 C 73.61 24.14 72.94 23.87 72.61 23.73 C 74.05 22.84 75.48 21.94 76.91 21.04 C 76.70 20.98 76.28 20.88 76.07 20.83 C 74.96 20.48 73.84 20.12 72.73 19.74 C 72.87 19.56 73.13 19.19 73.26 19.01 C 74.71 18.81 76.16 18.52 77.46 17.82 Z" />
</g>
<g id="#263048ff">
<path fill="#263048" opacity="1.00" d=" M 199.71 18.15 L 200.51 18.50 C 200.57 18.96 200.68 19.87 200.74 20.32 C 200.48 19.78 199.97 18.69 199.71 18.15 Z" />
</g>
<g id="#5e626cff">
<path fill="#5e626c" opacity="1.00" d=" M 101.01 19.98 C 104.74 19.20 108.60 19.22 112.22 20.45 C 119.09 21.08 126.05 19.50 132.92 20.56 C 133.08 21.48 133.41 23.31 133.58 24.22 C 132.42 24.38 131.38 24.81 130.46 25.52 C 128.95 26.42 127.43 27.29 125.88 28.12 C 126.65 26.57 127.45 25.03 128.23 23.48 C 127.28 23.78 126.33 24.09 125.39 24.40 C 125.25 23.86 124.99 22.78 124.86 22.24 C 124.41 22.24 123.50 22.23 123.05 22.22 C 121.41 22.19 119.77 22.12 118.14 22.03 C 117.27 23.36 116.46 24.73 115.80 26.18 C 115.36 26.40 114.48 26.84 114.04 27.06 C 113.90 26.37 113.63 24.99 113.50 24.30 C 111.82 24.39 110.15 24.53 108.48 24.63 C 104.45 25.73 102.21 21.62 98.70 20.63 C 99.27 20.47 100.43 20.14 101.01 19.98 Z" />
</g>
<g id="#babdb0ff">
<path fill="#babdb0" opacity="1.00" d=" M 141.24 20.02 C 146.44 17.94 152.35 19.40 157.84 19.13 L 158.18 20.67 C 152.53 20.73 146.85 20.77 141.24 20.02 Z" />
</g>
<g id="#6a6a6dff">
<path fill="#6a6a6d" opacity="1.00" d=" M 168.47 19.84 C 169.18 19.56 169.89 19.28 170.60 18.98 C 171.63 19.80 172.67 20.60 173.73 21.39 C 175.12 22.45 176.58 23.51 178.35 23.81 C 180.46 24.32 182.57 24.80 184.64 25.45 C 184.40 26.98 184.15 28.52 183.90 30.05 C 178.58 29.85 173.25 30.73 167.96 29.80 C 170.21 26.93 168.52 23.13 168.47 19.84 Z" />
</g>
<g id="#b6b5b8ff">
<path fill="#b6b5b8" opacity="1.00" d=" M 175.53 20.64 C 178.26 19.50 181.24 19.36 184.15 19.10 C 184.18 19.77 184.25 21.13 184.28 21.80 C 181.68 21.74 179.08 21.73 176.48 21.83 C 176.95 22.33 177.89 23.32 178.35 23.81 C 176.58 23.51 175.12 22.45 173.73 21.39 C 174.18 21.20 175.08 20.82 175.53 20.64 Z" />
</g>
<g id="#57585aff">
<path fill="#57585a" opacity="1.00" d=" M 138.30 20.31 C 138.59 21.70 138.90 23.10 139.20 24.49 C 142.27 23.95 145.34 24.50 148.30 25.33 C 148.39 25.68 148.56 26.36 148.64 26.71 C 150.55 26.69 152.46 26.88 154.31 27.38 C 158.14 28.40 162.12 27.76 165.99 27.28 C 166.06 27.94 166.22 29.25 166.30 29.91 L 166.19 30.17 C 158.40 28.24 150.21 29.67 142.33 28.54 C 143.19 26.87 143.85 24.22 141.00 24.89 C 140.68 26.25 141.44 28.24 139.94 29.09 C 141.31 26.97 137.77 26.96 139.06 29.09 C 137.21 26.69 138.28 23.13 138.30 20.31 Z" />
</g>
<g id="#000008ff">
<path fill="#000008" opacity="1.00" d=" M 67.66 22.50 L 68.10 22.60 L 67.77 22.90 L 67.28 22.83 L 67.66 22.50 Z" />
</g>
<g id="#37393cff">
<path fill="#37393c" opacity="1.00" d=" M 118.14 22.03 C 119.77 22.12 121.41 22.19 123.05 22.22 C 122.70 22.46 121.99 22.94 121.64 23.18 C 121.67 24.47 121.68 25.76 121.69 27.05 C 120.23 26.67 118.83 26.10 117.50 25.40 C 117.08 25.59 116.23 25.98 115.80 26.18 C 116.46 24.73 117.27 23.36 118.14 22.03 Z" />
</g>
<g id="#3a658aff">
<path fill="#3a658a" opacity="1.00" d=" M 203.94 24.22 C 204.86 24.82 205.78 25.42 206.71 26.01 C 207.78 28.33 208.74 30.77 210.42 32.73 L 210.78 32.84 C 211.22 32.96 212.08 33.19 212.51 33.31 C 214.48 34.44 216.45 35.58 218.38 36.78 C 212.83 36.87 207.27 36.94 201.73 36.49 C 203.55 36.19 205.36 35.80 207.16 35.38 C 203.16 34.57 199.08 34.71 195.03 34.67 C 198.08 34.25 201.81 34.64 203.89 31.88 C 206.37 29.85 204.57 26.69 203.94 24.22 Z" />
</g>
<g id="#302f3aff">
<path fill="#302f3a" opacity="1.00" d=" M 139.06 29.09 C 137.77 26.96 141.31 26.97 139.94 29.09 L 139.06 29.09 Z" />
</g>
<g id="#b4c0d2ff">
<path fill="#b4c0d2" opacity="1.00" d=" M 66.28 29.27 C 66.77 29.72 66.77 29.72 66.28 29.27 Z" />
</g>
<g id="#24456cff">
<path fill="#24456c" opacity="1.00" d=" M 69.98 29.73 C 83.85 29.47 97.73 29.29 111.61 29.46 C 109.64 31.61 106.63 31.10 104.03 31.47 C 94.48 33.02 84.77 31.74 75.14 32.07 C 73.25 31.72 71.62 30.66 69.98 29.73 Z" />
</g>
<g id="#3b628cff">
<path fill="#3b628c" opacity="1.00" d=" M 111.61 29.46 C 117.37 29.15 123.10 30.04 128.85 30.25 C 128.78 31.27 128.69 32.29 128.59 33.30 C 109.29 33.08 89.96 31.87 70.68 33.06 C 73.07 36.60 77.51 35.13 81.05 35.14 C 96.70 34.57 112.37 35.14 128.02 35.63 C 129.72 35.49 131.17 36.34 132.62 37.09 C 130.03 37.09 127.45 37.41 124.96 38.10 C 127.91 41.27 132.80 39.72 136.64 39.94 C 136.59 39.58 136.50 38.86 136.45 38.50 C 136.43 38.05 136.42 37.61 136.43 37.16 C 136.57 36.61 136.85 35.50 136.99 34.94 C 137.89 35.80 138.80 36.64 139.72 37.47 C 147.64 36.38 155.47 38.68 163.40 38.35 C 179.26 39.16 195.14 40.17 211.02 39.34 C 215.28 39.26 219.57 39.34 223.74 38.31 C 226.51 38.53 229.29 38.27 232.04 38.60 C 234.67 38.79 234.36 42.03 235.18 43.85 C 227.58 45.55 219.59 43.76 212.10 46.09 C 209.50 46.76 206.78 46.38 204.14 46.29 C 198.79 45.57 193.42 45.10 188.10 44.17 C 181.42 43.09 174.67 43.82 167.97 44.14 C 160.28 43.85 152.60 43.35 144.96 42.54 C 142.49 42.30 140.02 41.55 137.54 42.02 C 135.22 41.35 132.81 41.04 130.41 41.44 C 124.62 42.20 118.83 41.12 113.03 41.37 C 104.99 41.75 96.96 40.74 88.93 41.30 C 82.59 41.70 76.18 40.76 69.90 41.99 C 65.79 42.91 61.61 41.73 57.47 41.78 C 57.78 39.73 58.43 37.75 59.39 35.91 C 60.30 35.55 62.12 34.83 63.03 34.47 C 64.76 34.29 66.48 34.04 68.19 33.69 C 67.68 33.49 66.66 33.11 66.15 32.91 C 69.02 31.88 72.14 32.10 75.14 32.07 C 84.77 31.74 94.48 33.02 104.03 31.47 C 106.63 31.10 109.64 31.61 111.61 29.46 Z" />
</g>
<g id="#5176a3ff">
<path fill="#5176a3" opacity="1.00" d=" M 128.59 33.30 C 130.66 33.27 132.71 33.05 134.76 32.81 C 135.08 33.11 135.70 33.71 136.02 34.01 C 136.26 34.25 136.75 34.71 136.99 34.94 C 136.85 35.50 136.57 36.61 136.43 37.16 C 135.16 37.14 133.89 37.12 132.62 37.09 C 131.17 36.34 129.72 35.49 128.02 35.63 C 112.37 35.14 96.70 34.57 81.05 35.14 C 77.51 35.13 73.07 36.60 70.68 33.06 C 89.96 31.87 109.29 33.08 128.59 33.30 Z" />
</g>
<g id="#193858ff">
<path fill="#193858" opacity="1.00" d=" M 58.00 36.87 C 58.50 35.88 59.05 34.93 59.61 33.98 C 59.55 34.46 59.44 35.43 59.39 35.91 C 58.43 37.75 57.78 39.73 57.47 41.78 C 61.61 41.73 65.79 42.91 69.90 41.99 C 76.18 40.76 82.59 41.70 88.93 41.30 C 96.96 40.74 104.99 41.75 113.03 41.37 C 118.83 41.12 124.62 42.20 130.41 41.44 C 132.81 41.04 135.22 41.35 137.54 42.02 C 140.02 41.55 142.49 42.30 144.96 42.54 C 152.60 43.35 160.28 43.85 167.97 44.14 C 174.67 43.82 181.42 43.09 188.10 44.17 C 193.42 45.10 198.79 45.57 204.14 46.29 C 203.96 46.85 203.60 47.98 203.43 48.55 C 198.50 49.02 193.51 48.82 188.68 50.05 C 182.95 49.97 174.41 48.67 171.76 55.28 C 168.71 58.16 164.78 60.65 163.75 65.00 C 162.46 69.24 160.55 73.32 157.38 76.49 C 145.03 76.88 132.69 77.41 120.34 77.77 C 109.56 77.44 98.77 77.78 87.99 77.29 C 77.59 77.34 67.19 76.51 56.81 77.12 C 53.71 75.17 52.36 71.74 51.12 68.48 C 51.85 66.77 52.84 65.20 54.00 63.74 C 54.53 64.87 55.07 65.99 55.59 67.13 C 55.94 60.23 55.86 53.31 55.53 46.41 C 49.03 45.92 42.53 47.09 36.04 46.33 C 30.88 45.67 25.36 47.28 20.50 44.97 C 32.11 43.89 43.96 45.11 55.36 42.22 C 56.97 40.93 57.15 38.64 58.00 36.87 Z" />
</g>
<g id="#376492ff">
<path fill="#376492" opacity="1.00" d=" M 18.86 37.28 C 26.20 36.00 33.62 37.75 41.00 36.83 C 46.66 36.73 52.41 35.58 58.00 36.87 C 57.15 38.64 56.97 40.93 55.36 42.22 C 43.96 45.11 32.11 43.89 20.50 44.97 C 18.22 44.77 15.93 44.65 13.64 44.55 C 13.24 44.09 12.45 43.18 12.05 42.73 C 9.34 45.14 5.86 44.46 2.76 43.34 C 2.61 42.37 2.31 40.45 2.16 39.48 C 2.41 39.24 2.92 38.76 3.17 38.51 C 8.44 39.62 13.64 37.82 18.86 37.28 Z" />
</g>
<g id="#3e42228b">
<path fill="#3e4222" opacity="0.55" d=" M 224.70 37.43 C 226.07 36.39 228.06 36.50 229.14 37.91 C 227.66 38.26 226.04 38.19 224.70 37.43 Z" />
</g>
<g id="#1d3e60ff">
<path fill="#1d3e60" opacity="1.00" d=" M 1.84 43.92 C 1.63 42.43 1.76 40.93 2.16 39.48 C 2.31 40.45 2.61 42.37 2.76 43.34 C 5.86 44.46 9.34 45.14 12.05 42.73 C 12.45 43.18 13.24 44.09 13.64 44.55 C 15.93 44.65 18.22 44.77 20.50 44.97 C 25.36 47.28 30.88 45.67 36.04 46.33 C 42.53 47.09 49.03 45.92 55.53 46.41 C 55.86 53.31 55.94 60.23 55.59 67.13 C 55.07 65.99 54.53 64.87 54.00 63.74 C 52.84 65.20 51.85 66.77 51.12 68.48 C 47.84 57.86 35.78 51.69 25.16 54.34 C 20.83 55.41 18.54 59.59 15.57 62.52 C 15.46 65.74 15.43 68.96 15.37 72.19 C 14.78 72.07 13.60 71.83 13.01 71.71 C 9.87 69.75 8.47 66.14 7.01 62.92 C 6.60 61.42 6.27 59.90 5.89 58.40 C 5.73 58.15 5.42 57.64 5.26 57.39 C 4.41 57.55 2.72 57.88 1.87 58.04 C 3.08 57.43 4.31 56.87 5.54 56.31 C 6.76 53.55 4.37 51.37 3.23 49.08 C 2.88 47.33 2.45 45.60 1.84 43.92 Z" />
<path fill="#1d3e60" opacity="1.00" d=" M 212.10 46.09 C 219.59 43.76 227.58 45.55 235.18 43.85 L 235.34 44.51 C 235.33 44.92 235.31 45.73 235.30 46.14 C 234.06 49.20 233.97 52.53 233.62 55.77 C 231.15 58.57 231.58 62.57 230.65 65.97 C 230.30 65.19 229.95 64.42 229.61 63.65 C 226.41 64.28 223.47 63.02 220.94 61.17 C 219.71 61.33 218.50 61.51 217.28 61.68 C 214.85 60.23 212.40 58.10 209.38 58.43 C 207.65 58.39 206.45 59.78 205.14 60.68 C 206.84 64.16 207.54 68.68 204.05 71.35 C 201.45 65.83 198.92 59.91 193.84 56.17 C 195.32 56.55 196.82 56.83 198.33 57.09 C 197.07 52.76 192.37 51.52 188.68 50.05 C 193.51 48.82 198.50 49.02 203.43 48.55 C 203.60 47.98 203.96 46.85 204.14 46.29 C 206.78 46.38 209.50 46.76 212.10 46.09 Z" />
</g>
<g id="#d49f87e8">
<path fill="#d49f87" opacity="0.91" d=" M 235.71 40.05 C 235.99 40.18 236.56 40.44 236.84 40.57 C 236.92 41.94 236.91 43.99 235.34 44.51 C 235.26 43.01 235.38 41.52 235.71 40.05 Z" />
</g>
<g id="#57010eff">
<path fill="#57010e" opacity="1.00" d=" M 235.34 44.51 C 236.91 43.99 236.92 41.94 236.84 40.57 L 238.49 41.28 C 237.62 43.44 237.30 45.92 238.34 48.08 C 237.90 50.29 237.59 52.54 237.40 54.79 C 236.88 54.62 235.84 54.27 235.32 54.09 C 235.37 51.44 235.49 48.79 235.30 46.14 C 235.31 45.73 235.33 44.92 235.34 44.51 Z" />
</g>
<g id="#1312107a">
<path fill="#131210" opacity="0.48" d=" M 238.49 41.28 L 239.00 41.50 L 239.00 47.74 L 238.34 48.08 C 237.30 45.92 237.62 43.44 238.49 41.28 Z" />
</g>
<g id="#757777ff">
<path fill="#757777" opacity="1.00" d=" M 233.62 55.77 C 233.97 52.53 234.06 49.20 235.30 46.14 C 235.49 48.79 235.37 51.44 235.32 54.09 C 235.84 54.27 236.88 54.62 237.40 54.79 C 237.02 59.96 237.08 65.14 237.16 70.32 C 234.70 70.92 232.22 71.44 229.75 71.94 C 231.97 66.81 233.75 61.43 233.62 55.77 Z" />
</g>
<g id="#3e6590ff">
<path fill="#3e6590" opacity="1.00" d=" M 171.76 55.28 C 174.41 48.67 182.95 49.97 188.68 50.05 C 192.37 51.52 197.07 52.76 198.33 57.09 C 196.82 56.83 195.32 56.55 193.84 56.17 C 186.89 52.86 178.97 52.85 171.76 55.28 Z" />
</g>
<g id="#bbbec3ff">
<path fill="#bbbec3" opacity="1.00" d=" M 1.87 58.04 C 2.72 57.88 4.41 57.55 5.26 57.39 C 5.42 57.64 5.73 58.15 5.89 58.40 C 4.54 58.80 3.18 58.85 1.81 58.54 L 1.87 58.04 Z" />
</g>
<g id="#82887fff">
<path fill="#82887f" opacity="1.00" d=" M 1.81 58.54 C 3.18 58.85 4.54 58.80 5.89 58.40 C 6.27 59.90 6.60 61.42 7.01 62.92 C 6.31 64.35 5.65 65.80 5.03 67.26 C 4.44 66.52 3.84 65.80 3.23 65.10 C 2.70 62.92 2.17 60.75 1.81 58.54 Z" />
</g>
<g id="#6a6f6dff">
<path fill="#6a6f6d" opacity="1.00" d=" M 7.01 62.92 C 8.47 66.14 9.87 69.75 13.01 71.71 C 10.37 71.17 7.78 70.42 5.13 69.99 C 5.10 69.31 5.05 67.94 5.03 67.26 C 5.65 65.80 6.31 64.35 7.01 62.92 Z" />
</g>
<g id="#2627249e">
<path fill="#262724" opacity="0.62" d=" M 3.23 65.10 C 3.84 65.80 4.44 66.52 5.03 67.26 C 5.05 67.94 5.10 69.31 5.13 69.99 L 4.53 69.90 C 3.08 68.72 3.24 66.76 3.23 65.10 Z" />
</g>
<g id="#0d1a28ba">
<path fill="#0d1a28" opacity="0.73" d=" M 56.81 77.12 C 67.19 76.51 77.59 77.34 87.99 77.29 C 98.77 77.78 109.56 77.44 120.34 77.77 C 116.26 78.00 112.18 78.28 108.09 78.19 C 91.00 77.79 73.88 78.07 56.81 77.12 Z" />
</g>
</svg>
