<?xml version="1.0" encoding="UTF-8" ?>
<!DOCTYPE svg PUBLIC "-//W3C//DTD SVG 1.1//EN" "http://www.w3.org/Graphics/SVG/1.1/DTD/svg11.dtd">
<svg width="120pt" height="120pt" viewBox="0 0 120 120" version="1.1" xmlns="http://www.w3.org/2000/svg">
<g id="#010301ff">
<path fill="#010301" opacity="1.00" d=" M 33.13 25.92 C 30.28 18.95 41.33 14.62 44.61 20.45 C 48.43 24.50 47.25 30.63 43.04 33.82 C 45.46 33.61 47.88 33.40 50.31 33.20 C 46.76 36.91 43.71 41.26 39.41 44.13 C 36.10 40.77 33.04 37.15 30.21 33.38 C 33.20 33.69 36.20 34.05 39.18 34.47 C 36.52 32.10 31.97 30.57 33.13 25.92 M 33.98 23.99 C 31.52 31.32 40.16 32.68 44.91 30.78 C 44.78 27.39 44.56 23.99 43.68 20.69 C 39.99 19.42 34.31 18.78 33.98 23.99 M 40.69 42.35 C 41.09 39.13 41.10 35.88 40.94 32.65 C 40.65 35.87 40.66 39.11 40.69 42.35 M 31.65 33.66 C 33.92 35.66 36.41 37.41 39.17 38.67 C 37.30 36.17 34.59 34.58 31.65 33.66 M 42.03 37.40 C 44.18 36.38 46.19 35.10 48.11 33.71 C 45.95 34.71 43.87 35.89 42.03 37.40 Z" />
</g>
<g id="#f8e525ff">
<path fill="#f8e525" opacity="1.00" d=" M 33.98 23.99 C 34.31 18.78 39.99 19.42 43.68 20.69 C 40.75 21.33 37.82 21.94 34.90 22.61 C 35.12 24.24 35.56 27.51 35.78 29.14 C 38.82 29.69 41.87 30.23 44.91 30.78 C 40.16 32.68 31.52 31.32 33.98 23.99 Z" />
</g>
<g id="#ffa200ff">
<path fill="#ffa200" opacity="1.00" d=" M 34.90 22.61 C 37.82 21.94 40.75 21.33 43.68 20.69 C 44.04 24.06 44.48 27.42 44.91 30.78 C 41.87 30.23 38.82 29.69 35.78 29.14 C 35.56 27.51 35.12 24.24 34.90 22.61 M 35.54 26.74 C 38.04 28.05 40.78 28.78 43.44 29.69 C 42.67 26.67 41.74 23.71 40.64 20.80 C 38.61 22.46 36.52 24.22 35.54 26.74 Z" />
</g>
<g id="#0a0a09ff">
<path fill="#0a0a09" opacity="1.00" d=" M 35.54 26.74 C 36.52 24.22 38.61 22.46 40.64 20.80 C 41.74 23.71 42.67 26.67 43.44 29.69 C 40.78 28.78 38.04 28.05 35.54 26.74 M 36.70 26.03 C 38.50 26.82 40.31 27.58 42.13 28.30 C 41.42 26.44 40.68 24.58 39.94 22.73 C 38.85 23.82 37.77 24.93 36.70 26.03 Z" />
</g>
<g id="#feec27fe">
<path fill="#feec27" opacity="1.00" d=" M 43.68 20.69 C 44.56 23.99 44.78 27.39 44.91 30.78 C 44.48 27.42 44.04 24.06 43.68 20.69 Z" />
</g>
<g id="#fff0e8ff">
<path fill="#fff0e8" opacity="1.00" d=" M 36.70 26.03 C 37.77 24.93 38.85 23.82 39.94 22.73 C 40.68 24.58 41.42 26.44 42.13 28.30 C 40.31 27.58 38.50 26.82 36.70 26.03 Z" />
</g>
<g id="#008750ff">
<path fill="#008750" opacity="1.00" d=" M 40.69 42.35 C 40.66 39.11 40.65 35.87 40.94 32.65 C 41.10 35.88 41.09 39.13 40.69 42.35 Z" />
</g>
<g id="#008750fe">
<path fill="#008750" opacity="1.00" d=" M 31.65 33.66 C 34.59 34.58 37.30 36.17 39.17 38.67 C 36.41 37.41 33.92 35.66 31.65 33.66 Z" />
</g>
<g id="#008751ff">
<path fill="#008751" opacity="1.00" d=" M 42.03 37.40 C 43.87 35.89 45.95 34.71 48.11 33.71 C 46.19 35.10 44.18 36.38 42.03 37.40 Z" />
</g>
</svg>
