<?xml version="1.0" encoding="UTF-8" ?>
<!DOCTYPE svg PUBLIC "-//W3C//DTD SVG 1.1//EN" "http://www.w3.org/Graphics/SVG/1.1/DTD/svg11.dtd">
<svg width="120pt" height="120pt" viewBox="0 0 120 120" version="1.1" xmlns="http://www.w3.org/2000/svg">
<g id="#433e38b5">
<path fill="#433e38" opacity="0.71" d=" M 76.95 72.31 C 78.42 70.90 79.87 69.45 81.29 67.98 C 82.43 67.98 83.57 67.98 84.71 67.98 C 86.12 69.44 87.56 70.88 89.02 72.29 C 89.01 74.18 89.01 76.06 89.01 77.95 L 88.59 78.12 C 87.81 79.55 86.83 80.85 85.85 82.14 C 83.57 82.17 81.29 82.05 79.22 80.99 C 78.92 80.68 78.32 80.08 78.02 79.77 C 76.73 77.47 76.91 74.85 76.95 72.31 M 81.43 69.00 C 80.24 70.16 79.04 71.32 77.83 72.47 C 77.95 75.02 78.29 77.57 78.95 80.04 C 81.25 80.57 83.57 80.99 85.90 81.34 C 87.52 78.64 88.35 75.61 88.14 72.45 C 86.93 71.31 85.74 70.15 84.56 68.98 C 83.52 68.99 82.47 68.99 81.43 69.00 Z" />
</g>
<g id="#000000ff">
<path fill="#000000" opacity="1.00" d=" M 81.43 69.00 C 82.47 68.99 83.52 68.99 84.56 68.98 C 85.74 70.15 86.93 71.31 88.14 72.45 C 88.35 75.61 87.52 78.64 85.90 81.34 C 83.57 80.99 81.25 80.57 78.95 80.04 C 78.29 77.57 77.95 75.02 77.83 72.47 C 79.04 71.32 80.24 70.16 81.43 69.00 M 80.75 72.45 C 79.33 72.15 78.87 72.68 79.37 74.04 C 79.24 74.73 78.97 76.10 78.83 76.79 C 79.22 76.96 80.00 77.28 80.38 77.45 L 79.85 78.78 C 82.18 79.85 85.64 81.17 86.16 77.41 C 86.44 77.25 87.00 76.94 87.28 76.78 C 87.09 76.16 86.72 74.91 86.54 74.28 C 87.19 73.11 85.39 71.08 84.27 71.13 C 83.96 70.90 83.35 70.43 83.05 70.20 C 81.75 70.13 80.98 70.88 80.75 72.45 Z" />
<path fill="#000000" opacity="1.00" d=" M 95.04 70.00 C 97.79 70.00 100.53 70.00 103.28 70.02 C 102.87 72.14 102.36 74.24 101.82 76.34 C 99.39 75.98 97.09 75.11 94.94 73.93 C 94.98 72.62 95.01 71.31 95.04 70.00 M 96.46 70.26 C 96.31 70.96 96.02 72.35 95.87 73.04 L 97.26 73.00 C 96.67 75.13 102.70 75.82 100.69 73.02 C 101.05 72.72 101.76 72.12 102.12 71.81 C 101.59 71.77 100.51 71.69 99.98 71.65 L 98.79 71.01 C 98.34 71.09 97.45 71.25 97.00 71.33 L 96.46 70.26 Z" />
<path fill="#000000" opacity="1.00" d=" M 99.72 88.06 C 101.44 86.83 102.92 85.32 104.24 83.67 C 105.74 91.54 97.94 94.48 91.57 92.95 C 91.01 92.63 89.89 91.98 89.33 91.66 C 89.02 91.11 88.41 90.00 88.10 89.45 C 88.07 88.55 88.00 86.75 87.97 85.85 C 89.15 86.56 90.33 87.28 91.51 88.00 C 94.24 88.00 96.98 87.98 99.72 88.06 M 90.07 89.06 C 89.74 90.63 90.43 91.33 92.14 91.18 L 91.53 91.91 C 94.08 92.01 96.64 92.00 99.20 92.00 L 98.85 91.37 C 100.77 91.22 101.69 89.48 102.73 88.11 C 101.05 88.48 99.37 88.87 97.69 89.25 C 96.23 88.77 94.21 88.51 92.88 89.39 C 92.18 89.31 90.77 89.15 90.07 89.06 C 89.47 88.47 89.47 88.47 90.07 89.06 Z" />
<path fill="#000000" opacity="1.00" d=" M 91.74 105.11 C 93.15 104.34 94.02 102.07 95.76 102.20 C 94.50 107.73 84.42 106.95 80.54 104.24 C 84.24 104.92 87.99 105.14 91.74 105.11 Z" />
</g>
<g id="#504943d7">
<path fill="#504943" opacity="0.84" d=" M 93.99 69.00 C 97.33 68.99 100.66 68.99 104.00 69.00 C 104.00 70.66 104.00 72.33 104.00 74.00 L 103.00 74.04 C 103.00 74.44 103.00 75.24 103.00 75.65 C 102.65 76.03 101.94 76.80 101.59 77.19 C 100.13 76.99 98.61 77.03 97.28 76.32 C 97.04 76.22 96.57 76.04 96.34 75.95 C 95.56 75.19 94.78 74.44 93.99 73.69 C 93.98 72.13 93.99 70.56 93.99 69.00 M 95.04 70.00 C 95.01 71.31 94.98 72.62 94.94 73.93 C 97.09 75.11 99.39 75.98 101.82 76.34 C 102.36 74.24 102.87 72.14 103.28 70.02 C 100.53 70.00 97.79 70.00 95.04 70.00 Z" />
</g>
<g id="#fff1e8ff">
<path fill="#fff1e8" opacity="1.00" d=" M 80.75 72.45 C 80.98 70.88 81.75 70.13 83.05 70.20 C 83.09 70.62 83.17 71.46 83.21 71.88 C 83.03 72.34 82.67 73.25 82.50 73.71 C 82.13 73.79 81.41 73.96 81.04 74.05 C 80.97 73.65 80.83 72.85 80.75 72.45 Z" />
<path fill="#fff1e8" opacity="1.00" d=" M 97.00 71.33 C 97.45 71.25 98.34 71.09 98.79 71.01 C 98.45 72.48 97.86 72.58 97.00 71.33 Z" />
<path fill="#fff1e8" opacity="1.00" d=" M 99.98 71.65 C 100.51 71.69 101.59 71.77 102.12 71.81 C 101.59 71.77 100.51 71.69 99.98 71.65 Z" />
</g>
<g id="#ff77a8ff">
<path fill="#ff77a8" opacity="1.00" d=" M 83.05 70.20 C 83.35 70.43 83.96 70.90 84.27 71.13 L 83.91 71.90 L 83.21 71.88 C 83.17 71.46 83.09 70.62 83.05 70.20 Z" />
</g>
<g id="#ffddddff">
<path fill="#ffdddd" opacity="1.00" d=" M 84.27 71.13 C 85.39 71.08 87.19 73.11 86.54 74.28 C 85.98 74.13 84.86 73.83 84.30 73.68 C 84.20 73.23 84.01 72.35 83.91 71.90 L 84.27 71.13 Z" />
</g>
<g id="#7e2553ff">
<path fill="#7e2553" opacity="1.00" d=" M 96.46 70.26 L 97.00 71.33 C 97.86 72.58 98.45 72.48 98.79 71.01 L 99.98 71.65 C 100.51 71.69 101.59 71.77 102.12 71.81 C 101.76 72.12 101.05 72.72 100.69 73.02 C 99.54 72.96 98.40 72.95 97.26 73.00 L 95.87 73.04 C 96.02 72.35 96.31 70.96 96.46 70.26 Z" />
<path fill="#7e2553" opacity="1.00" d=" M 83.21 71.88 L 83.91 71.90 C 84.01 72.35 84.20 73.23 84.30 73.68 C 84.86 73.83 85.98 74.13 86.54 74.28 C 86.72 74.91 87.09 76.16 87.28 76.78 C 87.00 76.94 86.44 77.25 86.16 77.41 C 85.55 77.76 84.35 78.47 83.75 78.83 C 82.62 78.37 81.50 77.91 80.38 77.45 C 80.00 77.28 79.22 76.96 78.83 76.79 C 78.97 76.10 79.24 74.73 79.37 74.04 C 79.79 74.04 80.63 74.04 81.04 74.05 C 81.41 73.96 82.13 73.79 82.50 73.71 C 82.67 73.25 83.03 72.34 83.21 71.88 Z" />
<path fill="#7e2553" opacity="1.00" d=" M 90.07 89.06 C 89.47 88.47 89.47 88.47 90.07 89.06 Z" />
<path fill="#7e2553" opacity="1.00" d=" M 97.69 89.25 C 99.37 88.87 101.05 88.48 102.73 88.11 C 101.69 89.48 100.77 91.22 98.85 91.37 C 98.62 90.96 98.17 90.14 97.94 89.73 L 97.69 89.25 Z" />
<path fill="#7e2553" opacity="1.00" d=" M 90.07 89.06 C 90.77 89.15 92.18 89.31 92.88 89.39 L 93.12 89.95 C 92.88 90.26 92.39 90.87 92.14 91.18 C 90.43 91.33 89.74 90.63 90.07 89.06 Z" />
</g>
<g id="#d45c8cff">
<path fill="#d45c8c" opacity="1.00" d=" M 79.37 74.04 C 78.87 72.68 79.33 72.15 80.75 72.45 C 80.83 72.85 80.97 73.65 81.04 74.05 C 80.63 74.04 79.79 74.04 79.37 74.04 Z" />
</g>
<g id="#ff004dff">
<path fill="#ff004d" opacity="1.00" d=" M 97.26 73.00 C 98.40 72.95 99.54 72.96 100.69 73.02 C 102.70 75.82 96.67 75.13 97.26 73.00 Z" />
<path fill="#ff004d" opacity="1.00" d=" M 80.38 77.45 C 81.50 77.91 82.62 78.37 83.75 78.83 C 84.35 78.47 85.55 77.76 86.16 77.41 C 85.64 81.17 82.18 79.85 79.85 78.78 L 80.38 77.45 Z" />
<path fill="#ff004d" opacity="1.00" d=" M 93.12 89.95 C 94.71 90.11 96.40 90.25 97.94 89.73 C 98.17 90.14 98.62 90.96 98.85 91.37 L 99.20 92.00 C 96.64 92.00 94.08 92.01 91.53 91.91 L 92.14 91.18 C 92.39 90.87 92.88 90.26 93.12 89.95 Z" />
</g>
<g id="#574f48f6">
<path fill="#574f48" opacity="0.96" d=" M 101.58 85.65 C 104.17 79.37 106.25 87.54 104.59 90.59 C 103.50 92.03 102.07 93.14 100.50 94.01 C 96.37 93.77 92.00 94.79 88.14 92.87 C 85.66 89.64 87.04 82.08 91.62 86.96 C 94.19 87.00 96.76 86.99 99.33 86.99 C 99.89 86.66 101.02 85.99 101.58 85.65 M 99.72 88.06 C 96.98 87.98 94.24 88.00 91.51 88.00 C 90.33 87.28 89.15 86.56 87.97 85.85 C 88.00 86.75 88.07 88.55 88.10 89.45 C 88.41 90.00 89.02 91.11 89.33 91.66 C 89.89 91.98 91.01 92.63 91.57 92.95 C 97.94 94.48 105.74 91.54 104.24 83.67 C 102.92 85.32 101.44 86.83 99.72 88.06 Z" />
</g>
<g id="#e5c8caff">
<path fill="#e5c8ca" opacity="1.00" d=" M 92.88 89.39 C 94.21 88.51 96.23 88.77 97.69 89.25 L 97.94 89.73 C 96.40 90.25 94.71 90.11 93.12 89.95 L 92.88 89.39 Z" />
</g>
<g id="#4b443ed9">
<path fill="#4b443e" opacity="0.85" d=" M 95.38 99.69 C 95.76 100.11 96.52 100.94 96.90 101.36 C 96.94 101.97 97.01 103.18 97.04 103.79 C 95.87 104.75 94.70 105.72 93.50 106.64 C 89.84 107.40 86.07 106.86 82.36 107.02 C 81.23 105.83 80.04 104.68 78.85 103.54 C 79.21 103.15 79.93 102.36 80.29 101.97 L 81.00 102.00 L 81.05 103.00 C 81.54 103.00 82.51 103.00 83.00 103.00 L 83.02 104.00 C 86.00 103.99 88.98 103.99 91.96 104.00 L 92.00 103.00 C 92.50 103.00 93.49 103.00 93.99 103.00 C 93.99 102.60 94.00 101.80 94.00 101.39 C 94.35 100.97 95.04 100.12 95.38 99.69 M 91.74 105.11 C 87.99 105.14 84.24 104.92 80.54 104.24 C 84.42 106.95 94.50 107.73 95.76 102.20 C 94.02 102.07 93.15 104.34 91.74 105.11 Z" />
</g>
</svg>
