<?xml version="1.0" encoding="UTF-8" ?>
<!DOCTYPE svg PUBLIC "-//W3C//DTD SVG 1.1//EN" "http://www.w3.org/Graphics/SVG/1.1/DTD/svg11.dtd">
<svg width="120pt" height="120pt" viewBox="0 0 120 120" version="1.1" xmlns="http://www.w3.org/2000/svg">
<g id="#000503ff">
<path fill="#000503" opacity="1.00" d=" M 40.56 7.01 C 41.71 7.00 42.85 7.00 44.00 6.99 C 44.00 8.33 44.00 9.67 44.00 11.02 C 44.36 11.01 45.08 11.00 45.44 11.00 C 46.27 9.57 47.25 8.24 48.24 6.92 C 49.28 6.97 50.32 7.03 51.37 7.09 C 52.03 7.42 53.35 8.08 54.01 8.41 C 54.00 9.06 54.00 10.36 53.99 11.02 L 54.72 11.00 C 55.22 9.66 55.78 8.34 56.29 7.00 C 56.85 7.00 57.99 7.00 58.56 7.00 C 59.07 8.03 59.62 9.05 60.17 10.06 C 63.03 7.00 66.67 8.04 66.54 12.52 C 67.68 11.62 68.78 10.68 69.87 9.72 C 71.82 9.97 72.97 11.33 73.48 13.16 C 74.89 11.62 76.34 10.12 77.80 8.63 C 78.88 9.51 79.94 10.42 81.01 11.31 C 81.01 11.98 81.00 13.31 80.99 13.97 C 81.74 13.99 83.23 14.03 83.97 14.05 C 81.49 11.21 84.08 8.14 87.44 8.84 C 88.28 9.72 89.14 10.59 90.00 11.46 C 90.00 12.20 90.00 13.69 90.00 14.43 C 90.83 13.62 91.65 12.81 92.46 12.00 C 93.97 12.00 95.49 12.00 97.00 12.00 C 97.00 13.64 97.00 15.29 97.00 16.93 C 97.89 17.00 99.66 17.13 100.55 17.20 C 99.70 18.51 98.76 19.75 97.81 20.99 C 98.45 21.01 99.73 21.05 100.36 21.08 C 101.02 21.41 102.34 22.08 103.00 22.41 C 103.00 23.48 103.00 24.54 103.00 25.61 C 104.02 26.55 105.04 27.50 106.07 28.44 C 106.01 28.90 105.89 29.83 105.84 30.29 C 103.83 32.18 106.40 33.71 107.30 35.31 C 103.59 36.06 103.70 39.55 104.00 42.58 C 103.00 43.07 102.01 43.58 101.03 44.10 C 102.89 46.34 102.33 49.78 99.22 50.31 C 101.84 53.81 97.67 55.94 94.50 55.05 C 93.72 58.50 90.43 58.22 87.61 58.01 C 87.14 57.69 86.21 57.04 85.74 56.71 C 84.83 58.27 83.78 59.74 82.70 61.18 C 80.40 61.09 78.14 60.68 75.99 59.85 C 75.99 59.39 76.00 58.46 76.00 58.00 L 75.00 58.00 C 75.00 58.51 74.99 59.52 74.99 60.03 C 73.55 60.00 72.11 59.97 70.66 59.93 C 69.95 59.59 68.52 58.89 67.81 58.55 C 68.01 60.31 68.00 62.14 68.83 63.76 C 69.09 66.12 68.62 68.67 69.91 70.80 C 69.95 72.27 69.95 73.73 69.92 75.20 C 68.38 79.71 68.46 85.23 69.88 89.77 C 69.96 91.51 70.01 93.25 70.05 95.00 C 68.82 95.00 67.59 95.00 66.36 95.00 C 65.94 95.48 65.10 96.45 64.68 96.94 C 64.19 97.01 63.21 97.15 62.72 97.21 C 54.61 99.55 45.70 96.37 37.62 98.94 C 37.99 97.69 38.42 96.47 38.90 95.26 C 39.70 86.30 37.77 76.92 39.89 68.23 C 40.00 65.99 40.01 63.75 40.00 61.51 C 37.60 60.91 36.71 58.78 36.48 56.50 C 35.43 57.30 34.40 58.14 33.40 59.00 C 32.43 59.00 31.47 59.00 30.51 59.00 C 29.90 53.96 21.83 58.07 22.92 52.14 C 21.24 52.97 19.37 53.01 17.55 53.13 C 16.61 52.17 15.67 51.22 14.72 50.29 C 15.11 49.17 15.54 48.07 15.98 46.98 C 14.25 46.99 12.51 47.00 10.77 47.01 C 10.99 45.43 11.20 43.84 11.72 42.32 C 10.30 41.54 8.35 40.70 8.68 38.71 C 9.61 37.82 10.53 36.93 11.45 36.03 C 10.51 36.00 8.63 35.95 7.69 35.92 C 7.73 33.76 8.90 32.08 11.00 31.49 C 11.00 31.13 11.01 30.40 11.01 30.03 C 10.43 30.01 9.27 29.96 8.69 29.93 C 8.94 29.33 9.43 28.13 9.68 27.53 C 10.17 26.37 10.87 25.32 11.95 24.63 C 9.41 21.20 11.11 15.32 16.18 16.95 C 15.65 16.12 15.12 15.30 14.60 14.47 C 14.30 13.49 14.03 12.51 13.76 11.52 C 14.49 11.15 15.94 10.43 16.66 10.06 C 18.08 10.02 19.49 10.00 20.91 9.97 C 20.96 10.62 21.06 11.93 21.11 12.59 C 22.95 7.79 27.08 6.67 28.69 12.35 C 29.27 11.26 29.85 10.18 30.39 9.08 C 31.90 8.57 33.41 8.08 34.95 7.69 C 34.97 9.12 34.99 10.56 35.01 12.00 L 35.98 12.00 C 35.98 11.64 36.00 10.93 36.00 10.58 C 37.73 9.67 39.18 8.37 40.56 7.01 M 37.34 11.45 C 36.71 12.50 36.07 13.54 35.42 14.58 C 34.36 12.85 33.92 10.90 33.78 8.90 C 33.00 9.38 32.23 9.86 31.46 10.34 C 30.68 11.45 29.88 12.54 29.07 13.63 C 29.05 14.22 29.00 15.41 28.98 16.00 L 28.07 16.00 C 28.00 15.42 27.86 14.27 27.79 13.69 C 27.40 12.46 27.02 11.23 26.67 10.00 C 26.10 10.00 24.96 10.00 24.39 10.00 C 24.07 10.66 23.41 11.97 23.08 12.63 C 23.05 13.76 23.02 14.89 22.99 16.03 L 22.40 15.99 C 21.44 14.26 20.42 12.56 19.47 10.83 C 17.97 11.23 16.47 11.67 14.98 12.09 C 16.29 14.47 17.49 16.91 18.45 19.46 C 16.98 19.02 15.54 18.47 14.15 17.81 C 10.24 19.35 11.93 24.77 16.00 24.41 C 16.00 24.75 16.00 25.44 16.00 25.78 C 11.72 24.90 8.91 29.35 14.16 30.58 C 12.14 31.86 10.23 33.30 8.47 34.92 C 10.43 34.97 12.39 34.99 14.36 35.01 C 13.52 36.78 9.22 38.65 10.71 40.32 C 11.08 40.55 11.82 41.01 12.20 41.24 C 12.96 40.80 14.49 39.94 15.26 39.51 C 13.93 41.61 12.65 43.74 11.54 45.96 C 12.78 45.95 14.01 45.92 15.25 45.89 C 16.63 45.01 18.05 44.17 19.52 43.44 C 18.56 45.62 17.30 47.63 16.03 49.63 C 16.86 50.42 17.68 51.21 18.51 52.01 C 18.99 52.00 19.97 51.98 20.46 51.96 C 21.60 51.24 22.74 50.52 23.87 49.79 C 23.55 52.41 24.32 54.86 27.19 55.35 C 28.53 54.02 29.89 52.71 31.30 51.44 C 31.00 52.28 30.39 53.97 30.09 54.82 C 30.53 56.00 30.98 57.18 31.41 58.36 C 33.16 57.21 34.90 56.05 36.65 54.91 C 37.47 56.74 38.33 58.55 39.22 60.34 C 40.80 59.25 42.24 57.97 43.29 56.35 L 43.71 56.35 C 44.73 57.88 46.06 59.14 47.55 60.21 C 49.38 58.89 51.29 57.45 51.41 54.97 C 51.64 54.99 52.12 55.03 52.36 55.05 C 53.37 57.21 55.14 58.42 57.57 58.22 C 58.05 57.57 59.01 56.27 59.49 55.62 C 60.12 56.62 60.75 57.62 61.37 58.62 C 62.01 59.04 63.29 59.87 63.93 60.28 C 65.36 58.75 66.70 57.14 68.12 55.60 C 69.18 59.97 74.61 60.22 75.68 55.78 C 76.25 56.76 76.82 57.73 77.39 58.72 C 77.94 59.01 79.03 59.61 79.58 59.91 C 80.06 59.94 81.03 59.99 81.51 60.02 C 82.34 59.18 83.18 58.35 84.02 57.52 C 83.99 56.86 83.94 55.55 83.91 54.89 C 85.08 55.42 86.26 55.94 87.44 56.45 C 88.79 56.72 90.14 56.95 91.49 57.18 C 91.94 56.69 92.82 55.70 93.26 55.21 C 92.18 54.68 91.08 54.16 89.99 53.64 L 90.03 52.65 C 91.26 53.03 92.49 53.42 93.72 53.84 C 94.99 53.91 96.26 53.98 97.54 54.04 C 97.91 53.67 98.67 52.92 99.04 52.54 C 97.45 50.96 95.89 49.35 94.44 47.64 C 95.32 48.02 97.07 48.79 97.95 49.17 C 102.90 48.55 100.17 45.14 97.72 43.01 C 98.38 42.98 99.72 42.92 100.39 42.89 C 101.05 42.57 102.36 41.93 103.01 41.61 C 102.99 40.61 102.96 39.60 102.93 38.60 C 102.62 38.05 102.00 36.95 101.69 36.40 C 103.22 35.79 104.74 35.18 106.28 34.58 C 104.33 33.62 102.41 32.62 100.51 31.57 C 102.57 31.26 104.32 30.26 105.60 28.62 C 104.80 28.30 103.21 27.65 102.41 27.32 C 101.30 27.25 100.24 27.04 99.21 26.67 L 99.01 26.29 C 99.86 26.13 101.57 25.81 102.42 25.65 C 102.11 21.38 97.31 21.88 94.33 20.57 C 95.85 19.82 97.39 19.12 98.96 18.49 L 99.02 18.00 C 97.01 18.00 95.01 18.00 93.00 18.00 L 93.00 17.00 C 93.75 17.00 95.25 17.00 96.00 17.00 C 96.00 15.68 96.00 14.36 96.00 13.03 C 95.34 13.01 94.02 12.95 93.36 12.93 C 91.84 14.03 90.47 15.32 89.34 16.82 L 89.00 17.06 C 88.98 15.58 88.95 14.11 88.92 12.64 C 88.55 11.88 87.81 10.36 87.44 9.60 C 84.01 9.97 84.09 12.35 85.18 15.02 C 83.54 15.01 81.90 15.00 80.26 15.00 C 79.82 13.24 79.33 11.49 78.85 9.74 C 76.85 11.77 74.78 13.75 72.53 15.51 C 72.03 13.92 71.52 12.34 70.98 10.76 C 69.10 11.95 67.25 13.17 65.40 14.39 C 65.01 12.46 64.59 10.53 63.91 8.67 C 62.27 10.25 60.64 11.85 59.00 13.44 C 59.00 12.10 58.99 10.77 58.99 9.44 C 58.63 9.06 57.89 8.29 57.53 7.91 C 56.75 9.18 55.94 10.43 55.12 11.67 C 55.08 12.34 54.99 13.68 54.95 14.35 C 54.51 13.94 53.62 13.12 53.17 12.71 C 53.48 10.15 52.26 8.09 49.68 7.56 C 47.83 9.58 45.96 11.59 44.43 13.87 L 44.03 14.08 C 43.49 11.93 43.01 9.76 42.60 7.57 C 40.84 8.86 39.12 10.20 37.34 11.45 M 48.51 61.02 C 48.01 61.01 47.01 60.99 46.51 60.98 C 45.52 60.35 44.53 59.73 43.55 59.11 C 42.91 59.44 41.63 60.08 41.00 60.40 C 40.98 63.87 41.43 67.47 40.20 70.80 C 39.78 79.53 40.10 88.27 40.00 97.00 C 47.11 96.97 54.22 97.07 61.32 96.93 C 63.75 95.48 66.32 94.26 69.07 93.58 C 68.95 92.64 68.83 91.70 68.71 90.77 C 67.56 85.68 67.49 80.18 68.81 75.12 C 68.82 74.02 68.82 72.93 68.80 71.83 C 68.05 69.55 67.92 67.14 67.69 64.77 C 67.36 63.26 67.10 61.74 66.86 60.21 C 65.49 60.57 64.11 60.89 62.72 61.18 C 62.03 60.78 60.65 59.97 59.96 59.56 C 60.00 59.21 60.09 58.52 60.14 58.17 C 57.73 59.12 55.00 59.46 52.60 58.27 C 51.18 59.10 49.89 60.13 48.51 61.02 Z" />
</g>
<g id="#008751ff">
<path fill="#008751" opacity="1.00" d=" M 37.34 11.45 C 39.12 10.20 40.84 8.86 42.60 7.57 C 43.01 9.76 43.49 11.93 44.03 14.08 L 44.43 13.87 C 45.96 11.59 47.83 9.58 49.68 7.56 C 52.26 8.09 53.48 10.15 53.17 12.71 C 53.62 13.12 54.51 13.94 54.95 14.35 C 54.99 13.68 55.08 12.34 55.12 11.67 C 55.94 10.43 56.75 9.18 57.53 7.91 C 57.89 8.29 58.63 9.06 58.99 9.44 C 58.99 10.77 59.00 12.10 59.00 13.44 C 60.64 11.85 62.27 10.25 63.91 8.67 C 64.59 10.53 65.01 12.46 65.40 14.39 C 67.25 13.17 69.10 11.95 70.98 10.76 C 71.52 12.34 72.03 13.92 72.53 15.51 C 74.78 13.75 76.85 11.77 78.85 9.74 C 79.33 11.49 79.82 13.24 80.26 15.00 C 81.90 15.00 83.54 15.01 85.18 15.02 C 84.09 12.35 84.01 9.97 87.44 9.60 C 87.81 10.36 88.55 11.88 88.92 12.64 C 88.95 14.11 88.98 15.58 89.00 17.06 L 89.34 16.82 C 90.47 15.32 91.84 14.03 93.36 12.93 C 94.02 12.95 95.34 13.01 96.00 13.03 C 96.00 14.36 96.00 15.68 96.00 17.00 C 95.25 17.00 93.75 17.00 93.00 17.00 L 93.00 18.00 C 95.01 18.00 97.01 18.00 99.02 18.00 L 98.96 18.49 C 97.39 19.12 95.85 19.82 94.33 20.57 C 97.31 21.88 102.11 21.38 102.42 25.65 C 101.57 25.81 99.86 26.13 99.01 26.29 L 99.21 26.67 C 100.24 27.04 101.30 27.25 102.41 27.32 C 103.21 27.65 104.80 28.30 105.60 28.62 C 104.32 30.26 102.57 31.26 100.51 31.57 C 102.41 32.62 104.33 33.62 106.28 34.58 C 104.74 35.18 103.22 35.79 101.69 36.40 C 102.00 36.95 102.62 38.05 102.93 38.60 C 102.96 39.60 102.99 40.61 103.01 41.61 C 102.36 41.93 101.05 42.57 100.39 42.89 C 99.72 42.92 98.38 42.98 97.72 43.01 C 100.17 45.14 102.90 48.55 97.95 49.17 C 97.07 48.79 95.32 48.02 94.44 47.64 C 95.89 49.35 97.45 50.96 99.04 52.54 C 98.67 52.92 97.91 53.67 97.54 54.04 C 96.26 53.98 94.99 53.91 93.72 53.84 C 92.49 53.42 91.26 53.03 90.03 52.65 L 89.99 53.64 C 91.08 54.16 92.18 54.68 93.26 55.21 C 92.82 55.70 91.94 56.69 91.49 57.18 C 90.14 56.95 88.79 56.72 87.44 56.45 C 86.26 55.94 85.08 55.42 83.91 54.89 C 83.94 55.55 83.99 56.86 84.02 57.52 C 83.18 58.35 82.34 59.18 81.51 60.02 C 81.03 59.99 80.06 59.94 79.58 59.91 C 79.03 59.61 77.94 59.01 77.39 58.72 C 76.82 57.73 76.25 56.76 75.68 55.78 C 74.61 60.22 69.18 59.97 68.12 55.60 C 66.70 57.14 65.36 58.75 63.93 60.28 C 63.29 59.87 62.01 59.04 61.37 58.62 C 60.75 57.62 60.12 56.62 59.49 55.62 C 59.01 56.27 58.05 57.57 57.57 58.22 C 55.14 58.42 53.37 57.21 52.36 55.05 C 52.12 55.03 51.64 54.99 51.41 54.97 C 51.29 57.45 49.38 58.89 47.55 60.21 C 46.06 59.14 44.73 57.88 43.71 56.35 L 43.29 56.35 C 42.24 57.97 40.80 59.25 39.22 60.34 C 38.33 58.55 37.47 56.74 36.65 54.91 C 34.90 56.05 33.16 57.21 31.41 58.36 C 30.98 57.18 30.53 56.00 30.09 54.82 C 30.39 53.97 31.00 52.28 31.30 51.44 C 29.89 52.71 28.53 54.02 27.19 55.35 C 24.32 54.86 23.55 52.41 23.87 49.79 C 22.74 50.52 21.60 51.24 20.46 51.96 C 19.97 51.98 18.99 52.00 18.51 52.01 C 17.68 51.21 16.86 50.42 16.03 49.63 C 17.30 47.63 18.56 45.62 19.52 43.44 C 18.05 44.17 16.63 45.01 15.25 45.89 C 14.01 45.92 12.78 45.95 11.54 45.96 C 12.65 43.74 13.93 41.61 15.26 39.51 C 14.49 39.94 12.96 40.80 12.20 41.24 C 11.82 41.01 11.08 40.55 10.71 40.32 C 9.22 38.65 13.52 36.78 14.36 35.01 C 12.39 34.99 10.43 34.97 8.47 34.92 C 10.23 33.30 12.14 31.86 14.16 30.58 C 8.91 29.35 11.72 24.90 16.00 25.78 C 16.00 25.44 16.00 24.75 16.00 24.41 C 11.93 24.77 10.24 19.35 14.15 17.81 C 15.54 18.47 16.98 19.02 18.45 19.46 C 17.49 16.91 16.29 14.47 14.98 12.09 C 16.47 11.67 17.97 11.23 19.47 10.83 C 20.42 12.56 21.44 14.26 22.40 15.99 L 22.99 16.03 C 23.02 14.89 23.05 13.76 23.08 12.63 C 23.41 11.97 24.07 10.66 24.39 10.00 C 24.96 10.00 26.10 10.00 26.67 10.00 C 27.02 11.23 27.40 12.46 27.79 13.69 C 27.86 14.27 28.00 15.42 28.07 16.00 L 28.98 16.00 C 29.00 15.41 29.05 14.22 29.07 13.63 C 29.88 12.54 30.68 11.45 31.46 10.34 C 32.23 9.86 33.00 9.38 33.78 8.90 C 33.92 10.90 34.36 12.85 35.42 14.58 C 36.07 13.54 36.71 12.50 37.34 11.45 M 41.35 16.00 C 40.34 17.07 39.34 18.15 38.33 19.22 C 38.20 18.66 37.93 17.55 37.80 16.99 C 36.18 16.99 34.56 16.99 32.94 16.99 C 33.00 17.75 33.10 19.27 33.16 20.03 C 31.94 19.08 30.68 18.18 29.38 17.36 C 28.78 18.56 28.18 19.78 27.58 20.99 C 26.05 20.99 24.53 21.00 23.00 21.00 C 23.00 22.32 23.00 23.64 23.00 24.96 C 22.20 24.97 20.59 25.00 19.79 25.02 C 20.23 26.95 20.69 28.89 21.12 30.82 C 22.21 31.70 23.30 32.57 24.41 33.44 C 23.12 30.84 21.76 28.29 20.62 25.62 C 21.75 26.89 22.86 28.19 23.98 29.47 C 24.00 26.81 24.01 24.15 24.10 21.49 C 25.30 22.09 26.74 22.51 27.44 23.76 L 27.77 23.82 C 28.03 18.85 31.38 17.77 32.48 23.14 C 32.86 22.78 33.62 22.04 34.00 21.67 C 34.01 20.45 34.02 19.22 34.03 18.00 C 34.77 18.00 36.24 18.00 36.98 18.00 C 36.97 18.81 36.96 20.43 36.95 21.24 C 39.04 19.37 41.37 17.80 43.88 16.53 C 43.93 18.02 43.98 19.51 44.02 21.00 L 45.01 21.00 C 45.01 19.33 45.01 17.66 45.01 15.99 C 43.79 15.99 42.57 16.00 41.35 16.00 M 63.27 17.96 C 62.62 18.76 61.34 20.36 60.69 21.16 C 62.13 20.43 63.58 19.70 65.02 18.96 C 64.99 20.74 64.97 22.51 64.92 24.28 C 66.30 22.40 67.90 20.70 69.82 19.36 C 69.88 20.82 69.95 22.28 70.00 23.74 C 70.85 23.76 72.53 23.79 73.38 23.81 C 72.61 23.06 71.84 22.31 71.06 21.56 C 71.01 20.19 70.95 18.82 70.88 17.44 C 69.08 18.37 67.37 19.50 66.10 21.12 C 66.05 20.07 65.99 19.03 65.93 17.98 C 65.26 17.97 63.93 17.96 63.27 17.96 M 79.24 19.00 C 78.00 20.42 76.75 21.82 75.51 23.24 C 78.04 21.71 80.60 20.24 83.19 18.81 C 82.34 21.04 81.47 23.26 80.66 25.50 C 84.03 23.63 87.38 21.63 91.13 20.58 C 90.05 22.81 88.93 25.01 87.76 27.19 C 90.89 25.78 94.11 24.50 97.47 23.72 C 95.22 25.58 92.92 27.45 91.30 29.92 C 93.72 29.58 96.14 29.20 98.57 28.95 C 96.22 30.43 93.68 31.58 91.03 32.42 L 91.01 33.33 C 93.96 32.55 96.87 31.64 99.75 30.65 C 99.50 30.05 98.99 28.85 98.74 28.25 C 97.24 27.14 95.27 27.81 93.56 27.60 C 96.63 27.72 97.60 25.09 98.55 22.81 C 95.61 22.85 92.65 23.28 90.12 24.89 C 91.09 23.24 91.93 21.51 92.58 19.70 C 89.74 19.94 86.99 20.69 84.35 21.73 C 84.15 18.35 82.06 17.74 79.24 19.00 M 56.73 20.39 C 52.65 18.58 51.33 22.60 51.80 25.99 L 52.96 26.01 C 53.02 24.10 53.10 22.20 53.22 20.29 C 54.98 21.73 55.82 23.84 56.45 25.95 L 57.00 26.03 C 57.00 24.80 57.01 23.58 57.02 22.36 C 58.48 21.15 59.95 19.94 61.40 18.72 C 59.84 19.26 58.28 19.83 56.73 20.39 M 61.14 21.48 C 58.89 25.02 64.95 22.34 61.14 21.48 M 63.44 29.10 C 66.13 28.33 68.78 27.40 71.50 26.71 C 70.36 29.50 68.52 31.90 66.42 34.04 C 69.28 32.65 72.36 31.83 75.55 31.93 C 73.64 33.41 71.61 34.71 69.56 35.99 C 71.25 36.01 72.93 36.03 74.62 36.05 C 75.00 36.45 75.77 37.25 76.15 37.65 C 74.25 38.01 72.38 38.47 70.58 39.16 C 72.11 40.20 73.64 41.24 75.17 42.27 C 74.79 42.70 74.03 43.57 73.65 44.00 C 72.32 43.96 70.99 43.92 69.66 43.87 C 68.58 43.14 67.48 42.43 66.38 41.73 C 68.33 45.64 72.50 45.43 76.04 44.02 C 76.05 43.29 76.05 41.85 76.06 41.13 C 74.90 40.51 73.74 39.89 72.58 39.28 C 74.05 39.15 75.53 39.02 77.00 38.90 C 77.02 38.19 77.05 36.78 77.07 36.07 C 76.34 35.74 74.88 35.10 74.15 34.77 C 74.95 33.52 75.74 32.27 76.52 31.01 C 74.77 31.00 73.03 31.01 71.28 31.02 C 71.66 29.24 71.99 27.44 72.32 25.64 C 69.07 25.90 65.98 27.04 63.44 29.10 M 36.22 32.50 C 39.32 35.33 43.71 35.70 47.49 37.19 C 46.39 36.27 45.29 35.38 44.17 34.50 C 45.86 33.65 47.03 32.22 47.54 30.38 C 45.66 31.30 43.96 32.52 42.35 33.85 C 41.34 33.90 40.34 33.96 39.34 34.01 C 39.02 33.64 38.37 32.91 38.04 32.55 C 39.29 31.40 40.53 30.24 41.73 29.05 C 39.28 29.53 36.76 31.70 34.27 30.76 C 33.24 28.87 36.86 28.07 37.57 26.53 C 33.72 26.63 30.22 32.99 36.22 32.50 M 52.04 31.97 C 52.01 32.40 51.95 33.27 51.92 33.71 C 50.26 34.14 48.59 34.60 46.93 35.05 C 47.41 36.11 47.89 37.17 48.36 38.23 C 51.64 37.70 55.09 37.23 57.84 35.20 C 55.08 35.67 52.36 36.36 49.66 37.10 C 51.24 35.40 52.82 33.71 54.40 32.02 C 53.81 32.01 52.63 31.98 52.04 31.97 M 82.99 32.00 L 83.01 32.62 C 84.94 33.11 86.85 33.65 88.68 34.43 C 86.56 35.61 84.35 36.63 82.06 37.45 L 81.98 37.77 C 84.56 38.09 87.12 38.57 89.63 39.27 C 89.17 38.71 88.26 37.59 87.80 37.03 C 88.19 36.51 88.97 35.48 89.36 34.97 C 88.47 33.96 87.58 32.97 86.70 31.97 C 85.46 31.98 84.23 31.99 82.99 32.00 M 27.22 36.98 C 26.86 37.86 26.51 38.75 26.15 39.63 C 26.45 40.23 27.05 41.41 27.35 42.01 C 29.24 42.00 31.14 42.00 33.03 42.00 C 32.56 42.97 32.10 43.94 31.64 44.92 C 34.31 45.81 37.11 46.16 39.88 45.51 C 40.18 46.14 40.79 47.39 41.10 48.02 C 42.49 48.03 43.88 48.04 45.27 48.07 C 48.86 53.76 52.96 46.10 53.21 42.28 C 51.40 44.15 50.46 46.58 49.60 48.99 C 48.93 48.99 47.59 49.00 46.92 49.00 C 47.34 47.51 47.78 46.03 48.19 44.54 C 47.25 45.42 46.32 46.30 45.39 47.19 C 43.81 46.82 42.22 46.43 40.65 46.03 C 41.90 44.67 43.15 43.32 44.40 41.96 C 43.75 42.00 42.44 42.08 41.79 42.12 C 39.91 45.03 36.47 45.16 33.35 45.07 C 35.19 42.41 37.37 40.02 39.48 37.58 C 35.58 39.70 30.87 42.85 26.57 39.65 C 28.56 38.36 30.59 37.12 32.58 35.81 C 30.78 36.16 29.00 36.56 27.22 36.98 M 58.29 38.97 C 57.88 39.48 57.06 40.51 56.65 41.02 C 58.99 40.53 61.36 40.13 63.75 39.89 C 61.98 41.96 59.66 43.41 57.41 44.88 C 59.38 44.94 61.35 45.00 63.33 45.07 C 62.94 45.44 62.17 46.20 61.78 46.57 C 56.62 47.09 55.89 50.54 61.37 51.61 C 60.84 50.54 60.31 49.47 59.77 48.41 C 61.18 47.84 62.59 47.28 64.00 46.72 C 64.01 46.05 64.01 44.70 64.01 44.03 C 63.52 44.05 62.53 44.09 62.04 44.11 C 62.99 42.48 63.82 40.79 64.55 39.06 C 62.47 39.01 60.38 38.99 58.29 38.97 M 89.63 39.27 C 89.07 39.72 87.94 40.63 87.38 41.08 C 85.03 40.79 82.70 40.42 80.37 40.05 C 81.50 40.88 82.63 41.70 83.77 42.52 C 84.28 43.76 84.78 45.00 85.28 46.25 C 83.33 45.76 81.39 45.26 79.45 44.75 C 78.47 44.04 77.49 43.33 76.51 42.62 C 77.25 44.00 78.03 45.37 78.82 46.73 C 78.89 47.91 78.97 49.10 79.05 50.28 C 77.36 48.73 75.68 47.17 74.00 45.61 C 73.99 47.06 73.99 48.51 73.98 49.96 L 76.27 49.64 C 74.16 52.58 71.47 51.68 69.00 49.93 C 69.00 49.19 69.01 47.72 69.01 46.99 L 67.45 47.10 C 68.25 49.51 69.70 51.60 71.38 53.48 C 73.47 52.83 75.49 51.91 76.84 50.12 C 77.91 50.49 78.97 50.86 80.04 51.24 C 80.01 49.60 79.98 47.97 79.95 46.34 C 82.07 46.71 84.20 47.00 86.34 47.27 C 85.91 45.60 85.45 43.95 84.98 42.29 C 87.61 42.39 90.05 41.48 90.51 38.58 L 89.63 39.27 M 53.33 50.63 C 55.48 53.91 61.20 55.98 62.69 51.04 L 61.37 51.61 C 60.24 52.09 59.11 52.58 57.97 53.06 C 56.50 52.11 54.98 51.24 53.33 50.63 Z" />
<path fill="#008751" opacity="1.00" d=" M 48.51 61.02 C 49.89 60.13 51.18 59.10 52.60 58.27 C 55.00 59.46 57.73 59.12 60.14 58.17 C 60.09 58.52 60.00 59.21 59.96 59.56 C 60.65 59.97 62.03 60.78 62.72 61.18 C 64.11 60.89 65.49 60.57 66.86 60.21 C 67.10 61.74 67.36 63.26 67.69 64.77 C 67.92 67.14 68.05 69.55 68.80 71.83 C 68.82 72.93 68.82 74.02 68.81 75.12 C 67.49 80.18 67.56 85.68 68.71 90.77 C 68.83 91.70 68.95 92.64 69.07 93.58 C 66.32 94.26 63.75 95.48 61.32 96.93 C 54.22 97.07 47.11 96.97 40.00 97.00 C 40.10 88.27 39.78 79.53 40.20 70.80 C 41.43 67.47 40.98 63.87 41.00 60.40 C 41.63 60.08 42.91 59.44 43.55 59.11 C 44.53 59.73 45.52 60.35 46.51 60.98 C 47.01 60.99 48.01 61.01 48.51 61.02 M 54.89 68.39 C 52.86 74.42 59.74 78.39 63.91 73.68 C 64.37 72.28 64.84 70.88 65.28 69.48 C 63.35 65.17 56.77 62.73 54.89 68.39 M 45.00 65.91 C 45.00 68.14 45.00 70.37 45.00 72.61 C 46.14 73.73 47.27 74.86 48.39 76.00 C 48.94 76.00 50.05 76.00 50.60 76.00 C 51.39 75.22 52.19 74.45 52.99 73.68 C 53.01 72.23 53.04 70.79 53.07 69.35 C 51.79 65.69 48.31 65.65 45.00 65.91 M 64.17 75.25 C 60.67 79.08 69.10 76.85 64.17 75.25 M 44.30 76.08 C 43.47 76.95 42.64 77.81 41.80 78.67 C 42.77 79.08 43.74 79.50 44.70 79.92 C 45.53 79.05 46.36 78.19 47.20 77.33 C 46.23 76.92 45.26 76.50 44.30 76.08 M 53.29 77.27 C 51.33 84.72 56.92 83.02 53.29 77.27 M 57.55 82.98 C 57.61 82.01 57.31 81.10 56.64 80.24 C 54.64 74.73 54.10 83.84 57.55 82.98 M 62.51 78.52 C 62.04 79.24 61.12 80.68 60.65 81.39 C 61.76 80.94 62.86 80.47 63.96 79.99 C 64.43 80.99 64.90 81.99 65.37 83.00 L 66.42 82.98 C 66.23 80.62 64.83 78.98 62.51 78.52 M 45.61 81.08 C 44.95 81.41 43.65 82.06 43.00 82.38 C 43.00 83.59 43.00 84.79 43.00 86.00 L 44.01 86.00 C 43.99 85.27 43.96 83.80 43.94 83.07 C 45.66 82.57 47.43 81.95 49.16 82.83 C 49.11 82.36 49.00 81.43 48.94 80.97 C 47.83 81.00 46.72 81.04 45.61 81.08 M 60.59 84.93 C 56.28 86.51 51.40 86.49 47.31 84.29 L 47.80 85.10 C 47.17 85.04 45.92 84.92 45.29 84.86 C 46.29 85.96 47.01 87.22 47.45 88.64 C 52.85 89.74 67.68 90.26 62.53 81.31 C 61.87 82.51 61.22 83.71 60.59 84.93 Z" />
<path fill="#008751" opacity="1.00" d=" M 72.00 64.00 C 84.33 64.00 96.67 64.00 109.00 64.00 C 109.43 74.18 108.14 84.59 109.65 94.63 C 109.40 95.23 108.90 96.41 108.65 97.00 C 100.03 97.04 91.40 96.90 82.77 97.08 C 81.39 97.84 79.89 98.20 78.29 98.15 C 79.41 97.10 80.60 96.12 82.00 95.47 C 82.00 92.98 82.00 90.49 82.00 88.00 C 78.67 88.00 75.33 88.00 72.00 88.00 C 72.00 80.00 72.00 72.00 72.00 64.00 M 76.88 72.31 C 75.51 78.21 79.85 83.34 85.97 82.29 C 88.37 79.48 89.54 76.01 89.11 72.31 C 87.63 70.89 86.17 69.45 84.72 68.00 C 83.57 68.00 82.42 68.00 81.28 68.00 C 79.83 69.45 78.37 70.89 76.88 72.31 M 93.99 69.00 C 93.98 70.68 93.97 72.36 93.96 74.05 C 96.29 75.90 99.01 77.15 102.02 77.39 C 103.39 74.79 104.15 71.95 104.27 69.00 C 100.84 68.99 97.42 69.00 93.99 69.00 M 101.65 85.95 C 97.08 87.61 91.85 87.55 87.68 84.87 C 86.78 87.58 87.05 90.41 87.94 93.08 C 95.57 96.85 110.33 92.84 103.46 82.32 C 102.84 83.53 102.24 84.74 101.65 85.95 Z" />
</g>
<g id="#00dd38ff">
<path fill="#00dd38" opacity="1.00" d=" M 41.35 16.00 C 42.57 16.00 43.79 15.99 45.01 15.99 C 45.01 17.66 45.01 19.33 45.01 21.00 L 44.02 21.00 C 43.98 19.51 43.93 18.02 43.88 16.53 C 41.37 17.80 39.04 19.37 36.95 21.24 C 36.96 20.43 36.97 18.81 36.98 18.00 C 36.24 18.00 34.77 18.00 34.03 18.00 C 34.02 19.22 34.01 20.45 34.00 21.67 C 33.62 22.04 32.86 22.78 32.48 23.14 C 31.38 17.77 28.03 18.85 27.77 23.82 L 27.44 23.76 C 26.74 22.51 25.30 22.09 24.10 21.49 C 24.01 24.15 24.00 26.81 23.98 29.47 C 22.86 28.19 21.75 26.89 20.62 25.62 C 21.76 28.29 23.12 30.84 24.41 33.44 C 23.30 32.57 22.21 31.70 21.12 30.82 C 20.69 28.89 20.23 26.95 19.79 25.02 C 20.59 25.00 22.20 24.97 23.00 24.96 C 23.00 23.64 23.00 22.32 23.00 21.00 C 24.53 21.00 26.05 20.99 27.58 20.99 C 28.18 19.78 28.78 18.56 29.38 17.36 C 30.68 18.18 31.94 19.08 33.16 20.03 C 33.10 19.27 33.00 17.75 32.94 16.99 C 34.56 16.99 36.18 16.99 37.80 16.99 C 37.93 17.55 38.20 18.66 38.33 19.22 C 39.34 18.15 40.34 17.07 41.35 16.00 Z" />
<path fill="#00dd38" opacity="1.00" d=" M 63.27 17.96 C 63.93 17.96 65.26 17.97 65.93 17.98 C 65.99 19.03 66.05 20.07 66.10 21.12 C 67.37 19.50 69.08 18.37 70.88 17.44 C 70.95 18.82 71.01 20.19 71.06 21.56 C 71.84 22.31 72.61 23.06 73.38 23.81 C 72.53 23.79 70.85 23.76 70.00 23.74 C 69.95 22.28 69.88 20.82 69.82 19.36 C 67.90 20.70 66.30 22.40 64.92 24.28 C 64.97 22.51 64.99 20.74 65.02 18.96 C 63.58 19.70 62.13 20.43 60.69 21.16 C 61.34 20.36 62.62 18.76 63.27 17.96 Z" />
<path fill="#00dd38" opacity="1.00" d=" M 36.22 32.50 C 30.22 32.99 33.72 26.63 37.57 26.53 C 36.86 28.07 33.24 28.87 34.27 30.76 C 36.76 31.70 39.28 29.53 41.73 29.05 C 40.53 30.24 39.29 31.40 38.04 32.55 C 38.37 32.91 39.02 33.64 39.34 34.01 C 40.34 33.96 41.34 33.90 42.35 33.85 C 43.96 32.52 45.66 31.30 47.54 30.38 C 47.03 32.22 45.86 33.65 44.17 34.50 C 45.29 35.38 46.39 36.27 47.49 37.19 C 43.71 35.70 39.32 35.33 36.22 32.50 Z" />
</g>
<g id="#00d939ff">
<path fill="#00d939" opacity="1.00" d=" M 79.24 19.00 C 82.06 17.74 84.15 18.35 84.35 21.73 C 86.99 20.69 89.74 19.94 92.58 19.70 C 91.93 21.51 91.09 23.24 90.12 24.89 C 92.65 23.28 95.61 22.85 98.55 22.81 C 97.60 25.09 96.63 27.72 93.56 27.60 C 95.27 27.81 97.24 27.14 98.74 28.25 C 98.99 28.85 99.50 30.05 99.75 30.65 C 96.87 31.64 93.96 32.55 91.01 33.33 L 91.03 32.42 C 93.68 31.58 96.22 30.43 98.57 28.95 C 96.14 29.20 93.72 29.58 91.30 29.92 C 92.92 27.45 95.22 25.58 97.47 23.72 C 94.11 24.50 90.89 25.78 87.76 27.19 C 88.93 25.01 90.05 22.81 91.13 20.58 C 87.38 21.63 84.03 23.63 80.66 25.50 C 81.47 23.26 82.34 21.04 83.19 18.81 C 80.60 20.24 78.04 21.71 75.51 23.24 C 76.75 21.82 78.00 20.42 79.24 19.00 Z" />
<path fill="#00d939" opacity="1.00" d=" M 63.44 29.10 C 65.98 27.04 69.07 25.90 72.32 25.64 C 71.99 27.44 71.66 29.24 71.28 31.02 C 73.03 31.01 74.77 31.00 76.52 31.01 C 75.74 32.27 74.95 33.52 74.15 34.77 C 74.88 35.10 76.34 35.74 77.07 36.07 C 77.05 36.78 77.02 38.19 77.00 38.90 C 75.53 39.02 74.05 39.15 72.58 39.28 C 73.74 39.89 74.90 40.51 76.06 41.13 C 76.05 41.85 76.05 43.29 76.04 44.02 C 72.50 45.43 68.33 45.64 66.38 41.73 C 67.48 42.43 68.58 43.14 69.66 43.87 C 70.99 43.92 72.32 43.96 73.65 44.00 C 74.03 43.57 74.79 42.70 75.17 42.27 C 73.64 41.24 72.11 40.20 70.58 39.16 C 72.38 38.47 74.25 38.01 76.15 37.65 C 75.77 37.25 75.00 36.45 74.62 36.05 C 72.93 36.03 71.25 36.01 69.56 35.99 C 71.61 34.71 73.64 33.41 75.55 31.93 C 72.36 31.83 69.28 32.65 66.42 34.04 C 68.52 31.90 70.36 29.50 71.50 26.71 C 68.78 27.40 66.13 28.33 63.44 29.10 Z" />
</g>
<g id="#00dc38ff">
<path fill="#00dc38" opacity="1.00" d=" M 56.73 20.39 C 58.28 19.83 59.84 19.26 61.40 18.72 C 59.95 19.94 58.48 21.15 57.02 22.36 C 57.01 23.58 57.00 24.80 57.00 26.03 L 56.45 25.95 C 55.82 23.84 54.98 21.73 53.22 20.29 C 53.10 22.20 53.02 24.10 52.96 26.01 L 51.80 25.99 C 51.33 22.60 52.65 18.58 56.73 20.39 Z" />
<path fill="#00dc38" opacity="1.00" d=" M 53.33 50.63 C 54.98 51.24 56.50 52.11 57.97 53.06 C 59.11 52.58 60.24 52.09 61.37 51.61 L 62.69 51.04 C 61.20 55.98 55.48 53.91 53.33 50.63 Z" />
</g>
<g id="#00e436ff">
<path fill="#00e436" opacity="1.00" d=" M 61.14 21.48 C 64.95 22.34 58.89 25.02 61.14 21.48 Z" />
</g>
<g id="#00d839ff">
<path fill="#00d839" opacity="1.00" d=" M 52.04 31.97 C 52.63 31.98 53.81 32.01 54.40 32.02 C 52.82 33.71 51.24 35.40 49.66 37.10 C 52.36 36.36 55.08 35.67 57.84 35.20 C 55.09 37.23 51.64 37.70 48.36 38.23 C 47.89 37.17 47.41 36.11 46.93 35.05 C 48.59 34.60 50.26 34.14 51.92 33.71 C 51.95 33.27 52.01 32.40 52.04 31.97 Z" />
</g>
<g id="#00db39ff">
<path fill="#00db39" opacity="1.00" d=" M 82.99 32.00 C 84.23 31.99 85.46 31.98 86.70 31.97 C 87.58 32.97 88.47 33.96 89.36 34.97 C 88.97 35.48 88.19 36.51 87.80 37.03 C 88.26 37.59 89.17 38.71 89.63 39.27 C 87.12 38.57 84.56 38.09 81.98 37.77 L 82.06 37.45 C 84.35 36.63 86.56 35.61 88.68 34.43 C 86.85 33.65 84.94 33.11 83.01 32.62 L 82.99 32.00 Z" />
<path fill="#00db39" opacity="1.00" d=" M 89.63 39.27 L 90.51 38.58 C 90.05 41.48 87.61 42.39 84.98 42.29 C 85.45 43.95 85.91 45.60 86.34 47.27 C 84.20 47.00 82.07 46.71 79.95 46.34 C 79.98 47.97 80.01 49.60 80.04 51.24 C 78.97 50.86 77.91 50.49 76.84 50.12 C 75.49 51.91 73.47 52.83 71.38 53.48 C 69.70 51.60 68.25 49.51 67.45 47.10 L 69.01 46.99 C 69.01 47.72 69.00 49.19 69.00 49.93 C 71.47 51.68 74.16 52.58 76.27 49.64 L 73.98 49.96 C 73.99 48.51 73.99 47.06 74.00 45.61 C 75.68 47.17 77.36 48.73 79.05 50.28 C 78.97 49.10 78.89 47.91 78.82 46.73 C 78.03 45.37 77.25 44.00 76.51 42.62 C 77.49 43.33 78.47 44.04 79.45 44.75 C 81.39 45.26 83.33 45.76 85.28 46.25 C 84.78 45.00 84.28 43.76 83.77 42.52 C 82.63 41.70 81.50 40.88 80.37 40.05 C 82.70 40.42 85.03 40.79 87.38 41.08 C 87.94 40.63 89.07 39.72 89.63 39.27 Z" />
</g>
<g id="#00de38ff">
<path fill="#00de38" opacity="1.00" d=" M 27.22 36.98 C 29.00 36.56 30.78 36.16 32.58 35.81 C 30.59 37.12 28.56 38.36 26.57 39.65 C 30.87 42.85 35.58 39.70 39.48 37.58 C 37.37 40.02 35.19 42.41 33.35 45.07 C 36.47 45.16 39.91 45.03 41.79 42.12 C 42.44 42.08 43.75 42.00 44.40 41.96 C 43.15 43.32 41.90 44.67 40.65 46.03 C 42.22 46.43 43.81 46.82 45.39 47.19 C 46.32 46.30 47.25 45.42 48.19 44.54 C 47.78 46.03 47.34 47.51 46.92 49.00 C 47.59 49.00 48.93 48.99 49.60 48.99 C 50.46 46.58 51.40 44.15 53.21 42.28 C 52.96 46.10 48.86 53.76 45.27 48.07 C 43.88 48.04 42.49 48.03 41.10 48.02 C 40.79 47.39 40.18 46.14 39.88 45.51 C 37.11 46.16 34.31 45.81 31.64 44.92 C 32.10 43.94 32.56 42.97 33.03 42.00 C 31.14 42.00 29.24 42.00 27.35 42.01 C 27.05 41.41 26.45 40.23 26.15 39.63 C 26.51 38.75 26.86 37.86 27.22 36.98 Z" />
</g>
<g id="#00df37ff">
<path fill="#00df37" opacity="1.00" d=" M 58.29 38.97 C 60.38 38.99 62.47 39.01 64.55 39.06 C 63.82 40.79 62.99 42.48 62.04 44.11 C 62.53 44.09 63.52 44.05 64.01 44.03 C 64.01 44.70 64.01 46.05 64.00 46.72 C 62.59 47.28 61.18 47.84 59.77 48.41 C 60.31 49.47 60.84 50.54 61.37 51.61 C 55.89 50.54 56.62 47.09 61.78 46.57 C 62.17 46.20 62.94 45.44 63.33 45.07 C 61.35 45.00 59.38 44.94 57.41 44.88 C 59.66 43.41 61.98 41.96 63.75 39.89 C 61.36 40.13 58.99 40.53 56.65 41.02 C 57.06 40.51 57.88 39.48 58.29 38.97 Z" />
</g>
<g id="#000b06ff">
<path fill="#000b06" opacity="1.00" d=" M 54.89 68.39 C 56.77 62.73 63.35 65.17 65.28 69.48 C 64.84 70.88 64.37 72.28 63.91 73.68 C 59.74 78.39 52.86 74.42 54.89 68.39 M 58.45 66.00 C 58.09 66.36 57.36 67.08 57.00 67.44 C 57.00 67.83 57.00 68.61 57.00 69.00 L 56.00 69.01 C 56.00 70.22 56.00 71.43 56.00 72.64 C 56.32 72.91 56.97 73.44 57.30 73.70 C 57.56 74.03 58.09 74.68 58.36 75.00 C 58.76 75.00 59.58 75.00 59.98 75.00 L 60.00 74.00 C 60.39 74.00 61.17 74.00 61.55 74.00 C 61.91 73.64 62.64 72.92 63.00 72.55 C 63.00 72.17 63.00 71.39 63.00 71.00 L 64.00 71.00 L 64.00 70.00 L 63.00 70.00 C 63.00 69.59 63.00 68.77 63.00 68.36 C 62.68 68.09 62.03 67.56 61.70 67.30 C 61.44 66.97 60.91 66.32 60.64 66.00 C 60.10 66.00 59.00 66.00 58.45 66.00 Z" />
</g>
<g id="#000d08ff">
<path fill="#000d08" opacity="1.00" d=" M 45.00 65.91 C 48.31 65.65 51.79 65.69 53.07 69.35 C 53.04 70.79 53.01 72.23 52.99 73.68 C 52.19 74.45 51.39 75.22 50.60 76.00 C 50.05 76.00 48.94 76.00 48.39 76.00 C 47.27 74.86 46.14 73.73 45.00 72.61 C 45.00 70.37 45.00 68.14 45.00 65.91 M 46.00 67.00 C 46.00 68.66 46.00 70.33 46.00 71.99 L 47.00 72.00 C 47.00 72.50 47.00 73.50 47.00 74.00 C 47.50 74.00 48.50 74.00 49.00 74.00 L 49.00 75.00 L 50.00 75.00 L 50.00 74.00 C 50.50 74.00 51.49 74.00 51.99 74.00 C 52.00 73.16 52.02 71.49 52.03 70.65 C 50.99 69.73 50.81 68.31 50.81 67.00 C 49.20 67.00 47.60 67.00 46.00 67.00 Z" />
</g>
<g id="#fff1e8ff">
<path fill="#fff1e8" opacity="1.00" d=" M 58.45 66.00 C 59.00 66.00 60.10 66.00 60.64 66.00 C 60.91 66.32 61.44 66.97 61.70 67.30 C 62.03 67.56 62.68 68.09 63.00 68.36 C 63.00 68.77 63.00 69.59 63.00 70.00 L 64.00 70.00 L 64.00 71.00 L 63.00 71.00 C 63.00 71.39 63.00 72.17 63.00 72.55 C 62.64 72.92 61.91 73.64 61.55 74.00 C 61.17 74.00 60.39 74.00 60.00 74.00 L 59.98 75.00 C 59.58 75.00 58.76 75.00 58.36 75.00 C 58.09 74.68 57.56 74.03 57.30 73.70 C 56.97 73.44 56.32 72.91 56.00 72.64 C 56.00 71.43 56.00 70.22 56.00 69.01 L 57.00 69.00 C 57.00 68.61 57.00 67.83 57.00 67.44 C 57.36 67.08 58.09 66.36 58.45 66.00 M 57.99 70.11 C 58.00 70.83 58.00 72.28 58.00 73.00 C 58.76 73.00 60.28 73.00 61.03 73.00 C 61.01 71.53 60.97 70.07 60.90 68.60 C 59.91 69.06 58.94 69.56 57.99 70.11 Z" />
<path fill="#fff1e8" opacity="1.00" d=" M 46.00 67.00 C 47.60 67.00 49.20 67.00 50.81 67.00 C 50.81 68.31 50.99 69.73 52.03 70.65 C 52.02 71.49 52.00 73.16 51.99 74.00 C 51.49 74.00 50.50 74.00 50.00 74.00 L 50.00 75.00 L 49.00 75.00 L 49.00 74.00 C 48.50 74.00 47.50 74.00 47.00 74.00 C 47.00 73.50 47.00 72.50 47.00 72.00 L 46.00 71.99 C 46.00 70.33 46.00 68.66 46.00 67.00 M 48.04 69.83 C 48.02 70.62 48.00 72.22 47.98 73.02 C 48.78 73.00 50.37 72.98 51.17 72.96 C 51.68 71.17 49.83 69.32 48.04 69.83 Z" />
<path fill="#fff1e8" opacity="1.00" d=" M 80.75 72.45 C 80.98 70.88 81.74 70.13 83.04 70.20 C 83.08 70.62 83.16 71.46 83.20 71.88 C 83.03 72.34 82.67 73.25 82.50 73.71 C 82.13 73.79 81.40 73.96 81.04 74.05 C 80.97 73.65 80.83 72.85 80.75 72.45 Z" />
<path fill="#fff1e8" opacity="1.00" d=" M 97.00 71.33 C 97.45 71.25 98.35 71.09 98.80 71.02 C 98.45 72.47 97.85 72.58 97.00 71.33 Z" />
<path fill="#fff1e8" opacity="1.00" d=" M 99.92 71.63 C 100.45 71.64 101.51 71.65 102.04 71.65 C 101.51 71.65 100.45 71.64 99.92 71.63 Z" />
<path fill="#fff1e8" opacity="1.00" d=" M 92.96 89.50 C 94.15 88.42 96.32 88.78 97.74 89.29 L 97.99 89.76 C 96.44 90.20 94.81 90.05 93.22 90.08 L 92.96 89.50 Z" />
</g>
<g id="#436550ff">
<path fill="#436550" opacity="1.00" d=" M 76.88 72.31 C 78.37 70.89 79.83 69.45 81.28 68.00 C 82.42 68.00 83.57 68.00 84.72 68.00 C 86.17 69.45 87.63 70.89 89.11 72.31 C 89.54 76.01 88.37 79.48 85.97 82.29 C 79.85 83.34 75.51 78.21 76.88 72.31 M 81.47 69.00 C 80.32 70.16 79.16 71.32 78.00 72.47 C 78.01 74.12 78.02 75.77 78.03 77.41 C 78.36 77.97 79.01 79.09 79.33 79.65 C 79.90 80.01 81.04 80.71 81.61 81.06 C 84.60 81.65 86.79 80.25 88.04 77.60 C 88.01 75.88 88.00 74.17 87.99 72.47 C 86.83 71.32 85.68 70.16 84.53 69.00 C 83.51 69.00 82.49 69.00 81.47 69.00 Z" />
</g>
<g id="#000000ff">
<path fill="#000000" opacity="1.00" d=" M 57.99 70.11 C 58.94 69.56 59.91 69.06 60.90 68.60 C 60.97 70.07 61.01 71.53 61.03 73.00 C 60.28 73.00 58.76 73.00 58.00 73.00 C 58.00 72.28 58.00 70.83 57.99 70.11 Z" />
<path fill="#000000" opacity="1.00" d=" M 81.47 69.00 C 82.49 69.00 83.51 69.00 84.53 69.00 C 85.68 70.16 86.83 71.32 87.99 72.47 C 88.00 74.17 88.01 75.88 88.04 77.60 C 86.79 80.25 84.60 81.65 81.61 81.06 C 81.04 80.71 79.90 80.01 79.33 79.65 C 79.01 79.09 78.36 77.97 78.03 77.41 C 78.02 75.77 78.01 74.12 78.00 72.47 C 79.16 71.32 80.32 70.16 81.47 69.00 M 80.75 72.45 C 79.34 72.14 78.88 72.67 79.37 74.03 C 79.23 74.72 78.97 76.10 78.83 76.79 C 79.22 76.95 80.00 77.28 80.39 77.44 L 79.85 78.77 C 81.96 79.59 84.29 80.74 86.23 78.86 L 85.64 77.57 C 86.02 77.33 86.77 76.86 87.15 76.62 C 87.00 76.03 86.71 74.84 86.57 74.24 C 87.15 73.07 85.38 71.07 84.26 71.13 C 83.96 70.90 83.35 70.43 83.04 70.20 C 81.74 70.13 80.98 70.88 80.75 72.45 Z" />
<path fill="#000000" opacity="1.00" d=" M 48.04 69.83 C 49.83 69.32 51.68 71.17 51.17 72.96 C 50.37 72.98 48.78 73.00 47.98 73.02 C 48.00 72.22 48.02 70.62 48.04 69.83 Z" />
<path fill="#000000" opacity="1.00" d=" M 94.77 70.00 C 97.52 70.00 100.28 70.00 103.03 70.00 C 102.99 71.13 102.95 72.26 102.91 73.39 C 102.59 74.04 101.94 75.34 101.62 75.99 C 100.54 76.00 99.47 76.02 98.40 76.04 C 96.00 74.80 94.41 72.84 94.77 70.00 M 96.45 70.28 C 96.31 70.96 96.03 72.33 95.89 73.02 L 97.27 72.95 C 96.62 75.03 102.57 75.89 100.71 73.11 L 101.82 73.27 L 102.04 71.65 C 101.51 71.65 100.45 71.64 99.92 71.63 L 98.80 71.02 C 98.35 71.09 97.45 71.25 97.00 71.33 L 96.45 70.28 Z" />
<path fill="#000000" opacity="1.00" d=" M 53.29 77.27 C 56.92 83.02 51.33 84.72 53.29 77.27 Z" />
<path fill="#000000" opacity="1.00" d=" M 62.51 78.52 C 64.83 78.98 66.23 80.62 66.42 82.98 L 65.37 83.00 C 64.90 81.99 64.43 80.99 63.96 79.99 C 62.86 80.47 61.76 80.94 60.65 81.39 C 61.12 80.68 62.04 79.24 62.51 78.52 Z" />
<path fill="#000000" opacity="1.00" d=" M 45.61 81.08 C 46.72 81.04 47.83 81.00 48.94 80.97 C 49.00 81.43 49.11 82.36 49.16 82.83 C 47.43 81.95 45.66 82.57 43.94 83.07 C 43.96 83.80 43.99 85.27 44.01 86.00 L 43.00 86.00 C 43.00 84.79 43.00 83.59 43.00 82.38 C 43.65 82.06 44.95 81.41 45.61 81.08 Z" />
<path fill="#000000" opacity="1.00" d=" M 62.70 83.17 L 63.41 83.04 C 63.26 85.42 61.47 86.85 59.62 88.03 C 56.14 87.97 52.66 87.91 49.20 88.31 C 48.81 87.46 48.16 86.60 48.50 85.62 C 51.49 87.78 55.27 86.81 58.68 87.08 C 60.18 85.96 61.57 84.68 62.70 83.17 Z" />
<path fill="#000000" opacity="1.00" d=" M 103.69 84.18 L 104.00 83.95 C 104.01 85.52 104.02 87.08 104.06 88.65 C 102.84 90.36 101.36 91.85 99.64 93.07 C 96.96 93.00 94.27 92.98 91.59 92.95 C 91.02 92.63 89.88 92.00 89.32 91.68 C 89.01 91.12 88.39 89.99 88.08 89.43 C 88.04 88.21 88.00 86.99 87.96 85.78 C 89.16 86.51 90.36 87.24 91.55 87.98 C 94.26 87.99 96.96 87.99 99.66 88.05 C 101.18 86.95 102.57 85.69 103.69 84.18 M 90.06 89.04 C 89.69 90.58 90.36 91.28 92.08 91.14 L 91.37 91.81 C 93.99 92.02 96.61 92.02 99.24 92.02 L 98.80 91.23 C 100.85 91.42 101.64 89.44 102.69 88.10 C 101.04 88.49 99.39 88.90 97.74 89.29 C 96.32 88.78 94.15 88.42 92.96 89.50 C 92.23 89.39 90.78 89.16 90.06 89.04 C 89.45 88.45 89.45 88.45 90.06 89.04 Z" />
</g>
<g id="#505e4fff">
<path fill="#505e4f" opacity="1.00" d=" M 93.99 69.00 C 97.42 69.00 100.84 68.99 104.27 69.00 C 104.15 71.95 103.39 74.79 102.02 77.39 C 99.01 77.15 96.29 75.90 93.96 74.05 C 93.97 72.36 93.98 70.68 93.99 69.00 M 94.77 70.00 C 94.41 72.84 96.00 74.80 98.40 76.04 C 99.47 76.02 100.54 76.00 101.62 75.99 C 101.94 75.34 102.59 74.04 102.91 73.39 C 102.95 72.26 102.99 71.13 103.03 70.00 C 100.28 70.00 97.52 70.00 94.77 70.00 Z" />
</g>
<g id="#ff77a8ff">
<path fill="#ff77a8" opacity="1.00" d=" M 83.04 70.20 C 83.35 70.43 83.96 70.90 84.26 71.13 L 83.91 71.91 L 83.20 71.88 C 83.16 71.46 83.08 70.62 83.04 70.20 Z" />
</g>
<g id="#ffddddff">
<path fill="#ffdddd" opacity="1.00" d=" M 84.26 71.13 C 85.38 71.07 87.15 73.07 86.57 74.24 C 86.00 74.10 84.87 73.82 84.31 73.68 C 84.21 73.24 84.01 72.35 83.91 71.91 L 84.26 71.13 Z" />
</g>
<g id="#7e2553ff">
<path fill="#7e2553" opacity="1.00" d=" M 96.45 70.28 L 97.00 71.33 C 97.85 72.58 98.45 72.47 98.80 71.02 L 99.92 71.63 C 100.45 71.64 101.51 71.65 102.04 71.65 L 101.82 73.27 L 100.71 73.11 C 99.56 72.90 98.42 72.85 97.27 72.95 L 95.89 73.02 C 96.03 72.33 96.31 70.96 96.45 70.28 Z" />
<path fill="#7e2553" opacity="1.00" d=" M 83.20 71.88 L 83.91 71.91 C 84.01 72.35 84.21 73.24 84.31 73.68 C 84.87 73.82 86.00 74.10 86.57 74.24 C 86.71 74.84 87.00 76.03 87.15 76.62 C 86.77 76.86 86.02 77.33 85.64 77.57 C 85.15 77.88 84.16 78.50 83.67 78.81 C 82.58 78.35 81.48 77.89 80.39 77.44 C 80.00 77.28 79.22 76.95 78.83 76.79 C 78.97 76.10 79.23 74.72 79.37 74.03 C 79.79 74.03 80.62 74.04 81.04 74.05 C 81.40 73.96 82.13 73.79 82.50 73.71 C 82.67 73.25 83.03 72.34 83.20 71.88 Z" />
<path fill="#7e2553" opacity="1.00" d=" M 64.17 75.25 C 69.10 76.85 60.67 79.08 64.17 75.25 Z" />
<path fill="#7e2553" opacity="1.00" d=" M 44.30 76.08 C 45.26 76.50 46.23 76.92 47.20 77.33 C 46.36 78.19 45.53 79.05 44.70 79.92 C 43.74 79.50 42.77 79.08 41.80 78.67 C 42.64 77.81 43.47 76.95 44.30 76.08 Z" />
<path fill="#7e2553" opacity="1.00" d=" M 90.06 89.04 C 89.45 88.45 89.45 88.45 90.06 89.04 Z" />
<path fill="#7e2553" opacity="1.00" d=" M 97.74 89.29 C 99.39 88.90 101.04 88.49 102.69 88.10 C 101.64 89.44 100.85 91.42 98.80 91.23 C 98.60 90.87 98.19 90.13 97.99 89.76 L 97.74 89.29 Z" />
<path fill="#7e2553" opacity="1.00" d=" M 90.06 89.04 C 90.78 89.16 92.23 89.39 92.96 89.50 L 93.22 90.08 C 92.94 90.34 92.37 90.87 92.08 91.14 C 90.36 91.28 89.69 90.58 90.06 89.04 Z" />
</g>
<g id="#d45c8cff">
<path fill="#d45c8c" opacity="1.00" d=" M 79.37 74.03 C 78.88 72.67 79.34 72.14 80.75 72.45 C 80.83 72.85 80.97 73.65 81.04 74.05 C 80.62 74.04 79.79 74.03 79.37 74.03 Z" />
</g>
<g id="#ff004dff">
<path fill="#ff004d" opacity="1.00" d=" M 97.27 72.95 C 98.42 72.85 99.56 72.90 100.71 73.11 C 102.57 75.89 96.62 75.03 97.27 72.95 Z" />
<path fill="#ff004d" opacity="1.00" d=" M 80.39 77.44 C 81.48 77.89 82.58 78.35 83.67 78.81 C 84.16 78.50 85.15 77.88 85.64 77.57 L 86.23 78.86 C 84.29 80.74 81.96 79.59 79.85 78.77 L 80.39 77.44 Z" />
<path fill="#ff004d" opacity="1.00" d=" M 93.22 90.08 C 94.81 90.05 96.44 90.20 97.99 89.76 C 98.19 90.13 98.60 90.87 98.80 91.23 L 99.24 92.02 C 96.61 92.02 93.99 92.02 91.37 91.81 L 92.08 91.14 C 92.37 90.87 92.94 90.34 93.22 90.08 Z" />
</g>
<g id="#00130cff">
<path fill="#00130c" opacity="1.00" d=" M 57.55 82.98 C 54.10 83.84 54.64 74.73 56.64 80.24 C 57.31 81.10 57.61 82.01 57.55 82.98 Z" />
</g>
<g id="#495f4eff">
<path fill="#495f4e" opacity="1.00" d=" M 60.59 84.93 C 61.22 83.71 61.87 82.51 62.53 81.31 C 67.68 90.26 52.85 89.74 47.45 88.64 C 47.01 87.22 46.29 85.96 45.29 84.86 C 45.92 84.92 47.17 85.04 47.80 85.10 L 47.31 84.29 C 51.40 86.49 56.28 86.51 60.59 84.93 M 62.70 83.17 C 61.57 84.68 60.18 85.96 58.68 87.08 C 55.27 86.81 51.49 87.78 48.50 85.62 C 48.16 86.60 48.81 87.46 49.20 88.31 C 52.66 87.91 56.14 87.97 59.62 88.03 C 61.47 86.85 63.26 85.42 63.41 83.04 L 62.70 83.17 Z" />
</g>
<g id="#545d4fff">
<path fill="#545d4f" opacity="1.00" d=" M 101.65 85.95 C 102.24 84.74 102.84 83.53 103.46 82.32 C 110.33 92.84 95.57 96.85 87.94 93.08 C 87.05 90.41 86.78 87.58 87.68 84.87 C 91.85 87.55 97.08 87.61 101.65 85.95 M 103.69 84.18 C 102.57 85.69 101.18 86.95 99.66 88.05 C 96.96 87.99 94.26 87.99 91.55 87.98 C 90.36 87.24 89.16 86.51 87.96 85.78 C 88.00 86.99 88.04 88.21 88.08 89.43 C 88.39 89.99 89.01 91.12 89.32 91.68 C 89.88 92.00 91.02 92.63 91.59 92.95 C 94.27 92.98 96.96 93.00 99.64 93.07 C 101.36 91.85 102.84 90.36 104.06 88.65 C 104.02 87.08 104.01 85.52 104.00 83.95 L 103.69 84.18 Z" />
</g>
</svg>
