<?xml version="1.0" encoding="UTF-8" ?>
<!DOCTYPE svg PUBLIC "-//W3C//DTD SVG 1.1//EN" "http://www.w3.org/Graphics/SVG/1.1/DTD/svg11.dtd">
<svg width="120pt" height="120pt" viewBox="0 0 120 120" version="1.1" xmlns="http://www.w3.org/2000/svg">
<g id="#ff80a4ff">
<path fill="#ff80a4" opacity="1.00" d=" M 8.62 4.82 C 10.57 7.95 12.35 11.17 14.13 14.39 L 14.66 15.37 C 16.72 21.93 18.47 28.58 20.27 35.21 C 22.37 30.70 24.55 26.23 26.54 21.67 C 27.71 22.02 28.89 22.32 30.08 22.59 C 27.22 28.74 24.14 34.79 21.40 41.01 C 20.65 43.30 20.17 45.66 19.81 48.04 C 19.71 53.05 19.77 58.07 19.86 63.08 C 19.46 62.95 18.67 62.69 18.28 62.56 C 16.55 58.45 15.13 54.14 12.50 50.49 C 12.42 49.05 12.30 47.61 12.16 46.18 C 11.07 32.38 7.66 18.74 8.62 4.82 M 13.33 22.65 C 13.72 29.99 14.55 37.34 16.23 44.51 C 16.85 37.10 15.71 29.66 13.33 22.65 Z" />
<path fill="#ff80a4" opacity="1.00" d=" M 29.39 17.75 C 30.17 17.16 31.66 16.41 32.50 17.22 C 31.86 17.85 31.61 18.62 31.75 19.52 C 30.81 20.71 28.00 19.05 29.39 17.75 Z" />
</g>
<g id="#7f0622ff">
<path fill="#7f0622" opacity="1.00" d=" M 42.48 8.26 C 60.49 7.65 78.55 7.67 96.55 8.84 C 94.87 10.15 93.18 11.50 91.57 12.89 C 93.19 15.21 94.78 17.55 96.39 19.88 C 94.41 21.11 92.42 22.33 90.37 23.43 L 89.41 23.23 C 87.00 22.65 84.56 22.19 82.13 21.65 L 82.81 21.39 C 85.74 20.36 88.68 19.34 91.65 18.41 L 92.88 18.08 C 87.26 16.18 80.53 11.40 75.27 16.31 C 73.47 17.44 71.64 18.52 69.74 19.47 C 63.50 19.60 57.29 20.31 51.05 20.49 C 49.69 20.46 48.33 20.37 46.97 20.27 C 47.67 19.42 48.37 18.56 49.07 17.71 C 44.89 18.21 40.71 18.70 36.55 19.28 C 39.38 19.58 42.22 19.86 45.07 20.12 C 43.59 21.50 42.07 22.85 40.67 24.31 C 37.83 23.85 34.98 23.43 32.14 22.97 C 31.63 22.87 30.60 22.68 30.08 22.59 C 28.89 22.32 27.71 22.02 26.54 21.67 C 22.38 19.99 18.50 17.68 14.66 15.37 L 14.13 14.39 C 22.28 8.59 32.98 9.25 42.48 8.26 M 23.52 13.69 C 28.82 13.69 34.10 13.14 39.31 12.23 C 34.04 12.55 28.70 12.55 23.52 13.69 M 59.02 13.89 C 59.03 14.77 59.04 16.52 59.04 17.40 C 64.37 16.77 69.77 15.95 74.50 13.27 C 69.33 13.28 64.18 13.64 59.02 13.89 M 29.39 17.75 C 28.00 19.05 30.81 20.71 31.75 19.52 C 33.53 20.96 34.79 17.11 32.50 17.22 C 31.66 16.41 30.17 17.16 29.39 17.75 Z" />
</g>
<g id="#ffd100ff">
<path fill="#ffd100" opacity="1.00" d=" M 69.74 19.47 C 71.64 18.52 73.47 17.44 75.27 16.31 C 80.71 17.14 86.16 17.98 91.65 18.41 C 88.68 19.34 85.74 20.36 82.81 21.39 C 82.50 19.68 80.46 19.64 79.11 19.81 C 75.97 19.69 72.86 19.49 69.74 19.47 Z" />
<path fill="#ffd100" opacity="1.00" d=" M 45.07 20.12 C 45.54 20.16 46.50 20.23 46.97 20.27 C 48.33 20.37 49.69 20.46 51.05 20.49 C 51.99 21.57 52.94 22.65 53.88 23.73 C 50.46 25.35 47.07 27.00 43.66 28.65 C 42.95 28.99 42.24 29.33 41.53 29.67 C 45.37 31.56 49.13 33.80 52.06 36.98 C 55.27 40.79 57.48 45.58 57.35 50.64 C 57.24 52.74 57.05 54.84 56.73 56.92 C 56.57 57.40 56.26 58.35 56.10 58.83 C 55.71 59.78 55.29 60.73 54.84 61.66 C 54.18 62.85 53.48 64.01 52.73 65.14 C 51.88 66.14 50.97 67.09 50.04 68.01 C 46.22 70.41 41.63 70.59 37.30 69.92 C 36.72 68.47 36.13 67.02 35.57 65.56 C 34.77 63.45 34.02 61.32 33.41 59.15 C 33.25 58.06 33.13 56.98 33.06 55.88 C 33.19 52.65 33.48 49.42 33.64 46.19 C 33.72 44.30 33.77 42.40 33.82 40.51 C 34.82 36.48 36.05 32.51 37.66 28.69 C 38.59 27.18 39.60 25.72 40.67 24.31 C 42.07 22.85 43.59 21.50 45.07 20.12 Z" />
<path fill="#ffd100" opacity="1.00" d=" M 90.37 23.43 C 92.42 22.33 94.41 21.11 96.39 19.88 C 98.36 22.69 100.46 25.40 102.50 28.15 C 101.17 28.01 99.85 27.88 98.53 27.69 C 95.85 26.19 93.18 24.65 90.37 23.43 Z" />
<path fill="#ffd100" opacity="1.00" d=" M 61.38 30.12 C 63.11 29.66 64.84 29.20 66.58 28.74 C 66.94 32.28 67.15 35.83 67.37 39.39 C 66.56 38.75 65.74 38.11 64.93 37.47 L 64.64 36.84 C 63.85 35.09 62.97 33.38 62.11 31.66 C 61.93 31.27 61.56 30.51 61.38 30.12 Z" />
<path fill="#ffd100" opacity="1.00" d=" M 100.75 31.26 C 102.35 31.08 103.95 30.91 105.56 30.73 C 105.55 31.36 105.53 32.61 105.52 33.24 C 103.93 32.57 102.34 31.92 100.75 31.26 Z" />
<path fill="#ffd100" opacity="1.00" d=" M 59.21 34.09 C 58.54 36.00 55.05 34.04 56.78 32.67 C 57.72 32.92 58.53 33.39 59.21 34.09 Z" />
<path fill="#ffd100" opacity="1.00" d=" M 62.02 50.09 L 62.90 50.01 C 64.30 51.00 65.77 52.12 67.57 52.14 C 67.53 53.14 67.49 54.14 67.44 55.13 C 65.66 54.86 63.88 54.59 62.11 54.32 C 62.07 52.91 62.04 51.50 62.02 50.09 Z" />
<path fill="#ffd100" opacity="1.00" d=" M 84.39 51.41 C 85.39 51.68 86.40 51.95 87.40 52.23 C 87.61 52.90 88.01 54.25 88.22 54.92 C 87.41 54.95 85.78 55.00 84.97 55.03 C 84.78 53.82 84.58 52.61 84.39 51.41 Z" />
<path fill="#ffd100" opacity="1.00" d=" M 71.06 52.98 C 72.35 53.00 73.64 53.03 74.93 53.06 C 75.61 54.17 76.30 55.28 76.98 56.39 C 74.93 56.20 72.88 56.04 70.83 55.90 C 70.89 55.17 71.00 53.71 71.06 52.98 Z" />
</g>
<g id="#68aed4ff">
<path fill="#68aed4" opacity="1.00" d=" M 103.29 18.08 C 103.95 18.06 105.27 18.02 105.93 18.01 C 105.83 22.25 105.62 26.49 105.56 30.73 C 103.95 30.91 102.35 31.08 100.75 31.26 C 102.34 31.92 103.93 32.57 105.52 33.24 C 111.30 35.33 116.18 39.25 120.00 44.03 L 120.00 59.15 C 118.70 59.74 117.40 60.35 116.09 60.94 C 113.47 62.12 110.80 63.20 108.11 64.21 C 106.90 64.66 105.70 65.11 104.51 65.56 C 103.55 63.24 102.71 60.87 101.87 58.52 C 101.81 57.06 101.06 56.22 99.63 55.99 C 98.08 55.25 96.54 54.50 95.03 53.68 C 94.74 53.49 94.16 53.11 93.88 52.92 C 93.67 54.59 93.47 56.26 93.28 57.93 C 92.02 58.48 90.77 59.04 89.51 59.60 C 89.07 58.04 88.65 56.48 88.22 54.92 C 88.01 54.25 87.61 52.90 87.40 52.23 C 87.33 52.03 87.17 51.63 87.10 51.43 C 85.73 51.25 82.99 50.88 81.62 50.70 L 80.77 50.55 C 78.19 49.38 77.78 53.57 80.52 53.02 C 82.10 58.16 83.43 63.42 83.97 68.78 C 83.39 69.11 82.22 69.77 81.64 70.10 C 81.36 70.29 80.79 70.69 80.51 70.89 C 79.62 71.61 78.74 72.34 77.87 73.07 C 76.16 73.49 74.44 73.89 72.76 74.41 C 71.53 73.27 70.30 72.12 69.05 70.99 C 68.75 70.73 68.16 70.21 67.86 69.95 C 67.83 69.58 67.77 68.84 67.74 68.47 C 67.69 67.95 67.58 66.89 67.52 66.37 C 67.39 64.88 67.31 63.40 67.28 61.91 C 67.32 60.21 67.40 56.83 67.44 55.13 C 67.49 54.14 67.53 53.14 67.57 52.14 C 67.81 49.62 64.62 49.57 62.90 50.01 L 62.02 50.09 C 60.46 50.25 58.91 50.44 57.35 50.64 C 57.48 45.58 55.27 40.79 52.06 36.98 C 52.78 35.88 53.49 34.79 54.21 33.69 C 50.69 32.02 47.17 30.35 43.66 28.65 C 47.07 27.00 50.46 25.35 53.88 23.73 C 52.94 22.65 51.99 21.57 51.05 20.49 C 57.29 20.31 63.50 19.60 69.74 19.47 C 72.86 19.49 75.97 19.69 79.11 19.81 C 79.88 20.83 80.89 21.44 82.13 21.65 C 84.56 22.19 87.00 22.65 89.41 23.23 C 92.46 24.70 95.40 26.38 98.53 27.69 C 99.85 27.88 101.17 28.01 102.50 28.15 C 102.85 24.80 103.05 21.44 103.29 18.08 M 66.58 28.74 C 64.84 29.20 63.11 29.66 61.38 30.12 C 59.84 30.96 58.31 31.81 56.78 32.67 C 55.05 34.04 58.54 36.00 59.21 34.09 C 60.17 34.90 61.15 35.68 62.14 36.45 L 62.13 37.41 C 62.76 37.27 64.02 36.98 64.64 36.84 L 64.93 37.47 C 65.74 38.11 66.56 38.75 67.37 39.39 C 72.69 42.29 78.60 41.15 83.94 39.02 C 89.19 38.82 90.71 33.45 93.25 29.92 C 84.65 27.01 75.46 28.36 66.58 28.74 M 90.81 45.55 L 91.62 44.94 C 91.76 46.92 95.04 45.34 93.67 43.97 C 99.08 43.10 95.87 35.13 96.76 32.08 C 93.06 35.64 91.08 40.47 90.81 45.55 M 78.59 44.23 C 81.46 45.68 84.37 47.07 87.35 48.30 C 86.71 46.06 86.00 43.83 85.21 41.65 C 83.02 42.54 80.81 43.41 78.59 44.23 M 71.06 52.98 C 71.00 53.71 70.89 55.17 70.83 55.90 L 69.51 55.80 C 70.14 58.33 70.01 61.13 71.28 63.44 C 71.48 65.13 71.69 66.82 71.97 68.51 L 71.59 69.10 C 72.87 69.49 74.15 69.89 75.43 70.28 C 75.67 69.86 76.16 69.02 76.40 68.59 C 77.60 69.85 80.65 68.01 79.60 66.40 L 80.58 66.38 C 80.71 64.85 80.83 63.33 80.96 61.80 C 80.24 60.39 79.52 58.98 78.81 57.57 L 79.38 56.64 C 78.78 56.57 77.58 56.45 76.98 56.39 C 76.30 55.28 75.61 54.17 74.93 53.06 C 73.64 53.03 72.35 53.00 71.06 52.98 Z" />
<path fill="#68aed4" opacity="1.00" d=" M 35.00 26.74 C 36.18 24.77 38.71 24.83 40.67 24.31 C 39.60 25.72 38.59 27.18 37.66 28.69 C 35.99 31.25 34.50 33.92 32.81 36.47 C 31.77 37.65 30.67 38.77 29.51 39.83 C 28.31 40.80 27.03 41.68 25.77 42.57 C 26.65 40.11 27.62 37.69 28.71 35.31 C 29.60 34.07 30.52 32.86 31.42 31.63 C 32.63 30.01 33.80 28.37 35.00 26.74 Z" />
</g>
<g id="#fafdffff">
<path fill="#fafdff" opacity="1.00" d=" M 32.14 22.97 C 34.98 23.43 37.83 23.85 40.67 24.31 C 38.71 24.83 36.18 24.77 35.00 26.74 C 33.72 28.31 32.58 29.98 31.42 31.63 C 30.52 32.86 29.60 34.07 28.71 35.31 C 29.82 31.19 30.65 26.98 32.14 22.97 Z" />
<path fill="#fafdff" opacity="1.00" d=" M 56.78 32.67 C 58.31 31.81 59.84 30.96 61.38 30.12 C 61.56 30.51 61.93 31.27 62.11 31.66 C 62.14 33.25 62.16 34.85 62.14 36.45 C 61.15 35.68 60.17 34.90 59.21 34.09 C 58.53 33.39 57.72 32.92 56.78 32.67 Z" />
<path fill="#fafdff" opacity="1.00" d=" M 29.51 39.83 C 30.67 38.77 31.77 37.65 32.81 36.47 C 33.16 37.81 33.50 39.16 33.82 40.51 C 33.77 42.40 33.72 44.30 33.64 46.19 C 32.23 44.09 30.86 41.97 29.51 39.83 Z" />
<path fill="#fafdff" opacity="1.00" d=" M 19.81 48.04 C 20.17 45.66 20.65 43.30 21.40 41.01 C 23.91 46.86 26.87 53.20 33.06 55.88 C 33.13 56.98 33.25 58.06 33.41 59.15 C 27.31 57.72 22.82 53.41 19.81 48.04 Z" />
<path fill="#fafdff" opacity="1.00" d=" M 7.91 70.05 C 8.01 62.05 8.08 53.33 12.16 46.18 C 12.30 47.61 12.42 49.05 12.50 50.49 C 13.17 59.90 7.48 71.37 14.58 79.39 C 16.84 82.27 19.66 84.63 22.03 87.41 C 20.24 87.55 18.44 87.58 16.64 87.55 C 11.65 83.16 7.01 77.13 7.91 70.05 Z" />
<path fill="#fafdff" opacity="1.00" d=" M 57.35 50.64 C 58.91 50.44 60.46 50.25 62.02 50.09 C 62.04 51.50 62.07 52.91 62.11 54.32 C 60.32 55.21 58.53 56.07 56.73 56.92 C 57.05 54.84 57.24 52.74 57.35 50.64 Z" />
</g>
<g id="#d62411ff">
<path fill="#d62411" opacity="1.00" d=" M 91.62 44.94 C 92.13 44.70 93.16 44.22 93.67 43.97 C 95.04 45.34 91.76 46.92 91.62 44.94 Z" />
<path fill="#d62411" opacity="1.00" d=" M 80.77 50.55 L 81.62 50.70 C 82.31 50.88 83.69 51.23 84.39 51.41 C 84.58 52.61 84.78 53.82 84.97 55.03 C 85.49 58.30 85.98 61.57 86.41 64.85 C 86.52 66.03 86.80 67.17 87.24 68.27 C 87.09 69.45 85.97 71.85 87.64 72.30 C 88.88 71.31 88.44 69.48 88.63 68.09 C 88.72 67.40 88.90 66.03 88.99 65.35 C 89.14 63.43 89.34 61.51 89.51 59.60 C 90.77 59.04 92.02 58.48 93.28 57.93 C 92.50 65.35 91.35 72.77 89.25 79.95 C 88.88 81.17 88.50 82.39 88.09 83.60 C 87.89 84.15 87.49 85.23 87.29 85.78 C 86.36 82.98 85.46 80.18 84.60 77.36 C 84.33 74.51 84.20 71.64 83.97 68.78 C 83.43 63.42 82.10 58.16 80.52 53.02 C 80.58 52.40 80.71 51.17 80.77 50.55 Z" />
<path fill="#d62411" opacity="1.00" d=" M 95.03 53.68 C 96.54 54.50 98.08 55.25 99.63 55.99 C 99.75 57.39 100.49 58.23 101.87 58.52 C 102.71 60.87 103.55 63.24 104.51 65.56 C 106.14 69.42 107.47 73.39 109.01 77.29 C 108.78 72.92 108.41 68.57 108.11 64.21 C 110.80 63.20 113.47 62.12 116.09 60.94 C 115.09 73.03 114.32 85.12 113.90 97.24 C 105.50 83.69 103.43 67.27 95.03 53.68 Z" />
<path fill="#d62411" opacity="1.00" d=" M 73.71 65.80 C 75.44 63.08 77.14 60.34 78.81 57.57 C 79.52 58.98 80.24 60.39 80.96 61.80 C 79.87 63.37 78.79 64.94 77.72 66.51 C 77.24 67.18 76.80 67.87 76.40 68.59 C 76.16 69.02 75.67 69.86 75.43 70.28 C 74.15 69.89 72.87 69.49 71.59 69.10 L 71.97 68.51 C 72.55 67.61 73.14 66.71 73.71 65.80 Z" />
<path fill="#d62411" opacity="1.00" d=" M 69.05 70.99 C 70.30 72.12 71.53 73.27 72.76 74.41 L 72.28 74.64 C 69.39 77.14 66.59 79.75 63.82 82.38 C 62.74 83.33 61.63 84.23 60.52 85.15 C 58.94 84.97 57.47 85.73 56.73 87.14 C 56.54 87.30 56.16 87.60 55.97 87.75 C 58.16 87.33 60.42 86.92 62.64 86.56 C 64.62 86.29 66.61 86.07 68.60 85.84 C 67.39 87.62 66.15 89.37 64.89 91.12 C 57.61 91.98 50.75 94.86 43.72 96.80 C 34.58 99.18 25.84 102.99 17.66 107.69 C 36.36 108.10 55.07 108.46 73.79 108.53 C 82.50 108.36 91.18 112.99 99.78 109.82 C 83.74 104.31 66.77 104.22 50.08 103.06 C 50.04 102.24 49.98 100.59 49.94 99.77 C 60.05 100.04 70.18 100.50 80.21 101.86 C 86.36 103.07 92.54 104.18 98.67 105.55 C 100.49 106.19 102.26 106.95 104.05 107.68 C 104.08 108.65 104.15 110.59 104.18 111.57 C 83.40 119.56 60.79 115.25 39.40 120.00 L 25.01 120.00 C 29.06 118.01 33.08 115.99 37.16 114.06 C 29.13 112.63 21.04 111.53 13.01 110.08 C 17.02 102.26 25.88 99.82 32.91 95.65 C 33.62 95.20 34.33 94.73 35.04 94.26 C 37.73 92.48 40.40 90.69 43.17 89.02 C 45.21 88.07 47.26 87.13 49.34 86.25 C 50.07 85.95 50.80 85.64 51.52 85.32 C 52.56 84.82 53.59 84.31 54.61 83.76 C 57.16 82.34 59.74 80.91 62.03 79.09 C 64.00 77.57 65.84 75.88 67.42 73.95 C 68.00 72.99 68.54 72.00 69.05 70.99 M 56.54 112.59 C 65.12 113.97 73.82 113.47 82.40 112.37 C 73.78 112.12 65.15 112.11 56.54 112.59 Z" />
</g>
<g id="#ff2674ff">
<path fill="#ff2674" opacity="1.00" d=" M 56.10 58.83 C 59.83 59.84 63.56 60.87 67.28 61.91 C 67.31 63.40 67.39 64.88 67.52 66.37 C 66.44 65.89 65.34 65.46 64.23 65.07 C 61.10 63.93 57.97 62.79 54.84 61.66 C 55.29 60.73 55.71 59.78 56.10 58.83 Z" />
<path fill="#ff2674" opacity="1.00" d=" M 71.28 63.44 C 72.07 64.25 72.88 65.03 73.71 65.80 C 73.14 66.71 72.55 67.61 71.97 68.51 C 71.69 66.82 71.48 65.13 71.28 63.44 Z" />
<path fill="#ff2674" opacity="1.00" d=" M 86.41 64.85 C 87.06 64.97 88.34 65.22 88.99 65.35 C 88.90 66.03 88.72 67.40 88.63 68.09 C 88.29 68.13 87.59 68.23 87.24 68.27 C 86.80 67.17 86.52 66.03 86.41 64.85 Z" />
<path fill="#ff2674" opacity="1.00" d=" M 34.74 66.76 C 34.94 66.46 35.36 65.86 35.57 65.56 C 36.13 67.02 36.72 68.47 37.30 69.92 C 35.56 72.55 33.81 75.20 32.48 78.07 C 31.69 80.57 31.16 83.14 30.50 85.67 C 32.51 85.74 36.51 85.86 38.52 85.92 C 42.12 86.04 45.73 86.27 49.34 86.25 C 47.26 87.13 45.21 88.07 43.17 89.02 C 41.36 89.07 37.75 89.16 35.95 89.21 C 35.21 89.18 33.74 89.12 33.00 89.09 C 32.48 89.16 31.44 89.29 30.92 89.36 C 32.28 91.01 33.65 92.64 35.04 94.26 C 34.33 94.73 33.62 95.20 32.91 95.65 C 23.53 88.21 11.12 90.28 0.00 89.77 L 0.00 86.98 C 5.55 87.15 11.10 87.38 16.64 87.55 C 18.44 87.58 20.24 87.55 22.03 87.41 C 28.54 86.13 28.53 78.29 30.79 73.47 C 31.98 71.16 33.34 68.95 34.74 66.76 Z" />
<path fill="#ff2674" opacity="1.00" d=" M 77.72 66.51 C 78.19 66.48 79.13 66.43 79.60 66.40 C 80.65 68.01 77.60 69.85 76.40 68.59 C 76.80 67.87 77.24 67.18 77.72 66.51 Z" />
<path fill="#ff2674" opacity="1.00" d=" M 77.87 73.07 C 78.74 72.34 79.62 71.61 80.51 70.89 C 80.71 72.41 82.17 73.16 83.32 73.93 C 83.75 75.07 84.20 76.21 84.60 77.36 C 85.46 80.18 86.36 82.98 87.29 85.78 C 86.40 94.23 77.52 95.34 70.77 95.36 C 67.11 94.83 63.47 93.94 59.76 94.00 C 54.43 95.03 49.09 96.02 43.72 96.80 C 50.75 94.86 57.61 91.98 64.89 91.12 C 71.80 91.68 79.00 92.11 84.98 88.05 C 84.43 86.60 83.34 83.71 82.79 82.27 C 81.43 79.06 79.64 76.06 77.87 73.07 Z" />
<path fill="#ff2674" opacity="1.00" d=" M 62.03 79.09 C 63.85 77.40 65.60 75.64 67.42 73.95 C 65.84 75.88 64.00 77.57 62.03 79.09 Z" />
<path fill="#ff2674" opacity="1.00" d=" M 60.52 85.15 C 61.63 84.23 62.74 83.33 63.82 82.38 C 63.40 83.77 63.01 85.16 62.64 86.56 C 60.42 86.92 58.16 87.33 55.97 87.75 C 56.16 87.60 56.54 87.30 56.73 87.14 C 58.33 87.42 59.86 86.65 60.52 85.15 Z" />
</g>
<g id="#bfff3cff">
<path fill="#bfff3c" opacity="1.00" d=" M 50.04 68.01 C 50.97 67.09 51.88 66.14 52.73 65.14 C 56.56 65.27 60.39 65.05 64.23 65.07 C 65.34 65.46 66.44 65.89 67.52 66.37 C 67.58 66.89 67.69 67.95 67.74 68.47 C 67.17 67.56 64.86 66.71 64.69 68.32 C 65.33 69.43 66.79 69.48 67.86 69.95 C 68.16 70.21 68.75 70.73 69.05 70.99 C 68.54 72.00 68.00 72.99 67.42 73.95 C 64.38 72.49 61.32 71.06 58.29 69.57 C 55.21 73.69 52.75 78.59 54.61 83.76 C 53.59 84.31 52.56 84.82 51.52 85.32 C 50.55 79.60 50.79 73.74 53.88 68.64 C 52.60 68.43 51.32 68.22 50.04 68.01 Z" />
<path fill="#bfff3c" opacity="1.00" d=" M 30.79 73.47 C 31.77 71.05 33.21 68.87 34.74 66.76 C 33.34 68.95 31.98 71.16 30.79 73.47 Z" />
<path fill="#bfff3c" opacity="1.00" d=" M 80.51 70.89 C 80.79 70.69 81.36 70.29 81.64 70.10 C 82.78 71.04 82.96 72.59 83.32 73.93 C 82.17 73.16 80.71 72.41 80.51 70.89 Z" />
<path fill="#bfff3c" opacity="1.00" d=" M 72.76 74.41 C 74.44 73.89 76.16 73.49 77.87 73.07 C 79.64 76.06 81.43 79.06 82.79 82.27 C 81.99 82.24 81.19 82.22 80.40 82.20 C 77.88 79.48 75.07 77.06 72.28 74.64 L 72.76 74.41 Z" />
<path fill="#bfff3c" opacity="1.00" d=" M 30.50 85.67 C 31.16 83.14 31.69 80.57 32.48 78.07 C 34.41 80.75 36.53 83.29 38.52 85.92 C 36.51 85.86 32.51 85.74 30.50 85.67 Z" />
<path fill="#bfff3c" opacity="1.00" d=" M 89.25 79.95 C 99.43 84.60 109.37 91.87 112.40 103.24 C 107.90 104.42 103.28 105.04 98.67 105.55 C 92.54 104.18 86.36 103.07 80.21 101.86 C 73.12 99.99 66.17 97.58 59.76 94.00 C 63.47 93.94 67.11 94.83 70.77 95.36 C 83.11 98.97 95.74 102.85 108.79 101.35 C 103.80 93.49 96.70 87.22 88.09 83.60 C 88.50 82.39 88.88 81.17 89.25 79.95 Z" />
<path fill="#bfff3c" opacity="1.00" d=" M 33.00 89.09 C 33.74 89.12 35.21 89.18 35.95 89.21 C 35.46 90.73 33.31 90.72 33.00 89.09 Z" />
</g>
</svg>
