<?xml version="1.0" encoding="UTF-8" ?>
<!DOCTYPE svg PUBLIC "-//W3C//DTD SVG 1.1//EN" "http://www.w3.org/Graphics/SVG/1.1/DTD/svg11.dtd">
<svg width="176pt" height="155pt" viewBox="0 0 176 155" version="1.1" xmlns="http://www.w3.org/2000/svg">
<g id="#181d3dff">
<path fill="#181d3d" opacity="1.00" d=" M 52.11 62.58 C 55.79 60.77 59.89 59.96 63.99 60.22 C 73.60 60.49 83.24 59.93 92.84 60.46 C 98.26 61.57 104.01 60.71 109.19 62.91 C 113.37 64.32 116.03 68.03 119.57 70.44 C 122.22 72.39 125.30 73.97 127.17 76.77 C 130.03 81.19 133.87 85.02 138.47 87.59 C 142.45 89.76 147.10 89.69 151.41 90.70 C 153.87 92.12 155.91 94.15 157.84 96.22 C 154.03 94.30 150.64 91.15 146.23 90.76 C 143.06 90.08 141.03 93.34 138.22 94.14 C 133.49 95.55 128.48 95.48 123.66 96.38 C 125.55 98.45 128.47 97.91 130.98 98.00 C 139.13 97.83 147.11 99.74 155.15 100.72 C 158.52 101.03 161.91 101.28 165.26 101.82 C 163.39 100.31 161.54 98.78 159.65 97.31 C 163.15 98.27 166.56 100.46 168.31 103.70 C 168.89 106.65 168.75 109.68 169.17 112.65 C 169.29 114.25 169.71 116.09 168.61 117.46 C 165.64 120.94 162.08 123.99 157.91 125.95 C 157.37 124.04 156.98 122.10 156.81 120.14 C 156.54 117.65 156.34 114.56 153.82 113.27 C 152.97 112.72 152.09 112.23 151.18 111.79 C 147.15 110.61 142.83 110.89 138.75 111.65 C 131.52 115.15 128.57 123.38 121.72 127.36 C 114.86 126.06 107.88 127.26 100.96 126.76 C 90.03 126.86 79.21 124.55 68.29 124.87 C 67.35 122.87 66.62 120.60 64.76 119.24 C 63.01 115.87 59.61 113.48 58.62 109.75 C 62.58 114.09 67.30 117.89 69.64 123.46 C 74.96 123.60 80.28 123.98 85.50 125.07 C 81.78 118.18 80.00 110.52 77.47 103.17 C 75.35 98.98 75.47 94.22 74.16 89.82 C 71.52 84.08 69.09 78.17 67.91 71.94 C 67.21 68.45 71.94 69.09 74.10 68.29 C 69.97 68.18 65.85 67.83 61.74 67.44 C 58.94 67.22 56.13 67.17 53.34 66.87 C 51.41 66.58 49.45 65.76 47.49 66.26 C 46.33 67.62 45.40 69.16 44.37 70.62 C 44.25 70.74 44.02 71.00 43.90 71.13 C 43.80 71.24 43.60 71.47 43.49 71.58 C 41.46 72.61 39.68 74.57 40.29 77.02 C 39.76 77.32 38.70 77.94 38.17 78.25 C 39.13 72.96 43.72 69.73 46.50 65.45 C 47.31 64.64 47.95 63.04 49.33 63.25 C 50.34 63.41 51.27 63.19 52.11 62.58 M 48.80 64.68 C 54.85 65.90 61.05 65.73 67.15 66.51 C 77.98 67.20 88.86 66.53 99.68 67.37 C 104.18 66.52 108.73 65.75 113.28 66.82 C 109.52 63.19 104.06 62.08 99.00 62.01 C 95.30 62.02 91.72 60.84 88.01 60.99 C 78.70 61.09 69.37 60.83 60.06 61.13 C 56.28 62.20 52.62 63.69 48.80 64.68 M 87.64 68.75 C 90.71 69.00 93.78 68.88 96.86 68.85 L 96.89 68.13 C 93.82 68.28 90.56 67.55 87.64 68.75 M 99.98 69.29 C 105.21 70.02 105.93 75.83 108.66 79.36 C 112.00 84.02 114.20 89.32 116.41 94.57 C 117.22 96.93 119.25 98.40 120.93 100.09 C 122.42 101.49 121.66 103.68 121.72 105.45 L 120.97 105.10 C 121.12 112.08 124.01 119.52 120.41 126.13 C 126.55 123.78 129.63 117.67 133.96 113.17 C 136.45 112.39 138.13 109.63 140.96 109.98 C 144.25 109.95 147.56 109.82 150.84 110.13 C 153.35 110.49 155.08 112.60 157.35 113.54 C 160.66 113.79 164.02 113.85 167.26 114.74 C 168.19 110.99 168.64 106.81 166.81 103.25 C 162.60 102.46 158.36 101.97 154.08 101.85 C 145.42 100.57 136.75 98.67 127.95 99.05 C 126.74 99.09 125.55 99.00 124.36 98.77 C 119.10 94.48 115.64 88.50 112.31 82.69 C 109.90 78.29 107.45 73.34 108.53 68.18 C 105.67 68.33 102.61 67.90 99.98 69.29 M 109.25 71.12 C 112.84 78.90 116.30 86.94 121.44 93.83 C 126.61 95.25 132.15 93.88 137.33 92.97 C 138.63 92.24 141.76 92.56 140.78 90.34 C 138.40 88.47 135.67 87.14 133.00 85.77 C 134.59 87.72 135.98 89.85 136.93 92.20 C 128.77 84.38 121.00 76.13 112.82 68.34 C 110.91 68.03 110.07 69.74 109.25 71.12 M 69.02 71.17 C 70.12 75.77 71.57 80.30 73.40 84.66 C 80.23 86.20 87.44 84.11 94.08 86.57 C 98.59 87.85 103.41 86.63 107.89 88.07 C 109.11 88.74 110.01 87.40 111.00 86.90 C 109.59 82.67 106.53 79.33 104.64 75.34 C 103.79 73.92 103.18 72.17 101.61 71.39 C 98.03 69.44 93.85 70.34 89.97 69.96 C 83.05 69.25 75.58 68.37 69.02 71.17 M 75.59 94.76 C 78.79 95.00 82.00 95.09 85.21 94.88 C 83.90 93.45 81.69 93.96 79.97 93.66 C 78.57 93.92 76.05 92.83 75.59 94.76 M 87.02 95.00 L 87.05 95.81 C 90.24 95.88 93.40 97.00 96.60 96.54 C 100.07 95.82 103.48 97.59 106.98 96.92 C 109.76 96.44 112.67 96.30 115.30 95.19 C 105.88 95.30 96.45 95.09 87.02 95.00 M 76.11 96.00 C 77.71 99.58 79.29 103.19 80.28 107.00 C 81.71 113.14 83.98 119.28 87.55 124.52 C 95.47 125.10 103.48 123.89 111.32 125.39 C 113.69 125.80 116.11 125.72 118.50 125.59 C 121.40 121.06 121.65 115.07 119.77 110.12 C 119.95 107.25 120.57 104.39 120.49 101.51 C 118.40 99.26 115.72 96.02 112.27 97.26 C 107.87 98.43 103.31 97.98 98.82 97.81 C 91.15 98.46 83.81 95.09 76.11 96.00 M 158.77 115.04 C 157.43 117.88 158.17 121.08 158.27 124.08 C 161.12 122.74 163.64 120.83 165.88 118.63 C 163.50 117.46 161.08 116.36 158.77 115.04 Z" />
<path fill="#181d3d" opacity="1.00" d=" M 44.37 70.62 C 45.57 69.62 46.78 68.65 48.03 67.72 C 52.82 67.49 57.59 68.88 62.36 67.98 C 66.95 75.12 71.97 83.69 69.70 92.49 C 60.86 93.03 52.04 91.89 43.20 92.03 C 40.55 91.63 37.98 90.81 35.45 89.94 C 35.26 85.12 38.32 81.16 40.29 77.02 C 42.04 75.68 43.03 73.70 43.49 71.58 C 43.60 71.47 43.80 71.24 43.90 71.13 C 44.02 71.00 44.25 70.74 44.37 70.62 M 50.45 68.92 C 49.23 75.81 49.70 82.85 49.00 89.79 C 52.30 89.87 55.60 89.87 58.90 89.81 C 57.90 87.81 56.91 85.79 55.90 83.80 C 58.59 81.24 62.50 81.20 65.70 79.64 C 65.92 76.30 63.10 73.24 61.81 70.17 C 57.99 70.06 54.24 69.29 50.45 68.92 Z" />
<path fill="#181d3d" opacity="1.00" d=" M 35.68 81.65 C 36.07 81.28 36.86 80.52 37.25 80.15 C 35.57 85.67 32.57 90.58 29.40 95.35 C 26.77 100.79 24.00 107.27 26.42 113.27 C 29.14 113.78 31.85 114.41 34.52 115.15 C 35.50 111.88 37.47 108.85 40.88 107.75 C 46.41 108.29 52.15 107.15 57.54 108.83 C 51.43 109.06 44.97 107.66 39.16 110.10 C 36.01 111.51 36.71 116.33 34.11 117.94 C 31.24 116.71 28.50 115.16 25.48 114.31 C 24.13 110.54 23.62 106.31 24.61 102.40 C 27.83 95.25 31.72 88.42 35.68 81.65 Z" />
<path fill="#181d3d" opacity="1.00" d=" M 78.63 98.46 C 81.49 99.47 84.49 99.50 87.37 98.58 C 86.00 101.29 82.96 100.74 80.42 100.59 C 79.83 99.88 79.23 99.17 78.63 98.46 Z" />
<path fill="#181d3d" opacity="1.00" d=" M 46.39 112.45 C 50.44 111.32 55.15 111.78 58.44 114.56 C 62.50 118.04 65.38 123.77 63.04 129.04 C 62.46 134.09 57.01 135.79 52.79 136.74 C 48.62 137.07 43.57 136.79 40.72 133.27 C 38.63 131.07 38.13 127.89 37.86 125.00 C 37.32 119.48 41.34 114.26 46.39 112.45 M 44.72 124.00 C 44.25 123.05 43.79 122.09 43.31 121.14 C 42.57 123.26 41.58 125.84 43.11 127.86 C 44.78 130.04 47.00 132.56 50.01 132.40 C 54.26 132.91 57.01 128.88 58.26 125.37 C 56.95 126.45 55.61 127.51 54.25 128.53 C 54.77 126.78 55.80 125.11 55.80 123.26 C 55.32 121.00 53.13 119.32 50.90 119.05 C 47.94 119.17 46.38 121.97 44.72 124.00 Z" />
<path fill="#181d3d" opacity="1.00" d=" M 141.37 114.32 C 145.87 112.96 149.30 116.98 152.42 119.55 C 155.99 122.46 155.15 127.60 154.58 131.61 C 152.27 138.26 143.94 140.29 137.83 138.12 C 133.68 136.49 130.61 132.40 130.21 127.96 C 128.71 121.24 134.90 114.92 141.37 114.32 Z" />
<path fill="#181d3d" opacity="1.00" d=" M 50.92 121.24 C 51.25 121.26 51.90 121.30 52.23 121.32 C 52.68 122.95 53.19 124.56 53.74 126.16 C 52.13 126.36 50.16 127.71 48.83 126.18 C 48.04 125.39 47.39 124.50 46.71 123.63 C 47.75 123.40 48.79 123.18 49.83 122.96 C 50.19 122.38 50.55 121.81 50.92 121.24 Z" />
</g>
<g id="#fefcfbff">
<path fill="#fefcfb" opacity="1.00" d=" M 48.80 64.68 C 52.62 63.69 56.28 62.20 60.06 61.13 C 69.37 60.83 78.70 61.09 88.01 60.99 C 91.72 60.84 95.30 62.02 99.00 62.01 C 104.06 62.08 109.52 63.19 113.28 66.82 C 108.73 65.75 104.18 66.52 99.68 67.37 C 88.86 66.53 77.98 67.20 67.15 66.51 C 61.05 65.73 54.85 65.90 48.80 64.68 Z" />
<path fill="#fefcfb" opacity="1.00" d=" M 49.33 63.25 C 49.82 61.56 50.75 61.34 52.11 62.58 C 51.27 63.19 50.34 63.41 49.33 63.25 Z" />
<path fill="#fefcfb" opacity="1.00" d=" M 138.22 94.14 C 141.03 93.34 143.06 90.08 146.23 90.76 C 150.64 91.15 154.03 94.30 157.84 96.22 C 158.29 96.49 159.20 97.04 159.65 97.31 C 161.54 98.78 163.39 100.31 165.26 101.82 C 161.91 101.28 158.52 101.03 155.15 100.72 C 147.11 99.74 139.13 97.83 130.98 98.00 C 128.47 97.91 125.55 98.45 123.66 96.38 C 128.48 95.48 133.49 95.55 138.22 94.14 Z" />
<path fill="#fefcfb" opacity="1.00" d=" M 40.88 107.75 C 46.30 105.29 52.45 107.32 58.13 107.58 C 58.22 107.97 58.38 108.74 58.47 109.13 L 57.54 108.83 C 52.15 107.15 46.41 108.29 40.88 107.75 Z" />
</g>
<g id="#f7bca2ff">
<path fill="#f7bca2" opacity="1.00" d=" M 47.49 66.26 C 49.45 65.76 51.41 66.58 53.34 66.87 C 51.56 67.11 49.79 67.38 48.03 67.72 C 46.78 68.65 45.57 69.62 44.37 70.62 C 45.40 69.16 46.33 67.62 47.49 66.26 Z" />
<path fill="#f7bca2" opacity="1.00" d=" M 87.64 68.75 C 90.56 67.55 93.82 68.28 96.89 68.13 L 96.86 68.85 C 93.78 68.88 90.71 69.00 87.64 68.75 Z" />
<path fill="#f7bca2" opacity="1.00" d=" M 43.90 71.13 C 44.02 71.00 44.25 70.74 44.37 70.62 C 44.25 70.74 44.02 71.00 43.90 71.13 Z" />
<path fill="#f7bca2" opacity="1.00" d=" M 40.29 77.02 C 39.68 74.57 41.46 72.61 43.49 71.58 C 43.03 73.70 42.04 75.68 40.29 77.02 Z" />
<path fill="#f7bca2" opacity="1.00" d=" M 38.17 78.25 C 38.70 77.94 39.76 77.32 40.29 77.02 C 38.32 81.16 35.26 85.12 35.45 89.94 C 37.98 90.81 40.55 91.63 43.20 92.03 C 41.16 92.28 39.13 92.68 37.12 93.08 C 40.20 94.73 44.05 98.71 47.37 95.50 C 50.23 96.80 53.30 95.05 56.28 95.36 C 60.58 95.66 65.54 94.97 69.04 98.00 C 71.64 100.02 73.97 102.84 77.47 103.17 C 80.00 110.52 81.78 118.18 85.50 125.07 C 80.28 123.98 74.96 123.60 69.64 123.46 C 67.30 117.89 62.58 114.09 58.62 109.75 L 58.47 109.13 C 58.38 108.74 58.22 107.97 58.13 107.58 C 52.45 107.32 46.30 105.29 40.88 107.75 C 37.47 108.85 35.50 111.88 34.52 115.15 C 31.85 114.41 29.14 113.78 26.42 113.27 C 24.00 107.27 26.77 100.79 29.40 95.35 C 32.57 90.58 35.57 85.67 37.25 80.15 C 37.48 79.67 37.94 78.72 38.17 78.25 Z" />
<path fill="#f7bca2" opacity="1.00" d=" M 120.97 105.10 L 121.72 105.45 C 126.72 107.71 132.35 109.16 137.79 107.70 C 136.53 109.54 135.29 111.38 133.96 113.17 C 129.63 117.67 126.55 123.78 120.41 126.13 C 124.01 119.52 121.12 112.08 120.97 105.10 Z" />
<path fill="#f7bca2" opacity="1.00" d=" M 80.28 107.00 C 85.09 107.39 89.90 107.87 94.67 108.59 C 102.32 109.80 109.92 107.79 117.52 107.27 C 118.28 108.21 119.05 109.15 119.77 110.12 C 121.65 115.07 121.40 121.06 118.50 125.59 C 116.11 125.72 113.69 125.80 111.32 125.39 C 103.48 123.89 95.47 125.10 87.55 124.52 C 83.98 119.28 81.71 113.14 80.28 107.00 Z" />
<path fill="#f7bca2" opacity="1.00" d=" M 158.77 115.04 C 161.08 116.36 163.50 117.46 165.88 118.63 C 163.64 120.83 161.12 122.74 158.27 124.08 C 158.17 121.08 157.43 117.88 158.77 115.04 Z" />
<path fill="#f7bca2" opacity="1.00" d=" M 64.76 119.24 C 66.62 120.60 67.35 122.87 68.29 124.87 C 66.05 123.85 65.45 121.36 64.76 119.24 Z" />
</g>
<g id="#7fa4ecff">
<path fill="#7fa4ec" opacity="1.00" d=" M 48.03 67.72 C 49.79 67.38 51.56 67.11 53.34 66.87 C 56.13 67.17 58.94 67.22 61.74 67.44 L 62.36 67.98 C 57.59 68.88 52.82 67.49 48.03 67.72 Z" />
<path fill="#7fa4ec" opacity="1.00" d=" M 50.45 68.92 C 54.24 69.29 57.99 70.06 61.81 70.17 C 63.10 73.24 65.92 76.30 65.70 79.64 C 62.50 81.20 58.59 81.24 55.90 83.80 C 56.91 85.79 57.90 87.81 58.90 89.81 C 55.60 89.87 52.30 89.87 49.00 89.79 C 49.70 82.85 49.23 75.81 50.45 68.92 Z" />
<path fill="#7fa4ec" opacity="1.00" d=" M 69.02 71.17 C 75.58 68.37 83.05 69.25 89.97 69.96 C 93.85 70.34 98.03 69.44 101.61 71.39 C 103.18 72.17 103.79 73.92 104.64 75.34 C 106.53 79.33 109.59 82.67 111.00 86.90 C 110.01 87.40 109.11 88.74 107.89 88.07 C 103.41 86.63 98.59 87.85 94.08 86.57 C 87.44 84.11 80.23 86.20 73.40 84.66 C 71.57 80.30 70.12 75.77 69.02 71.17 Z" />
<path fill="#7fa4ec" opacity="1.00" d=" M 133.00 85.77 C 135.67 87.14 138.40 88.47 140.78 90.34 C 141.76 92.56 138.63 92.24 137.33 92.97 L 136.93 92.20 C 135.98 89.85 134.59 87.72 133.00 85.77 Z" />
<path fill="#7fa4ec" opacity="1.00" d=" M 44.72 124.00 C 46.38 121.97 47.94 119.17 50.90 119.05 C 53.13 119.32 55.32 121.00 55.80 123.26 C 55.80 125.11 54.77 126.78 54.25 128.53 C 55.61 127.51 56.95 126.45 58.26 125.37 C 57.01 128.88 54.26 132.91 50.01 132.40 C 47.00 132.56 44.78 130.04 43.11 127.86 C 41.58 125.84 42.57 123.26 43.31 121.14 C 43.79 122.09 44.25 123.05 44.72 124.00 M 50.92 121.24 C 50.55 121.81 50.19 122.38 49.83 122.96 C 48.79 123.18 47.75 123.40 46.71 123.63 C 47.39 124.50 48.04 125.39 48.83 126.18 C 50.16 127.71 52.13 126.36 53.74 126.16 C 53.19 124.56 52.68 122.95 52.23 121.32 C 51.90 121.30 51.25 121.26 50.92 121.24 Z" />
</g>
<g id="#ffe1d0ff">
<path fill="#ffe1d0" opacity="1.00" d=" M 61.74 67.44 C 65.85 67.83 69.97 68.18 74.10 68.29 C 71.94 69.09 67.21 68.45 67.91 71.94 C 69.09 78.17 71.52 84.08 74.16 89.82 C 75.47 94.22 75.35 98.98 77.47 103.17 C 73.97 102.84 71.64 100.02 69.04 98.00 C 65.54 94.97 60.58 95.66 56.28 95.36 C 53.30 95.05 50.23 96.80 47.37 95.50 C 44.05 98.71 40.20 94.73 37.12 93.08 C 39.13 92.68 41.16 92.28 43.20 92.03 C 52.04 91.89 60.86 93.03 69.70 92.49 C 71.97 83.69 66.95 75.12 62.36 67.98 L 61.74 67.44 Z" />
<path fill="#ffe1d0" opacity="1.00" d=" M 99.98 69.29 C 102.61 67.90 105.67 68.33 108.53 68.18 C 107.45 73.34 109.90 78.29 112.31 82.69 C 115.64 88.50 119.10 94.48 124.36 98.77 C 125.55 99.00 126.74 99.09 127.95 99.05 C 136.75 98.67 145.42 100.57 154.08 101.85 C 158.36 101.97 162.60 102.46 166.81 103.25 C 168.64 106.81 168.19 110.99 167.26 114.74 C 164.02 113.85 160.66 113.79 157.35 113.54 C 155.08 112.60 153.35 110.49 150.84 110.13 C 147.56 109.82 144.25 109.95 140.96 109.98 C 138.13 109.63 136.45 112.39 133.96 113.17 C 135.29 111.38 136.53 109.54 137.79 107.70 C 132.35 109.16 126.72 107.71 121.72 105.45 C 121.66 103.68 122.42 101.49 120.93 100.09 C 119.25 98.40 117.22 96.93 116.41 94.57 C 114.20 89.32 112.00 84.02 108.66 79.36 C 105.93 75.83 105.21 70.02 99.98 69.29 Z" />
<path fill="#ffe1d0" opacity="1.00" d=" M 43.49 71.58 C 43.60 71.47 43.80 71.24 43.90 71.13 C 43.80 71.24 43.60 71.47 43.49 71.58 Z" />
<path fill="#ffe1d0" opacity="1.00" d=" M 75.59 94.76 C 76.05 92.83 78.57 93.92 79.97 93.66 C 81.69 93.96 83.90 93.45 85.21 94.88 C 82.00 95.09 78.79 95.00 75.59 94.76 Z" />
<path fill="#ffe1d0" opacity="1.00" d=" M 87.02 95.00 C 96.45 95.09 105.88 95.30 115.30 95.19 C 112.67 96.30 109.76 96.44 106.98 96.92 C 103.48 97.59 100.07 95.82 96.60 96.54 C 93.40 97.00 90.24 95.88 87.05 95.81 L 87.02 95.00 Z" />
<path fill="#ffe1d0" opacity="1.00" d=" M 76.11 96.00 C 83.81 95.09 91.15 98.46 98.82 97.81 C 103.31 97.98 107.87 98.43 112.27 97.26 C 115.72 96.02 118.40 99.26 120.49 101.51 C 120.57 104.39 119.95 107.25 119.77 110.12 C 119.05 109.15 118.28 108.21 117.52 107.27 C 109.92 107.79 102.32 109.80 94.67 108.59 C 89.90 107.87 85.09 107.39 80.28 107.00 C 79.29 103.19 77.71 99.58 76.11 96.00 M 78.63 98.46 C 79.23 99.17 79.83 99.88 80.42 100.59 C 82.96 100.74 86.00 101.29 87.37 98.58 C 84.49 99.50 81.49 99.47 78.63 98.46 Z" />
<path fill="#ffe1d0" opacity="1.00" d=" M 138.75 111.65 C 142.83 110.89 147.15 110.61 151.18 111.79 C 147.04 111.66 142.90 111.65 138.75 111.65 Z" />
<path fill="#ffe1d0" opacity="1.00" d=" M 153.82 113.27 C 156.34 114.56 156.54 117.65 156.81 120.14 C 155.62 117.94 154.62 115.64 153.82 113.27 Z" />
</g>
<g id="#d6ebfeff">
<path fill="#d6ebfe" opacity="1.00" d=" M 109.25 71.12 C 110.07 69.74 110.91 68.03 112.82 68.34 C 121.00 76.13 128.77 84.38 136.93 92.20 L 137.33 92.97 C 132.15 93.88 126.61 95.25 121.44 93.83 C 116.30 86.94 112.84 78.90 109.25 71.12 Z" />
</g>
</svg>
