<?xml version="1.0" encoding="UTF-8" ?>
<!DOCTYPE svg PUBLIC "-//W3C//DTD SVG 1.1//EN" "http://www.w3.org/Graphics/SVG/1.1/DTD/svg11.dtd">
<svg width="200pt" height="200pt" viewBox="0 0 200 200" version="1.1" xmlns="http://www.w3.org/2000/svg">
<g id="#000000ff">
<path fill="#000000" opacity="1.00" d=" M 105.57 24.87 C 113.68 24.36 124.10 22.89 128.90 31.11 C 131.13 36.96 132.48 44.28 128.76 49.85 C 124.98 57.17 118.73 63.42 117.89 71.99 C 117.16 78.60 117.36 87.01 123.38 91.24 C 129.03 83.57 131.23 72.94 139.70 67.61 C 148.34 62.40 159.03 63.22 168.36 65.70 C 177.28 70.10 185.55 77.25 189.40 86.60 C 191.51 93.90 194.36 100.98 196.15 108.38 C 192.70 106.00 189.35 103.50 185.97 101.04 C 186.26 102.06 186.55 103.08 186.85 104.09 C 184.13 101.38 181.46 98.62 178.85 95.80 C 184.50 98.78 189.79 102.36 195.08 105.91 C 190.51 96.90 189.70 86.07 182.53 78.45 C 177.80 72.44 171.08 68.76 164.48 65.22 C 168.21 70.57 172.15 75.90 174.30 82.13 C 170.21 75.93 167.03 68.09 159.20 65.76 C 153.36 64.90 147.49 66.10 141.74 67.10 C 148.40 69.09 155.74 70.13 161.15 74.90 C 166.74 79.62 169.83 86.44 172.00 93.26 C 167.95 86.75 164.79 79.38 158.53 74.60 C 153.31 70.54 146.47 69.54 140.08 69.03 C 131.21 75.02 130.04 87.37 121.08 93.30 C 118.08 86.70 115.48 79.61 116.34 72.22 C 118.01 63.79 123.21 56.78 127.50 49.54 C 132.01 41.78 130.32 29.35 120.71 26.31 C 112.94 22.92 104.97 27.07 99.71 32.87 C 103.41 36.27 105.88 42.38 111.55 42.75 C 113.28 42.94 116.75 43.30 118.48 43.49 C 113.54 54.86 104.19 63.59 99.03 74.83 C 95.17 85.02 94.54 96.20 95.07 106.98 C 96.62 114.29 105.66 115.77 111.84 116.21 C 132.39 116.59 152.88 113.60 173.06 109.92 C 176.72 109.14 180.12 110.97 183.34 112.44 C 180.33 108.23 177.34 103.99 174.80 99.48 C 182.11 101.84 187.56 107.33 193.31 112.14 C 191.85 110.01 190.33 107.92 188.65 105.96 C 192.24 107.07 194.13 110.25 194.62 113.83 C 187.90 111.57 184.05 105.05 177.98 101.68 C 180.34 105.85 182.81 109.97 185.15 114.16 C 175.47 110.63 164.05 110.57 155.81 117.50 C 159.95 127.44 165.38 136.90 168.34 147.30 C 169.61 158.81 169.37 170.45 168.86 182.01 C 169.81 187.09 165.60 190.36 163.13 194.09 C 160.12 192.97 157.12 191.83 154.12 190.71 C 154.12 190.11 154.12 188.91 154.12 188.31 C 157.78 185.97 161.44 183.62 164.93 181.04 C 164.51 168.16 168.48 153.96 162.06 141.99 C 157.58 132.52 154.73 121.18 144.94 115.63 C 143.79 118.66 142.19 121.88 142.85 125.22 C 146.31 134.04 151.63 141.99 155.25 150.74 C 156.36 153.50 154.85 156.33 153.96 158.92 C 150.71 166.77 147.45 174.64 144.96 182.77 C 143.89 187.38 139.90 190.99 135.59 192.60 C 128.06 195.44 122.40 188.88 117.48 184.29 C 124.16 183.35 130.88 182.64 137.58 181.79 C 141.68 172.35 146.37 163.18 151.00 154.00 C 145.77 143.90 140.72 133.69 136.52 123.12 C 133.49 120.54 130.84 116.01 126.01 117.46 C 117.40 117.42 108.18 118.63 100.10 114.87 C 96.34 113.23 92.97 109.53 94.04 105.00 C 93.65 95.65 94.11 86.21 96.28 77.08 C 101.31 64.75 111.05 55.31 117.54 43.83 C 108.08 42.69 98.51 42.60 89.04 43.67 C 88.59 46.58 88.15 49.48 87.71 52.39 C 85.56 51.67 83.45 50.88 81.31 50.13 C 82.30 46.40 81.15 41.31 84.24 38.29 C 87.99 36.30 92.18 35.41 96.08 33.78 C 100.14 31.94 102.65 28.04 105.57 24.87 M 96.55 35.03 C 90.62 35.52 85.12 38.49 82.22 43.72 C 90.09 42.74 97.96 41.81 105.80 40.65 C 102.98 38.60 100.63 33.62 96.55 35.03 M 146.92 114.88 C 148.04 116.24 150.28 118.96 151.41 120.32 C 153.67 118.17 155.99 116.08 158.28 113.95 C 154.48 114.21 150.70 114.54 146.92 114.88 M 131.30 116.52 C 133.45 118.57 135.71 120.50 137.98 122.42 C 140.07 120.32 142.15 118.20 144.21 116.06 C 139.91 116.16 135.60 116.32 131.30 116.52 M 154.39 119.43 C 157.15 130.19 163.27 139.65 166.52 150.22 C 167.37 160.64 166.46 171.17 165.41 181.55 C 162.94 185.40 158.35 187.11 154.82 189.75 C 157.43 190.64 160.03 191.71 162.81 191.91 C 165.21 189.49 168.06 186.74 168.00 183.06 C 167.74 168.43 170.44 152.72 164.08 138.99 C 160.98 132.42 158.69 125.36 154.39 119.43 M 139.49 121.53 C 138.60 130.29 144.70 137.44 148.09 144.96 C 149.42 148.50 152.95 152.23 151.26 156.25 C 147.23 165.40 142.13 174.06 138.50 183.40 C 132.20 183.76 125.92 184.29 119.66 185.05 C 122.76 187.42 125.95 189.65 129.29 191.68 C 135.13 193.51 140.36 188.74 142.83 183.99 C 146.02 176.05 148.67 167.89 152.11 160.04 C 153.15 156.99 155.32 153.61 153.67 150.37 C 149.12 140.67 144.12 131.19 139.49 121.53 Z" />
<path fill="#000000" opacity="1.00" d=" M 109.35 38.62 C 109.94 36.18 110.06 28.43 114.88 30.07 C 118.28 30.64 118.58 34.24 116.86 36.69 C 114.37 37.38 111.86 38.03 109.35 38.62 M 110.40 36.81 C 111.92 36.88 113.44 36.94 114.97 36.99 C 115.64 35.71 116.32 34.43 116.99 33.15 C 115.82 32.25 114.65 31.34 113.48 30.43 C 112.33 32.50 111.29 34.62 110.40 36.81 Z" />
<path fill="#000000" opacity="1.00" d=" M 113.19 32.91 C 114.76 32.22 115.68 34.87 114.01 35.29 C 112.43 35.96 111.53 33.36 113.19 32.91 Z" />
<path fill="#000000" opacity="1.00" d=" M 165.11 107.36 C 171.62 101.63 176.31 94.41 180.46 86.89 C 178.45 95.57 172.93 103.00 165.11 107.36 Z" />
<path fill="#000000" opacity="1.00" d=" M 141.70 99.03 C 150.42 97.92 158.99 95.89 167.52 93.78 C 159.66 98.13 150.47 98.65 141.70 99.03 Z" />
</g>
<g id="#ff77a8ff">
<path fill="#ff77a8" opacity="1.00" d=" M 99.71 32.87 C 104.97 27.07 112.94 22.92 120.71 26.31 C 130.32 29.35 132.01 41.78 127.50 49.54 C 123.21 56.78 118.01 63.79 116.34 72.22 C 115.48 79.61 118.08 86.70 121.08 93.30 C 130.04 87.37 131.21 75.02 140.08 69.03 C 146.47 69.54 153.31 70.54 158.53 74.60 C 164.79 79.38 167.95 86.75 172.00 93.26 C 169.83 86.44 166.74 79.62 161.15 74.90 C 155.74 70.13 148.40 69.09 141.74 67.10 C 147.49 66.10 153.36 64.90 159.20 65.76 C 167.03 68.09 170.21 75.93 174.30 82.13 C 172.15 75.90 168.21 70.57 164.48 65.22 C 171.08 68.76 177.80 72.44 182.53 78.45 C 189.70 86.07 190.51 96.90 195.08 105.91 C 189.79 102.36 184.50 98.78 178.85 95.80 C 181.46 98.62 184.13 101.38 186.85 104.09 C 187.47 104.70 188.07 105.32 188.65 105.96 C 190.33 107.92 191.85 110.01 193.31 112.14 C 187.56 107.33 182.11 101.84 174.80 99.48 C 177.34 103.99 180.33 108.23 183.34 112.44 C 180.12 110.97 176.72 109.14 173.06 109.92 C 152.88 113.60 132.39 116.59 111.84 116.21 C 105.66 115.77 96.62 114.29 95.07 106.98 C 94.54 96.20 95.17 85.02 99.03 74.83 C 104.19 63.59 113.54 54.86 118.48 43.49 C 116.75 43.30 113.28 42.94 111.55 42.75 C 105.88 42.38 103.41 36.27 99.71 32.87 M 109.35 38.62 C 111.86 38.03 114.37 37.38 116.86 36.69 C 118.58 34.24 118.28 30.64 114.88 30.07 C 110.06 28.43 109.94 36.18 109.35 38.62 M 165.11 107.36 C 172.93 103.00 178.45 95.57 180.46 86.89 C 176.31 94.41 171.62 101.63 165.11 107.36 M 141.70 99.03 C 150.47 98.65 159.66 98.13 167.52 93.78 C 158.99 95.89 150.42 97.92 141.70 99.03 Z" />
<path fill="#ff77a8" opacity="1.00" d=" M 146.92 114.88 C 150.70 114.54 154.48 114.21 158.28 113.95 C 155.99 116.08 153.67 118.17 151.41 120.32 C 150.28 118.96 148.04 116.24 146.92 114.88 Z" />
<path fill="#ff77a8" opacity="1.00" d=" M 131.30 116.52 C 135.60 116.32 139.91 116.16 144.21 116.06 C 142.15 118.20 140.07 120.32 137.98 122.42 C 135.71 120.50 133.45 118.57 131.30 116.52 Z" />
<path fill="#ff77a8" opacity="1.00" d=" M 154.39 119.43 C 158.69 125.36 160.98 132.42 164.08 138.99 C 170.44 152.72 167.74 168.43 168.00 183.06 C 168.06 186.74 165.21 189.49 162.81 191.91 C 160.03 191.71 157.43 190.64 154.82 189.75 C 158.35 187.11 162.94 185.40 165.41 181.55 C 166.46 171.17 167.37 160.64 166.52 150.22 C 163.27 139.65 157.15 130.19 154.39 119.43 Z" />
<path fill="#ff77a8" opacity="1.00" d=" M 139.49 121.53 C 144.12 131.19 149.12 140.67 153.67 150.37 C 155.32 153.61 153.15 156.99 152.11 160.04 C 148.67 167.89 146.02 176.05 142.83 183.99 C 140.36 188.74 135.13 193.51 129.29 191.68 C 125.95 189.65 122.76 187.42 119.66 185.05 C 125.92 184.29 132.20 183.76 138.50 183.40 C 142.13 174.06 147.23 165.40 151.26 156.25 C 152.95 152.23 149.42 148.50 148.09 144.96 C 144.70 137.44 138.60 130.29 139.49 121.53 Z" />
</g>
<g id="#fff1e8ff">
<path fill="#fff1e8" opacity="1.00" d=" M 110.40 36.81 C 111.29 34.62 112.33 32.50 113.48 30.43 C 114.65 31.34 115.82 32.25 116.99 33.15 C 116.32 34.43 115.64 35.71 114.97 36.99 C 113.44 36.94 111.92 36.88 110.40 36.81 M 113.19 32.91 C 111.53 33.36 112.43 35.96 114.01 35.29 C 115.68 34.87 114.76 32.22 113.19 32.91 Z" />
</g>
<g id="#c2c3c7ff">
<path fill="#c2c3c7" opacity="1.00" d=" M 96.55 35.03 C 100.63 33.62 102.98 38.60 105.80 40.65 C 97.96 41.81 90.09 42.74 82.22 43.72 C 85.12 38.49 90.62 35.52 96.55 35.03 Z" />
</g>
</svg>
