<?xml version="1.0" encoding="UTF-8" ?>
<!DOCTYPE svg PUBLIC "-//W3C//DTD SVG 1.1//EN" "http://www.w3.org/Graphics/SVG/1.1/DTD/svg11.dtd">
<svg width="500pt" height="500pt" viewBox="0 0 500 500" version="1.1" xmlns="http://www.w3.org/2000/svg">
<g id="#99e550ff">
<path fill="#99e550" opacity="1.00" d=" M 235.46 74.62 C 250.96 71.98 266.93 75.77 280.35 83.64 C 291.10 90.53 298.44 101.27 305.32 111.77 C 310.08 118.96 315.27 126.28 317.22 134.81 C 319.18 153.01 319.70 171.41 318.52 189.68 C 315.89 206.14 310.89 222.08 305.98 237.96 C 301.01 254.41 291.35 268.89 282.38 283.37 C 277.66 290.11 273.09 297.95 264.83 300.79 C 252.70 305.57 239.57 309.12 226.42 307.55 C 219.73 306.19 218.68 298.06 213.58 294.53 C 196.39 286.99 175.81 288.33 160.40 276.56 C 150.60 267.31 144.37 255.01 139.14 242.75 C 133.65 230.67 134.66 216.99 134.23 204.04 C 136.62 183.66 142.12 163.63 142.05 142.98 C 141.78 131.74 147.82 120.04 158.05 114.97 C 167.34 109.90 174.62 101.93 183.93 96.90 C 200.26 87.78 217.26 79.22 235.46 74.62 M 232.07 101.03 C 219.77 104.96 208.33 110.91 197.02 117.05 C 187.42 121.68 180.47 130.22 170.95 134.99 C 168.13 136.24 166.53 139.10 166.33 142.10 C 165.70 153.54 165.61 165.05 163.43 176.33 C 161.68 190.19 157.11 203.94 158.77 218.02 C 158.50 229.01 163.36 239.05 168.58 248.38 C 171.22 252.55 173.58 257.69 178.65 259.33 C 190.51 263.42 202.96 265.42 214.91 269.24 C 228.91 273.46 243.56 274.50 257.96 276.65 C 263.24 269.24 267.96 261.45 272.70 253.69 C 280.95 240.05 284.41 224.32 289.12 209.27 C 291.00 200.81 293.56 192.46 294.62 183.83 C 295.56 169.42 294.94 154.92 293.24 140.60 C 292.70 133.67 287.58 128.60 283.98 123.12 C 279.26 116.35 275.29 108.44 267.92 104.14 C 257.03 98.62 243.62 95.86 232.07 101.03 Z" />
<path fill="#99e550" opacity="1.00" d=" M 249.52 125.97 C 256.58 124.49 265.39 125.94 269.69 132.24 C 276.12 148.79 272.62 166.81 273.57 184.06 C 275.01 197.37 268.79 209.57 262.92 220.98 C 255.82 232.86 242.13 238.08 230.66 244.66 C 221.61 250.49 210.87 245.40 201.03 244.96 C 192.08 243.75 180.11 242.63 176.13 233.01 C 172.95 214.81 178.41 196.37 176.00 178.10 C 175.79 169.85 175.14 159.93 181.73 153.75 C 191.24 143.04 204.94 137.77 218.11 133.14 C 228.27 129.53 238.93 127.81 249.52 125.97 M 223.47 152.60 C 207.27 156.14 197.93 175.31 202.29 190.69 C 206.56 199.75 217.32 206.81 227.55 203.49 C 240.66 199.22 251.23 184.72 247.23 170.71 C 245.06 160.22 235.43 148.74 223.47 152.60 Z" />
</g>
<g id="#ac3232ff">
<path fill="#ac3232" opacity="1.00" d=" M 232.07 101.03 C 243.62 95.86 257.03 98.62 267.92 104.14 C 275.29 108.44 279.26 116.35 283.98 123.12 C 287.58 128.60 292.70 133.67 293.24 140.60 C 294.94 154.92 295.56 169.42 294.62 183.83 C 293.56 192.46 291.00 200.81 289.12 209.27 C 284.41 224.32 280.95 240.05 272.70 253.69 C 267.96 261.45 263.24 269.24 257.96 276.65 C 243.56 274.50 228.91 273.46 214.91 269.24 C 202.96 265.42 190.51 263.42 178.65 259.33 C 173.58 257.69 171.22 252.55 168.58 248.38 C 163.36 239.05 158.50 229.01 158.77 218.02 C 157.11 203.94 161.68 190.19 163.43 176.33 C 165.61 165.05 165.70 153.54 166.33 142.10 C 166.53 139.10 168.13 136.24 170.95 134.99 C 180.47 130.22 187.42 121.68 197.02 117.05 C 208.33 110.91 219.77 104.96 232.07 101.03 M 249.52 125.97 C 238.93 127.81 228.27 129.53 218.11 133.14 C 204.94 137.77 191.24 143.04 181.73 153.75 C 175.14 159.93 175.79 169.85 176.00 178.10 C 178.41 196.37 172.95 214.81 176.13 233.01 C 180.11 242.63 192.08 243.75 201.03 244.96 C 210.87 245.40 221.61 250.49 230.66 244.66 C 242.13 238.08 255.82 232.86 262.92 220.98 C 268.79 209.57 275.01 197.37 273.57 184.06 C 272.62 166.81 276.12 148.79 269.69 132.24 C 265.39 125.94 256.58 124.49 249.52 125.97 Z" />
<path fill="#ac3232" opacity="1.00" d=" M 223.47 152.60 C 235.43 148.74 245.06 160.22 247.23 170.71 C 251.23 184.72 240.66 199.22 227.55 203.49 C 217.32 206.81 206.56 199.75 202.29 190.69 C 197.93 175.31 207.27 156.14 223.47 152.60 Z" />
</g>
</svg>
