<?xml version="1.0" encoding="UTF-8" ?>
<!DOCTYPE svg PUBLIC "-//W3C//DTD SVG 1.1//EN" "http://www.w3.org/Graphics/SVG/1.1/DTD/svg11.dtd">
<svg width="500pt" height="500pt" viewBox="0 0 500 500" version="1.1" xmlns="http://www.w3.org/2000/svg">
<g id="#ac3232ff">
<path fill="#ac3232" opacity="1.00" d=" M 191.71 115.28 C 187.91 105.94 200.85 95.53 208.95 102.07 C 220.05 110.86 226.69 123.82 232.67 136.36 C 242.27 155.93 248.61 176.77 256.70 196.95 C 257.61 199.40 258.34 201.92 259.04 204.44 C 250.15 203.41 241.24 202.31 232.29 201.94 C 231.28 198.62 230.10 195.36 228.78 192.15 C 222.93 176.22 217.43 160.17 210.13 144.81 C 206.33 133.55 196.48 125.98 191.71 115.28 Z" />
<path fill="#ac3232" opacity="1.00" d=" M 238.10 226.73 C 246.40 227.56 254.69 228.60 262.90 230.16 C 262.50 241.38 264.53 253.04 262.00 264.05 C 258.92 274.20 243.12 274.17 240.04 264.05 C 238.08 251.76 239.01 239.15 238.10 226.73 Z" />
</g>
<g id="#99e550ff">
<path fill="#99e550" opacity="1.00" d=" M 232.67 136.36 C 244.02 134.39 255.37 131.76 266.97 132.18 C 277.21 133.68 287.44 135.98 297.03 139.99 C 303.53 143.62 308.57 149.79 311.21 156.72 C 313.79 167.24 314.10 178.22 313.96 189.01 C 313.75 198.35 306.09 208.25 296.02 207.10 C 281.72 209.02 270.16 199.30 256.70 196.95 C 248.61 176.77 242.27 155.93 232.67 136.36 Z" />
<path fill="#99e550" opacity="1.00" d=" M 161.11 189.10 C 173.41 170.56 190.47 155.20 210.13 144.81 C 217.43 160.17 222.93 176.22 228.78 192.15 C 225.04 190.63 221.38 188.85 217.49 187.78 C 212.64 186.35 208.30 189.40 203.93 190.89 C 198.06 193.72 191.15 193.65 185.34 196.42 C 172.53 213.36 161.63 231.64 150.72 249.84 C 147.86 254.59 142.49 259.60 136.45 257.51 C 129.27 256.03 124.72 247.16 128.65 240.68 C 138.37 222.84 149.62 205.85 161.11 189.10 Z" />
<path fill="#99e550" opacity="1.00" d=" M 196.53 206.39 C 208.23 203.56 220.26 202.13 232.29 201.94 C 241.24 202.31 250.15 203.41 259.04 204.44 C 268.95 205.73 278.79 209.04 286.64 215.39 C 298.30 224.99 310.27 234.88 317.69 248.31 C 320.43 254.01 326.33 259.42 324.32 266.30 C 323.17 270.77 318.96 273.57 314.81 274.96 C 309.34 276.05 303.74 272.64 301.27 267.85 C 296.56 259.78 292.14 251.27 284.80 245.21 C 277.98 239.70 271.89 231.97 262.90 230.16 C 254.69 228.60 246.40 227.56 238.10 226.73 C 226.61 225.24 215.12 227.16 204.00 229.97 C 198.84 230.82 192.80 233.33 187.98 230.03 C 182.74 227.13 180.27 219.81 183.58 214.62 C 186.26 209.91 191.27 207.13 196.53 206.39 Z" />
</g>
</svg>
