<?xml version="1.0" encoding="UTF-8" ?>
<!DOCTYPE svg PUBLIC "-//W3C//DTD SVG 1.1//EN" "http://www.w3.org/Graphics/SVG/1.1/DTD/svg11.dtd">
<svg width="120pt" height="120pt" viewBox="0 0 120 120" version="1.1" xmlns="http://www.w3.org/2000/svg">
<g id="#008751ff">
<path fill="#008751" opacity="1.00" d=" M 69.08 0.00 L 74.42 0.00 C 79.25 5.09 85.47 8.64 89.71 14.36 C 95.56 20.09 97.41 29.69 93.15 36.93 C 92.01 33.46 90.81 30.02 89.35 26.68 C 88.31 24.23 87.25 21.79 86.15 19.37 C 81.13 21.98 77.50 26.73 72.06 28.59 C 65.44 27.45 59.90 22.69 55.43 17.88 C 54.78 17.17 54.12 16.47 53.47 15.77 C 50.63 20.06 47.32 24.03 43.16 27.10 C 40.99 28.02 38.77 28.79 36.55 29.56 C 37.56 23.37 37.45 16.15 42.70 11.74 C 49.92 4.80 60.82 5.17 69.08 0.00 M 72.74 2.15 C 70.86 3.10 68.99 4.05 67.12 5.00 C 69.47 5.67 71.76 6.57 73.94 7.68 C 73.64 6.30 73.04 3.54 72.74 2.15 Z" />
</g>
<g id="#ab5236ff">
<path fill="#ab5236" opacity="1.00" d=" M 43.16 27.10 C 47.32 24.03 50.63 20.06 53.47 15.77 C 54.12 16.47 54.78 17.17 55.43 17.88 C 49.93 24.86 42.89 31.68 42.35 41.15 C 40.96 55.15 44.46 68.88 45.42 82.77 C 45.92 85.79 45.97 89.21 48.36 91.44 C 55.08 98.90 65.51 103.39 75.47 103.29 C 84.50 100.74 88.48 91.88 91.07 83.74 C 91.33 82.93 91.83 81.33 92.08 80.53 C 93.54 67.56 91.37 54.72 89.27 41.99 C 89.19 40.01 89.17 38.04 89.20 36.06 C 89.25 32.93 89.41 29.81 89.35 26.68 C 90.81 30.02 92.01 33.46 93.15 36.93 C 93.62 50.61 96.77 64.23 95.07 77.96 C 93.98 85.92 92.68 94.75 86.61 100.64 C 82.98 103.47 79.32 108.12 74.05 106.62 C 64.03 106.07 52.81 102.74 46.27 94.79 C 40.89 77.55 38.16 59.14 39.23 41.04 C 39.19 36.11 40.57 31.27 43.16 27.10 Z" />
<path fill="#ab5236" opacity="1.00" d=" M 50.40 28.13 C 54.00 30.98 57.33 34.16 60.40 37.57 C 60.23 36.42 60.07 35.27 59.91 34.12 C 60.80 34.10 62.58 34.06 63.47 34.04 C 63.90 45.72 62.65 57.35 60.63 68.84 C 64.01 69.58 67.57 71.13 71.03 70.02 C 74.02 68.90 74.87 65.32 74.39 62.46 C 73.24 54.30 71.16 46.29 70.39 38.07 C 71.22 38.07 72.87 38.06 73.69 38.06 C 74.43 46.48 76.14 54.76 77.30 63.11 C 78.72 67.71 75.29 71.09 72.60 74.12 C 68.37 73.81 64.14 73.46 59.90 73.38 C 55.81 62.53 60.91 51.11 61.80 40.18 C 60.19 42.81 59.05 45.83 56.70 47.91 C 52.12 47.69 47.54 46.97 43.14 45.65 C 48.39 45.47 53.64 45.37 58.88 45.06 C 57.96 38.55 54.42 33.10 50.40 28.13 Z" />
<path fill="#ab5236" opacity="1.00" d=" M 76.40 40.54 C 73.63 35.27 78.19 32.93 81.93 31.32 C 80.55 33.88 78.79 36.25 77.89 39.04 C 79.88 42.36 84.02 43.14 87.24 44.75 C 83.13 46.31 77.94 45.05 76.40 40.54 Z" />
<path fill="#ab5236" opacity="1.00" d=" M 51.52 88.62 C 51.44 84.93 52.25 81.25 54.28 78.17 C 53.61 81.72 52.62 85.19 51.52 88.62 Z" />
<path fill="#ab5236" opacity="1.00" d=" M 80.88 78.89 C 83.08 79.26 85.27 79.65 87.47 80.05 C 87.34 80.60 87.08 81.72 86.95 82.28 C 86.82 83.09 86.55 84.72 86.42 85.54 C 84.57 83.32 82.72 81.11 80.88 78.89 Z" />
<path fill="#ab5236" opacity="1.00" d=" M 81.72 86.96 C 81.99 86.86 82.52 86.65 82.79 86.55 C 82.64 88.10 82.48 89.64 82.33 91.19 L 81.32 91.15 C 79.42 91.08 75.60 90.95 73.69 90.88 C 76.41 89.67 79.04 88.26 81.72 86.96 Z" />
<path fill="#ab5236" opacity="1.00" d=" M 62.81 87.27 C 65.62 87.30 68.43 87.32 71.24 87.32 C 68.43 87.36 65.61 87.30 62.81 87.27 Z" />
</g>
<g id="#ff77a8ff">
<path fill="#ff77a8" opacity="1.00" d=" M 42.35 41.15 C 42.89 31.68 49.93 24.86 55.43 17.88 C 59.90 22.69 65.44 27.45 72.06 28.59 C 77.50 26.73 81.13 21.98 86.15 19.37 C 87.25 21.79 88.31 24.23 89.35 26.68 C 89.41 29.81 89.25 32.93 89.20 36.06 C 87.85 34.70 86.51 33.33 85.16 31.97 C 83.69 33.98 82.11 35.96 81.03 38.23 C 82.59 41.25 86.37 41.32 89.27 41.99 C 91.37 54.72 93.54 67.56 92.08 80.53 C 86.61 76.06 79.48 74.70 72.60 74.12 C 75.29 71.09 78.72 67.71 77.30 63.11 C 76.14 54.76 74.43 46.48 73.69 38.06 C 72.87 38.06 71.22 38.07 70.39 38.07 C 71.16 46.29 73.24 54.30 74.39 62.46 C 74.87 65.32 74.02 68.90 71.03 70.02 C 67.57 71.13 64.01 69.58 60.63 68.84 C 62.65 57.35 63.90 45.72 63.47 34.04 C 62.58 34.06 60.80 34.10 59.91 34.12 C 60.07 35.27 60.23 36.42 60.40 37.57 C 57.33 34.16 54.00 30.98 50.40 28.13 C 54.42 33.10 57.96 38.55 58.88 45.06 C 53.64 45.37 48.39 45.47 43.14 45.65 C 47.54 46.97 52.12 47.69 56.70 47.91 C 59.05 45.83 60.19 42.81 61.80 40.18 C 60.91 51.11 55.81 62.53 59.90 73.38 C 53.73 73.72 48.31 77.34 45.42 82.77 C 44.46 68.88 40.96 55.15 42.35 41.15 M 76.40 40.54 C 77.94 45.05 83.13 46.31 87.24 44.75 C 84.02 43.14 79.88 42.36 77.89 39.04 C 78.79 36.25 80.55 33.88 81.93 31.32 C 78.19 32.93 73.63 35.27 76.40 40.54 M 46.26 40.68 C 47.76 43.50 51.51 43.47 54.27 43.33 C 54.87 39.81 53.89 36.31 53.24 32.88 C 50.96 35.06 42.41 34.61 46.26 40.68 Z" />
<path fill="#ff77a8" opacity="1.00" d=" M 87.47 80.05 C 89.92 79.27 88.80 84.12 86.95 82.28 C 87.08 81.72 87.34 80.60 87.47 80.05 Z" />
<path fill="#ff77a8" opacity="1.00" d=" M 73.89 97.95 C 81.18 95.64 86.64 89.73 91.07 83.74 C 88.48 91.88 84.50 100.74 75.47 103.29 C 65.51 103.39 55.08 98.90 48.36 91.44 C 56.19 95.28 64.88 100.03 73.89 97.95 Z" />
</g>
<g id="#5f574fff">
<path fill="#5f574f" opacity="1.00" d=" M 81.03 38.23 C 82.11 35.96 83.69 33.98 85.16 31.97 C 86.51 33.33 87.85 34.70 89.20 36.06 C 89.17 38.04 89.19 40.01 89.27 41.99 C 86.37 41.32 82.59 41.25 81.03 38.23 M 82.21 36.59 C 83.56 38.04 84.96 39.44 86.41 40.79 C 86.68 39.12 86.95 37.45 87.22 35.78 C 85.55 36.05 83.88 36.32 82.21 36.59 Z" />
<path fill="#5f574f" opacity="1.00" d=" M 46.26 40.68 C 42.41 34.61 50.96 35.06 53.24 32.88 C 53.89 36.31 54.87 39.81 54.27 43.33 C 51.51 43.47 47.76 43.50 46.26 40.68 M 49.00 37.00 C 49.00 38.33 49.00 39.67 49.00 41.00 C 50.33 41.00 51.67 41.00 53.00 41.00 C 53.00 39.67 53.00 38.33 53.00 37.00 C 51.67 37.00 50.33 37.00 49.00 37.00 Z" />
<path fill="#5f574f" opacity="1.00" d=" M 45.42 82.77 C 48.31 77.34 53.73 73.72 59.90 73.38 C 64.14 73.46 68.37 73.81 72.60 74.12 C 79.48 74.70 86.61 76.06 92.08 80.53 C 91.83 81.33 91.33 82.93 91.07 83.74 C 86.64 89.73 81.18 95.64 73.89 97.95 C 64.88 100.03 56.19 95.28 48.36 91.44 C 45.97 89.21 45.92 85.79 45.42 82.77 M 49.37 81.37 C 48.41 84.58 49.93 88.44 52.91 90.08 C 57.79 93.18 63.05 96.48 69.00 96.70 C 73.54 96.12 77.30 93.11 81.32 91.15 L 82.33 91.19 C 83.71 89.31 85.07 87.43 86.42 85.54 C 86.55 84.72 86.82 83.09 86.95 82.28 C 88.80 84.12 89.92 79.27 87.47 80.05 C 79.87 74.35 69.85 75.70 61.00 76.07 C 56.66 75.92 51.69 77.43 49.37 81.37 Z" />
</g>
<g id="#000000ff">
<path fill="#000000" opacity="1.00" d=" M 82.21 36.59 C 83.88 36.32 85.55 36.05 87.22 35.78 C 86.95 37.45 86.68 39.12 86.41 40.79 C 84.96 39.44 83.56 38.04 82.21 36.59 Z" />
<path fill="#000000" opacity="1.00" d=" M 49.00 37.00 C 50.33 37.00 51.67 37.00 53.00 37.00 C 53.00 38.33 53.00 39.67 53.00 41.00 C 51.67 41.00 50.33 41.00 49.00 41.00 C 49.00 39.67 49.00 38.33 49.00 37.00 Z" />
</g>
<g id="#83769cff">
<path fill="#83769c" opacity="1.00" d=" M 49.37 81.37 C 51.69 77.43 56.66 75.92 61.00 76.07 C 69.85 75.70 79.87 74.35 87.47 80.05 C 85.27 79.65 83.08 79.26 80.88 78.89 C 82.72 81.11 84.57 83.32 86.42 85.54 C 85.07 87.43 83.71 89.31 82.33 91.19 C 82.48 89.64 82.64 88.10 82.79 86.55 C 82.52 86.65 81.99 86.86 81.72 86.96 C 78.23 87.14 74.73 87.25 71.24 87.32 C 68.43 87.32 65.62 87.30 62.81 87.27 C 61.51 87.24 60.21 87.22 58.91 87.19 C 59.08 88.37 59.25 89.55 59.42 90.73 C 64.17 90.78 68.93 90.91 73.69 90.88 C 75.60 90.95 79.42 91.08 81.32 91.15 C 77.30 93.11 73.54 96.12 69.00 96.70 C 63.05 96.48 57.79 93.18 52.91 90.08 C 49.93 88.44 48.41 84.58 49.37 81.37 M 51.52 88.62 C 52.62 85.19 53.61 81.72 54.28 78.17 C 52.25 81.25 51.44 84.93 51.52 88.62 Z" />
</g>
<g id="#ff004dff">
<path fill="#ff004d" opacity="1.00" d=" M 71.24 87.32 C 74.73 87.25 78.23 87.14 81.72 86.96 C 79.04 88.26 76.41 89.67 73.69 90.88 C 68.93 90.91 64.17 90.78 59.42 90.73 C 59.25 89.55 59.08 88.37 58.91 87.19 C 60.21 87.22 61.51 87.24 62.81 87.27 C 65.61 87.30 68.43 87.36 71.24 87.32 Z" />
</g>
</svg>
