<?xml version="1.0" encoding="UTF-8" ?>
<!DOCTYPE svg PUBLIC "-//W3C//DTD SVG 1.1//EN" "http://www.w3.org/Graphics/SVG/1.1/DTD/svg11.dtd">
<svg width="520pt" height="520pt" viewBox="0 0 520 520" version="1.1" xmlns="http://www.w3.org/2000/svg">
<g id="#008751ff">
<path fill="#008751" opacity="1.00" d=" M 435.60 17.53 C 443.96 15.27 449.55 24.35 454.52 29.50 C 460.78 26.89 468.09 26.49 474.18 29.73 C 484.02 33.46 487.40 44.75 488.61 54.22 C 496.15 58.70 504.15 64.85 506.12 73.85 C 506.73 82.24 506.53 90.69 507.49 99.08 C 508.72 109.08 504.64 118.60 501.39 127.80 C 504.30 131.31 507.47 136.31 504.78 140.83 C 501.21 146.03 500.54 153.97 493.68 156.18 C 495.81 160.02 497.44 164.36 496.96 168.85 C 495.24 172.00 493.04 175.36 489.45 176.50 C 481.10 179.39 472.76 182.76 464.06 184.36 C 458.51 183.64 454.16 179.56 449.46 176.90 C 453.84 164.60 462.96 154.91 470.16 144.27 C 476.70 132.29 479.17 118.68 483.52 105.86 C 481.04 103.78 478.51 101.79 475.87 99.93 C 467.41 116.25 465.54 135.77 453.66 150.33 C 450.70 126.33 462.37 101.70 453.89 78.17 C 452.24 72.10 447.30 68.02 442.38 64.60 C 441.17 65.58 439.97 66.57 438.77 67.54 C 439.26 73.52 439.05 79.63 440.33 85.52 C 441.50 91.78 444.22 97.70 444.55 104.13 C 446.31 116.85 439.49 128.37 432.76 138.51 C 424.16 129.32 418.27 117.45 407.39 110.59 C 402.88 107.68 397.91 105.58 392.71 104.26 C 394.00 110.73 394.75 117.63 398.78 123.11 C 403.40 130.92 408.62 138.55 415.74 144.30 C 419.56 148.15 424.78 151.97 424.44 158.09 C 425.79 176.02 427.37 194.13 425.21 212.07 C 424.94 215.03 424.42 218.04 422.98 220.68 C 420.56 222.76 417.88 224.52 415.28 226.34 C 410.84 229.53 404.91 228.46 399.85 229.42 C 399.08 225.04 398.39 220.65 397.75 216.26 C 387.58 217.72 375.87 216.24 368.26 208.75 C 364.25 201.94 366.66 193.37 367.83 186.07 C 365.05 189.23 362.22 193.60 357.09 191.92 C 350.99 189.46 346.87 183.35 344.81 177.30 C 343.31 165.72 344.07 154.00 343.93 142.36 C 339.18 142.65 334.42 142.39 329.68 142.12 C 327.64 135.38 326.13 128.07 328.17 121.16 C 330.11 114.73 332.73 108.51 335.44 102.37 C 339.51 95.05 344.50 88.29 349.26 81.41 C 347.61 81.06 344.31 80.38 342.67 80.03 C 343.22 72.25 343.00 63.99 347.00 56.99 C 350.65 50.62 354.58 44.08 360.42 39.47 C 365.79 36.25 372.42 36.64 378.45 36.12 C 381.37 31.38 383.64 25.49 388.65 22.64 C 401.80 20.14 415.44 24.13 425.76 32.47 C 428.33 27.14 430.47 20.92 435.60 17.53 Z" />
<path fill="#008751" opacity="1.00" d=" M 284.70 338.95 C 285.59 338.95 287.38 338.95 288.27 338.95 C 290.25 350.04 291.40 361.26 292.38 372.48 C 292.71 378.80 294.55 385.03 298.02 390.33 C 298.36 372.83 300.69 355.45 301.78 337.99 C 305.98 345.28 304.81 354.29 308.21 361.92 C 310.72 368.03 312.94 374.25 315.42 380.37 C 315.22 372.59 315.03 364.81 314.95 357.04 C 316.88 358.05 318.83 359.05 320.84 359.90 C 321.50 366.89 321.74 373.90 321.96 380.92 C 323.22 378.99 324.60 377.15 326.14 375.43 C 326.93 376.94 327.74 378.47 328.54 380.00 C 329.25 378.13 329.99 376.27 330.74 374.43 C 333.45 378.22 335.51 382.43 336.77 386.93 C 337.82 379.39 340.67 372.11 345.01 365.86 C 349.59 371.85 350.98 379.44 351.61 386.79 C 353.14 386.49 354.67 386.19 356.21 385.90 C 356.89 390.09 358.47 394.45 357.54 398.68 C 356.10 401.25 354.69 404.59 351.62 405.47 C 346.08 405.99 340.52 406.01 334.97 406.13 C 336.88 407.22 338.79 408.32 340.66 409.51 C 330.93 409.91 321.20 409.85 311.49 409.28 C 310.14 410.76 308.77 412.22 307.33 413.62 C 307.69 411.85 308.09 410.09 308.51 408.34 C 301.47 404.85 293.66 404.26 286.08 402.73 C 288.17 392.49 284.78 382.18 283.98 371.96 C 282.33 360.98 284.09 349.93 284.70 338.95 M 286.43 341.62 C 285.76 351.84 284.59 362.20 286.42 372.38 C 288.94 362.26 289.01 351.72 286.43 341.62 M 303.31 350.11 C 302.25 351.35 302.25 353.64 303.31 354.89 C 304.93 354.48 304.93 350.52 303.31 350.11 M 302.45 381.44 C 303.96 373.90 304.14 366.21 303.41 358.57 C 302.46 366.15 302.30 373.80 302.45 381.44 M 306.17 363.50 C 306.51 369.19 306.79 375.00 308.69 380.44 C 311.61 374.56 309.14 368.60 306.17 363.50 M 288.88 388.12 C 289.40 387.80 290.43 387.16 290.95 386.83 C 290.24 380.11 289.74 373.35 289.17 366.62 C 288.27 373.76 288.49 380.96 288.88 388.12 M 317.27 370.11 C 316.18 370.96 316.18 373.03 317.27 373.89 C 319.00 373.92 319.00 370.07 317.27 370.11 M 341.99 386.50 C 344.95 381.23 347.77 375.20 345.65 369.08 C 342.12 374.25 340.49 380.30 341.99 386.50 M 325.97 378.96 C 324.62 382.28 323.27 385.61 321.94 388.95 C 324.04 388.51 326.13 388.08 328.24 387.66 C 327.52 384.73 326.79 381.86 325.97 378.96 M 331.32 379.28 C 330.83 383.08 330.79 386.92 330.73 390.75 C 332.21 391.10 333.70 391.46 335.18 391.83 C 334.00 387.61 333.09 383.30 331.32 379.28 M 305.12 381.54 C 302.82 384.96 309.06 382.31 305.12 381.54 M 343.95 391.36 C 345.39 388.26 346.46 385.00 347.05 381.64 C 345.60 384.73 344.53 387.99 343.95 391.36 M 346.23 394.37 C 347.39 391.91 348.29 389.34 348.99 386.71 C 347.87 389.19 346.96 391.75 346.23 394.37 M 294.12 388.54 C 291.82 391.96 298.06 389.31 294.12 388.54 M 350.82 392.24 C 351.12 394.62 352.13 396.64 352.70 399.05 C 353.58 399.02 355.36 398.97 356.25 398.95 C 355.67 395.27 355.13 391.61 354.44 387.97 C 353.15 389.31 351.71 390.57 350.82 392.24 M 324.53 392.13 C 323.60 393.31 325.64 394.68 326.45 393.46 C 327.43 392.26 325.34 390.92 324.53 392.13 M 343.08 392.31 C 341.66 392.23 341.39 394.68 342.92 394.69 C 344.33 394.76 344.60 392.31 343.08 392.31 M 294.32 393.18 C 293.15 394.64 295.68 396.29 296.68 394.82 C 297.84 393.35 295.31 391.69 294.32 393.18 M 304.16 395.82 C 302.87 396.57 303.86 399.17 305.34 398.31 C 306.64 397.57 305.59 395.06 304.16 395.82 M 289.18 399.32 C 287.70 400.31 289.35 402.84 290.82 401.68 C 292.30 400.68 290.64 398.15 289.18 399.32 M 295.42 398.33 C 294.92 399.73 294.42 401.14 293.92 402.55 C 297.93 402.52 301.91 403.05 305.80 403.97 C 302.66 401.55 299.13 399.71 295.42 398.33 M 307.40 399.15 C 306.96 400.54 307.45 401.03 308.85 400.60 C 309.28 399.19 308.80 398.71 307.40 399.15 M 322.93 399.72 L 322.93 401.28 C 324.94 401.64 326.95 401.95 328.98 402.25 C 328.98 401.37 328.98 399.63 328.98 398.75 C 326.95 399.04 324.94 399.36 322.93 399.72 M 348.18 402.22 C 346.53 403.06 348.36 405.15 349.68 404.27 C 351.30 403.47 349.43 401.38 348.18 402.22 M 327.80 407.17 C 327.34 408.58 329.74 409.09 330.20 407.83 C 330.65 406.41 328.25 405.89 327.80 407.17 Z" />
</g>
<g id="#ff004dff">
<path fill="#ff004d" opacity="1.00" d=" M 174.86 51.98 C 180.67 57.50 184.67 64.60 188.77 71.41 C 183.54 66.04 173.75 62.01 174.92 53.10 L 174.86 51.98 Z" />
<path fill="#ff004d" opacity="1.00" d=" M 172.01 59.19 C 178.92 65.89 186.63 71.77 193.11 78.91 C 199.77 86.38 199.71 97.33 205.88 105.10 C 209.25 110.60 214.48 114.52 219.23 118.73 C 218.73 125.79 218.49 132.86 218.70 139.94 C 208.58 125.26 198.32 110.64 187.56 96.43 C 179.55 87.88 170.79 79.70 160.63 73.77 C 163.25 76.91 166.10 79.86 168.95 82.80 C 162.88 91.90 156.28 100.76 147.91 107.89 C 136.02 118.03 126.79 130.79 115.83 141.85 C 107.18 150.53 102.44 162.15 93.94 170.95 C 89.06 175.90 85.49 181.92 82.67 188.24 C 88.58 181.62 94.31 174.82 99.75 167.81 C 104.71 161.58 108.11 154.28 113.13 148.10 C 117.55 143.21 122.31 138.62 126.55 133.56 C 140.39 116.23 158.42 102.72 171.14 84.43 C 178.90 90.41 186.03 97.27 191.67 105.33 C 200.54 118.13 209.63 130.77 218.52 143.55 C 226.23 152.35 238.23 155.44 246.82 163.18 C 255.57 170.69 264.68 177.82 274.51 183.89 C 266.81 175.68 257.43 169.34 248.82 162.16 C 241.19 155.54 232.16 150.89 223.74 145.41 C 227.78 145.27 231.82 145.14 235.87 144.95 C 234.91 140.63 233.21 136.52 231.95 132.29 C 231.92 130.79 231.92 129.29 231.95 127.80 C 245.03 140.55 256.00 155.23 268.52 168.50 C 275.15 174.83 283.17 179.74 291.83 182.76 C 285.30 176.16 276.00 173.19 269.61 166.41 C 256.54 152.96 245.69 137.47 231.98 124.61 C 231.95 122.00 231.92 119.39 231.87 116.79 C 246.84 127.63 256.22 143.95 269.48 156.52 C 278.23 166.55 288.81 174.79 297.56 184.85 C 288.25 186.90 278.71 187.79 269.20 188.10 C 264.90 187.99 260.61 188.33 256.34 188.80 C 257.93 181.94 252.10 176.61 247.57 172.49 C 238.10 165.78 227.16 161.35 218.20 153.84 C 216.50 152.52 214.78 151.22 213.07 149.91 C 212.69 149.59 211.92 148.96 211.54 148.64 C 208.47 143.93 205.14 139.32 200.10 136.61 C 199.85 136.41 199.33 136.02 199.08 135.83 C 188.50 126.59 177.27 118.14 166.87 108.71 C 166.39 108.08 165.91 107.44 165.43 106.81 C 157.25 116.83 148.66 126.54 141.24 137.17 C 135.41 144.61 130.79 154.26 121.39 157.82 C 103.76 165.00 92.97 181.29 82.20 196.03 C 77.77 189.40 71.40 183.97 68.59 176.34 C 77.19 172.49 83.17 165.08 90.12 159.03 C 84.75 165.87 78.47 171.99 73.64 179.25 C 90.42 166.42 100.99 147.74 112.05 130.16 C 116.29 125.67 121.02 121.60 124.66 116.58 C 131.15 108.64 134.23 98.55 140.66 90.57 C 145.88 83.84 151.33 77.23 157.92 71.78 C 162.80 67.80 167.32 63.39 172.01 59.19 Z" />
<path fill="#ff004d" opacity="1.00" d=" M 199.79 84.91 C 207.26 91.56 213.58 99.35 220.93 106.13 C 220.53 109.39 220.12 112.65 219.67 115.90 C 209.22 108.69 202.27 97.28 199.79 84.91 Z" />
<path fill="#ff004d" opacity="1.00" d=" M 221.05 133.34 C 218.89 133.70 218.97 129.25 221.11 129.67 C 221.15 130.89 221.14 132.12 221.05 133.34 Z" />
<path fill="#ff004d" opacity="1.00" d=" M 91.35 157.43 C 93.79 152.94 96.04 148.10 100.16 144.87 C 97.61 149.32 94.44 153.36 91.35 157.43 Z" />
<path fill="#ff004d" opacity="1.00" d=" M 120.83 163.19 C 121.09 161.80 121.93 161.06 123.35 160.96 C 123.11 162.38 122.27 163.12 120.83 163.19 Z" />
<path fill="#ff004d" opacity="1.00" d=" M 223.73 161.15 C 230.03 165.01 236.87 167.93 243.04 172.01 C 249.33 175.87 254.51 182.61 254.69 190.21 C 251.85 190.51 248.97 190.74 246.13 190.97 C 242.69 178.48 232.85 169.67 223.73 161.15 Z" />
<path fill="#ff004d" opacity="1.00" d=" M 116.10 162.38 C 117.78 162.78 116.68 165.33 115.22 164.94 C 113.55 164.54 114.68 162.04 116.10 162.38 Z" />
<path fill="#ff004d" opacity="1.00" d=" M 100.40 177.39 C 105.92 171.92 112.84 168.30 119.39 164.27 C 110.37 175.32 99.01 184.09 89.67 194.83 C 93.12 188.94 95.23 182.08 100.40 177.39 Z" />
<path fill="#ff004d" opacity="1.00" d=" M 90.13 188.11 C 91.44 188.78 91.43 189.46 90.11 190.14 C 88.81 189.47 88.82 188.79 90.13 188.11 Z" />
</g>
<g id="#000000ff">
<path fill="#000000" opacity="1.00" d=" M 165.71 61.73 C 168.76 58.84 171.50 55.59 174.92 53.10 C 173.75 62.01 183.54 66.04 188.77 71.41 C 192.94 75.38 197.80 79.31 199.79 84.91 C 202.27 97.28 209.22 108.69 219.67 115.90 C 220.12 112.65 220.53 109.39 220.93 106.13 C 221.15 104.21 221.37 102.29 221.60 100.38 C 221.81 98.42 222.20 96.48 221.81 94.55 C 221.58 92.76 221.11 89.18 220.88 87.39 C 226.12 87.47 231.27 86.42 236.41 85.50 C 235.74 95.35 234.58 105.18 231.80 114.67 C 230.70 120.47 229.76 126.62 231.95 132.29 C 233.21 136.52 234.91 140.63 235.87 144.95 C 231.82 145.14 227.78 145.27 223.74 145.41 C 232.16 150.89 241.19 155.54 248.82 162.16 C 257.43 169.34 266.81 175.68 274.51 183.89 C 264.68 177.82 255.57 170.69 246.82 163.18 C 238.23 155.44 226.23 152.35 218.52 143.55 C 209.63 130.77 200.54 118.13 191.67 105.33 C 186.03 97.27 178.90 90.41 171.14 84.43 C 158.42 102.72 140.39 116.23 126.55 133.56 C 122.31 138.62 117.55 143.21 113.13 148.10 C 108.11 154.28 104.71 161.58 99.75 167.81 C 94.31 174.82 88.58 181.62 82.67 188.24 C 85.49 181.92 89.06 175.90 93.94 170.95 C 102.44 162.15 107.18 150.53 115.83 141.85 C 126.79 130.79 136.02 118.03 147.91 107.89 C 156.28 100.76 162.88 91.90 168.95 82.80 C 166.10 79.86 163.25 76.91 160.63 73.77 C 170.79 79.70 179.55 87.88 187.56 96.43 C 198.32 110.64 208.58 125.26 218.70 139.94 C 218.49 132.86 218.73 125.79 219.23 118.73 C 214.48 114.52 209.25 110.60 205.88 105.10 C 199.71 97.33 199.77 86.38 193.11 78.91 C 186.63 71.77 178.92 65.89 172.01 59.19 C 167.32 63.39 162.80 67.80 157.92 71.78 C 135.79 84.87 125.65 109.64 112.05 130.16 C 100.99 147.74 90.42 166.42 73.64 179.25 C 78.47 171.99 84.75 165.87 90.12 159.03 C 90.42 158.63 91.04 157.83 91.35 157.43 C 94.44 153.36 97.61 149.32 100.16 144.87 C 106.29 134.25 113.50 124.31 119.66 113.71 C 125.85 103.14 132.10 92.47 140.36 83.35 C 148.15 75.37 157.87 69.64 165.71 61.73 M 223.43 90.47 C 224.35 103.60 221.39 116.59 221.11 129.67 C 218.97 129.25 218.89 133.70 221.05 133.34 C 220.88 136.52 220.86 139.67 220.83 142.86 C 224.66 143.21 228.49 143.58 232.32 143.96 C 231.44 139.33 229.86 134.89 228.83 130.30 C 227.19 121.39 230.51 112.70 231.01 103.86 C 231.07 98.72 230.96 93.55 231.53 88.43 C 228.86 89.18 226.12 89.83 223.43 90.47 Z" />
<path fill="#000000" opacity="1.00" d=" M 165.43 106.81 C 165.91 107.44 166.39 108.08 166.87 108.71 C 174.61 120.73 187.54 127.99 199.08 135.83 C 199.33 136.02 199.85 136.41 200.10 136.61 C 203.69 140.82 207.16 145.20 211.54 148.64 C 211.92 148.96 212.69 149.59 213.07 149.91 C 214.75 151.25 216.47 152.55 218.20 153.84 C 227.16 161.35 238.10 165.78 247.57 172.49 C 252.10 176.61 257.93 181.94 256.34 188.80 C 255.98 190.42 255.55 192.02 255.12 193.63 C 255.01 192.77 254.80 191.06 254.69 190.21 C 254.51 182.61 249.33 175.87 243.04 172.01 C 236.87 167.93 230.03 165.01 223.73 161.15 C 216.93 156.06 210.03 151.03 204.00 145.00 C 191.86 132.94 177.10 123.92 164.75 112.08 C 155.73 121.74 147.47 132.08 139.94 142.93 C 135.41 149.80 129.60 155.66 123.35 160.96 C 121.93 161.06 121.09 161.80 120.83 163.19 C 120.47 163.46 119.75 164.00 119.39 164.27 C 112.84 168.30 105.92 171.92 100.40 177.39 C 95.23 182.08 93.12 188.94 89.67 194.83 C 88.73 196.10 87.80 197.38 86.88 198.67 C 84.02 201.27 80.30 202.57 76.62 203.47 C 78.36 200.90 80.28 198.46 82.20 196.03 C 92.97 181.29 103.76 165.00 121.39 157.82 C 130.79 154.26 135.41 144.61 141.24 137.17 C 148.66 126.54 157.25 116.83 165.43 106.81 M 116.10 162.38 C 114.68 162.04 113.55 164.54 115.22 164.94 C 116.68 165.33 117.78 162.78 116.10 162.38 M 90.13 188.11 C 88.82 188.79 88.81 189.47 90.11 190.14 C 91.43 189.46 91.44 188.78 90.13 188.11 Z" />
<path fill="#000000" opacity="1.00" d=" M 231.98 124.61 C 245.69 137.47 256.54 152.96 269.61 166.41 C 276.00 173.19 285.30 176.16 291.83 182.76 C 283.17 179.74 275.15 174.83 268.52 168.50 C 256.00 155.23 245.03 140.55 231.95 127.80 C 231.96 127.00 231.97 125.40 231.98 124.61 Z" />
<path fill="#000000" opacity="1.00" d=" M 299.02 181.68 C 299.70 179.43 300.66 177.27 301.98 175.32 C 301.29 177.57 300.33 179.72 299.02 181.68 Z" />
<path fill="#000000" opacity="1.00" d=" M 191.04 201.63 C 198.32 201.46 205.60 201.99 212.81 202.97 C 224.03 205.23 236.02 208.52 247.19 204.25 C 248.31 203.91 249.42 203.54 250.53 203.18 C 250.43 203.51 250.22 204.17 250.12 204.50 C 247.64 208.63 248.56 213.27 250.59 217.36 C 251.88 220.95 253.43 224.46 254.37 228.17 C 255.65 236.97 253.14 245.58 251.57 254.14 C 251.90 268.51 256.16 282.55 256.07 297.01 C 257.93 316.80 251.89 336.17 252.44 355.92 C 252.67 371.65 253.01 387.37 253.72 403.09 L 253.76 403.91 C 253.07 403.90 251.70 403.90 251.01 403.90 C 239.16 404.05 227.10 403.42 215.50 406.35 C 209.55 407.55 203.45 407.66 197.41 407.96 C 196.22 408.08 193.86 408.30 192.68 408.41 C 191.13 408.62 189.58 408.83 188.04 409.04 C 186.32 392.45 185.38 375.70 187.16 359.06 C 189.59 339.01 186.35 318.44 192.01 298.78 C 196.37 283.12 194.97 266.68 192.50 250.81 C 191.59 234.43 191.82 218.01 191.04 201.63 M 193.00 203.70 C 194.84 220.40 193.02 237.27 195.13 253.95 C 197.30 265.86 197.82 278.12 196.12 290.13 C 194.05 299.89 190.41 309.53 191.06 319.68 C 188.90 319.24 188.84 323.71 191.01 323.33 C 190.79 329.14 190.71 334.96 190.71 340.78 C 189.60 350.17 189.06 359.61 187.92 368.99 C 188.24 376.17 188.36 383.41 189.52 390.52 C 189.08 395.73 189.66 400.95 189.84 406.16 C 198.33 405.84 206.91 405.92 215.25 404.03 C 226.78 401.04 238.79 402.14 250.56 401.96 C 252.21 380.72 248.93 359.46 251.07 338.23 C 255.60 316.70 255.20 294.30 251.20 272.73 C 249.58 263.94 248.74 255.05 250.76 246.21 C 253.97 239.61 252.34 231.82 251.31 224.86 C 249.35 219.28 246.61 214.01 244.63 208.43 C 227.09 210.49 210.49 202.50 193.00 203.70 Z" />
<path fill="#000000" opacity="1.00" d=" M 99.58 233.79 C 112.35 234.97 125.19 234.99 138.00 234.40 C 148.65 233.75 159.67 236.22 170.10 233.27 C 169.89 234.67 169.68 236.06 169.47 237.46 C 168.94 239.16 168.86 240.85 169.21 242.54 C 170.07 247.99 171.36 253.44 171.54 258.99 C 171.32 268.54 168.80 278.34 171.68 287.74 C 172.84 291.35 174.24 295.07 172.72 298.92 C 168.99 315.26 169.91 332.33 173.08 348.70 C 161.71 350.34 150.62 354.10 139.02 353.72 C 125.70 353.51 112.40 352.80 99.08 352.94 C 98.15 350.01 97.22 347.08 96.29 344.16 C 106.07 328.09 103.26 308.36 102.62 290.55 C 100.64 271.71 104.54 252.26 99.58 233.79 M 129.00 235.74 L 129.00 236.99 C 120.67 237.07 112.34 237.00 104.01 237.00 C 103.59 261.01 104.26 285.00 105.44 308.98 C 106.11 316.63 104.90 324.24 103.81 331.80 C 103.31 334.37 102.88 336.96 102.60 339.58 C 102.63 339.40 102.69 339.06 102.72 338.89 C 109.16 340.11 115.76 340.62 122.32 340.44 C 137.75 338.67 153.30 339.87 168.78 338.92 C 166.68 326.33 166.41 313.44 168.62 300.84 C 170.50 290.00 166.37 279.16 168.13 268.33 C 169.36 257.87 167.89 247.44 166.80 237.05 C 160.61 236.91 154.42 236.70 148.24 236.64 C 141.84 236.01 135.41 236.01 129.00 235.74 M 154.57 341.64 C 159.82 342.68 165.16 342.51 170.44 341.84 C 166.47 341.79 158.54 341.69 154.57 341.64 M 99.26 343.27 C 99.84 345.82 100.37 348.39 100.92 350.97 C 112.63 350.90 124.34 351.23 136.04 351.80 C 147.91 352.31 159.33 348.83 170.89 346.76 C 170.93 346.20 171.02 345.08 171.07 344.52 C 147.15 343.73 123.19 341.62 99.26 343.27 Z" />
<path fill="#000000" opacity="1.00" d=" M 199.01 299.90 C 207.66 298.93 216.35 299.63 225.01 300.01 C 224.99 301.38 224.98 302.75 224.98 304.12 C 217.67 304.29 210.43 305.07 203.25 306.41 C 199.94 306.48 200.64 301.32 199.01 299.90 Z" />
</g>
<g id="#ab5236ff">
<path fill="#ab5236" opacity="1.00" d=" M 438.77 67.54 C 439.97 66.57 441.17 65.58 442.38 64.60 C 447.30 68.02 452.24 72.10 453.89 78.17 C 462.37 101.70 450.70 126.33 453.66 150.33 C 465.54 135.77 467.41 116.25 475.87 99.93 C 478.51 101.79 481.04 103.78 483.52 105.86 C 479.17 118.68 476.70 132.29 470.16 144.27 C 462.96 154.91 453.84 164.60 449.46 176.90 C 448.75 181.99 449.55 187.20 449.86 192.31 C 452.20 214.49 449.73 236.90 452.42 259.06 C 452.99 274.75 454.92 291.02 450.39 306.34 C 448.34 317.91 447.92 329.83 444.41 341.12 C 441.98 349.48 440.42 358.21 441.36 366.94 C 441.84 374.36 444.27 381.49 444.70 388.92 C 443.94 391.22 442.25 393.05 440.92 395.03 C 426.56 394.97 412.01 395.71 397.91 392.38 C 400.53 386.50 406.94 384.91 412.83 384.43 C 414.66 374.79 418.17 364.77 415.03 355.00 C 410.08 339.10 411.25 322.31 409.56 305.95 C 408.82 285.83 407.02 264.90 413.49 245.47 C 415.85 236.93 419.15 228.66 422.98 220.68 C 424.42 218.04 424.94 215.03 425.21 212.07 C 427.37 194.13 425.79 176.02 424.44 158.09 C 424.78 151.97 419.56 148.15 415.74 144.30 C 408.62 138.55 403.40 130.92 398.78 123.11 C 394.75 117.63 394.00 110.73 392.71 104.26 C 397.91 105.58 402.88 107.68 407.39 110.59 C 418.27 117.45 424.16 129.32 432.76 138.51 C 439.49 128.37 446.31 116.85 444.55 104.13 C 444.22 97.70 441.50 91.78 440.33 85.52 C 439.05 79.63 439.26 73.52 438.77 67.54 M 402.12 390.25 C 404.97 390.57 407.83 390.84 410.69 391.06 C 411.44 389.52 412.20 387.99 412.97 386.46 C 409.24 387.43 405.47 388.32 402.12 390.25 Z" />
<path fill="#ab5236" opacity="1.00" d=" M 166.87 108.71 C 177.27 118.14 188.50 126.59 199.08 135.83 C 187.54 127.99 174.61 120.73 166.87 108.71 Z" />
<path fill="#ab5236" opacity="1.00" d=" M 139.94 142.93 C 147.47 132.08 155.73 121.74 164.75 112.08 C 177.10 123.92 191.86 132.94 204.00 145.00 C 210.03 151.03 216.93 156.06 223.73 161.15 C 232.85 169.67 242.69 178.48 246.13 190.97 C 248.97 190.74 251.85 190.51 254.69 190.21 C 254.80 191.06 255.01 192.77 255.12 193.63 C 255.55 192.02 255.98 190.42 256.34 188.80 C 260.61 188.33 264.90 187.99 269.20 188.10 C 266.96 216.10 260.28 243.99 263.64 272.23 C 264.86 282.59 269.07 292.42 268.85 302.98 C 269.48 324.57 272.59 345.98 273.89 367.53 C 275.58 379.14 279.29 391.49 275.06 402.96 C 267.94 402.99 260.83 403.03 253.72 403.09 C 253.01 387.37 252.67 371.65 252.44 355.92 C 251.89 336.17 257.93 316.80 256.07 297.01 C 256.16 282.55 251.90 268.51 251.57 254.14 C 253.14 245.58 255.65 236.97 254.37 228.17 C 253.43 224.46 251.88 220.95 250.59 217.36 C 250.36 213.07 250.20 208.78 250.12 204.50 C 250.22 204.17 250.43 203.51 250.53 203.18 C 249.42 203.54 248.31 203.91 247.19 204.25 C 235.72 204.22 224.25 203.79 212.81 202.97 C 205.60 201.99 198.32 201.46 191.04 201.63 C 191.82 218.01 191.59 234.43 192.50 250.81 C 194.97 266.68 196.37 283.12 192.01 298.78 C 186.35 318.44 189.59 339.01 187.16 359.06 C 185.38 375.70 186.32 392.45 188.04 409.04 C 174.68 411.56 161.00 410.63 147.53 412.02 C 132.73 413.40 117.82 413.36 102.98 412.84 C 92.86 412.64 83.12 409.46 73.08 408.54 C 72.18 380.44 73.82 352.39 75.62 324.37 C 77.52 311.59 81.64 299.11 80.95 286.01 C 80.38 263.62 83.22 241.36 83.10 218.98 C 82.92 212.04 84.42 205.13 86.88 198.67 C 87.80 197.38 88.73 196.10 89.67 194.83 C 99.01 184.09 110.37 175.32 119.39 164.27 C 119.75 164.00 120.47 163.46 120.83 163.19 C 122.27 163.12 123.11 162.38 123.35 160.96 C 129.60 155.66 135.41 149.80 139.94 142.93 M 145.00 163.98 C 145.00 164.47 145.00 165.45 145.00 165.93 C 159.22 165.81 173.44 166.92 187.65 166.22 C 173.68 162.80 159.22 164.17 145.00 163.98 M 123.25 180.77 C 129.47 181.99 135.78 182.70 141.95 184.18 C 165.16 190.25 189.24 184.97 212.72 183.77 C 190.87 181.10 168.66 188.46 147.01 182.98 C 139.25 180.90 131.30 179.65 123.25 180.77 M 100.01 212.14 C 100.01 212.63 100.01 213.60 100.01 214.09 C 113.72 213.52 127.46 212.52 141.17 213.74 C 152.92 214.90 165.13 216.05 176.61 212.53 C 166.42 212.27 156.20 212.94 146.04 211.83 C 130.73 210.20 115.35 211.80 100.01 212.14 M 99.58 233.79 C 104.54 252.26 100.64 271.71 102.62 290.55 C 103.26 308.36 106.07 328.09 96.29 344.16 C 97.22 347.08 98.15 350.01 99.08 352.94 C 112.40 352.80 125.70 353.51 139.02 353.72 C 150.62 354.10 161.71 350.34 173.08 348.70 C 169.91 332.33 168.99 315.26 172.72 298.92 C 174.24 295.07 172.84 291.35 171.68 287.74 C 168.80 278.34 171.32 268.54 171.54 258.99 C 171.36 253.44 170.07 247.99 169.21 242.54 C 171.24 241.84 171.40 238.37 169.47 237.46 C 169.68 236.06 169.89 234.67 170.10 233.27 C 159.67 236.22 148.65 233.75 138.00 234.40 C 125.19 234.99 112.35 234.97 99.58 233.79 Z" />
<path fill="#ab5236" opacity="1.00" d=" M 200.10 136.61 C 205.14 139.32 208.47 143.93 211.54 148.64 C 207.16 145.20 203.69 140.82 200.10 136.61 Z" />
<path fill="#ab5236" opacity="1.00" d=" M 213.07 149.91 C 214.78 151.22 216.50 152.52 218.20 153.84 C 216.47 152.55 214.75 151.25 213.07 149.91 Z" />
<path fill="#ab5236" opacity="1.00" d=" M 251.31 224.86 C 252.34 231.82 253.97 239.61 250.76 246.21 C 251.34 239.11 251.25 231.97 251.31 224.86 Z" />
<path fill="#ab5236" opacity="1.00" d=" M 129.00 235.74 C 135.41 236.01 141.84 236.01 148.24 236.64 C 141.82 236.72 135.41 236.90 129.00 236.99 L 129.00 235.74 Z" />
<path fill="#ab5236" opacity="1.00" d=" M 251.20 272.73 C 255.20 294.30 255.60 316.70 251.07 338.23 C 251.03 316.40 251.04 294.56 251.20 272.73 Z" />
<path fill="#ab5236" opacity="1.00" d=" M 102.60 339.58 C 102.88 336.96 103.31 334.37 103.81 331.80 C 103.54 333.57 102.99 337.11 102.72 338.89 C 102.69 339.06 102.63 339.40 102.60 339.58 Z" />
<path fill="#ab5236" opacity="1.00" d=" M 154.57 341.64 C 158.54 341.69 166.47 341.79 170.44 341.84 C 165.16 342.51 159.82 342.68 154.57 341.64 Z" />
<path fill="#ab5236" opacity="1.00" d=" M 187.92 368.99 C 188.70 369.00 190.28 369.00 191.07 369.01 C 190.81 376.19 190.22 383.36 189.52 390.52 C 188.36 383.41 188.24 376.17 187.92 368.99 Z" />
<path fill="#ab5236" opacity="1.00" d=" M 192.68 408.41 C 193.86 408.30 196.22 408.08 197.41 407.96 C 197.46 410.26 193.30 410.44 192.68 408.41 Z" />
</g>
<g id="#7e2553ff">
<path fill="#7e2553" opacity="1.00" d=" M 223.43 90.47 C 226.12 89.83 228.86 89.18 231.53 88.43 C 230.96 93.55 231.07 98.72 231.01 103.86 C 230.51 112.70 227.19 121.39 228.83 130.30 C 229.86 134.89 231.44 139.33 232.32 143.96 C 228.49 143.58 224.66 143.21 220.83 142.86 C 220.86 139.67 220.88 136.52 221.05 133.34 C 221.14 132.12 221.15 130.89 221.11 129.67 C 221.39 116.59 224.35 103.60 223.43 90.47 Z" />
<path fill="#7e2553" opacity="1.00" d=" M 221.81 94.55 C 222.20 96.48 221.81 98.42 221.60 100.38 C 219.55 99.26 219.80 95.61 221.81 94.55 Z" />
<path fill="#7e2553" opacity="1.00" d=" M 231.95 132.29 C 229.76 126.62 230.70 120.47 231.80 114.67 C 231.82 115.20 231.85 116.26 231.87 116.79 C 231.92 119.39 231.95 122.00 231.98 124.61 C 231.97 125.40 231.96 127.00 231.95 127.80 C 231.92 129.29 231.92 130.79 231.95 132.29 Z" />
</g>
<g id="#ffccaaff">
<path fill="#ffccaa" opacity="1.00" d=" M 145.00 163.98 C 159.22 164.17 173.68 162.80 187.65 166.22 C 173.44 166.92 159.22 165.81 145.00 165.93 C 145.00 165.45 145.00 164.47 145.00 163.98 Z" />
<path fill="#ffccaa" opacity="1.00" d=" M 123.25 180.77 C 131.30 179.65 139.25 180.90 147.01 182.98 C 168.66 188.46 190.87 181.10 212.72 183.77 C 189.24 184.97 165.16 190.25 141.95 184.18 C 135.78 182.70 129.47 181.99 123.25 180.77 Z" />
<path fill="#ffccaa" opacity="1.00" d=" M 100.01 212.14 C 115.35 211.80 130.73 210.20 146.04 211.83 C 156.20 212.94 166.42 212.27 176.61 212.53 C 165.13 216.05 152.92 214.90 141.17 213.74 C 127.46 212.52 113.72 213.52 100.01 214.09 C 100.01 213.60 100.01 212.63 100.01 212.14 Z" />
<path fill="#ffccaa" opacity="1.00" d=" M 99.26 343.27 C 123.19 341.62 147.15 343.73 171.07 344.52 C 171.02 345.08 170.93 346.20 170.89 346.76 C 159.33 348.83 147.91 352.31 136.04 351.80 C 124.34 351.23 112.63 350.90 100.92 350.97 C 100.37 348.39 99.84 345.82 99.26 343.27 Z" />
</g>
<g id="#ffa300ff">
<path fill="#ffa300" opacity="1.00" d=" M 193.00 203.70 C 210.49 202.50 227.09 210.49 244.63 208.43 C 246.61 214.01 249.35 219.28 251.31 224.86 C 251.25 231.97 251.34 239.11 250.76 246.21 C 248.74 255.05 249.58 263.94 251.20 272.73 C 251.04 294.56 251.03 316.40 251.07 338.23 C 248.93 359.46 252.21 380.72 250.56 401.96 C 238.79 402.14 226.78 401.04 215.25 404.03 C 206.91 405.92 198.33 405.84 189.84 406.16 C 189.66 400.95 189.08 395.73 189.52 390.52 C 190.22 383.36 190.81 376.19 191.07 369.01 C 191.13 359.59 190.87 350.19 190.71 340.78 C 190.71 334.96 190.79 329.14 191.01 323.33 C 191.10 322.11 191.10 320.89 191.06 319.68 C 190.41 309.53 194.05 299.89 196.12 290.13 C 197.82 278.12 197.30 265.86 195.13 253.95 C 193.02 237.27 194.84 220.40 193.00 203.70 M 199.01 299.90 C 200.64 301.32 199.94 306.48 203.25 306.41 C 210.43 305.07 217.67 304.29 224.98 304.12 C 224.98 302.75 224.99 301.38 225.01 300.01 C 216.35 299.63 207.66 298.93 199.01 299.90 Z" />
<path fill="#ffa300" opacity="1.00" d=" M 212.81 202.97 C 224.25 203.79 235.72 204.22 247.19 204.25 C 236.02 208.52 224.03 205.23 212.81 202.97 Z" />
<path fill="#ffa300" opacity="1.00" d=" M 250.59 217.36 C 248.56 213.27 247.64 208.63 250.12 204.50 C 250.20 208.78 250.36 213.07 250.59 217.36 Z" />
<path fill="#ffa300" opacity="1.00" d=" M 215.50 406.35 C 227.10 403.42 239.16 404.05 251.01 403.90 C 251.01 404.69 251.00 406.26 250.99 407.04 C 239.17 406.90 227.29 407.49 215.50 406.35 Z" />
</g>
<g id="#29adffff">
<path fill="#29adff" opacity="1.00" d=" M 104.01 237.00 C 112.34 237.00 120.67 237.07 129.00 236.99 C 135.41 236.90 141.82 236.72 148.24 236.64 C 154.42 236.70 160.61 236.91 166.80 237.05 C 167.89 247.44 169.36 257.87 168.13 268.33 C 166.37 279.16 170.50 290.00 168.62 300.84 C 166.41 313.44 166.68 326.33 168.78 338.92 C 153.30 339.87 137.75 338.67 122.32 340.44 C 115.76 340.62 109.16 340.11 102.72 338.89 C 102.99 337.11 103.54 333.57 103.81 331.80 C 104.90 324.24 106.11 316.63 105.44 308.98 C 104.26 285.00 103.59 261.01 104.01 237.00 Z" />
<path fill="#29adff" opacity="1.00" d=" M 169.21 242.54 C 168.86 240.85 168.94 239.16 169.47 237.46 C 171.40 238.37 171.24 241.84 169.21 242.54 Z" />
</g>
</svg>
