<?xml version="1.0" encoding="UTF-8" ?>
<!DOCTYPE svg PUBLIC "-//W3C//DTD SVG 1.1//EN" "http://www.w3.org/Graphics/SVG/1.1/DTD/svg11.dtd">
<svg width="120pt" height="120pt" viewBox="0 0 120 120" version="1.1" xmlns="http://www.w3.org/2000/svg">
<g id="#000000ff">
<path fill="#000000" opacity="1.00" d=" M 62.63 3.78 C 69.64 1.83 76.97 0.52 84.17 2.33 C 80.63 3.92 77.14 5.71 74.21 8.29 C 83.99 4.54 94.71 4.47 104.97 5.93 C 104.40 6.81 103.84 7.69 103.27 8.57 C 106.77 10.01 110.31 11.43 113.66 13.21 C 110.40 13.54 107.20 13.87 103.95 14.17 C 107.15 16.58 111.08 18.23 113.63 21.40 C 114.68 24.89 113.05 28.52 113.19 32.09 C 113.61 44.73 113.48 57.39 112.82 70.02 C 112.38 75.30 109.75 80.03 107.82 84.87 C 106.58 84.93 105.35 84.98 104.11 85.04 C 104.08 83.53 104.01 80.50 103.98 78.99 C 95.23 90.15 83.11 98.79 69.77 103.53 C 71.11 100.44 72.57 97.42 74.10 94.43 C 64.57 98.44 54.21 99.63 43.96 99.99 C 40.97 99.98 38.17 100.98 35.68 102.59 C 35.04 102.71 33.75 102.95 33.11 103.06 C 31.49 100.35 29.90 97.62 28.29 94.90 C 26.96 97.03 25.63 99.16 24.29 101.29 C 24.20 98.56 24.13 95.84 24.07 93.11 C 22.30 95.48 20.54 97.97 17.96 99.55 C 17.11 96.97 17.03 94.15 16.98 91.48 L 17.14 92.31 C 17.43 94.08 17.81 95.84 18.23 97.59 C 20.33 95.27 22.41 92.95 24.50 90.63 C 24.63 92.21 24.88 95.35 25.00 96.93 C 26.10 95.79 27.21 94.66 28.31 93.54 C 30.74 96.71 33.13 99.92 35.62 103.04 C 36.66 101.05 37.89 99.10 38.41 96.89 C 36.85 93.31 33.54 90.83 31.29 87.71 C 20.96 74.72 15.90 57.58 17.10 41.05 C 19.99 28.04 33.19 19.68 45.88 18.68 C 57.35 17.88 69.27 16.79 80.55 19.53 C 87.67 22.71 95.25 26.75 99.21 33.78 C 103.06 41.93 104.05 51.09 105.20 59.91 L 104.86 60.84 C 102.20 67.41 99.53 74.28 94.21 79.22 C 87.41 87.15 75.63 90.59 72.27 101.32 C 77.85 98.67 82.58 94.64 87.97 91.64 C 95.00 87.74 100.10 81.37 104.82 75.04 C 105.07 78.28 105.35 81.54 105.67 84.78 C 109.01 79.46 111.76 73.49 111.28 67.02 C 111.29 56.70 111.90 46.39 112.02 36.07 C 112.03 30.73 108.38 26.47 105.68 22.20 C 108.59 24.49 111.52 26.77 114.76 28.59 C 112.59 22.26 106.95 18.31 102.40 13.75 C 105.39 13.29 108.38 12.81 111.36 12.31 C 105.53 11.50 99.69 10.78 93.83 10.25 C 96.67 9.07 99.51 7.94 102.35 6.76 C 92.42 5.86 82.07 5.66 73.23 10.85 C 74.82 7.49 76.67 4.26 78.67 1.13 C 71.68 2.09 64.96 6.65 57.76 4.93 C 52.52 4.17 47.25 3.54 41.96 3.33 C 44.15 4.69 46.38 6.05 48.56 7.45 C 42.65 6.71 36.72 5.40 30.75 5.97 C 26.82 7.28 24.33 10.88 21.59 13.77 C 24.11 13.46 26.63 13.16 29.15 12.85 C 21.79 14.85 15.46 19.98 13.07 27.35 C 14.44 27.36 15.81 27.36 17.19 27.36 C 12.94 30.68 8.62 33.89 4.46 37.31 C 5.94 37.23 7.41 37.14 8.88 37.05 C 6.29 41.99 3.96 47.06 1.95 52.27 C 4.74 50.46 7.49 48.60 10.27 46.79 C 8.94 56.84 6.92 66.81 2.92 76.19 C 5.73 74.14 8.46 71.96 11.46 70.18 C 8.27 73.73 5.15 77.34 2.40 81.24 C 2.62 76.15 2.15 70.88 4.05 66.03 C 6.11 60.51 7.70 54.82 9.21 49.13 C 6.46 51.07 3.65 52.92 0.68 54.51 C 1.72 48.85 4.64 43.61 4.81 37.78 C 4.64 33.34 9.86 31.56 11.64 28.01 C 14.56 20.43 19.61 13.94 25.00 7.97 C 29.33 3.11 36.45 5.09 42.13 3.43 C 48.93 1.48 55.81 3.32 62.63 3.78 M 54.44 19.68 C 51.92 19.89 49.41 20.11 46.88 20.25 C 34.30 20.08 21.68 29.01 18.24 41.22 C 16.43 53.83 21.00 65.81 25.84 77.15 C 30.10 86.43 37.67 94.65 47.25 98.45 C 67.43 99.55 86.66 88.26 98.20 72.17 C 105.63 61.32 103.57 46.81 98.55 35.41 C 95.42 28.65 88.40 25.20 82.24 21.71 C 73.86 16.75 63.59 19.62 54.44 19.68 M 111.12 59.54 C 108.82 62.96 115.06 60.31 111.12 59.54 M 40.43 96.73 C 39.38 97.92 41.21 100.17 42.57 99.27 C 43.62 98.07 41.78 95.83 40.43 96.73 Z" />
<path fill="#000000" opacity="1.00" d=" M 30.29 28.42 C 32.76 28.28 35.13 29.14 37.51 29.66 C 36.85 32.19 36.09 34.70 35.17 37.15 C 31.82 37.02 28.48 36.93 25.13 36.86 C 26.56 34.35 26.39 28.96 30.29 28.42 M 29.35 30.31 C 27.78 31.98 27.42 34.36 26.73 36.45 C 28.05 34.80 29.26 33.06 30.42 31.29 C 30.86 31.39 31.74 31.60 32.18 31.70 C 31.65 32.05 30.60 32.77 30.08 33.12 C 30.05 33.84 29.98 35.27 29.95 35.98 C 31.28 36.00 32.60 36.02 33.93 36.04 C 34.06 35.09 34.33 33.17 34.47 32.21 C 35.02 32.33 36.13 32.57 36.68 32.69 C 34.56 31.39 31.82 27.80 29.35 30.31 Z" />
<path fill="#000000" opacity="1.00" d=" M 77.75 29.51 C 80.49 30.33 83.18 31.31 85.84 32.35 C 84.66 35.19 83.28 37.94 81.62 40.53 L 86.14 41.28 C 79.78 41.30 74.44 37.04 73.83 30.75 C 75.09 32.55 76.26 34.40 77.43 36.27 C 77.48 34.01 77.58 31.76 77.75 29.51 M 79.50 31.23 C 79.92 32.80 80.40 34.36 80.89 35.91 C 80.34 35.74 79.24 35.40 78.69 35.23 C 79.15 35.86 80.08 37.11 80.54 37.74 L 80.16 38.31 C 80.88 38.20 82.30 37.98 83.02 37.87 C 83.31 36.14 83.61 34.42 83.91 32.70 C 83.34 33.53 82.78 34.36 82.22 35.20 C 81.46 33.78 80.47 32.50 79.50 31.23 Z" />
<path fill="#000000" opacity="1.00" d=" M 38.93 30.71 C 39.82 31.29 40.71 31.87 41.61 32.45 C 40.51 35.55 40.08 39.24 37.73 41.76 C 34.49 44.66 30.02 45.47 25.82 45.56 C 30.69 43.72 37.31 42.76 38.95 37.04 C 39.44 34.94 39.15 32.81 38.93 30.71 Z" />
<path fill="#000000" opacity="1.00" d=" M 32.13 33.11 C 33.44 33.78 33.43 34.46 32.11 35.14 C 30.81 34.47 30.82 33.80 32.13 33.11 Z" />
<path fill="#000000" opacity="1.00" d=" M 68.53 36.58 C 70.17 43.88 72.05 51.11 73.76 58.39 C 69.57 51.93 69.42 44.00 68.53 36.58 Z" />
<path fill="#000000" opacity="1.00" d=" M 42.75 59.61 C 43.22 52.56 43.93 45.48 45.73 38.62 C 45.67 45.71 45.12 52.87 42.75 59.61 Z" />
<path fill="#000000" opacity="1.00" d=" M 39.51 61.24 C 50.96 58.47 63.49 55.95 74.97 59.79 C 75.03 61.34 75.06 62.88 75.09 64.43 C 71.36 65.16 67.58 65.57 63.79 65.64 C 62.30 70.21 61.05 75.23 57.69 78.86 C 54.57 79.70 51.74 77.54 50.15 75.05 C 47.11 70.06 42.88 65.99 39.51 61.24 M 40.44 62.36 C 43.14 64.71 45.79 67.37 49.38 68.23 C 49.51 73.16 52.70 76.59 56.71 78.77 C 59.09 74.38 61.28 69.87 62.99 65.16 C 66.94 64.77 70.93 64.21 74.65 62.74 C 73.03 61.15 71.18 59.60 68.90 59.14 C 59.30 58.32 49.67 59.75 40.44 62.36 Z" />
<path fill="#000000" opacity="1.00" d=" M 12.24 69.72 C 12.23 70.02 12.21 70.61 12.21 70.91 C 12.07 74.21 11.61 77.49 11.25 80.78 C 12.03 80.14 12.81 79.49 13.59 78.85 C 12.78 84.26 12.24 89.70 11.72 95.15 C 13.62 92.28 15.48 89.39 17.41 86.54 C 17.30 88.16 17.20 89.78 17.14 91.40 C 16.98 90.80 16.66 89.58 16.49 88.98 C 15.10 91.88 13.67 94.77 12.08 97.58 C 10.75 88.45 8.65 78.60 12.24 69.72 Z" />
<path fill="#000000" opacity="1.00" d=" M 38.01 82.36 C 52.30 81.11 66.77 79.96 81.05 81.77 C 79.22 85.08 77.79 89.59 73.55 90.31 C 62.26 92.53 50.34 94.09 39.01 91.30 C 38.73 88.32 38.36 85.33 38.01 82.36 M 44.50 83.32 C 54.84 84.92 65.34 83.70 75.69 85.12 C 74.38 87.07 72.51 88.87 70.02 88.91 C 60.64 89.39 51.23 89.62 41.84 89.32 C 42.48 87.18 43.16 85.06 43.81 82.92 C 41.99 83.43 40.18 83.96 38.36 84.48 C 39.62 87.06 40.51 90.48 43.61 91.41 C 48.12 92.82 52.95 91.52 57.56 91.51 C 65.10 90.75 73.13 90.16 79.41 85.41 C 79.17 84.61 78.69 83.00 78.45 82.20 C 67.13 81.83 55.72 81.53 44.50 83.32 Z" />
</g>
<g id="#ffa300ff">
<path fill="#ffa300" opacity="1.00" d=" M 57.76 4.93 C 64.96 6.65 71.68 2.09 78.67 1.13 C 76.67 4.26 74.82 7.49 73.23 10.85 C 82.07 5.66 92.42 5.86 102.35 6.76 C 99.51 7.94 96.67 9.07 93.83 10.25 C 99.69 10.78 105.53 11.50 111.36 12.31 C 108.38 12.81 105.39 13.29 102.40 13.75 C 106.95 18.31 112.59 22.26 114.76 28.59 C 111.52 26.77 108.59 24.49 105.68 22.20 C 108.38 26.47 112.03 30.73 112.02 36.07 C 111.90 46.39 111.29 56.70 111.28 67.02 C 111.76 73.49 109.01 79.46 105.67 84.78 C 105.35 81.54 105.07 78.28 104.82 75.04 C 100.10 81.37 95.00 87.74 87.97 91.64 C 82.58 94.64 77.85 98.67 72.27 101.32 C 75.63 90.59 87.41 87.15 94.21 79.22 C 99.53 74.28 102.20 67.41 104.86 60.84 C 106.73 57.67 108.33 54.33 109.44 50.80 C 107.86 53.76 106.41 56.78 105.20 59.91 C 104.05 51.09 103.06 41.93 99.21 33.78 C 95.25 26.75 87.67 22.71 80.55 19.53 C 69.27 16.79 57.35 17.88 45.88 18.68 C 33.19 19.68 19.99 28.04 17.10 41.05 C 15.90 57.58 20.96 74.72 31.29 87.71 C 33.54 90.83 36.85 93.31 38.41 96.89 C 37.89 99.10 36.66 101.05 35.62 103.04 C 33.13 99.92 30.74 96.71 28.31 93.54 C 27.21 94.66 26.10 95.79 25.00 96.93 C 24.88 95.35 24.63 92.21 24.50 90.63 C 22.41 92.95 20.33 95.27 18.23 97.59 C 17.81 95.84 17.43 94.08 17.14 92.31 L 17.14 91.40 C 17.20 89.78 17.30 88.16 17.41 86.54 C 15.48 89.39 13.62 92.28 11.72 95.15 C 12.24 89.70 12.78 84.26 13.59 78.85 C 12.81 79.49 12.03 80.14 11.25 80.78 C 11.61 77.49 12.07 74.21 12.21 70.91 C 13.17 71.29 14.67 72.12 15.49 71.05 C 15.76 69.36 13.32 68.72 12.24 69.72 L 11.46 70.18 C 8.46 71.96 5.73 74.14 2.92 76.19 C 6.92 66.81 8.94 56.84 10.27 46.79 C 7.49 48.60 4.74 50.46 1.95 52.27 C 3.96 47.06 6.29 41.99 8.88 37.05 C 7.41 37.14 5.94 37.23 4.46 37.31 C 8.62 33.89 12.94 30.68 17.19 27.36 C 15.81 27.36 14.44 27.36 13.07 27.35 C 15.46 19.98 21.79 14.85 29.15 12.85 C 26.63 13.16 24.11 13.46 21.59 13.77 C 24.33 10.88 26.82 7.28 30.75 5.97 C 36.72 5.40 42.65 6.71 48.56 7.45 C 46.38 6.05 44.15 4.69 41.96 3.33 C 47.25 3.54 52.52 4.17 57.76 4.93 M 49.79 6.79 C 52.31 7.38 54.91 7.86 57.23 9.07 C 55.90 12.36 53.54 15.06 51.38 17.82 C 54.67 15.79 59.05 12.79 57.83 8.28 C 56.14 5.30 52.51 6.57 49.79 6.79 M 58.73 16.99 C 63.02 13.82 67.18 10.39 72.09 8.18 C 66.00 7.75 61.93 12.45 58.73 16.99 M 31.48 11.05 C 35.25 10.86 39.02 10.49 42.80 10.70 C 43.19 11.82 43.58 12.94 43.97 14.07 C 42.89 15.35 41.82 16.64 40.76 17.93 C 42.25 17.26 43.73 16.58 45.21 15.90 C 44.80 13.78 44.38 11.67 43.97 9.55 C 39.77 9.63 35.54 9.91 31.48 11.05 M 78.54 15.60 C 83.50 14.70 88.48 12.32 93.54 14.28 C 94.93 15.60 95.87 17.29 96.90 18.88 C 94.08 18.55 91.27 18.13 88.46 17.73 C 91.52 18.98 94.68 19.85 97.88 20.68 C 96.99 17.19 95.94 11.14 90.47 12.31 C 86.21 11.37 82.31 13.97 78.54 15.60 M 19.20 26.63 C 23.15 23.97 27.02 19.60 32.28 20.93 C 32.11 20.28 31.76 18.98 31.59 18.34 C 26.45 19.23 21.94 22.22 19.20 26.63 M 99.09 25.57 C 102.24 30.88 105.71 36.06 107.52 42.04 C 107.19 35.56 104.20 29.53 99.09 25.57 M 11.92 38.04 C 11.49 40.72 11.07 43.38 10.66 46.07 C 12.10 42.81 13.62 39.58 15.53 36.55 C 14.33 37.06 13.13 37.56 11.92 38.04 M 9.88 69.24 C 10.69 63.99 11.79 58.78 12.43 53.50 C 10.15 58.40 9.58 63.89 9.88 69.24 Z" />
<path fill="#ffa300" opacity="1.00" d=" M 30.72 25.98 C 35.49 25.49 40.29 25.63 44.92 26.90 C 44.95 27.66 45.01 29.16 45.04 29.91 C 40.30 28.48 35.50 27.25 30.72 25.98 Z" />
<path fill="#ffa300" opacity="1.00" d=" M 68.60 30.75 C 73.18 28.13 78.13 25.98 83.57 26.31 C 78.78 28.39 73.71 29.77 68.60 30.75 Z" />
</g>
<g id="#ffec27ff">
<path fill="#ffec27" opacity="1.00" d=" M 49.79 6.79 C 52.51 6.57 56.14 5.30 57.83 8.28 C 59.05 12.79 54.67 15.79 51.38 17.82 C 53.54 15.06 55.90 12.36 57.23 9.07 C 54.91 7.86 52.31 7.38 49.79 6.79 Z" />
<path fill="#ffec27" opacity="1.00" d=" M 58.73 16.99 C 61.93 12.45 66.00 7.75 72.09 8.18 C 67.18 10.39 63.02 13.82 58.73 16.99 Z" />
<path fill="#ffec27" opacity="1.00" d=" M 31.48 11.05 C 35.54 9.91 39.77 9.63 43.97 9.55 C 44.38 11.67 44.80 13.78 45.21 15.90 C 43.73 16.58 42.25 17.26 40.76 17.93 C 41.82 16.64 42.89 15.35 43.97 14.07 C 43.58 12.94 43.19 11.82 42.80 10.70 C 39.02 10.49 35.25 10.86 31.48 11.05 Z" />
<path fill="#ffec27" opacity="1.00" d=" M 78.54 15.60 C 82.31 13.97 86.21 11.37 90.47 12.31 C 95.94 11.14 96.99 17.19 97.88 20.68 C 94.68 19.85 91.52 18.98 88.46 17.73 C 91.27 18.13 94.08 18.55 96.90 18.88 C 95.87 17.29 94.93 15.60 93.54 14.28 C 88.48 12.32 83.50 14.70 78.54 15.60 Z" />
<path fill="#ffec27" opacity="1.00" d=" M 19.20 26.63 C 21.94 22.22 26.45 19.23 31.59 18.34 C 31.76 18.98 32.11 20.28 32.28 20.93 C 27.02 19.60 23.15 23.97 19.20 26.63 Z" />
<path fill="#ffec27" opacity="1.00" d=" M 54.44 19.68 C 63.59 19.62 73.86 16.75 82.24 21.71 C 88.40 25.20 95.42 28.65 98.55 35.41 C 103.57 46.81 105.63 61.32 98.20 72.17 C 86.66 88.26 67.43 99.55 47.25 98.45 C 37.67 94.65 30.10 86.43 25.84 77.15 C 21.00 65.81 16.43 53.83 18.24 41.22 C 21.68 29.01 34.30 20.08 46.88 20.25 C 49.41 20.11 51.92 19.89 54.44 19.68 M 30.72 25.98 C 35.50 27.25 40.30 28.48 45.04 29.91 C 45.01 29.16 44.95 27.66 44.92 26.90 C 40.29 25.63 35.49 25.49 30.72 25.98 M 68.60 30.75 C 73.71 29.77 78.78 28.39 83.57 26.31 C 78.13 25.98 73.18 28.13 68.60 30.75 M 30.29 28.42 C 26.39 28.96 26.56 34.35 25.13 36.86 C 28.48 36.93 31.82 37.02 35.17 37.15 C 36.09 34.70 36.85 32.19 37.51 29.66 C 35.13 29.14 32.76 28.28 30.29 28.42 M 77.75 29.51 C 77.58 31.76 77.48 34.01 77.43 36.27 C 76.26 34.40 75.09 32.55 73.83 30.75 C 74.44 37.04 79.78 41.30 86.14 41.28 L 81.62 40.53 C 83.28 37.94 84.66 35.19 85.84 32.35 C 83.18 31.31 80.49 30.33 77.75 29.51 M 38.93 30.71 C 39.15 32.81 39.44 34.94 38.95 37.04 C 37.31 42.76 30.69 43.72 25.82 45.56 C 30.02 45.47 34.49 44.66 37.73 41.76 C 40.08 39.24 40.51 35.55 41.61 32.45 C 40.71 31.87 39.82 31.29 38.93 30.71 M 68.53 36.58 C 69.42 44.00 69.57 51.93 73.76 58.39 C 72.05 51.11 70.17 43.88 68.53 36.58 M 42.75 59.61 C 45.12 52.87 45.67 45.71 45.73 38.62 C 43.93 45.48 43.22 52.56 42.75 59.61 M 39.51 61.24 C 42.88 65.99 47.11 70.06 50.15 75.05 C 51.74 77.54 54.57 79.70 57.69 78.86 C 61.05 75.23 62.30 70.21 63.79 65.64 C 67.58 65.57 71.36 65.16 75.09 64.43 C 75.06 62.88 75.03 61.34 74.97 59.79 C 63.49 55.95 50.96 58.47 39.51 61.24 M 38.01 82.36 C 38.36 85.33 38.73 88.32 39.01 91.30 C 50.34 94.09 62.26 92.53 73.55 90.31 C 77.79 89.59 79.22 85.08 81.05 81.77 C 66.77 79.96 52.30 81.11 38.01 82.36 Z" />
<path fill="#ffec27" opacity="1.00" d=" M 99.09 25.57 C 104.20 29.53 107.19 35.56 107.52 42.04 C 105.71 36.06 102.24 30.88 99.09 25.57 Z" />
<path fill="#ffec27" opacity="1.00" d=" M 29.35 30.31 C 31.82 27.80 34.56 31.39 36.68 32.69 C 36.13 32.57 35.02 32.33 34.47 32.21 C 33.90 32.08 32.75 31.83 32.18 31.70 C 31.74 31.60 30.86 31.39 30.42 31.29 C 29.26 33.06 28.05 34.80 26.73 36.45 C 27.42 34.36 27.78 31.98 29.35 30.31 Z" />
<path fill="#ffec27" opacity="1.00" d=" M 82.22 35.20 C 82.78 34.36 83.34 33.53 83.91 32.70 C 83.61 34.42 83.31 36.14 83.02 37.87 C 82.30 37.98 80.88 38.20 80.16 38.31 L 80.54 37.74 C 81.11 36.90 81.67 36.05 82.22 35.20 Z" />
<path fill="#ffec27" opacity="1.00" d=" M 11.92 38.04 C 13.13 37.56 14.33 37.06 15.53 36.55 C 13.62 39.58 12.10 42.81 10.66 46.07 C 11.07 43.38 11.49 40.72 11.92 38.04 Z" />
<path fill="#ffec27" opacity="1.00" d=" M 105.20 59.91 C 106.41 56.78 107.86 53.76 109.44 50.80 C 108.33 54.33 106.73 57.67 104.86 60.84 L 105.20 59.91 Z" />
<path fill="#ffec27" opacity="1.00" d=" M 9.88 69.24 C 9.58 63.89 10.15 58.40 12.43 53.50 C 11.79 58.78 10.69 63.99 9.88 69.24 Z" />
<path fill="#ffec27" opacity="1.00" d=" M 12.24 69.72 C 13.32 68.72 15.76 69.36 15.49 71.05 C 14.67 72.12 13.17 71.29 12.21 70.91 C 12.21 70.61 12.23 70.02 12.24 69.72 Z" />
</g>
<g id="#fff1e8ff">
<path fill="#fff1e8" opacity="1.00" d=" M 30.08 33.12 C 30.60 32.77 31.65 32.05 32.18 31.70 C 32.75 31.83 33.90 32.08 34.47 32.21 C 34.33 33.17 34.06 35.09 33.93 36.04 C 32.60 36.02 31.28 36.00 29.95 35.98 C 29.98 35.27 30.05 33.84 30.08 33.12 M 32.13 33.11 C 30.82 33.80 30.81 34.47 32.11 35.14 C 33.43 34.46 33.44 33.78 32.13 33.11 Z" />
<path fill="#fff1e8" opacity="1.00" d=" M 79.50 31.23 C 80.47 32.50 81.46 33.78 82.22 35.20 C 81.67 36.05 81.11 36.90 80.54 37.74 C 80.08 37.11 79.15 35.86 78.69 35.23 C 79.24 35.40 80.34 35.74 80.89 35.91 C 80.40 34.36 79.92 32.80 79.50 31.23 Z" />
</g>
<g id="#7e2553ff">
<path fill="#7e2553" opacity="1.00" d=" M 40.44 62.36 C 49.67 59.75 59.30 58.32 68.90 59.14 C 71.18 59.60 73.03 61.15 74.65 62.74 C 70.93 64.21 66.94 64.77 62.99 65.16 C 61.28 69.87 59.09 74.38 56.71 78.77 C 52.70 76.59 49.51 73.16 49.38 68.23 C 45.79 67.37 43.14 64.71 40.44 62.36 Z" />
</g>
<g id="#ff004dff">
<path fill="#ff004d" opacity="1.00" d=" M 44.50 83.32 C 55.72 81.53 67.13 81.83 78.45 82.20 C 78.69 83.00 79.17 84.61 79.41 85.41 C 73.13 90.16 65.10 90.75 57.56 91.51 C 52.95 91.52 48.12 92.82 43.61 91.41 C 40.51 90.48 39.62 87.06 38.36 84.48 C 40.18 83.96 41.99 83.43 43.81 82.92 C 43.16 85.06 42.48 87.18 41.84 89.32 C 51.23 89.62 60.64 89.39 70.02 88.91 C 72.51 88.87 74.38 87.07 75.69 85.12 C 65.34 83.70 54.84 84.92 44.50 83.32 Z" />
</g>
</svg>
