<?xml version="1.0" encoding="UTF-8" ?>
<!DOCTYPE svg PUBLIC "-//W3C//DTD SVG 1.1//EN" "http://www.w3.org/Graphics/SVG/1.1/DTD/svg11.dtd">
<svg width="120pt" height="120pt" viewBox="0 0 120 120" version="1.1" xmlns="http://www.w3.org/2000/svg">
<g id="#000000ff">
<path fill="#000000" opacity="1.00" d=" M 17.77 8.80 C 31.23 6.49 44.48 2.33 58.22 2.07 C 65.18 3.51 73.34 2.13 79.07 6.94 C 85.42 5.44 92.09 5.59 98.48 6.64 C 100.96 8.99 103.71 11.32 105.46 14.29 C 106.56 18.59 107.09 23.06 108.46 27.31 C 109.46 30.38 108.31 33.57 108.70 36.70 C 108.90 43.35 112.13 49.40 112.44 56.02 C 112.79 60.28 114.73 64.76 112.97 68.94 C 111.28 73.50 109.68 78.08 108.24 82.72 C 109.83 85.32 111.29 88.01 112.33 90.89 C 107.86 91.30 103.61 92.81 99.21 93.48 C 95.87 91.54 93.64 88.17 90.91 85.50 C 83.23 93.19 73.24 98.07 62.69 100.39 C 53.54 101.57 44.29 100.64 35.27 99.07 C 31.47 96.57 28.61 92.97 26.15 89.21 C 25.34 91.42 24.50 93.62 23.66 95.83 C 16.47 92.62 9.22 86.02 9.17 77.62 C 7.47 76.81 5.78 75.97 4.05 75.20 C 3.59 64.57 6.32 54.23 7.26 43.73 L 3.32 41.87 C 5.20 34.95 6.72 27.95 8.16 20.94 C 9.67 15.55 15.44 13.30 20.42 12.35 C 19.53 11.18 18.64 9.99 17.77 8.80 M 33.74 5.96 C 30.05 9.64 24.39 8.82 19.70 9.88 C 21.44 11.16 23.19 12.41 24.96 13.64 C 21.44 14.19 17.76 14.19 14.42 15.52 C 11.11 17.53 9.40 21.21 7.53 24.45 C 8.19 24.44 9.49 24.41 10.15 24.40 C 8.18 30.18 6.21 35.97 4.60 41.86 C 6.08 41.71 7.56 41.55 9.04 41.39 C 8.61 45.42 9.15 49.63 7.78 53.51 C 5.64 59.82 4.98 66.54 4.98 73.17 C 6.72 73.94 8.41 74.79 10.12 75.61 C 9.54 84.24 17.27 89.69 23.02 94.73 C 23.98 91.56 25.74 88.17 24.35 84.85 C 19.75 70.82 17.19 55.78 20.05 41.09 C 21.43 29.34 31.67 22.12 39.45 14.47 C 45.43 7.90 55.01 8.71 62.98 9.10 C 70.81 9.13 77.59 13.43 84.36 16.79 C 92.42 22.16 97.88 31.18 100.60 40.34 C 101.77 55.26 100.21 71.47 91.77 84.28 C 94.96 87.49 98.11 90.77 101.58 93.70 C 101.53 92.25 101.48 90.80 101.42 89.35 C 104.76 90.06 108.16 90.52 111.58 90.51 C 109.83 88.22 108.02 85.97 106.19 83.74 C 107.10 80.70 107.52 77.54 107.71 74.38 C 108.30 74.31 108.90 74.24 109.50 74.18 C 110.05 70.68 111.90 67.64 113.85 64.76 C 112.55 62.21 111.24 59.68 109.94 57.14 C 111.95 53.51 110.32 49.61 108.92 46.10 C 107.64 43.24 108.42 40.11 108.70 37.14 C 107.61 37.08 106.52 37.01 105.42 36.95 C 106.65 33.81 107.66 30.58 108.51 27.31 C 106.93 26.41 105.35 25.52 103.76 24.65 C 104.63 21.98 105.34 19.26 106.02 16.53 C 105.19 15.39 104.37 14.25 103.56 13.10 C 101.82 13.32 100.08 13.55 98.35 13.79 C 98.41 11.70 98.47 9.60 98.54 7.50 C 91.65 7.93 84.60 6.54 77.89 8.78 C 77.19 7.69 76.48 6.59 75.78 5.50 C 71.30 5.20 66.65 5.98 62.29 4.64 C 52.89 1.12 43.36 6.85 33.74 5.96 M 51.42 10.40 C 48.28 10.86 44.90 11.26 42.49 13.48 C 32.50 22.50 20.70 32.44 20.06 47.02 C 20.21 62.42 20.94 79.69 30.37 92.70 C 34.68 99.39 43.43 98.75 50.31 99.78 C 68.67 100.83 89.59 91.41 96.18 73.14 C 99.56 62.22 101.34 50.40 98.92 39.09 C 96.06 31.15 91.54 23.45 84.45 18.57 C 74.61 12.52 63.34 7.62 51.42 10.40 Z" />
<path fill="#000000" opacity="1.00" d=" M 45.35 54.18 C 42.96 42.83 41.89 30.87 45.62 19.67 C 44.28 31.04 43.42 42.70 46.91 53.79 C 52.68 53.58 58.46 53.51 64.23 53.70 C 65.23 42.37 64.01 31.04 63.73 19.71 C 65.12 30.80 65.70 41.98 65.24 53.15 C 69.70 53.86 75.80 54.50 77.41 59.64 C 79.48 64.37 75.18 68.40 71.61 70.78 C 73.07 77.39 73.69 84.14 73.88 90.90 C 72.28 90.44 70.69 89.95 69.10 89.44 C 68.96 90.69 68.81 91.94 68.67 93.19 C 66.86 91.50 65.10 89.77 63.33 88.04 C 62.99 89.48 62.65 90.94 62.30 92.38 C 57.05 90.53 50.57 93.20 46.30 88.76 C 42.65 83.14 42.54 75.39 37.02 70.99 C 34.70 68.73 30.95 66.07 32.29 62.33 C 34.16 56.88 40.57 55.68 45.35 54.18 M 43.36 56.41 C 46.08 58.29 48.98 59.87 52.03 61.15 C 52.57 66.74 56.45 69.39 62.03 68.03 C 61.60 65.59 61.11 63.15 60.49 60.75 C 61.88 59.64 63.27 58.53 64.65 57.42 C 58.65 51.88 50.40 54.91 43.36 56.41 M 65.03 53.98 C 62.60 58.98 62.56 64.53 64.68 69.57 C 68.94 68.76 75.66 69.00 76.51 63.39 C 77.58 57.15 69.87 54.44 65.03 53.98 M 41.54 56.22 C 37.85 58.05 34.72 60.74 32.14 63.94 C 34.78 66.92 37.43 71.25 41.96 71.07 C 48.05 72.61 51.73 67.24 52.54 62.14 C 48.49 60.91 44.64 59.12 41.54 56.22 M 41.10 72.89 C 43.23 78.89 45.69 84.76 48.86 90.29 C 49.76 89.32 50.65 88.34 51.53 87.36 C 52.86 88.59 54.18 89.83 55.52 91.06 C 56.12 89.81 56.73 88.56 57.33 87.31 C 58.45 88.18 60.71 89.93 61.84 90.80 L 62.41 85.70 C 64.31 87.36 66.18 89.06 67.99 90.83 C 68.05 89.55 68.11 88.27 68.17 86.99 C 69.85 87.70 71.53 88.41 73.21 89.11 C 72.66 82.71 72.87 75.73 68.76 70.34 C 65.63 69.32 62.38 68.41 59.05 68.60 C 52.58 67.59 47.24 71.96 41.10 72.89 Z" />
<path fill="#000000" opacity="1.00" d=" M 71.44 26.26 C 74.19 26.67 77.17 26.84 79.55 28.45 C 81.40 30.67 81.73 33.74 82.88 36.27 C 80.69 36.37 78.50 36.66 76.32 36.40 C 71.57 36.15 73.04 28.85 71.44 26.26 M 72.46 27.31 C 73.27 29.82 73.75 32.54 75.32 34.72 C 77.43 35.44 79.69 35.22 81.87 35.31 C 80.46 30.97 77.09 27.82 72.46 27.31 Z" />
<path fill="#000000" opacity="1.00" d=" M 31.21 29.47 C 34.27 30.40 37.30 31.46 40.28 32.66 C 40.10 34.48 39.75 38.13 39.58 39.96 C 36.28 39.55 32.99 39.13 29.74 38.49 C 30.24 35.48 30.75 32.48 31.21 29.47 M 32.42 30.30 C 31.84 32.67 31.26 35.04 30.69 37.42 C 33.35 37.66 38.14 40.93 38.97 36.87 C 39.81 32.96 34.96 31.91 32.42 30.30 Z" />
<path fill="#000000" opacity="1.00" d=" M 75.68 31.24 C 76.61 29.87 79.25 31.23 78.32 32.76 C 77.38 34.13 74.75 32.77 75.68 31.24 Z" />
<path fill="#000000" opacity="1.00" d=" M 34.17 34.17 C 35.80 33.65 36.35 34.20 35.83 35.83 C 34.20 36.35 33.65 35.80 34.17 34.17 Z" />
<path fill="#000000" opacity="1.00" d=" M 60.33 70.45 C 63.73 70.18 67.92 71.59 68.61 75.37 C 71.03 81.22 63.60 84.79 58.98 84.07 C 54.69 83.90 49.54 84.83 45.96 81.81 C 42.86 72.86 54.59 71.39 60.33 70.45 M 61.59 72.15 C 62.22 73.54 62.86 74.93 63.50 76.32 C 64.08 74.89 64.65 73.45 65.21 72.01 C 64.31 72.04 62.50 72.11 61.59 72.15 M 50.17 74.80 C 48.90 75.26 49.41 77.65 50.83 77.20 C 52.10 76.74 51.59 74.35 50.17 74.80 Z" />
</g>
<g id="#ab5236ff">
<path fill="#ab5236" opacity="1.00" d=" M 33.74 5.96 C 43.36 6.85 52.89 1.12 62.29 4.64 C 66.65 5.98 71.30 5.20 75.78 5.50 C 76.48 6.59 77.19 7.69 77.89 8.78 C 84.60 6.54 91.65 7.93 98.54 7.50 C 98.47 9.60 98.41 11.70 98.35 13.79 C 100.08 13.55 101.82 13.32 103.56 13.10 C 104.37 14.25 105.19 15.39 106.02 16.53 C 105.34 19.26 104.63 21.98 103.76 24.65 C 105.35 25.52 106.93 26.41 108.51 27.31 C 107.66 30.58 106.65 33.81 105.42 36.95 C 106.52 37.01 107.61 37.08 108.70 37.14 C 108.42 40.11 107.64 43.24 108.92 46.10 C 110.32 49.61 111.95 53.51 109.94 57.14 C 111.24 59.68 112.55 62.21 113.85 64.76 C 111.90 67.64 110.05 70.68 109.50 74.18 C 108.90 74.24 108.30 74.31 107.71 74.38 C 107.52 77.54 107.10 80.70 106.19 83.74 C 108.02 85.97 109.83 88.22 111.58 90.51 C 108.16 90.52 104.76 90.06 101.42 89.35 C 101.48 90.80 101.53 92.25 101.58 93.70 C 98.11 90.77 94.96 87.49 91.77 84.28 C 100.21 71.47 101.77 55.26 100.60 40.34 C 97.88 31.18 92.42 22.16 84.36 16.79 C 77.59 13.43 70.81 9.13 62.98 9.10 C 55.01 8.71 45.43 7.90 39.45 14.47 C 31.67 22.12 21.43 29.34 20.05 41.09 C 17.19 55.78 19.75 70.82 24.35 84.85 C 25.74 88.17 23.98 91.56 23.02 94.73 C 17.27 89.69 9.54 84.24 10.12 75.61 C 8.41 74.79 6.72 73.94 4.98 73.17 C 4.98 66.54 5.64 59.82 7.78 53.51 C 9.15 49.63 8.61 45.42 9.04 41.39 C 7.56 41.55 6.08 41.71 4.60 41.86 C 6.21 35.97 8.18 30.18 10.15 24.40 C 9.49 24.41 8.19 24.44 7.53 24.45 C 9.40 21.21 11.11 17.53 14.42 15.52 C 17.76 14.19 21.44 14.19 24.96 13.64 C 23.19 12.41 21.44 11.16 19.70 9.88 C 24.39 8.82 30.05 9.64 33.74 5.96 Z" />
<path fill="#ab5236" opacity="1.00" d=" M 41.10 72.89 C 47.24 71.96 52.58 67.59 59.05 68.60 C 62.38 68.41 65.63 69.32 68.76 70.34 C 72.87 75.73 72.66 82.71 73.21 89.11 C 71.53 88.41 69.85 87.70 68.17 86.99 C 68.11 88.27 68.05 89.55 67.99 90.83 C 66.18 89.06 64.31 87.36 62.41 85.70 L 61.84 90.80 C 60.71 89.93 58.45 88.18 57.33 87.31 C 56.73 88.56 56.12 89.81 55.52 91.06 C 54.18 89.83 52.86 88.59 51.53 87.36 C 50.65 88.34 49.76 89.32 48.86 90.29 C 45.69 84.76 43.23 78.89 41.10 72.89 M 60.33 70.45 C 54.59 71.39 42.86 72.86 45.96 81.81 C 49.54 84.83 54.69 83.90 58.98 84.07 C 63.60 84.79 71.03 81.22 68.61 75.37 C 67.92 71.59 63.73 70.18 60.33 70.45 Z" />
</g>
<g id="#ffa300ff">
<path fill="#ffa300" opacity="1.00" d=" M 51.42 10.40 C 63.34 7.62 74.61 12.52 84.45 18.57 C 91.54 23.45 96.06 31.15 98.92 39.09 C 101.34 50.40 99.56 62.22 96.18 73.14 C 89.59 91.41 68.67 100.83 50.31 99.78 C 43.43 98.75 34.68 99.39 30.37 92.70 C 20.94 79.69 20.21 62.42 20.06 47.02 C 20.70 32.44 32.50 22.50 42.49 13.48 C 44.90 11.26 48.28 10.86 51.42 10.40 M 45.35 54.18 C 40.57 55.68 34.16 56.88 32.29 62.33 C 30.95 66.07 34.70 68.73 37.02 70.99 C 42.54 75.39 42.65 83.14 46.30 88.76 C 50.57 93.20 57.05 90.53 62.30 92.38 C 62.65 90.94 62.99 89.48 63.33 88.04 C 65.10 89.77 66.86 91.50 68.67 93.19 C 68.81 91.94 68.96 90.69 69.10 89.44 C 70.69 89.95 72.28 90.44 73.88 90.90 C 73.69 84.14 73.07 77.39 71.61 70.78 C 75.18 68.40 79.48 64.37 77.41 59.64 C 75.80 54.50 69.70 53.86 65.24 53.15 C 65.70 41.98 65.12 30.80 63.73 19.71 C 64.01 31.04 65.23 42.37 64.23 53.70 C 58.46 53.51 52.68 53.58 46.91 53.79 C 43.42 42.70 44.28 31.04 45.62 19.67 C 41.89 30.87 42.96 42.83 45.35 54.18 M 71.44 26.26 C 73.04 28.85 71.57 36.15 76.32 36.40 C 78.50 36.66 80.69 36.37 82.88 36.27 C 81.73 33.74 81.40 30.67 79.55 28.45 C 77.17 26.84 74.19 26.67 71.44 26.26 M 31.21 29.47 C 30.75 32.48 30.24 35.48 29.74 38.49 C 32.99 39.13 36.28 39.55 39.58 39.96 C 39.75 38.13 40.10 34.48 40.28 32.66 C 37.30 31.46 34.27 30.40 31.21 29.47 Z" />
</g>
<g id="#ffd4b7ff">
<path fill="#ffd4b7" opacity="1.00" d=" M 72.46 27.31 C 77.09 27.82 80.46 30.97 81.87 35.31 C 79.69 35.22 77.43 35.44 75.32 34.72 C 73.75 32.54 73.27 29.82 72.46 27.31 M 75.68 31.24 C 74.75 32.77 77.38 34.13 78.32 32.76 C 79.25 31.23 76.61 29.87 75.68 31.24 Z" />
<path fill="#ffd4b7" opacity="1.00" d=" M 32.42 30.30 C 34.96 31.91 39.81 32.96 38.97 36.87 C 38.14 40.93 33.35 37.66 30.69 37.42 C 31.26 35.04 31.84 32.67 32.42 30.30 M 34.17 34.17 C 33.65 35.80 34.20 36.35 35.83 35.83 C 36.35 34.20 35.80 33.65 34.17 34.17 Z" />
<path fill="#ffd4b7" opacity="1.00" d=" M 65.03 53.98 C 69.87 54.44 77.58 57.15 76.51 63.39 C 75.66 69.00 68.94 68.76 64.68 69.57 C 62.56 64.53 62.60 58.98 65.03 53.98 Z" />
<path fill="#ffd4b7" opacity="1.00" d=" M 41.54 56.22 C 44.64 59.12 48.49 60.91 52.54 62.14 C 51.73 67.24 48.05 72.61 41.96 71.07 C 37.43 71.25 34.78 66.92 32.14 63.94 C 34.72 60.74 37.85 58.05 41.54 56.22 Z" />
<path fill="#ffd4b7" opacity="1.00" d=" M 61.59 72.15 C 62.50 72.11 64.31 72.04 65.21 72.01 C 64.65 73.45 64.08 74.89 63.50 76.32 C 62.86 74.93 62.22 73.54 61.59 72.15 Z" />
<path fill="#ffd4b7" opacity="1.00" d=" M 50.17 74.80 C 51.59 74.35 52.10 76.74 50.83 77.20 C 49.41 77.65 48.90 75.26 50.17 74.80 Z" />
</g>
<g id="#7e2553ff">
<path fill="#7e2553" opacity="1.00" d=" M 43.36 56.41 C 50.40 54.91 58.65 51.88 64.65 57.42 C 63.27 58.53 61.88 59.64 60.49 60.75 C 61.11 63.15 61.60 65.59 62.03 68.03 C 56.45 69.39 52.57 66.74 52.03 61.15 C 48.98 59.87 46.08 58.29 43.36 56.41 Z" />
</g>
</svg>
