<?xml version="1.0" encoding="UTF-8" ?>
<!DOCTYPE svg PUBLIC "-//W3C//DTD SVG 1.1//EN" "http://www.w3.org/Graphics/SVG/1.1/DTD/svg11.dtd">
<svg width="120pt" height="120pt" viewBox="0 0 120 120" version="1.1" xmlns="http://www.w3.org/2000/svg">
<g id="#000000ff">
<path fill="#000000" opacity="1.00" d=" M 17.79 8.77 C 31.04 6.46 44.08 2.61 57.58 1.99 C 64.87 2.97 72.32 3.67 79.23 6.31 C 85.62 6.37 92.14 5.20 98.47 6.64 C 102.40 10.20 107.08 14.10 106.71 20.06 C 107.30 24.34 109.49 28.44 108.75 32.85 C 107.79 40.83 111.94 48.18 112.44 56.00 C 112.79 60.26 114.75 64.76 112.95 68.92 C 111.34 73.28 109.46 77.58 108.75 82.21 C 109.41 85.27 111.16 87.96 112.17 90.91 C 107.75 91.26 103.58 92.89 99.21 93.46 C 95.87 91.54 93.65 88.16 90.91 85.51 C 76.63 100.29 54.65 103.50 35.28 99.06 C 31.48 96.57 28.63 92.98 26.16 89.23 C 25.33 91.43 24.48 93.63 23.62 95.83 C 16.76 92.99 11.00 86.98 9.23 79.69 C 8.78 77.14 6.14 76.05 4.26 74.69 C 3.52 64.25 6.40 54.10 7.21 43.79 L 3.37 41.80 C 5.08 35.13 6.71 28.44 7.95 21.68 C 9.16 15.92 15.16 13.29 20.38 12.34 C 19.50 11.16 18.65 9.97 17.79 8.77 M 33.78 6.00 C 29.99 9.53 24.41 8.80 19.72 9.88 C 21.44 11.16 23.19 12.41 24.95 13.64 C 20.23 14.44 14.39 13.93 11.20 18.22 C 8.81 20.65 9.17 24.18 8.73 27.28 C 7.69 32.19 6.06 36.97 4.80 41.83 C 6.22 41.69 7.63 41.55 9.04 41.41 C 9.69 52.10 3.99 61.90 5.20 72.65 C 6.71 73.67 8.40 74.59 9.53 76.05 C 10.63 84.18 16.97 89.94 23.04 94.73 C 27.27 87.53 22.26 80.09 21.04 72.89 C 18.11 59.50 17.41 44.80 23.02 32.01 C 29.09 23.64 36.62 16.05 45.26 10.38 C 60.10 5.89 76.38 10.32 88.29 19.72 C 95.30 27.35 102.12 37.06 100.99 47.99 C 101.36 60.35 98.26 72.53 92.65 83.46 C 92.78 87.98 98.50 90.58 101.51 93.72 C 101.49 92.26 101.47 90.80 101.44 89.34 C 104.68 89.99 107.94 90.52 111.24 90.64 C 109.69 88.24 107.94 85.97 106.52 83.49 C 106.97 76.80 110.06 70.65 113.59 65.07 C 112.75 62.01 110.69 59.18 110.63 55.94 C 111.26 49.49 106.72 43.70 108.61 37.20 C 107.56 37.10 106.52 37.00 105.47 36.91 C 106.65 33.78 107.65 30.59 108.47 27.35 C 106.89 26.43 105.31 25.51 103.72 24.61 C 104.82 21.64 105.74 18.60 106.64 15.56 C 104.00 14.43 101.26 13.54 98.42 13.08 C 98.44 11.22 98.47 9.37 98.50 7.51 C 91.64 7.89 84.64 6.60 77.95 8.72 C 77.20 7.67 76.45 6.62 75.70 5.57 C 71.25 5.27 66.64 5.91 62.29 4.62 C 52.89 1.20 43.38 6.75 33.78 6.00 M 51.42 10.40 C 48.28 10.86 44.91 11.27 42.48 13.49 C 33.22 22.09 21.92 31.03 20.42 44.54 C 18.85 57.18 21.13 70.07 24.71 82.20 C 27.49 89.71 32.45 98.45 41.49 98.68 C 62.08 103.29 87.64 94.63 95.89 73.90 C 99.60 62.81 101.31 50.65 98.92 39.09 C 96.08 31.15 91.54 23.45 84.45 18.57 C 74.62 12.51 63.33 7.64 51.42 10.40 Z" />
<path fill="#000000" opacity="1.00" d=" M 45.32 54.15 C 42.95 42.80 41.97 30.87 45.61 19.66 C 44.30 31.04 43.43 42.70 46.90 53.79 C 52.68 53.58 58.46 53.51 64.24 53.70 C 65.22 42.36 64.02 31.03 63.73 19.69 C 65.12 30.78 65.68 41.96 65.26 53.13 C 69.71 53.87 75.77 54.54 77.42 59.64 C 79.63 64.48 74.42 67.83 72.06 71.31 C 72.27 77.83 73.75 84.29 73.92 90.84 C 72.31 90.42 70.71 89.97 69.11 89.50 C 68.96 90.72 68.80 91.94 68.65 93.16 C 66.85 91.49 65.09 89.77 63.34 88.05 C 62.99 89.48 62.64 90.92 62.27 92.35 C 58.06 91.14 53.61 92.04 49.40 90.89 C 43.70 88.19 43.64 80.97 40.91 76.00 C 39.11 71.16 32.83 69.28 32.00 64.01 C 32.57 57.47 40.18 55.66 45.32 54.15 M 43.57 56.24 C 47.33 59.34 52.37 61.18 54.36 66.02 C 55.80 68.72 59.37 67.58 61.99 68.05 C 61.60 65.61 61.13 63.18 60.52 60.79 C 61.89 59.65 63.26 58.52 64.62 57.37 C 58.66 51.96 50.55 54.94 43.57 56.24 M 65.09 53.94 C 62.60 58.95 62.51 64.53 64.70 69.58 C 68.94 68.74 75.66 69.00 76.51 63.40 C 77.59 57.17 69.90 54.48 65.09 53.94 M 41.41 57.07 C 37.50 56.94 34.15 60.42 33.12 64.00 C 34.53 69.65 41.16 72.67 46.58 70.64 C 50.59 69.93 51.44 65.18 52.58 62.05 C 48.69 60.77 45.22 58.48 41.41 57.07 M 41.10 72.87 C 43.09 78.45 45.32 83.95 48.27 89.11 C 50.93 88.06 53.53 89.02 55.87 90.35 C 56.36 89.37 56.85 88.39 57.34 87.41 C 58.46 88.23 60.69 89.87 61.80 90.68 L 62.43 85.74 C 64.32 87.37 66.17 89.05 67.97 90.79 C 68.04 89.54 68.12 88.29 68.20 87.04 C 69.87 87.72 71.54 88.40 73.22 89.07 C 72.67 82.69 72.89 75.71 68.72 70.38 C 59.58 66.27 49.90 69.81 41.10 72.87 Z" />
<path fill="#000000" opacity="1.00" d=" M 71.41 26.26 C 74.17 26.68 77.17 26.81 79.55 28.44 C 81.38 30.68 81.74 33.74 82.89 36.28 C 80.03 36.35 76.99 36.97 74.25 35.82 C 72.26 33.08 72.43 29.33 71.41 26.26 M 72.47 27.29 C 73.25 29.82 73.77 32.52 75.31 34.72 C 77.42 35.44 79.69 35.22 81.88 35.31 C 80.45 30.99 77.09 27.83 72.47 27.29 Z" />
<path fill="#000000" opacity="1.00" d=" M 31.22 29.46 C 34.28 30.42 37.33 31.46 40.29 32.68 C 40.11 34.50 39.76 38.14 39.58 39.96 C 36.29 39.56 33.00 39.13 29.74 38.49 C 30.22 35.47 30.72 32.47 31.22 29.46 M 32.44 30.26 C 31.84 32.62 31.26 34.98 30.71 37.35 C 33.56 38.11 36.45 38.69 39.37 39.10 C 39.51 34.61 36.42 31.64 32.44 30.26 Z" />
<path fill="#000000" opacity="1.00" d=" M 75.68 31.24 C 76.61 29.87 79.25 31.23 78.32 32.76 C 77.38 34.13 74.75 32.77 75.68 31.24 Z" />
<path fill="#000000" opacity="1.00" d=" M 34.17 34.17 C 35.80 33.65 36.35 34.20 35.83 35.83 C 34.20 36.35 33.65 35.80 34.17 34.17 Z" />
<path fill="#000000" opacity="1.00" d=" M 45.65 75.60 C 51.14 72.52 57.61 69.37 64.04 70.85 C 69.44 71.78 70.89 80.41 65.68 82.69 C 59.71 85.35 52.75 83.26 46.42 82.95 C 46.23 81.12 45.84 77.44 45.65 75.60 M 61.59 72.14 C 62.22 73.54 62.86 74.94 63.50 76.34 C 64.09 74.90 64.66 73.45 65.22 72.00 C 64.31 72.03 62.49 72.10 61.59 72.14 M 50.17 74.80 C 48.90 75.26 49.41 77.65 50.83 77.20 C 52.10 76.74 51.59 74.35 50.17 74.80 Z" />
</g>
<g id="#ab5236ff">
<path fill="#ab5236" opacity="1.00" d=" M 33.78 6.00 C 43.38 6.75 52.89 1.20 62.29 4.62 C 66.64 5.91 71.25 5.27 75.70 5.57 C 76.45 6.62 77.20 7.67 77.95 8.72 C 84.64 6.60 91.64 7.89 98.50 7.51 C 98.47 9.37 98.44 11.22 98.42 13.08 C 101.26 13.54 104.00 14.43 106.64 15.56 C 105.74 18.60 104.82 21.64 103.72 24.61 C 105.31 25.51 106.89 26.43 108.47 27.35 C 107.65 30.59 106.65 33.78 105.47 36.91 C 106.52 37.00 107.56 37.10 108.61 37.20 C 106.72 43.70 111.26 49.49 110.63 55.94 C 110.69 59.18 112.75 62.01 113.59 65.07 C 110.06 70.65 106.97 76.80 106.52 83.49 C 107.94 85.97 109.69 88.24 111.24 90.64 C 107.94 90.52 104.68 89.99 101.44 89.34 C 101.47 90.80 101.49 92.26 101.51 93.72 C 98.50 90.58 92.78 87.98 92.65 83.46 C 98.26 72.53 101.36 60.35 100.99 47.99 C 102.12 37.06 95.30 27.35 88.29 19.72 C 76.38 10.32 60.10 5.89 45.26 10.38 C 36.62 16.05 29.09 23.64 23.02 32.01 C 17.41 44.80 18.11 59.50 21.04 72.89 C 22.26 80.09 27.27 87.53 23.04 94.73 C 16.97 89.94 10.63 84.18 9.53 76.05 C 8.40 74.59 6.71 73.67 5.20 72.65 C 3.99 61.90 9.69 52.10 9.04 41.41 C 7.63 41.55 6.22 41.69 4.80 41.83 C 6.06 36.97 7.69 32.19 8.73 27.28 C 9.17 24.18 8.81 20.65 11.20 18.22 C 14.39 13.93 20.23 14.44 24.95 13.64 C 23.19 12.41 21.44 11.16 19.72 9.88 C 24.41 8.80 29.99 9.53 33.78 6.00 Z" />
<path fill="#ab5236" opacity="1.00" d=" M 41.10 72.87 C 49.90 69.81 59.58 66.27 68.72 70.38 C 72.89 75.71 72.67 82.69 73.22 89.07 C 71.54 88.40 69.87 87.72 68.20 87.04 C 68.12 88.29 68.04 89.54 67.97 90.79 C 66.17 89.05 64.32 87.37 62.43 85.74 L 61.80 90.68 C 60.69 89.87 58.46 88.23 57.34 87.41 C 56.85 88.39 56.36 89.37 55.87 90.35 C 53.53 89.02 50.93 88.06 48.27 89.11 C 45.32 83.95 43.09 78.45 41.10 72.87 M 45.65 75.60 C 45.84 77.44 46.23 81.12 46.42 82.95 C 52.75 83.26 59.71 85.35 65.68 82.69 C 70.89 80.41 69.44 71.78 64.04 70.85 C 57.61 69.37 51.14 72.52 45.65 75.60 Z" />
</g>
<g id="#ffa300ff">
<path fill="#ffa300" opacity="1.00" d=" M 51.42 10.40 C 63.33 7.64 74.62 12.51 84.45 18.57 C 91.54 23.45 96.08 31.15 98.92 39.09 C 101.31 50.65 99.60 62.81 95.89 73.90 C 87.64 94.63 62.08 103.29 41.49 98.68 C 32.45 98.45 27.49 89.71 24.71 82.20 C 21.13 70.07 18.85 57.18 20.42 44.54 C 21.92 31.03 33.22 22.09 42.48 13.49 C 44.91 11.27 48.28 10.86 51.42 10.40 M 45.32 54.15 C 40.18 55.66 32.57 57.47 32.00 64.01 C 32.83 69.28 39.11 71.16 40.91 76.00 C 43.64 80.97 43.70 88.19 49.40 90.89 C 53.61 92.04 58.06 91.14 62.27 92.35 C 62.64 90.92 62.99 89.48 63.34 88.05 C 65.09 89.77 66.85 91.49 68.65 93.16 C 68.80 91.94 68.96 90.72 69.11 89.50 C 70.71 89.97 72.31 90.42 73.92 90.84 C 73.75 84.29 72.27 77.83 72.06 71.31 C 74.42 67.83 79.63 64.48 77.42 59.64 C 75.77 54.54 69.71 53.87 65.26 53.13 C 65.68 41.96 65.12 30.78 63.73 19.69 C 64.02 31.03 65.22 42.36 64.24 53.70 C 58.46 53.51 52.68 53.58 46.90 53.79 C 43.43 42.70 44.30 31.04 45.61 19.66 C 41.97 30.87 42.95 42.80 45.32 54.15 M 71.41 26.26 C 72.43 29.33 72.26 33.08 74.25 35.82 C 76.99 36.97 80.03 36.35 82.89 36.28 C 81.74 33.74 81.38 30.68 79.55 28.44 C 77.17 26.81 74.17 26.68 71.41 26.26 M 31.22 29.46 C 30.72 32.47 30.22 35.47 29.74 38.49 C 33.00 39.13 36.29 39.56 39.58 39.96 C 39.76 38.14 40.11 34.50 40.29 32.68 C 37.33 31.46 34.28 30.42 31.22 29.46 Z" />
</g>
<g id="#ffd4b7ff">
<path fill="#ffd4b7" opacity="1.00" d=" M 72.47 27.29 C 77.09 27.83 80.45 30.99 81.88 35.31 C 79.69 35.22 77.42 35.44 75.31 34.72 C 73.77 32.52 73.25 29.82 72.47 27.29 M 75.68 31.24 C 74.75 32.77 77.38 34.13 78.32 32.76 C 79.25 31.23 76.61 29.87 75.68 31.24 Z" />
<path fill="#ffd4b7" opacity="1.00" d=" M 32.44 30.26 C 36.42 31.64 39.51 34.61 39.37 39.10 C 36.45 38.69 33.56 38.11 30.71 37.35 C 31.26 34.98 31.84 32.62 32.44 30.26 M 34.17 34.17 C 33.65 35.80 34.20 36.35 35.83 35.83 C 36.35 34.20 35.80 33.65 34.17 34.17 Z" />
<path fill="#ffd4b7" opacity="1.00" d=" M 65.09 53.94 C 69.90 54.48 77.59 57.17 76.51 63.40 C 75.66 69.00 68.94 68.74 64.70 69.58 C 62.51 64.53 62.60 58.95 65.09 53.94 Z" />
<path fill="#ffd4b7" opacity="1.00" d=" M 41.41 57.07 C 45.22 58.48 48.69 60.77 52.58 62.05 C 51.44 65.18 50.59 69.93 46.58 70.64 C 41.16 72.67 34.53 69.65 33.12 64.00 C 34.15 60.42 37.50 56.94 41.41 57.07 Z" />
<path fill="#ffd4b7" opacity="1.00" d=" M 61.59 72.14 C 62.49 72.10 64.31 72.03 65.22 72.00 C 64.66 73.45 64.09 74.90 63.50 76.34 C 62.86 74.94 62.22 73.54 61.59 72.14 Z" />
<path fill="#ffd4b7" opacity="1.00" d=" M 50.17 74.80 C 51.59 74.35 52.10 76.74 50.83 77.20 C 49.41 77.65 48.90 75.26 50.17 74.80 Z" />
</g>
<g id="#7e2553ff">
<path fill="#7e2553" opacity="1.00" d=" M 43.57 56.24 C 50.55 54.94 58.66 51.96 64.62 57.37 C 63.26 58.52 61.89 59.65 60.52 60.79 C 61.13 63.18 61.60 65.61 61.99 68.05 C 59.37 67.58 55.80 68.72 54.36 66.02 C 52.37 61.18 47.33 59.34 43.57 56.24 Z" />
</g>
</svg>
