<?xml version="1.0" encoding="UTF-8" ?>
<!DOCTYPE svg PUBLIC "-//W3C//DTD SVG 1.1//EN" "http://www.w3.org/Graphics/SVG/1.1/DTD/svg11.dtd">
<svg width="120pt" height="120pt" viewBox="0 0 120 120" version="1.1" xmlns="http://www.w3.org/2000/svg">
<g id="#000000ff">
<path fill="#000000" opacity="1.00" d=" M 52.64 4.68 C 54.57 5.11 56.50 5.55 58.42 5.99 C 56.47 9.79 55.87 13.98 57.50 18.01 C 66.25 15.79 75.36 14.20 84.38 15.55 C 86.85 15.93 89.16 17.80 89.29 20.42 C 90.32 32.44 92.94 44.59 90.77 56.64 C 89.39 65.50 88.02 74.37 86.24 83.16 C 84.55 90.10 82.14 97.89 74.94 100.93 C 67.39 106.02 58.37 99.97 50.25 103.01 C 39.89 106.12 27.61 99.07 25.57 88.36 C 22.61 75.38 26.30 62.07 23.73 49.03 C 23.16 41.21 18.21 32.07 24.10 25.07 C 28.89 16.66 39.71 17.43 48.12 17.46 C 48.23 12.76 50.60 8.73 52.64 4.68 M 54.95 5.32 C 51.19 9.24 49.95 14.40 49.16 19.63 C 46.45 20.60 43.74 21.56 41.00 22.45 C 41.22 23.74 41.46 25.02 41.73 26.29 C 46.41 23.53 51.21 20.80 56.56 19.58 C 55.86 14.85 55.49 10.07 54.95 5.32 M 60.32 18.70 C 63.92 19.80 67.51 21.01 71.15 22.00 C 70.87 23.62 70.31 26.87 70.03 28.49 C 66.72 27.53 63.45 26.47 60.24 25.20 C 60.52 27.33 60.73 29.46 60.96 31.59 C 55.67 31.48 51.20 28.70 49.34 23.79 C 46.62 25.19 43.80 26.37 40.95 27.48 C 40.74 26.01 40.33 23.07 40.13 21.60 C 42.22 20.75 44.30 19.85 46.38 18.95 C 40.28 18.35 33.28 18.19 28.31 22.31 C 24.15 26.02 20.92 31.75 22.93 37.45 C 25.68 49.78 25.86 62.46 25.42 75.02 C 25.47 84.02 27.01 95.44 36.02 99.97 C 42.67 104.66 50.83 101.15 58.15 101.23 C 62.95 100.90 68.10 103.02 72.67 100.68 C 76.42 98.63 80.46 96.25 81.89 91.96 C 87.03 80.85 87.19 68.28 89.72 56.47 C 92.14 46.40 89.52 36.13 88.82 26.03 C 88.69 22.93 88.59 18.26 84.95 17.04 C 76.94 14.19 68.28 16.92 60.32 18.70 M 50.25 23.16 C 52.06 27.13 55.65 29.62 59.84 30.54 C 59.42 27.93 58.91 25.33 58.34 22.75 C 61.99 24.33 65.63 25.93 69.38 27.25 C 69.64 25.74 69.94 24.24 70.29 22.75 C 63.68 20.81 56.59 19.77 50.25 23.16 Z" />
<path fill="#000000" opacity="1.00" d=" M 26.30 41.43 C 32.25 33.74 46.53 33.57 51.51 42.53 C 56.53 50.78 54.05 61.01 53.20 70.03 C 55.95 70.90 58.71 71.74 61.50 72.50 C 60.94 62.99 57.80 53.46 59.95 43.98 C 60.43 37.51 67.89 35.94 73.04 36.04 C 76.77 35.56 80.13 37.10 83.38 38.56 C 76.58 37.93 68.13 34.86 62.85 40.81 C 57.50 50.00 62.26 61.04 62.65 70.90 C 62.07 76.36 54.46 70.43 51.16 70.70 C 53.05 61.76 56.21 51.14 49.94 43.03 C 47.64 37.86 41.47 36.19 36.32 37.30 C 32.83 38.31 29.56 39.87 26.30 41.43 Z" />
<path fill="#000000" opacity="1.00" d=" M 66.06 40.37 C 68.89 41.02 72.05 40.94 74.72 42.26 C 76.56 45.64 77.53 49.40 78.67 53.06 C 75.70 53.87 72.78 54.89 69.84 55.76 C 68.00 53.45 65.36 51.63 64.17 48.86 C 64.36 45.96 65.30 43.16 66.06 40.37 M 67.37 42.03 C 66.56 44.23 65.81 46.45 65.10 48.68 C 66.85 50.60 68.61 52.51 70.38 54.41 C 72.67 53.55 75.01 52.81 77.37 52.17 C 76.28 49.09 75.13 46.04 73.90 43.01 C 71.72 42.72 69.54 42.39 67.37 42.03 Z" />
<path fill="#000000" opacity="1.00" d=" M 35.94 45.11 C 38.86 43.66 42.16 43.21 45.25 42.27 C 47.06 46.67 46.76 51.35 44.22 55.39 C 40.07 53.30 33.39 51.63 35.94 45.11 M 36.19 46.20 C 37.08 50.37 40.44 52.67 44.29 53.87 C 45.22 50.51 45.27 47.01 44.46 43.63 C 41.64 44.27 38.88 45.15 36.19 46.20 Z" />
<path fill="#000000" opacity="1.00" d=" M 69.91 46.59 C 71.40 47.34 72.92 48.05 74.49 48.63 C 73.36 49.16 72.23 49.69 71.11 50.22 C 70.68 49.02 70.28 47.81 69.91 46.59 Z" />
<path fill="#000000" opacity="1.00" d=" M 40.40 48.25 C 41.74 46.78 44.07 49.08 42.55 50.41 C 41.25 51.85 38.99 49.56 40.40 48.25 Z" />
<path fill="#000000" opacity="1.00" d=" M 73.62 72.30 C 76.24 72.76 78.88 73.08 81.51 73.48 C 80.94 76.07 80.44 78.76 79.74 81.35 C 79.76 79.26 79.78 77.18 79.84 75.09 C 77.79 74.11 75.74 73.14 73.62 72.30 Z" />
<path fill="#000000" opacity="1.00" d=" M 32.86 74.86 C 35.23 74.08 37.56 73.19 39.94 72.41 C 36.28 74.10 33.58 77.05 33.76 81.30 C 33.45 79.15 33.15 77.00 32.86 74.86 Z" />
<path fill="#000000" opacity="1.00" d=" M 40.15 77.00 C 52.34 76.67 64.52 77.55 76.64 78.78 C 74.94 82.11 73.42 86.56 69.16 87.22 C 58.23 88.96 45.85 89.04 36.36 82.52 C 37.56 80.63 38.84 78.81 40.15 77.00 M 40.07 78.66 C 50.04 84.73 63.04 84.12 73.48 79.59 C 62.38 78.46 51.22 77.81 40.07 78.66 M 38.01 80.63 C 43.51 87.79 53.94 86.89 61.96 87.00 C 67.04 87.69 71.50 85.11 74.55 81.35 C 62.69 85.83 49.94 83.57 38.01 80.63 Z" />
</g>
<g id="#008751ff">
<path fill="#008751" opacity="1.00" d=" M 54.95 5.32 C 55.49 10.07 55.86 14.85 56.56 19.58 C 51.21 20.80 46.41 23.53 41.73 26.29 C 41.46 25.02 41.22 23.74 41.00 22.45 C 43.74 21.56 46.45 20.60 49.16 19.63 C 49.95 14.40 51.19 9.24 54.95 5.32 Z" />
<path fill="#008751" opacity="1.00" d=" M 50.25 23.16 C 56.59 19.77 63.68 20.81 70.29 22.75 C 69.94 24.24 69.64 25.74 69.38 27.25 C 65.63 25.93 61.99 24.33 58.34 22.75 C 58.91 25.33 59.42 27.93 59.84 30.54 C 55.65 29.62 52.06 27.13 50.25 23.16 Z" />
</g>
<g id="#7e2553ff">
<path fill="#7e2553" opacity="1.00" d=" M 60.32 18.70 C 68.28 16.92 76.94 14.19 84.95 17.04 C 88.59 18.26 88.69 22.93 88.82 26.03 C 89.52 36.13 92.14 46.40 89.72 56.47 C 87.19 68.28 87.03 80.85 81.89 91.96 C 80.46 96.25 76.42 98.63 72.67 100.68 C 68.10 103.02 62.95 100.90 58.15 101.23 C 50.83 101.15 42.67 104.66 36.02 99.97 C 27.01 95.44 25.47 84.02 25.42 75.02 C 25.86 62.46 25.68 49.78 22.93 37.45 C 20.92 31.75 24.15 26.02 28.31 22.31 C 33.28 18.19 40.28 18.35 46.38 18.95 C 44.30 19.85 42.22 20.75 40.13 21.60 C 40.33 23.07 40.74 26.01 40.95 27.48 C 43.80 26.37 46.62 25.19 49.34 23.79 C 51.20 28.70 55.67 31.48 60.96 31.59 C 60.73 29.46 60.52 27.33 60.24 25.20 C 63.45 26.47 66.72 27.53 70.03 28.49 C 70.31 26.87 70.87 23.62 71.15 22.00 C 67.51 21.01 63.92 19.80 60.32 18.70 M 26.30 41.43 C 29.56 39.87 32.83 38.31 36.32 37.30 C 41.47 36.19 47.64 37.86 49.94 43.03 C 56.21 51.14 53.05 61.76 51.16 70.70 C 54.46 70.43 62.07 76.36 62.65 70.90 C 62.26 61.04 57.50 50.00 62.85 40.81 C 68.13 34.86 76.58 37.93 83.38 38.56 C 80.13 37.10 76.77 35.56 73.04 36.04 C 67.89 35.94 60.43 37.51 59.95 43.98 C 57.80 53.46 60.94 62.99 61.50 72.50 C 58.71 71.74 55.95 70.90 53.20 70.03 C 54.05 61.01 56.53 50.78 51.51 42.53 C 46.53 33.57 32.25 33.74 26.30 41.43 M 66.06 40.37 C 65.30 43.16 64.36 45.96 64.17 48.86 C 65.36 51.63 68.00 53.45 69.84 55.76 C 72.78 54.89 75.70 53.87 78.67 53.06 C 77.53 49.40 76.56 45.64 74.72 42.26 C 72.05 40.94 68.89 41.02 66.06 40.37 M 35.94 45.11 C 33.39 51.63 40.07 53.30 44.22 55.39 C 46.76 51.35 47.06 46.67 45.25 42.27 C 42.16 43.21 38.86 43.66 35.94 45.11 M 73.62 72.30 C 75.74 73.14 77.79 74.11 79.84 75.09 C 79.78 77.18 79.76 79.26 79.74 81.35 C 80.44 78.76 80.94 76.07 81.51 73.48 C 78.88 73.08 76.24 72.76 73.62 72.30 M 32.86 74.86 C 33.15 77.00 33.45 79.15 33.76 81.30 C 33.58 77.05 36.28 74.10 39.94 72.41 C 37.56 73.19 35.23 74.08 32.86 74.86 M 40.15 77.00 C 38.84 78.81 37.56 80.63 36.36 82.52 C 45.85 89.04 58.23 88.96 69.16 87.22 C 73.42 86.56 74.94 82.11 76.64 78.78 C 64.52 77.55 52.34 76.67 40.15 77.00 Z" />
</g>
<g id="#fff1e8ff">
<path fill="#fff1e8" opacity="1.00" d=" M 67.37 42.03 C 69.54 42.39 71.72 42.72 73.90 43.01 C 75.13 46.04 76.28 49.09 77.37 52.17 C 75.01 52.81 72.67 53.55 70.38 54.41 C 68.61 52.51 66.85 50.60 65.10 48.68 C 65.81 46.45 66.56 44.23 67.37 42.03 M 69.91 46.59 C 70.28 47.81 70.68 49.02 71.11 50.22 C 72.23 49.69 73.36 49.16 74.49 48.63 C 72.92 48.05 71.40 47.34 69.91 46.59 Z" />
<path fill="#fff1e8" opacity="1.00" d=" M 36.19 46.20 C 38.88 45.15 41.64 44.27 44.46 43.63 C 45.27 47.01 45.22 50.51 44.29 53.87 C 40.44 52.67 37.08 50.37 36.19 46.20 M 40.40 48.25 C 38.99 49.56 41.25 51.85 42.55 50.41 C 44.07 49.08 41.74 46.78 40.40 48.25 Z" />
</g>
<g id="#ff004dff">
<path fill="#ff004d" opacity="1.00" d=" M 40.07 78.66 C 51.22 77.81 62.38 78.46 73.48 79.59 C 63.04 84.12 50.04 84.73 40.07 78.66 Z" />
<path fill="#ff004d" opacity="1.00" d=" M 38.01 80.63 C 49.94 83.57 62.69 85.83 74.55 81.35 C 71.50 85.11 67.04 87.69 61.96 87.00 C 53.94 86.89 43.51 87.79 38.01 80.63 Z" />
</g>
</svg>
