<?xml version="1.0" encoding="UTF-8" ?>
<!DOCTYPE svg PUBLIC "-//W3C//DTD SVG 1.1//EN" "http://www.w3.org/Graphics/SVG/1.1/DTD/svg11.dtd">
<svg width="209pt" height="106pt" viewBox="0 0 209 106" version="1.1" xmlns="http://www.w3.org/2000/svg">
<g id="#4a0820ff">
<path fill="#4a0820" opacity="1.00" d=" M 132.46 29.17 C 141.40 28.66 150.34 28.18 159.29 27.90 C 158.93 32.25 157.67 36.51 157.55 40.89 C 157.77 47.36 160.08 53.43 162.10 59.50 C 162.20 59.85 162.42 60.54 162.53 60.88 C 162.32 63.73 161.93 66.56 161.72 69.41 C 161.17 66.57 160.51 63.75 159.91 60.92 C 149.95 60.92 139.99 60.78 130.05 61.32 C 116.68 61.85 103.73 65.80 90.36 66.38 C 82.98 66.33 75.61 65.85 68.24 65.40 C 68.72 68.51 69.31 71.59 69.93 74.67 C 68.95 74.56 67.98 74.45 67.00 74.33 C 66.53 71.77 66.03 69.20 65.54 66.64 C 65.78 66.33 66.27 65.69 66.52 65.38 C 68.86 62.46 69.58 58.72 69.95 55.09 C 79.32 55.60 88.72 55.49 98.07 56.28 C 98.09 56.84 98.13 57.96 98.14 58.52 C 90.43 58.00 82.69 56.84 74.96 57.59 C 72.61 58.37 71.55 60.99 69.98 62.72 C 80.59 63.78 91.44 65.43 102.02 63.30 C 113.54 61.07 125.17 59.50 136.75 57.66 C 131.35 55.99 125.61 56.40 120.11 57.30 C 120.02 56.80 119.85 55.81 119.77 55.31 C 123.59 54.06 127.58 53.42 131.51 52.57 C 130.83 44.74 131.89 36.96 132.46 29.17 M 134.99 31.16 C 134.52 38.58 132.23 46.34 134.42 53.61 C 137.49 58.11 143.38 56.79 148.01 56.22 C 152.46 57.46 154.62 53.37 155.70 50.12 C 155.45 43.36 155.72 36.56 156.94 29.90 C 149.62 30.29 142.32 30.82 134.99 31.16 M 156.44 53.95 C 155.98 55.25 155.52 56.56 155.06 57.86 C 151.94 58.12 148.78 58.40 145.68 58.71 C 150.14 58.87 154.60 58.94 159.07 59.05 C 158.19 57.35 157.31 55.65 156.44 53.95 Z" />
</g>
<g id="#202020ff">
<path fill="#202020" opacity="1.00" d=" M 97.88 33.59 C 103.34 31.40 108.92 29.50 114.75 28.59 C 116.43 37.50 117.87 46.44 119.77 55.31 C 119.85 55.81 120.02 56.80 120.11 57.30 C 112.86 58.52 105.48 58.69 98.14 58.52 C 98.13 57.96 98.09 56.84 98.07 56.28 C 97.95 48.71 97.97 41.15 97.88 33.59 M 112.74 30.99 C 108.47 32.36 104.21 33.76 99.93 35.13 C 100.15 42.34 100.43 49.55 100.81 56.75 C 106.47 56.64 112.12 56.68 117.78 56.87 C 115.81 48.30 114.51 39.60 112.74 30.99 Z" />
</g>
<g id="#732930ff">
<path fill="#732930" opacity="1.00" d=" M 134.99 31.16 C 142.32 30.82 149.62 30.29 156.94 29.90 C 155.72 36.56 155.45 43.36 155.70 50.12 C 154.62 53.37 152.46 57.46 148.01 56.22 C 143.38 56.79 137.49 58.11 134.42 53.61 C 132.23 46.34 134.52 38.58 134.99 31.16 Z" />
<path fill="#732930" opacity="1.00" d=" M 156.44 53.95 C 157.31 55.65 158.19 57.35 159.07 59.05 C 154.60 58.94 150.14 58.87 145.68 58.71 C 148.78 58.40 151.94 58.12 155.06 57.86 C 155.52 56.56 155.98 55.25 156.44 53.95 Z" />
<path fill="#732930" opacity="1.00" d=" M 120.11 57.30 C 125.61 56.40 131.35 55.99 136.75 57.66 C 125.17 59.50 113.54 61.07 102.02 63.30 C 91.44 65.43 80.59 63.78 69.98 62.72 C 71.55 60.99 72.61 58.37 74.96 57.59 C 82.69 56.84 90.43 58.00 98.14 58.52 C 105.48 58.69 112.86 58.52 120.11 57.30 Z" />
<path fill="#732930" opacity="1.00" d=" M 90.36 66.38 C 103.73 65.80 116.68 61.85 130.05 61.32 C 139.99 60.78 149.95 60.92 159.91 60.92 C 160.51 63.75 161.17 66.57 161.72 69.41 C 161.76 69.77 161.84 70.48 161.88 70.84 C 146.18 72.78 130.33 73.40 114.66 75.66 C 99.81 77.89 84.78 76.02 69.93 74.67 C 69.31 71.59 68.72 68.51 68.24 65.40 C 75.61 65.85 82.98 66.33 90.36 66.38 Z" />
</g>
<g id="#2f484eff">
<path fill="#2f484e" opacity="1.00" d=" M 112.74 30.99 C 114.51 39.60 115.81 48.30 117.78 56.87 C 112.12 56.68 106.47 56.64 100.81 56.75 C 100.43 49.55 100.15 42.34 99.93 35.13 C 104.21 33.76 108.47 32.36 112.74 30.99 Z" />
</g>
<g id="#735920ff">
<path fill="#735920" opacity="1.00" d=" M 162.10 59.50 C 173.72 58.79 185.17 55.53 196.88 56.52 C 197.39 58.78 197.90 61.05 198.39 63.32 L 197.59 63.01 C 197.08 62.82 196.05 62.44 195.54 62.25 C 183.07 63.45 172.57 72.11 159.98 73.01 C 147.19 74.54 134.31 75.09 121.53 76.68 C 86.17 82.45 50.80 73.26 15.58 71.05 C 14.97 70.96 13.75 70.78 13.14 70.69 C 15.64 68.66 18.32 66.24 21.99 67.25 C 36.84 66.84 51.71 66.66 66.52 65.38 C 66.27 65.69 65.78 66.33 65.54 66.64 C 52.81 69.42 39.66 68.80 26.72 69.35 C 40.08 71.54 53.57 72.73 67.00 74.33 C 67.98 74.45 68.95 74.56 69.93 74.67 C 84.78 76.02 99.81 77.89 114.66 75.66 C 130.33 73.40 146.18 72.78 161.88 70.84 C 172.40 67.95 182.62 63.85 192.39 59.01 C 182.40 58.95 172.50 60.49 162.53 60.88 C 162.42 60.54 162.20 59.85 162.10 59.50 Z" />
</g>
<g id="#eb8931ff">
<path fill="#eb8931" opacity="1.00" d=" M 162.53 60.88 C 172.50 60.49 182.40 58.95 192.39 59.01 C 182.62 63.85 172.40 67.95 161.88 70.84 C 161.84 70.48 161.76 69.77 161.72 69.41 C 161.93 66.56 162.32 63.73 162.53 60.88 Z" />
<path fill="#eb8931" opacity="1.00" d=" M 26.72 69.35 C 39.66 68.80 52.81 69.42 65.54 66.64 C 66.03 69.20 66.53 71.77 67.00 74.33 C 53.57 72.73 40.08 71.54 26.72 69.35 Z" />
</g>
<g id="#fab40bff">
<path fill="#fab40b" opacity="1.00" d=" M 159.98 73.01 C 172.57 72.11 183.07 63.45 195.54 62.25 C 178.45 75.51 155.74 76.51 135.09 78.39 C 112.52 81.11 89.73 81.18 67.07 79.79 C 57.89 79.09 49.10 76.07 39.94 75.30 C 31.71 74.51 23.56 73.22 15.58 71.05 C 50.80 73.26 86.17 82.45 121.53 76.68 C 134.31 75.09 147.19 74.54 159.98 73.01 Z" />
</g>
<g id="#73485aff">
<path fill="#73485a" opacity="1.00" d=" M 135.09 78.39 C 155.74 76.51 178.45 75.51 195.54 62.25 C 196.05 62.44 197.08 62.82 197.59 63.01 C 195.75 70.25 192.81 77.10 189.76 83.89 C 181.19 85.12 172.57 86.10 164.14 88.15 C 149.96 91.58 135.35 89.08 121.00 88.62 C 93.33 89.04 65.62 89.60 37.97 88.02 C 29.01 88.31 20.90 83.95 13.20 79.91 C 13.04 76.80 12.90 73.72 12.72 70.63 L 13.14 70.69 C 13.75 70.78 14.97 70.96 15.58 71.05 C 23.56 73.22 31.71 74.51 39.94 75.30 C 49.10 76.07 57.89 79.09 67.07 79.79 C 89.73 81.18 112.52 81.11 135.09 78.39 M 163.84 77.62 C 130.44 82.38 96.48 84.28 62.83 81.18 C 47.00 78.18 31.02 76.16 15.05 74.06 C 15.00 75.46 14.94 76.86 14.88 78.26 C 21.14 81.02 27.25 84.77 34.15 85.58 C 59.44 87.32 84.83 87.42 110.16 86.44 C 133.81 86.58 157.60 86.54 181.05 83.15 C 182.72 82.10 186.48 83.12 187.72 80.84 C 190.45 76.56 192.38 71.84 194.30 67.16 C 184.78 72.22 174.28 75.16 163.84 77.62 Z" />
</g>
<g id="#e06f8bff">
<path fill="#e06f8b" opacity="1.00" d=" M 163.84 77.62 C 174.28 75.16 184.78 72.22 194.30 67.16 C 192.38 71.84 190.45 76.56 187.72 80.84 C 186.48 83.12 182.72 82.10 181.05 83.15 C 157.60 86.54 133.81 86.58 110.16 86.44 C 84.83 87.42 59.44 87.32 34.15 85.58 C 27.25 84.77 21.14 81.02 14.88 78.26 C 14.94 76.86 15.00 75.46 15.05 74.06 C 31.02 76.16 47.00 78.18 62.83 81.18 C 96.48 84.28 130.44 82.38 163.84 77.62 Z" />
</g>
</svg>
