<?xml version="1.0" encoding="UTF-8" ?>
<!DOCTYPE svg PUBLIC "-//W3C//DTD SVG 1.1//EN" "http://www.w3.org/Graphics/SVG/1.1/DTD/svg11.dtd">
<svg width="1024pt" height="1024pt" viewBox="0 0 1024 1024" version="1.1" xmlns="http://www.w3.org/2000/svg">
<g id="#000000ff">
<path fill="#000000" opacity="1.00" d=" M 212.40 246.02 C 226.00 227.35 229.95 202.52 247.07 186.36 C 238.55 201.69 228.95 216.52 222.87 233.08 C 233.70 222.88 244.95 212.68 258.92 206.97 C 267.99 203.99 277.72 202.01 287.09 204.79 C 297.72 204.86 302.63 216.10 303.87 225.11 C 304.95 232.59 309.59 238.69 312.33 245.54 C 315.54 250.97 310.01 254.47 307.00 257.94 C 299.97 264.32 293.69 271.46 287.62 278.73 C 287.02 279.45 286.43 280.17 285.84 280.90 C 283.67 283.54 281.48 286.19 279.05 288.61 C 278.27 288.89 277.49 289.16 276.72 289.43 C 275.06 289.95 273.40 290.46 271.77 291.03 C 272.23 290.67 273.15 289.95 273.61 289.59 C 274.49 288.86 275.37 288.12 276.25 287.39 C 278.29 285.64 280.34 283.91 282.37 282.15 C 279.17 283.45 275.95 284.75 272.88 286.34 C 271.93 286.85 271.00 287.40 270.09 287.98 C 265.31 290.95 260.78 294.67 255.27 296.14 C 245.16 297.63 234.77 297.75 224.66 296.30 C 220.21 295.45 219.25 290.23 217.56 286.80 C 215.69 281.14 214.54 275.15 211.32 270.03 C 208.51 280.52 208.32 291.65 209.60 302.38 C 211.55 308.52 213.16 316.27 218.65 320.31 C 225.71 321.75 232.81 318.05 238.88 314.81 C 248.36 308.61 257.15 301.45 266.36 294.87 C 266.88 294.94 267.94 295.07 268.47 295.14 L 269.31 295.26 C 268.14 296.15 266.97 297.04 265.80 297.93 C 252.89 306.43 241.82 319.22 226.03 322.16 C 222.62 322.52 218.54 323.86 215.78 321.23 C 205.58 308.67 206.01 291.36 207.51 276.14 C 210.05 266.26 210.50 255.95 212.40 246.02 M 265.62 209.51 C 259.06 211.19 254.54 216.65 249.61 220.88 C 258.89 220.99 268.16 220.46 277.42 219.94 C 284.16 219.37 289.91 223.28 296.05 225.33 C 292.69 219.19 290.90 211.18 284.66 207.36 C 278.34 206.25 271.72 207.80 265.62 209.51 M 289.29 206.37 C 293.67 214.80 296.66 224.21 302.88 231.54 C 302.03 226.24 301.11 220.87 299.12 215.86 C 297.35 211.44 292.84 209.15 289.29 206.37 M 236.45 223.95 C 245.65 222.05 252.73 215.33 259.45 209.20 C 251.38 213.45 243.17 217.68 236.45 223.95 M 244.81 223.89 C 238.75 227.06 233.65 233.81 234.77 240.97 C 235.09 247.73 233.68 255.73 238.96 261.03 C 245.73 270.07 257.88 270.80 268.17 271.00 C 272.30 262.89 277.43 255.33 283.32 248.40 C 289.94 241.21 286.53 230.66 284.54 222.27 C 273.89 223.01 266.32 231.26 256.54 234.40 C 247.87 236.20 239.61 243.33 240.19 252.89 C 239.74 252.89 238.84 252.90 238.39 252.90 C 238.83 250.40 239.70 245.41 240.14 242.92 C 243.61 237.59 249.47 234.08 255.53 232.40 C 261.87 230.20 267.60 226.63 273.26 223.10 C 263.79 223.06 254.17 222.28 244.81 223.89 M 288.49 224.68 C 288.47 233.15 290.99 243.07 285.16 250.16 C 279.88 256.48 275.04 263.16 270.63 270.11 C 278.45 269.07 286.38 267.77 293.67 264.62 C 295.85 263.77 296.88 261.52 297.47 259.42 C 299.84 250.76 299.33 241.60 298.31 232.79 C 297.68 227.88 292.21 226.59 288.49 224.68 M 217.05 266.01 C 215.31 276.85 222.00 287.48 231.25 292.55 C 244.08 297.96 257.12 290.61 268.92 285.97 C 268.95 285.23 269.01 283.76 269.04 283.03 C 268.53 283.04 267.51 283.07 267.00 283.08 C 266.98 282.44 266.92 281.16 266.90 280.52 C 266.92 278.18 266.95 275.84 266.97 273.50 C 258.62 272.24 248.97 272.62 242.04 266.95 C 238.22 264.47 235.45 260.58 233.63 256.49 C 232.19 246.09 231.60 234.59 237.87 225.59 C 224.21 233.77 217.66 250.69 217.05 266.01 M 300.77 231.40 C 300.81 236.75 301.30 242.08 301.67 247.43 C 303.25 242.13 302.85 236.51 300.77 231.40 M 221.54 238.92 C 223.19 237.32 224.79 235.67 226.24 233.90 C 224.54 235.44 222.95 237.10 221.54 238.92 M 300.94 260.53 C 304.55 257.67 308.35 254.67 310.57 250.56 C 311.13 245.29 307.85 240.95 305.78 236.46 C 304.23 244.49 302.12 252.43 300.94 260.53 M 213.05 258.43 C 215.60 252.67 218.03 246.79 219.04 240.53 C 213.24 244.98 212.34 251.57 213.05 258.43 M 212.87 269.71 C 213.42 270.07 214.53 270.80 215.09 271.17 C 214.87 268.00 214.61 264.75 214.45 261.61 C 213.93 264.32 213.37 266.98 212.87 269.71 M 270.37 273.30 C 269.56 275.42 268.91 277.61 268.41 279.85 C 269.57 280.89 270.73 281.93 271.88 282.99 C 271.50 283.14 270.73 283.46 270.35 283.62 C 273.06 283.05 275.71 282.15 278.14 280.80 C 279.55 280.34 280.93 279.78 282.30 279.22 C 287.14 276.60 290.00 271.50 293.52 267.42 C 285.83 269.48 278.00 271.03 270.37 273.30 M 218.53 285.00 C 220.99 289.57 223.70 294.55 229.28 295.48 C 225.95 291.73 222.35 288.23 218.53 285.00 Z" />
<path fill="#000000" opacity="1.00" d=" M 326.15 359.31 C 327.17 350.43 326.57 341.21 329.39 332.63 C 329.39 335.28 329.30 337.93 329.26 340.58 C 332.29 339.23 334.73 336.96 336.48 334.14 C 336.16 335.64 335.50 338.65 335.18 340.15 C 341.90 340.56 348.64 340.92 355.38 341.28 C 355.05 341.73 354.40 342.62 354.07 343.06 C 347.43 343.07 340.81 343.05 334.18 343.03 C 331.50 359.02 330.50 375.42 325.96 391.05 C 332.77 390.90 339.59 390.81 346.41 390.73 C 339.75 390.19 333.09 389.88 326.46 389.12 C 337.20 388.98 347.93 388.96 358.67 388.95 C 359.04 382.78 359.43 376.62 360.23 370.50 C 360.50 370.74 361.03 371.22 361.30 371.46 C 361.45 377.10 361.58 382.75 361.69 388.41 C 362.61 383.59 363.47 378.77 364.29 373.94 C 364.59 374.18 365.17 374.66 365.46 374.90 C 365.16 379.62 364.81 384.47 363.03 388.92 C 361.08 390.73 358.78 392.28 356.15 392.83 C 350.67 392.83 345.19 392.72 339.73 392.64 C 334.81 392.44 329.91 392.27 325.00 392.24 C 324.76 388.62 324.34 385.07 324.30 381.46 C 324.61 379.24 325.03 377.05 325.54 374.90 C 324.32 375.99 324.63 377.76 325.32 379.06 C 325.68 380.86 326.40 384.47 326.76 386.28 C 327.31 380.42 327.63 374.54 327.94 368.68 C 327.03 372.12 326.16 375.58 325.32 379.06 C 326.56 377.97 326.24 376.17 325.54 374.90 C 324.53 369.75 326.05 364.47 326.15 359.31 M 330.12 341.54 C 327.81 344.95 334.07 342.30 330.12 341.54 M 330.75 352.48 C 331.45 349.22 332.15 345.97 332.69 342.69 C 331.83 345.91 331.30 349.18 330.75 352.48 M 329.53 365.48 C 330.61 361.24 331.17 356.85 330.75 352.48 C 330.42 350.97 329.77 347.96 329.45 346.45 C 329.17 352.79 329.34 359.13 329.53 365.48 Z" />
<path fill="#000000" opacity="1.00" d=" M 481.56 337.72 C 497.83 336.71 514.17 336.56 530.45 337.57 C 520.71 339.34 510.80 337.97 500.99 338.27 C 494.51 338.14 487.98 338.77 481.56 337.72 Z" />
<path fill="#000000" opacity="1.00" d=" M 493.53 339.60 C 501.86 339.26 510.40 338.39 518.65 340.09 C 510.29 340.81 501.82 341.06 493.53 339.60 Z" />
<path fill="#000000" opacity="1.00" d=" M 357.43 343.21 C 358.56 341.81 359.73 340.46 360.89 339.10 C 361.58 339.32 362.96 339.75 363.65 339.97 C 366.53 340.24 369.35 340.49 372.24 340.87 C 370.93 340.97 369.63 341.07 368.34 341.18 C 367.59 344.96 366.75 348.72 365.76 352.45 C 365.97 348.49 366.26 344.56 366.37 340.60 C 366.12 344.54 365.95 348.49 365.76 352.45 C 365.72 353.18 365.64 354.63 365.60 355.36 C 364.74 352.11 363.97 348.85 363.13 345.61 C 363.30 354.18 364.77 362.64 365.09 371.20 C 364.81 370.95 364.23 370.44 363.95 370.18 C 362.60 361.03 362.49 351.72 363.25 342.51 C 361.31 342.77 359.37 343.01 357.43 343.21 Z" />
<path fill="#000000" opacity="1.00" d=" M 475.59 342.73 C 481.18 340.39 487.30 340.37 493.26 339.98 C 487.37 340.95 481.55 342.31 475.59 342.73 Z" />
<path fill="#000000" opacity="1.00" d=" M 426.06 345.19 C 431.25 342.87 437.08 343.27 442.60 342.48 C 443.08 346.68 444.44 351.28 442.27 355.20 C 440.35 359.20 435.93 360.89 432.59 363.45 C 435.86 358.81 441.32 355.62 442.77 349.82 C 443.84 346.58 440.32 344.76 438.22 343.15 C 439.35 345.15 440.58 347.11 441.84 349.06 C 440.60 351.41 439.43 353.80 438.27 356.19 C 438.62 353.74 439.25 351.31 439.24 348.83 C 435.01 344.72 428.92 346.53 424.64 349.52 C 421.68 351.00 418.75 352.54 415.77 353.98 C 418.90 350.74 421.77 346.97 426.06 345.19 Z" />
<path fill="#000000" opacity="1.00" d=" M 424.64 349.52 C 426.45 353.25 420.61 349.74 424.64 349.52 Z" />
<path fill="#000000" opacity="1.00" d=" M 422.26 351.75 C 423.56 354.49 424.36 357.42 424.93 360.40 C 427.33 360.66 429.84 361.00 432.28 361.31 C 429.44 361.67 427.10 362.43 424.42 362.98 C 426.98 363.01 429.92 363.32 432.59 363.45 C 430.14 363.97 427.64 364.53 425.19 364.78 C 423.15 363.35 421.68 361.28 420.16 359.35 C 419.01 359.64 417.86 359.92 416.72 360.22 C 418.23 363.09 419.82 365.93 421.38 368.78 C 428.27 367.38 434.63 364.28 440.72 360.85 C 434.99 365.32 428.20 370.98 420.44 368.60 C 417.22 365.45 415.58 361.11 413.62 357.14 C 414.42 357.74 415.22 358.35 416.02 358.97 C 415.88 357.48 415.75 356.00 415.63 354.53 C 416.37 356.06 417.05 357.61 417.73 359.18 C 419.55 357.51 421.29 355.74 423.04 354.00 C 421.62 354.62 421.36 355.46 422.26 356.51 C 423.44 356.10 423.70 355.26 423.04 354.00 C 422.85 353.44 422.46 352.31 422.26 351.75 Z" />
<path fill="#000000" opacity="1.00" d=" M 359.59 366.53 C 360.54 365.02 361.48 363.51 362.45 362.01 C 362.26 364.13 362.03 366.24 361.80 368.35 C 361.06 367.74 360.32 367.13 359.59 366.53 Z" />
<path fill="#000000" opacity="1.00" d=" M 653.96 376.72 C 670.42 375.05 686.85 372.80 703.34 371.34 C 686.42 374.87 669.11 375.82 651.96 377.57 C 624.11 377.96 596.24 376.51 568.54 373.70 C 549.58 371.86 530.61 374.23 511.64 374.47 C 523.32 372.71 535.20 372.68 546.99 372.11 C 568.77 370.85 590.25 375.46 611.98 375.86 C 625.97 376.02 639.96 377.04 653.96 376.72 Z" />
<path fill="#000000" opacity="1.00" d=" M 323.31 391.42 C 323.42 388.05 323.64 384.75 324.30 381.46 C 323.96 384.75 323.71 388.11 323.31 391.42 Z" />
<path fill="#000000" opacity="1.00" d=" M 471.63 386.48 C 507.14 387.43 542.63 389.48 578.00 392.95 C 593.62 394.57 609.37 393.62 625.03 394.64 C 638.10 395.45 651.19 395.89 664.30 395.73 C 645.91 398.54 627.44 395.62 609.01 395.23 C 575.56 395.46 542.40 390.24 509.01 389.13 C 496.53 388.89 483.98 388.41 471.63 386.48 Z" />
<path fill="#000000" opacity="1.00" d=" M 358.03 394.67 C 358.80 394.02 359.70 393.72 360.72 393.78 C 360.34 395.54 359.44 395.84 358.03 394.67 Z" />
<path fill="#000000" opacity="1.00" d=" M 288.53 399.01 C 310.87 396.20 333.25 399.68 355.58 400.60 C 398.79 404.09 442.23 399.97 485.45 403.33 C 520.62 404.27 555.49 409.39 590.01 415.91 C 621.42 419.42 652.97 421.47 684.41 424.68 C 676.92 424.72 669.43 425.05 662.00 424.03 C 633.03 420.86 603.82 419.72 575.06 414.73 C 543.36 408.77 511.19 405.24 478.96 404.13 C 436.01 401.09 392.87 405.15 349.96 401.34 C 329.59 400.38 309.17 397.68 288.79 399.81 C 278.11 401.22 267.39 402.48 256.62 402.81 C 267.21 401.15 277.90 400.34 288.53 399.01 Z" />
<path fill="#000000" opacity="1.00" d=" M 457.00 455.03 C 489.71 455.61 522.28 451.37 555.00 451.96 C 585.99 452.35 617.02 451.19 647.99 452.83 C 656.64 453.00 665.36 453.26 673.99 452.37 C 673.99 453.02 673.98 454.33 673.98 454.98 C 639.98 455.19 606.01 453.28 572.00 453.99 C 539.62 453.09 507.34 455.64 475.01 456.84 C 424.33 457.38 373.63 456.83 322.97 456.41 C 299.86 454.69 277.02 459.29 254.02 460.24 C 254.02 459.73 254.01 458.71 254.01 458.21 C 261.86 458.17 269.69 457.61 277.47 456.58 C 304.83 453.00 332.46 454.81 359.96 454.32 C 392.29 455.68 424.65 454.70 457.00 455.03 Z" />
<path fill="#000000" opacity="1.00" d=" M 513.61 471.65 C 537.05 470.43 560.54 471.17 584.00 470.94 C 604.56 470.59 624.92 475.83 645.49 472.99 C 626.47 478.31 607.19 471.76 588.01 471.98 C 563.21 471.66 538.40 472.56 513.61 471.65 Z" />
<path fill="#000000" opacity="1.00" d=" M 545.61 483.60 C 573.47 480.76 601.15 486.47 629.01 484.90 C 637.47 484.68 645.90 483.90 654.36 483.58 C 618.31 489.71 581.83 483.23 545.61 483.60 Z" />
<path fill="#000000" opacity="1.00" d=" M 557.48 494.67 C 560.80 494.50 564.29 494.52 567.65 494.69 C 564.31 495.64 560.83 495.31 557.48 494.67 Z" />
<path fill="#000000" opacity="1.00" d=" M 567.46 496.92 C 566.56 494.48 571.26 494.50 571.49 496.71 C 570.15 496.85 568.80 496.95 567.46 496.92 Z" />
<path fill="#000000" opacity="1.00" d=" M 598.00 494.96 C 611.78 494.94 625.56 494.85 639.34 495.56 C 634.98 495.83 630.60 496.13 626.27 496.34 C 621.75 496.34 617.28 496.32 612.80 496.28 C 607.87 496.18 602.91 496.04 598.00 495.97 L 598.00 494.96 Z" />
<path fill="#000000" opacity="1.00" d=" M 659.72 496.28 C 660.90 496.17 663.25 495.94 664.43 495.83 C 664.49 498.15 660.33 498.36 659.72 496.28 Z" />
<path fill="#000000" opacity="1.00" d=" M 584.67 499.38 C 585.51 498.17 587.91 499.38 587.17 500.77 C 586.31 502.00 583.89 500.79 584.67 499.38 Z" />
<path fill="#000000" opacity="1.00" d=" M 514.61 512.65 C 530.48 511.81 546.46 512.37 562.27 510.34 C 546.78 514.59 530.45 512.90 514.61 512.65 Z" />
<path fill="#000000" opacity="1.00" d=" M 191.59 517.41 C 205.24 516.79 218.92 517.57 232.47 519.26 C 253.05 521.79 273.86 521.20 294.46 523.48 C 307.40 524.98 320.47 524.72 333.38 526.58 C 309.49 527.72 285.89 522.88 262.04 522.71 C 238.49 521.73 215.12 518.61 191.59 517.41 Z" />
<path fill="#000000" opacity="1.00" d=" M 617.64 538.27 C 634.75 534.15 652.59 536.33 670.01 536.16 C 700.78 538.36 731.63 540.55 762.03 546.04 C 772.97 547.93 783.87 550.52 795.03 550.67 C 806.48 550.88 817.92 549.91 829.38 550.24 C 812.52 550.67 795.42 553.67 778.69 550.22 C 752.31 545.60 725.81 541.28 699.04 539.78 C 672.01 537.40 644.71 535.29 617.64 538.27 Z" />
<path fill="#000000" opacity="1.00" d=" M 252.61 545.75 C 290.52 543.80 328.47 540.40 366.46 542.52 C 390.60 544.88 414.85 545.40 439.05 546.86 C 452.65 547.46 466.26 551.26 479.88 548.90 C 498.76 546.70 517.77 545.67 536.68 543.64 C 553.06 542.48 569.74 540.64 586.00 543.95 C 605.52 545.70 625.29 548.56 644.86 545.84 C 657.05 544.43 669.21 541.05 681.57 542.74 C 665.20 542.70 649.26 546.95 632.97 547.72 C 610.18 549.24 587.68 544.38 565.01 543.19 C 537.07 543.15 509.40 547.56 481.59 549.67 C 465.48 552.17 449.38 548.76 433.32 547.65 C 415.22 546.44 397.06 546.55 378.99 544.93 C 343.44 541.31 307.52 542.79 271.96 545.70 C 265.51 545.95 259.06 546.04 252.61 545.75 Z" />
<path fill="#000000" opacity="1.00" d=" M 195.64 559.23 C 209.31 557.80 222.97 560.27 236.58 561.34 C 282.96 565.92 329.56 567.51 376.04 570.69 C 398.33 572.51 420.71 571.62 443.03 572.69 C 465.68 573.25 488.36 573.34 510.99 572.22 C 577.02 570.76 643.00 574.37 709.00 575.04 C 745.33 574.62 781.69 575.86 817.99 574.08 C 831.32 573.82 844.65 573.99 858.00 574.00 L 858.00 575.02 C 836.66 575.08 815.32 574.55 794.01 575.78 C 724.98 576.64 655.95 575.76 586.97 573.38 C 540.30 571.62 493.65 574.70 446.99 573.84 C 423.67 572.64 400.30 573.51 377.00 572.03 C 351.34 570.17 325.64 568.98 299.97 567.35 C 267.50 566.16 235.23 562.11 202.86 559.59 C 193.14 560.04 183.36 561.74 173.65 560.28 C 180.90 559.00 188.32 559.87 195.64 559.23 Z" />
<path fill="#000000" opacity="1.00" d=" M 264.45 574.63 C 315.55 573.51 367.01 570.59 417.85 577.34 C 439.29 581.67 461.25 580.95 482.99 581.92 C 523.00 582.26 563.01 581.70 603.02 582.12 C 632.65 583.86 662.33 584.90 692.00 585.99 C 719.75 584.85 747.55 585.52 775.28 583.68 C 751.69 587.47 727.71 585.17 703.97 586.66 C 678.27 588.41 652.71 584.54 627.03 584.67 C 573.61 581.10 520.03 584.19 466.55 582.63 C 452.12 581.97 437.59 582.27 423.34 579.58 C 402.15 575.34 380.46 575.47 358.97 574.35 C 334.64 573.17 310.32 574.61 286.00 574.99 C 264.30 574.72 242.72 577.60 221.01 577.14 L 221.00 576.04 C 235.50 576.19 250.01 576.03 264.45 574.63 Z" />
</g>
<g id="#ff004dff">
<path fill="#ff004d" opacity="1.00" d=" M 624.70 194.59 C 636.42 187.22 651.20 186.81 664.54 187.61 C 672.72 188.53 677.20 196.50 679.61 203.52 C 682.88 214.94 687.61 226.09 688.63 238.04 C 689.41 249.34 690.30 261.49 684.83 271.86 C 678.25 283.86 676.02 297.61 669.95 309.83 C 666.37 316.64 667.99 325.49 662.17 331.16 C 655.57 338.19 649.17 345.91 640.56 350.54 C 629.52 351.64 618.33 350.38 607.51 348.20 C 591.49 338.99 574.37 330.23 562.61 315.51 C 554.93 303.49 549.28 290.30 545.21 276.67 C 546.96 279.80 548.89 282.84 550.86 285.85 C 556.02 299.59 561.87 313.89 573.28 323.69 C 581.45 330.51 590.78 335.69 599.81 341.26 C 611.13 348.89 625.78 348.81 638.84 348.74 C 647.24 344.75 653.47 337.39 659.88 330.84 C 665.18 325.22 664.72 316.95 667.19 310.03 C 669.80 305.05 671.69 299.75 673.51 294.44 C 676.11 287.68 678.00 280.65 681.31 274.18 C 690.61 256.41 688.16 234.87 681.50 216.58 C 678.39 206.74 675.99 193.99 665.02 190.00 C 653.03 187.99 639.98 189.11 629.14 194.97 C 622.02 198.45 614.52 201.35 608.36 206.48 C 612.80 206.32 617.26 205.94 621.70 205.78 C 609.01 210.84 595.15 212.29 582.65 217.91 C 574.15 221.44 566.79 227.11 559.52 232.62 C 556.25 234.95 554.12 238.36 552.37 241.89 C 550.96 244.28 549.50 246.64 548.17 249.08 C 546.90 251.31 545.81 253.64 544.86 256.03 C 544.25 257.45 543.69 258.89 543.20 260.36 C 543.24 256.55 542.65 252.32 545.04 249.04 C 548.94 243.31 551.66 236.67 556.86 231.91 C 568.75 221.99 582.41 213.16 598.09 211.13 C 602.51 210.80 605.66 207.47 608.20 204.18 C 612.16 198.81 619.08 197.49 624.70 194.59 Z" />
<path fill="#ff004d" opacity="1.00" d=" M 594.97 237.95 C 606.21 235.12 617.27 239.69 627.75 243.18 C 633.12 244.86 637.36 249.51 639.31 254.70 C 642.20 262.57 635.95 268.89 631.16 274.18 C 623.91 282.11 612.55 286.07 601.98 284.10 C 589.55 279.80 576.33 269.92 577.40 255.08 C 578.77 254.64 580.15 254.20 581.53 253.76 C 581.15 257.39 579.60 261.30 581.19 264.79 C 586.01 274.58 596.54 281.07 607.05 282.73 C 619.39 283.31 629.23 274.29 635.96 264.97 C 640.37 257.91 635.38 248.51 628.18 245.77 C 618.19 242.20 607.63 238.01 596.82 239.74 C 589.58 241.87 588.39 250.61 586.37 256.69 C 585.20 249.54 587.73 240.78 594.97 237.95 Z" />
<path fill="#ff004d" opacity="1.00" d=" M 604.98 242.84 C 614.39 243.94 624.45 251.42 623.75 261.68 C 622.84 265.45 623.13 270.99 619.35 273.39 C 611.10 275.88 600.54 270.96 598.69 262.15 C 596.71 255.00 602.76 249.21 604.98 242.84 M 601.18 262.72 C 603.32 270.10 611.93 271.73 618.42 272.92 C 619.47 268.42 621.54 263.98 621.56 259.31 C 620.74 253.07 614.89 249.55 610.70 245.63 C 603.96 248.04 598.44 255.47 601.18 262.72 Z" />
<path fill="#ff004d" opacity="1.00" d=" M 739.46 491.55 C 749.46 490.03 759.68 489.45 769.75 490.77 C 750.76 491.43 732.04 495.39 713.00 495.09 C 696.79 495.34 680.51 492.90 664.43 495.83 C 663.25 495.94 660.90 496.17 659.72 496.28 C 643.67 496.85 627.68 499.02 611.60 498.46 C 585.10 497.19 558.62 499.11 532.14 499.39 C 506.84 501.81 481.39 502.07 456.01 501.24 C 442.41 500.81 428.37 501.39 415.36 496.67 C 437.52 498.23 459.71 499.60 481.95 499.40 C 510.51 500.94 538.88 495.40 567.46 496.92 C 568.80 496.95 570.15 496.85 571.49 496.71 C 580.30 496.00 589.16 495.86 598.00 495.97 C 602.91 496.04 607.87 496.18 612.80 496.28 C 617.26 496.32 621.78 496.49 626.27 496.34 C 630.60 496.13 634.98 495.83 639.34 495.56 C 656.59 495.65 673.56 491.52 690.83 492.38 C 707.02 493.04 723.34 493.80 739.46 491.55 Z" />
<path fill="#ff004d" opacity="1.00" d=" M 375.00 588.81 C 395.59 586.87 416.31 585.50 436.99 586.79 C 463.90 587.67 490.79 588.99 517.67 590.47 C 536.21 593.11 555.06 590.70 573.59 593.42 C 605.29 597.10 637.20 593.73 669.00 594.01 C 676.64 593.91 684.35 594.09 691.96 593.10 C 692.35 593.97 692.74 594.85 693.14 595.74 C 656.52 595.12 619.92 598.11 583.32 596.59 C 564.97 594.12 546.46 593.88 527.98 593.80 C 490.39 590.87 452.69 589.48 415.00 588.26 C 397.04 587.85 379.24 590.79 361.32 591.37 C 343.88 592.01 326.44 592.57 309.00 593.00 C 296.19 593.46 283.32 591.49 270.56 593.16 C 258.16 594.10 245.59 594.68 233.21 593.06 C 238.42 590.36 244.42 591.73 250.00 591.67 C 261.82 592.30 273.58 590.56 285.39 590.63 C 315.27 591.52 345.16 590.35 375.00 588.81 Z" />
<path fill="#ff004d" opacity="1.00" d=" M 501.85 604.73 C 519.71 601.35 537.93 602.27 555.99 601.18 C 572.72 600.19 589.35 602.56 605.83 605.17 C 632.76 607.39 660.51 609.92 686.96 602.86 C 686.97 603.70 686.98 605.37 686.98 606.21 C 655.42 610.42 623.28 610.57 591.81 605.48 C 567.48 601.71 542.78 603.53 518.32 604.37 C 488.76 608.78 458.84 610.14 428.99 610.24 C 405.58 612.06 381.80 613.83 358.51 609.91 C 340.76 607.87 322.90 603.94 304.96 605.98 C 294.32 607.00 283.62 607.04 272.95 606.52 C 260.68 605.82 248.43 607.67 236.17 607.15 C 256.97 602.34 278.69 605.19 299.86 604.60 C 307.88 603.79 315.96 603.22 324.03 603.65 C 343.89 603.78 363.09 610.33 382.99 610.06 C 403.71 611.06 424.30 608.00 445.00 608.02 C 464.00 608.29 482.94 606.34 501.85 604.73 Z" />
<path fill="#ff004d" opacity="1.00" d=" M 299.41 618.33 C 314.78 616.35 330.24 619.97 345.60 617.69 C 359.68 615.62 372.94 622.49 386.98 621.93 C 424.64 621.98 462.33 622.68 499.96 620.66 C 545.64 618.46 591.32 621.61 637.00 621.00 C 654.02 620.81 670.95 623.48 687.98 622.32 C 687.98 623.01 687.99 624.39 687.99 625.08 C 678.64 624.97 669.31 624.80 660.00 624.04 C 630.38 621.85 600.65 624.02 571.01 622.22 C 520.97 620.31 471.03 624.86 421.00 624.01 C 406.14 623.87 391.24 624.64 376.42 623.34 C 366.68 622.33 357.22 618.75 347.34 619.35 C 337.11 620.42 326.72 621.50 316.49 620.00 C 309.32 618.50 302.11 620.24 294.94 620.70 C 283.32 621.94 271.63 621.76 259.97 622.17 C 252.78 621.81 246.18 625.06 239.14 625.81 C 245.52 620.81 254.16 620.03 261.97 620.06 C 274.47 619.96 286.98 619.80 299.41 618.33 Z" />
<path fill="#ff004d" opacity="1.00" d=" M 474.32 637.74 C 533.87 637.90 593.54 641.12 653.04 637.13 C 656.53 637.15 659.73 638.80 662.95 640.03 C 644.48 641.83 625.90 640.29 607.41 641.62 C 592.36 642.84 577.25 643.94 562.14 643.60 C 531.44 640.01 500.46 640.78 469.61 640.79 C 430.17 645.11 390.52 642.13 351.01 640.91 C 351.01 640.41 351.00 639.40 351.00 638.90 C 392.08 639.21 433.48 644.47 474.32 637.74 M 562.00 640.98 L 562.00 642.02 C 565.75 642.02 573.25 642.02 577.00 642.02 L 577.00 640.98 C 573.25 640.98 565.75 640.98 562.00 640.98 Z" />
</g>
<g id="#29adffff">
<path fill="#29adff" opacity="1.00" d=" M 594.92 219.85 C 602.78 216.44 611.16 214.23 619.68 213.39 C 616.46 214.91 613.19 216.30 609.94 217.73 C 629.59 215.51 648.95 224.72 662.82 238.17 C 669.90 244.01 676.54 251.60 677.74 261.05 C 677.07 272.25 674.75 283.29 673.51 294.44 C 671.69 299.75 669.80 305.05 667.19 310.03 C 660.83 316.43 654.36 322.91 646.60 327.61 C 642.04 330.34 636.40 329.44 631.38 329.47 C 616.77 327.90 602.01 325.81 588.13 320.83 C 572.88 312.61 562.41 298.32 550.86 285.85 C 548.89 282.84 546.96 279.80 545.21 276.67 C 542.58 271.76 542.46 265.75 543.20 260.36 C 543.69 258.89 544.25 257.45 544.86 256.03 C 545.90 253.68 547.01 251.36 548.17 249.08 C 549.50 246.64 550.96 244.28 552.37 241.89 C 564.90 231.64 580.21 226.10 594.92 219.85 M 604.43 219.06 C 592.33 222.43 581.04 228.42 569.50 233.36 C 557.64 238.34 548.79 249.09 545.79 261.52 C 543.18 270.60 548.39 279.28 554.11 285.87 C 564.59 297.96 574.94 310.93 589.10 318.88 C 601.35 323.49 614.47 324.99 627.34 326.98 C 633.76 328.02 641.19 328.85 646.82 324.86 C 654.54 319.44 662.29 313.36 667.00 304.99 C 672.10 297.99 671.21 288.81 673.05 280.76 C 674.33 272.06 678.06 262.17 673.12 253.95 C 670.01 247.05 663.99 242.37 658.50 237.48 C 644.15 224.02 623.99 217.31 604.43 219.06 Z" />
</g>
<g id="#5f574fff">
<path fill="#5f574f" opacity="1.00" d=" M 351.17 247.17 C 352.79 246.65 353.35 247.20 352.83 248.83 C 351.20 249.35 350.64 248.79 351.17 247.17 Z" />
<path fill="#5f574f" opacity="1.00" d=" M 284.09 287.78 C 293.86 286.70 303.76 287.16 313.51 288.27 C 314.94 288.85 316.35 289.48 317.79 290.07 C 309.22 289.61 300.64 288.79 292.06 289.45 C 283.85 289.57 276.24 292.95 268.47 295.14 C 267.94 295.07 266.88 294.94 266.36 294.87 C 268.14 293.56 269.95 292.28 271.77 291.03 C 273.40 290.46 275.06 289.95 276.72 289.43 C 279.16 288.81 281.60 288.26 284.09 287.78 Z" />
<path fill="#5f574f" opacity="1.00" d=" M 127.25 332.24 C 134.29 325.32 145.13 331.63 149.52 338.54 C 154.25 347.33 151.94 358.54 146.08 366.24 C 137.50 364.67 130.11 359.72 124.79 352.91 C 125.08 346.03 124.32 338.71 127.25 332.24 M 130.77 333.76 C 126.03 338.22 126.67 345.67 127.54 351.48 C 130.93 358.01 137.85 362.29 144.91 363.87 C 150.05 356.86 152.12 346.55 146.96 339.01 C 143.98 333.48 136.46 329.97 130.77 333.76 Z" />
<path fill="#5f574f" opacity="1.00" d=" M 135.08 342.53 C 139.40 344.06 144.26 346.02 143.76 351.89 C 141.14 351.62 138.53 351.34 135.92 351.05 C 135.64 348.21 135.34 345.35 135.08 342.53 M 136.70 346.10 C 137.95 347.61 139.24 349.09 140.54 350.56 C 140.66 349.67 140.90 347.90 141.02 347.02 C 139.58 346.71 138.14 346.40 136.70 346.10 Z" />
<path fill="#5f574f" opacity="1.00" d=" M 165.11 350.58 C 168.17 343.84 177.72 343.24 182.74 348.23 C 185.97 357.75 182.44 367.94 177.15 375.97 C 172.36 375.26 167.26 374.66 163.14 371.86 C 160.97 366.15 162.16 359.76 163.73 354.02 C 165.12 353.99 166.50 353.95 167.89 353.92 C 165.91 356.97 163.69 360.10 164.01 364.02 C 161.71 371.11 170.42 374.35 175.68 372.74 C 180.13 369.49 180.47 363.22 181.43 358.32 C 181.67 355.16 182.67 349.73 178.75 348.19 C 174.17 346.01 169.31 348.85 165.11 350.58 Z" />
<path fill="#5f574f" opacity="1.00" d=" M 305.81 354.08 C 310.04 352.58 314.13 354.42 317.74 356.42 C 313.38 356.34 308.92 355.14 304.64 356.50 C 299.32 358.05 293.80 359.16 288.91 361.85 C 288.53 362.04 287.77 362.43 287.39 362.62 C 283.15 364.64 278.94 366.72 274.63 368.59 C 273.57 369.03 272.50 369.46 271.43 369.89 C 267.05 371.44 262.75 373.23 258.28 374.50 C 257.10 374.78 255.93 375.04 254.75 375.27 C 243.24 377.10 231.01 378.70 219.82 374.60 C 211.19 371.98 201.56 370.91 194.27 365.17 C 205.10 367.87 215.75 371.24 226.55 374.06 C 235.73 375.83 245.23 375.09 254.30 373.03 C 254.77 372.94 255.70 372.75 256.17 372.66 C 260.61 371.39 264.91 369.68 269.26 368.10 C 270.18 367.74 271.11 367.38 272.04 367.01 C 276.26 365.26 280.39 363.30 284.45 361.22 C 285.38 360.75 286.32 360.29 287.26 359.85 C 293.20 357.24 299.59 355.85 305.81 354.08 Z" />
<path fill="#5f574f" opacity="1.00" d=" M 167.99 367.74 C 168.16 362.48 171.55 359.21 176.77 359.07 C 174.15 359.94 177.21 366.86 173.67 367.39 C 171.81 367.82 169.88 367.68 167.99 367.74 M 173.26 362.62 C 171.90 362.54 170.57 364.40 171.59 365.54 C 173.31 366.91 175.45 363.25 173.26 362.62 Z" />
<path fill="#5f574f" opacity="1.00" d=" M 144.92 376.44 C 151.37 378.11 159.61 378.15 163.92 384.10 C 167.95 390.86 165.50 399.07 162.17 405.55 C 155.14 404.69 145.18 405.10 141.30 397.70 C 138.49 390.53 141.15 382.70 144.92 376.44 M 147.34 380.21 C 142.47 383.15 141.93 390.28 142.69 395.31 C 145.09 402.93 154.79 402.03 161.06 403.74 C 162.89 398.45 165.00 392.66 162.94 387.08 C 160.51 381.20 153.09 379.36 147.34 380.21 Z" />
<path fill="#5f574f" opacity="1.00" d=" M 144.26 394.04 C 144.06 389.11 146.19 384.10 151.91 383.93 C 152.39 386.95 152.78 389.99 153.15 393.04 C 150.19 393.39 147.21 393.69 144.26 394.04 M 146.53 391.79 C 147.91 391.74 149.29 391.69 150.67 391.64 C 150.77 390.02 150.87 388.39 150.97 386.78 C 149.50 388.46 148.01 390.11 146.53 391.79 Z" />
<path fill="#5f574f" opacity="1.00" d=" M 193.14 404.29 C 201.94 402.24 210.95 401.22 219.98 401.00 C 227.89 400.90 236.11 400.17 243.64 403.15 C 232.61 403.60 221.55 402.52 210.54 403.51 C 204.76 403.76 198.83 406.65 193.14 404.29 Z" />
<path fill="#5f574f" opacity="1.00" d=" M 101.21 405.70 C 105.34 405.08 109.69 404.18 113.72 405.75 C 110.83 406.18 107.86 406.24 105.04 407.09 C 104.66 409.94 105.27 412.81 105.35 415.67 C 103.68 412.48 102.35 409.09 101.21 405.70 Z" />
<path fill="#5f574f" opacity="1.00" d=" M 188.20 412.88 C 193.13 412.28 198.12 412.22 203.05 412.85 C 213.96 413.91 225.01 413.77 235.78 415.99 C 219.94 417.49 203.75 416.16 188.20 412.88 Z" />
<path fill="#5f574f" opacity="1.00" d=" M 164.23 418.56 C 167.11 414.92 171.91 412.55 176.54 414.40 C 179.50 417.39 180.35 421.66 180.97 425.65 C 178.67 422.53 176.73 419.16 174.83 415.78 C 171.27 416.63 167.78 417.69 164.23 418.56 Z" />
<path fill="#5f574f" opacity="1.00" d=" M 111.09 415.40 C 115.58 424.88 122.02 433.80 131.97 438.09 C 142.99 442.36 157.50 443.62 166.54 434.49 C 169.17 432.19 167.57 428.59 167.24 425.73 C 168.82 426.22 170.39 426.72 171.98 427.23 C 170.72 438.95 157.40 444.33 147.00 443.16 C 131.27 443.45 112.32 432.47 111.09 415.40 Z" />
<path fill="#5f574f" opacity="1.00" d=" M 121.95 463.52 C 146.69 466.60 170.92 473.99 195.98 474.82 C 206.79 475.27 217.68 474.68 228.44 476.14 C 269.78 480.84 311.43 481.62 353.00 480.94 C 374.61 480.16 396.03 483.31 417.60 483.74 C 411.23 484.57 404.86 486.71 398.37 486.14 C 360.90 479.93 322.78 484.72 285.04 482.54 C 266.40 480.93 247.64 481.07 229.06 478.64 C 214.84 476.59 200.44 477.29 186.13 476.58 C 169.34 474.97 152.96 470.73 136.28 468.30 C 131.33 467.40 125.99 466.85 121.95 463.52 Z" />
</g>
<g id="#ff77a8ff">
<path fill="#ff77a8" opacity="1.00" d=" M 287.62 278.73 C 314.75 278.60 341.88 278.15 369.00 276.95 C 392.80 275.60 416.23 281.10 439.99 280.86 C 446.62 281.19 453.48 280.55 459.94 282.45 C 459.51 282.50 458.66 282.60 458.23 282.65 C 426.00 285.51 394.20 277.57 361.99 279.03 C 336.61 280.00 311.23 280.45 285.84 280.90 C 286.43 280.17 287.02 279.45 287.62 278.73 Z" />
<path fill="#ff77a8" opacity="1.00" d=" M 268.41 279.85 C 273.04 279.65 277.67 279.45 282.30 279.22 C 280.93 279.78 279.55 280.34 278.14 280.80 C 276.04 281.49 273.94 282.17 271.88 282.99 C 270.73 281.93 269.57 280.89 268.41 279.85 Z" />
<path fill="#ff77a8" opacity="1.00" d=" M 258.42 283.27 C 261.23 282.29 264.04 281.39 266.90 280.52 C 266.92 281.16 266.98 282.44 267.00 283.08 C 264.14 283.16 261.28 283.25 258.42 283.27 Z" />
<path fill="#ff77a8" opacity="1.00" d=" M 384.35 285.49 C 394.12 285.39 403.89 286.58 413.63 287.33 C 400.96 289.03 388.17 286.75 375.51 288.60 C 356.35 290.56 337.02 291.54 317.79 290.07 C 316.35 289.48 314.94 288.85 313.51 288.27 C 337.15 289.89 360.82 287.60 384.35 285.49 Z" />
<path fill="#ff77a8" opacity="1.00" d=" M 270.09 287.98 C 271.00 287.40 271.93 286.85 272.88 286.34 C 274.00 286.69 275.12 287.03 276.25 287.39 C 275.37 288.12 274.49 288.86 273.61 289.59 C 272.43 289.05 271.26 288.51 270.09 287.98 Z" />
<path fill="#ff77a8" opacity="1.00" d=" M 276.72 289.43 C 277.49 289.16 278.27 288.89 279.05 288.61 C 280.71 288.27 282.40 288.01 284.09 287.78 C 281.60 288.26 279.16 288.81 276.72 289.43 Z" />
<path fill="#ff77a8" opacity="1.00" d=" M 269.31 295.26 C 285.14 298.81 301.05 293.32 316.99 294.09 C 346.31 295.52 375.79 293.67 405.00 297.02 C 424.55 299.73 444.35 299.29 464.03 298.52 C 464.14 299.13 464.36 300.35 464.47 300.96 C 461.33 300.93 458.28 300.91 455.18 300.96 C 453.50 301.00 451.84 301.05 450.18 301.13 C 434.13 301.39 418.04 301.25 402.15 298.78 C 376.54 295.66 350.69 297.90 325.01 296.21 C 305.19 294.88 285.60 300.39 265.80 297.93 C 266.97 297.04 268.14 296.15 269.31 295.26 Z" />
<path fill="#ff77a8" opacity="1.00" d=" M 468.88 298.96 C 469.69 298.97 471.31 299.01 472.11 299.03 C 471.98 299.67 471.72 300.96 471.59 301.60 C 470.71 301.62 468.95 301.67 468.07 301.69 L 468.36 300.69 C 468.49 300.25 468.75 299.39 468.88 298.96 Z" />
<path fill="#ff77a8" opacity="1.00" d=" M 286.12 300.94 C 286.78 301.00 288.11 301.11 288.77 301.17 C 289.22 302.64 289.70 304.11 290.16 305.58 C 288.80 311.29 288.26 317.14 287.57 322.97 C 286.97 322.97 285.76 322.97 285.16 322.97 C 285.62 315.63 285.91 308.29 286.12 300.94 Z" />
<path fill="#ff77a8" opacity="1.00" d=" M 270.94 302.01 C 271.42 302.01 272.38 302.01 272.85 302.01 C 271.95 309.78 275.64 318.52 271.99 325.90 C 271.28 317.96 271.22 309.96 270.94 302.01 Z" />
<path fill="#ff77a8" opacity="1.00" d=" M 302.19 325.38 C 303.60 317.35 304.69 309.27 306.26 301.27 C 307.23 309.59 306.26 317.90 304.95 326.12 C 304.26 325.93 302.88 325.56 302.19 325.38 Z" />
<path fill="#ff77a8" opacity="1.00" d=" M 317.52 326.78 C 317.91 318.51 319.88 310.40 321.28 302.26 C 322.26 310.49 322.27 319.61 317.52 326.78 Z" />
<path fill="#ff77a8" opacity="1.00" d=" M 334.46 303.00 C 335.16 303.01 336.54 303.02 337.23 303.03 C 336.97 311.03 336.73 319.07 335.21 326.96 C 334.47 326.99 332.99 327.04 332.25 327.06 C 334.58 319.28 335.08 311.07 334.46 303.00 Z" />
<path fill="#ff77a8" opacity="1.00" d=" M 367.02 325.85 C 366.34 318.00 364.75 309.52 368.26 302.11 C 368.54 310.02 368.48 318.04 367.02 325.85 Z" />
<path fill="#ff77a8" opacity="1.00" d=" M 384.76 324.72 C 384.28 317.23 383.33 309.42 386.25 302.27 C 386.89 309.79 385.76 317.28 384.76 324.72 Z" />
<path fill="#ff77a8" opacity="1.00" d=" M 398.30 302.93 C 398.99 302.96 400.38 303.02 401.07 303.05 C 402.06 310.33 402.69 317.64 403.13 324.97 C 402.44 324.98 401.05 324.99 400.35 324.99 C 401.11 317.59 400.61 310.02 398.30 302.93 Z" />
<path fill="#ff77a8" opacity="1.00" d=" M 432.14 303.01 C 432.85 303.01 434.26 303.02 434.97 303.03 C 434.49 309.34 434.12 315.65 433.81 321.98 C 433.14 321.98 431.79 321.97 431.12 321.96 C 431.56 315.65 431.86 309.32 432.14 303.01 Z" />
<path fill="#ff77a8" opacity="1.00" d=" M 413.09 326.99 C 414.85 319.10 413.35 310.39 417.37 303.14 C 417.45 311.10 416.98 319.06 416.02 326.96 C 415.29 326.97 413.82 326.98 413.09 326.99 Z" />
<path fill="#ff77a8" opacity="1.00" d=" M 461.45 327.77 C 461.80 319.63 463.11 311.51 464.93 303.58 C 465.13 304.70 465.33 305.82 465.52 306.95 C 465.32 313.98 465.67 321.74 461.45 327.77 Z" />
<path fill="#ff77a8" opacity="1.00" d=" M 351.79 326.63 C 349.61 319.27 349.67 311.50 352.04 304.20 C 353.26 311.64 352.42 319.17 351.79 326.63 Z" />
<path fill="#ff77a8" opacity="1.00" d=" M 446.63 306.46 C 447.68 305.90 448.74 305.33 449.80 304.77 C 449.55 306.92 449.32 309.08 449.01 311.23 C 448.52 312.29 448.03 313.36 447.57 314.44 C 447.33 312.44 446.86 308.45 446.63 306.46 Z" />
<path fill="#ff77a8" opacity="1.00" d=" M 446.44 319.94 C 447.12 319.56 448.49 318.80 449.17 318.42 C 448.58 321.83 447.54 325.23 445.31 327.95 C 445.53 325.26 445.91 322.58 446.44 319.94 Z" />
<path fill="#ff77a8" opacity="1.00" d=" M 265.39 330.33 C 301.27 322.56 337.77 333.08 373.97 330.73 C 392.44 329.46 411.06 331.04 429.47 328.72 C 442.23 327.45 455.00 329.77 467.77 330.00 C 467.76 331.03 467.77 332.06 467.79 333.10 C 455.40 331.27 442.86 330.48 430.34 330.63 C 410.28 332.62 390.11 331.60 370.01 332.81 C 347.62 333.93 325.34 331.17 303.04 329.77 C 290.48 329.03 277.95 330.49 265.39 330.33 Z" />
<path fill="#ff77a8" opacity="1.00" d=" M 225.63 335.19 C 229.05 340.37 227.32 346.82 227.36 352.59 C 226.36 346.84 225.48 341.05 225.63 335.19 Z" />
<path fill="#ff77a8" opacity="1.00" d=" M 286.60 345.27 C 291.25 345.69 295.89 346.01 300.55 346.37 C 300.74 347.52 300.93 348.67 301.12 349.84 C 296.07 348.94 290.97 348.32 285.89 347.70 C 286.07 347.10 286.42 345.88 286.60 345.27 Z" />
<path fill="#ff77a8" opacity="1.00" d=" M 374.25 356.11 C 376.02 356.16 379.56 356.25 381.33 356.30 C 378.57 357.26 375.81 358.20 373.05 359.14 C 373.45 358.13 373.85 357.11 374.25 356.11 Z" />
<path fill="#ff77a8" opacity="1.00" d=" M 372.57 361.87 C 373.10 361.69 374.15 361.32 374.68 361.14 C 376.64 366.35 377.52 373.47 383.92 375.15 C 387.18 376.44 392.21 379.70 395.39 376.36 C 398.36 373.60 394.78 370.05 393.72 367.20 C 393.41 366.19 393.16 365.16 392.92 364.15 C 398.59 366.01 398.96 372.40 399.63 377.39 C 392.83 381.10 384.70 379.84 378.57 375.39 C 374.97 371.80 374.03 366.54 372.57 361.87 Z" />
<path fill="#ff77a8" opacity="1.00" d=" M 389.08 369.07 C 390.48 369.23 391.72 370.20 392.27 371.51 C 390.51 372.76 388.18 371.13 389.08 369.07 Z" />
</g>
<g id="#83769cff">
<path fill="#83769c" opacity="1.00" d=" M 459.94 282.45 C 467.65 281.72 475.38 281.05 483.07 280.05 C 482.95 281.25 482.84 282.44 482.73 283.65 C 477.94 288.43 471.03 292.12 468.88 298.96 C 468.75 299.39 468.49 300.25 468.36 300.69 C 466.43 311.71 473.78 324.15 467.82 334.58 L 467.79 333.10 C 467.77 332.06 467.76 331.03 467.77 330.00 C 468.44 322.18 467.39 314.50 465.52 306.95 C 465.33 305.82 465.13 304.70 464.93 303.58 C 464.82 302.93 464.59 301.62 464.47 300.96 C 464.36 300.35 464.14 299.13 464.03 298.52 C 468.73 292.60 474.43 287.56 479.96 282.43 C 472.77 283.59 465.45 283.24 458.23 282.65 C 458.66 282.60 459.51 282.50 459.94 282.45 Z" />
<path fill="#83769c" opacity="1.00" d=" M 450.18 301.13 C 451.84 301.05 453.50 301.00 455.18 300.96 C 456.51 305.18 456.72 309.61 456.49 314.01 C 454.02 315.43 451.61 316.95 449.17 318.42 C 448.49 318.80 447.12 319.56 446.44 319.94 L 445.47 320.47 C 446.09 318.43 446.71 316.39 447.57 314.44 C 448.03 313.36 448.52 312.29 449.01 311.23 C 450.47 308.45 451.97 305.70 453.36 302.89 C 452.16 303.50 450.98 304.13 449.80 304.77 C 448.74 305.33 447.68 305.90 446.63 306.46 C 445.58 306.99 444.54 307.51 443.49 308.01 C 445.59 305.61 447.60 303.06 450.18 301.13 Z" />
<path fill="#83769c" opacity="1.00" d=" M 249.31 319.40 C 250.09 321.87 251.41 324.58 250.25 327.15 C 248.35 332.23 241.98 333.81 240.24 339.00 C 240.78 343.79 245.08 346.88 248.79 349.28 C 256.88 354.74 264.66 360.62 272.04 367.01 C 271.11 367.38 270.18 367.74 269.26 368.10 C 261.31 360.73 252.70 354.06 243.46 348.39 C 248.75 355.88 252.96 364.08 256.17 372.66 C 255.70 372.75 254.77 372.94 254.30 373.03 C 251.83 369.38 250.67 365.07 248.61 361.21 C 246.05 356.55 243.05 352.18 240.31 347.64 C 238.04 343.67 233.98 341.26 231.22 337.68 C 232.95 337.61 234.69 337.56 236.43 337.50 C 236.60 336.92 236.94 335.77 237.11 335.19 C 234.41 333.76 231.73 332.36 229.04 330.94 C 229.09 330.11 229.17 328.43 229.21 327.59 C 232.64 329.81 235.99 332.11 239.38 334.41 C 241.78 332.11 244.64 330.33 246.92 327.91 C 248.60 325.41 248.65 322.25 249.31 319.40 Z" />
<path fill="#83769c" opacity="1.00" d=" M 359.68 337.70 C 370.18 335.49 380.27 340.34 388.79 346.00 C 389.58 352.18 391.49 358.11 392.92 364.15 C 393.16 365.16 393.41 366.19 393.72 367.20 C 394.05 368.34 394.37 369.50 394.70 370.66 C 394.09 370.87 392.88 371.30 392.27 371.51 C 391.72 370.20 390.48 369.23 389.08 369.07 C 390.05 364.69 390.05 360.18 389.08 355.81 C 384.35 357.78 379.54 359.54 374.68 361.14 C 374.15 361.32 373.10 361.69 372.57 361.87 L 371.81 362.13 C 372.22 361.13 372.63 360.13 373.05 359.14 C 375.81 358.20 378.57 357.26 381.33 356.30 C 382.51 355.89 383.70 355.47 384.89 355.06 C 384.20 353.75 383.52 352.45 382.85 351.14 C 384.79 351.27 386.74 351.41 388.69 351.54 C 384.87 345.90 379.17 341.50 372.24 340.87 C 369.35 340.49 366.53 340.24 363.65 339.97 C 363.59 338.55 361.62 337.55 360.89 339.10 C 359.73 340.46 358.56 341.81 357.43 343.21 C 354.79 347.09 350.78 350.80 350.46 355.74 C 351.96 360.31 356.03 363.49 359.59 366.53 C 360.32 367.13 361.06 367.74 361.80 368.35 C 362.51 368.95 363.23 369.56 363.95 370.18 C 364.23 370.44 364.81 370.95 365.09 371.20 C 368.96 374.50 373.00 377.62 376.73 381.09 C 371.22 385.09 366.33 389.93 360.72 393.78 C 359.70 393.72 358.80 394.02 358.03 394.67 C 354.10 396.74 349.33 395.23 345.16 395.55 C 335.92 394.52 326.63 394.55 317.36 394.16 C 310.47 393.42 303.98 390.43 296.98 390.47 C 290.24 389.39 282.69 391.21 276.55 387.59 C 269.22 383.59 261.39 380.41 254.75 375.27 C 255.93 375.04 257.10 374.78 258.28 374.50 C 263.90 379.02 270.43 382.11 276.88 385.23 C 282.63 388.61 289.67 387.34 296.00 388.41 C 305.78 388.74 315.21 392.23 325.00 392.24 C 329.91 392.27 334.81 392.44 339.73 392.64 C 345.18 392.91 350.73 393.98 356.15 392.83 C 358.78 392.28 361.08 390.73 363.03 388.92 C 366.15 385.88 369.51 383.11 373.12 380.66 C 370.56 378.75 367.98 376.84 365.46 374.90 C 365.17 374.66 364.59 374.18 364.29 373.94 C 363.29 373.11 362.28 372.30 361.30 371.46 C 361.03 371.22 360.50 370.74 360.23 370.50 C 355.74 366.44 350.60 362.47 348.38 356.65 C 347.80 351.51 351.56 347.20 354.07 343.06 C 354.40 342.62 355.05 341.73 355.38 341.28 C 356.53 339.81 357.90 338.39 359.68 337.70 Z" />
<path fill="#83769c" opacity="1.00" d=" M 278.84 352.23 C 282.54 353.63 285.06 356.71 287.26 359.85 C 286.32 360.29 285.38 360.75 284.45 361.22 C 282.52 358.25 280.52 355.33 278.84 352.23 Z" />
<path fill="#83769c" opacity="1.00" d=" M 287.39 362.62 C 287.77 362.43 288.53 362.04 288.91 361.85 C 288.91 363.62 288.91 367.14 288.91 368.91 C 285.93 370.55 283.00 372.32 279.93 373.79 C 276.82 373.21 274.17 371.36 271.43 369.89 C 272.50 369.46 273.57 369.03 274.63 368.59 C 276.61 369.95 278.60 371.29 280.60 372.64 C 283.02 369.41 285.57 366.24 287.39 362.62 Z" />
</g>
<g id="#00e436ff">
<path fill="#00e436" opacity="1.00" d=" M 708.01 332.04 C 711.74 327.91 714.76 323.11 718.99 319.44 C 717.25 323.16 715.25 326.76 713.29 330.37 C 715.61 328.42 717.84 326.37 720.20 324.48 C 719.71 336.40 709.92 344.09 704.56 353.84 C 712.45 348.07 720.24 342.12 728.49 336.85 C 725.29 346.24 717.96 353.30 712.92 361.65 C 721.22 358.20 725.62 349.59 733.27 345.21 C 731.53 352.10 727.13 358.05 725.79 365.05 C 727.08 365.57 728.45 366.04 729.89 366.01 C 738.03 359.88 743.41 350.69 752.01 345.10 C 750.89 353.04 748.00 360.73 748.31 368.86 C 749.76 368.74 751.32 368.51 752.47 367.51 C 757.66 362.87 760.87 356.59 763.29 350.18 C 764.04 350.15 765.54 350.11 766.29 350.09 C 764.80 353.90 762.93 357.58 761.82 361.53 C 758.83 367.26 765.77 371.71 770.63 370.75 C 779.48 360.87 784.56 347.38 782.19 334.02 C 780.62 333.68 779.05 333.34 777.50 333.00 C 779.37 331.99 781.28 331.07 783.23 330.18 C 783.62 333.64 784.42 340.55 784.81 344.01 C 785.17 350.58 782.00 356.48 779.27 362.20 C 777.11 365.96 774.97 369.97 771.57 372.74 C 765.63 374.20 759.94 370.23 758.41 364.62 C 755.97 367.00 753.40 369.26 750.92 371.57 C 749.12 370.72 747.32 369.85 745.54 368.97 C 746.05 362.50 747.29 356.13 748.79 349.83 C 743.83 355.19 739.16 360.85 733.78 365.81 C 731.22 368.36 725.98 369.35 724.14 365.65 C 723.59 360.98 726.15 357.05 728.12 353.11 C 723.07 357.94 717.35 362.30 710.22 363.39 C 713.85 355.63 719.20 348.95 724.31 342.15 C 716.37 347.27 709.87 355.41 700.33 357.55 C 704.39 347.29 713.58 340.20 717.27 329.72 C 709.09 334.99 704.89 346.26 694.34 347.44 C 697.65 341.29 703.52 337.24 708.01 332.04 M 704.13 339.11 C 702.81 339.79 702.81 340.47 704.12 341.14 C 705.43 340.46 705.43 339.78 704.13 339.11 Z" />
<path fill="#00e436" opacity="1.00" d=" M 705.02 395.82 C 709.14 396.18 713.32 396.57 717.48 396.93 C 715.68 405.52 712.46 413.90 713.00 422.85 C 716.45 430.74 725.26 431.52 732.77 431.25 C 733.43 430.39 734.10 429.53 734.79 428.68 C 735.03 421.62 735.53 414.59 735.60 407.54 C 736.64 409.19 737.64 410.88 738.62 412.58 C 742.40 412.62 746.19 412.68 749.98 412.82 C 750.33 415.22 750.72 417.63 751.15 420.04 C 748.46 421.80 745.71 423.48 742.91 425.05 C 745.83 425.32 748.91 425.73 751.86 426.07 C 755.46 419.71 758.82 413.17 763.18 407.28 C 764.18 408.96 766.20 412.32 767.20 413.99 C 774.65 412.74 781.99 410.54 789.60 410.44 C 792.74 411.09 794.96 413.59 797.23 415.66 C 807.56 411.83 818.34 409.62 828.98 406.87 C 828.96 407.60 828.93 409.05 828.91 409.78 C 817.58 411.53 806.53 414.55 795.80 418.56 C 794.01 416.37 792.54 413.10 789.36 412.82 C 786.19 412.56 783.10 412.74 779.95 412.77 C 780.76 415.68 781.59 418.58 782.39 421.49 C 779.03 422.41 775.76 423.88 772.24 423.95 C 770.50 421.36 770.35 418.19 770.26 415.18 C 769.37 415.53 768.47 415.88 767.60 416.23 C 767.34 424.20 766.45 432.17 764.73 439.97 C 764.29 444.00 759.90 445.18 757.02 447.15 C 755.98 440.39 755.30 433.59 754.81 426.79 C 749.12 428.12 743.42 426.93 738.18 424.63 C 738.40 430.69 738.32 436.75 738.09 442.83 C 737.07 439.44 736.35 435.97 735.60 432.54 C 728.95 432.59 720.97 434.80 715.65 429.39 C 710.33 426.63 711.34 419.97 710.48 415.04 C 709.20 417.31 707.90 419.57 706.63 421.85 C 702.38 420.46 694.75 418.49 697.02 412.00 C 696.36 405.36 701.64 400.75 705.02 395.82 M 706.31 397.26 C 702.94 402.90 697.35 408.46 699.13 415.64 C 701.01 417.51 703.47 418.61 705.80 419.83 C 708.82 413.37 711.38 406.64 712.75 399.63 C 713.74 399.71 714.72 399.78 715.73 399.87 C 712.72 398.66 709.46 397.91 706.31 397.26 M 762.21 412.47 C 760.83 414.25 759.84 416.29 758.77 418.27 C 761.09 416.93 763.36 415.52 765.63 414.10 C 764.50 413.51 763.41 412.87 762.21 412.47 M 737.02 421.15 C 739.55 421.35 742.13 421.86 744.68 421.50 C 747.38 420.82 748.63 418.02 750.15 415.98 C 745.19 413.54 736.83 413.02 737.02 421.15 M 771.53 417.06 C 772.31 418.79 773.14 420.52 773.98 422.23 C 775.95 421.43 777.92 420.62 779.90 419.82 C 779.21 418.09 778.53 416.35 777.85 414.63 C 775.74 415.43 773.63 416.25 771.53 417.06 M 757.19 427.13 C 756.65 433.06 757.45 439.14 759.07 444.88 C 760.42 443.01 762.17 441.28 762.72 438.97 C 764.32 431.58 765.54 424.04 765.44 416.46 C 761.76 419.13 757.93 422.36 757.19 427.13 Z" />
</g>
<g id="#ab5236ff">
<path fill="#ab5236" opacity="1.00" d=" M 780.96 437.24 C 786.57 443.07 790.77 450.12 793.94 457.54 C 799.23 456.47 804.52 455.04 809.98 455.05 C 813.17 455.76 815.76 458.06 818.70 459.47 C 821.40 450.42 826.69 441.28 836.26 438.37 C 834.19 445.83 831.14 452.97 828.33 460.18 C 825.91 463.71 829.35 467.01 830.50 470.25 C 832.55 476.40 834.51 483.88 830.95 489.89 C 823.60 503.12 809.05 509.81 796.10 516.31 C 796.15 515.61 796.23 514.21 796.28 513.50 C 806.61 509.11 816.15 503.00 824.55 495.54 C 832.52 487.74 833.60 472.41 823.90 465.57 C 826.91 457.91 829.97 450.27 832.77 442.52 C 825.46 446.99 822.37 455.37 819.64 463.03 C 815.11 460.39 810.81 456.11 805.14 457.17 C 800.80 458.34 796.64 459.94 792.59 461.82 C 790.42 454.70 787.29 447.63 781.95 442.33 C 781.00 449.63 784.64 456.12 789.64 461.03 C 782.94 470.69 790.14 481.57 791.80 491.71 C 785.10 483.32 783.16 471.56 785.77 461.26 C 779.88 454.50 779.63 445.63 780.96 437.24 Z" />
<path fill="#ab5236" opacity="1.00" d=" M 795.04 469.05 C 797.81 468.73 800.28 468.22 803.15 467.97 C 802.96 469.50 802.78 471.03 802.60 472.57 C 800.04 472.72 797.51 472.89 795.00 473.07 C 795.00 471.72 795.02 470.38 795.04 469.05 Z" />
<path fill="#ab5236" opacity="1.00" d=" M 811.20 473.28 C 813.79 472.78 816.39 472.31 819.01 471.85 C 819.39 474.55 819.77 477.27 820.14 479.99 C 815.49 480.72 812.61 477.27 811.20 473.28 M 816.17 474.68 C 814.74 475.50 815.88 478.32 817.48 477.30 C 818.95 476.47 817.75 473.72 816.17 474.68 Z" />
<path fill="#ab5236" opacity="1.00" d=" M 797.87 483.43 C 800.15 486.86 801.92 490.61 804.39 493.93 C 808.87 494.10 811.65 489.89 815.11 487.71 C 813.41 490.85 811.58 493.93 809.87 497.07 C 806.95 496.13 803.98 496.09 801.31 494.62 C 799.19 491.25 798.45 487.29 797.87 483.43 Z" />
</g>
</svg>
