<?xml version="1.0" encoding="UTF-8" ?>
<!DOCTYPE svg PUBLIC "-//W3C//DTD SVG 1.1//EN" "http://www.w3.org/Graphics/SVG/1.1/DTD/svg11.dtd">
<svg width="120pt" height="120pt" viewBox="0 0 120 120" version="1.1" xmlns="http://www.w3.org/2000/svg">
<g id="#000000ff">
<path fill="#000000" opacity="1.00" d=" M 99.37 8.37 C 106.19 7.01 113.40 8.87 120.00 10.77 L 120.00 17.55 C 114.23 19.01 108.40 20.18 102.64 21.70 C 105.32 25.84 109.21 29.47 110.39 34.38 C 111.09 44.33 109.09 54.17 108.25 64.04 C 107.07 75.49 105.35 87.42 99.60 97.59 C 96.94 102.57 91.64 105.75 86.03 105.99 C 69.40 106.62 52.36 105.79 36.48 100.36 C 28.74 96.37 21.35 90.52 17.73 82.39 C 12.99 64.13 14.46 44.72 20.80 27.03 C 19.80 26.50 18.81 25.97 17.81 25.44 C 15.56 28.31 13.69 31.57 10.87 33.92 C 7.44 36.66 1.29 31.57 4.70 27.54 C 6.76 21.50 10.87 16.45 14.30 11.16 C 19.24 14.02 24.05 17.15 28.04 21.26 C 48.46 11.92 71.93 12.74 92.80 20.03 C 94.78 16.10 95.60 11.06 99.37 8.37 M 100.30 9.15 C 96.56 11.63 96.12 16.62 94.58 20.48 C 97.00 20.71 99.53 21.32 101.91 20.49 C 107.47 18.59 113.30 17.71 118.99 16.27 C 119.02 15.36 119.08 13.54 119.11 12.62 C 113.33 9.64 106.80 8.33 100.30 9.15 M 15.20 12.57 C 11.03 19.07 4.52 25.61 5.41 33.99 C 11.04 33.46 13.58 28.54 16.57 24.62 C 20.29 25.44 24.15 25.18 27.13 22.55 C 23.69 18.62 19.53 15.45 15.20 12.57 M 57.46 15.58 C 46.77 16.61 35.29 17.80 26.46 24.48 C 21.24 27.94 19.27 34.25 18.24 40.11 C 14.94 51.61 17.03 63.66 17.62 75.35 C 17.70 87.19 28.70 94.88 38.26 99.55 C 54.53 105.16 72.14 106.40 89.14 104.18 C 95.25 102.97 98.75 97.18 100.94 91.86 C 104.69 82.36 107.02 72.28 107.44 62.05 C 107.83 52.64 111.16 43.29 109.16 33.86 C 107.35 27.38 100.84 23.37 94.76 21.51 C 82.70 17.88 70.13 14.91 57.46 15.58 Z" />
<path fill="#000000" opacity="1.00" d=" M 30.23 29.08 C 34.73 28.93 38.54 31.87 42.56 33.41 C 42.08 37.05 41.54 40.69 40.95 44.32 C 34.88 44.04 28.72 44.03 22.84 42.29 C 23.85 37.23 26.61 32.68 30.23 29.08 M 32.12 30.17 C 29.42 33.84 26.31 37.21 23.94 41.11 C 29.09 42.71 34.52 42.89 39.85 43.44 C 40.29 40.57 40.74 37.70 41.20 34.83 C 38.17 33.27 35.16 31.69 32.12 30.17 Z" />
<path fill="#000000" opacity="1.00" d=" M 92.29 31.28 C 97.41 30.72 101.75 34.75 104.82 38.36 C 107.11 44.10 101.28 48.90 96.12 48.69 C 92.45 48.11 89.32 45.90 86.00 44.39 C 87.63 40.13 87.51 33.61 92.29 31.28 M 91.36 32.05 C 89.88 35.78 88.56 39.58 87.40 43.43 C 90.99 44.86 94.74 48.61 98.89 46.96 C 101.89 45.89 105.08 42.77 103.73 39.32 C 100.95 35.19 96.10 33.02 91.36 32.05 Z" />
<path fill="#000000" opacity="1.00" d=" M 29.54 34.12 C 32.37 35.48 36.52 37.15 34.14 40.90 C 31.95 40.63 29.83 40.04 27.71 39.47 C 28.32 37.69 28.93 35.90 29.54 34.12 M 30.32 35.58 C 30.21 36.47 30.01 38.23 29.91 39.11 C 31.37 38.98 32.84 38.85 34.30 38.71 C 32.98 37.66 31.65 36.61 30.32 35.58 Z" />
<path fill="#000000" opacity="1.00" d=" M 92.11 41.11 C 93.98 39.77 95.91 38.50 97.88 37.30 C 98.11 39.17 98.55 42.91 98.78 44.77 C 96.49 43.68 94.25 42.46 92.11 41.11 M 97.29 43.77 C 96.90 42.01 96.46 40.25 95.97 38.51 C 96.26 40.30 96.71 42.05 97.29 43.77 Z" />
<path fill="#000000" opacity="1.00" d=" M 39.54 50.45 C 44.82 47.45 49.39 43.46 53.77 39.30 C 48.05 49.70 35.35 55.69 23.72 53.20 C 29.04 52.62 34.55 52.65 39.54 50.45 Z" />
<path fill="#000000" opacity="1.00" d=" M 73.64 42.01 C 81.17 49.07 90.29 54.31 100.09 57.55 C 89.97 55.87 78.82 51.44 73.64 42.01 Z" />
<path fill="#000000" opacity="1.00" d=" M 55.94 53.33 C 60.90 50.45 65.99 53.82 70.64 55.31 C 77.40 57.71 83.92 62.36 86.06 69.54 C 83.68 70.87 81.30 72.17 78.88 73.41 C 78.28 77.06 79.26 82.19 75.70 84.69 C 66.86 90.16 54.50 88.28 47.86 80.23 C 44.81 75.95 40.49 71.94 40.95 66.15 C 44.06 60.01 50.10 56.43 55.94 53.33 M 56.08 52.53 C 55.63 54.68 55.20 56.82 54.79 58.97 C 57.18 59.33 59.58 59.70 61.98 60.08 C 63.09 58.25 64.20 56.42 65.31 54.59 C 62.28 53.72 59.17 53.09 56.08 52.53 M 65.73 55.31 C 65.15 57.35 63.76 59.38 63.96 61.55 C 66.04 65.96 69.38 70.12 73.93 72.11 C 77.59 73.02 81.40 71.11 84.12 68.75 C 82.06 60.77 72.96 57.31 65.73 55.31 M 52.13 56.75 C 47.14 60.48 40.99 65.07 41.63 72.18 C 44.07 72.85 46.86 73.29 49.23 72.13 C 53.01 69.71 54.52 65.10 56.96 61.50 C 55.32 59.95 53.72 58.36 52.13 56.75 M 58.06 60.87 C 57.79 62.10 57.53 63.33 57.27 64.56 C 59.05 63.61 60.82 62.65 62.57 61.66 C 61.07 61.39 59.56 61.13 58.06 60.87 M 46.43 75.72 C 51.13 84.56 62.60 89.38 72.00 85.03 C 76.27 84.00 77.36 79.33 78.53 75.72 C 72.47 73.13 68.00 68.17 62.70 64.44 C 55.19 63.89 52.43 72.72 46.43 75.72 Z" />
</g>
<g id="#00e436ff">
<path fill="#00e436" opacity="1.00" d=" M 100.30 9.15 C 106.80 8.33 113.33 9.64 119.11 12.62 C 119.08 13.54 119.02 15.36 118.99 16.27 C 113.30 17.71 107.47 18.59 101.91 20.49 C 99.53 21.32 97.00 20.71 94.58 20.48 C 96.12 16.62 96.56 11.63 100.30 9.15 Z" />
</g>
<g id="#fff1e8ff">
<path fill="#fff1e8" opacity="1.00" d=" M 15.20 12.57 C 19.53 15.45 23.69 18.62 27.13 22.55 C 24.15 25.18 20.29 25.44 16.57 24.62 C 13.58 28.54 11.04 33.46 5.41 33.99 C 4.52 25.61 11.03 19.07 15.20 12.57 Z" />
</g>
<g id="#ff004dff">
<path fill="#ff004d" opacity="1.00" d=" M 57.46 15.58 C 70.13 14.91 82.70 17.88 94.76 21.51 C 100.84 23.37 107.35 27.38 109.16 33.86 C 111.16 43.29 107.83 52.64 107.44 62.05 C 107.02 72.28 104.69 82.36 100.94 91.86 C 98.75 97.18 95.25 102.97 89.14 104.18 C 72.14 106.40 54.53 105.16 38.26 99.55 C 28.70 94.88 17.70 87.19 17.62 75.35 C 17.03 63.66 14.94 51.61 18.24 40.11 C 19.27 34.25 21.24 27.94 26.46 24.48 C 35.29 17.80 46.77 16.61 57.46 15.58 M 30.23 29.08 C 26.61 32.68 23.85 37.23 22.84 42.29 C 28.72 44.03 34.88 44.04 40.95 44.32 C 41.54 40.69 42.08 37.05 42.56 33.41 C 38.54 31.87 34.73 28.93 30.23 29.08 M 92.29 31.28 C 87.51 33.61 87.63 40.13 86.00 44.39 C 89.32 45.90 92.45 48.11 96.12 48.69 C 101.28 48.90 107.11 44.10 104.82 38.36 C 101.75 34.75 97.41 30.72 92.29 31.28 M 39.54 50.45 C 34.55 52.65 29.04 52.62 23.72 53.20 C 35.35 55.69 48.05 49.70 53.77 39.30 C 49.39 43.46 44.82 47.45 39.54 50.45 M 73.64 42.01 C 78.82 51.44 89.97 55.87 100.09 57.55 C 90.29 54.31 81.17 49.07 73.64 42.01 M 55.94 53.33 C 50.10 56.43 44.06 60.01 40.95 66.15 C 40.49 71.94 44.81 75.95 47.86 80.23 C 54.50 88.28 66.86 90.16 75.70 84.69 C 79.26 82.19 78.28 77.06 78.88 73.41 C 81.30 72.17 83.68 70.87 86.06 69.54 C 83.92 62.36 77.40 57.71 70.64 55.31 C 65.99 53.82 60.90 50.45 55.94 53.33 Z" />
</g>
<g id="#29adffff">
<path fill="#29adff" opacity="1.00" d=" M 32.12 30.17 C 35.16 31.69 38.17 33.27 41.20 34.83 C 40.74 37.70 40.29 40.57 39.85 43.44 C 34.52 42.89 29.09 42.71 23.94 41.11 C 26.31 37.21 29.42 33.84 32.12 30.17 M 29.54 34.12 C 28.93 35.90 28.32 37.69 27.71 39.47 C 29.83 40.04 31.95 40.63 34.14 40.90 C 36.52 37.15 32.37 35.48 29.54 34.12 Z" />
<path fill="#29adff" opacity="1.00" d=" M 91.36 32.05 C 96.10 33.02 100.95 35.19 103.73 39.32 C 105.08 42.77 101.89 45.89 98.89 46.96 C 94.74 48.61 90.99 44.86 87.40 43.43 C 88.56 39.58 89.88 35.78 91.36 32.05 M 92.11 41.11 C 94.25 42.46 96.49 43.68 98.78 44.77 C 98.55 42.91 98.11 39.17 97.88 37.30 C 95.91 38.50 93.98 39.77 92.11 41.11 Z" />
</g>
<g id="#83769cff">
<path fill="#83769c" opacity="1.00" d=" M 30.32 35.58 C 31.65 36.61 32.98 37.66 34.30 38.71 C 32.84 38.85 31.37 38.98 29.91 39.11 C 30.01 38.23 30.21 36.47 30.32 35.58 Z" />
<path fill="#83769c" opacity="1.00" d=" M 97.29 43.77 C 96.71 42.05 96.26 40.30 95.97 38.51 C 96.46 40.25 96.90 42.01 97.29 43.77 Z" />
</g>
<g id="#c2c3c7ff">
<path fill="#c2c3c7" opacity="1.00" d=" M 56.08 52.53 C 59.17 53.09 62.28 53.72 65.31 54.59 C 64.20 56.42 63.09 58.25 61.98 60.08 C 59.58 59.70 57.18 59.33 54.79 58.97 C 55.20 56.82 55.63 54.68 56.08 52.53 Z" />
</g>
<g id="#ffccaaff">
<path fill="#ffccaa" opacity="1.00" d=" M 65.73 55.31 C 72.96 57.31 82.06 60.77 84.12 68.75 C 81.40 71.11 77.59 73.02 73.93 72.11 C 69.38 70.12 66.04 65.96 63.96 61.55 C 63.76 59.38 65.15 57.35 65.73 55.31 Z" />
<path fill="#ffccaa" opacity="1.00" d=" M 52.13 56.75 C 53.72 58.36 55.32 59.95 56.96 61.50 C 54.52 65.10 53.01 69.71 49.23 72.13 C 46.86 73.29 44.07 72.85 41.63 72.18 C 40.99 65.07 47.14 60.48 52.13 56.75 Z" />
</g>
<g id="#ab5236ff">
<path fill="#ab5236" opacity="1.00" d=" M 46.43 75.72 C 52.43 72.72 55.19 63.89 62.70 64.44 C 68.00 68.17 72.47 73.13 78.53 75.72 C 77.36 79.33 76.27 84.00 72.00 85.03 C 62.60 89.38 51.13 84.56 46.43 75.72 Z" />
</g>
</svg>
