<?xml version="1.0" encoding="UTF-8" ?>
<!DOCTYPE svg PUBLIC "-//W3C//DTD SVG 1.1//EN" "http://www.w3.org/Graphics/SVG/1.1/DTD/svg11.dtd">
<svg width="120pt" height="120pt" viewBox="0 0 120 120" version="1.1" xmlns="http://www.w3.org/2000/svg">
<g id="#000000ff">
<path fill="#000000" opacity="1.00" d=" M 49.74 13.62 C 60.01 5.92 74.80 6.76 85.20 13.75 C 94.97 18.86 98.21 30.79 98.73 41.04 C 99.55 65.21 102.93 89.20 103.82 113.37 C 95.13 115.71 86.46 118.14 77.65 120.00 L 76.01 120.00 C 66.45 117.11 54.63 113.35 45.79 120.00 L 45.68 120.00 C 40.51 110.57 28.20 110.28 19.01 107.35 C 23.09 94.45 21.41 80.64 24.37 67.52 C 26.89 52.78 33.99 39.51 39.69 25.85 C 41.63 20.81 44.94 16.26 49.74 13.62 M 59.39 10.35 C 54.46 11.34 50.58 14.78 46.64 17.65 C 42.80 20.50 41.58 25.36 39.59 29.46 C 33.11 44.31 26.18 59.21 23.72 75.37 C 22.58 85.76 23.53 96.57 20.30 106.65 C 28.43 108.25 36.26 110.95 44.18 113.31 C 45.59 103.92 45.78 94.44 45.43 84.98 C 44.38 79.15 49.00 73.99 54.10 72.14 C 63.30 70.39 73.20 71.12 81.61 75.46 C 86.20 78.79 83.78 84.89 82.95 89.51 C 81.51 98.74 81.41 108.14 80.06 117.39 C 87.82 116.18 95.41 114.18 102.96 112.08 C 101.06 95.04 100.18 77.91 98.39 60.86 C 97.47 46.45 99.67 29.59 88.93 18.11 C 80.78 11.61 69.76 7.13 59.39 10.35 M 58.99 72.83 C 60.05 79.11 66.61 80.13 71.86 80.63 C 71.21 79.06 70.57 77.48 69.93 75.91 C 71.26 76.65 72.59 77.41 73.91 78.16 C 74.43 76.93 74.95 75.70 75.46 74.47 C 70.19 72.31 64.57 72.20 58.99 72.83 M 44.93 86.30 C 51.43 89.10 58.53 86.62 63.99 82.73 C 66.81 89.42 75.26 88.30 81.11 89.58 C 82.06 87.00 82.97 84.40 83.83 81.78 C 82.75 80.28 81.68 78.75 80.83 77.11 C 79.74 76.31 78.64 75.53 77.55 74.76 C 76.43 76.25 75.38 77.81 74.10 79.17 C 71.36 82.48 66.57 80.83 62.92 80.14 C 59.28 79.38 58.59 75.15 57.40 72.25 C 50.96 74.24 46.34 79.76 44.93 86.30 M 62.28 85.27 C 60.81 86.52 59.35 87.77 57.89 89.02 C 61.27 89.08 64.65 89.16 68.04 89.10 C 66.11 87.83 64.19 86.56 62.28 85.27 M 47.13 89.02 C 46.49 99.20 45.30 109.37 45.31 119.59 C 52.24 110.83 57.80 100.58 57.57 89.07 C 54.96 89.06 49.74 89.03 47.13 89.02 M 69.79 88.98 C 70.99 99.14 68.36 112.07 76.98 119.75 C 81.51 110.61 81.10 100.08 81.19 90.17 C 77.39 89.80 73.59 89.41 69.79 88.98 M 57.28 90.61 C 59.19 91.65 61.08 92.85 63.23 93.33 C 65.58 93.21 67.65 91.87 69.73 90.89 C 65.59 90.56 61.43 90.48 57.28 90.61 M 58.32 93.76 C 57.75 101.37 54.60 108.31 50.92 114.86 C 57.63 115.31 64.34 115.90 71.06 116.15 C 69.89 108.75 68.98 101.30 68.76 93.80 C 65.29 94.26 61.78 94.26 58.32 93.76 Z" />
<path fill="#000000" opacity="1.00" d=" M 45.23 24.89 C 47.24 24.00 47.88 26.89 45.77 27.11 C 43.76 28.00 43.12 25.11 45.23 24.89 Z" />
<path fill="#000000" opacity="1.00" d=" M 82.65 25.46 C 85.53 25.80 88.43 26.18 91.29 26.73 C 88.39 26.45 85.51 26.00 82.65 25.46 Z" />
<path fill="#000000" opacity="1.00" d=" M 39.92 37.90 C 39.08 33.03 44.97 33.49 48.25 33.20 C 47.78 35.04 46.82 38.72 46.34 40.56 C 46.38 38.25 46.39 35.95 46.37 33.64 C 44.51 34.43 42.66 35.24 40.82 36.07 C 42.34 37.37 43.89 38.63 45.47 39.87 C 43.56 39.41 41.62 38.92 39.92 37.90 Z" />
<path fill="#000000" opacity="1.00" d=" M 84.12 34.73 C 87.12 34.80 90.11 35.11 93.08 35.52 C 93.02 37.31 92.96 39.10 92.90 40.89 C 88.03 41.67 85.15 38.86 84.12 34.73 M 85.96 35.67 C 86.11 36.31 86.41 37.58 86.56 38.22 C 88.54 38.09 90.52 38.03 92.50 38.00 C 90.35 37.18 88.10 36.41 85.96 35.67 Z" />
<path fill="#000000" opacity="1.00" d=" M 43.40 36.15 C 44.80 35.71 45.29 36.20 44.85 37.60 C 43.45 38.03 42.97 37.55 43.40 36.15 Z" />
<path fill="#000000" opacity="1.00" d=" M 62.17 75.17 C 63.80 74.65 64.35 75.20 63.83 76.83 C 62.20 77.35 61.65 76.80 62.17 75.17 Z" />
<path fill="#000000" opacity="1.00" d=" M 50.14 78.11 C 51.44 78.78 51.43 79.46 50.11 80.14 C 48.81 79.47 48.82 78.80 50.14 78.11 Z" />
<path fill="#000000" opacity="1.00" d=" M 76.30 82.95 C 74.90 83.19 74.34 80.76 75.81 80.53 C 77.20 80.33 77.69 82.63 76.30 82.95 Z" />
<path fill="#000000" opacity="1.00" d=" M 78.54 80.27 C 79.41 79.13 81.38 80.59 80.46 81.73 C 79.58 82.87 77.62 81.41 78.54 80.27 Z" />
<path fill="#000000" opacity="1.00" d=" M 69.15 82.40 C 73.14 81.58 68.30 86.38 69.15 82.40 Z" />
<path fill="#000000" opacity="1.00" d=" M 72.40 83.77 C 73.51 82.76 75.84 84.38 75.08 85.75 C 73.93 86.92 71.47 85.23 72.40 83.77 Z" />
<path fill="#000000" opacity="1.00" d=" M 76.30 82.95 C 77.25 81.95 79.13 83.44 78.25 84.56 C 77.30 85.61 75.45 84.07 76.30 82.95 Z" />
<path fill="#000000" opacity="1.00" d=" M 51.58 84.17 C 52.24 83.26 54.27 83.40 54.19 84.76 C 53.94 86.57 50.33 86.01 51.58 84.17 Z" />
<path fill="#000000" opacity="1.00" d=" M 77.15 86.40 C 81.14 85.58 76.30 90.38 77.15 86.40 Z" />
</g>
<g id="#83769cff">
<path fill="#83769c" opacity="1.00" d=" M 59.39 10.35 C 69.76 7.13 80.78 11.61 88.93 18.11 C 99.67 29.59 97.47 46.45 98.39 60.86 C 100.18 77.91 101.06 95.04 102.96 112.08 C 95.41 114.18 87.82 116.18 80.06 117.39 C 81.41 108.14 81.51 98.74 82.95 89.51 C 83.78 84.89 86.20 78.79 81.61 75.46 C 73.20 71.12 63.30 70.39 54.10 72.14 C 49.00 73.99 44.38 79.15 45.43 84.98 C 45.78 94.44 45.59 103.92 44.18 113.31 C 36.26 110.95 28.43 108.25 20.30 106.65 C 23.53 96.57 22.58 85.76 23.72 75.37 C 26.18 59.21 33.11 44.31 39.59 29.46 C 41.58 25.36 42.80 20.50 46.64 17.65 C 50.58 14.78 54.46 11.34 59.39 10.35 M 45.23 24.89 C 43.12 25.11 43.76 28.00 45.77 27.11 C 47.88 26.89 47.24 24.00 45.23 24.89 M 82.65 25.46 C 85.51 26.00 88.39 26.45 91.29 26.73 C 88.43 26.18 85.53 25.80 82.65 25.46 M 39.92 37.90 C 41.62 38.92 43.56 39.41 45.47 39.87 L 46.34 40.56 C 46.82 38.72 47.78 35.04 48.25 33.20 C 44.97 33.49 39.08 33.03 39.92 37.90 M 84.12 34.73 C 85.15 38.86 88.03 41.67 92.90 40.89 C 92.96 39.10 93.02 37.31 93.08 35.52 C 90.11 35.11 87.12 34.80 84.12 34.73 Z" />
<path fill="#83769c" opacity="1.00" d=" M 58.32 93.76 C 61.78 94.26 65.29 94.26 68.76 93.80 C 68.98 101.30 69.89 108.75 71.06 116.15 C 64.34 115.90 57.63 115.31 50.92 114.86 C 54.60 108.31 57.75 101.37 58.32 93.76 Z" />
</g>
<g id="#fff1e8ff">
<path fill="#fff1e8" opacity="1.00" d=" M 40.82 36.07 C 42.66 35.24 44.51 34.43 46.37 33.64 C 46.39 35.95 46.38 38.25 46.34 40.56 L 45.47 39.87 C 43.89 38.63 42.34 37.37 40.82 36.07 M 43.40 36.15 C 42.97 37.55 43.45 38.03 44.85 37.60 C 45.29 36.20 44.80 35.71 43.40 36.15 Z" />
<path fill="#fff1e8" opacity="1.00" d=" M 85.96 35.67 C 88.10 36.41 90.35 37.18 92.50 38.00 C 90.52 38.03 88.54 38.09 86.56 38.22 C 86.41 37.58 86.11 36.31 85.96 35.67 Z" />
<path fill="#fff1e8" opacity="1.00" d=" M 47.13 89.02 C 49.74 89.03 54.96 89.06 57.57 89.07 C 57.80 100.58 52.24 110.83 45.31 119.59 C 45.30 109.37 46.49 99.20 47.13 89.02 Z" />
<path fill="#fff1e8" opacity="1.00" d=" M 69.79 88.98 C 73.59 89.41 77.39 89.80 81.19 90.17 C 81.10 100.08 81.51 110.61 76.98 119.75 C 68.36 112.07 70.99 99.14 69.79 88.98 Z" />
</g>
<g id="#1d2b53ff">
<path fill="#1d2b53" opacity="1.00" d=" M 58.99 72.83 C 64.57 72.20 70.19 72.31 75.46 74.47 C 74.95 75.70 74.43 76.93 73.91 78.16 C 72.59 77.41 71.26 76.65 69.93 75.91 C 70.57 77.48 71.21 79.06 71.86 80.63 C 66.61 80.13 60.05 79.11 58.99 72.83 M 62.17 75.17 C 61.65 76.80 62.20 77.35 63.83 76.83 C 64.35 75.20 63.80 74.65 62.17 75.17 Z" />
</g>
<g id="#ffccaaff">
<path fill="#ffccaa" opacity="1.00" d=" M 44.93 86.30 C 46.34 79.76 50.96 74.24 57.40 72.25 C 58.59 75.15 59.28 79.38 62.92 80.14 C 66.57 80.83 71.36 82.48 74.10 79.17 C 75.38 77.81 76.43 76.25 77.55 74.76 C 78.64 75.53 79.74 76.31 80.83 77.11 C 81.68 78.75 82.75 80.28 83.83 81.78 C 82.97 84.40 82.06 87.00 81.11 89.58 C 75.26 88.30 66.81 89.42 63.99 82.73 C 58.53 86.62 51.43 89.10 44.93 86.30 M 50.14 78.11 C 48.82 78.80 48.81 79.47 50.11 80.14 C 51.43 79.46 51.44 78.78 50.14 78.11 M 76.30 82.95 C 75.45 84.07 77.30 85.61 78.25 84.56 C 79.13 83.44 77.25 81.95 76.30 82.95 C 77.69 82.63 77.20 80.33 75.81 80.53 C 74.34 80.76 74.90 83.19 76.30 82.95 M 78.54 80.27 C 77.62 81.41 79.58 82.87 80.46 81.73 C 81.38 80.59 79.41 79.13 78.54 80.27 M 69.15 82.40 C 68.30 86.38 73.14 81.58 69.15 82.40 M 72.40 83.77 C 71.47 85.23 73.93 86.92 75.08 85.75 C 75.84 84.38 73.51 82.76 72.40 83.77 M 51.58 84.17 C 50.33 86.01 53.94 86.57 54.19 84.76 C 54.27 83.40 52.24 83.26 51.58 84.17 M 77.15 86.40 C 76.30 90.38 81.14 85.58 77.15 86.40 Z" />
<path fill="#ffccaa" opacity="1.00" d=" M 57.28 90.61 C 61.43 90.48 65.59 90.56 69.73 90.89 C 67.65 91.87 65.58 93.21 63.23 93.33 C 61.08 92.85 59.19 91.65 57.28 90.61 Z" />
</g>
<g id="#ff004dff">
<path fill="#ff004d" opacity="1.00" d=" M 62.28 85.27 C 64.19 86.56 66.11 87.83 68.04 89.10 C 64.65 89.16 61.27 89.08 57.89 89.02 C 59.35 87.77 60.81 86.52 62.28 85.27 Z" />
</g>
</svg>
