<?xml version="1.0" encoding="UTF-8" ?>
<!DOCTYPE svg PUBLIC "-//W3C//DTD SVG 1.1//EN" "http://www.w3.org/Graphics/SVG/1.1/DTD/svg11.dtd">
<svg width="120pt" height="120pt" viewBox="0 0 120 120" version="1.1" xmlns="http://www.w3.org/2000/svg">
<g id="#000000ff">
<path fill="#000000" opacity="1.00" d=" M 34.83 7.21 C 48.28 -3.45 66.74 1.25 80.68 8.33 C 84.76 5.22 89.47 3.09 94.69 2.77 C 94.87 11.57 96.68 21.25 91.35 28.96 C 97.44 39.40 94.42 52.29 89.94 62.79 C 86.18 73.13 80.61 84.65 85.20 95.72 C 88.48 102.87 91.89 110.31 97.54 115.93 C 86.02 114.78 74.53 116.78 63.01 116.81 C 48.46 117.40 33.72 116.00 19.31 118.53 C 27.19 108.16 31.20 95.48 32.22 82.59 C 32.46 76.34 29.77 70.56 28.68 64.52 C 26.21 53.27 28.21 41.41 24.53 30.39 C 21.37 21.29 19.86 11.75 18.63 2.23 C 24.09 3.68 29.58 5.11 34.83 7.21 M 47.44 2.56 C 41.68 3.75 36.72 7.66 32.56 11.58 C 25.45 24.18 27.42 39.23 28.23 52.98 C 28.58 62.44 31.32 71.57 34.69 80.33 C 36.56 85.03 36.54 90.18 38.24 94.93 C 38.73 100.47 43.99 103.33 48.33 105.64 C 54.43 107.09 61.04 106.96 67.01 104.94 C 74.30 102.56 77.16 94.72 79.34 88.06 C 82.33 80.05 85.48 72.11 88.12 63.97 C 90.67 57.93 93.10 51.68 93.24 45.02 C 95.14 37.39 90.30 30.72 87.93 23.89 C 84.89 17.48 81.89 10.21 74.95 7.13 C 66.43 3.21 56.81 1.12 47.44 2.56 M 19.70 3.48 C 21.12 12.27 22.68 21.06 25.23 29.60 C 27.68 22.19 29.72 14.62 32.91 7.47 C 28.72 5.53 24.23 4.35 19.70 3.48 M 81.64 9.54 C 85.12 15.17 88.26 21.01 90.94 27.06 C 95.46 19.90 93.53 11.12 93.27 3.14 C 89.04 4.58 85.21 6.90 81.64 9.54 M 33.54 83.82 C 31.56 94.96 29.17 106.28 23.08 116.00 C 46.48 116.14 69.94 116.41 93.24 113.84 C 88.22 105.06 82.92 96.16 81.56 85.94 C 79.16 93.53 76.34 103.03 68.01 105.96 C 60.81 108.78 52.49 108.27 45.34 105.64 C 36.99 101.67 36.06 91.69 33.54 83.82 Z" />
<path fill="#000000" opacity="1.00" d=" M 66.46 29.33 C 67.17 25.33 69.41 21.85 71.78 18.64 C 65.86 30.64 66.03 44.56 68.48 57.46 C 70.03 65.46 72.25 73.32 73.41 81.40 C 68.22 64.60 64.56 47.01 66.46 29.33 Z" />
<path fill="#000000" opacity="1.00" d=" M 50.38 50.39 C 48.21 41.14 44.48 32.27 43.01 22.84 C 46.09 33.47 51.42 43.72 51.82 54.96 C 51.25 63.18 49.02 72.10 42.41 77.61 C 47.53 69.55 51.33 60.10 50.38 50.39 Z" />
<path fill="#000000" opacity="1.00" d=" M 70.90 36.54 C 74.81 35.76 80.06 32.02 83.35 35.66 C 85.76 37.67 84.03 40.99 83.79 43.57 C 79.49 43.01 75.21 42.28 70.98 41.35 C 70.95 39.74 70.92 38.14 70.90 36.54 M 70.75 38.66 C 74.12 40.53 77.83 41.65 81.54 42.64 C 82.58 41.20 83.62 39.76 84.66 38.32 C 82.84 37.20 81.11 35.78 78.99 35.28 C 76.18 36.22 73.43 37.35 70.75 38.66 Z" />
<path fill="#000000" opacity="1.00" d=" M 31.97 38.21 C 34.98 34.25 40.08 36.42 44.03 37.12 C 42.08 39.65 42.00 47.44 36.10 43.84 C 33.20 43.74 31.87 40.77 31.97 38.21 M 35.23 36.75 C 34.34 38.03 33.44 39.30 32.56 40.58 C 34.59 41.52 36.62 42.58 38.86 42.93 C 40.51 41.80 41.70 40.15 42.99 38.64 C 40.41 37.98 37.82 37.33 35.23 36.75 Z" />
<path fill="#000000" opacity="1.00" d=" M 75.64 39.35 C 77.27 38.61 78.94 37.97 80.63 37.40 C 79.03 38.19 77.36 38.85 75.64 39.35 Z" />
<path fill="#000000" opacity="1.00" d=" M 36.19 39.66 C 36.64 38.27 39.21 38.75 38.83 40.29 C 38.46 41.86 35.68 41.28 36.19 39.66 Z" />
<path fill="#000000" opacity="1.00" d=" M 32.07 50.68 C 38.31 48.91 43.02 44.29 46.80 39.21 C 44.83 45.77 39.33 51.13 32.07 50.68 Z" />
<path fill="#000000" opacity="1.00" d=" M 68.15 41.28 C 70.26 43.66 72.34 46.13 75.01 47.90 C 79.34 49.32 83.97 48.20 88.41 47.98 C 83.75 49.27 78.66 50.69 73.92 49.11 C 70.50 47.98 69.42 44.25 68.15 41.28 Z" />
<path fill="#000000" opacity="1.00" d=" M 49.83 76.76 C 54.49 75.97 59.59 75.22 64.19 76.73 C 69.02 78.09 71.20 85.79 66.90 88.90 C 65.86 89.31 64.88 89.85 63.97 90.49 C 61.33 90.88 58.69 91.21 56.05 91.49 C 56.03 92.12 56.01 93.37 55.99 94.00 C 62.49 94.33 69.00 94.64 75.49 94.22 C 64.00 96.14 51.15 97.17 40.42 91.79 C 45.28 92.60 50.12 93.51 55.01 94.19 C 54.94 92.97 54.87 91.75 54.80 90.54 C 51.23 88.93 47.15 88.21 43.97 85.82 C 43.72 81.99 45.74 77.54 49.83 76.76 M 51.62 77.56 C 47.91 78.40 46.10 82.12 44.10 84.97 C 50.06 87.21 56.04 90.50 62.62 89.63 C 66.97 88.56 66.45 82.95 67.54 79.55 C 62.49 77.69 56.99 76.45 51.62 77.56 Z" />
<path fill="#000000" opacity="1.00" d=" M 49.41 85.80 C 50.39 83.99 51.39 82.19 52.44 80.42 C 52.59 82.14 52.73 83.85 52.85 85.57 C 51.99 85.62 50.27 85.74 49.41 85.80 Z" />
<path fill="#000000" opacity="1.00" d=" M 62.51 80.47 C 63.23 82.65 63.85 84.86 64.45 87.09 C 63.14 86.70 61.83 86.31 60.53 85.92 C 61.16 84.09 61.82 82.27 62.51 80.47 Z" />
</g>
<g id="#ab5236ff">
<path fill="#ab5236" opacity="1.00" d=" M 47.44 2.56 C 56.81 1.12 66.43 3.21 74.95 7.13 C 81.89 10.21 84.89 17.48 87.93 23.89 C 90.30 30.72 95.14 37.39 93.24 45.02 C 93.10 51.68 90.67 57.93 88.12 63.97 C 85.48 72.11 82.33 80.05 79.34 88.06 C 77.16 94.72 74.30 102.56 67.01 104.94 C 61.04 106.96 54.43 107.09 48.33 105.64 C 43.99 103.33 38.73 100.47 38.24 94.93 C 36.54 90.18 36.56 85.03 34.69 80.33 C 31.32 71.57 28.58 62.44 28.23 52.98 C 27.42 39.23 25.45 24.18 32.56 11.58 C 36.72 7.66 41.68 3.75 47.44 2.56 M 66.46 29.33 C 64.56 47.01 68.22 64.60 73.41 81.40 C 72.25 73.32 70.03 65.46 68.48 57.46 C 66.03 44.56 65.86 30.64 71.78 18.64 C 69.41 21.85 67.17 25.33 66.46 29.33 M 50.38 50.39 C 51.33 60.10 47.53 69.55 42.41 77.61 C 49.02 72.10 51.25 63.18 51.82 54.96 C 51.42 43.72 46.09 33.47 43.01 22.84 C 44.48 32.27 48.21 41.14 50.38 50.39 M 70.90 36.54 C 70.92 38.14 70.95 39.74 70.98 41.35 C 75.21 42.28 79.49 43.01 83.79 43.57 C 84.03 40.99 85.76 37.67 83.35 35.66 C 80.06 32.02 74.81 35.76 70.90 36.54 M 31.97 38.21 C 31.87 40.77 33.20 43.74 36.10 43.84 C 42.00 47.44 42.08 39.65 44.03 37.12 C 40.08 36.42 34.98 34.25 31.97 38.21 M 32.07 50.68 C 39.33 51.13 44.83 45.77 46.80 39.21 C 43.02 44.29 38.31 48.91 32.07 50.68 M 68.15 41.28 C 69.42 44.25 70.50 47.98 73.92 49.11 C 78.66 50.69 83.75 49.27 88.41 47.98 C 83.97 48.20 79.34 49.32 75.01 47.90 C 72.34 46.13 70.26 43.66 68.15 41.28 M 49.83 76.76 C 45.74 77.54 43.72 81.99 43.97 85.82 C 47.15 88.21 51.23 88.93 54.80 90.54 C 54.87 91.75 54.94 92.97 55.01 94.19 C 50.12 93.51 45.28 92.60 40.42 91.79 C 51.15 97.17 64.00 96.14 75.49 94.22 C 69.00 94.64 62.49 94.33 55.99 94.00 C 56.01 93.37 56.03 92.12 56.05 91.49 C 58.69 91.21 61.33 90.88 63.97 90.49 C 64.89 92.18 67.92 90.62 66.90 88.90 C 71.20 85.79 69.02 78.09 64.19 76.73 C 59.59 75.22 54.49 75.97 49.83 76.76 Z" />
</g>
<g id="#ffa300ff">
<path fill="#ffa300" opacity="1.00" d=" M 19.70 3.48 C 24.23 4.35 28.72 5.53 32.91 7.47 C 29.72 14.62 27.68 22.19 25.23 29.60 C 22.68 21.06 21.12 12.27 19.70 3.48 Z" />
<path fill="#ffa300" opacity="1.00" d=" M 81.64 9.54 C 85.21 6.90 89.04 4.58 93.27 3.14 C 93.53 11.12 95.46 19.90 90.94 27.06 C 88.26 21.01 85.12 15.17 81.64 9.54 Z" />
<path fill="#ffa300" opacity="1.00" d=" M 33.54 83.82 C 36.06 91.69 36.99 101.67 45.34 105.64 C 52.49 108.27 60.81 108.78 68.01 105.96 C 76.34 103.03 79.16 93.53 81.56 85.94 C 82.92 96.16 88.22 105.06 93.24 113.84 C 69.94 116.41 46.48 116.14 23.08 116.00 C 29.17 106.28 31.56 94.96 33.54 83.82 Z" />
</g>
<g id="#fff1e8ff">
<path fill="#fff1e8" opacity="1.00" d=" M 70.75 38.66 C 73.43 37.35 76.18 36.22 78.99 35.28 C 81.11 35.78 82.84 37.20 84.66 38.32 C 83.62 39.76 82.58 41.20 81.54 42.64 C 77.83 41.65 74.12 40.53 70.75 38.66 M 75.64 39.35 C 77.36 38.85 79.03 38.19 80.63 37.40 C 78.94 37.97 77.27 38.61 75.64 39.35 Z" />
<path fill="#fff1e8" opacity="1.00" d=" M 35.23 36.75 C 37.82 37.33 40.41 37.98 42.99 38.64 C 41.70 40.15 40.51 41.80 38.86 42.93 C 36.62 42.58 34.59 41.52 32.56 40.58 C 33.44 39.30 34.34 38.03 35.23 36.75 M 36.19 39.66 C 35.68 41.28 38.46 41.86 38.83 40.29 C 39.21 38.75 36.64 38.27 36.19 39.66 Z" />
</g>
<g id="#273a46ff">
<path fill="#273a46" opacity="1.00" d=" M 51.62 77.56 C 56.99 76.45 62.49 77.69 67.54 79.55 C 66.45 82.95 66.97 88.56 62.62 89.63 C 56.04 90.50 50.06 87.21 44.10 84.97 C 46.10 82.12 47.91 78.40 51.62 77.56 M 49.41 85.80 C 50.27 85.74 51.99 85.62 52.85 85.57 C 52.73 83.85 52.59 82.14 52.44 80.42 C 51.39 82.19 50.39 83.99 49.41 85.80 M 62.51 80.47 C 61.82 82.27 61.16 84.09 60.53 85.92 C 61.83 86.31 63.14 86.70 64.45 87.09 C 63.85 84.86 63.23 82.65 62.51 80.47 Z" />
<path fill="#273a46" opacity="1.00" d=" M 63.97 90.49 C 64.88 89.85 65.86 89.31 66.90 88.90 C 67.92 90.62 64.89 92.18 63.97 90.49 Z" />
</g>
</svg>
