<?xml version="1.0" encoding="UTF-8" ?>
<!DOCTYPE svg PUBLIC "-//W3C//DTD SVG 1.1//EN" "http://www.w3.org/Graphics/SVG/1.1/DTD/svg11.dtd">
<svg width="200pt" height="200pt" viewBox="0 0 200 200" version="1.1" xmlns="http://www.w3.org/2000/svg">
<g id="#fdfdfcff">
<path fill="#fdfdfc" opacity="1.00" d=" M 0.00 0.00 L 200.00 0.00 L 200.00 101.12 C 193.88 103.15 187.33 101.24 181.06 102.24 C 175.18 103.26 169.22 103.07 163.29 102.97 C 163.96 103.42 164.64 103.86 165.33 104.30 C 170.39 103.93 175.47 104.15 180.50 103.42 C 179.23 107.68 175.89 111.37 175.32 115.73 C 175.57 116.06 176.06 116.70 176.30 117.03 C 177.83 112.19 179.85 107.52 182.06 102.96 C 187.08 102.99 192.11 103.00 197.14 103.02 C 196.25 106.82 193.49 111.31 196.78 114.73 C 196.57 112.96 196.29 111.21 196.02 109.45 C 196.50 110.21 197.48 111.73 197.97 112.49 C 198.45 110.16 198.82 107.81 198.98 105.43 C 198.44 106.48 197.34 108.59 196.80 109.64 C 197.24 107.22 197.83 104.83 198.50 102.46 C 199.02 104.02 199.52 105.58 200.00 107.16 L 200.00 200.00 L 0.00 200.00 L 0.00 0.00 M 16.04 90.80 C 18.00 95.99 16.59 101.68 17.02 107.09 L 18.34 107.06 C 16.99 108.72 16.10 110.68 15.05 112.53 C 15.03 114.21 15.01 115.89 15.00 117.58 C 16.35 118.85 17.73 120.08 18.92 121.51 C 19.31 122.88 17.67 123.53 17.04 124.50 C 17.67 125.49 18.29 126.49 18.92 127.49 C 18.97 127.97 19.08 128.94 19.14 129.42 C 21.77 132.44 22.57 136.69 25.75 139.27 C 28.57 141.54 30.35 144.67 32.23 147.70 C 35.13 152.38 39.80 155.56 42.82 160.14 C 44.34 162.35 47.04 163.27 48.71 165.32 C 52.39 170.54 58.37 173.34 63.46 176.95 C 64.45 176.99 65.44 177.03 66.44 177.08 C 67.72 178.11 69.06 179.05 70.43 179.97 C 71.44 180.02 72.45 180.08 73.47 180.14 C 74.81 180.71 76.17 181.25 77.53 181.81 C 77.99 181.94 78.91 182.18 79.37 182.31 C 81.60 183.15 84.02 183.03 86.36 183.20 C 87.69 183.63 89.04 184.02 90.38 184.43 C 92.65 185.02 95.01 185.07 97.33 185.22 C 98.95 185.86 100.68 186.04 102.37 186.33 C 104.61 187.13 107.01 187.03 109.34 187.21 C 110.49 187.75 111.69 188.02 112.96 188.02 C 120.42 188.12 127.89 187.80 135.35 188.16 C 137.70 189.45 140.47 188.93 143.03 189.05 C 145.90 188.89 148.99 189.54 151.66 188.16 C 154.96 187.94 158.27 187.98 161.58 188.01 C 165.66 186.11 167.47 181.97 169.80 178.44 C 169.93 177.98 170.20 177.05 170.33 176.58 C 170.80 174.50 171.16 172.38 171.84 170.35 C 172.24 165.13 171.77 159.88 172.16 154.66 C 174.08 149.13 172.46 143.03 173.02 137.28 C 174.85 139.46 173.81 142.44 174.02 145.02 C 173.83 148.23 174.58 151.66 173.16 154.68 C 172.49 160.32 173.83 166.13 172.32 171.66 C 172.11 176.79 169.41 181.13 166.74 185.32 C 174.71 182.52 181.10 176.32 185.86 169.50 C 185.97 169.03 186.20 168.09 186.31 167.62 C 186.80 165.99 187.05 164.30 187.34 162.63 C 188.12 160.39 188.05 157.98 188.21 155.65 C 188.64 154.31 189.01 152.96 189.38 151.61 C 189.71 150.28 190.02 148.93 190.34 147.60 C 190.70 146.27 191.03 144.94 191.39 143.62 C 192.13 140.95 193.26 137.02 190.65 135.08 C 185.36 135.17 180.24 133.50 174.94 133.87 C 174.95 134.87 174.98 136.88 174.99 137.89 C 172.78 134.25 174.64 129.69 174.12 125.67 C 172.49 125.91 170.83 126.11 169.30 126.76 C 155.52 127.11 141.72 126.80 127.94 126.90 C 126.68 126.92 125.49 127.20 124.36 127.75 C 116.56 128.04 108.75 127.90 100.96 127.87 C 96.89 127.14 92.80 126.69 88.67 126.76 C 85.85 125.41 82.64 126.03 79.63 125.74 C 78.29 125.27 76.90 124.96 75.52 124.66 C 73.00 123.36 70.44 122.08 67.63 121.53 C 66.24 121.24 64.85 120.97 63.46 120.71 C 62.47 120.17 61.48 119.63 60.48 119.09 C 60.00 118.99 59.04 118.81 58.56 118.72 C 55.46 116.64 51.49 117.21 48.39 115.16 C 47.93 115.04 47.02 114.82 46.57 114.70 C 45.56 114.33 44.54 113.96 43.53 113.59 C 41.64 112.70 39.67 112.01 37.64 111.53 C 37.02 111.37 35.78 111.06 35.16 110.91 C 40.27 109.64 45.56 110.41 50.76 110.12 C 50.82 110.75 50.96 112.02 51.02 112.65 C 51.40 112.07 52.15 110.91 52.52 110.33 C 57.86 109.08 63.32 109.27 68.75 109.03 C 71.43 106.16 71.17 101.80 73.28 98.56 C 74.79 97.67 76.26 96.62 76.69 94.80 C 67.45 95.17 58.20 94.91 48.96 95.04 C 46.26 95.15 43.63 94.50 41.05 93.80 C 41.01 93.26 40.95 92.17 40.91 91.62 C 40.13 92.46 39.34 93.30 38.56 94.14 C 31.10 92.40 23.18 94.00 16.04 90.80 M 84.22 100.22 C 84.82 100.83 84.82 100.83 84.22 100.22 M 160.45 103.98 C 157.00 104.15 153.35 104.33 150.41 102.18 C 144.87 104.26 144.56 110.75 142.69 115.51 C 141.29 117.33 140.26 119.40 139.56 121.59 C 140.07 121.40 141.08 121.02 141.58 120.84 C 143.45 117.81 146.84 114.59 146.17 110.84 L 146.97 111.01 L 147.22 112.67 C 148.60 109.86 149.40 106.83 150.19 103.81 C 153.62 104.84 157.21 105.18 160.78 105.03 C 161.25 106.99 161.77 108.93 162.23 110.89 C 163.99 107.57 161.80 103.98 162.85 100.53 C 162.04 101.67 161.23 102.82 160.45 103.98 M 76.23 107.19 C 75.67 108.17 75.10 109.15 74.53 110.12 C 76.64 108.93 79.05 108.96 81.39 109.02 C 81.02 108.52 80.27 107.50 79.90 106.99 C 80.73 107.06 82.39 107.20 83.21 107.27 L 83.25 105.53 C 80.88 105.93 78.53 106.49 76.23 107.19 M 160.23 107.50 C 159.87 113.12 158.20 118.65 155.59 123.63 C 156.14 123.44 157.24 123.06 157.79 122.87 C 159.01 118.78 160.53 114.81 162.23 110.89 C 161.73 110.05 160.73 108.35 160.23 107.50 M 194.46 112.22 C 194.17 114.90 193.54 117.51 192.84 120.11 C 193.49 121.02 194.19 121.90 194.95 122.74 C 195.12 120.66 195.30 118.57 195.68 116.51 C 195.89 115.00 196.58 112.87 194.46 112.22 M 173.86 116.93 C 173.09 119.14 172.76 121.45 172.72 123.78 C 173.88 122.25 175.32 120.84 176.01 119.01 C 176.46 117.56 174.71 117.42 173.86 116.93 Z" />
<path fill="#fdfdfc" opacity="1.00" d=" M 18.02 92.82 C 23.91 94.44 30.13 93.40 36.01 95.03 C 36.01 99.29 35.99 103.55 35.85 107.81 C 33.86 107.84 31.87 107.89 29.89 107.96 C 29.91 108.14 29.96 108.50 29.98 108.68 C 28.90 108.75 27.82 108.80 26.74 108.81 L 25.41 108.43 L 27.49 108.31 C 28.27 107.89 29.03 107.45 29.77 106.98 C 25.87 106.42 21.94 106.03 18.00 105.88 C 18.00 101.52 18.00 97.17 18.02 92.82 Z" />
<path fill="#fdfdfc" opacity="1.00" d=" M 37.98 99.98 C 36.29 99.37 36.35 94.94 38.43 94.99 C 38.76 96.61 38.07 98.33 37.98 99.98 Z" />
<path fill="#fdfdfc" opacity="1.00" d=" M 40.23 95.05 C 44.10 95.17 47.88 96.44 51.80 96.03 C 52.13 98.23 52.58 100.41 53.04 102.58 C 52.61 101.82 51.75 100.29 51.32 99.52 C 51.03 102.63 50.86 105.75 50.81 108.87 C 46.21 108.77 41.60 108.78 36.99 108.85 C 37.28 105.89 37.68 102.94 37.98 99.98 C 39.07 98.48 39.03 96.45 40.23 95.05 Z" />
<path fill="#fdfdfc" opacity="1.00" d=" M 54.05 95.92 C 60.79 96.08 67.53 95.96 74.27 96.00 C 73.27 97.11 72.27 98.23 71.27 99.35 C 70.49 102.32 69.37 105.18 67.90 107.88 C 62.87 107.47 57.85 107.95 52.94 109.03 C 53.28 104.68 56.09 100.14 54.05 95.92 Z" />
<path fill="#fdfdfc" opacity="1.00" d=" M 21.84 106.97 C 22.40 107.24 23.51 107.78 24.06 108.05 C 23.51 107.78 22.40 107.24 21.84 106.97 Z" />
<path fill="#fdfdfc" opacity="1.00" d=" M 147.27 108.25 C 147.79 108.78 147.79 108.78 147.27 108.25 Z" />
</g>
<g id="#9a97b9ff">
<path fill="#9a97b9" opacity="1.00" d=" M 16.04 90.80 C 23.18 94.00 31.10 92.40 38.56 94.14 C 39.34 93.30 40.13 92.46 40.91 91.62 C 40.95 92.17 41.01 93.26 41.05 93.80 C 43.63 94.50 46.26 95.15 48.96 95.04 C 58.20 94.91 67.45 95.17 76.69 94.80 C 76.26 96.62 74.79 97.67 73.28 98.56 C 71.17 101.80 71.43 106.16 68.75 109.03 C 63.32 109.27 57.86 109.08 52.52 110.33 C 52.15 110.91 51.40 112.07 51.02 112.65 C 50.96 112.02 50.82 110.75 50.76 110.12 C 45.56 110.41 40.27 109.64 35.16 110.91 C 33.59 110.64 32.03 110.33 30.48 109.98 C 30.36 109.65 30.11 109.00 29.98 108.68 C 29.96 108.50 29.91 108.14 29.89 107.96 C 31.87 107.89 33.86 107.84 35.85 107.81 C 35.99 103.55 36.01 99.29 36.01 95.03 C 30.13 93.40 23.91 94.44 18.02 92.82 C 18.00 97.17 18.00 101.52 18.00 105.88 C 21.94 106.03 25.87 106.42 29.77 106.98 C 29.03 107.45 28.27 107.89 27.49 108.31 L 25.41 108.43 C 25.08 108.34 24.40 108.15 24.06 108.05 C 23.51 107.78 22.40 107.24 21.84 106.97 C 20.67 106.99 19.50 107.02 18.34 107.06 L 17.02 107.09 C 16.59 101.68 18.00 95.99 16.04 90.80 M 37.98 99.98 C 38.07 98.33 38.76 96.61 38.43 94.99 C 36.35 94.94 36.29 99.37 37.98 99.98 M 40.23 95.05 C 39.03 96.45 39.07 98.48 37.98 99.98 C 37.68 102.94 37.28 105.89 36.99 108.85 C 41.60 108.78 46.21 108.77 50.81 108.87 C 50.86 105.75 51.03 102.63 51.32 99.52 C 51.75 100.29 52.61 101.82 53.04 102.58 C 52.58 100.41 52.13 98.23 51.80 96.03 C 47.88 96.44 44.10 95.17 40.23 95.05 M 54.05 95.92 C 56.09 100.14 53.28 104.68 52.94 109.03 C 57.85 107.95 62.87 107.47 67.90 107.88 C 69.37 105.18 70.49 102.32 71.27 99.35 C 72.27 98.23 73.27 97.11 74.27 96.00 C 67.53 95.96 60.79 96.08 54.05 95.92 Z" />
<path fill="#9a97b9" opacity="1.00" d=" M 160.45 103.98 C 161.23 102.82 162.04 101.67 162.85 100.53 C 161.80 103.98 163.99 107.57 162.23 110.89 C 161.77 108.93 161.25 106.99 160.78 105.03 C 157.21 105.18 153.62 104.84 150.19 103.81 C 149.40 106.83 148.60 109.86 147.22 112.67 L 146.97 111.01 L 146.17 110.84 C 146.84 114.59 143.45 117.81 141.58 120.84 C 141.08 121.02 140.07 121.40 139.56 121.59 C 140.26 119.40 141.29 117.33 142.69 115.51 C 144.56 110.75 144.87 104.26 150.41 102.18 C 153.35 104.33 157.00 104.15 160.45 103.98 M 147.27 108.25 C 147.79 108.78 147.79 108.78 147.27 108.25 Z" />
<path fill="#9a97b9" opacity="1.00" d=" M 181.06 102.24 C 187.33 101.24 193.88 103.15 200.00 101.12 L 200.00 107.16 C 199.52 105.58 199.02 104.02 198.50 102.46 C 197.83 104.83 197.24 107.22 196.80 109.64 C 197.34 108.59 198.44 106.48 198.98 105.43 C 198.82 107.81 198.45 110.16 197.97 112.49 C 197.48 111.73 196.50 110.21 196.02 109.45 C 196.29 111.21 196.57 112.96 196.78 114.73 C 193.49 111.31 196.25 106.82 197.14 103.02 C 192.11 103.00 187.08 102.99 182.06 102.96 C 179.85 107.52 177.83 112.19 176.30 117.03 C 176.06 116.70 175.57 116.06 175.32 115.73 C 175.89 111.37 179.23 107.68 180.50 103.42 C 175.47 104.15 170.39 103.93 165.33 104.30 C 164.64 103.86 163.96 103.42 163.29 102.97 C 169.22 103.07 175.18 103.26 181.06 102.24 Z" />
<path fill="#9a97b9" opacity="1.00" d=" M 160.23 107.50 C 160.73 108.35 161.73 110.05 162.23 110.89 C 160.53 114.81 159.01 118.78 157.79 122.87 C 157.24 123.06 156.14 123.44 155.59 123.63 C 158.20 118.65 159.87 113.12 160.23 107.50 Z" />
<path fill="#9a97b9" opacity="1.00" d=" M 194.46 112.22 C 196.58 112.87 195.89 115.00 195.68 116.51 C 195.30 118.57 195.12 120.66 194.95 122.74 C 194.19 121.90 193.49 121.02 192.84 120.11 C 193.54 117.51 194.17 114.90 194.46 112.22 Z" />
<path fill="#9a97b9" opacity="1.00" d=" M 173.86 116.93 C 174.71 117.42 176.46 117.56 176.01 119.01 C 175.32 120.84 173.88 122.25 172.72 123.78 C 172.76 121.45 173.09 119.14 173.86 116.93 Z" />
</g>
<g id="#b9451dff">
<path fill="#b9451d" opacity="1.00" d=" M 84.22 100.22 C 84.82 100.83 84.82 100.83 84.22 100.22 Z" />
</g>
<g id="#9c8bdbff">
<path fill="#9c8bdb" opacity="1.00" d=" M 76.23 107.19 C 78.53 106.49 80.88 105.93 83.25 105.53 L 83.21 107.27 C 82.39 107.20 80.73 107.06 79.90 106.99 C 80.27 107.50 81.02 108.52 81.39 109.02 C 79.05 108.96 76.64 108.93 74.53 110.12 C 75.10 109.15 75.67 108.17 76.23 107.19 Z" />
</g>
<g id="#29adffff">
<path fill="#29adff" opacity="1.00" d=" M 18.34 107.06 C 19.50 107.02 20.67 106.99 21.84 106.97 C 22.40 107.24 23.51 107.78 24.06 108.05 C 24.40 108.15 25.08 108.34 25.41 108.43 L 26.74 108.81 C 27.82 108.80 28.90 108.75 29.98 108.68 C 30.11 109.00 30.36 109.65 30.48 109.98 C 32.03 110.33 33.59 110.64 35.16 110.91 C 35.78 111.06 37.02 111.37 37.64 111.53 C 39.67 112.01 41.64 112.70 43.53 113.59 C 44.54 113.96 45.56 114.33 46.57 114.70 C 47.02 114.82 47.93 115.04 48.39 115.16 C 51.49 117.21 55.46 116.64 58.56 118.72 C 59.04 118.81 60.00 118.99 60.48 119.09 C 61.48 119.63 62.47 120.17 63.46 120.71 C 64.85 120.97 66.24 121.24 67.63 121.53 C 70.44 122.08 73.00 123.36 75.52 124.66 C 76.90 124.96 78.29 125.27 79.63 125.74 C 82.64 126.03 85.85 125.41 88.67 126.76 C 92.80 126.69 96.89 127.14 100.96 127.87 C 108.75 127.90 116.56 128.04 124.36 127.75 C 125.49 127.20 126.68 126.92 127.94 126.90 C 141.72 126.80 155.52 127.11 169.30 126.76 C 170.83 126.11 172.49 125.91 174.12 125.67 C 174.64 129.69 172.78 134.25 174.99 137.89 C 174.98 136.88 174.95 134.87 174.94 133.87 C 180.24 133.50 185.36 135.17 190.65 135.08 C 193.26 137.02 192.13 140.95 191.39 143.62 C 191.03 144.94 190.70 146.27 190.34 147.60 C 190.02 148.93 189.71 150.28 189.38 151.61 C 189.01 152.96 188.64 154.31 188.21 155.65 C 188.05 157.98 188.12 160.39 187.34 162.63 C 187.05 164.30 186.80 165.99 186.31 167.62 C 186.20 168.09 185.97 169.03 185.86 169.50 C 181.10 176.32 174.71 182.52 166.74 185.32 C 169.41 181.13 172.11 176.79 172.32 171.66 C 173.83 166.13 172.49 160.32 173.16 154.68 C 174.58 151.66 173.83 148.23 174.02 145.02 C 173.81 142.44 174.85 139.46 173.02 137.28 C 172.46 143.03 174.08 149.13 172.16 154.66 C 171.77 159.88 172.24 165.13 171.84 170.35 C 171.16 172.38 170.80 174.50 170.33 176.58 C 170.20 177.05 169.93 177.98 169.80 178.44 C 167.47 181.97 165.66 186.11 161.58 188.01 C 158.27 187.98 154.96 187.94 151.66 188.16 C 148.99 189.54 145.90 188.89 143.03 189.05 C 140.47 188.93 137.70 189.45 135.35 188.16 C 127.89 187.80 120.42 188.12 112.96 188.02 C 111.69 188.02 110.49 187.75 109.34 187.21 C 107.01 187.03 104.61 187.13 102.37 186.33 C 100.68 186.04 98.95 185.86 97.33 185.22 C 95.01 185.07 92.65 185.02 90.38 184.43 C 89.04 184.02 87.69 183.63 86.36 183.20 C 84.02 183.03 81.60 183.15 79.37 182.31 C 78.91 182.18 77.99 181.94 77.53 181.81 C 76.17 181.25 74.81 180.71 73.47 180.14 C 72.45 180.08 71.44 180.02 70.43 179.97 C 69.06 179.05 67.72 178.11 66.44 177.08 C 65.44 177.03 64.45 176.99 63.46 176.95 C 58.37 173.34 52.39 170.54 48.71 165.32 C 47.04 163.27 44.34 162.35 42.82 160.14 C 39.80 155.56 35.13 152.38 32.23 147.70 C 30.35 144.67 28.57 141.54 25.75 139.27 C 22.57 136.69 21.77 132.44 19.14 129.42 C 19.08 128.94 18.97 127.97 18.92 127.49 C 18.29 126.49 17.67 125.49 17.04 124.50 C 17.67 123.53 19.31 122.88 18.92 121.51 C 17.73 120.08 16.35 118.85 15.00 117.58 C 15.01 115.89 15.03 114.21 15.05 112.53 C 16.10 110.68 16.99 108.72 18.34 107.06 Z" />
</g>
</svg>
