<svg xmlns="http://www.w3.org/2000/svg" width="120pt" height="120pt" viewBox="0 0 120 120" version="1.1">

<g id="#514886ff">
<path fill="#514886" opacity="1.00" d=" M 63.39 8.36 C 72.85 6.60 81.90 11.36 89.39 16.65 C 93.92 20.37 95.76 26.22 97.39 31.63 C 100.33 40.12 98.39 49.19 99.10 57.95 C 101.71 76.13 102.11 94.50 104.11 112.75 C 99.80 113.80 96.79 117.32 92.65 118.66 C 87.16 119.64 81.42 118.10 76.05 120.00 L 48.91 120.00 C 44.67 118.74 39.48 119.31 36.26 115.76 C 31.66 110.93 25.14 108.78 18.77 107.51 C 19.27 103.82 21.09 100.50 21.87 96.90 C 22.36 90.29 21.71 83.64 22.05 77.02 C 22.31 72.60 24.46 68.60 25.23 64.27 C 26.53 56.71 29.31 49.50 32.54 42.56 C 35.65 34.79 39.38 27.29 42.52 19.53 C 45.10 16.39 49.07 14.76 52.18 12.19 C 55.24 9.42 59.55 9.19 63.39 8.36 M 40.79 36.21 C 41.60 37.10 42.41 38.00 43.30 38.81 C 44.64 39.14 45.84 38.03 47.11 37.75 C 46.94 36.39 46.88 34.04 45.02 34.05 C 43.54 34.64 42.18 35.45 40.79 36.21 M 85.72 36.09 C 86.22 37.09 86.72 38.08 87.26 39.06 C 87.65 38.52 88.44 37.43 88.83 36.89 C 89.94 37.73 91.03 38.59 92.23 39.30 C 92.23 35.49 88.44 35.85 85.72 36.09 M 58.43 73.24 C 58.31 72.10 58.45 70.96 58.51 69.82 C 56.15 69.96 53.60 70.07 51.77 71.77 C 48.60 74.59 45.27 78.26 45.89 82.84 C 49.00 85.34 53.00 85.22 56.76 84.99 C 56.85 84.21 57.04 82.65 57.13 81.87 C 57.46 82.37 58.13 83.36 58.46 83.86 C 60.45 81.95 62.62 80.26 64.78 78.56 C 65.12 80.46 64.50 83.47 67.08 83.95 C 71.48 85.13 76.09 86.51 80.69 85.83 C 83.00 83.63 84.65 79.65 82.98 76.63 C 82.00 76.45 81.02 76.25 80.05 76.03 C 80.69 75.33 81.34 74.65 82.00 73.96 C 80.27 73.04 78.50 72.13 76.52 71.93 C 75.96 73.43 75.41 75.00 74.27 76.19 C 74.48 74.82 74.80 73.47 75.03 72.11 C 70.54 68.23 61.27 66.72 58.43 73.24 M 62.28 82.27 C 60.85 83.55 59.35 84.75 57.82 85.91 C 61.30 85.92 64.84 86.89 68.29 86.05 C 66.37 84.67 64.32 83.48 62.28 82.27 M 47.07 86.07 C 47.62 92.45 45.90 98.67 46.00 105.03 C 45.74 108.81 44.73 112.52 45.02 116.34 C 52.48 108.25 58.23 97.38 56.94 86.07 C 53.65 86.04 50.36 86.04 47.07 86.07 M 70.10 85.95 C 69.78 93.76 70.11 101.60 71.82 109.25 C 72.29 112.08 74.80 113.85 76.34 116.12 C 77.13 115.32 78.01 114.59 78.61 113.62 C 81.15 105.02 81.13 96.03 80.94 87.15 C 77.29 87.18 73.65 86.83 70.10 85.95 M 57.67 87.00 C 60.18 91.51 66.40 91.26 69.60 87.66 C 65.61 87.66 61.66 86.86 57.67 87.00 Z"/>
</g>




</svg>
