<?xml version="1.0" encoding="UTF-8" ?>
<!DOCTYPE svg PUBLIC "-//W3C//DTD SVG 1.1//EN" "http://www.w3.org/Graphics/SVG/1.1/DTD/svg11.dtd">
<svg width="120pt" height="120pt" viewBox="0 0 120 120" version="1.1" xmlns="http://www.w3.org/2000/svg">
<g id="#514886ff">
<path fill="#514886" opacity="1.00" d=" M 53.96 10.87 C 62.61 7.11 72.95 6.95 81.31 11.68 C 85.12 14.08 89.69 15.82 92.25 19.73 C 95.75 24.63 97.14 30.64 98.61 36.39 C 99.82 44.97 98.07 53.74 99.66 62.30 C 101.84 79.08 102.24 96.00 104.12 112.82 C 99.69 113.63 96.83 117.43 92.64 118.67 C 87.16 119.70 81.40 118.01 76.05 120.00 L 48.89 120.00 C 45.47 119.00 41.76 119.07 38.47 117.61 C 35.44 115.27 32.86 112.24 29.26 110.73 C 25.87 109.38 22.42 108.09 18.78 107.56 C 19.19 102.87 22.40 98.85 22.04 94.05 C 22.10 88.37 21.83 82.69 22.03 77.02 C 22.22 73.16 23.98 69.64 24.87 65.93 C 27.69 49.45 36.53 34.92 42.49 19.50 C 45.68 15.94 50.36 14.03 53.96 10.87 M 40.77 36.21 C 41.58 37.11 42.38 38.04 43.27 38.87 C 44.63 39.13 45.84 38.11 47.12 37.81 C 47.02 36.38 46.95 34.00 45.01 34.00 C 43.53 34.60 42.16 35.43 40.77 36.21 M 85.80 35.99 C 86.16 37.05 86.54 38.10 86.95 39.14 C 87.61 38.41 88.27 37.67 88.92 36.93 C 89.92 37.85 90.96 38.72 92.19 39.32 C 92.41 35.47 88.47 35.80 85.80 35.99 M 58.42 73.22 C 58.35 72.09 58.48 70.96 58.55 69.83 C 56.18 69.94 53.61 70.05 51.77 71.77 C 48.62 74.60 45.24 78.25 45.91 82.84 C 49.00 85.38 53.02 85.17 56.78 84.99 C 56.87 84.20 57.04 82.62 57.13 81.84 C 57.46 82.35 58.11 83.38 58.43 83.89 C 60.42 81.96 62.61 80.25 64.81 78.57 C 64.89 79.95 65.04 81.33 65.23 82.70 C 66.20 84.03 67.94 84.16 69.39 84.62 C 73.09 85.35 76.89 86.54 80.68 85.83 C 82.79 84.51 82.87 81.80 83.71 79.70 C 84.16 78.62 83.23 77.61 82.99 76.58 C 81.99 76.43 80.99 76.26 80.00 76.07 C 80.67 75.37 81.35 74.68 82.03 73.98 C 80.28 73.05 78.50 72.08 76.49 71.94 C 75.89 73.43 75.41 75.02 74.37 76.28 C 74.56 74.89 74.77 73.50 75.00 72.12 C 70.56 68.21 61.28 66.74 58.42 73.22 M 62.28 82.27 C 60.84 83.54 59.35 84.74 57.84 85.91 C 61.30 85.79 64.84 87.03 68.24 86.03 C 66.33 84.64 64.30 83.46 62.28 82.27 M 47.02 86.03 C 47.57 92.75 45.74 99.29 45.91 105.99 C 45.49 109.43 44.67 112.84 45.03 116.33 C 52.53 108.28 58.29 97.35 56.97 86.04 C 53.65 85.98 50.34 85.97 47.02 86.03 M 70.06 85.91 C 69.65 93.74 70.11 101.59 71.77 109.26 C 72.31 112.19 74.78 114.19 76.80 116.17 C 79.60 113.24 79.59 109.01 80.33 105.27 C 81.55 99.28 80.85 93.14 80.98 87.09 C 77.30 87.14 73.63 86.80 70.06 85.91 M 57.69 87.01 C 60.13 91.49 66.53 91.36 69.54 87.58 C 65.57 87.82 61.67 86.75 57.69 87.01 Z" />
</g>
<g id="#fff1e8ff">
<path fill="#fff1e8" opacity="1.00" d=" M 40.77 36.21 C 42.16 35.43 43.53 34.60 45.01 34.00 C 46.95 34.00 47.02 36.38 47.12 37.81 C 45.84 38.11 44.63 39.13 43.27 38.87 C 42.38 38.04 41.58 37.11 40.77 36.21 M 43.17 36.15 C 42.64 37.77 43.20 38.33 44.84 37.82 C 45.36 36.19 44.80 35.64 43.17 36.15 Z" />
<path fill="#fff1e8" opacity="1.00" d=" M 85.80 35.99 C 88.47 35.80 92.41 35.47 92.19 39.32 C 90.96 38.72 89.92 37.85 88.92 36.93 C 88.27 37.67 87.61 38.41 86.95 39.14 C 86.54 38.10 86.16 37.05 85.80 35.99 Z" />
<path fill="#fff1e8" opacity="1.00" d=" M 47.02 86.03 C 50.34 85.97 53.65 85.98 56.97 86.04 C 58.29 97.35 52.53 108.28 45.03 116.33 C 44.67 112.84 45.49 109.43 45.91 105.99 C 45.74 99.29 47.57 92.75 47.02 86.03 Z" />
<path fill="#fff1e8" opacity="1.00" d=" M 70.06 85.91 C 73.63 86.80 77.30 87.14 80.98 87.09 C 80.85 93.14 81.55 99.28 80.33 105.27 C 79.59 109.01 79.60 113.24 76.80 116.17 C 74.78 114.19 72.31 112.19 71.77 109.26 C 70.11 101.59 69.65 93.74 70.06 85.91 Z" />
</g>
<g id="#000000ff">
<path fill="#000000" opacity="1.00" d=" M 43.17 36.15 C 44.80 35.64 45.36 36.19 44.84 37.82 C 43.20 38.33 42.64 37.77 43.17 36.15 Z" />
<path fill="#000000" opacity="1.00" d=" M 62.17 72.17 C 63.79 71.65 64.35 72.20 63.83 73.83 C 62.20 74.35 61.65 73.80 62.17 72.17 Z" />
<path fill="#000000" opacity="1.00" d=" M 54.21 73.21 C 54.85 73.85 54.85 73.85 54.21 73.21 Z" />
<path fill="#000000" opacity="1.00" d=" M 58.42 73.22 C 62.39 75.82 66.98 77.13 71.70 77.35 C 71.15 75.79 70.60 74.24 70.07 72.69 C 71.51 73.87 72.94 75.07 74.37 76.28 C 72.89 78.34 70.32 78.18 68.08 78.02 C 64.42 77.64 59.94 77.19 58.42 73.22 Z" />
<path fill="#000000" opacity="1.00" d=" M 78.10 74.25 C 81.35 74.45 76.58 77.33 78.10 74.25 Z" />
<path fill="#000000" opacity="1.00" d=" M 54.21 76.21 C 54.85 76.85 54.85 76.85 54.21 76.21 Z" />
<path fill="#000000" opacity="1.00" d=" M 76.00 80.03 C 74.67 80.01 74.30 77.49 75.64 77.20 C 76.99 77.40 77.11 79.42 76.00 80.03 Z" />
<path fill="#000000" opacity="1.00" d=" M 78.32 77.12 C 79.32 76.35 81.25 77.69 80.68 78.88 C 79.67 79.64 77.75 78.30 78.32 77.12 Z" />
<path fill="#000000" opacity="1.00" d=" M 51.10 78.24 C 54.35 78.47 49.57 81.32 51.10 78.24 Z" />
<path fill="#000000" opacity="1.00" d=" M 57.24 78.11 C 60.32 76.56 57.47 81.35 57.24 78.11 Z" />
<path fill="#000000" opacity="1.00" d=" M 69.05 79.37 C 70.42 79.05 70.95 79.58 70.63 80.95 C 69.21 81.31 68.69 80.78 69.05 79.37 Z" />
<path fill="#000000" opacity="1.00" d=" M 76.00 80.03 C 77.09 79.59 79.17 80.51 78.69 81.87 C 77.60 82.54 75.80 81.25 76.00 80.03 Z" />
<path fill="#000000" opacity="1.00" d=" M 51.24 81.32 C 52.13 80.77 54.42 80.26 54.74 81.60 C 53.98 82.44 49.91 83.49 51.24 81.32 Z" />
<path fill="#000000" opacity="1.00" d=" M 77.05 83.37 C 78.42 83.05 78.94 83.58 78.63 84.95 C 77.21 85.31 76.69 84.78 77.05 83.37 Z" />
</g>
<g id="#1d2b53ff">
<path fill="#1d2b53" opacity="1.00" d=" M 58.42 73.22 C 61.28 66.74 70.56 68.21 75.00 72.12 C 74.77 73.50 74.56 74.89 74.37 76.28 C 72.94 75.07 71.51 73.87 70.07 72.69 C 70.60 74.24 71.15 75.79 71.70 77.35 C 66.98 77.13 62.39 75.82 58.42 73.22 M 62.17 72.17 C 61.65 73.80 62.20 74.35 63.83 73.83 C 64.35 72.20 63.79 71.65 62.17 72.17 Z" />
<path fill="#1d2b53" opacity="1.00" d=" M 50.18 74.98 C 51.37 75.57 51.26 76.26 49.85 77.04 C 48.64 76.45 48.75 75.76 50.18 74.98 Z" />
<path fill="#1d2b53" opacity="1.00" d=" M 72.00 80.38 C 73.29 79.67 77.73 83.45 74.37 82.99 C 73.34 82.59 71.34 81.84 72.00 80.38 Z" />
</g>
<g id="#ffccaaff">
<path fill="#ffccaa" opacity="1.00" d=" M 51.77 71.77 C 53.61 70.05 56.18 69.94 58.55 69.83 C 58.48 70.96 58.35 72.09 58.42 73.22 C 59.94 77.19 64.42 77.64 68.08 78.02 C 70.32 78.18 72.89 78.34 74.37 76.28 C 75.41 75.02 75.89 73.43 76.49 71.94 C 78.50 72.08 80.28 73.05 82.03 73.98 C 81.35 74.68 80.67 75.37 80.00 76.07 C 80.99 76.26 81.99 76.43 82.99 76.58 C 83.23 77.61 84.16 78.62 83.71 79.70 C 82.87 81.80 82.79 84.51 80.68 85.83 C 76.89 86.54 73.09 85.35 69.39 84.62 C 67.94 84.16 66.20 84.03 65.23 82.70 C 65.04 81.33 64.89 79.95 64.81 78.57 C 62.61 80.25 60.42 81.96 58.43 83.89 C 58.11 83.38 57.46 82.35 57.13 81.84 C 57.04 82.62 56.87 84.20 56.78 84.99 C 53.02 85.17 49.00 85.38 45.91 82.84 C 45.24 78.25 48.62 74.60 51.77 71.77 M 54.21 73.21 C 54.85 73.85 54.85 73.85 54.21 73.21 M 78.10 74.25 C 76.58 77.33 81.35 74.45 78.10 74.25 M 50.18 74.98 C 48.75 75.76 48.64 76.45 49.85 77.04 C 51.26 76.26 51.37 75.57 50.18 74.98 M 54.21 76.21 C 54.85 76.85 54.85 76.85 54.21 76.21 M 76.00 80.03 C 75.80 81.25 77.60 82.54 78.69 81.87 C 79.17 80.51 77.09 79.59 76.00 80.03 C 77.11 79.42 76.99 77.40 75.64 77.20 C 74.30 77.49 74.67 80.01 76.00 80.03 M 78.32 77.12 C 77.75 78.30 79.67 79.64 80.68 78.88 C 81.25 77.69 79.32 76.35 78.32 77.12 M 51.10 78.24 C 49.57 81.32 54.35 78.47 51.10 78.24 M 57.24 78.11 C 57.47 81.35 60.32 76.56 57.24 78.11 M 69.05 79.37 C 68.69 80.78 69.21 81.31 70.63 80.95 C 70.95 79.58 70.42 79.05 69.05 79.37 M 72.00 80.38 C 71.34 81.84 73.34 82.59 74.37 82.99 C 77.73 83.45 73.29 79.67 72.00 80.38 M 51.24 81.32 C 49.91 83.49 53.98 82.44 54.74 81.60 C 54.42 80.26 52.13 80.77 51.24 81.32 M 77.05 83.37 C 76.69 84.78 77.21 85.31 78.63 84.95 C 78.94 83.58 78.42 83.05 77.05 83.37 Z" />
<path fill="#ffccaa" opacity="1.00" d=" M 57.69 87.01 C 61.67 86.75 65.57 87.82 69.54 87.58 C 66.53 91.36 60.13 91.49 57.69 87.01 Z" />
</g>
<g id="#ff004dff">
<path fill="#ff004d" opacity="1.00" d=" M 62.28 82.27 C 64.30 83.46 66.33 84.64 68.24 86.03 C 64.84 87.03 61.30 85.79 57.84 85.91 C 59.35 84.74 60.84 83.54 62.28 82.27 Z" />
</g>
</svg>
