<?xml version="1.0" encoding="UTF-8" ?>
<!DOCTYPE svg PUBLIC "-//W3C//DTD SVG 1.1//EN" "http://www.w3.org/Graphics/SVG/1.1/DTD/svg11.dtd">
<svg width="120pt" height="120pt" viewBox="0 0 120 120" version="1.1" xmlns="http://www.w3.org/2000/svg">
<g id="#000000ff">
<path fill="#000000" opacity="1.00" d=" M 46.86 25.96 C 62.50 22.69 79.57 27.00 91.95 37.07 C 99.09 42.88 98.88 52.47 97.67 60.70 C 94.67 66.46 89.49 70.56 84.87 74.95 C 82.31 77.14 82.70 80.83 82.08 83.82 C 78.10 82.38 74.05 81.07 70.30 79.08 C 73.10 77.70 75.97 76.44 78.80 75.11 C 73.65 65.51 79.41 54.65 77.50 44.58 C 68.30 41.50 58.23 40.17 48.64 41.65 C 39.84 46.27 41.69 57.86 39.78 66.07 C 38.08 66.58 36.38 67.07 34.68 67.56 C 36.56 70.62 38.55 73.62 40.43 76.69 C 36.12 76.68 31.81 76.72 27.50 76.77 C 28.93 73.96 30.53 71.23 32.17 68.53 C 29.97 67.31 27.74 66.15 25.52 64.96 C 25.74 55.87 24.98 45.55 31.08 38.05 C 34.81 32.41 41.09 29.14 46.86 25.96 M 48.55 26.71 C 35.01 31.83 23.61 45.94 27.00 60.96 C 27.01 66.59 33.75 67.50 37.75 65.77 C 41.78 57.60 38.19 44.69 48.29 40.33 C 58.52 39.02 68.90 40.93 78.83 43.34 C 78.66 51.02 78.13 58.69 77.58 66.35 C 77.33 69.57 79.12 72.74 82.05 74.12 C 87.39 72.92 90.69 67.91 93.97 63.97 C 98.64 59.27 97.14 52.24 96.58 46.40 C 93.38 37.77 84.96 33.31 77.05 29.89 C 68.05 26.41 58.09 24.98 48.55 26.71 M 33.41 69.14 C 31.98 71.41 30.52 73.66 29.05 75.90 C 31.72 75.27 34.40 74.75 37.06 74.09 C 35.84 72.44 34.62 70.80 33.41 69.14 M 72.71 79.35 C 75.70 80.09 78.76 80.49 81.71 81.41 C 81.63 79.28 81.60 77.16 81.60 75.03 C 78.67 76.54 75.70 77.98 72.71 79.35 Z" />
</g>
<g id="#ff77a8ff">
<path fill="#ff77a8" opacity="1.00" d=" M 48.55 26.71 C 58.09 24.98 68.05 26.41 77.05 29.89 C 84.96 33.31 93.38 37.77 96.58 46.40 C 97.14 52.24 98.64 59.27 93.97 63.97 C 90.69 67.91 87.39 72.92 82.05 74.12 C 79.12 72.74 77.33 69.57 77.58 66.35 C 78.13 58.69 78.66 51.02 78.83 43.34 C 68.90 40.93 58.52 39.02 48.29 40.33 C 38.19 44.69 41.78 57.60 37.75 65.77 C 33.75 67.50 27.01 66.59 27.00 60.96 C 23.61 45.94 35.01 31.83 48.55 26.71 Z" />
<path fill="#ff77a8" opacity="1.00" d=" M 33.41 69.14 C 34.62 70.80 35.84 72.44 37.06 74.09 C 34.40 74.75 31.72 75.27 29.05 75.90 C 30.52 73.66 31.98 71.41 33.41 69.14 Z" />
<path fill="#ff77a8" opacity="1.00" d=" M 72.71 79.35 C 75.70 77.98 78.67 76.54 81.60 75.03 C 81.60 77.16 81.63 79.28 81.71 81.41 C 78.76 80.49 75.70 80.09 72.71 79.35 Z" />
</g>
</svg>
