<?xml version="1.0" encoding="UTF-8" ?>
<!DOCTYPE svg PUBLIC "-//W3C//DTD SVG 1.1//EN" "http://www.w3.org/Graphics/SVG/1.1/DTD/svg11.dtd">
<svg width="500pt" height="120pt" viewBox="0 0 500 120" version="1.1" xmlns="http://www.w3.org/2000/svg">
<g id="#000000ef">
<path fill="#000000" opacity="0.94" d=" M 51.96 13.32 C 55.84 12.20 59.69 10.97 63.56 9.80 C 63.61 12.28 63.54 14.79 63.94 17.25 C 67.43 34.61 69.75 52.26 69.92 69.99 C 69.87 81.99 70.98 93.96 72.54 105.84 C 65.66 106.00 58.80 106.42 51.94 107.03 C 53.32 75.82 55.39 44.48 51.96 13.32 M 52.87 14.93 C 57.08 45.10 53.90 75.61 53.10 105.89 C 59.02 105.34 64.97 105.05 70.91 104.76 C 69.71 91.86 68.82 78.94 68.80 65.98 C 68.61 47.47 64.49 29.34 62.47 11.03 C 59.27 12.33 56.07 13.63 52.87 14.93 Z" />
</g>
<g id="#ff004dff">
<path fill="#ff004d" opacity="1.00" d=" M 52.87 14.93 C 56.07 13.63 59.27 12.33 62.47 11.03 C 64.49 29.34 68.61 47.47 68.80 65.98 C 68.82 78.94 69.71 91.86 70.91 104.76 C 64.97 105.05 59.02 105.34 53.10 105.89 C 53.90 75.61 57.08 45.10 52.87 14.93 M 56.63 24.03 C 57.16 25.34 57.70 26.65 58.25 27.95 C 58.60 27.95 59.31 27.95 59.66 27.95 C 60.27 27.69 61.49 27.15 62.09 26.88 C 61.95 26.25 61.66 24.98 61.51 24.35 C 59.89 24.23 58.26 24.13 56.63 24.03 M 58.94 85.00 C 58.99 86.29 59.03 87.59 59.08 88.89 C 60.41 89.31 61.74 89.73 63.07 90.16 C 63.85 88.51 64.63 86.85 65.40 85.19 C 63.79 85.14 60.56 85.05 58.94 85.00 Z" />
</g>
<g id="#000000e5">
<path fill="#000000" opacity="0.90" d=" M 73.20 23.25 C 76.71 20.82 80.79 19.42 84.72 17.83 C 89.35 26.65 91.90 36.38 93.92 46.08 C 97.28 62.90 96.30 80.20 99.00 97.11 C 92.72 97.67 86.43 98.10 80.16 98.63 C 82.11 74.27 72.55 51.12 71.96 26.95 C 72.01 25.67 71.85 23.95 73.20 23.25 M 73.21 30.94 C 74.92 53.18 82.65 74.69 81.27 97.23 C 86.87 96.91 92.47 96.58 98.06 96.15 C 95.09 80.76 96.22 64.89 93.36 49.46 C 91.32 39.23 89.00 28.80 83.96 19.57 C 79.24 22.02 69.94 23.19 73.21 30.94 Z" />
</g>
<g id="#000000ee">
<path fill="#000000" opacity="0.93" d=" M 102.06 20.49 C 105.95 20.01 109.84 19.40 113.66 18.52 C 114.41 31.19 118.05 43.41 120.23 55.85 C 121.40 69.19 122.69 82.90 119.62 96.11 C 115.78 96.07 108.11 95.98 104.28 95.93 C 101.81 70.94 97.54 45.50 102.06 20.49 M 103.00 21.27 C 98.90 45.74 102.75 70.53 105.24 94.96 C 109.70 95.01 114.16 95.06 118.64 95.12 C 121.94 77.26 120.51 58.61 115.98 41.09 C 114.42 34.24 113.37 27.28 112.59 20.30 C 109.41 20.69 106.19 20.98 103.00 21.27 Z" />
<path fill="#000000" opacity="0.93" d=" M 147.67 30.58 C 152.82 31.73 158.10 31.56 163.33 31.18 C 163.08 49.97 167.79 69.81 161.25 88.05 C 157.27 87.61 153.29 87.20 149.30 86.82 C 151.55 68.00 147.21 49.38 147.67 30.58 M 148.49 32.25 C 148.72 50.12 152.13 67.91 150.23 85.83 C 153.60 86.14 156.96 86.48 160.33 86.83 C 166.51 69.44 161.99 50.48 162.60 32.55 C 157.89 32.52 153.19 32.41 148.49 32.25 Z" />
</g>
<g id="#ffa300ff">
<path fill="#ffa300" opacity="1.00" d=" M 73.21 30.94 C 69.94 23.19 79.24 22.02 83.96 19.57 C 89.00 28.80 91.32 39.23 93.36 49.46 C 96.22 64.89 95.09 80.76 98.06 96.15 C 92.47 96.58 86.87 96.91 81.27 97.23 C 82.65 74.69 74.92 53.18 73.21 30.94 M 80.95 31.85 C 80.88 33.50 80.75 36.80 80.68 38.45 L 80.82 37.87 L 81.28 38.18 C 83.04 38.17 84.80 38.13 86.55 37.93 C 85.80 35.10 83.77 32.75 80.95 31.85 M 84.98 81.98 C 84.98 82.76 84.99 84.32 84.99 85.09 C 86.07 85.36 87.15 85.62 88.24 85.88 L 88.86 85.73 C 89.38 85.54 90.42 85.16 90.94 84.97 C 90.96 84.23 91.01 82.75 91.03 82.01 C 89.52 82.00 86.49 81.99 84.98 81.98 Z" />
</g>
<g id="#ffeb26ff">
<path fill="#ffeb26" opacity="1.00" d=" M 103.00 21.27 C 106.19 20.98 109.41 20.69 112.59 20.30 C 113.37 27.28 114.42 34.24 115.98 41.09 C 120.51 58.61 121.94 77.26 118.64 95.12 C 114.16 95.06 109.70 95.01 105.24 94.96 C 102.75 70.53 98.90 45.74 103.00 21.27 M 106.20 31.24 C 105.82 32.32 105.05 34.49 104.66 35.57 C 107.10 36.10 109.55 36.51 112.03 36.85 C 110.33 34.74 108.38 32.85 106.20 31.24 M 108.96 82.97 C 109.00 84.40 109.05 85.83 109.10 87.25 C 111.05 87.24 112.99 87.19 114.93 87.13 C 114.96 85.75 114.99 84.37 115.02 82.99 C 113.51 82.99 110.47 82.98 108.96 82.97 Z" />
</g>
<g id="#001505fe">
<path fill="#001505" opacity="1.00" d=" M 124.96 23.25 C 128.20 22.97 131.47 22.67 134.71 22.28 C 137.08 40.02 145.51 56.59 145.34 74.70 C 145.36 80.56 144.20 86.32 142.98 92.02 C 137.12 91.95 131.26 91.90 125.40 91.76 C 122.73 68.94 126.87 46.11 124.96 23.25 M 125.91 23.98 C 125.92 34.09 127.42 44.22 126.12 54.30 C 124.34 66.35 125.66 78.57 126.40 90.65 C 131.57 90.80 136.74 90.92 141.92 91.02 C 142.92 86.41 144.12 81.81 144.48 77.10 C 144.77 58.77 136.47 41.94 133.78 24.06 C 131.15 24.03 128.53 24.01 125.91 23.98 Z" />
</g>
<g id="#060605fe">
<path fill="#060605" opacity="1.00" d=" M 56.63 24.03 C 58.26 24.13 59.89 24.23 61.51 24.35 C 61.66 24.98 61.95 26.25 62.09 26.88 C 61.49 27.15 60.27 27.69 59.66 27.95 C 61.45 25.06 57.14 24.95 58.25 27.95 C 57.70 26.65 57.16 25.34 56.63 24.03 Z" />
</g>
<g id="#00e335ff">
<path fill="#00e335" opacity="1.00" d=" M 125.91 23.98 C 128.53 24.01 131.15 24.03 133.78 24.06 C 136.47 41.94 144.77 58.77 144.48 77.10 C 144.12 81.81 142.92 86.41 141.92 91.02 C 136.74 90.92 131.57 90.80 126.40 90.65 C 125.66 78.57 124.34 66.35 126.12 54.30 C 127.42 44.22 125.92 34.09 125.91 23.98 M 129.73 37.75 L 130.34 37.81 L 130.02 38.37 C 130.58 39.84 131.16 41.29 131.75 42.75 C 132.67 41.04 133.51 39.29 134.33 37.53 C 132.79 37.59 131.26 37.67 129.73 37.75 M 129.41 82.01 C 130.39 83.01 131.38 84.01 132.38 84.99 L 133.01 85.09 C 133.93 83.74 134.79 82.36 135.65 80.97 C 133.56 81.29 131.48 81.63 129.41 82.01 Z" />
</g>
<g id="#5f574fff">
<path fill="#5f574f" opacity="1.00" d=" M 58.25 27.95 C 57.14 24.95 61.45 25.06 59.66 27.95 C 59.31 27.95 58.60 27.95 58.25 27.95 Z" />
<path fill="#5f574f" opacity="1.00" d=" M 80.82 37.87 C 80.92 36.68 81.93 34.32 83.43 35.34 C 83.92 36.73 82.30 37.67 81.28 38.18 L 80.82 37.87 Z" />
<path fill="#5f574f" opacity="1.00" d=" M 130.34 37.81 C 131.59 37.72 132.40 38.22 132.77 39.31 C 132.22 40.89 130.26 39.43 130.02 38.37 L 130.34 37.81 Z" />
<path fill="#5f574f" opacity="1.00" d=" M 175.15 43.40 C 179.14 42.58 174.30 47.38 175.15 43.40 Z" />
<path fill="#5f574f" opacity="1.00" d=" M 288.59 55.31 C 295.50 54.61 302.45 54.55 309.40 54.44 C 303.50 54.84 297.60 55.16 291.70 55.38 C 290.92 55.36 289.37 55.33 288.59 55.31 Z" />
<path fill="#5f574f" opacity="1.00" d=" M 178.33 72.89 L 178.95 73.10 C 179.30 74.33 178.94 75.19 177.88 75.70 C 176.24 75.43 177.34 73.30 178.33 72.89 Z" />
<path fill="#5f574f" opacity="1.00" d=" M 154.27 77.88 C 157.56 77.61 155.09 81.71 153.88 78.56 L 154.27 77.88 Z" />
<path fill="#5f574f" opacity="1.00" d=" M 306.64 79.39 C 307.98 79.47 309.33 79.57 310.68 79.70 C 312.43 79.87 314.18 80.04 315.94 80.20 C 315.29 80.93 314.65 81.66 314.01 82.39 C 313.37 82.12 312.09 81.58 311.46 81.31 C 309.86 80.63 308.26 79.97 306.64 79.39 Z" />
<path fill="#5f574f" opacity="1.00" d=" M 132.38 84.99 C 131.73 84.12 131.84 81.67 133.42 82.28 C 134.02 83.25 133.88 84.19 133.01 85.09 L 132.38 84.99 Z" />
<path fill="#5f574f" opacity="1.00" d=" M 87.53 83.16 C 89.03 82.45 89.44 84.79 88.86 85.73 L 88.24 85.88 C 87.25 85.09 87.01 84.19 87.53 83.16 Z" />
<path fill="#5f574f" opacity="1.00" d=" M 249.80 84.17 C 250.25 82.90 252.65 83.41 252.20 84.83 C 251.74 86.10 249.34 85.59 249.80 84.17 Z" />
<path fill="#5f574f" opacity="1.00" d=" M 60.15 86.40 C 64.14 85.58 59.30 90.38 60.15 86.40 Z" />
</g>
<g id="#000000ff">
<path fill="#000000" opacity="1.00" d=" M 80.95 31.85 C 83.77 32.75 85.80 35.10 86.55 37.93 C 84.80 38.13 83.04 38.17 81.28 38.18 C 82.30 37.67 83.92 36.73 83.43 35.34 C 81.93 34.32 80.92 36.68 80.82 37.87 L 80.68 38.45 C 80.75 36.80 80.88 33.50 80.95 31.85 Z" />
<path fill="#000000" opacity="1.00" d=" M 129.73 37.75 C 131.26 37.67 132.79 37.59 134.33 37.53 C 133.51 39.29 132.67 41.04 131.75 42.75 C 131.16 41.29 130.58 39.84 130.02 38.37 C 130.26 39.43 132.22 40.89 132.77 39.31 C 132.40 38.22 131.59 37.72 130.34 37.81 L 129.73 37.75 Z" />
<path fill="#000000" opacity="1.00" d=" M 153.64 77.82 C 155.03 77.64 156.42 77.47 157.81 77.30 C 157.36 78.72 156.89 80.13 156.44 81.54 C 155.57 80.56 154.72 79.56 153.88 78.56 C 155.09 81.71 157.56 77.61 154.27 77.88 L 153.64 77.82 Z" />
<path fill="#000000" opacity="1.00" d=" M 84.98 81.98 C 86.49 81.99 89.52 82.00 91.03 82.01 C 91.01 82.75 90.96 84.23 90.94 84.97 C 90.42 85.16 89.38 85.54 88.86 85.73 C 89.44 84.79 89.03 82.45 87.53 83.16 C 87.01 84.19 87.25 85.09 88.24 85.88 C 87.15 85.62 86.07 85.36 84.99 85.09 C 84.99 84.32 84.98 82.76 84.98 81.98 Z" />
</g>
<g id="#100f0dff">
<path fill="#100f0d" opacity="1.00" d=" M 106.20 31.24 C 108.38 32.85 110.33 34.74 112.03 36.85 C 109.55 36.51 107.10 36.10 104.66 35.57 C 105.05 34.49 105.82 32.32 106.20 31.24 Z" />
</g>
<g id="#28adffff">
<path fill="#28adff" opacity="1.00" d=" M 148.49 32.25 C 153.19 32.41 157.89 32.52 162.60 32.55 C 161.99 50.48 166.51 69.44 160.33 86.83 C 156.96 86.48 153.60 86.14 150.23 85.83 C 152.13 67.91 148.72 50.12 148.49 32.25 M 152.72 39.78 C 154.44 41.17 156.24 42.49 158.34 43.22 C 158.25 41.73 158.06 40.26 157.85 38.79 L 157.21 38.60 L 157.75 38.09 C 156.07 38.63 154.39 39.20 152.72 39.78 M 153.64 77.82 L 154.27 77.88 L 153.88 78.56 C 154.72 79.56 155.57 80.56 156.44 81.54 C 156.89 80.13 157.36 78.72 157.81 77.30 C 156.42 77.47 155.03 77.64 153.64 77.82 Z" />
</g>
<g id="#000000e6">
<path fill="#000000" opacity="0.90" d=" M 166.42 36.91 C 170.95 36.52 175.48 36.21 180.03 35.91 C 184.45 51.31 186.14 67.28 188.20 83.12 C 181.85 82.82 175.50 82.31 169.16 81.91 C 170.42 66.85 167.09 51.92 166.42 36.91 M 167.87 37.89 C 168.34 52.25 170.70 66.49 170.39 80.88 C 175.93 81.23 181.48 81.63 187.02 81.99 C 184.92 66.86 183.26 51.60 179.02 36.86 C 175.30 37.16 171.58 37.52 167.87 37.89 Z" />
</g>
<g id="#ff76a7ff">
<path fill="#ff76a7" opacity="1.00" d=" M 167.87 37.89 C 171.58 37.52 175.30 37.16 179.02 36.86 C 183.26 51.60 184.92 66.86 187.02 81.99 C 181.48 81.63 175.93 81.23 170.39 80.88 C 170.70 66.49 168.34 52.25 167.87 37.89 M 173.35 39.58 C 173.70 42.45 174.27 45.28 174.93 48.10 C 176.34 47.09 177.79 46.12 179.08 44.95 C 177.38 42.96 175.33 41.29 173.35 39.58 M 174.84 74.03 C 175.28 75.36 175.73 76.69 176.18 78.02 C 177.94 77.51 179.70 77.00 181.47 76.50 C 180.64 75.35 179.81 74.22 178.95 73.10 L 178.33 72.89 C 177.17 73.27 176.00 73.65 174.84 74.03 Z" />
</g>
<g id="#050504ff">
<path fill="#050504" opacity="1.00" d=" M 152.72 39.78 C 154.39 39.20 156.07 38.63 157.75 38.09 L 157.21 38.60 C 156.28 39.08 155.19 41.29 156.84 41.49 C 157.84 40.90 158.18 40.00 157.85 38.79 C 158.06 40.26 158.25 41.73 158.34 43.22 C 156.24 42.49 154.44 41.17 152.72 39.78 Z" />
</g>
<g id="#47413bff">
<path fill="#47413b" opacity="1.00" d=" M 156.84 41.49 C 155.19 41.29 156.28 39.08 157.21 38.60 L 157.85 38.79 C 158.18 40.00 157.84 40.90 156.84 41.49 Z" />
</g>
<g id="#140d0eff">
<path fill="#140d0e" opacity="1.00" d=" M 173.35 39.58 C 175.33 41.29 177.38 42.96 179.08 44.95 C 177.79 46.12 176.34 47.09 174.93 48.10 C 174.27 45.28 173.70 42.45 173.35 39.58 M 175.15 43.40 C 174.30 47.38 179.14 42.58 175.15 43.40 Z" />
</g>
<g id="#090402ff">
<path fill="#090402" opacity="1.00" d=" M 201.24 48.75 C 203.04 44.91 205.15 38.98 210.99 41.43 C 221.31 42.30 231.63 43.15 242.01 43.05 C 255.14 42.83 267.92 46.50 281.00 46.95 C 293.02 47.48 304.86 49.73 316.52 52.57 C 316.92 54.21 317.32 55.84 317.71 57.47 C 295.71 58.20 274.07 54.16 252.14 53.63 C 235.20 51.73 218.08 51.60 201.24 48.75 M 204.26 44.97 L 203.24 44.92 L 204.24 45.09 C 203.92 45.83 203.28 47.29 202.97 48.03 C 231.39 51.70 260.13 52.36 288.59 55.31 C 289.37 55.33 290.92 55.36 291.70 55.38 C 299.84 56.04 308.01 55.93 316.18 56.07 C 316.00 55.42 315.63 54.14 315.45 53.50 C 308.95 52.20 302.48 50.73 295.91 49.89 L 294.87 50.05 L 295.66 49.92 C 283.33 47.90 270.78 47.62 258.46 45.45 C 244.57 43.11 230.42 44.48 216.45 43.02 C 212.32 42.84 207.60 41.90 204.26 44.97 Z" />
</g>
<g id="#aa5236ff">
<path fill="#aa5236" opacity="1.00" d=" M 204.26 44.97 C 207.60 41.90 212.32 42.84 216.45 43.02 C 230.42 44.48 244.57 43.11 258.46 45.45 C 270.78 47.62 283.33 47.90 295.66 49.92 L 294.87 50.05 C 286.54 51.75 278.02 50.16 269.65 49.65 C 278.65 51.19 287.80 53.09 296.96 51.82 C 296.69 51.34 296.17 50.37 295.91 49.89 C 302.48 50.73 308.95 52.20 315.45 53.50 C 315.63 54.14 316.00 55.42 316.18 56.07 C 308.01 55.93 299.84 56.04 291.70 55.38 C 297.60 55.16 303.50 54.84 309.40 54.44 C 302.45 54.55 295.50 54.61 288.59 55.31 C 260.13 52.36 231.39 51.70 202.97 48.03 C 203.28 47.29 203.92 45.83 204.24 45.09 C 217.79 47.13 231.49 48.81 245.22 48.43 C 231.65 46.41 217.93 45.86 204.26 44.97 M 248.06 46.59 C 250.16 47.50 252.24 48.43 254.30 49.42 C 252.78 49.74 251.26 50.06 249.74 50.38 C 256.26 50.51 262.75 51.16 269.26 51.53 C 262.35 49.31 255.39 46.78 248.06 46.59 Z" />
</g>
<g id="#65564cff">
<path fill="#65564c" opacity="1.00" d=" M 203.24 44.92 L 204.26 44.97 C 217.93 45.86 231.65 46.41 245.22 48.43 C 231.49 48.81 217.79 47.13 204.24 45.09 L 203.24 44.92 Z" />
</g>
<g id="#6a564bfe">
<path fill="#6a564b" opacity="1.00" d=" M 248.06 46.59 C 255.39 46.78 262.35 49.31 269.26 51.53 C 262.75 51.16 256.26 50.51 249.74 50.38 C 251.26 50.06 252.78 49.74 254.30 49.42 C 252.24 48.43 250.16 47.50 248.06 46.59 M 257.53 48.12 C 257.68 48.44 257.96 49.09 258.10 49.41 C 260.70 50.02 258.95 45.94 257.53 48.12 Z" />
</g>
<g id="#ab5236ff">
<path fill="#ab5236" opacity="1.00" d=" M 257.53 48.12 C 258.95 45.94 260.70 50.02 258.10 49.41 C 257.96 49.09 257.68 48.44 257.53 48.12 Z" />
<path fill="#ab5236" opacity="1.00" d=" M 310.68 79.70 C 313.91 79.79 317.18 79.88 320.41 80.13 C 318.30 80.94 316.16 81.69 314.01 82.39 C 314.65 81.66 315.29 80.93 315.94 80.20 C 314.18 80.04 312.43 79.87 310.68 79.70 Z" />
</g>
<g id="#69564bff">
<path fill="#69564b" opacity="1.00" d=" M 269.65 49.65 C 278.02 50.16 286.54 51.75 294.87 50.05 L 295.91 49.89 C 296.17 50.37 296.69 51.34 296.96 51.82 C 287.80 53.09 278.65 51.19 269.65 49.65 Z" />
</g>
<g id="#050404ff">
<path fill="#050404" opacity="1.00" d=" M 174.84 74.03 C 176.00 73.65 177.17 73.27 178.33 72.89 C 177.34 73.30 176.24 75.43 177.88 75.70 C 178.94 75.19 179.30 74.33 178.95 73.10 C 179.81 74.22 180.64 75.35 181.47 76.50 C 179.70 77.00 177.94 77.51 176.18 78.02 C 175.73 76.69 175.28 75.36 174.84 74.03 Z" />
</g>
<g id="#0b0503fe">
<path fill="#0b0503" opacity="1.00" d=" M 243.00 79.88 C 268.87 76.86 295.01 77.72 320.98 78.73 C 320.98 79.60 320.97 81.35 320.97 82.22 C 304.43 83.01 287.84 83.10 271.35 84.58 C 260.33 86.52 249.14 86.81 237.98 87.19 C 226.13 88.26 214.90 93.05 202.98 93.69 C 198.49 93.85 194.72 90.51 192.81 86.68 C 209.16 82.24 226.23 81.56 243.00 79.88 M 255.46 79.71 C 235.29 81.97 214.87 82.68 195.02 87.16 C 195.05 87.79 195.12 89.06 195.16 89.69 C 197.38 90.55 199.58 91.44 201.81 92.31 L 202.29 92.98 C 203.97 92.48 205.64 91.97 207.32 91.47 C 216.47 91.85 225.19 87.68 234.12 86.10 C 238.83 85.82 243.56 85.81 248.29 85.64 C 257.95 86.21 267.37 83.38 276.98 82.97 C 284.70 82.14 292.58 82.83 300.23 81.23 C 302.25 81.17 304.27 81.02 306.30 80.87 C 308.02 81.00 309.73 81.17 311.46 81.31 C 312.09 81.58 313.37 82.12 314.01 82.39 C 316.16 81.69 318.30 80.94 320.41 80.13 C 317.18 79.88 313.91 79.79 310.68 79.70 C 309.33 79.57 307.98 79.47 306.64 79.39 C 289.64 78.26 272.47 78.76 255.46 79.71 Z" />
</g>
<g id="#aa5236fe">
<path fill="#aa5236" opacity="1.00" d=" M 255.46 79.71 C 272.47 78.76 289.64 78.26 306.64 79.39 C 308.26 79.97 309.86 80.63 311.46 81.31 C 309.73 81.17 308.02 81.00 306.30 80.87 C 294.42 80.02 282.46 79.93 270.62 81.31 C 280.48 81.39 290.35 81.34 300.23 81.23 C 292.58 82.83 284.70 82.14 276.98 82.97 C 267.37 83.38 257.95 86.21 248.29 85.64 C 234.99 83.62 221.68 85.35 208.58 87.73 C 217.14 88.03 225.62 86.87 234.12 86.10 C 225.19 87.68 216.47 91.85 207.32 91.47 C 204.77 90.93 202.27 90.21 199.77 89.50 C 200.44 90.43 201.13 91.37 201.81 92.31 C 199.58 91.44 197.38 90.55 195.16 89.69 C 195.12 89.06 195.05 87.79 195.02 87.16 C 214.87 82.68 235.29 81.97 255.46 79.71 M 245.74 82.74 C 252.69 82.90 259.68 82.53 266.40 80.61 C 259.47 80.66 252.54 81.38 245.74 82.74 M 249.80 84.17 C 249.34 85.59 251.74 86.10 252.20 84.83 C 252.65 83.41 250.25 82.90 249.80 84.17 Z" />
</g>
<g id="#67564cff">
<path fill="#67564c" opacity="1.00" d=" M 245.74 82.74 C 252.54 81.38 259.47 80.66 266.40 80.61 C 259.68 82.53 252.69 82.90 245.74 82.74 Z" />
</g>
<g id="#61564eff">
<path fill="#61564e" opacity="1.00" d=" M 270.62 81.31 C 282.46 79.93 294.42 80.02 306.30 80.87 C 304.27 81.02 302.25 81.17 300.23 81.23 C 290.35 81.34 280.48 81.39 270.62 81.31 Z" />
</g>
<g id="#000000fe">
<path fill="#000000" opacity="1.00" d=" M 129.41 82.01 C 131.48 81.63 133.56 81.29 135.65 80.97 C 134.79 82.36 133.93 83.74 133.01 85.09 C 133.88 84.19 134.02 83.25 133.42 82.28 C 131.84 81.67 131.73 84.12 132.38 84.99 C 131.38 84.01 130.39 83.01 129.41 82.01 Z" />
</g>
<g id="#070606ff">
<path fill="#070606" opacity="1.00" d=" M 108.96 82.97 C 110.47 82.98 113.51 82.99 115.02 82.99 C 114.99 84.37 114.96 85.75 114.93 87.13 C 112.99 87.19 111.05 87.24 109.10 87.25 C 109.05 85.83 109.00 84.40 108.96 82.97 Z" />
</g>
<g id="#60564eff">
<path fill="#60564e" opacity="1.00" d=" M 208.58 87.73 C 221.68 85.35 234.99 83.62 248.29 85.64 C 243.56 85.81 238.83 85.82 234.12 86.10 C 225.62 86.87 217.14 88.03 208.58 87.73 Z" />
</g>
<g id="#040303ff">
<path fill="#040303" opacity="1.00" d=" M 58.94 85.00 C 60.56 85.05 63.79 85.14 65.40 85.19 C 64.63 86.85 63.85 88.51 63.07 90.16 C 61.74 89.73 60.41 89.31 59.08 88.89 C 59.03 87.59 58.99 86.29 58.94 85.00 M 60.15 86.40 C 59.30 90.38 64.14 85.58 60.15 86.40 Z" />
</g>
<g id="#735548ff">
<path fill="#735548" opacity="1.00" d=" M 199.77 89.50 C 202.27 90.21 204.77 90.93 207.32 91.47 C 205.64 91.97 203.97 92.48 202.29 92.98 L 201.81 92.31 C 201.13 91.37 200.44 90.43 199.77 89.50 Z" />
</g>
</svg>
