<?xml version="1.0" encoding="UTF-8" ?>
<!DOCTYPE svg PUBLIC "-//W3C//DTD SVG 1.1//EN" "http://www.w3.org/Graphics/SVG/1.1/DTD/svg11.dtd">
<svg width="1024pt" height="768pt" viewBox="0 0 1024 768" version="1.1" xmlns="http://www.w3.org/2000/svg">
<g id="#eec39aff">
<path fill="#eec39a" opacity="1.00" d=" M 0.00 0.00 L 1024.00 0.00 L 1024.00 768.00 L 0.00 768.00 L 0.00 0.00 M 59.80 20.51 C 57.57 29.97 52.79 38.67 51.37 48.34 C 50.58 50.98 50.82 54.49 48.29 56.23 C 40.74 61.92 30.93 65.03 26.09 73.75 C 33.98 68.70 41.59 63.19 49.79 58.64 C 47.37 77.04 43.13 95.32 43.87 114.00 C 44.15 128.62 43.04 143.70 47.22 157.90 C 52.87 168.51 60.26 178.08 67.16 187.89 C 76.12 200.24 99.38 201.23 105.88 186.00 C 110.44 170.44 110.16 154.05 110.14 138.00 C 110.35 121.17 108.01 104.35 103.71 88.10 C 99.90 72.93 90.72 59.13 77.80 50.23 C 69.74 48.94 61.52 50.65 53.69 52.54 C 54.23 41.22 61.20 31.62 62.06 20.43 C 61.49 20.45 60.36 20.49 59.80 20.51 M 666.64 47.92 C 667.05 48.44 667.87 49.47 668.28 49.98 C 681.24 43.30 696.69 45.43 710.13 49.59 C 721.18 53.17 734.04 53.67 742.91 62.05 C 760.77 76.29 780.23 88.51 797.38 103.62 C 819.20 128.37 839.57 154.41 858.67 181.32 C 868.15 197.64 879.15 213.21 886.23 230.81 C 890.79 242.08 896.30 253.05 899.06 264.98 C 902.34 279.50 907.94 293.87 907.14 308.99 C 907.10 319.79 906.60 330.61 905.32 341.34 C 903.30 355.52 896.60 369.23 885.38 378.39 C 870.69 394.89 846.59 399.36 825.62 395.38 C 809.09 392.14 792.50 389.25 775.99 385.97 C 748.42 378.44 724.75 359.99 707.42 337.63 C 693.63 315.88 686.64 290.35 684.32 264.86 C 684.82 232.25 687.60 199.37 697.11 168.02 C 699.39 159.24 703.85 151.26 706.49 142.61 C 708.55 135.82 710.46 128.98 713.15 122.41 C 715.61 121.76 718.08 121.09 720.56 120.39 C 717.84 119.46 714.81 118.88 712.06 118.38 C 707.36 127.96 704.84 138.33 701.46 148.39 C 686.80 181.84 682.40 218.84 681.23 255.04 C 681.75 278.02 686.37 301.07 695.90 322.04 C 705.63 344.71 725.02 361.29 744.72 375.24 C 753.75 380.11 762.85 385.14 772.65 388.33 C 788.79 391.93 805.18 394.30 821.36 397.73 C 833.87 400.97 846.96 399.53 859.48 397.16 C 871.69 394.18 881.55 385.95 889.88 376.88 C 900.38 367.68 906.58 354.34 908.68 340.70 C 910.88 319.46 911.54 297.59 905.16 276.96 C 901.44 258.09 893.56 240.55 885.83 223.09 C 878.88 208.55 869.76 195.22 861.67 181.32 C 841.67 153.32 820.66 125.97 797.60 100.42 C 782.63 87.87 766.36 76.98 750.86 65.13 C 743.32 59.80 736.63 52.45 727.00 51.08 C 713.59 48.64 700.92 41.52 686.97 42.85 C 679.75 42.39 672.97 44.75 666.64 47.92 M 575.39 73.28 C 575.39 73.86 575.39 75.03 575.39 75.61 C 583.25 76.09 591.31 75.33 599.04 77.05 C 605.40 79.11 608.09 85.73 610.78 91.18 C 615.37 101.39 620.63 111.45 622.43 122.63 C 628.71 159.15 629.44 197.21 619.17 233.09 C 614.77 246.72 607.03 259.78 595.92 268.93 C 582.86 273.95 566.49 269.07 558.09 257.90 C 551.82 250.30 546.24 241.83 543.92 232.13 C 539.97 214.24 534.76 196.43 534.05 178.02 C 533.86 166.42 533.35 154.76 534.72 143.21 C 538.88 123.59 539.79 103.38 539.75 83.38 C 539.15 83.39 537.96 83.41 537.37 83.42 C 536.64 98.24 535.12 112.99 534.17 127.79 C 527.81 157.85 530.52 189.40 537.87 219.03 C 540.47 230.07 542.37 242.11 549.87 251.09 C 555.27 258.23 560.64 266.07 569.04 269.92 C 577.66 274.17 588.43 275.93 597.19 271.18 C 609.19 260.12 619.30 246.13 622.96 229.99 C 629.21 207.07 631.52 183.15 629.48 159.45 C 627.55 140.44 627.20 120.67 619.10 102.96 C 614.73 93.70 611.49 83.41 603.69 76.31 C 595.41 70.47 584.74 73.76 575.39 73.28 M 230.39 106.41 C 218.59 109.20 206.00 110.22 195.27 116.27 C 191.46 120.28 184.49 123.99 185.66 130.38 C 190.23 125.11 194.08 118.31 201.29 116.42 C 212.28 112.35 224.02 111.05 235.38 108.38 C 276.58 98.77 319.23 96.71 361.38 98.45 C 343.55 101.29 325.58 103.23 307.85 106.72 C 288.52 110.43 268.61 112.68 250.29 120.25 C 242.15 123.39 233.75 125.98 226.07 130.20 C 228.19 140.14 238.62 143.67 246.93 147.14 C 260.70 152.22 273.46 160.06 287.92 163.21 C 300.60 166.50 313.13 170.43 325.98 173.03 C 343.25 176.57 361.08 170.85 375.58 161.55 C 385.48 153.55 396.11 144.82 400.35 132.35 C 402.66 126.02 402.31 119.17 401.40 112.63 C 399.99 106.18 393.64 102.43 388.04 99.96 C 375.32 93.82 360.71 95.02 347.00 94.88 C 307.88 94.59 268.57 97.66 230.39 106.41 M 299.90 213.93 C 278.63 219.16 257.12 224.11 236.99 232.96 C 228.80 236.83 219.68 237.78 211.01 240.06 C 184.94 245.80 159.32 255.13 137.05 270.07 C 126.85 277.68 116.12 284.72 107.11 293.78 C 119.24 287.96 128.77 278.19 140.12 271.13 C 153.61 261.91 168.97 256.03 184.14 250.21 C 197.08 246.42 210.18 243.12 223.35 240.25 C 215.04 248.45 205.95 256.68 201.89 267.96 C 199.11 278.28 200.39 291.43 210.39 297.46 C 222.34 302.54 235.40 303.87 248.14 305.69 C 304.88 310.31 361.96 307.80 418.55 302.38 C 428.85 301.47 438.49 297.55 448.28 294.49 C 459.45 290.97 470.70 287.65 481.67 283.50 C 489.39 281.15 494.82 274.81 500.68 269.66 C 506.56 263.83 512.72 256.20 511.58 247.37 C 510.02 241.01 507.26 234.02 501.14 230.82 C 482.05 219.04 458.66 219.48 437.01 219.02 C 395.65 219.26 354.18 217.60 312.95 221.78 C 291.86 222.22 271.50 228.23 250.70 230.94 C 264.96 225.08 280.07 221.71 295.00 218.03 C 311.58 214.01 328.73 213.97 345.55 211.57 C 345.56 210.98 345.59 209.80 345.60 209.21 C 330.34 210.43 314.99 211.21 299.90 213.93 M 126.53 212.95 C 118.88 214.88 110.18 215.43 104.31 221.33 C 99.42 225.38 97.91 232.48 98.29 238.60 C 102.20 247.50 112.33 249.38 121.00 249.15 C 136.79 250.89 152.67 237.02 152.74 221.10 C 152.62 217.38 148.44 215.96 145.96 214.03 C 140.15 210.56 132.84 212.22 126.53 212.95 M 43.09 219.79 C 42.44 220.97 41.78 222.16 41.14 223.36 C 45.48 223.26 49.81 223.14 54.14 223.06 C 44.76 229.87 34.47 236.13 27.95 245.98 C 24.99 251.60 30.28 255.80 33.84 259.18 C 42.91 266.96 55.80 271.96 67.73 268.79 C 73.16 266.85 78.93 264.18 81.82 258.89 C 86.52 252.56 89.04 243.05 83.64 236.35 C 77.92 230.12 70.36 225.95 62.92 222.13 C 56.90 218.66 49.66 220.48 43.09 219.79 M 168.05 282.83 C 170.25 287.66 165.04 291.25 163.32 295.21 C 159.92 299.75 160.91 305.71 160.97 310.99 C 160.62 319.17 166.97 325.86 174.05 328.92 C 178.27 331.35 184.77 332.42 188.29 328.29 C 192.42 324.96 192.34 319.16 191.47 314.46 C 189.91 303.26 188.47 290.54 178.44 283.52 C 179.29 281.86 180.13 280.18 180.91 278.48 C 176.78 280.37 172.54 282.01 168.05 282.83 M 42.32 319.33 C 38.87 328.59 37.19 338.71 38.50 348.56 C 42.12 361.66 56.83 371.14 70.18 366.15 C 73.42 363.81 76.44 360.65 77.88 356.88 C 78.63 345.69 71.87 335.95 65.68 327.29 C 61.17 320.56 54.08 316.38 48.48 310.71 C 45.83 313.10 43.51 315.91 42.32 319.33 M 227.47 315.56 C 218.40 318.86 210.35 326.49 208.21 336.13 C 206.98 351.42 223.44 365.43 238.34 362.37 C 243.18 361.27 246.62 357.32 250.20 354.19 C 253.03 350.53 258.16 347.47 256.98 342.00 C 257.11 333.67 250.24 327.51 244.46 322.51 C 239.32 319.45 234.08 313.55 227.47 315.56 M 110.53 331.31 C 111.98 331.87 113.45 332.40 114.92 332.94 C 111.47 342.14 107.11 351.12 106.09 361.03 C 105.24 367.47 108.51 374.90 115.12 376.75 C 131.61 379.70 150.27 378.75 163.69 367.64 C 173.46 360.39 168.48 345.89 160.00 340.00 C 150.15 332.67 139.05 324.17 126.02 325.02 C 120.02 324.46 115.44 328.66 110.53 331.31 M 311.46 362.53 C 259.73 370.92 208.02 380.90 158.13 397.19 C 140.67 404.65 122.63 414.01 111.16 429.67 C 125.28 418.92 139.11 407.20 156.06 401.11 C 194.46 387.33 234.74 379.89 274.58 371.56 C 349.45 358.02 425.09 348.66 501.05 344.10 C 521.31 342.51 541.93 340.47 561.99 345.06 C 564.18 344.72 567.47 346.43 567.06 349.01 C 567.43 355.78 563.43 361.47 559.65 366.66 C 553.59 375.08 543.62 378.91 535.04 384.10 C 522.35 391.48 508.41 396.21 494.96 401.94 C 476.96 409.61 458.15 415.13 439.78 421.79 C 418.76 429.52 396.62 433.39 375.00 439.02 C 353.70 444.59 331.93 447.95 310.39 452.42 C 284.55 457.48 258.64 462.23 232.68 466.64 C 213.72 468.95 194.68 470.57 175.69 472.62 C 158.47 473.44 141.23 472.83 124.00 473.06 C 110.52 472.97 96.64 474.04 83.59 469.94 C 85.78 465.48 88.07 461.02 90.92 456.94 C 98.49 445.87 111.47 440.63 122.12 433.17 C 134.67 424.97 149.03 419.43 160.26 409.33 C 154.85 411.18 149.76 413.87 144.85 416.78 C 129.99 425.45 115.03 434.02 100.99 444.01 C 91.60 450.68 84.22 460.20 80.37 471.09 C 86.89 473.82 93.76 476.42 100.97 476.01 C 117.65 476.22 134.32 475.90 151.00 476.05 C 176.81 476.52 202.41 472.79 228.02 470.08 C 263.68 464.44 299.16 457.61 334.59 450.60 C 364.74 445.34 394.29 437.19 424.00 429.94 C 444.42 423.29 464.71 416.17 484.94 408.95 C 509.09 399.33 533.63 389.98 555.14 375.10 C 561.28 368.70 567.68 361.78 569.96 352.95 C 570.45 349.46 569.82 344.46 565.98 343.05 C 555.29 340.20 544.13 338.71 533.05 339.32 C 458.85 343.23 384.78 350.39 311.46 362.53 M 23.67 394.66 C 29.26 393.55 34.07 389.80 39.97 390.06 C 48.21 390.31 58.22 392.70 61.82 401.10 C 66.88 411.61 70.29 423.14 68.92 434.97 C 68.76 440.30 67.67 447.98 61.43 449.49 C 48.45 451.64 33.94 449.01 23.81 440.19 C 18.43 435.90 19.83 428.34 20.71 422.49 C 22.64 412.08 29.77 403.34 39.03 398.41 C 38.31 397.83 37.59 397.26 36.87 396.70 C 26.71 402.47 19.41 412.62 17.20 424.06 C 17.16 429.24 15.90 435.83 20.15 439.86 C 30.89 451.10 47.90 455.88 62.92 451.92 C 67.48 449.51 70.50 444.62 71.65 439.68 C 73.75 425.52 70.13 411.05 63.45 398.57 C 55.15 385.95 33.74 382.24 23.67 394.66 M 863.69 423.75 C 855.08 427.18 849.01 434.56 841.28 439.44 C 837.32 441.59 836.05 446.10 835.05 450.15 C 842.31 442.69 849.78 435.34 858.34 429.35 C 868.65 422.80 881.44 426.98 892.84 426.06 C 898.48 435.31 905.27 443.74 914.71 449.38 C 918.07 462.51 923.33 475.16 925.51 488.59 C 927.35 498.62 927.23 508.87 927.15 519.03 C 927.32 536.36 920.00 552.42 915.60 568.87 C 913.92 575.57 907.56 579.42 904.14 585.10 C 898.85 591.02 897.57 599.07 893.69 605.74 C 887.67 612.06 878.80 615.79 870.03 615.16 C 854.09 616.52 837.11 610.76 827.29 597.72 C 805.80 570.69 801.55 532.96 810.42 500.26 C 816.05 485.51 823.69 469.69 838.90 462.81 C 846.87 457.60 856.45 457.68 865.62 457.43 C 865.61 456.85 865.59 455.70 865.58 455.13 C 858.03 455.47 849.78 453.92 842.91 457.79 C 818.27 468.50 805.48 495.71 803.35 521.31 C 802.20 543.33 805.29 566.39 816.22 585.88 C 824.70 600.68 837.75 614.40 855.23 617.55 C 867.78 618.86 882.40 619.64 892.32 610.31 C 899.50 604.75 900.24 595.19 905.02 588.05 C 909.65 580.12 918.09 574.47 919.82 564.98 C 923.08 552.94 927.74 541.25 929.58 528.86 C 930.54 517.40 930.40 505.85 929.39 494.42 C 927.68 478.53 921.28 463.75 917.68 448.30 C 913.76 445.57 909.94 442.72 906.24 439.75 C 900.96 434.75 898.29 426.87 891.80 423.33 C 882.53 422.09 872.93 422.64 863.69 423.75 M 555.28 449.36 C 540.72 454.53 526.71 461.41 513.63 469.61 C 502.82 478.46 490.66 485.41 479.57 493.89 C 481.63 488.41 483.76 482.91 486.86 477.92 C 491.20 470.40 498.70 465.64 505.26 460.26 C 512.31 453.33 522.43 453.14 531.54 451.55 C 531.55 450.93 531.56 449.68 531.57 449.06 C 525.88 449.53 520.20 450.36 514.65 451.68 C 508.95 453.21 504.70 457.67 500.16 461.14 C 494.32 466.30 487.37 470.70 483.80 477.89 C 479.91 483.90 478.64 491.10 475.26 497.33 C 471.43 500.13 467.05 502.08 462.88 504.33 C 463.24 504.77 463.97 505.64 464.33 506.08 C 467.88 504.44 471.43 502.78 474.98 501.13 C 473.40 512.59 471.08 524.09 471.58 535.71 C 475.90 551.20 485.09 566.70 500.37 573.51 C 511.91 578.06 524.20 580.23 536.31 582.66 C 560.55 587.60 585.90 587.44 610.04 582.06 C 627.78 578.25 643.82 565.41 650.39 548.38 C 653.23 536.22 652.46 523.27 649.73 511.16 C 644.75 499.10 636.47 488.75 628.17 478.82 C 619.78 469.81 611.24 460.44 599.96 455.03 C 586.61 447.38 570.09 443.97 555.28 449.36 M 326.62 503.54 C 317.55 508.33 309.17 514.99 303.94 523.95 C 298.93 530.86 299.28 539.89 299.05 548.00 C 299.34 558.24 299.54 569.40 306.00 577.99 C 310.78 586.01 319.17 591.37 328.04 593.81 C 338.74 594.51 349.63 594.64 360.27 593.17 C 367.57 590.06 374.21 585.39 379.97 579.99 C 385.40 571.29 388.40 559.69 384.00 549.98 C 378.41 537.82 372.39 525.10 361.20 517.04 C 366.46 526.25 374.24 533.86 378.19 543.91 C 387.09 557.54 383.65 578.93 368.09 586.14 C 359.25 593.36 347.43 590.92 336.96 591.16 C 325.85 591.92 313.71 586.81 308.15 576.82 C 300.72 565.27 301.82 550.70 302.54 537.64 C 304.47 517.02 325.59 501.77 345.63 503.37 C 345.61 502.80 345.58 501.65 345.56 501.08 C 339.22 501.32 332.35 500.33 326.62 503.54 M 143.14 554.26 C 135.26 558.50 125.87 557.26 117.66 560.56 C 108.52 562.95 101.43 569.44 94.52 575.51 C 98.27 575.64 101.31 573.37 103.96 570.98 C 112.54 563.45 124.22 561.32 135.16 559.83 C 122.03 573.84 111.03 591.03 111.03 610.96 C 110.15 620.40 118.39 626.80 125.19 631.66 C 142.24 640.90 161.46 644.97 180.52 647.63 C 201.24 651.30 222.51 650.69 243.35 648.46 C 254.99 647.11 267.63 642.41 273.69 631.69 C 274.86 624.05 273.66 615.86 270.07 608.96 C 263.55 597.82 253.19 589.50 242.60 582.43 C 229.85 575.06 215.28 571.92 201.86 566.09 C 195.84 563.44 189.38 561.95 182.88 561.12 C 169.79 559.44 156.83 556.74 143.61 556.25 C 148.15 554.79 152.82 553.83 157.54 553.19 C 157.55 552.63 157.56 551.51 157.56 550.95 C 152.60 551.31 147.52 551.64 143.14 554.26 M 626.42 614.99 C 617.71 616.98 609.10 619.90 600.02 619.00 C 574.08 617.71 548.56 623.02 523.11 627.17 C 507.35 631.05 491.00 631.82 475.38 636.26 C 465.07 638.49 454.14 637.98 444.32 642.30 C 436.91 646.03 430.20 650.96 423.03 655.10 C 415.68 659.33 409.64 665.91 407.23 674.15 C 406.06 682.52 395.33 687.29 398.45 696.57 C 399.37 704.42 408.03 707.45 413.67 711.43 C 418.89 714.36 419.64 721.12 424.28 724.70 C 431.03 730.71 441.03 725.03 448.40 729.53 C 459.90 735.91 471.21 743.57 484.51 745.55 C 498.30 747.68 512.05 750.41 526.04 750.81 C 545.56 751.44 564.66 755.77 584.03 757.74 C 601.35 758.08 618.67 758.83 636.00 759.09 C 659.88 759.68 683.45 755.31 707.04 752.32 C 727.01 751.29 747.55 753.74 766.98 747.76 C 795.90 741.46 824.06 732.24 852.59 724.46 C 863.55 719.97 875.18 716.17 884.26 708.25 C 889.88 702.39 895.05 694.58 893.94 686.04 C 894.05 677.24 888.17 670.21 883.82 663.10 C 879.53 656.15 870.81 654.38 865.34 648.66 C 856.47 640.32 847.38 631.64 835.88 627.07 C 825.50 621.98 813.59 623.33 802.48 621.33 C 770.00 615.21 736.79 619.05 704.00 618.04 C 678.02 619.03 652.35 610.81 626.42 614.99 Z" />
<path fill="#eec39a" opacity="1.00" d=" M 53.09 56.70 C 60.57 52.63 69.52 51.90 77.80 53.28 C 83.92 56.96 88.40 62.82 92.37 68.64 C 101.57 82.99 103.65 100.38 106.16 116.86 C 107.58 134.22 107.56 151.75 106.17 169.11 C 104.72 176.05 104.90 183.73 100.88 189.86 C 92.13 196.56 78.82 195.41 70.63 188.37 C 64.98 181.23 60.36 173.35 54.91 166.06 C 52.93 163.30 50.68 160.54 49.84 157.17 C 46.36 143.06 47.00 128.40 46.87 114.00 C 46.16 94.67 50.58 75.74 53.09 56.70 Z" />
<path fill="#eec39a" opacity="1.00" d=" M 371.03 100.05 C 379.18 98.45 387.12 102.07 394.05 105.97 C 398.21 108.31 398.89 113.75 398.93 118.02 C 400.09 128.27 396.05 138.66 389.18 146.18 C 374.86 162.98 352.21 172.85 330.12 170.74 C 315.79 168.38 301.96 163.81 287.92 160.21 C 275.91 157.73 265.22 151.60 253.96 147.05 C 247.03 144.01 239.75 141.65 233.29 137.65 C 231.16 136.13 230.25 133.58 229.18 131.31 C 236.16 128.48 243.25 125.93 250.28 123.24 C 268.62 115.71 288.52 113.41 307.85 109.72 C 328.78 105.65 350.00 103.50 371.03 100.05 Z" />
<path fill="#eec39a" opacity="1.00" d=" M 110.14 220.19 C 119.44 217.21 129.45 216.90 138.99 214.98 C 143.29 214.99 146.88 217.73 150.34 219.97 C 149.04 225.44 148.43 231.42 145.07 236.11 C 139.78 240.91 133.75 246.48 125.98 245.98 C 117.93 246.01 105.64 247.37 101.47 238.50 C 100.63 231.59 103.02 222.83 110.14 220.19 Z" />
<path fill="#eec39a" opacity="1.00" d=" M 342.45 222.60 C 372.28 221.29 402.15 222.30 432.00 221.98 C 455.03 222.51 479.95 221.24 500.51 233.42 C 504.81 235.74 506.44 240.74 508.04 245.07 C 510.45 252.16 506.42 259.63 502.06 265.04 C 494.82 272.89 486.48 280.27 475.74 282.68 C 457.23 288.20 439.22 295.91 420.15 299.19 C 363.04 304.81 305.41 307.32 248.14 302.69 C 235.40 300.89 222.37 299.49 210.38 294.51 C 207.30 292.92 206.02 289.28 204.68 286.32 C 203.49 278.63 202.80 269.98 207.10 263.06 C 213.08 252.24 221.94 242.04 234.02 238.11 C 242.43 235.75 251.06 234.34 259.63 232.66 C 275.04 229.87 290.36 226.15 306.05 225.26 C 318.19 224.46 330.31 223.41 342.45 222.60 Z" />
<path fill="#eec39a" opacity="1.00" d=" M 31.75 244.76 C 38.81 235.30 49.50 229.70 58.79 222.76 C 67.28 228.46 79.34 231.31 83.35 241.68 C 84.95 248.99 81.36 256.24 76.66 261.60 C 70.79 265.33 63.59 267.87 56.57 266.56 C 46.48 264.88 36.05 260.57 30.41 251.53 C 29.64 249.10 30.30 246.65 31.75 244.76 Z" />
<path fill="#eec39a" opacity="1.00" d=" M 166.43 294.40 C 169.04 290.88 171.90 287.54 174.93 284.37 C 185.84 290.17 187.01 303.48 188.46 314.46 C 188.79 318.46 190.16 325.32 185.36 327.43 C 175.07 330.07 162.57 321.25 163.87 310.02 C 164.06 304.83 163.24 298.91 166.43 294.40 Z" />
<path fill="#eec39a" opacity="1.00" d=" M 47.14 315.32 C 59.14 319.78 66.36 331.17 71.84 342.12 C 74.10 347.86 77.26 355.29 72.71 360.68 C 72.09 361.64 70.87 363.54 70.26 364.50 C 64.26 363.76 57.54 365.10 52.04 361.96 C 46.70 359.36 42.99 354.22 41.58 348.54 C 39.83 337.19 42.45 325.65 47.14 315.32 Z" />
<path fill="#eec39a" opacity="1.00" d=" M 224.09 319.71 C 232.75 316.03 241.02 322.04 247.17 327.83 C 250.44 331.91 254.54 336.25 253.98 341.99 C 254.58 348.58 248.34 352.35 244.29 356.32 C 236.55 362.93 224.56 359.52 217.69 353.32 C 210.04 347.08 209.17 334.86 215.08 327.11 C 217.34 323.06 222.96 324.46 226.82 323.26 C 225.92 322.07 225.00 320.88 224.09 319.71 Z" />
<path fill="#eec39a" opacity="1.00" d=" M 120.86 327.55 C 135.88 326.30 149.55 334.04 160.46 343.55 C 165.75 349.04 169.06 359.67 162.43 365.39 C 149.29 376.05 131.10 376.46 115.11 373.78 C 109.40 372.84 108.98 365.48 109.09 361.03 C 110.71 349.20 115.49 338.11 120.86 327.55 Z" />
<path fill="#eec39a" opacity="1.00" d=" M 561.34 450.61 C 573.87 448.19 586.89 450.97 597.99 457.02 C 613.27 464.15 624.65 477.22 634.53 490.52 C 641.21 499.36 647.90 509.18 648.45 520.65 C 648.96 531.67 650.67 543.89 644.92 553.94 C 639.43 564.80 629.00 572.36 617.92 576.81 C 588.53 585.74 556.87 584.67 527.14 577.85 C 514.16 574.73 499.77 572.89 489.57 563.43 C 481.64 554.23 474.48 542.84 474.44 530.36 C 475.43 520.04 475.79 509.50 478.67 499.49 C 485.73 489.62 497.79 485.45 506.84 477.82 C 516.51 469.44 528.30 464.23 539.68 458.66 C 546.66 455.39 553.85 452.50 561.34 450.61 Z" />
<path fill="#eec39a" opacity="1.00" d=" M 138.51 560.49 C 151.58 558.75 164.58 561.56 177.48 563.35 C 185.49 564.44 193.65 565.50 201.12 568.79 C 214.56 574.67 229.09 577.87 241.97 585.05 C 252.25 591.74 262.69 599.58 268.07 610.97 C 270.69 617.48 271.88 624.73 270.71 631.70 C 266.79 638.85 258.60 642.04 251.10 644.06 C 222.09 649.42 192.14 647.77 163.37 641.66 C 151.47 639.83 140.14 635.60 129.17 630.79 C 121.40 627.27 113.15 620.47 114.03 610.96 C 114.67 591.76 123.98 572.91 138.51 560.49 Z" />
</g>
<g id="#c2976fff">
<path fill="#c2976f" opacity="1.00" d=" M 59.80 20.51 C 60.36 20.49 61.49 20.45 62.06 20.43 C 61.20 31.62 54.23 41.22 53.69 52.54 C 61.52 50.65 69.74 48.94 77.80 50.23 C 90.72 59.13 99.90 72.93 103.71 88.10 C 108.01 104.35 110.35 121.17 110.14 138.00 C 110.16 154.05 110.44 170.44 105.88 186.00 C 99.38 201.23 76.12 200.24 67.16 187.89 C 60.26 178.08 52.87 168.51 47.22 157.90 C 43.04 143.70 44.15 128.62 43.87 114.00 C 43.13 95.32 47.37 77.04 49.79 58.64 C 41.59 63.19 33.98 68.70 26.09 73.75 C 30.93 65.03 40.74 61.92 48.29 56.23 C 50.82 54.49 50.58 50.98 51.37 48.34 C 52.79 38.67 57.57 29.97 59.80 20.51 M 53.09 56.70 C 50.58 75.74 46.16 94.67 46.87 114.00 C 47.00 128.40 46.36 143.06 49.84 157.17 C 50.68 160.54 52.93 163.30 54.91 166.06 C 60.36 173.35 64.98 181.23 70.63 188.37 C 78.82 195.41 92.13 196.56 100.88 189.86 C 104.90 183.73 104.72 176.05 106.17 169.11 C 107.56 151.75 107.58 134.22 106.16 116.86 C 103.65 100.38 101.57 82.99 92.37 68.64 C 88.40 62.82 83.92 56.96 77.80 53.28 C 69.52 51.90 60.57 52.63 53.09 56.70 Z" />
<path fill="#c2976f" opacity="1.00" d=" M 666.64 47.92 C 672.97 44.75 679.75 42.39 686.97 42.85 C 700.92 41.52 713.59 48.64 727.00 51.08 C 736.63 52.45 743.32 59.80 750.86 65.13 C 766.36 76.98 782.63 87.87 797.60 100.42 C 820.66 125.97 841.67 153.32 861.67 181.32 C 869.76 195.22 878.88 208.55 885.83 223.09 C 893.56 240.55 901.44 258.09 905.16 276.96 C 911.54 297.59 910.88 319.46 908.68 340.70 C 906.58 354.34 900.38 367.68 889.88 376.88 C 881.55 385.95 871.69 394.18 859.48 397.16 C 846.96 399.53 833.87 400.97 821.36 397.73 C 805.18 394.30 788.79 391.93 772.65 388.33 C 762.85 385.14 753.75 380.11 744.72 375.24 C 725.02 361.29 705.63 344.71 695.90 322.04 C 686.37 301.07 681.75 278.02 681.23 255.04 C 682.40 218.84 686.80 181.84 701.46 148.39 C 704.84 138.33 707.36 127.96 712.06 118.38 C 714.81 118.88 717.84 119.46 720.56 120.39 C 718.08 121.09 715.61 121.76 713.15 122.41 C 710.46 128.98 708.55 135.82 706.49 142.61 C 703.85 151.26 699.39 159.24 697.11 168.02 C 687.60 199.37 684.82 232.25 684.32 264.86 C 686.64 290.35 693.63 315.88 707.42 337.63 C 724.75 359.99 748.42 378.44 775.99 385.97 C 792.50 389.25 809.09 392.14 825.62 395.38 C 846.59 399.36 870.69 394.89 885.38 378.39 C 896.60 369.23 903.30 355.52 905.32 341.34 C 906.60 330.61 907.10 319.79 907.14 308.99 C 907.94 293.87 902.34 279.50 899.06 264.98 C 896.30 253.05 890.79 242.08 886.23 230.81 C 879.15 213.21 868.15 197.64 858.67 181.32 C 839.57 154.41 819.20 128.37 797.38 103.62 C 780.23 88.51 760.77 76.29 742.91 62.05 C 734.04 53.67 721.18 53.17 710.13 49.59 C 696.69 45.43 681.24 43.30 668.28 49.98 C 667.87 49.47 667.05 48.44 666.64 47.92 Z" />
<path fill="#c2976f" opacity="1.00" d=" M 575.39 73.28 C 584.74 73.76 595.41 70.47 603.69 76.31 C 611.49 83.41 614.73 93.70 619.10 102.96 C 627.20 120.67 627.55 140.44 629.48 159.45 C 631.52 183.15 629.21 207.07 622.96 229.99 C 619.30 246.13 609.19 260.12 597.19 271.18 C 588.43 275.93 577.66 274.17 569.04 269.92 C 560.64 266.07 555.27 258.23 549.87 251.09 C 542.37 242.11 540.47 230.07 537.87 219.03 C 530.52 189.40 527.81 157.85 534.17 127.79 C 535.12 112.99 536.64 98.24 537.37 83.42 C 537.96 83.41 539.15 83.39 539.75 83.38 C 539.79 103.38 538.88 123.59 534.72 143.21 C 533.35 154.76 533.86 166.42 534.05 178.02 C 534.76 196.43 539.97 214.24 543.92 232.13 C 546.24 241.83 551.82 250.30 558.09 257.90 C 566.49 269.07 582.86 273.95 595.92 268.93 C 607.03 259.78 614.77 246.72 619.17 233.09 C 629.44 197.21 628.71 159.15 622.43 122.63 C 620.63 111.45 615.37 101.39 610.78 91.18 C 608.09 85.73 605.40 79.11 599.04 77.05 C 591.31 75.33 583.25 76.09 575.39 75.61 C 575.39 75.03 575.39 73.86 575.39 73.28 Z" />
<path fill="#c2976f" opacity="1.00" d=" M 230.39 106.41 C 268.57 97.66 307.88 94.59 347.00 94.88 C 360.71 95.02 375.32 93.82 388.04 99.96 C 393.64 102.43 399.99 106.18 401.40 112.63 C 402.31 119.17 402.66 126.02 400.35 132.35 C 396.11 144.82 385.48 153.55 375.58 161.55 C 361.08 170.85 343.25 176.57 325.98 173.03 C 313.13 170.43 300.60 166.50 287.92 163.21 C 273.46 160.06 260.70 152.22 246.93 147.14 C 238.62 143.67 228.19 140.14 226.07 130.20 C 233.75 125.98 242.15 123.39 250.29 120.25 C 268.61 112.68 288.52 110.43 307.85 106.72 C 325.58 103.23 343.55 101.29 361.38 98.45 C 319.23 96.71 276.58 98.77 235.38 108.38 C 224.02 111.05 212.28 112.35 201.29 116.42 C 194.08 118.31 190.23 125.11 185.66 130.38 C 184.49 123.99 191.46 120.28 195.27 116.27 C 206.00 110.22 218.59 109.20 230.39 106.41 M 371.03 100.05 C 350.00 103.50 328.78 105.65 307.85 109.72 C 288.52 113.41 268.62 115.71 250.28 123.24 C 243.25 125.93 236.16 128.48 229.18 131.31 C 230.25 133.58 231.16 136.13 233.29 137.65 C 239.75 141.65 247.03 144.01 253.96 147.05 C 265.22 151.60 275.91 157.73 287.92 160.21 C 301.96 163.81 315.79 168.38 330.12 170.74 C 352.21 172.85 374.86 162.98 389.18 146.18 C 396.05 138.66 400.09 128.27 398.93 118.02 C 398.89 113.75 398.21 108.31 394.05 105.97 C 387.12 102.07 379.18 98.45 371.03 100.05 Z" />
<path fill="#c2976f" opacity="1.00" d=" M 299.90 213.93 C 314.99 211.21 330.34 210.43 345.60 209.21 C 345.59 209.80 345.56 210.98 345.55 211.57 C 328.73 213.97 311.58 214.01 295.00 218.03 C 280.07 221.71 264.96 225.08 250.70 230.94 C 271.50 228.23 291.86 222.22 312.95 221.78 C 354.18 217.60 395.65 219.26 437.01 219.02 C 458.66 219.48 482.05 219.04 501.14 230.82 C 507.26 234.02 510.02 241.01 511.58 247.37 C 512.72 256.20 506.56 263.83 500.68 269.66 C 494.82 274.81 489.39 281.15 481.67 283.50 C 470.70 287.65 459.45 290.97 448.28 294.49 C 438.49 297.55 428.85 301.47 418.55 302.38 C 361.96 307.80 304.88 310.31 248.14 305.69 C 235.40 303.87 222.34 302.54 210.39 297.46 C 200.39 291.43 199.11 278.28 201.89 267.96 C 205.95 256.68 215.04 248.45 223.35 240.25 C 210.18 243.12 197.08 246.42 184.14 250.21 C 168.97 256.03 153.61 261.91 140.12 271.13 C 128.77 278.19 119.24 287.96 107.11 293.78 C 116.12 284.72 126.85 277.68 137.05 270.07 C 159.32 255.13 184.94 245.80 211.01 240.06 C 219.68 237.78 228.80 236.83 236.99 232.96 C 257.12 224.11 278.63 219.16 299.90 213.93 M 342.45 222.60 C 330.31 223.41 318.19 224.46 306.05 225.26 C 290.36 226.15 275.04 229.87 259.63 232.66 C 251.06 234.34 242.43 235.75 234.02 238.11 C 221.94 242.04 213.08 252.24 207.10 263.06 C 202.80 269.98 203.49 278.63 204.68 286.32 C 206.02 289.28 207.30 292.92 210.38 294.51 C 222.37 299.49 235.40 300.89 248.14 302.69 C 305.41 307.32 363.04 304.81 420.15 299.19 C 439.22 295.91 457.23 288.20 475.74 282.68 C 486.48 280.27 494.82 272.89 502.06 265.04 C 506.42 259.63 510.45 252.16 508.04 245.07 C 506.44 240.74 504.81 235.74 500.51 233.42 C 479.95 221.24 455.03 222.51 432.00 221.98 C 402.15 222.30 372.28 221.29 342.45 222.60 Z" />
<path fill="#c2976f" opacity="1.00" d=" M 126.53 212.95 C 132.84 212.22 140.15 210.56 145.96 214.03 C 148.44 215.96 152.62 217.38 152.74 221.10 C 152.67 237.02 136.79 250.89 121.00 249.15 C 112.33 249.38 102.20 247.50 98.29 238.60 C 97.91 232.48 99.42 225.38 104.31 221.33 C 110.18 215.43 118.88 214.88 126.53 212.95 M 110.14 220.19 C 103.02 222.83 100.63 231.59 101.47 238.50 C 105.64 247.37 117.93 246.01 125.98 245.98 C 133.75 246.48 139.78 240.91 145.07 236.11 C 148.43 231.42 149.04 225.44 150.34 219.97 C 146.88 217.73 143.29 214.99 138.99 214.98 C 129.45 216.90 119.44 217.21 110.14 220.19 Z" />
<path fill="#c2976f" opacity="1.00" d=" M 43.09 219.79 C 49.66 220.48 56.90 218.66 62.92 222.13 C 70.36 225.95 77.92 230.12 83.64 236.35 C 89.04 243.05 86.52 252.56 81.82 258.89 C 78.93 264.18 73.16 266.85 67.73 268.79 C 55.80 271.96 42.91 266.96 33.84 259.18 C 30.28 255.80 24.99 251.60 27.95 245.98 C 34.47 236.13 44.76 229.87 54.14 223.06 C 49.81 223.14 45.48 223.26 41.14 223.36 C 41.78 222.16 42.44 220.97 43.09 219.79 M 31.75 244.76 C 30.30 246.65 29.64 249.10 30.41 251.53 C 36.05 260.57 46.48 264.88 56.57 266.56 C 63.59 267.87 70.79 265.33 76.66 261.60 C 81.36 256.24 84.95 248.99 83.35 241.68 C 79.34 231.31 67.28 228.46 58.79 222.76 C 49.50 229.70 38.81 235.30 31.75 244.76 Z" />
<path fill="#c2976f" opacity="1.00" d=" M 168.05 282.83 C 172.54 282.01 176.78 280.37 180.91 278.48 C 180.13 280.18 179.29 281.86 178.44 283.52 C 188.47 290.54 189.91 303.26 191.47 314.46 C 192.34 319.16 192.42 324.96 188.29 328.29 C 184.77 332.42 178.27 331.35 174.05 328.92 C 166.97 325.86 160.62 319.17 160.97 310.99 C 160.91 305.71 159.92 299.75 163.32 295.21 C 165.04 291.25 170.25 287.66 168.05 282.83 M 166.43 294.40 C 163.24 298.91 164.06 304.83 163.87 310.02 C 162.57 321.25 175.07 330.07 185.36 327.43 C 190.16 325.32 188.79 318.46 188.46 314.46 C 187.01 303.48 185.84 290.17 174.93 284.37 C 171.90 287.54 169.04 290.88 166.43 294.40 Z" />
<path fill="#c2976f" opacity="1.00" d=" M 42.32 319.33 C 43.51 315.91 45.83 313.10 48.48 310.71 C 54.08 316.38 61.17 320.56 65.68 327.29 C 71.87 335.95 78.63 345.69 77.88 356.88 C 76.44 360.65 73.42 363.81 70.18 366.15 C 56.83 371.14 42.12 361.66 38.50 348.56 C 37.19 338.71 38.87 328.59 42.32 319.33 M 47.14 315.32 C 42.45 325.65 39.83 337.19 41.58 348.54 C 42.99 354.22 46.70 359.36 52.04 361.96 C 57.54 365.10 64.26 363.76 70.26 364.50 C 70.87 363.54 72.09 361.64 72.71 360.68 C 77.26 355.29 74.10 347.86 71.84 342.12 C 66.36 331.17 59.14 319.78 47.14 315.32 Z" />
<path fill="#c2976f" opacity="1.00" d=" M 227.47 315.56 C 234.08 313.55 239.32 319.45 244.46 322.51 C 250.24 327.51 257.11 333.67 256.98 342.00 C 258.16 347.47 253.03 350.53 250.20 354.19 C 246.62 357.32 243.18 361.27 238.34 362.37 C 223.44 365.43 206.98 351.42 208.21 336.13 C 210.35 326.49 218.40 318.86 227.47 315.56 M 224.09 319.71 C 225.00 320.88 225.92 322.07 226.82 323.26 C 222.96 324.46 217.34 323.06 215.08 327.11 C 209.17 334.86 210.04 347.08 217.69 353.32 C 224.56 359.52 236.55 362.93 244.29 356.32 C 248.34 352.35 254.58 348.58 253.98 341.99 C 254.54 336.25 250.44 331.91 247.17 327.83 C 241.02 322.04 232.75 316.03 224.09 319.71 Z" />
<path fill="#c2976f" opacity="1.00" d=" M 110.53 331.31 C 115.44 328.66 120.02 324.46 126.02 325.02 C 139.05 324.17 150.15 332.67 160.00 340.00 C 168.48 345.89 173.46 360.39 163.69 367.64 C 150.27 378.75 131.61 379.70 115.12 376.75 C 108.51 374.90 105.24 367.47 106.09 361.03 C 107.11 351.12 111.47 342.14 114.92 332.94 C 113.45 332.40 111.98 331.87 110.53 331.31 M 120.86 327.55 C 115.49 338.11 110.71 349.20 109.09 361.03 C 108.98 365.48 109.40 372.84 115.11 373.78 C 131.10 376.46 149.29 376.05 162.43 365.39 C 169.06 359.67 165.75 349.04 160.46 343.55 C 149.55 334.04 135.88 326.30 120.86 327.55 Z" />
<path fill="#c2976f" opacity="1.00" d=" M 311.46 362.53 C 384.78 350.39 458.85 343.23 533.05 339.32 C 544.13 338.71 555.29 340.20 565.98 343.05 C 569.82 344.46 570.45 349.46 569.96 352.95 C 567.68 361.78 561.28 368.70 555.14 375.10 C 533.63 389.98 509.09 399.33 484.94 408.95 C 464.71 416.17 444.42 423.29 424.00 429.94 C 394.29 437.19 364.74 445.34 334.59 450.60 C 299.16 457.61 263.68 464.44 228.02 470.08 C 202.41 472.79 176.81 476.52 151.00 476.05 C 134.32 475.90 117.65 476.22 100.97 476.01 C 93.76 476.42 86.89 473.82 80.37 471.09 C 84.22 460.20 91.60 450.68 100.99 444.01 C 115.03 434.02 129.99 425.45 144.85 416.78 C 149.76 413.87 154.85 411.18 160.26 409.33 C 149.03 419.43 134.67 424.97 122.12 433.17 C 111.47 440.63 98.49 445.87 90.92 456.94 C 88.07 461.02 85.78 465.48 83.59 469.94 C 96.64 474.04 110.52 472.97 124.00 473.06 C 141.23 472.83 158.47 473.44 175.69 472.62 C 194.68 470.57 213.72 468.95 232.68 466.64 C 258.64 462.23 284.55 457.48 310.39 452.42 C 331.93 447.95 353.70 444.59 375.00 439.02 C 396.62 433.39 418.76 429.52 439.78 421.79 C 458.15 415.13 476.96 409.61 494.96 401.94 C 508.41 396.21 522.35 391.48 535.04 384.10 C 543.62 378.91 553.59 375.08 559.65 366.66 C 563.43 361.47 567.43 355.78 567.06 349.01 C 567.47 346.43 564.18 344.72 561.99 345.06 C 541.93 340.47 521.31 342.51 501.05 344.10 C 425.09 348.66 349.45 358.02 274.58 371.56 C 234.74 379.89 194.46 387.33 156.06 401.11 C 139.11 407.20 125.28 418.92 111.16 429.67 C 122.63 414.01 140.67 404.65 158.13 397.19 C 208.02 380.90 259.73 370.92 311.46 362.53 Z" />
<path fill="#c2976f" opacity="1.00" d=" M 23.67 394.66 C 33.74 382.24 55.15 385.95 63.45 398.57 C 70.13 411.05 73.75 425.52 71.65 439.68 C 70.50 444.62 67.48 449.51 62.92 451.92 C 47.90 455.88 30.89 451.10 20.15 439.86 C 15.90 435.83 17.16 429.24 17.20 424.06 C 19.41 412.62 26.71 402.47 36.87 396.70 C 37.59 397.26 38.31 397.83 39.03 398.41 C 29.77 403.34 22.64 412.08 20.71 422.49 C 19.83 428.34 18.43 435.90 23.81 440.19 C 33.94 449.01 48.45 451.64 61.43 449.49 C 67.67 447.98 68.76 440.30 68.92 434.97 C 70.29 423.14 66.88 411.61 61.82 401.10 C 58.22 392.70 48.21 390.31 39.97 390.06 C 34.07 389.80 29.26 393.55 23.67 394.66 Z" />
<path fill="#c2976f" opacity="1.00" d=" M 863.69 423.75 C 872.93 422.64 882.53 422.09 891.80 423.33 C 898.29 426.87 900.96 434.75 906.24 439.75 C 909.94 442.72 913.76 445.57 917.68 448.30 C 921.28 463.75 927.68 478.53 929.39 494.42 C 930.40 505.85 930.54 517.40 929.58 528.86 C 927.74 541.25 923.08 552.94 919.82 564.98 C 918.09 574.47 909.65 580.12 905.02 588.05 C 900.24 595.19 899.50 604.75 892.32 610.31 C 882.40 619.64 867.78 618.86 855.23 617.55 C 837.75 614.40 824.70 600.68 816.22 585.88 C 805.29 566.39 802.20 543.33 803.35 521.31 C 805.48 495.71 818.27 468.50 842.91 457.79 C 849.78 453.92 858.03 455.47 865.58 455.13 C 865.59 455.70 865.61 456.85 865.62 457.43 C 856.45 457.68 846.87 457.60 838.90 462.81 C 823.69 469.69 816.05 485.51 810.42 500.26 C 801.55 532.96 805.80 570.69 827.29 597.72 C 837.11 610.76 854.09 616.52 870.03 615.16 C 878.80 615.79 887.67 612.06 893.69 605.74 C 897.57 599.07 898.85 591.02 904.14 585.10 C 907.56 579.42 913.92 575.57 915.60 568.87 C 920.00 552.42 927.32 536.36 927.15 519.03 C 927.23 508.87 927.35 498.62 925.51 488.59 C 923.33 475.16 918.07 462.51 914.71 449.38 C 905.27 443.74 898.48 435.31 892.84 426.06 C 881.44 426.98 868.65 422.80 858.34 429.35 C 849.78 435.34 842.31 442.69 835.05 450.15 C 836.05 446.10 837.32 441.59 841.28 439.44 C 849.01 434.56 855.08 427.18 863.69 423.75 Z" />
<path fill="#c2976f" opacity="1.00" d=" M 555.28 449.36 C 570.09 443.97 586.61 447.38 599.96 455.03 C 611.24 460.44 619.78 469.81 628.17 478.82 C 636.47 488.75 644.75 499.10 649.73 511.16 C 652.46 523.27 653.23 536.22 650.39 548.38 C 643.82 565.41 627.78 578.25 610.04 582.06 C 585.90 587.44 560.55 587.60 536.31 582.66 C 524.20 580.23 511.91 578.06 500.37 573.51 C 485.09 566.70 475.90 551.20 471.58 535.71 C 471.08 524.09 473.40 512.59 474.98 501.13 C 471.43 502.78 467.88 504.44 464.33 506.08 C 463.97 505.64 463.24 504.77 462.88 504.33 C 467.05 502.08 471.43 500.13 475.26 497.33 C 478.64 491.10 479.91 483.90 483.80 477.89 C 487.37 470.70 494.32 466.30 500.16 461.14 C 504.70 457.67 508.95 453.21 514.65 451.68 C 520.20 450.36 525.88 449.53 531.57 449.06 C 531.56 449.68 531.55 450.93 531.54 451.55 C 522.43 453.14 512.31 453.33 505.26 460.26 C 498.70 465.64 491.20 470.40 486.86 477.92 C 483.76 482.91 481.63 488.41 479.57 493.89 C 490.66 485.41 502.82 478.46 513.63 469.61 C 526.71 461.41 540.72 454.53 555.28 449.36 M 561.34 450.61 C 553.85 452.50 546.66 455.39 539.68 458.66 C 528.30 464.23 516.51 469.44 506.84 477.82 C 497.79 485.45 485.73 489.62 478.67 499.49 C 475.79 509.50 475.43 520.04 474.44 530.36 C 474.48 542.84 481.64 554.23 489.57 563.43 C 499.77 572.89 514.16 574.73 527.14 577.85 C 556.87 584.67 588.53 585.74 617.92 576.81 C 629.00 572.36 639.43 564.80 644.92 553.94 C 650.67 543.89 648.96 531.67 648.45 520.65 C 647.90 509.18 641.21 499.36 634.53 490.52 C 624.65 477.22 613.27 464.15 597.99 457.02 C 586.89 450.97 573.87 448.19 561.34 450.61 Z" />
<path fill="#c2976f" opacity="1.00" d=" M 326.62 503.54 C 332.35 500.33 339.22 501.32 345.56 501.08 C 345.58 501.65 345.61 502.80 345.63 503.37 C 325.59 501.77 304.47 517.02 302.54 537.64 C 301.82 550.70 300.72 565.27 308.15 576.82 C 313.71 586.81 325.85 591.92 336.96 591.16 C 347.43 590.92 359.25 593.36 368.09 586.14 C 383.65 578.93 387.09 557.54 378.19 543.91 C 374.24 533.86 366.46 526.25 361.20 517.04 C 372.39 525.10 378.41 537.82 384.00 549.98 C 388.40 559.69 385.40 571.29 379.97 579.99 C 374.21 585.39 367.57 590.06 360.27 593.17 C 349.63 594.64 338.74 594.51 328.04 593.81 C 319.17 591.37 310.78 586.01 306.00 577.99 C 299.54 569.40 299.34 558.24 299.05 548.00 C 299.28 539.89 298.93 530.86 303.94 523.95 C 309.17 514.99 317.55 508.33 326.62 503.54 Z" />
<path fill="#c2976f" opacity="1.00" d=" M 143.14 554.26 C 147.52 551.64 152.60 551.31 157.56 550.95 C 157.56 551.51 157.55 552.63 157.54 553.19 C 152.82 553.83 148.15 554.79 143.61 556.25 C 156.83 556.74 169.79 559.44 182.88 561.12 C 189.38 561.95 195.84 563.44 201.86 566.09 C 215.28 571.92 229.85 575.06 242.60 582.43 C 253.19 589.50 263.55 597.82 270.07 608.96 C 273.66 615.86 274.86 624.05 273.69 631.69 C 267.63 642.41 254.99 647.11 243.35 648.46 C 222.51 650.69 201.24 651.30 180.52 647.63 C 161.46 644.97 142.24 640.90 125.19 631.66 C 118.39 626.80 110.15 620.40 111.03 610.96 C 111.03 591.03 122.03 573.84 135.16 559.83 C 124.22 561.32 112.54 563.45 103.96 570.98 C 101.31 573.37 98.27 575.64 94.52 575.51 C 101.43 569.44 108.52 562.95 117.66 560.56 C 125.87 557.26 135.26 558.50 143.14 554.26 M 138.51 560.49 C 123.98 572.91 114.67 591.76 114.03 610.96 C 113.15 620.47 121.40 627.27 129.17 630.79 C 140.14 635.60 151.47 639.83 163.37 641.66 C 192.14 647.77 222.09 649.42 251.10 644.06 C 258.60 642.04 266.79 638.85 270.71 631.70 C 271.88 624.73 270.69 617.48 268.07 610.97 C 262.69 599.58 252.25 591.74 241.97 585.05 C 229.09 577.87 214.56 574.67 201.12 568.79 C 193.65 565.50 185.49 564.44 177.48 563.35 C 164.58 561.56 151.58 558.75 138.51 560.49 Z" />
<path fill="#c2976f" opacity="1.00" d=" M 626.42 614.99 C 652.35 610.81 678.02 619.03 704.00 618.04 C 736.79 619.05 770.00 615.21 802.48 621.33 C 813.59 623.33 825.50 621.98 835.88 627.07 C 847.38 631.64 856.47 640.32 865.34 648.66 C 870.81 654.38 879.53 656.15 883.82 663.10 C 888.17 670.21 894.05 677.24 893.94 686.04 C 895.05 694.58 889.88 702.39 884.26 708.25 C 875.18 716.17 863.55 719.97 852.59 724.46 C 824.06 732.24 795.90 741.46 766.98 747.76 C 747.55 753.74 727.01 751.29 707.04 752.32 C 683.45 755.31 659.88 759.68 636.00 759.09 C 618.67 758.83 601.35 758.08 584.03 757.74 C 564.66 755.77 545.56 751.44 526.04 750.81 C 512.05 750.41 498.30 747.68 484.51 745.55 C 471.21 743.57 459.90 735.91 448.40 729.53 C 441.03 725.03 431.03 730.71 424.28 724.70 C 419.64 721.12 418.89 714.36 413.67 711.43 C 408.03 707.45 399.37 704.42 398.45 696.57 C 395.33 687.29 406.06 682.52 407.23 674.15 C 409.64 665.91 415.68 659.33 423.03 655.10 C 430.20 650.96 436.91 646.03 444.32 642.30 C 454.14 637.98 465.07 638.49 475.38 636.26 C 491.00 631.82 507.35 631.05 523.11 627.17 C 548.56 623.02 574.08 617.71 600.02 619.00 C 609.10 619.90 617.71 616.98 626.42 614.99 Z" />
</g>
</svg>
