<?xml version="1.0" encoding="UTF-8" ?>
<!DOCTYPE svg PUBLIC "-//W3C//DTD SVG 1.1//EN" "http://www.w3.org/Graphics/SVG/1.1/DTD/svg11.dtd">
<svg width="1024pt" height="768pt" viewBox="0 0 1024 768" version="1.1" xmlns="http://www.w3.org/2000/svg">
<g id="#eec39aff">
<path fill="#eec39a" opacity="1.00" d=" M 0.00 0.00 L 1024.00 0.00 L 1024.00 768.00 L 0.00 768.00 L 0.00 0.00 M 316.83 5.69 C 315.01 10.71 313.53 15.86 311.56 20.82 C 308.76 26.44 304.24 31.07 302.07 37.03 C 299.16 42.29 300.13 48.42 299.69 54.15 C 301.31 53.69 302.93 53.23 304.55 52.78 C 305.41 47.42 305.94 41.72 309.08 37.11 C 314.14 30.13 317.94 22.37 320.43 14.12 C 321.65 9.76 327.31 9.30 330.97 9.98 C 334.41 10.30 340.12 10.12 341.48 14.35 C 347.20 31.95 358.67 49.08 355.36 68.35 C 354.36 75.08 348.00 78.97 342.17 81.30 C 334.61 84.70 326.01 81.01 319.08 77.89 C 311.58 74.12 308.10 66.25 305.23 58.89 C 303.29 59.62 301.36 60.35 299.43 61.10 C 301.57 67.02 304.08 72.95 308.20 77.80 C 317.81 87.11 332.73 89.91 345.43 86.57 C 350.21 84.88 356.18 83.44 358.12 78.09 C 362.13 71.45 361.03 63.39 360.91 56.02 C 360.14 41.67 353.46 28.62 348.66 15.33 C 346.79 11.55 345.69 5.90 340.71 5.31 C 332.77 4.51 324.77 5.26 316.83 5.69 M 946.45 21.53 C 941.13 22.19 936.00 24.38 932.21 28.23 C 923.80 36.49 914.60 43.88 906.03 51.94 C 899.01 66.68 896.40 85.37 904.80 100.11 C 912.16 115.80 929.07 128.23 947.00 126.22 C 956.30 125.86 968.21 127.16 974.58 118.68 C 982.40 104.50 988.81 88.57 986.84 72.01 C 987.14 61.41 979.45 53.27 974.34 44.75 C 970.01 38.22 966.43 30.73 959.81 26.16 C 955.86 23.55 951.68 19.68 946.45 21.53 M 52.47 40.46 C 42.70 53.03 36.11 68.68 36.58 84.84 C 45.98 85.11 55.39 85.47 64.71 86.76 C 65.49 85.12 66.26 83.49 67.03 81.84 C 60.33 80.78 53.59 80.02 46.84 79.50 C 51.85 69.07 56.14 57.88 65.03 49.99 C 68.17 47.00 73.25 48.69 77.01 47.39 C 79.31 52.63 81.52 57.91 83.73 63.19 C 86.66 69.94 85.78 77.49 86.35 84.64 C 82.01 83.96 77.64 83.52 73.29 82.96 C 72.54 84.67 71.78 86.38 71.03 88.10 C 88.06 92.19 105.69 90.52 123.02 91.19 C 134.26 91.21 144.98 95.17 156.24 95.10 L 154.00 90.89 C 134.29 83.50 112.66 86.63 92.09 86.00 C 91.78 73.52 92.25 60.84 89.45 48.60 C 86.92 42.50 83.80 33.11 75.02 35.79 C 67.52 36.20 58.80 35.64 52.47 40.46 M 411.77 47.64 C 403.06 52.21 399.69 62.31 398.41 71.41 C 398.40 75.22 396.96 80.04 399.72 83.29 C 406.98 90.08 417.04 93.72 426.98 92.92 C 430.60 93.18 436.12 92.53 436.05 87.31 C 424.65 88.39 410.95 87.17 403.63 77.37 C 403.29 66.59 409.42 55.31 419.34 50.50 C 425.31 50.65 431.21 52.04 437.21 52.02 C 436.02 46.37 429.60 45.37 424.97 45.04 C 420.52 44.93 415.37 44.52 411.77 47.64 M 408.12 67.26 C 408.03 71.89 406.18 78.49 413.09 78.93 C 413.84 75.94 414.21 72.85 415.23 69.93 C 417.48 67.38 420.86 66.27 423.83 64.78 C 424.45 65.80 425.10 66.83 425.74 67.85 C 423.45 69.72 419.53 70.94 421.12 75.10 C 417.87 82.30 427.88 81.94 431.55 83.43 C 430.20 80.21 428.83 77.03 427.09 74.02 C 428.97 73.99 432.74 73.94 434.62 73.91 C 434.22 70.70 435.15 66.84 432.76 64.30 C 430.84 62.17 428.59 60.14 425.81 59.26 C 419.04 58.76 412.60 62.44 408.12 67.26 M 800.45 65.80 C 799.51 70.12 799.90 74.60 799.54 78.99 C 778.03 79.00 756.51 79.01 735.01 79.00 L 735.01 84.00 C 756.65 84.00 778.30 83.99 799.96 84.02 C 799.39 91.78 799.09 99.56 799.25 107.34 C 809.04 104.00 803.48 91.35 805.22 84.03 C 830.25 84.05 855.26 82.92 880.29 83.76 L 878.12 79.57 C 870.36 77.12 861.97 78.24 853.99 78.16 C 837.66 79.21 821.27 79.05 804.92 79.01 C 805.18 74.09 805.50 69.19 805.79 64.28 C 804.45 64.66 801.78 65.42 800.45 65.80 M 686.90 68.88 C 680.87 71.82 675.67 78.77 676.92 85.85 C 683.76 98.64 700.13 98.78 712.62 98.36 C 714.28 91.04 715.21 82.23 709.45 76.50 C 704.33 69.30 694.92 68.30 686.90 68.88 M 519.66 94.68 C 513.94 95.71 506.90 99.25 507.13 106.00 C 507.63 112.29 508.05 121.12 514.64 124.31 C 522.95 126.88 531.88 126.30 540.40 125.34 C 545.73 121.72 550.61 116.86 552.74 110.64 C 544.74 109.56 543.00 118.56 536.71 120.67 C 530.49 121.10 523.99 120.87 518.02 118.93 C 513.95 115.62 513.49 109.50 511.73 104.91 C 518.28 101.65 525.27 97.50 532.96 99.14 C 540.55 99.79 545.81 106.84 553.73 106.35 C 551.47 103.02 549.94 98.75 546.01 96.99 C 538.12 92.29 528.31 93.99 519.66 94.68 M 462.71 101.70 C 459.41 104.54 458.35 111.03 462.20 113.81 C 470.76 120.30 482.02 120.88 492.10 118.20 C 492.45 112.77 495.04 106.37 491.66 101.40 C 490.24 99.22 488.62 96.65 485.88 96.12 C 477.89 95.78 469.31 96.78 462.71 101.70 M 243.93 107.02 C 240.27 109.30 238.44 113.52 237.41 117.53 C 244.86 115.78 250.80 110.76 257.64 107.62 C 257.83 109.04 258.01 110.46 258.20 111.88 C 264.92 111.09 271.73 110.69 278.46 111.74 C 283.45 113.91 287.92 117.13 292.81 119.53 C 292.87 117.63 292.98 113.85 293.03 111.95 C 289.06 109.98 285.39 107.13 280.98 106.23 C 275.24 105.56 269.44 105.78 263.68 105.48 C 274.83 102.46 287.68 99.33 298.15 105.79 C 303.04 108.37 305.83 113.24 309.07 117.48 C 304.94 120.18 299.81 122.10 297.94 127.18 C 302.16 126.61 307.07 127.46 310.65 124.72 C 315.99 121.43 314.76 113.19 311.16 108.88 C 306.88 104.02 301.67 99.19 295.18 97.73 C 277.66 95.26 259.53 98.81 243.93 107.02 M 519.91 105.74 C 520.04 108.94 519.94 112.12 520.01 115.34 C 526.31 115.67 534.21 117.15 538.77 111.73 C 538.85 108.21 538.01 104.74 537.53 101.28 C 531.46 101.96 525.29 102.67 519.91 105.74 M 656.83 116.83 C 643.36 127.33 632.31 142.48 631.16 160.02 C 630.58 182.28 631.19 204.55 631.02 226.81 C 654.08 229.59 677.58 230.58 700.53 226.41 C 711.66 224.38 723.02 225.14 734.28 224.97 C 735.65 221.92 736.87 218.81 738.05 215.68 C 731.68 218.37 725.01 220.20 718.02 219.93 C 701.19 219.74 684.83 224.76 668.00 224.04 C 657.28 224.16 646.69 222.57 636.05 221.70 C 636.13 203.47 635.56 185.24 636.23 167.02 C 636.42 159.28 638.25 151.53 641.70 144.59 C 646.32 134.57 655.15 127.58 662.57 119.73 C 665.95 123.87 671.76 128.10 668.23 134.22 C 664.25 141.31 655.02 141.09 648.08 142.51 C 648.84 162.75 646.61 182.84 644.81 202.94 C 651.98 203.21 659.16 203.54 666.35 203.73 C 671.14 196.15 679.03 190.67 687.93 189.34 C 695.12 190.12 698.84 197.68 704.93 200.81 C 705.46 194.63 707.58 188.07 713.95 185.85 C 718.73 181.36 725.08 184.48 729.72 187.30 C 735.52 193.29 733.12 201.65 732.10 208.82 C 733.64 208.59 736.71 208.12 738.25 207.89 C 738.41 199.45 740.77 189.53 734.26 182.75 C 728.46 178.67 720.76 177.00 713.86 178.97 C 708.94 180.89 704.87 184.47 701.10 188.08 C 689.71 179.83 673.53 185.08 664.77 194.76 C 661.62 199.82 655.11 197.45 650.34 198.51 C 653.41 181.64 653.19 164.45 653.11 147.37 C 658.36 146.44 663.89 145.97 668.79 143.71 C 677.88 136.32 675.02 122.16 667.75 114.44 C 664.23 115.58 659.99 114.69 656.83 116.83 M 244.07 121.91 C 252.71 121.53 261.69 120.16 270.11 122.82 C 278.25 125.74 287.19 128.08 293.21 134.74 C 295.33 137.35 298.40 138.65 301.84 138.93 C 301.47 131.83 296.27 126.49 289.98 124.05 C 280.44 120.04 270.71 115.09 260.00 115.90 C 254.78 116.87 245.07 113.94 244.07 121.91 M 241.03 131.39 C 255.60 129.13 268.61 136.68 281.84 141.35 C 290.36 144.53 293.62 154.94 302.74 156.99 C 300.83 144.14 288.80 135.76 276.93 132.96 C 269.20 130.87 262.28 125.70 254.00 125.95 C 249.35 126.30 241.60 124.20 241.03 131.39 M 219.92 133.90 C 214.62 138.91 218.25 147.08 217.12 153.33 L 219.86 150.24 C 221.95 141.26 229.41 135.59 233.07 127.51 C 228.35 128.39 222.52 129.13 219.92 133.90 M 864.09 136.07 C 858.80 142.18 854.52 149.12 848.92 154.96 C 845.25 158.59 847.61 164.49 846.81 168.99 C 847.38 186.27 845.36 204.06 850.06 220.93 C 851.00 223.90 852.30 227.62 855.78 228.30 C 866.31 231.26 877.40 229.98 888.15 229.26 C 904.53 227.98 919.30 218.62 935.97 219.48 L 935.99 214.79 C 927.26 215.13 918.34 214.90 910.07 218.13 C 894.15 223.77 876.61 227.17 859.94 223.08 C 855.14 221.92 855.43 215.58 853.94 211.96 C 850.42 194.61 852.04 176.74 852.65 159.18 C 861.18 153.48 864.01 142.44 873.09 137.46 C 874.08 140.99 875.30 144.90 873.48 148.40 C 871.62 153.51 865.43 154.78 861.27 157.26 C 859.31 168.17 858.26 179.22 856.37 190.14 C 855.75 200.15 853.67 212.27 862.90 219.19 C 884.99 212.98 908.12 211.11 930.99 210.81 L 930.99 205.92 C 909.23 205.41 887.68 208.29 866.27 211.79 C 864.43 210.10 862.60 208.41 860.77 206.73 C 860.92 191.76 864.74 177.22 866.08 162.36 C 871.01 160.37 876.21 157.72 878.60 152.66 C 881.36 145.80 879.22 138.19 877.60 131.31 C 872.94 132.34 867.57 132.36 864.09 136.07 M 418.89 137.17 C 420.47 148.30 423.21 159.23 424.78 170.37 C 426.98 184.52 432.35 197.89 435.26 211.87 C 433.49 210.62 431.80 209.21 429.82 208.32 C 426.24 208.96 423.22 210.97 420.15 212.75 C 418.95 211.23 417.83 209.65 416.58 208.18 C 411.71 207.34 409.34 211.93 406.18 214.52 C 407.26 190.61 408.38 166.69 408.49 142.75 C 407.28 143.31 404.87 144.44 403.67 145.00 C 402.83 169.66 401.47 194.40 400.89 219.10 C 414.37 219.04 427.86 218.48 441.25 216.82 C 440.27 200.61 433.36 185.66 430.30 169.85 C 428.29 160.24 427.64 150.37 425.03 140.88 C 424.87 138.00 420.31 138.16 418.89 137.17 M 224.89 141.00 C 225.17 148.99 225.63 156.98 226.04 164.96 L 231.11 165.00 C 230.82 157.00 230.36 149.02 229.96 141.04 L 224.89 141.00 M 235.84 143.01 C 235.92 151.21 235.79 159.43 236.50 167.62 C 236.80 170.34 237.99 173.43 241.86 173.03 C 241.42 163.02 240.98 153.02 240.84 143.01 L 235.84 143.01 M 40.85 145.95 C 42.30 152.26 40.40 158.45 38.23 164.32 C 32.43 164.26 26.55 163.83 20.84 165.06 C 15.73 167.22 13.06 172.57 12.26 177.84 C 16.26 176.73 19.58 174.23 23.31 172.59 C 28.27 172.11 33.25 171.92 38.25 172.04 C 41.01 176.97 44.56 181.84 49.74 184.41 C 55.68 187.70 63.94 185.30 67.66 179.75 C 70.44 175.30 75.38 171.55 80.85 172.15 C 87.29 173.93 89.02 181.19 92.24 186.14 C 98.78 185.33 105.32 184.44 111.75 183.02 C 112.58 179.44 113.40 175.86 114.24 172.29 C 123.44 169.74 132.47 165.80 142.27 166.98 C 144.57 169.70 146.83 172.54 150.23 174.01 C 149.50 169.55 150.71 162.17 144.70 161.34 C 134.63 160.82 124.57 162.34 114.60 163.69 C 113.66 160.22 112.68 156.76 111.49 153.37 C 109.32 151.57 106.40 151.15 103.79 150.33 C 103.67 155.04 103.99 159.73 104.86 164.37 C 105.77 169.36 103.18 173.77 101.45 178.21 C 99.58 175.22 97.40 172.39 95.97 169.16 C 93.95 162.53 96.38 155.74 99.70 150.00 C 95.84 150.08 92.00 150.50 88.17 150.89 C 86.67 154.31 85.98 158.38 83.19 161.05 C 79.22 162.58 74.74 162.52 70.58 163.44 C 69.11 159.32 69.58 154.00 66.24 150.77 C 62.55 148.33 57.77 148.86 53.61 148.05 C 57.91 156.76 61.01 165.83 60.71 175.75 C 58.45 175.80 55.44 177.68 53.82 175.30 C 50.51 171.23 46.84 166.19 48.51 160.60 C 49.30 155.78 49.47 150.89 49.28 146.01 C 46.47 146.02 43.65 145.98 40.85 145.95 M 478.79 163.76 C 475.33 167.94 470.98 171.75 468.92 176.90 C 466.54 185.90 467.62 196.61 474.75 203.25 C 481.76 209.36 490.93 211.77 499.19 215.68 C 508.11 219.18 516.32 224.97 526.11 225.77 C 536.38 226.39 546.71 226.39 557.00 225.81 C 565.42 225.24 574.39 222.74 580.08 216.08 C 586.77 209.06 594.76 202.45 598.08 193.02 C 601.36 186.01 600.17 177.93 599.36 170.53 C 596.92 165.00 591.11 161.02 585.03 160.94 C 576.12 160.80 567.13 161.35 558.48 163.62 C 556.28 164.38 555.16 166.16 555.13 168.95 C 564.70 168.07 574.17 165.91 583.84 166.19 C 588.55 167.46 592.65 170.95 594.70 175.38 C 595.31 180.68 594.62 186.28 591.98 190.98 C 586.28 201.41 577.94 210.46 567.95 216.89 C 557.89 222.74 546.06 221.18 535.01 220.87 C 522.62 220.77 511.59 214.34 500.60 209.43 C 493.63 206.12 486.08 203.85 479.83 199.17 C 475.36 193.97 470.72 186.44 474.56 179.50 C 478.21 174.03 482.28 167.81 489.01 166.01 C 500.21 164.87 510.86 168.98 521.19 172.73 C 526.71 174.87 532.41 171.56 538.01 171.34 C 542.66 169.72 551.62 172.89 551.95 165.10 C 542.21 165.53 532.44 167.43 522.69 166.19 C 514.37 164.84 506.62 160.54 498.02 160.90 C 491.82 161.53 483.91 159.17 478.79 163.76 M 571.11 175.05 C 562.94 179.48 553.59 180.54 544.67 182.60 C 537.75 183.73 530.56 185.54 523.61 183.52 C 512.28 182.15 501.62 175.49 489.95 177.88 C 486.10 178.50 484.17 182.62 483.91 186.18 C 488.59 185.37 492.94 182.83 497.72 182.54 C 500.59 183.63 502.96 185.75 505.47 187.51 C 510.90 191.98 511.99 199.99 518.13 203.80 C 524.90 208.65 533.53 208.70 541.35 210.57 C 552.24 212.50 562.89 206.86 570.30 199.29 C 575.42 194.31 573.21 186.50 575.47 180.38 C 579.54 176.13 587.12 177.63 590.07 171.94 C 583.68 172.29 576.74 171.49 571.11 175.05 M 253.70 229.74 C 246.25 230.44 239.33 226.92 232.37 224.86 C 233.55 227.66 232.80 232.60 236.57 233.46 C 250.73 238.09 267.25 239.12 279.93 230.18 C 280.30 226.88 280.59 223.53 280.91 220.24 C 270.57 219.76 263.12 227.36 253.70 229.74 M 286.84 221.00 C 292.08 231.23 303.91 237.41 315.29 234.25 C 322.63 232.60 334.09 230.11 333.60 220.29 C 327.57 222.29 322.15 225.97 315.92 227.33 C 312.24 227.11 309.20 224.38 305.85 223.14 C 300.04 220.16 293.07 221.69 286.84 221.00 M 958.82 229.75 C 955.28 230.76 950.58 231.38 950.04 236.11 C 960.13 235.70 969.97 233.34 979.94 231.89 C 982.02 247.41 983.07 263.06 985.66 278.52 C 988.04 291.88 986.73 305.52 987.01 319.00 C 986.52 341.26 987.79 363.52 987.34 385.79 C 980.88 385.15 974.35 384.99 967.89 384.81 C 966.69 374.25 967.03 363.59 966.98 353.00 C 967.84 315.76 962.72 278.77 957.02 242.06 C 955.31 241.64 953.60 241.22 951.91 240.83 C 953.33 255.30 955.69 269.66 957.85 284.05 C 959.71 297.02 960.18 310.12 961.62 323.14 C 962.63 345.36 961.25 367.62 962.76 389.83 C 972.58 390.33 982.42 391.07 992.27 391.12 C 993.61 377.77 991.94 364.37 992.02 351.00 C 991.17 322.67 994.24 294.02 989.12 265.96 C 987.06 252.67 986.38 239.23 984.97 225.88 C 976.24 227.14 967.49 228.17 958.82 229.75 M 109.90 241.80 C 105.69 243.23 104.77 248.14 103.88 251.93 C 102.60 263.35 93.88 274.37 81.98 275.67 C 74.34 274.97 64.68 272.09 62.16 263.83 C 59.13 256.56 56.98 245.33 47.05 244.89 C 38.73 243.70 30.29 243.98 21.90 243.82 C 21.57 258.42 23.46 272.90 24.32 287.44 C 31.06 286.46 37.61 284.62 44.15 282.78 C 36.97 309.53 37.80 337.53 38.02 364.97 C 40.52 365.02 43.03 365.06 45.53 365.10 C 41.37 349.80 42.78 333.60 43.90 317.99 C 44.86 304.43 49.37 291.36 49.34 277.70 C 42.56 278.25 35.75 278.87 29.14 280.57 C 27.65 270.02 26.76 259.41 26.81 248.75 C 33.99 249.43 41.70 248.26 48.38 251.58 C 54.77 257.21 55.67 266.28 59.72 273.33 C 67.90 280.46 79.88 283.16 90.29 279.57 C 100.57 277.00 107.19 266.97 109.07 257.06 C 110.19 254.11 109.69 249.73 112.47 247.54 C 118.17 245.40 124.19 244.35 130.08 242.91 C 135.73 252.79 133.67 264.71 133.78 275.56 C 123.72 276.37 113.69 277.52 103.63 278.32 C 104.92 285.57 106.81 292.76 110.14 299.36 C 115.40 317.07 124.19 333.68 127.15 352.05 C 109.67 353.64 91.42 347.14 74.51 353.45 C 67.29 356.68 58.94 355.32 51.76 358.54 C 51.35 359.89 50.54 362.59 50.13 363.94 C 58.13 362.26 66.17 360.83 74.25 359.57 C 80.28 358.29 86.11 354.98 92.46 356.18 C 106.04 357.37 119.71 357.02 133.33 356.99 C 131.87 342.78 127.66 329.02 122.31 315.83 C 118.72 304.81 115.35 293.74 109.94 283.46 C 119.25 281.89 128.71 281.51 138.00 279.93 C 139.47 277.24 138.98 273.89 139.22 271.03 C 139.27 259.85 139.98 248.14 135.15 237.74 C 126.68 238.47 117.97 238.88 109.90 241.80 M 398.28 300.22 C 395.67 305.38 396.46 311.62 395.16 317.14 C 391.34 338.57 385.46 359.98 387.23 381.98 C 387.85 399.21 394.24 415.43 399.39 431.68 C 402.97 442.17 411.51 451.58 422.93 453.27 C 426.80 454.59 430.56 452.38 433.36 449.89 C 425.80 447.92 417.46 446.00 411.88 440.11 C 404.36 432.20 402.14 421.03 398.97 410.99 C 395.13 399.40 391.59 387.34 392.11 374.99 C 392.67 353.28 399.23 332.39 401.92 310.95 C 402.26 301.58 411.96 296.10 420.03 294.12 C 428.25 293.95 438.49 292.23 444.50 299.46 C 454.29 310.55 464.78 322.28 467.61 337.31 C 468.67 353.72 465.58 369.98 463.24 386.15 C 461.25 400.53 463.48 415.67 457.35 429.27 C 453.12 439.98 441.27 444.92 436.75 455.44 C 448.72 454.08 456.48 443.73 462.10 434.11 C 468.25 421.68 466.46 407.39 468.06 394.05 C 470.63 372.12 476.10 349.72 471.23 327.70 C 466.81 315.06 457.65 304.84 449.42 294.54 C 442.80 287.20 431.71 288.98 422.97 288.88 C 413.33 287.90 404.20 292.97 398.28 300.22 M 246.04 291.09 C 244.47 302.02 244.98 313.24 247.55 323.99 C 232.35 324.08 216.80 322.94 201.99 327.06 C 202.74 334.84 210.09 337.93 216.10 340.96 C 213.46 341.21 208.18 341.73 205.54 341.98 C 205.02 346.23 204.06 350.42 204.12 354.74 C 207.61 358.64 213.42 358.11 218.05 359.26 C 212.79 362.12 207.21 366.01 208.06 373.05 C 219.07 379.42 231.84 373.75 243.54 372.49 C 249.68 371.11 256.56 371.47 262.04 367.99 C 268.44 363.32 274.41 357.33 282.29 355.26 C 301.31 349.19 321.42 352.61 340.87 354.27 C 341.22 344.17 341.90 334.10 342.15 324.00 C 321.98 323.71 301.77 324.77 281.64 323.40 C 276.32 322.41 269.49 321.09 267.92 315.06 C 264.68 304.62 258.37 292.26 246.04 291.09 M 691.05 323.91 C 692.01 340.43 694.07 356.83 697.23 373.08 C 707.89 372.92 718.56 372.44 729.22 371.87 C 728.78 370.23 728.35 368.60 727.93 366.97 C 719.37 367.20 710.83 367.90 702.27 368.04 C 699.76 355.46 696.93 342.89 696.77 329.98 C 709.30 331.34 721.91 330.94 734.50 331.08 C 734.81 344.68 732.45 358.61 735.72 371.99 C 737.10 372.00 738.49 372.00 739.89 372.01 C 738.62 357.81 740.45 343.58 739.53 329.38 C 739.34 327.07 737.24 325.75 735.06 326.01 C 720.35 325.96 705.68 325.35 691.05 323.91 M 406.02 329.90 C 406.00 332.62 406.00 335.34 406.03 338.07 C 407.68 337.94 410.99 337.69 412.65 337.56 C 412.74 335.92 412.94 332.64 413.04 331.00 C 410.69 330.63 408.35 330.26 406.02 329.90 M 445.88 331.96 C 446.20 334.61 446.59 337.31 446.96 339.99 C 448.74 339.99 452.30 339.99 454.08 340.00 C 453.89 337.42 453.73 334.86 453.58 332.31 C 451.00 332.18 448.44 332.06 445.88 331.96 M 863.58 343.01 C 863.38 345.01 862.97 349.01 862.77 351.01 C 839.17 350.97 815.59 351.02 792.00 351.00 L 792.00 356.00 C 815.50 356.14 839.02 355.59 862.52 356.42 C 863.86 359.69 865.95 362.87 869.55 364.02 C 869.45 361.32 869.37 358.64 869.31 355.97 C 889.87 355.79 910.45 356.48 931.01 355.80 C 935.17 356.58 937.59 354.84 938.26 350.60 C 915.22 351.13 892.15 351.43 869.12 350.47 C 867.22 348.00 865.37 345.51 863.58 343.01 M 422.44 400.11 C 421.88 403.84 421.32 407.57 420.78 411.31 C 426.08 413.34 431.44 415.37 437.22 415.51 C 435.93 410.08 430.57 408.60 426.55 405.98 C 430.33 405.74 434.07 406.14 437.85 406.38 C 437.95 397.09 427.91 400.78 422.44 400.11 M 324.00 408.92 C 323.02 417.37 320.96 429.25 311.65 432.47 C 291.62 436.61 271.16 438.07 250.92 440.87 C 249.55 438.05 249.06 432.96 245.03 432.95 C 236.69 430.92 235.06 440.91 234.15 446.55 C 231.08 447.27 228.06 448.12 225.03 448.93 C 225.04 452.00 224.95 454.94 224.88 458.05 C 226.78 460.20 228.66 462.41 230.62 464.52 C 227.33 465.40 224.08 466.44 220.89 467.64 C 220.91 470.54 220.94 476.32 220.95 479.21 C 232.82 485.27 246.79 483.03 259.56 482.45 C 268.81 481.89 276.30 475.65 285.43 474.63 C 292.28 473.64 299.08 472.00 306.01 471.61 C 318.10 471.69 330.26 472.84 342.31 471.25 C 347.37 470.50 350.65 466.01 352.63 461.64 C 353.00 451.84 344.72 443.71 346.96 433.74 C 348.75 425.19 349.14 416.46 349.05 407.75 C 341.51 408.38 344.75 416.87 343.03 421.55 C 342.56 429.16 339.04 436.28 338.79 443.87 C 340.91 449.48 345.02 454.07 347.60 459.47 C 343.95 462.18 340.63 465.89 336.00 466.85 C 329.02 467.33 322.01 467.11 315.02 467.13 C 315.67 466.35 316.33 465.58 317.00 464.82 C 307.03 462.41 297.34 466.53 287.41 466.76 C 277.95 467.49 270.46 473.83 261.60 476.41 C 252.47 479.10 242.76 478.24 233.43 477.45 C 230.01 476.84 227.28 474.53 224.88 472.17 C 229.59 470.46 234.62 470.06 239.60 470.20 C 238.80 463.67 234.58 458.68 230.21 454.17 C 230.90 453.42 231.59 452.66 232.27 451.92 C 235.43 452.59 238.55 453.34 241.71 454.05 C 240.34 448.82 239.99 443.11 243.14 438.46 C 243.91 440.72 244.67 442.98 245.40 445.26 C 252.38 445.53 259.42 445.62 266.32 444.35 C 283.16 441.52 300.42 441.29 316.96 436.72 C 320.28 435.81 322.25 432.68 324.04 430.03 C 329.56 423.57 327.30 414.44 328.13 406.75 L 324.00 408.92 M 44.13 416.84 C 49.32 427.79 47.87 440.24 48.12 452.00 C 47.67 470.82 49.46 489.99 45.10 508.50 C 43.36 517.26 44.19 526.27 43.86 535.15 C 60.93 534.87 77.90 532.70 94.99 532.77 C 93.14 528.71 90.92 524.64 91.07 520.00 C 90.46 510.53 87.29 501.48 86.85 492.01 C 86.02 482.39 84.77 472.81 82.99 463.33 C 88.53 464.81 94.29 464.95 99.98 465.40 C 99.98 490.79 100.09 516.17 99.90 541.56 C 111.24 544.17 123.06 542.76 134.59 543.04 C 130.89 529.59 138.05 516.45 138.38 503.06 C 139.30 487.95 140.76 472.11 135.81 457.53 C 132.78 443.84 133.00 429.73 132.87 415.79 C 110.32 418.25 87.65 418.30 65.00 418.00 C 65.00 419.74 65.00 423.24 65.00 424.99 C 85.96 424.89 106.93 425.46 127.88 424.39 C 128.04 437.77 129.02 451.20 131.78 464.31 C 135.59 477.58 133.74 491.52 132.13 505.01 C 131.44 516.17 126.91 526.72 127.63 538.05 C 120.90 537.96 114.18 537.86 107.47 537.70 C 106.71 537.01 105.95 536.32 105.19 535.64 C 104.80 510.50 105.08 485.36 104.99 460.22 C 95.89 459.55 86.84 458.53 77.75 457.80 C 78.55 469.94 81.15 481.87 81.99 494.01 C 81.91 505.49 87.11 516.17 86.34 527.73 C 73.72 527.89 61.23 529.86 48.62 530.28 C 48.68 517.03 52.57 504.23 52.85 491.02 C 53.51 469.75 52.33 448.45 53.60 427.19 C 56.59 424.96 58.83 421.94 60.64 418.71 C 57.84 417.66 55.16 416.24 52.25 415.49 C 49.47 415.46 46.80 416.20 44.13 416.84 M 323.40 451.24 C 319.67 452.98 315.49 450.36 311.71 450.66 C 313.85 453.76 315.21 460.63 320.99 457.97 C 327.81 459.40 332.87 453.87 333.62 447.58 C 330.14 448.62 326.76 449.88 323.40 451.24 M 858.27 458.02 C 858.07 465.68 858.08 473.35 857.84 481.02 C 857.94 494.40 853.05 507.91 857.69 521.05 C 877.78 520.86 898.00 521.94 917.97 519.13 C 942.80 517.41 967.26 512.72 991.97 509.91 C 992.01 494.31 992.02 478.70 991.99 463.10 C 974.52 462.92 957.04 461.12 939.58 462.64 C 916.17 465.16 892.56 465.60 869.06 464.28 C 869.52 465.99 870.21 470.06 872.99 469.88 C 893.46 470.82 913.97 469.48 934.41 468.27 C 951.90 466.39 969.47 468.16 987.01 468.10 C 986.98 480.34 986.99 492.58 986.96 504.83 C 963.75 508.68 940.43 512.02 916.98 513.98 C 898.83 516.74 880.41 516.18 862.13 515.70 C 860.37 498.76 864.38 481.78 864.00 464.81 C 863.43 461.77 862.09 458.26 858.27 458.02 M 555.82 495.01 C 552.18 496.69 552.05 501.64 552.26 505.00 C 553.46 515.92 555.15 526.78 555.35 537.80 C 569.87 539.49 584.50 540.55 599.12 539.21 C 598.72 536.47 598.43 533.81 598.07 531.10 C 586.41 537.57 572.82 533.39 560.33 532.83 C 559.85 524.36 559.08 515.91 557.58 507.57 C 557.29 504.98 557.15 501.27 559.99 500.05 C 567.64 497.33 575.79 496.51 583.82 495.60 C 586.96 505.89 588.70 516.50 590.32 527.12 C 592.17 526.69 594.01 526.25 595.86 525.82 C 593.82 513.80 591.72 501.79 588.80 489.94 C 577.73 490.98 566.47 491.53 555.82 495.01 M 725.61 489.91 C 725.39 491.92 724.95 495.92 724.74 497.93 C 705.59 500.44 686.26 500.15 667.00 500.00 L 667.01 504.99 C 685.87 504.97 704.82 505.72 723.58 503.24 C 723.43 507.00 723.28 510.63 723.43 514.45 C 728.05 512.51 729.22 507.62 730.68 503.43 C 750.60 501.88 770.50 498.98 790.54 499.58 C 805.06 499.89 819.47 497.75 833.99 497.75 L 833.99 492.76 C 819.95 492.49 806.03 494.96 792.01 494.27 C 771.60 494.05 751.34 496.83 731.00 497.89 C 729.29 495.15 727.50 492.49 725.61 489.91 M 377.00 523.99 C 361.26 527.18 345.04 524.89 329.22 527.20 C 306.74 532.12 284.79 539.11 262.66 545.31 C 254.57 547.26 247.87 552.51 241.35 557.40 C 237.35 560.22 237.85 565.62 238.01 569.97 C 237.76 577.07 242.91 582.73 248.59 586.19 C 263.02 591.12 278.36 592.32 293.36 594.53 C 304.05 597.22 315.10 597.39 326.00 598.61 C 338.02 599.10 349.95 601.03 362.00 600.98 C 387.45 601.04 413.08 602.11 438.31 598.08 C 453.14 595.73 468.82 596.59 482.97 590.96 C 491.41 585.94 500.02 581.06 507.72 574.90 C 511.57 571.83 517.07 569.86 518.47 564.62 C 519.41 559.20 518.86 553.61 519.17 548.16 C 512.32 542.72 503.69 540.63 495.85 537.07 C 487.91 533.03 478.51 533.46 470.74 528.91 C 455.22 521.05 437.14 521.98 420.28 521.85 C 420.57 525.55 420.85 529.27 421.13 532.99 C 434.08 533.01 447.04 532.51 459.98 533.37 C 467.33 533.71 473.90 537.40 481.01 538.90 C 488.36 540.02 494.91 543.65 501.82 546.14 C 506.23 548.02 511.28 549.84 513.86 554.19 C 514.58 558.27 513.45 563.28 509.76 565.63 C 496.66 573.68 485.11 585.01 469.86 588.91 C 457.30 591.11 444.55 591.82 431.95 593.63 C 408.81 597.11 385.30 596.21 361.99 595.70 C 339.21 593.40 316.15 593.13 293.63 588.63 C 280.20 586.96 266.55 585.53 253.68 581.11 C 249.04 579.61 245.73 575.52 243.72 571.24 C 242.02 567.26 244.39 562.90 247.69 560.68 C 254.02 556.26 260.34 551.23 268.13 549.73 C 282.05 545.88 295.84 541.57 309.80 537.86 C 320.36 535.99 331.04 534.89 341.69 533.67 C 348.90 532.78 356.11 534.27 363.32 533.93 C 380.83 530.76 398.65 533.46 416.30 533.03 C 415.54 529.30 414.78 525.62 413.91 521.94 C 401.59 522.00 389.14 521.60 377.00 523.99 M 41.88 570.46 C 43.40 577.24 45.41 583.93 46.35 590.84 C 36.95 593.75 27.39 596.12 18.05 599.19 C 16.69 599.65 15.17 600.29 14.80 601.84 C 12.45 607.85 13.42 614.54 12.70 620.84 C 35.57 625.39 59.14 622.38 82.20 621.05 C 80.52 605.01 76.82 589.21 76.77 573.01 C 71.12 572.98 65.47 573.00 59.81 573.09 C 60.26 575.00 60.73 576.91 61.19 578.83 C 64.70 578.43 68.21 578.07 71.74 577.81 C 72.56 590.68 74.24 603.46 76.19 616.20 C 56.77 618.06 37.07 619.31 17.71 616.19 C 18.50 612.50 19.23 608.78 19.96 605.10 C 30.09 601.59 40.46 598.87 50.77 595.98 C 52.57 590.36 46.42 580.26 54.33 577.84 C 54.17 576.59 54.00 575.33 53.84 574.09 C 49.88 572.79 45.92 571.47 41.88 570.46 M 115.49 574.93 C 116.71 582.29 116.92 589.76 117.32 597.21 C 128.63 596.14 139.94 592.69 151.35 594.66 C 156.21 597.14 157.99 603.18 160.02 607.84 C 145.95 618.50 127.59 614.37 111.26 616.03 C 110.60 603.13 108.64 590.23 109.81 577.33 C 107.10 576.15 104.07 575.71 101.24 575.04 C 103.97 590.26 106.32 605.61 106.29 621.12 C 120.06 620.59 133.86 620.40 147.61 619.44 C 153.77 619.22 158.94 615.81 164.24 613.11 C 163.46 606.61 165.48 598.83 160.14 593.88 C 158.60 591.80 156.61 589.54 153.89 589.19 C 143.24 588.46 132.61 589.67 122.06 590.96 C 122.01 585.64 121.97 580.32 121.93 575.02 C 120.32 575.00 117.10 574.95 115.49 574.93 M 482.45 616.55 C 453.81 617.40 425.24 619.89 396.86 623.79 C 364.23 628.51 331.43 634.84 301.03 648.02 C 291.23 652.94 280.58 657.80 274.07 667.05 C 268.16 673.55 268.94 684.12 274.36 690.65 C 282.14 699.76 293.08 705.42 303.88 710.19 C 330.15 721.14 358.16 727.11 386.13 731.83 C 429.71 738.72 473.92 741.24 518.00 741.05 C 566.11 740.48 614.33 736.80 661.61 727.58 C 682.91 723.38 704.01 717.63 723.97 708.98 C 735.27 703.43 747.64 697.44 753.65 685.66 C 756.52 679.18 754.83 671.05 750.19 665.80 C 742.03 656.64 730.82 650.99 719.73 646.22 C 689.46 633.97 657.17 627.79 624.99 623.06 C 577.77 616.96 530.03 614.69 482.45 616.55 Z" />
<path fill="#eec39a" opacity="1.00" d=" M 947.32 27.25 C 951.59 26.83 954.51 31.12 957.77 33.23 C 964.35 38.04 967.14 45.96 971.63 52.45 C 976.40 59.47 982.24 66.98 981.73 75.99 C 982.29 89.18 976.38 101.33 970.66 112.82 C 966.45 120.81 955.81 121.12 947.99 121.12 C 927.27 122.07 910.35 104.58 905.55 85.56 C 904.10 76.87 906.20 68.13 908.96 59.94 C 910.24 55.70 914.32 53.32 917.32 50.33 C 925.06 44.08 931.61 36.47 939.58 30.49 C 941.81 28.70 944.49 27.82 947.32 27.25 Z" />
<path fill="#eec39a" opacity="1.00" d=" M 689.06 73.71 C 695.54 74.77 702.82 76.50 706.19 82.85 C 709.17 85.82 708.78 90.04 707.69 93.72 C 698.23 93.69 688.91 90.32 682.26 83.47 C 684.47 80.18 686.75 76.95 689.06 73.71 Z" />
<path fill="#eec39a" opacity="1.00" d=" M 465.27 108.02 C 470.65 104.17 476.88 102.07 483.22 100.40 C 485.62 104.32 486.68 108.79 487.57 113.26 C 479.58 115.24 471.70 112.76 465.27 108.02 Z" />
<path fill="#eec39a" opacity="1.00" d=" M 519.74 197.75 C 525.88 193.98 532.64 191.02 540.00 191.05 C 548.85 190.96 558.86 189.25 566.61 194.59 C 560.68 199.01 554.45 204.05 547.01 205.48 C 537.66 204.26 527.83 203.01 519.74 197.75 Z" />
<path fill="#eec39a" opacity="1.00" d=" M 249.92 299.98 C 254.06 301.56 257.46 304.87 258.59 309.23 C 259.94 314.77 261.52 320.99 266.31 324.64 C 271.45 327.31 277.20 328.84 283.01 328.79 C 301.03 329.41 319.06 328.84 337.09 329.02 C 336.43 335.29 335.88 341.58 335.06 347.83 C 315.75 347.36 295.52 344.40 276.81 350.65 C 265.85 353.94 259.05 365.38 247.17 366.28 C 236.52 367.73 225.93 371.26 215.09 370.04 C 223.09 360.93 236.06 361.94 246.88 359.66 C 249.95 359.27 250.01 355.78 250.80 353.35 C 236.56 353.40 221.44 356.21 207.83 350.71 C 209.81 348.99 211.87 347.01 214.62 346.73 C 225.57 345.46 236.68 344.95 247.47 342.55 C 248.19 341.59 249.65 339.66 250.38 338.70 C 237.30 336.75 222.89 339.03 211.23 331.48 C 226.57 326.70 243.20 328.68 258.69 332.03 C 254.41 321.76 249.35 311.43 249.92 299.98 Z" />
</g>
<g id="#76428aff">
<path fill="#76428a" opacity="1.00" d=" M 316.83 5.69 C 324.77 5.26 332.77 4.51 340.71 5.31 C 345.69 5.90 346.79 11.55 348.66 15.33 C 353.46 28.62 360.14 41.67 360.91 56.02 C 361.03 63.39 362.13 71.45 358.12 78.09 C 356.18 83.44 350.21 84.88 345.43 86.57 C 332.73 89.91 317.81 87.11 308.20 77.80 C 304.08 72.95 301.57 67.02 299.43 61.10 C 301.36 60.35 303.29 59.62 305.23 58.89 C 308.10 66.25 311.58 74.12 319.08 77.89 C 326.01 81.01 334.61 84.70 342.17 81.30 C 348.00 78.97 354.36 75.08 355.36 68.35 C 358.67 49.08 347.20 31.95 341.48 14.35 C 340.12 10.12 334.41 10.30 330.97 9.98 C 327.31 9.30 321.65 9.76 320.43 14.12 C 317.94 22.37 314.14 30.13 309.08 37.11 C 305.94 41.72 305.41 47.42 304.55 52.78 C 302.93 53.23 301.31 53.69 299.69 54.15 C 300.13 48.42 299.16 42.29 302.07 37.03 C 304.24 31.07 308.76 26.44 311.56 20.82 C 313.53 15.86 315.01 10.71 316.83 5.69 Z" />
<path fill="#76428a" opacity="1.00" d=" M 946.45 21.53 C 951.68 19.68 955.86 23.55 959.81 26.16 C 966.43 30.73 970.01 38.22 974.34 44.75 C 979.45 53.27 987.14 61.41 986.84 72.01 C 988.81 88.57 982.40 104.50 974.58 118.68 C 968.21 127.16 956.30 125.86 947.00 126.22 C 929.07 128.23 912.16 115.80 904.80 100.11 C 896.40 85.37 899.01 66.68 906.03 51.94 C 914.60 43.88 923.80 36.49 932.21 28.23 C 936.00 24.38 941.13 22.19 946.45 21.53 M 947.32 27.25 C 944.49 27.82 941.81 28.70 939.58 30.49 C 931.61 36.47 925.06 44.08 917.32 50.33 C 914.32 53.32 910.24 55.70 908.96 59.94 C 906.20 68.13 904.10 76.87 905.55 85.56 C 910.35 104.58 927.27 122.07 947.99 121.12 C 955.81 121.12 966.45 120.81 970.66 112.82 C 976.38 101.33 982.29 89.18 981.73 75.99 C 982.24 66.98 976.40 59.47 971.63 52.45 C 967.14 45.96 964.35 38.04 957.77 33.23 C 954.51 31.12 951.59 26.83 947.32 27.25 Z" />
<path fill="#76428a" opacity="1.00" d=" M 52.47 40.46 C 58.80 35.64 67.52 36.20 75.02 35.79 C 83.80 33.11 86.92 42.50 89.45 48.60 C 92.25 60.84 91.78 73.52 92.09 86.00 C 112.66 86.63 134.29 83.50 154.00 90.89 L 156.24 95.10 C 144.98 95.17 134.26 91.21 123.02 91.19 C 105.69 90.52 88.06 92.19 71.03 88.10 C 71.78 86.38 72.54 84.67 73.29 82.96 C 77.64 83.52 82.01 83.96 86.35 84.64 C 85.78 77.49 86.66 69.94 83.73 63.19 C 81.52 57.91 79.31 52.63 77.01 47.39 C 73.25 48.69 68.17 47.00 65.03 49.99 C 56.14 57.88 51.85 69.07 46.84 79.50 C 53.59 80.02 60.33 80.78 67.03 81.84 C 66.26 83.49 65.49 85.12 64.71 86.76 C 55.39 85.47 45.98 85.11 36.58 84.84 C 36.11 68.68 42.70 53.03 52.47 40.46 Z" />
<path fill="#76428a" opacity="1.00" d=" M 411.77 47.64 C 415.37 44.52 420.52 44.93 424.97 45.04 C 429.60 45.37 436.02 46.37 437.21 52.02 C 431.21 52.04 425.31 50.65 419.34 50.50 C 409.42 55.31 403.29 66.59 403.63 77.37 C 410.95 87.17 424.65 88.39 436.05 87.31 C 436.12 92.53 430.60 93.18 426.98 92.92 C 417.04 93.72 406.98 90.08 399.72 83.29 C 396.96 80.04 398.40 75.22 398.41 71.41 C 399.69 62.31 403.06 52.21 411.77 47.64 Z" />
<path fill="#76428a" opacity="1.00" d=" M 408.12 67.26 C 412.60 62.44 419.04 58.76 425.81 59.26 C 428.59 60.14 430.84 62.17 432.76 64.30 C 435.15 66.84 434.22 70.70 434.62 73.91 C 432.74 73.94 428.97 73.99 427.09 74.02 C 428.83 77.03 430.20 80.21 431.55 83.43 C 427.88 81.94 417.87 82.30 421.12 75.10 C 419.53 70.94 423.45 69.72 425.74 67.85 C 425.10 66.83 424.45 65.80 423.83 64.78 C 420.86 66.27 417.48 67.38 415.23 69.93 C 414.21 72.85 413.84 75.94 413.09 78.93 C 406.18 78.49 408.03 71.89 408.12 67.26 Z" />
<path fill="#76428a" opacity="1.00" d=" M 800.45 65.80 C 801.78 65.42 804.45 64.66 805.79 64.28 C 805.50 69.19 805.18 74.09 804.92 79.01 C 821.27 79.05 837.66 79.21 853.99 78.16 C 861.97 78.24 870.36 77.12 878.12 79.57 L 880.29 83.76 C 855.26 82.92 830.25 84.05 805.22 84.03 C 803.48 91.35 809.04 104.00 799.25 107.34 C 799.09 99.56 799.39 91.78 799.96 84.02 C 778.30 83.99 756.65 84.00 735.01 84.00 L 735.01 79.00 C 756.51 79.01 778.03 79.00 799.54 78.99 C 799.90 74.60 799.51 70.12 800.45 65.80 Z" />
<path fill="#76428a" opacity="1.00" d=" M 686.90 68.88 C 694.92 68.30 704.33 69.30 709.45 76.50 C 715.21 82.23 714.28 91.04 712.62 98.36 C 700.13 98.78 683.76 98.64 676.92 85.85 C 675.67 78.77 680.87 71.82 686.90 68.88 M 689.06 73.71 C 686.75 76.95 684.47 80.18 682.26 83.47 C 688.91 90.32 698.23 93.69 707.69 93.72 C 708.78 90.04 709.17 85.82 706.19 82.85 C 702.82 76.50 695.54 74.77 689.06 73.71 Z" />
<path fill="#76428a" opacity="1.00" d=" M 519.66 94.68 C 528.31 93.99 538.12 92.29 546.01 96.99 C 549.94 98.75 551.47 103.02 553.73 106.35 C 545.81 106.84 540.55 99.79 532.96 99.14 C 525.27 97.50 518.28 101.65 511.73 104.91 C 513.49 109.50 513.95 115.62 518.02 118.93 C 523.99 120.87 530.49 121.10 536.71 120.67 C 543.00 118.56 544.74 109.56 552.74 110.64 C 550.61 116.86 545.73 121.72 540.40 125.34 C 531.88 126.30 522.95 126.88 514.64 124.31 C 508.05 121.12 507.63 112.29 507.13 106.00 C 506.90 99.25 513.94 95.71 519.66 94.68 Z" />
<path fill="#76428a" opacity="1.00" d=" M 462.71 101.70 C 469.31 96.78 477.89 95.78 485.88 96.12 C 488.62 96.65 490.24 99.22 491.66 101.40 C 495.04 106.37 492.45 112.77 492.10 118.20 C 482.02 120.88 470.76 120.30 462.20 113.81 C 458.35 111.03 459.41 104.54 462.71 101.70 M 465.27 108.02 C 471.70 112.76 479.58 115.24 487.57 113.26 C 486.68 108.79 485.62 104.32 483.22 100.40 C 476.88 102.07 470.65 104.17 465.27 108.02 Z" />
<path fill="#76428a" opacity="1.00" d=" M 243.93 107.02 C 259.53 98.81 277.66 95.26 295.18 97.73 C 301.67 99.19 306.88 104.02 311.16 108.88 C 314.76 113.19 315.99 121.43 310.65 124.72 C 307.07 127.46 302.16 126.61 297.94 127.18 C 299.81 122.10 304.94 120.18 309.07 117.48 C 305.83 113.24 303.04 108.37 298.15 105.79 C 287.68 99.33 274.83 102.46 263.68 105.48 C 269.44 105.78 275.24 105.56 280.98 106.23 C 285.39 107.13 289.06 109.98 293.03 111.95 C 292.98 113.85 292.87 117.63 292.81 119.53 C 287.92 117.13 283.45 113.91 278.46 111.74 C 271.73 110.69 264.92 111.09 258.20 111.88 C 258.01 110.46 257.83 109.04 257.64 107.62 C 250.80 110.76 244.86 115.78 237.41 117.53 C 238.44 113.52 240.27 109.30 243.93 107.02 Z" />
<path fill="#76428a" opacity="1.00" d=" M 519.91 105.74 C 525.29 102.67 531.46 101.96 537.53 101.28 C 538.01 104.74 538.85 108.21 538.77 111.73 C 534.21 117.15 526.31 115.67 520.01 115.34 C 519.94 112.12 520.04 108.94 519.91 105.74 Z" />
<path fill="#76428a" opacity="1.00" d=" M 656.83 116.83 C 659.99 114.69 664.23 115.58 667.75 114.44 C 675.02 122.16 677.88 136.32 668.79 143.71 C 663.89 145.97 658.36 146.44 653.11 147.37 C 653.19 164.45 653.41 181.64 650.34 198.51 C 655.11 197.45 661.62 199.82 664.77 194.76 C 673.53 185.08 689.71 179.83 701.10 188.08 C 704.87 184.47 708.94 180.89 713.86 178.97 C 720.76 177.00 728.46 178.67 734.26 182.75 C 740.77 189.53 738.41 199.45 738.25 207.89 C 736.71 208.12 733.64 208.59 732.10 208.82 C 733.12 201.65 735.52 193.29 729.72 187.30 C 725.08 184.48 718.73 181.36 713.95 185.85 C 707.58 188.07 705.46 194.63 704.93 200.81 C 698.84 197.68 695.12 190.12 687.93 189.34 C 679.03 190.67 671.14 196.15 666.35 203.73 C 659.16 203.54 651.98 203.21 644.81 202.94 C 646.61 182.84 648.84 162.75 648.08 142.51 C 655.02 141.09 664.25 141.31 668.23 134.22 C 671.76 128.10 665.95 123.87 662.57 119.73 C 655.15 127.58 646.32 134.57 641.70 144.59 C 638.25 151.53 636.42 159.28 636.23 167.02 C 635.56 185.24 636.13 203.47 636.05 221.70 C 646.69 222.57 657.28 224.16 668.00 224.04 C 684.83 224.76 701.19 219.74 718.02 219.93 C 725.01 220.20 731.68 218.37 738.05 215.68 C 736.87 218.81 735.65 221.92 734.28 224.97 C 723.02 225.14 711.66 224.38 700.53 226.41 C 677.58 230.58 654.08 229.59 631.02 226.81 C 631.19 204.55 630.58 182.28 631.16 160.02 C 632.31 142.48 643.36 127.33 656.83 116.83 Z" />
<path fill="#76428a" opacity="1.00" d=" M 244.07 121.91 C 245.07 113.94 254.78 116.87 260.00 115.90 C 270.71 115.09 280.44 120.04 289.98 124.05 C 296.27 126.49 301.47 131.83 301.84 138.93 C 298.40 138.65 295.33 137.35 293.21 134.74 C 287.19 128.08 278.25 125.74 270.11 122.82 C 261.69 120.16 252.71 121.53 244.07 121.91 Z" />
<path fill="#76428a" opacity="1.00" d=" M 241.03 131.39 C 241.60 124.20 249.35 126.30 254.00 125.95 C 262.28 125.70 269.20 130.87 276.93 132.96 C 288.80 135.76 300.83 144.14 302.74 156.99 C 293.62 154.94 290.36 144.53 281.84 141.35 C 268.61 136.68 255.60 129.13 241.03 131.39 Z" />
<path fill="#76428a" opacity="1.00" d=" M 219.92 133.90 C 222.52 129.13 228.35 128.39 233.07 127.51 C 229.41 135.59 221.95 141.26 219.86 150.24 L 217.12 153.33 C 218.25 147.08 214.62 138.91 219.92 133.90 Z" />
<path fill="#76428a" opacity="1.00" d=" M 864.09 136.07 C 867.57 132.36 872.94 132.34 877.60 131.31 C 879.22 138.19 881.36 145.80 878.60 152.66 C 876.21 157.72 871.01 160.37 866.08 162.36 C 864.74 177.22 860.92 191.76 860.77 206.73 C 862.60 208.41 864.43 210.10 866.27 211.79 C 887.68 208.29 909.23 205.41 930.99 205.92 L 930.99 210.81 C 908.12 211.11 884.99 212.98 862.90 219.19 C 853.67 212.27 855.75 200.15 856.37 190.14 C 858.26 179.22 859.31 168.17 861.27 157.26 C 865.43 154.78 871.62 153.51 873.48 148.40 C 875.30 144.90 874.08 140.99 873.09 137.46 C 864.01 142.44 861.18 153.48 852.65 159.18 C 852.04 176.74 850.42 194.61 853.94 211.96 C 855.43 215.58 855.14 221.92 859.94 223.08 C 876.61 227.17 894.15 223.77 910.07 218.13 C 918.34 214.90 927.26 215.13 935.99 214.79 L 935.97 219.48 C 919.30 218.62 904.53 227.98 888.15 229.26 C 877.40 229.98 866.31 231.26 855.78 228.30 C 852.30 227.62 851.00 223.90 850.06 220.93 C 845.36 204.06 847.38 186.27 846.81 168.99 C 847.61 164.49 845.25 158.59 848.92 154.96 C 854.52 149.12 858.80 142.18 864.09 136.07 Z" />
<path fill="#76428a" opacity="1.00" d=" M 418.89 137.17 C 420.31 138.16 424.87 138.00 425.03 140.88 C 427.64 150.37 428.29 160.24 430.30 169.85 C 433.36 185.66 440.27 200.61 441.25 216.82 C 427.86 218.48 414.37 219.04 400.89 219.10 C 401.47 194.40 402.83 169.66 403.67 145.00 C 404.87 144.44 407.28 143.31 408.49 142.75 C 408.38 166.69 407.26 190.61 406.18 214.52 C 409.34 211.93 411.71 207.34 416.58 208.18 C 417.83 209.65 418.95 211.23 420.15 212.75 C 423.22 210.97 426.24 208.96 429.82 208.32 C 431.80 209.21 433.49 210.62 435.26 211.87 C 432.35 197.89 426.98 184.52 424.78 170.37 C 423.21 159.23 420.47 148.30 418.89 137.17 Z" />
<path fill="#76428a" opacity="1.00" d=" M 224.89 141.00 L 229.96 141.04 C 230.36 149.02 230.82 157.00 231.11 165.00 L 226.04 164.96 C 225.63 156.98 225.17 148.99 224.89 141.00 Z" />
<path fill="#76428a" opacity="1.00" d=" M 235.84 143.01 L 240.84 143.01 C 240.98 153.02 241.42 163.02 241.86 173.03 C 237.99 173.43 236.80 170.34 236.50 167.62 C 235.79 159.43 235.92 151.21 235.84 143.01 Z" />
<path fill="#76428a" opacity="1.00" d=" M 40.85 145.95 C 43.65 145.98 46.47 146.02 49.28 146.01 C 49.47 150.89 49.30 155.78 48.51 160.60 C 46.84 166.19 50.51 171.23 53.82 175.30 C 55.44 177.68 58.45 175.80 60.71 175.75 C 61.01 165.83 57.91 156.76 53.61 148.05 C 57.77 148.86 62.55 148.33 66.24 150.77 C 69.58 154.00 69.11 159.32 70.58 163.44 C 74.74 162.52 79.22 162.58 83.19 161.05 C 85.98 158.38 86.67 154.31 88.17 150.89 C 92.00 150.50 95.84 150.08 99.70 150.00 C 96.38 155.74 93.95 162.53 95.97 169.16 C 97.40 172.39 99.58 175.22 101.45 178.21 C 103.18 173.77 105.77 169.36 104.86 164.37 C 103.99 159.73 103.67 155.04 103.79 150.33 C 106.40 151.15 109.32 151.57 111.49 153.37 C 112.68 156.76 113.66 160.22 114.60 163.69 C 124.57 162.34 134.63 160.82 144.70 161.34 C 150.71 162.17 149.50 169.55 150.23 174.01 C 146.83 172.54 144.57 169.70 142.27 166.98 C 132.47 165.80 123.44 169.74 114.24 172.29 C 113.40 175.86 112.58 179.44 111.75 183.02 C 105.32 184.44 98.78 185.33 92.24 186.14 C 89.02 181.19 87.29 173.93 80.85 172.15 C 75.38 171.55 70.44 175.30 67.66 179.75 C 63.94 185.30 55.68 187.70 49.74 184.41 C 44.56 181.84 41.01 176.97 38.25 172.04 C 33.25 171.92 28.27 172.11 23.31 172.59 C 19.58 174.23 16.26 176.73 12.26 177.84 C 13.06 172.57 15.73 167.22 20.84 165.06 C 26.55 163.83 32.43 164.26 38.23 164.32 C 40.40 158.45 42.30 152.26 40.85 145.95 Z" />
<path fill="#76428a" opacity="1.00" d=" M 478.79 163.76 C 483.91 159.17 491.82 161.53 498.02 160.90 C 506.62 160.54 514.37 164.84 522.69 166.19 C 532.44 167.43 542.21 165.53 551.95 165.10 C 551.62 172.89 542.66 169.72 538.01 171.34 C 532.41 171.56 526.71 174.87 521.19 172.73 C 510.86 168.98 500.21 164.87 489.01 166.01 C 482.28 167.81 478.21 174.03 474.56 179.50 C 470.72 186.44 475.36 193.97 479.83 199.17 C 486.08 203.85 493.63 206.12 500.60 209.43 C 511.59 214.34 522.62 220.77 535.01 220.87 C 546.06 221.18 557.89 222.74 567.95 216.89 C 577.94 210.46 586.28 201.41 591.98 190.98 C 594.62 186.28 595.31 180.68 594.70 175.38 C 592.65 170.95 588.55 167.46 583.84 166.19 C 574.17 165.91 564.70 168.07 555.13 168.95 C 555.16 166.16 556.28 164.38 558.48 163.62 C 567.13 161.35 576.12 160.80 585.03 160.94 C 591.11 161.02 596.92 165.00 599.36 170.53 C 600.17 177.93 601.36 186.01 598.08 193.02 C 594.76 202.45 586.77 209.06 580.08 216.08 C 574.39 222.74 565.42 225.24 557.00 225.81 C 546.71 226.39 536.38 226.39 526.11 225.77 C 516.32 224.97 508.11 219.18 499.19 215.68 C 490.93 211.77 481.76 209.36 474.75 203.25 C 467.62 196.61 466.54 185.90 468.92 176.90 C 470.98 171.75 475.33 167.94 478.79 163.76 Z" />
<path fill="#76428a" opacity="1.00" d=" M 571.11 175.05 C 576.74 171.49 583.68 172.29 590.07 171.94 C 587.12 177.63 579.54 176.13 575.47 180.38 C 573.21 186.50 575.42 194.31 570.30 199.29 C 562.89 206.86 552.24 212.50 541.35 210.57 C 533.53 208.70 524.90 208.65 518.13 203.80 C 511.99 199.99 510.90 191.98 505.47 187.51 C 502.96 185.75 500.59 183.63 497.72 182.54 C 492.94 182.83 488.59 185.37 483.91 186.18 C 484.17 182.62 486.10 178.50 489.95 177.88 C 501.62 175.49 512.28 182.15 523.61 183.52 C 530.56 185.54 537.75 183.73 544.67 182.60 C 553.59 180.54 562.94 179.48 571.11 175.05 M 519.74 197.75 C 527.83 203.01 537.66 204.26 547.01 205.48 C 554.45 204.05 560.68 199.01 566.61 194.59 C 558.86 189.25 548.85 190.96 540.00 191.05 C 532.64 191.02 525.88 193.98 519.74 197.75 Z" />
<path fill="#76428a" opacity="1.00" d=" M 253.70 229.74 C 263.12 227.36 270.57 219.76 280.91 220.24 C 280.59 223.53 280.30 226.88 279.93 230.18 C 267.25 239.12 250.73 238.09 236.57 233.46 C 232.80 232.60 233.55 227.66 232.37 224.86 C 239.33 226.92 246.25 230.44 253.70 229.74 Z" />
<path fill="#76428a" opacity="1.00" d=" M 286.84 221.00 C 293.07 221.69 300.04 220.16 305.85 223.14 C 309.20 224.38 312.24 227.11 315.92 227.33 C 322.15 225.97 327.57 222.29 333.60 220.29 C 334.09 230.11 322.63 232.60 315.29 234.25 C 303.91 237.41 292.08 231.23 286.84 221.00 Z" />
<path fill="#76428a" opacity="1.00" d=" M 958.82 229.75 C 967.49 228.17 976.24 227.14 984.97 225.88 C 986.38 239.23 987.06 252.67 989.12 265.96 C 994.24 294.02 991.17 322.67 992.02 351.00 C 991.94 364.37 993.61 377.77 992.27 391.12 C 982.42 391.07 972.58 390.33 962.76 389.83 C 961.25 367.62 962.63 345.36 961.62 323.14 C 960.18 310.12 959.71 297.02 957.85 284.05 C 955.69 269.66 953.33 255.30 951.91 240.83 C 953.60 241.22 955.31 241.64 957.02 242.06 C 962.72 278.77 967.84 315.76 966.98 353.00 C 967.03 363.59 966.69 374.25 967.89 384.81 C 974.35 384.99 980.88 385.15 987.34 385.79 C 987.79 363.52 986.52 341.26 987.01 319.00 C 986.73 305.52 988.04 291.88 985.66 278.52 C 983.07 263.06 982.02 247.41 979.94 231.89 C 969.97 233.34 960.13 235.70 950.04 236.11 C 950.58 231.38 955.28 230.76 958.82 229.75 Z" />
<path fill="#76428a" opacity="1.00" d=" M 109.90 241.80 C 117.97 238.88 126.68 238.47 135.15 237.74 C 139.98 248.14 139.27 259.85 139.22 271.03 C 138.98 273.89 139.47 277.24 138.00 279.93 C 128.71 281.51 119.25 281.89 109.94 283.46 C 115.35 293.74 118.72 304.81 122.31 315.83 C 127.66 329.02 131.87 342.78 133.33 356.99 C 119.71 357.02 106.04 357.37 92.46 356.18 C 86.11 354.98 80.28 358.29 74.25 359.57 C 66.17 360.83 58.13 362.26 50.13 363.94 C 50.54 362.59 51.35 359.89 51.76 358.54 C 58.94 355.32 67.29 356.68 74.51 353.45 C 91.42 347.14 109.67 353.64 127.15 352.05 C 124.19 333.68 115.40 317.07 110.14 299.36 C 106.81 292.76 104.92 285.57 103.63 278.32 C 113.69 277.52 123.72 276.37 133.78 275.56 C 133.67 264.71 135.73 252.79 130.08 242.91 C 124.19 244.35 118.17 245.40 112.47 247.54 C 109.69 249.73 110.19 254.11 109.07 257.06 C 107.19 266.97 100.57 277.00 90.29 279.57 C 79.88 283.16 67.90 280.46 59.72 273.33 C 55.67 266.28 54.77 257.21 48.38 251.58 C 41.70 248.26 33.99 249.43 26.81 248.75 C 26.76 259.41 27.65 270.02 29.14 280.57 C 35.75 278.87 42.56 278.25 49.34 277.70 C 49.37 291.36 44.86 304.43 43.90 317.99 C 42.78 333.60 41.37 349.80 45.53 365.10 C 43.03 365.06 40.52 365.02 38.02 364.97 C 37.80 337.53 36.97 309.53 44.15 282.78 C 37.61 284.62 31.06 286.46 24.32 287.44 C 23.46 272.90 21.57 258.42 21.90 243.82 C 30.29 243.98 38.73 243.70 47.05 244.89 C 56.98 245.33 59.13 256.56 62.16 263.83 C 64.68 272.09 74.34 274.97 81.98 275.67 C 93.88 274.37 102.60 263.35 103.88 251.93 C 104.77 248.14 105.69 243.23 109.90 241.80 Z" />
<path fill="#76428a" opacity="1.00" d=" M 398.28 300.22 C 404.20 292.97 413.33 287.90 422.97 288.88 C 431.71 288.98 442.80 287.20 449.42 294.54 C 457.65 304.84 466.81 315.06 471.23 327.70 C 476.10 349.72 470.63 372.12 468.06 394.05 C 466.46 407.39 468.25 421.68 462.10 434.11 C 456.48 443.73 448.72 454.08 436.75 455.44 C 441.27 444.92 453.12 439.98 457.35 429.27 C 463.48 415.67 461.25 400.53 463.24 386.15 C 465.58 369.98 468.67 353.72 467.61 337.31 C 464.78 322.28 454.29 310.55 444.50 299.46 C 438.49 292.23 428.25 293.95 420.03 294.12 C 411.96 296.10 402.26 301.58 401.92 310.95 C 399.23 332.39 392.67 353.28 392.11 374.99 C 391.59 387.34 395.13 399.40 398.97 410.99 C 402.14 421.03 404.36 432.20 411.88 440.11 C 417.46 446.00 425.80 447.92 433.36 449.89 C 430.56 452.38 426.80 454.59 422.93 453.27 C 411.51 451.58 402.97 442.17 399.39 431.68 C 394.24 415.43 387.85 399.21 387.23 381.98 C 385.46 359.98 391.34 338.57 395.16 317.14 C 396.46 311.62 395.67 305.38 398.28 300.22 Z" />
<path fill="#76428a" opacity="1.00" d=" M 246.04 291.09 C 258.37 292.26 264.68 304.62 267.92 315.06 C 269.49 321.09 276.32 322.41 281.64 323.40 C 301.77 324.77 321.98 323.71 342.15 324.00 C 341.90 334.10 341.22 344.17 340.87 354.27 C 321.42 352.61 301.31 349.19 282.29 355.26 C 274.41 357.33 268.44 363.32 262.04 367.99 C 256.56 371.47 249.68 371.11 243.54 372.49 C 231.84 373.75 219.07 379.42 208.06 373.05 C 207.21 366.01 212.79 362.12 218.05 359.26 C 213.42 358.11 207.61 358.64 204.12 354.74 C 204.06 350.42 205.02 346.23 205.54 341.98 C 208.18 341.73 213.46 341.21 216.10 340.96 C 210.09 337.93 202.74 334.84 201.99 327.06 C 216.80 322.94 232.35 324.08 247.55 323.99 C 244.98 313.24 244.47 302.02 246.04 291.09 M 249.92 299.98 C 249.35 311.43 254.41 321.76 258.69 332.03 C 243.20 328.68 226.57 326.70 211.23 331.48 C 222.89 339.03 237.30 336.75 250.38 338.70 C 249.65 339.66 248.19 341.59 247.47 342.55 C 236.68 344.95 225.57 345.46 214.62 346.73 C 211.87 347.01 209.81 348.99 207.83 350.71 C 221.44 356.21 236.56 353.40 250.80 353.35 C 250.01 355.78 249.95 359.27 246.88 359.66 C 236.06 361.94 223.09 360.93 215.09 370.04 C 225.93 371.26 236.52 367.73 247.17 366.28 C 259.05 365.38 265.85 353.94 276.81 350.65 C 295.52 344.40 315.75 347.36 335.06 347.83 C 335.88 341.58 336.43 335.29 337.09 329.02 C 319.06 328.84 301.03 329.41 283.01 328.79 C 277.20 328.84 271.45 327.31 266.31 324.64 C 261.52 320.99 259.94 314.77 258.59 309.23 C 257.46 304.87 254.06 301.56 249.92 299.98 Z" />
<path fill="#76428a" opacity="1.00" d=" M 691.05 323.91 C 705.68 325.35 720.35 325.96 735.06 326.01 C 737.24 325.75 739.34 327.07 739.53 329.38 C 740.45 343.58 738.62 357.81 739.89 372.01 C 738.49 372.00 737.10 372.00 735.72 371.99 C 732.45 358.61 734.81 344.68 734.50 331.08 C 721.91 330.94 709.30 331.34 696.77 329.98 C 696.93 342.89 699.76 355.46 702.27 368.04 C 710.83 367.90 719.37 367.20 727.93 366.97 C 728.35 368.60 728.78 370.23 729.22 371.87 C 718.56 372.44 707.89 372.92 697.23 373.08 C 694.07 356.83 692.01 340.43 691.05 323.91 Z" />
<path fill="#76428a" opacity="1.00" d=" M 406.02 329.90 C 408.35 330.26 410.69 330.63 413.04 331.00 C 412.94 332.64 412.74 335.92 412.65 337.56 C 410.99 337.69 407.68 337.94 406.03 338.07 C 406.00 335.34 406.00 332.62 406.02 329.90 Z" />
<path fill="#76428a" opacity="1.00" d=" M 445.88 331.96 C 448.44 332.06 451.00 332.18 453.58 332.31 C 453.73 334.86 453.89 337.42 454.08 340.00 C 452.30 339.99 448.74 339.99 446.96 339.99 C 446.59 337.31 446.20 334.61 445.88 331.96 Z" />
<path fill="#76428a" opacity="1.00" d=" M 863.58 343.01 C 865.37 345.51 867.22 348.00 869.12 350.47 C 892.15 351.43 915.22 351.13 938.26 350.60 C 937.59 354.84 935.17 356.58 931.01 355.80 C 910.45 356.48 889.87 355.79 869.31 355.97 C 869.37 358.64 869.45 361.32 869.55 364.02 C 865.95 362.87 863.86 359.69 862.52 356.42 C 839.02 355.59 815.50 356.14 792.00 356.00 L 792.00 351.00 C 815.59 351.02 839.17 350.97 862.77 351.01 C 862.97 349.01 863.38 345.01 863.58 343.01 Z" />
<path fill="#76428a" opacity="1.00" d=" M 422.44 400.11 C 427.91 400.78 437.95 397.09 437.85 406.38 C 434.07 406.14 430.33 405.74 426.55 405.98 C 430.57 408.60 435.93 410.08 437.22 415.51 C 431.44 415.37 426.08 413.34 420.78 411.31 C 421.32 407.57 421.88 403.84 422.44 400.11 Z" />
<path fill="#76428a" opacity="1.00" d=" M 324.00 408.92 L 328.13 406.75 C 327.30 414.44 329.56 423.57 324.04 430.03 C 322.25 432.68 320.28 435.81 316.96 436.72 C 300.42 441.29 283.16 441.52 266.32 444.35 C 259.42 445.62 252.38 445.53 245.40 445.26 C 244.67 442.98 243.91 440.72 243.14 438.46 C 239.99 443.11 240.34 448.82 241.71 454.05 C 238.55 453.34 235.43 452.59 232.27 451.92 C 231.59 452.66 230.90 453.42 230.21 454.17 C 234.58 458.68 238.80 463.67 239.60 470.20 C 234.62 470.06 229.59 470.46 224.88 472.17 C 227.28 474.53 230.01 476.84 233.43 477.45 C 242.76 478.24 252.47 479.10 261.60 476.41 C 270.46 473.83 277.95 467.49 287.41 466.76 C 297.34 466.53 307.03 462.41 317.00 464.82 C 316.33 465.58 315.67 466.35 315.02 467.13 C 322.01 467.11 329.02 467.33 336.00 466.85 C 340.63 465.89 343.95 462.18 347.60 459.47 C 345.02 454.07 340.91 449.48 338.79 443.87 C 339.04 436.28 342.56 429.16 343.03 421.55 C 344.75 416.87 341.51 408.38 349.05 407.75 C 349.14 416.46 348.75 425.19 346.96 433.74 C 344.72 443.71 353.00 451.84 352.63 461.64 C 350.65 466.01 347.37 470.50 342.31 471.25 C 330.26 472.84 318.10 471.69 306.01 471.61 C 299.08 472.00 292.28 473.64 285.43 474.63 C 276.30 475.65 268.81 481.89 259.56 482.45 C 246.79 483.03 232.82 485.27 220.95 479.21 C 220.94 476.32 220.91 470.54 220.89 467.64 C 224.08 466.44 227.33 465.40 230.62 464.52 C 228.66 462.41 226.78 460.20 224.88 458.05 C 224.95 454.94 225.04 452.00 225.03 448.93 C 228.06 448.12 231.08 447.27 234.15 446.55 C 235.06 440.91 236.69 430.92 245.03 432.95 C 249.06 432.96 249.55 438.05 250.92 440.87 C 271.16 438.07 291.62 436.61 311.65 432.47 C 320.96 429.25 323.02 417.37 324.00 408.92 Z" />
<path fill="#76428a" opacity="1.00" d=" M 44.13 416.84 C 46.80 416.20 49.47 415.46 52.25 415.49 C 55.16 416.24 57.84 417.66 60.64 418.71 C 58.83 421.94 56.59 424.96 53.60 427.19 C 52.33 448.45 53.51 469.75 52.85 491.02 C 52.57 504.23 48.68 517.03 48.62 530.28 C 61.23 529.86 73.72 527.89 86.34 527.73 C 87.11 516.17 81.91 505.49 81.99 494.01 C 81.15 481.87 78.55 469.94 77.75 457.80 C 86.84 458.53 95.89 459.55 104.99 460.22 C 105.08 485.36 104.80 510.50 105.19 535.64 C 105.95 536.32 106.71 537.01 107.47 537.70 C 114.18 537.86 120.90 537.96 127.63 538.05 C 126.91 526.72 131.44 516.17 132.13 505.01 C 133.74 491.52 135.59 477.58 131.78 464.31 C 129.02 451.20 128.04 437.77 127.88 424.39 C 106.93 425.46 85.96 424.89 65.00 424.99 C 65.00 423.24 65.00 419.74 65.00 418.00 C 87.65 418.30 110.32 418.25 132.87 415.79 C 133.00 429.73 132.78 443.84 135.81 457.53 C 140.76 472.11 139.30 487.95 138.38 503.06 C 138.05 516.45 130.89 529.59 134.59 543.04 C 123.06 542.76 111.24 544.17 99.90 541.56 C 100.09 516.17 99.98 490.79 99.98 465.40 C 94.29 464.95 88.53 464.81 82.99 463.33 C 84.77 472.81 86.02 482.39 86.85 492.01 C 87.29 501.48 90.46 510.53 91.07 520.00 C 90.92 524.64 93.14 528.71 94.99 532.77 C 77.90 532.70 60.93 534.87 43.86 535.15 C 44.19 526.27 43.36 517.26 45.10 508.50 C 49.46 489.99 47.67 470.82 48.12 452.00 C 47.87 440.24 49.32 427.79 44.13 416.84 Z" />
<path fill="#76428a" opacity="1.00" d=" M 323.40 451.24 C 326.76 449.88 330.14 448.62 333.62 447.58 C 332.87 453.87 327.81 459.40 320.99 457.97 C 315.21 460.63 313.85 453.76 311.71 450.66 C 315.49 450.36 319.67 452.98 323.40 451.24 Z" />
<path fill="#76428a" opacity="1.00" d=" M 858.27 458.02 C 862.09 458.26 863.43 461.77 864.00 464.81 C 864.38 481.78 860.37 498.76 862.13 515.70 C 880.41 516.18 898.83 516.74 916.98 513.98 C 940.43 512.02 963.75 508.68 986.96 504.83 C 986.99 492.58 986.98 480.34 987.01 468.10 C 969.47 468.16 951.90 466.39 934.41 468.27 C 913.97 469.48 893.46 470.82 872.99 469.88 C 870.21 470.06 869.52 465.99 869.06 464.28 C 892.56 465.60 916.17 465.16 939.58 462.64 C 957.04 461.12 974.52 462.92 991.99 463.10 C 992.02 478.70 992.01 494.31 991.97 509.91 C 967.26 512.72 942.80 517.41 917.97 519.13 C 898.00 521.94 877.78 520.86 857.69 521.05 C 853.05 507.91 857.94 494.40 857.84 481.02 C 858.08 473.35 858.07 465.68 858.27 458.02 Z" />
<path fill="#76428a" opacity="1.00" d=" M 555.82 495.01 C 566.47 491.53 577.73 490.98 588.80 489.94 C 591.72 501.79 593.82 513.80 595.86 525.82 C 594.01 526.25 592.17 526.69 590.32 527.12 C 588.70 516.50 586.96 505.89 583.82 495.60 C 575.79 496.51 567.64 497.33 559.99 500.05 C 557.15 501.27 557.29 504.98 557.58 507.57 C 559.08 515.91 559.85 524.36 560.33 532.83 C 572.82 533.39 586.41 537.57 598.07 531.10 C 598.43 533.81 598.72 536.47 599.12 539.21 C 584.50 540.55 569.87 539.49 555.35 537.80 C 555.15 526.78 553.46 515.92 552.26 505.00 C 552.05 501.64 552.18 496.69 555.82 495.01 Z" />
<path fill="#76428a" opacity="1.00" d=" M 725.61 489.91 C 727.50 492.49 729.29 495.15 731.00 497.89 C 751.34 496.83 771.60 494.05 792.01 494.27 C 806.03 494.96 819.95 492.49 833.99 492.76 L 833.99 497.75 C 819.47 497.75 805.06 499.89 790.54 499.58 C 770.50 498.98 750.60 501.88 730.68 503.43 C 729.22 507.62 728.05 512.51 723.43 514.45 C 723.28 510.63 723.43 507.00 723.58 503.24 C 704.82 505.72 685.87 504.97 667.01 504.99 L 667.00 500.00 C 686.26 500.15 705.59 500.44 724.74 497.93 C 724.95 495.92 725.39 491.92 725.61 489.91 Z" />
<path fill="#76428a" opacity="1.00" d=" M 377.00 523.99 C 389.14 521.60 401.59 522.00 413.91 521.94 C 414.78 525.62 415.54 529.30 416.30 533.03 C 398.65 533.46 380.83 530.76 363.32 533.93 C 356.11 534.27 348.90 532.78 341.69 533.67 C 331.04 534.89 320.36 535.99 309.80 537.86 C 295.84 541.57 282.05 545.88 268.13 549.73 C 260.34 551.23 254.02 556.26 247.69 560.68 C 244.39 562.90 242.02 567.26 243.72 571.24 C 245.73 575.52 249.04 579.61 253.68 581.11 C 266.55 585.53 280.20 586.96 293.63 588.63 C 316.15 593.13 339.21 593.40 361.99 595.70 C 385.30 596.21 408.81 597.11 431.95 593.63 C 444.55 591.82 457.30 591.11 469.86 588.91 C 485.11 585.01 496.66 573.68 509.76 565.63 C 513.45 563.28 514.58 558.27 513.86 554.19 C 511.28 549.84 506.23 548.02 501.82 546.14 C 494.91 543.65 488.36 540.02 481.01 538.90 C 473.90 537.40 467.33 533.71 459.98 533.37 C 447.04 532.51 434.08 533.01 421.13 532.99 C 420.85 529.27 420.57 525.55 420.28 521.85 C 437.14 521.98 455.22 521.05 470.74 528.91 C 478.51 533.46 487.91 533.03 495.85 537.07 C 503.69 540.63 512.32 542.72 519.17 548.16 C 518.86 553.61 519.41 559.20 518.47 564.62 C 517.07 569.86 511.57 571.83 507.72 574.90 C 500.02 581.06 491.41 585.94 482.97 590.96 C 468.82 596.59 453.14 595.73 438.31 598.08 C 413.08 602.11 387.45 601.04 362.00 600.98 C 349.95 601.03 338.02 599.10 326.00 598.61 C 315.10 597.39 304.05 597.22 293.36 594.53 C 278.36 592.32 263.02 591.12 248.59 586.19 C 242.91 582.73 237.76 577.07 238.01 569.97 C 237.85 565.62 237.35 560.22 241.35 557.40 C 247.87 552.51 254.57 547.26 262.66 545.31 C 284.79 539.11 306.74 532.12 329.22 527.20 C 345.04 524.89 361.26 527.18 377.00 523.99 Z" />
<path fill="#76428a" opacity="1.00" d=" M 41.88 570.46 C 45.92 571.47 49.88 572.79 53.84 574.09 C 54.00 575.33 54.17 576.59 54.33 577.84 C 46.42 580.26 52.57 590.36 50.77 595.98 C 40.46 598.87 30.09 601.59 19.96 605.10 C 19.23 608.78 18.50 612.50 17.71 616.19 C 37.07 619.31 56.77 618.06 76.19 616.20 C 74.24 603.46 72.56 590.68 71.74 577.81 C 68.21 578.07 64.70 578.43 61.19 578.83 C 60.73 576.91 60.26 575.00 59.81 573.09 C 65.47 573.00 71.12 572.98 76.77 573.01 C 76.82 589.21 80.52 605.01 82.20 621.05 C 59.14 622.38 35.57 625.39 12.70 620.84 C 13.42 614.54 12.45 607.85 14.80 601.84 C 15.17 600.29 16.69 599.65 18.05 599.19 C 27.39 596.12 36.95 593.75 46.35 590.84 C 45.41 583.93 43.40 577.24 41.88 570.46 Z" />
<path fill="#76428a" opacity="1.00" d=" M 115.49 574.93 C 117.10 574.95 120.32 575.00 121.93 575.02 C 121.97 580.32 122.01 585.64 122.06 590.96 C 132.61 589.67 143.24 588.46 153.89 589.19 C 156.61 589.54 158.60 591.80 160.14 593.88 C 165.48 598.83 163.46 606.61 164.24 613.11 C 158.94 615.81 153.77 619.22 147.61 619.44 C 133.86 620.40 120.06 620.59 106.29 621.12 C 106.32 605.61 103.97 590.26 101.24 575.04 C 104.07 575.71 107.10 576.15 109.81 577.33 C 108.64 590.23 110.60 603.13 111.26 616.03 C 127.59 614.37 145.95 618.50 160.02 607.84 C 157.99 603.18 156.21 597.14 151.35 594.66 C 139.94 592.69 128.63 596.14 117.32 597.21 C 116.92 589.76 116.71 582.29 115.49 574.93 Z" />
</g>
<g id="#9badb7ff">
<path fill="#9badb7" opacity="1.00" d=" M 482.45 616.55 C 530.03 614.69 577.77 616.96 624.99 623.06 C 657.17 627.79 689.46 633.97 719.73 646.22 C 730.82 650.99 742.03 656.64 750.19 665.80 C 754.83 671.05 756.52 679.18 753.65 685.66 C 747.64 697.44 735.27 703.43 723.97 708.98 C 704.01 717.63 682.91 723.38 661.61 727.58 C 614.33 736.80 566.11 740.48 518.00 741.05 C 473.92 741.24 429.71 738.72 386.13 731.83 C 358.16 727.11 330.15 721.14 303.88 710.19 C 293.08 705.42 282.14 699.76 274.36 690.65 C 268.94 684.12 268.16 673.55 274.07 667.05 C 280.58 657.80 291.23 652.94 301.03 648.02 C 331.43 634.84 364.23 628.51 396.86 623.79 C 425.24 619.89 453.81 617.40 482.45 616.55 Z" />
</g>
</svg>
