<?xml version="1.0" encoding="UTF-8" ?>
<!DOCTYPE svg PUBLIC "-//W3C//DTD SVG 1.1//EN" "http://www.w3.org/Graphics/SVG/1.1/DTD/svg11.dtd">
<svg width="1024pt" height="768pt" viewBox="0 0 1024 768" version="1.1" xmlns="http://www.w3.org/2000/svg">
<g id="#eec39aff">
<path fill="#eec39a" opacity="1.00" d=" M 0.00 0.00 L 1024.00 0.00 L 1024.00 768.00 L 0.00 768.00 L 0.00 0.00 M 52.47 40.46 C 42.67 53.02 36.16 68.68 36.56 84.83 C 42.89 85.01 49.23 85.20 55.55 85.71 C 68.12 86.78 80.29 90.85 92.98 90.82 C 109.16 91.43 125.64 89.88 141.55 93.57 C 146.42 94.50 151.40 94.58 156.33 95.02 L 153.94 90.96 C 134.31 83.37 112.62 86.71 92.10 85.99 C 91.76 73.52 92.26 60.84 89.45 48.60 C 86.92 42.50 83.79 33.11 75.02 35.79 C 67.52 36.19 58.80 35.65 52.47 40.46 M 40.89 145.58 C 42.26 152.01 40.47 158.33 38.24 164.32 C 32.43 164.24 26.56 163.88 20.83 165.05 C 15.78 167.26 13.05 172.52 12.24 177.77 C 16.27 176.77 19.55 174.19 23.30 172.62 C 28.26 172.17 33.24 171.96 38.23 172.01 C 41.01 176.95 44.53 181.85 49.75 184.41 C 55.69 187.72 63.93 185.28 67.66 179.75 C 70.45 175.32 75.39 171.55 80.85 172.15 C 87.29 173.92 89.01 181.20 92.25 186.13 C 98.78 185.28 105.35 184.50 111.78 183.00 C 112.57 179.42 113.40 175.86 114.22 172.29 C 123.42 169.73 132.46 165.87 142.26 166.98 C 144.53 169.72 146.97 172.37 150.21 174.02 C 149.45 169.57 150.72 162.16 144.70 161.35 C 134.63 160.80 124.58 162.36 114.62 163.68 C 113.48 160.07 112.85 156.16 111.04 152.87 C 105.01 149.12 97.07 150.29 90.34 150.30 C 85.99 152.44 86.40 158.60 82.64 161.38 C 78.66 162.25 74.61 162.73 70.60 163.44 C 68.93 158.79 69.70 151.09 63.66 149.57 C 56.14 147.89 48.48 146.85 40.89 145.58 M 109.90 241.80 C 106.02 243.06 104.94 247.48 104.09 250.99 C 103.00 260.28 97.66 269.89 88.75 273.64 C 82.01 277.58 73.98 274.78 67.76 271.20 C 62.52 268.19 61.69 261.60 59.43 256.58 C 57.27 251.46 54.26 245.15 47.72 245.05 C 39.20 243.57 30.50 244.04 21.90 243.82 C 21.58 258.41 23.47 272.88 24.32 287.42 C 31.07 286.52 37.60 284.58 44.14 282.77 C 36.95 309.64 37.81 337.75 38.02 365.30 C 50.34 364.99 62.09 361.10 74.25 359.56 C 80.27 358.25 86.12 355.04 92.46 356.20 C 106.06 357.31 119.71 357.03 133.34 357.01 C 131.67 336.72 122.51 318.33 116.82 299.06 C 115.64 293.38 111.56 289.00 110.02 283.46 C 119.46 281.91 128.98 281.03 138.50 280.15 C 138.99 266.05 141.10 251.02 135.14 237.74 C 126.67 238.46 117.97 238.90 109.90 241.80 M 48.84 414.72 C 47.48 415.73 46.09 416.71 44.68 417.67 C 49.44 430.19 47.82 443.89 48.11 457.00 C 47.85 474.17 49.09 491.63 45.11 508.50 C 43.37 517.26 44.18 526.27 43.86 535.14 C 60.91 534.91 77.86 532.68 94.93 532.77 C 90.71 525.63 91.01 517.15 89.57 509.25 C 85.96 494.16 86.37 478.47 83.00 463.33 C 88.54 464.81 94.29 464.96 99.98 465.39 C 99.99 490.79 100.07 516.19 99.92 541.59 C 111.26 544.07 123.06 542.75 134.57 543.07 C 130.94 529.60 138.01 516.45 138.38 503.05 C 139.31 487.95 140.72 472.12 135.82 457.54 C 132.79 443.85 132.99 429.75 132.87 415.82 C 110.64 417.88 88.30 418.78 65.98 417.86 C 60.11 417.78 54.43 416.35 48.84 414.72 M 41.85 570.95 C 43.47 577.55 45.50 584.07 46.34 590.83 C 36.96 593.79 27.38 596.09 18.04 599.20 C 17.01 599.66 15.60 599.95 15.14 601.14 C 12.30 607.26 13.47 614.33 12.68 620.86 C 35.57 625.33 59.13 622.41 82.20 621.04 C 80.51 605.00 76.84 589.19 76.77 572.98 C 65.09 573.93 53.20 574.28 41.85 570.95 M 101.28 576.41 C 104.36 591.11 106.21 606.09 106.28 621.13 C 120.06 620.59 133.86 620.41 147.61 619.43 C 153.76 619.19 158.95 615.81 164.25 613.12 C 163.76 607.87 164.48 602.29 162.65 597.32 C 160.27 594.25 158.13 589.87 153.89 589.20 C 143.24 588.45 132.60 589.68 122.04 590.96 C 122.01 585.62 121.98 580.29 121.95 574.97 C 115.08 575.67 108.21 576.65 101.28 576.41 M 482.45 616.55 C 453.81 617.40 425.24 619.89 396.86 623.79 C 364.23 628.51 331.43 634.84 301.03 648.02 C 291.23 652.93 280.58 657.80 274.07 667.05 C 268.16 673.54 268.94 684.12 274.35 690.65 C 282.49 700.14 293.97 705.91 305.27 710.78 C 335.26 722.93 367.25 729.08 399.13 733.82 C 440.17 739.23 481.61 741.54 523.00 741.01 C 569.71 740.17 616.51 736.47 662.39 727.42 C 683.43 723.24 704.26 717.52 723.97 708.98 C 735.28 703.43 747.64 697.44 753.65 685.66 C 756.52 679.18 754.83 671.05 750.19 665.80 C 742.03 656.65 730.82 650.99 719.73 646.22 C 689.46 633.97 657.17 627.79 624.99 623.06 C 577.77 616.96 530.03 614.69 482.45 616.55 Z" />
<path fill="#eec39a" opacity="1.00" d=" M 66.40 48.32 C 69.09 48.22 74.47 48.02 77.16 47.92 C 79.37 52.71 81.42 57.57 83.42 62.46 C 86.37 69.54 85.64 77.43 86.25 84.91 C 73.15 82.74 60.08 80.17 46.78 79.72 C 51.43 68.16 57.97 57.50 66.40 48.32 Z" />
<path fill="#eec39a" opacity="1.00" d=" M 46.29 160.37 C 48.84 158.49 51.38 156.62 53.96 154.79 C 55.98 156.34 58.01 157.90 60.04 159.44 C 60.13 164.53 59.98 169.62 59.59 174.70 C 58.85 176.72 56.54 177.79 54.77 176.28 C 50.45 171.97 48.16 166.07 46.29 160.37 Z" />
<path fill="#eec39a" opacity="1.00" d=" M 95.20 155.72 C 99.06 157.55 103.78 159.20 105.35 163.62 C 106.69 168.97 103.14 173.46 101.34 178.15 C 99.46 174.99 97.01 172.06 95.89 168.52 C 95.15 164.30 95.53 159.98 95.20 155.72 Z" />
<path fill="#eec39a" opacity="1.00" d=" M 112.48 247.55 C 118.18 245.37 124.21 244.37 130.11 242.89 C 135.63 252.78 133.70 264.65 133.79 275.48 C 123.64 275.99 113.52 276.91 103.46 278.27 C 104.47 285.41 106.34 292.49 109.92 298.79 C 115.64 316.55 123.52 333.63 127.06 352.05 C 115.33 352.09 103.57 352.06 91.90 350.71 C 82.51 349.27 74.01 354.33 64.90 355.41 C 57.48 356.36 50.28 358.41 43.05 360.27 C 43.09 344.17 42.20 327.92 44.62 311.94 C 45.94 300.45 48.58 289.15 49.29 277.59 C 42.49 277.90 35.64 278.36 29.15 280.61 C 28.68 269.95 27.18 259.36 26.81 248.69 C 34.15 249.49 42.48 247.47 48.92 252.07 C 54.83 257.80 55.81 266.45 59.72 273.34 C 66.97 279.82 77.50 281.86 86.95 280.78 C 97.27 279.12 105.64 270.46 107.92 260.43 C 109.22 256.21 109.06 250.84 112.48 247.55 Z" />
<path fill="#eec39a" opacity="1.00" d=" M 53.03 425.84 C 77.94 424.05 102.93 425.73 127.85 424.52 C 127.97 437.12 128.04 449.89 131.01 462.22 C 136.83 479.07 133.08 497.32 131.16 514.55 C 129.04 522.21 128.23 530.12 127.69 538.03 C 120.91 537.98 114.13 537.91 107.35 537.80 C 106.66 537.03 105.97 536.28 105.28 535.54 C 104.73 510.45 105.10 485.36 104.99 460.27 C 95.85 460.14 86.81 458.80 77.74 457.78 C 78.15 472.92 81.67 487.73 82.57 502.83 C 84.27 511.07 85.87 519.33 86.30 527.77 C 73.71 527.88 61.20 529.18 48.67 530.19 C 48.69 516.97 52.57 504.20 52.84 491.02 C 53.40 469.30 52.78 447.57 53.03 425.84 Z" />
<path fill="#eec39a" opacity="1.00" d=" M 50.25 579.21 C 57.44 579.07 64.63 578.68 71.79 577.97 C 72.32 590.78 73.88 603.50 76.14 616.12 C 56.65 617.65 36.84 619.66 17.45 616.18 C 18.75 612.72 18.15 607.80 21.06 605.08 C 30.66 600.84 41.05 598.91 51.08 595.93 C 50.85 590.34 50.60 584.77 50.25 579.21 Z" />
<path fill="#eec39a" opacity="1.00" d=" M 108.13 582.21 C 111.05 581.76 113.99 581.45 116.91 580.99 C 116.97 586.43 117.02 591.87 117.07 597.32 C 128.05 596.57 138.84 593.56 149.90 594.16 C 155.82 595.74 157.80 602.90 160.02 607.85 C 145.98 618.50 127.55 613.91 111.26 616.02 C 111.13 604.67 109.83 593.41 108.13 582.21 Z" />
</g>
<g id="#9397aeff">
<path fill="#9397ae" opacity="1.00" d=" M 52.47 40.46 C 58.80 35.65 67.52 36.19 75.02 35.79 C 83.79 33.11 86.92 42.50 89.45 48.60 C 92.26 60.84 91.76 73.52 92.10 85.99 C 112.62 86.71 134.31 83.37 153.94 90.96 L 156.33 95.02 C 151.40 94.58 146.42 94.50 141.55 93.57 C 125.64 89.88 109.16 91.43 92.98 90.82 C 80.29 90.85 68.12 86.78 55.55 85.71 C 49.23 85.20 42.89 85.01 36.56 84.83 C 36.16 68.68 42.67 53.02 52.47 40.46 M 66.40 48.32 C 57.97 57.50 51.43 68.16 46.78 79.72 C 60.08 80.17 73.15 82.74 86.25 84.91 C 85.64 77.43 86.37 69.54 83.42 62.46 C 81.42 57.57 79.37 52.71 77.16 47.92 C 74.47 48.02 69.09 48.22 66.40 48.32 Z" />
<path fill="#9397ae" opacity="1.00" d=" M 40.89 145.58 C 48.48 146.85 56.14 147.89 63.66 149.57 C 69.70 151.09 68.93 158.79 70.60 163.44 C 74.61 162.73 78.66 162.25 82.64 161.38 C 86.40 158.60 85.99 152.44 90.34 150.30 C 97.07 150.29 105.01 149.12 111.04 152.87 C 112.85 156.16 113.48 160.07 114.62 163.68 C 124.58 162.36 134.63 160.80 144.70 161.35 C 150.72 162.16 149.45 169.57 150.21 174.02 C 146.97 172.37 144.53 169.72 142.26 166.98 C 132.46 165.87 123.42 169.73 114.22 172.29 C 113.40 175.86 112.57 179.42 111.78 183.00 C 105.35 184.50 98.78 185.28 92.25 186.13 C 89.01 181.20 87.29 173.92 80.85 172.15 C 75.39 171.55 70.45 175.32 67.66 179.75 C 63.93 185.28 55.69 187.72 49.75 184.41 C 44.53 181.85 41.01 176.95 38.23 172.01 C 33.24 171.96 28.26 172.17 23.30 172.62 C 19.55 174.19 16.27 176.77 12.24 177.77 C 13.05 172.52 15.78 167.26 20.83 165.05 C 26.56 163.88 32.43 164.24 38.24 164.32 C 40.47 158.33 42.26 152.01 40.89 145.58 M 46.29 160.37 C 48.16 166.07 50.45 171.97 54.77 176.28 C 56.54 177.79 58.85 176.72 59.59 174.70 C 59.98 169.62 60.13 164.53 60.04 159.44 C 58.01 157.90 55.98 156.34 53.96 154.79 C 51.38 156.62 48.84 158.49 46.29 160.37 M 95.20 155.72 C 95.53 159.98 95.15 164.30 95.89 168.52 C 97.01 172.06 99.46 174.99 101.34 178.15 C 103.14 173.46 106.69 168.97 105.35 163.62 C 103.78 159.20 99.06 157.55 95.20 155.72 Z" />
<path fill="#9397ae" opacity="1.00" d=" M 109.90 241.80 C 117.97 238.90 126.67 238.46 135.14 237.74 C 141.10 251.02 138.99 266.05 138.50 280.15 C 128.98 281.03 119.46 281.91 110.02 283.46 C 111.56 289.00 115.64 293.38 116.82 299.06 C 122.51 318.33 131.67 336.72 133.34 357.01 C 119.71 357.03 106.06 357.31 92.46 356.20 C 86.12 355.04 80.27 358.25 74.25 359.56 C 62.09 361.10 50.34 364.99 38.02 365.30 C 37.81 337.75 36.95 309.64 44.14 282.77 C 37.60 284.58 31.07 286.52 24.32 287.42 C 23.47 272.88 21.58 258.41 21.90 243.82 C 30.50 244.04 39.20 243.57 47.72 245.05 C 54.26 245.15 57.27 251.46 59.43 256.58 C 61.69 261.60 62.52 268.19 67.76 271.20 C 73.98 274.78 82.01 277.58 88.75 273.64 C 97.66 269.89 103.00 260.28 104.09 250.99 C 104.94 247.48 106.02 243.06 109.90 241.80 M 112.48 247.55 C 109.06 250.84 109.22 256.21 107.92 260.43 C 105.64 270.46 97.27 279.12 86.95 280.78 C 77.50 281.86 66.97 279.82 59.72 273.34 C 55.81 266.45 54.83 257.80 48.92 252.07 C 42.48 247.47 34.15 249.49 26.81 248.69 C 27.18 259.36 28.68 269.95 29.15 280.61 C 35.64 278.36 42.49 277.90 49.29 277.59 C 48.58 289.15 45.94 300.45 44.62 311.94 C 42.20 327.92 43.09 344.17 43.05 360.27 C 50.28 358.41 57.48 356.36 64.90 355.41 C 74.01 354.33 82.51 349.27 91.90 350.71 C 103.57 352.06 115.33 352.09 127.06 352.05 C 123.52 333.63 115.64 316.55 109.92 298.79 C 106.34 292.49 104.47 285.41 103.46 278.27 C 113.52 276.91 123.64 275.99 133.79 275.48 C 133.70 264.65 135.63 252.78 130.11 242.89 C 124.21 244.37 118.18 245.37 112.48 247.55 Z" />
<path fill="#9397ae" opacity="1.00" d=" M 48.84 414.72 C 54.43 416.35 60.11 417.78 65.98 417.86 C 88.30 418.78 110.64 417.88 132.87 415.82 C 132.99 429.75 132.79 443.85 135.82 457.54 C 140.72 472.12 139.31 487.95 138.38 503.05 C 138.01 516.45 130.94 529.60 134.57 543.07 C 123.06 542.75 111.26 544.07 99.92 541.59 C 100.07 516.19 99.99 490.79 99.98 465.39 C 94.29 464.96 88.54 464.81 83.00 463.33 C 86.37 478.47 85.96 494.16 89.57 509.25 C 91.01 517.15 90.71 525.63 94.93 532.77 C 77.86 532.68 60.91 534.91 43.86 535.14 C 44.18 526.27 43.37 517.26 45.11 508.50 C 49.09 491.63 47.85 474.17 48.11 457.00 C 47.82 443.89 49.44 430.19 44.68 417.67 C 46.09 416.71 47.48 415.73 48.84 414.72 M 53.03 425.84 C 52.78 447.57 53.40 469.30 52.84 491.02 C 52.57 504.20 48.69 516.97 48.67 530.19 C 61.20 529.18 73.71 527.88 86.30 527.77 C 85.87 519.33 84.27 511.07 82.57 502.83 C 81.67 487.73 78.15 472.92 77.74 457.78 C 86.81 458.80 95.85 460.14 104.99 460.27 C 105.10 485.36 104.73 510.45 105.28 535.54 C 105.97 536.28 106.66 537.03 107.35 537.80 C 114.13 537.91 120.91 537.98 127.69 538.03 C 128.23 530.12 129.04 522.21 131.16 514.55 C 133.08 497.32 136.83 479.07 131.01 462.22 C 128.04 449.89 127.97 437.12 127.85 424.52 C 102.93 425.73 77.94 424.05 53.03 425.84 Z" />
<path fill="#9397ae" opacity="1.00" d=" M 41.85 570.95 C 53.20 574.28 65.09 573.93 76.77 572.98 C 76.84 589.19 80.51 605.00 82.20 621.04 C 59.13 622.41 35.57 625.33 12.68 620.86 C 13.47 614.33 12.30 607.26 15.14 601.14 C 15.60 599.95 17.01 599.66 18.04 599.20 C 27.38 596.09 36.96 593.79 46.34 590.83 C 45.50 584.07 43.47 577.55 41.85 570.95 M 50.25 579.21 C 50.60 584.77 50.85 590.34 51.08 595.93 C 41.05 598.91 30.66 600.84 21.06 605.08 C 18.15 607.80 18.75 612.72 17.45 616.18 C 36.84 619.66 56.65 617.65 76.14 616.12 C 73.88 603.50 72.32 590.78 71.79 577.97 C 64.63 578.68 57.44 579.07 50.25 579.21 Z" />
<path fill="#9397ae" opacity="1.00" d=" M 101.28 576.41 C 108.21 576.65 115.08 575.67 121.95 574.97 C 121.98 580.29 122.01 585.62 122.04 590.96 C 132.60 589.68 143.24 588.45 153.89 589.20 C 158.13 589.87 160.27 594.25 162.65 597.32 C 164.48 602.29 163.76 607.87 164.25 613.12 C 158.95 615.81 153.76 619.19 147.61 619.43 C 133.86 620.41 120.06 620.59 106.28 621.13 C 106.21 606.09 104.36 591.11 101.28 576.41 M 108.13 582.21 C 109.83 593.41 111.13 604.67 111.26 616.02 C 127.55 613.91 145.98 618.50 160.02 607.85 C 157.80 602.90 155.82 595.74 149.90 594.16 C 138.84 593.56 128.05 596.57 117.07 597.32 C 117.02 591.87 116.97 586.43 116.91 580.99 C 113.99 581.45 111.05 581.76 108.13 582.21 Z" />
<path fill="#9397ae" opacity="1.00" d=" M 482.45 616.55 C 530.03 614.69 577.77 616.96 624.99 623.06 C 657.17 627.79 689.46 633.97 719.73 646.22 C 730.82 650.99 742.03 656.65 750.19 665.80 C 754.83 671.05 756.52 679.18 753.65 685.66 C 747.64 697.44 735.28 703.43 723.97 708.98 C 704.26 717.52 683.43 723.24 662.39 727.42 C 616.51 736.47 569.71 740.17 523.00 741.01 C 481.61 741.54 440.17 739.23 399.13 733.82 C 367.25 729.08 335.26 722.93 305.27 710.78 C 293.97 705.91 282.49 700.14 274.35 690.65 C 268.94 684.12 268.16 673.54 274.07 667.05 C 280.58 657.80 291.23 652.93 301.03 648.02 C 331.43 634.84 364.23 628.51 396.86 623.79 C 425.24 619.89 453.81 617.40 482.45 616.55 Z" />
</g>
</svg>
