# MagicaVoxel @ Ephtracy

# group
o 

# material
mtllib eye.mtl
usemtl palette

# normals
vn -1 0 0
vn 1 0 0
vn 0 0 1
vn 0 0 -1
vn 0 -1 0
vn 0 1 0

# texcoords
vt 0.611328 0.5
vt 0.701172 0.5
vt 0.841797 0.5

# verts
v -1.2 0.7 0.2
v -1.2 0.7 -0.7
v -1.2 1 0.9
v -1.2 1 0.6
v -1.2 1.1 0.2
v -1.2 1.1 -0.7
v -1.2 1.3 0.9
v -1.2 1.3 0.6
v -1.1 0.7 0.9
v -1.1 0.7 0.2
v -1.1 0.8 -0.7
v -1.1 0.8 -1.3
v -1.1 1 0.9
v -1.1 1 0.6
v -1.1 1.1 0.6
v -1.1 1.1 0.2
v -1.1 1.1 -0.6
v -1.1 1.1 -0.7
v -1.1 1.2 -0.6
v -1.1 1.2 -1.3
v -1 0.2 0.2
v -1 0.2 -0.4
v -1 0.2 -0.8
v -1 0.2 -1.3
v -1 0.4 1
v -1 0.4 0.5
v -1 0.4 0.4
v -1 0.4 0.2
v -1 0.4 -0.4
v -1 0.4 -0.8
v -1 0.5 -0.8
v -1 0.5 -1.3
v -1 0.7 0.9
v -1 0.7 0.5
v -1 0.7 0.4
v -1 0.7 0.0999999
v -1 0.7 -1.3
v -1 0.7 -1.5
v -1 0.8 1
v -1 0.8 0.9
v -1 0.8 -0.6
v -1 0.8 -0.8
v -1 0.8 -1.3
v -1 0.9 -1.3
v -1 0.9 -1.5
v -1 1.1 0.4
v -1 1.1 0.0999999
v -1 1.1 -1.3
v -1 1.1 -1.5
v -1 1.2 -0.6
v -1 1.2 -0.8
v -1 1.2 -0.9
v -1 1.2 -1.3
v -1 1.3 0.6
v -1 1.3 0.4
v -1 1.4 0.4
v -1 1.4 -0.1
v -1 1.4 -0.3
v -1 1.4 -0.8
v -1 1.4 -0.9
v -1 1.4 -1.5
v -1 1.6 0.6
v -1 1.6 -0.1
v -1 1.6 -0.3
v -1 1.6 -0.9
v -0.9 0 1.3
v -0.9 0 -1.7
v -0.9 0.2 0.2
v -0.9 0.2 -0.4
v -0.9 0.2 -0.8
v -0.9 0.2 -1.3
v -0.9 0.4 1
v -0.9 0.4 0.5
v -0.9 0.4 0.4
v -0.9 0.4 0.2
v -0.9 0.4 -0.4
v -0.9 0.4 -0.8
v -0.9 0.5 -0.8
v -0.9 0.5 -1.3
v -0.9 0.7 0.5
v -0.9 0.7 0.4
v -0.9 0.7 -1.3
v -0.9 0.7 -1.5
v -0.9 0.8 1
v -0.9 0.8 0.9
v -0.9 0.8 -0.8
v -0.9 0.8 -1.3
v -0.9 0.9 -1.3
v -0.9 0.9 -1.5
v -0.9 1.1 0.9
v -0.9 1.1 0.6
v -0.9 1.1 0.4
v -0.9 1.1 -1.3
v -0.9 1.1 -1.5
v -0.9 1.2 -0.8
v -0.9 1.2 -0.9
v -0.9 1.3 0.9
v -0.9 1.3 0.6
v -0.9 1.3 0.4
v -0.9 1.4 -0.1
v -0.9 1.4 -0.3
v -0.9 1.4 -0.8
v -0.9 1.4 -0.9
v -0.9 1.4 -1.5
v -0.9 1.6 0.6
v -0.9 1.6 -0.1
v -0.9 1.6 -0.3
v -0.9 1.6 -0.9
v -0.9 1.9 1.3
v -0.9 1.9 -1.7
v -1.1 0.7 0.0999999
v -1.1 0.7 -0.7
v -1.1 0.8 -0.6
v -1.1 0.8 -0.7
v -1.1 1.1 0.0999999
v -1.1 1.1 -0.6
v 2 0 1.3
v 2 0 -1.7
v 2 1.9 1.3
v 2 1.9 -1.7
v -0.9 0 1.3
v -0.9 1.9 1.3
v 2 0 1.3
v 2 1.9 1.3
v -1 0.4 1
v -1 0.8 1
v -0.9 0.4 1
v -0.9 0.8 1
v -1.2 1 0.9
v -1.2 1.3 0.9
v -1.1 0.7 0.9
v -1.1 1 0.9
v -1.1 1.1 0.9
v -1 0.7 0.9
v -1 0.8 0.9
v -0.9 0.8 0.9
v -0.9 1.1 0.9
v -0.9 1.3 0.9
v -1 1.3 0.6
v -1 1.6 0.6
v -0.9 1.3 0.6
v -0.9 1.6 0.6
v -1 0.4 0.4
v -1 0.7 0.4
v -1 1.1 0.4
v -1 1.3 0.4
v -0.9 0.4 0.4
v -0.9 0.7 0.4
v -0.9 1.1 0.4
v -0.9 1.3 0.4
v -1.2 0.7 0.2
v -1.2 1.1 0.2
v -1.1 0.7 0.2
v -1.1 1.1 0.2
v -1 0.2 0.2
v -1 0.4 0.2
v -0.9 0.2 0.2
v -0.9 0.4 0.2
v -1 1.4 -0.3
v -1 1.6 -0.3
v -0.9 1.4 -0.3
v -0.9 1.6 -0.3
v -1.1 0.8 -0.6
v -1.1 1.1 -0.6
v -1.1 1.2 -0.6
v -1 0.8 -0.6
v -1 1.2 -0.6
v -1 0.2 -0.8
v -1 0.4 -0.8
v -0.9 0.2 -0.8
v -0.9 0.4 -0.8
v -1 1.2 -0.9
v -1 1.4 -0.9
v -0.9 1.2 -0.9
v -0.9 1.4 -0.9
v -1 0.7 -1.3
v -1 0.8 -1.3
v -0.9 0.7 -1.3
v -0.9 0.8 -1.3
v -1.2 1 0.6
v -1.2 1.3 0.6
v -1.1 1 0.6
v -1.1 1.1 0.6
v -1 1.3 0.6
v -0.9 1.1 0.6
v -0.9 1.3 0.6
v -1 0.4 0.5
v -1 0.7 0.5
v -0.9 0.4 0.5
v -0.9 0.7 0.5
v -1.1 0.7 0.0999999
v -1.1 1.1 0.0999999
v -1 0.7 0.0999999
v -1 1.1 0.0999999
v -1 1.4 -0.1
v -1 1.6 -0.1
v -0.9 1.4 -0.1
v -0.9 1.6 -0.1
v -1 0.2 -0.4
v -1 0.4 -0.4
v -0.9 0.2 -0.4
v -0.9 0.4 -0.4
v -1.2 0.7 -0.7
v -1.2 1.1 -0.7
v -1.1 0.7 -0.7
v -1.1 0.8 -0.7
v -1.1 1.1 -0.7
v -1 0.5 -0.8
v -1 0.8 -0.8
v -1 1.2 -0.8
v -1 1.4 -0.8
v -0.9 0.5 -0.8
v -0.9 0.8 -0.8
v -0.9 1.2 -0.8
v -0.9 1.4 -0.8
v -1 1.4 -0.9
v -1 1.6 -0.9
v -0.9 1.4 -0.9
v -0.9 1.6 -0.9
v -1.1 0.8 -1.3
v -1.1 1.2 -1.3
v -1 0.2 -1.3
v -1 0.5 -1.3
v -1 0.8 -1.3
v -1 0.9 -1.3
v -1 1.1 -1.3
v -1 1.2 -1.3
v -0.9 0.2 -1.3
v -0.9 0.5 -1.3
v -0.9 0.9 -1.3
v -0.9 1.1 -1.3
v -1 0.7 -1.5
v -1 0.9 -1.5
v -1 1.1 -1.5
v -1 1.4 -1.5
v -0.9 0.7 -1.5
v -0.9 0.9 -1.5
v -0.9 1.1 -1.5
v -0.9 1.4 -1.5
v -0.9 0 -1.7
v -0.9 1.9 -1.7
v 2 0 -1.7
v 2 1.9 -1.7
v -0.9 0 1.3
v 2 0 1.3
v -0.9 0 -1.7
v 2 0 -1.7
v -1 0.2 0.2
v -0.9 0.2 0.2
v -1 0.2 -0.4
v -0.9 0.2 -0.4
v -1 0.2 -0.8
v -0.9 0.2 -0.8
v -1 0.2 -1.3
v -0.9 0.2 -1.3
v -1 0.4 1
v -0.9 0.4 1
v -1 0.4 0.5
v -0.9 0.4 0.5
v -1 0.4 0.4
v -0.9 0.4 0.4
v -1 0.4 0.2
v -0.9 0.4 0.2
v -1 0.4 -0.4
v -0.9 0.4 -0.4
v -1 0.4 -0.8
v -0.9 0.4 -0.8
v -1.1 0.7 0.9
v -1 0.7 0.9
v -1 0.7 0.5
v -0.9 0.7 0.5
v -1 0.7 0.4
v -0.9 0.7 0.4
v -1.2 0.7 0.2
v -1.1 0.7 0.2
v -1.1 0.7 0.0999999
v -1 0.7 0.0999999
v -1.2 0.7 -0.7
v -1.1 0.7 -0.7
v -1 0.7 -1.3
v -0.9 0.7 -1.3
v -1 0.7 -1.5
v -0.9 0.7 -1.5
v -1.1 0.8 -0.6
v -1 0.8 -0.6
v -1.1 0.8 -0.7
v -1 0.8 -0.8
v -0.9 0.8 -0.8
v -1.1 0.8 -1.3
v -1 0.8 -1.3
v -0.9 0.8 -1.3
v -1.2 1 0.9
v -1.1 1 0.9
v -1.2 1 0.6
v -1.1 1 0.6
v -1 1.1 -1.3
v -0.9 1.1 -1.3
v -1 1.1 -1.5
v -0.9 1.1 -1.5
v -1 1.3 0.6
v -0.9 1.3 0.6
v -1 1.3 0.4
v -0.9 1.3 0.4
v -1 1.4 -0.8
v -0.9 1.4 -0.8
v -1 1.4 -0.9
v -0.9 1.4 -0.9
v -1 0.5 -0.8
v -0.9 0.5 -0.8
v -1 0.5 -1.3
v -0.9 0.5 -1.3
v -1 0.8 1
v -0.9 0.8 1
v -1 0.8 0.9
v -0.9 0.8 0.9
v -1 0.9 -1.3
v -0.9 0.9 -1.3
v -1 0.9 -1.5
v -0.9 0.9 -1.5
v -1.1 1.1 0.6
v -0.9 1.1 0.6
v -1 1.1 0.4
v -0.9 1.1 0.4
v -1.2 1.1 0.2
v -1.1 1.1 0.2
v -1.1 1.1 0.0999999
v -1 1.1 0.0999999
v -1.1 1.1 -0.6
v -1.2 1.1 -0.7
v -1.1 1.1 -0.7
v -1.1 1.2 -0.6
v -1 1.2 -0.6
v -1 1.2 -0.8
v -0.9 1.2 -0.8
v -1 1.2 -0.9
v -0.9 1.2 -0.9
v -1.1 1.2 -1.3
v -1 1.2 -1.3
v -1.2 1.3 0.9
v -0.9 1.3 0.9
v -1.2 1.3 0.6
v -1 1.3 0.6
v -0.9 1.3 0.6
v -1 1.4 -0.1
v -0.9 1.4 -0.1
v -1 1.4 -0.3
v -0.9 1.4 -0.3
v -1 1.4 -0.9
v -0.9 1.4 -0.9
v -1 1.4 -1.5
v -0.9 1.4 -1.5
v -1 1.6 0.6
v -0.9 1.6 0.6
v -1 1.6 -0.1
v -0.9 1.6 -0.1
v -1 1.6 -0.3
v -0.9 1.6 -0.3
v -1 1.6 -0.9
v -0.9 1.6 -0.9
v -0.9 1.9 1.3
v 2 1.9 1.3
v -0.9 1.9 -1.7
v 2 1.9 -1.7

# faces
f 5/1/1 2/1/1 1/1/1
f 6/1/1 2/1/1 5/1/1
f 7/2/1 4/2/1 3/2/1
f 8/2/1 4/2/1 7/2/1
f 13/1/1 10/1/1 9/1/1
f 14/1/1 10/1/1 13/1/1
f 15/1/1 10/1/1 14/1/1
f 16/1/1 10/1/1 15/1/1
f 18/1/1 12/1/1 11/1/1
f 19/1/1 18/1/1 17/1/1
f 20/1/1 12/1/1 18/1/1
f 20/1/1 18/1/1 19/1/1
f 28/2/1 22/2/1 21/2/1
f 29/2/1 22/2/1 28/2/1
f 30/2/1 24/2/1 23/2/1
f 31/1/1 29/1/1 28/1/1
f 31/1/1 30/1/1 29/1/1
f 31/2/1 24/2/1 30/2/1
f 31/1/1 28/1/1 27/1/1
f 32/2/1 24/2/1 31/2/1
f 33/2/1 26/2/1 25/2/1
f 34/2/1 26/2/1 33/2/1
f 35/1/1 31/1/1 27/1/1
f 36/1/1 31/1/1 35/1/1
f 39/2/1 33/2/1 25/2/1
f 40/2/1 33/2/1 39/2/1
f 41/1/1 31/1/1 36/1/1
f 42/1/1 31/1/1 41/1/1
f 43/2/1 38/2/1 37/2/1
f 44/2/1 38/2/1 43/2/1
f 45/2/1 38/2/1 44/2/1
f 47/1/1 41/1/1 36/1/1
f 50/1/1 41/1/1 47/1/1
f 50/1/1 47/1/1 46/1/1
f 53/2/1 49/2/1 48/2/1
f 55/1/1 51/1/1 50/1/1
f 55/1/1 50/1/1 46/1/1
f 56/1/1 51/1/1 55/1/1
f 56/2/1 55/2/1 54/2/1
f 57/1/1 51/1/1 56/1/1
f 58/1/1 51/1/1 57/1/1
f 59/1/1 51/1/1 58/1/1
f 60/2/1 53/2/1 52/2/1
f 61/2/1 49/2/1 53/2/1
f 61/2/1 53/2/1 60/2/1
f 62/2/1 56/2/1 54/2/1
f 62/2/1 57/2/1 56/2/1
f 63/2/1 57/2/1 62/2/1
f 64/2/1 59/2/1 58/2/1
f 64/2/1 60/2/1 59/2/1
f 65/2/1 60/2/1 64/2/1
f 68/3/1 67/3/1 66/3/1
f 69/3/1 67/3/1 68/3/1
f 70/3/1 67/3/1 69/3/1
f 71/3/1 67/3/1 70/3/1
f 72/3/1 68/3/1 66/3/1
f 73/3/1 68/3/1 72/3/1
f 74/3/1 68/3/1 73/3/1
f 75/3/1 68/3/1 74/3/1
f 76/3/1 70/3/1 69/3/1
f 77/3/1 70/3/1 76/3/1
f 79/3/1 67/3/1 71/3/1
f 80/3/1 74/3/1 73/3/1
f 81/3/1 74/3/1 80/3/1
f 82/3/1 79/3/1 78/3/1
f 82/3/1 67/3/1 79/3/1
f 83/3/1 67/3/1 82/3/1
f 84/3/1 72/3/1 66/3/1
f 86/3/1 82/3/1 78/3/1
f 87/3/1 82/3/1 86/3/1
f 89/3/1 67/3/1 83/3/1
f 90/3/1 85/3/1 84/3/1
f 93/3/1 89/3/1 88/3/1
f 94/3/1 67/3/1 89/3/1
f 94/3/1 89/3/1 93/3/1
f 97/3/1 90/3/1 84/3/1
f 98/3/1 92/3/1 91/3/1
f 99/3/1 92/3/1 98/3/1
f 102/3/1 96/3/1 95/3/1
f 103/3/1 96/3/1 102/3/1
f 104/3/1 67/3/1 94/3/1
f 105/3/1 98/3/1 97/3/1
f 106/3/1 101/3/1 100/3/1
f 107/3/1 101/3/1 106/3/1
f 108/3/1 104/3/1 103/3/1
f 109/3/1 97/3/1 84/3/1
f 109/3/1 108/3/1 107/3/1
f 109/3/1 84/3/1 66/3/1
f 109/3/1 105/3/1 97/3/1
f 109/3/1 106/3/1 105/3/1
f 109/3/1 107/3/1 106/3/1
f 110/3/1 104/3/1 108/3/1
f 110/3/1 108/3/1 109/3/1
f 110/3/1 67/3/1 104/3/1
f 111/1/2 112/1/2 113/1/2
f 113/1/2 112/1/2 114/1/2
f 111/1/2 113/1/2 115/1/2
f 115/1/2 113/1/2 116/1/2
f 117/3/2 118/3/2 119/3/2
f 119/3/2 118/3/2 120/3/2
f 123/3/3 122/3/3 121/3/3
f 124/3/3 122/3/3 123/3/3
f 127/2/3 126/2/3 125/2/3
f 128/2/3 126/2/3 127/2/3
f 132/2/3 130/2/3 129/2/3
f 133/2/3 130/2/3 132/2/3
f 134/1/3 132/1/3 131/1/3
f 134/1/3 133/1/3 132/1/3
f 135/1/3 133/1/3 134/1/3
f 136/1/3 133/1/3 135/1/3
f 137/2/3 130/2/3 133/2/3
f 137/1/3 133/1/3 136/1/3
f 138/2/3 130/2/3 137/2/3
f 141/2/3 140/2/3 139/2/3
f 142/2/3 140/2/3 141/2/3
f 147/1/3 144/1/3 143/1/3
f 148/1/3 144/1/3 147/1/3
f 149/1/3 146/1/3 145/1/3
f 150/1/3 146/1/3 149/1/3
f 153/1/3 152/1/3 151/1/3
f 154/1/3 152/1/3 153/1/3
f 157/2/3 156/2/3 155/2/3
f 158/2/3 156/2/3 157/2/3
f 161/2/3 160/2/3 159/2/3
f 162/2/3 160/2/3 161/2/3
f 166/1/3 164/1/3 163/1/3
f 166/1/3 165/1/3 164/1/3
f 167/1/3 165/1/3 166/1/3
f 170/2/3 169/2/3 168/2/3
f 171/2/3 169/2/3 170/2/3
f 174/2/3 173/2/3 172/2/3
f 175/2/3 173/2/3 174/2/3
f 178/2/3 177/2/3 176/2/3
f 179/2/3 177/2/3 178/2/3
f 180/2/4 181/2/4 182/2/4
f 182/2/4 181/2/4 183/2/4
f 183/2/4 181/2/4 184/2/4
f 183/2/4 184/2/4 185/2/4
f 185/2/4 184/2/4 186/2/4
f 187/2/4 188/2/4 189/2/4
f 189/2/4 188/2/4 190/2/4
f 191/1/4 192/1/4 193/1/4
f 193/1/4 192/1/4 194/1/4
f 195/2/4 196/2/4 197/2/4
f 197/2/4 196/2/4 198/2/4
f 199/2/4 200/2/4 201/2/4
f 201/2/4 200/2/4 202/2/4
f 203/1/4 204/1/4 205/1/4
f 205/1/4 204/1/4 206/1/4
f 206/1/4 204/1/4 207/1/4
f 208/1/4 209/1/4 212/1/4
f 212/1/4 209/1/4 213/1/4
f 210/1/4 211/1/4 214/1/4
f 214/1/4 211/1/4 215/1/4
f 216/2/4 217/2/4 218/2/4
f 218/2/4 217/2/4 219/2/4
f 220/1/4 221/1/4 224/1/4
f 224/1/4 221/1/4 225/1/4
f 225/1/4 221/1/4 226/1/4
f 226/1/4 221/1/4 227/1/4
f 222/2/4 223/2/4 228/2/4
f 228/2/4 223/2/4 229/2/4
f 225/1/4 226/1/4 230/1/4
f 230/1/4 226/1/4 231/1/4
f 232/2/4 233/2/4 236/2/4
f 236/2/4 233/2/4 237/2/4
f 234/2/4 235/2/4 238/2/4
f 238/2/4 235/2/4 239/2/4
f 240/3/4 241/3/4 242/3/4
f 242/3/4 241/3/4 243/3/4
f 246/3/5 245/3/5 244/3/5
f 247/3/5 245/3/5 246/3/5
f 250/2/5 249/2/5 248/2/5
f 251/2/5 249/2/5 250/2/5
f 254/2/5 253/2/5 252/2/5
f 255/2/5 253/2/5 254/2/5
f 258/2/5 257/2/5 256/2/5
f 259/2/5 257/2/5 258/2/5
f 262/1/5 261/1/5 260/1/5
f 263/1/5 261/1/5 262/1/5
f 266/1/5 265/1/5 264/1/5
f 267/1/5 265/1/5 266/1/5
f 270/1/5 269/1/5 268/1/5
f 272/1/5 270/1/5 268/1/5
f 272/1/5 271/1/5 270/1/5
f 273/1/5 271/1/5 272/1/5
f 275/1/5 272/1/5 268/1/5
f 276/1/5 272/1/5 275/1/5
f 276/1/5 275/1/5 274/1/5
f 277/1/5 272/1/5 276/1/5
f 278/1/5 276/1/5 274/1/5
f 279/1/5 276/1/5 278/1/5
f 282/2/5 281/2/5 280/2/5
f 283/2/5 281/2/5 282/2/5
f 286/1/5 285/1/5 284/1/5
f 287/1/5 285/1/5 286/1/5
f 289/1/5 287/1/5 286/1/5
f 289/1/5 288/1/5 287/1/5
f 290/1/5 288/1/5 289/1/5
f 291/1/5 288/1/5 290/1/5
f 294/2/5 293/2/5 292/2/5
f 295/2/5 293/2/5 294/2/5
f 298/2/5 297/2/5 296/2/5
f 299/2/5 297/2/5 298/2/5
f 302/2/5 301/2/5 300/2/5
f 303/2/5 301/2/5 302/2/5
f 306/2/5 305/2/5 304/2/5
f 307/2/5 305/2/5 306/2/5
f 308/2/6 309/2/6 310/2/6
f 310/2/6 309/2/6 311/2/6
f 312/2/6 313/2/6 314/2/6
f 314/2/6 313/2/6 315/2/6
f 316/2/6 317/2/6 318/2/6
f 318/2/6 317/2/6 319/2/6
f 320/1/6 321/1/6 322/1/6
f 322/1/6 321/1/6 323/1/6
f 320/1/6 322/1/6 325/1/6
f 325/1/6 322/1/6 326/1/6
f 324/1/6 325/1/6 326/1/6
f 326/1/6 322/1/6 327/1/6
f 324/1/6 326/1/6 328/1/6
f 324/1/6 328/1/6 329/1/6
f 329/1/6 328/1/6 330/1/6
f 331/1/6 332/1/6 333/1/6
f 331/1/6 333/1/6 335/1/6
f 333/1/6 334/1/6 335/1/6
f 335/1/6 334/1/6 336/1/6
f 331/1/6 335/1/6 337/1/6
f 337/1/6 335/1/6 338/1/6
f 339/2/6 340/2/6 341/2/6
f 341/2/6 340/2/6 342/2/6
f 342/2/6 340/2/6 343/2/6
f 344/1/6 345/1/6 346/1/6
f 346/1/6 345/1/6 347/1/6
f 348/2/6 349/2/6 350/2/6
f 350/2/6 349/2/6 351/2/6
f 352/2/6 353/2/6 354/2/6
f 354/2/6 353/2/6 355/2/6
f 356/2/6 357/2/6 358/2/6
f 358/2/6 357/2/6 359/2/6
f 360/3/6 361/3/6 362/3/6
f 362/3/6 361/3/6 363/3/6
