<?xml version="1.0" standalone="no"?>
<!DOCTYPE svg PUBLIC "-//W3C//DTD SVG 20010904//EN"
 "http://www.w3.org/TR/2001/REC-SVG-20010904/DTD/svg10.dtd">
<svg version="1.0" xmlns="http://www.w3.org/2000/svg"
 width="256.000000pt" height="256.000000pt" viewBox="0 0 256.000000 256.000000"
 preserveAspectRatio="xMidYMid meet">
<metadata>
Created by potrace 1.11, written by Peter Selinger 2001-2013
</metadata>
<g transform="translate(0.000000,256.000000) scale(0.100000,-0.100000)"
fill="#000000" stroke="none">
<path d="M1155 2353 c-38 -3 -203 -24 -230 -29 -11 -2 -31 -6 -45 -9 -14 -3
-50 -9 -80 -15 -30 -6 -66 -13 -80 -16 -28 -6 -93 -21 -130 -29 -14 -3 -61
-12 -105 -21 -44 -8 -87 -17 -95 -19 -8 -2 -17 -4 -18 -4 -2 -1 8 -15 22 -32
14 -17 26 -34 26 -37 0 -4 -28 -15 -63 -25 -73 -21 -133 -60 -164 -105 -18
-27 -47 -129 -68 -241 -2 -13 -17 -74 -32 -135 -15 -61 -28 -115 -28 -119 0
-4 18 -18 40 -31 22 -12 39 -27 38 -33 -1 -5 -5 -37 -8 -69 -3 -33 -7 -68 -9
-79 -2 -11 -9 -56 -16 -100 -6 -44 -13 -91 -15 -104 -14 -83 -25 -286 -16
-299 3 -6 28 -20 55 -33 27 -13 49 -27 48 -31 -2 -52 53 -178 101 -229 58 -61
179 -149 206 -149 5 0 19 29 32 65 12 36 25 65 29 65 3 0 14 -13 23 -29 26
-44 114 -137 150 -160 20 -12 68 -23 127 -30 52 -7 111 -14 130 -17 47 -7 288
-6 325 1 114 22 287 84 372 134 25 14 52 31 61 36 36 21 109 75 141 105 52 47
46 49 131 -39 91 -94 87 -93 234 -56 54 13 102 24 105 23 41 -4 40 8 -9 103
l-40 79 46 132 c79 229 80 236 48 398 -2 8 -6 38 -9 65 -6 60 -6 59 -45 210
-26 101 -30 137 -29 230 1 87 -4 131 -24 210 -14 55 -28 117 -31 138 -10 66
-34 107 -99 172 -55 55 -70 64 -111 70 -100 15 -254 11 -353 -9 -13 -3 -25 0
-29 5 -17 28 -134 63 -244 73 -36 4 -87 9 -114 12 -60 8 -112 10 -151 7z"/>
</g>
</svg>
