<?xml version="1.0" encoding="UTF-8" ?>
<!DOCTYPE svg PUBLIC "-//W3C//DTD SVG 1.1//EN" "http://www.w3.org/Graphics/SVG/1.1/DTD/svg11.dtd">
<svg width="1024pt" height="768pt" viewBox="0 0 1024 768" version="1.1" xmlns="http://www.w3.org/2000/svg">
<g id="#eec39aff">
<path fill="#eec39a" opacity="1.00" d=" M 0.00 0.00 L 1024.00 0.00 L 1024.00 768.00 L 0.00 768.00 L 0.00 0.00 M 634.20 619.08 C 632.65 618.10 631.29 616.86 629.86 615.74 C 624.38 621.30 619.63 628.34 611.74 630.60 C 610.92 628.17 610.09 625.77 609.24 623.38 C 607.80 624.45 606.41 625.57 605.03 626.70 C 604.85 624.98 604.51 621.54 604.34 619.82 C 593.60 621.38 585.51 629.52 576.70 635.13 C 576.61 633.26 576.48 631.38 576.35 629.53 C 573.93 630.51 571.37 631.55 569.78 633.77 C 564.28 640.39 559.49 647.57 553.93 654.15 C 556.23 642.60 557.87 630.89 556.29 619.09 C 550.74 620.65 546.01 623.96 541.16 626.92 C 540.89 621.66 540.51 616.40 540.12 611.17 C 530.28 612.74 524.85 621.86 516.67 626.49 C 512.56 628.71 508.28 630.61 504.17 632.81 C 505.70 626.35 507.09 619.80 506.29 613.14 C 496.13 618.40 488.54 627.18 480.68 635.25 C 480.80 630.04 480.62 624.81 480.51 619.63 C 467.37 624.38 460.72 637.95 451.13 647.17 C 453.91 636.31 455.39 625.16 454.80 613.93 C 447.81 613.61 442.25 617.67 437.15 621.86 C 436.91 618.48 436.59 615.05 436.33 611.71 C 421.25 615.78 413.83 630.79 402.75 640.36 C 402.49 635.82 404.21 631.57 404.78 627.15 C 404.05 625.53 402.06 625.91 401.00 626.95 C 397.72 629.86 395.02 633.37 391.68 636.23 C 387.70 631.76 386.72 625.89 386.09 620.10 C 376.93 618.93 371.12 627.35 365.22 632.86 C 363.95 630.45 362.72 628.01 361.50 625.59 C 350.79 632.24 340.16 639.00 331.28 648.07 C 330.90 644.64 330.49 641.20 330.09 637.80 C 327.26 638.47 324.68 639.97 321.81 640.50 C 317.72 639.45 314.76 636.29 313.48 632.26 C 312.86 632.18 311.61 632.01 310.98 631.92 C 308.69 636.76 306.73 641.77 304.32 646.56 C 299.55 656.69 291.02 664.22 284.40 673.07 C 284.91 665.05 284.98 657.00 285.16 648.98 C 283.21 647.74 281.24 646.55 279.25 645.40 C 277.61 650.61 275.78 655.79 274.47 661.10 C 273.55 668.39 274.34 675.89 272.88 683.12 C 271.17 686.86 268.90 690.35 267.68 694.32 C 268.53 694.54 270.24 694.98 271.10 695.20 C 275.56 690.52 280.22 686.02 285.20 681.89 C 281.89 687.59 278.01 692.95 274.95 698.80 C 273.31 703.03 272.60 707.57 271.63 711.98 C 273.09 712.39 274.54 712.84 275.99 713.29 C 277.87 708.38 279.29 703.31 280.95 698.33 C 282.27 699.34 283.61 700.35 284.97 701.34 C 287.70 698.75 290.40 696.10 293.14 693.52 C 294.18 695.60 295.36 697.93 296.53 700.03 C 303.96 692.98 309.68 684.45 316.33 676.72 C 314.07 683.11 309.00 688.22 307.75 695.00 C 315.60 693.93 319.77 686.39 326.35 682.73 C 326.12 688.15 322.80 692.32 320.33 696.84 C 321.22 698.00 322.27 699.02 323.29 700.08 C 319.49 705.30 315.61 710.53 313.05 716.52 C 319.94 718.43 324.40 711.93 329.12 708.10 C 326.13 712.89 322.44 717.57 321.78 723.37 C 323.81 722.67 326.11 722.31 327.72 720.77 C 335.94 713.51 342.22 702.83 353.99 701.13 C 352.83 705.07 351.20 708.93 350.58 713.02 C 351.92 719.08 353.77 724.99 354.94 731.12 C 358.31 730.54 362.03 730.14 364.53 727.51 C 371.44 720.93 378.66 714.68 386.90 709.82 C 389.28 712.20 391.31 715.02 394.16 716.88 C 399.31 715.49 403.22 711.54 407.67 708.81 C 407.99 711.56 408.32 714.33 408.67 717.12 C 412.19 716.48 415.65 715.53 419.06 714.43 C 414.82 722.91 411.17 731.69 407.42 740.40 C 425.75 743.48 443.43 737.00 460.00 729.95 C 465.01 727.28 471.94 730.68 475.85 725.86 C 482.33 718.78 490.45 713.62 498.14 708.01 C 493.98 719.84 487.54 730.70 483.45 742.56 C 487.00 742.37 491.04 743.32 494.08 741.04 C 498.43 737.64 503.23 734.91 508.41 733.02 C 518.92 729.76 527.12 721.97 535.54 715.23 C 536.39 719.52 536.77 724.24 540.59 727.15 C 542.25 728.39 542.45 734.09 545.51 732.49 C 550.72 728.43 555.11 723.43 559.87 718.86 C 560.34 723.85 560.66 728.85 561.14 733.84 C 567.78 730.20 572.24 723.83 576.83 718.02 C 576.63 720.40 576.44 722.78 576.32 725.17 C 581.94 724.44 587.12 722.07 592.51 720.49 C 595.20 721.06 597.71 722.37 600.41 722.97 C 600.55 725.02 600.83 727.26 601.06 729.39 C 609.69 727.57 618.29 724.94 625.41 719.55 C 626.28 720.86 627.17 722.15 628.08 723.46 C 630.03 722.04 631.95 720.58 633.87 719.12 C 634.11 722.52 634.30 725.84 634.60 729.28 C 638.80 728.52 642.62 726.56 646.15 724.21 C 641.62 732.33 637.55 740.83 635.59 749.97 C 637.07 750.42 638.55 750.89 640.04 751.36 C 647.86 742.30 650.16 729.28 660.01 721.97 C 662.73 719.57 665.40 717.11 668.17 714.77 C 665.02 721.34 660.85 727.49 659.16 734.69 C 665.46 734.91 671.28 732.27 677.09 730.21 C 674.10 736.83 670.63 743.26 667.91 749.99 C 671.20 752.43 674.90 749.66 677.31 747.33 C 686.39 738.18 696.02 729.42 703.44 718.80 C 714.98 719.52 724.93 712.79 734.67 707.63 C 745.43 702.10 749.13 690.08 755.54 680.72 C 755.88 683.33 756.24 685.95 756.61 688.59 C 757.63 688.71 758.67 688.82 759.71 688.94 C 763.44 682.51 768.13 676.53 770.33 669.33 C 770.76 665.19 772.71 659.13 767.64 657.29 C 763.65 662.76 759.58 668.18 755.09 673.27 C 756.27 665.44 756.93 657.53 756.65 649.60 C 749.55 651.99 744.44 657.85 738.84 662.53 C 737.24 661.62 735.65 660.70 734.04 659.83 C 731.90 662.37 729.70 664.87 727.35 667.23 C 728.92 659.57 728.73 651.70 728.82 643.94 C 724.08 644.32 719.31 644.92 715.05 647.16 C 708.34 650.41 700.60 651.47 695.15 656.99 C 694.91 651.89 694.65 646.75 694.34 641.68 C 691.11 643.37 687.97 645.20 684.86 647.09 C 684.54 643.06 684.53 639.01 683.95 635.02 C 678.15 639.50 673.95 645.64 669.18 651.13 C 668.95 646.05 668.72 640.94 668.45 635.89 C 660.22 637.78 652.38 641.02 644.99 645.08 C 649.33 637.28 653.99 629.62 657.55 621.42 C 660.23 615.69 658.34 609.21 658.13 603.19 C 650.35 608.72 643.61 616.30 634.20 619.08 Z" />
<path fill="#eec39a" opacity="1.00" d=" M 650.25 616.03 C 651.60 614.95 652.95 613.88 654.33 612.84 C 653.46 616.03 652.50 619.19 651.47 622.33 C 651.17 620.76 650.56 617.61 650.25 616.03 Z" />
<path fill="#eec39a" opacity="1.00" d=" M 412.08 638.74 C 418.05 631.54 423.81 623.40 432.64 619.51 C 429.42 628.83 421.07 634.98 413.97 641.30 C 413.34 640.44 412.71 639.58 412.08 638.74 Z" />
<path fill="#eec39a" opacity="1.00" d=" M 437.66 628.47 C 440.98 624.53 445.87 622.29 450.11 619.46 C 449.34 624.33 450.72 630.41 447.87 634.80 C 444.04 637.46 439.49 638.93 435.35 641.07 C 436.17 636.88 436.34 632.53 437.66 628.47 Z" />
<path fill="#eec39a" opacity="1.00" d=" M 523.29 629.74 C 525.75 626.49 528.75 623.69 531.95 621.19 C 532.11 626.89 531.18 632.50 530.15 638.08 C 529.50 637.96 528.20 637.72 527.55 637.60 C 526.24 634.88 524.55 632.45 523.29 629.74 Z" />
<path fill="#eec39a" opacity="1.00" d=" M 636.04 633.63 C 638.97 629.90 641.85 626.13 645.07 622.65 C 643.55 627.14 641.69 631.51 639.89 635.90 C 638.60 635.13 637.32 634.37 636.04 633.63 Z" />
<path fill="#eec39a" opacity="1.00" d=" M 633.22 625.28 C 634.61 624.96 636.00 624.64 637.40 624.33 C 635.94 625.62 634.47 626.90 633.01 628.18 C 633.06 627.46 633.17 626.00 633.22 625.28 Z" />
<path fill="#eec39a" opacity="1.00" d=" M 490.75 637.52 C 491.31 632.52 494.34 628.27 498.41 625.46 C 497.01 630.11 493.78 633.84 490.75 637.52 Z" />
<path fill="#eec39a" opacity="1.00" d=" M 573.17 644.29 C 581.87 637.85 590.56 631.30 600.28 626.45 C 601.57 635.27 594.98 641.84 590.03 648.21 C 591.62 643.45 593.72 638.87 595.15 634.06 C 593.81 634.38 591.11 635.02 589.76 635.34 C 583.91 640.68 578.86 646.84 573.13 652.32 C 573.13 649.64 573.14 646.96 573.17 644.29 Z" />
<path fill="#eec39a" opacity="1.00" d=" M 471.56 631.73 C 472.99 630.39 474.44 629.07 475.90 627.76 C 475.92 629.18 475.96 630.60 476.00 632.03 C 474.51 631.92 473.03 631.82 471.56 631.73 Z" />
<path fill="#eec39a" opacity="1.00" d=" M 622.45 633.04 C 624.15 630.98 626.22 629.26 628.51 627.89 C 626.72 629.86 624.67 631.57 622.45 633.04 Z" />
<path fill="#eec39a" opacity="1.00" d=" M 538.71 671.28 C 543.82 658.83 549.88 646.46 550.02 632.64 C 550.68 646.15 549.74 661.82 538.71 671.28 Z" />
<path fill="#eec39a" opacity="1.00" d=" M 517.10 634.38 C 518.77 634.77 517.68 637.33 516.22 636.94 C 514.55 636.54 515.67 634.04 517.10 634.38 Z" />
<path fill="#eec39a" opacity="1.00" d=" M 373.86 649.37 C 375.96 644.15 378.95 639.31 382.30 634.81 C 380.52 640.16 377.99 645.43 373.86 649.37 Z" />
<path fill="#eec39a" opacity="1.00" d=" M 423.97 641.52 C 425.75 638.98 427.81 636.65 430.16 634.62 C 428.61 637.33 426.53 639.71 423.97 641.52 Z" />
<path fill="#eec39a" opacity="1.00" d=" M 351.88 650.37 C 352.90 644.87 356.45 640.50 360.42 636.74 C 359.24 642.15 355.28 646.21 351.88 650.37 Z" />
<path fill="#eec39a" opacity="1.00" d=" M 366.08 640.31 C 367.60 640.31 367.33 642.75 365.92 642.69 C 364.39 642.68 364.66 640.23 366.08 640.31 Z" />
<path fill="#eec39a" opacity="1.00" d=" M 390.78 652.28 C 392.64 648.26 395.27 644.65 398.48 641.62 C 397.51 646.11 394.04 649.30 390.78 652.28 Z" />
<path fill="#eec39a" opacity="1.00" d=" M 512.15 644.56 C 514.24 645.72 510.20 649.00 509.34 646.88 C 509.43 645.55 510.86 644.49 512.15 644.56 Z" />
<path fill="#eec39a" opacity="1.00" d=" M 316.49 657.83 C 318.47 652.72 321.41 647.98 325.81 644.62 C 325.84 646.46 325.92 650.13 325.96 651.96 C 322.81 653.93 319.64 655.87 316.49 657.83 Z" />
<path fill="#eec39a" opacity="1.00" d=" M 419.93 647.01 C 418.20 649.33 416.44 651.63 414.64 653.90 C 416.30 651.53 418.10 649.24 419.93 647.01 Z" />
<path fill="#eec39a" opacity="1.00" d=" M 426.14 648.11 C 427.44 648.78 427.43 649.45 426.11 650.14 C 424.81 649.46 424.82 648.79 426.14 648.11 Z" />
<path fill="#eec39a" opacity="1.00" d=" M 651.25 648.24 C 649.15 650.53 647.07 652.83 645.04 655.18 C 645.04 653.80 645.06 652.44 645.08 651.08 C 646.62 650.37 649.70 648.95 651.25 648.24 Z" />
<path fill="#eec39a" opacity="1.00" d=" M 723.00 649.00 L 724.00 649.00 C 723.75 651.50 723.25 656.50 723.00 659.00 C 723.00 656.50 723.00 651.50 723.00 649.00 Z" />
<path fill="#eec39a" opacity="1.00" d=" M 461.25 650.53 C 463.72 649.57 462.73 654.54 460.68 653.49 C 459.82 652.64 460.36 651.12 461.25 650.53 Z" />
<path fill="#eec39a" opacity="1.00" d=" M 504.24 650.98 C 500.66 657.38 496.53 663.46 491.91 669.16 C 493.14 661.53 498.13 655.46 504.24 650.98 Z" />
<path fill="#eec39a" opacity="1.00" d=" M 610.19 667.52 C 614.10 661.61 618.36 655.93 623.28 650.83 C 620.26 657.29 615.82 663.11 610.19 667.52 Z" />
<path fill="#eec39a" opacity="1.00" d=" M 687.46 664.86 C 687.63 659.91 686.39 654.41 689.54 650.14 C 689.30 655.03 690.62 660.60 687.46 664.86 Z" />
<path fill="#eec39a" opacity="1.00" d=" M 590.09 658.38 C 591.33 656.45 592.68 654.59 594.15 652.82 C 592.90 654.75 591.55 656.61 590.09 658.38 Z" />
<path fill="#eec39a" opacity="1.00" d=" M 631.16 673.32 C 633.00 666.17 633.45 657.78 639.81 653.00 C 642.10 661.28 636.08 667.63 631.16 673.32 Z" />
<path fill="#eec39a" opacity="1.00" d=" M 654.14 665.61 C 655.70 661.40 657.57 657.29 659.79 653.39 C 660.08 658.38 657.48 662.32 654.14 665.61 Z" />
<path fill="#eec39a" opacity="1.00" d=" M 341.14 657.57 C 343.01 658.53 340.29 661.64 338.78 660.56 C 338.07 659.19 339.78 657.56 341.14 657.57 Z" />
<path fill="#eec39a" opacity="1.00" d=" M 574.16 665.61 C 575.77 662.39 577.79 659.38 580.23 656.72 C 578.91 660.10 576.89 663.20 574.16 665.61 Z" />
<path fill="#eec39a" opacity="1.00" d=" M 711.10 657.38 C 712.77 657.77 711.68 660.33 710.22 659.94 C 708.55 659.54 709.66 657.04 711.10 657.38 Z" />
<path fill="#eec39a" opacity="1.00" d=" M 409.10 658.38 C 410.77 658.77 409.68 661.33 408.22 660.94 C 406.55 660.54 407.67 658.04 409.10 658.38 Z" />
<path fill="#eec39a" opacity="1.00" d=" M 436.14 658.57 C 438.01 659.53 435.29 662.64 433.78 661.56 C 433.07 660.19 434.78 658.56 436.14 658.57 Z" />
<path fill="#eec39a" opacity="1.00" d=" M 545.72 682.74 C 553.21 674.80 559.91 666.06 568.14 658.84 C 562.23 667.80 555.72 676.57 553.88 687.44 C 551.77 687.08 549.26 686.25 547.31 686.12 C 544.87 691.91 541.62 697.30 538.79 702.89 C 536.67 707.97 531.48 710.43 527.21 713.42 C 533.04 703.00 537.28 691.45 545.72 682.74 Z" />
<path fill="#eec39a" opacity="1.00" d=" M 751.14 659.11 C 752.43 659.78 752.42 660.45 751.11 661.14 C 749.80 660.46 749.81 659.79 751.14 659.11 Z" />
<path fill="#eec39a" opacity="1.00" d=" M 278.97 661.01 L 280.03 661.01 C 280.03 663.66 280.03 666.33 280.03 668.99 L 278.97 668.99 C 278.97 666.33 278.97 663.66 278.97 661.01 Z" />
<path fill="#eec39a" opacity="1.00" d=" M 323.10 661.38 C 324.77 661.77 323.68 664.33 322.22 663.94 C 320.55 663.53 321.67 661.04 323.10 661.38 Z" />
<path fill="#eec39a" opacity="1.00" d=" M 500.05 685.45 C 501.93 675.97 507.53 667.72 513.99 660.71 C 510.08 669.32 506.05 678.06 500.05 685.45 Z" />
<path fill="#eec39a" opacity="1.00" d=" M 745.14 663.11 C 746.43 663.78 746.42 664.45 745.11 665.14 C 743.80 664.46 743.81 663.79 745.14 663.11 Z" />
<path fill="#eec39a" opacity="1.00" d=" M 672.92 674.35 C 673.44 671.29 674.34 668.31 675.72 665.52 C 675.07 668.55 674.13 671.50 672.92 674.35 Z" />
<path fill="#eec39a" opacity="1.00" d=" M 402.94 673.44 C 404.39 670.97 406.18 668.71 408.26 666.75 C 406.78 669.19 404.99 671.44 402.94 673.44 Z" />
<path fill="#eec39a" opacity="1.00" d=" M 379.06 670.28 C 380.72 670.81 379.35 673.21 377.94 672.72 C 376.27 672.17 377.64 669.78 379.06 670.28 Z" />
<path fill="#eec39a" opacity="1.00" d=" M 335.14 673.57 C 337.01 674.53 334.29 677.64 332.78 676.56 C 332.07 675.19 333.78 673.56 335.14 673.57 Z" />
<path fill="#eec39a" opacity="1.00" d=" M 444.14 673.11 C 445.44 673.78 445.43 674.45 444.11 675.14 C 442.81 674.46 442.82 673.79 444.14 673.11 Z" />
<path fill="#eec39a" opacity="1.00" d=" M 530.15 678.58 C 531.49 676.63 532.95 674.75 534.51 672.97 C 533.27 674.99 531.81 676.88 530.15 678.58 Z" />
<path fill="#eec39a" opacity="1.00" d=" M 646.82 680.86 C 648.64 677.94 650.64 675.12 653.07 672.68 C 646.99 684.60 638.82 695.38 629.65 705.09 C 634.72 696.57 641.47 689.21 646.82 680.86 Z" />
<path fill="#eec39a" opacity="1.00" d=" M 744.12 673.53 C 748.05 674.31 741.82 676.96 744.12 673.53 Z" />
<path fill="#eec39a" opacity="1.00" d=" M 441.26 690.54 C 444.89 684.75 448.83 679.16 453.27 673.95 C 450.61 680.29 446.46 686.05 441.26 690.54 Z" />
<path fill="#eec39a" opacity="1.00" d=" M 513.10 681.56 C 514.44 678.71 516.15 676.07 518.21 673.69 C 516.97 676.59 515.26 679.26 513.10 681.56 Z" />
<path fill="#eec39a" opacity="1.00" d=" M 670.48 685.48 C 670.90 681.79 671.72 678.16 672.80 674.61 C 672.41 678.28 671.82 682.01 670.48 685.48 Z" />
<path fill="#eec39a" opacity="1.00" d=" M 298.78 690.35 C 300.09 685.60 303.08 681.54 306.89 678.50 C 304.43 682.60 301.73 686.57 298.78 690.35 Z" />
<path fill="#eec39a" opacity="1.00" d=" M 373.09 680.57 C 375.05 681.03 373.32 684.53 371.69 683.52 C 370.76 682.49 371.78 680.62 373.09 680.57 Z" />
<path fill="#eec39a" opacity="1.00" d=" M 574.14 681.11 C 575.43 681.78 575.43 682.45 574.11 683.14 C 572.81 682.46 572.81 681.79 574.14 681.11 Z" />
<path fill="#eec39a" opacity="1.00" d=" M 597.10 686.02 C 599.76 684.64 602.44 683.26 605.14 681.93 C 602.52 684.46 599.87 686.97 597.16 689.41 C 597.14 688.57 597.11 686.87 597.10 686.02 Z" />
<path fill="#eec39a" opacity="1.00" d=" M 741.16 682.28 C 742.83 681.50 743.31 684.23 741.84 684.72 C 740.16 685.49 739.67 682.75 741.16 682.28 Z" />
<path fill="#eec39a" opacity="1.00" d=" M 729.08 683.31 C 730.59 683.31 730.33 685.75 728.92 685.69 C 727.39 685.67 727.65 683.23 729.08 683.31 Z" />
<path fill="#eec39a" opacity="1.00" d=" M 335.09 684.57 C 337.05 685.03 335.32 688.53 333.69 687.52 C 332.76 686.49 333.78 684.62 335.09 684.57 Z" />
<path fill="#eec39a" opacity="1.00" d=" M 413.80 684.07 C 415.29 684.50 416.79 684.91 418.30 685.35 C 414.71 692.23 410.70 698.97 405.00 704.34 C 406.79 697.17 409.72 690.25 413.80 684.07 Z" />
<path fill="#eec39a" opacity="1.00" d=" M 572.09 684.57 C 574.04 685.03 572.31 688.53 570.69 687.52 C 569.76 686.49 570.78 684.62 572.09 684.57 Z" />
<path fill="#eec39a" opacity="1.00" d=" M 359.14 685.11 C 360.44 685.77 360.43 686.45 359.11 687.14 C 357.81 686.46 357.82 685.79 359.14 685.11 Z" />
<path fill="#eec39a" opacity="1.00" d=" M 365.06 686.36 C 366.65 687.53 368.27 688.64 369.93 689.72 C 366.59 697.47 362.68 705.14 356.97 711.44 C 358.61 702.77 361.51 694.41 365.06 686.36 Z" />
<path fill="#eec39a" opacity="1.00" d=" M 654.60 700.06 C 657.17 695.76 659.91 691.54 663.03 687.63 C 662.26 692.92 659.52 697.49 654.60 700.06 Z" />
<path fill="#eec39a" opacity="1.00" d=" M 693.76 705.22 C 695.79 700.20 698.93 695.72 702.31 691.53 C 700.87 696.81 697.37 701.22 693.76 705.22 Z" />
<path fill="#eec39a" opacity="1.00" d=" M 379.19 696.10 C 380.90 696.49 382.61 696.88 384.32 697.29 C 381.39 702.21 376.62 705.52 371.69 708.21 C 373.94 704.03 376.63 700.09 379.19 696.10 Z" />
<path fill="#eec39a" opacity="1.00" d=" M 591.08 702.08 C 593.07 699.55 595.60 697.54 598.09 695.53 C 596.32 702.12 594.77 709.47 589.19 714.00 C 589.56 710.14 588.60 705.48 591.08 702.08 Z" />
<path fill="#eec39a" opacity="1.00" d=" M 598.60 717.21 C 604.40 709.20 611.07 701.60 619.15 695.82 C 614.66 701.45 610.01 706.96 605.58 712.65 C 603.88 714.98 601.11 716.03 598.60 717.21 Z" />
<path fill="#eec39a" opacity="1.00" d=" M 503.33 710.13 C 505.05 705.43 509.51 702.91 513.20 699.93 C 509.75 705.48 505.29 710.50 503.06 716.72 C 502.46 720.64 503.58 724.92 501.54 728.55 C 498.76 731.60 495.11 733.74 491.77 736.14 C 495.67 727.49 499.50 718.81 503.33 710.13 Z" />
<path fill="#eec39a" opacity="1.00" d=" M 443.62 703.46 C 444.65 704.04 445.68 704.63 446.72 705.24 C 443.75 713.74 441.23 722.43 439.66 731.32 C 431.94 734.96 423.58 736.38 415.07 736.21 C 419.01 728.34 421.33 719.58 426.24 712.22 C 430.93 707.61 437.94 706.48 443.62 703.46 Z" />
<path fill="#eec39a" opacity="1.00" d=" M 711.03 703.51 C 712.68 703.58 712.23 706.23 710.81 706.33 C 709.15 706.26 709.54 703.54 711.03 703.51 Z" />
<path fill="#eec39a" opacity="1.00" d=" M 681.18 716.69 C 681.74 712.02 682.93 707.34 685.62 703.42 C 685.10 708.06 685.20 713.49 681.18 716.69 Z" />
<path fill="#eec39a" opacity="1.00" d=" M 574.08 705.31 C 575.59 705.31 575.33 707.75 573.92 707.69 C 572.39 707.67 572.65 705.23 574.08 705.31 Z" />
<path fill="#eec39a" opacity="1.00" d=" M 617.13 704.95 C 620.47 704.42 617.16 709.22 616.31 706.08 C 616.52 705.80 616.92 705.23 617.13 704.95 Z" />
<path fill="#eec39a" opacity="1.00" d=" M 659.97 715.37 C 661.43 711.70 663.26 708.18 665.15 704.73 C 664.41 708.68 662.67 712.37 659.97 715.37 Z" />
<path fill="#eec39a" opacity="1.00" d=" M 643.92 710.13 C 647.67 708.44 651.64 707.27 655.61 706.19 C 651.19 712.75 645.65 718.80 638.48 722.36 C 639.28 717.92 641.04 713.62 643.92 710.13 Z" />
<path fill="#eec39a" opacity="1.00" d=" M 638.52 707.26 C 636.81 709.40 634.90 711.37 632.82 713.15 C 634.66 711.13 636.56 709.17 638.52 707.26 Z" />
<path fill="#eec39a" opacity="1.00" d=" M 451.01 728.02 C 457.71 720.94 462.93 712.01 471.78 707.33 C 470.24 711.89 468.72 716.47 466.84 720.91 C 462.03 724.15 456.23 725.53 451.01 728.02 Z" />
<path fill="#eec39a" opacity="1.00" d=" M 606.46 722.03 C 610.94 716.20 617.85 713.04 623.79 708.94 C 624.13 710.31 624.49 711.70 624.86 713.09 C 619.74 717.97 613.50 721.08 606.46 722.03 Z" />
<path fill="#eec39a" opacity="1.00" d=" M 678.94 738.32 C 684.83 727.74 692.52 718.15 701.18 709.70 C 697.15 721.42 687.98 730.27 678.94 738.32 Z" />
<path fill="#eec39a" opacity="1.00" d=" M 667.07 728.39 C 669.81 723.34 672.59 718.32 675.18 713.20 C 675.56 716.53 676.97 719.70 679.18 722.21 C 675.19 724.37 671.17 726.47 667.07 728.39 Z" />
<path fill="#eec39a" opacity="1.00" d=" M 450.76 716.73 C 452.61 715.82 454.51 715.02 456.42 714.23 C 453.15 718.13 449.81 722.01 446.06 725.46 C 447.15 722.41 447.11 717.92 450.76 716.73 Z" />
<path fill="#eec39a" opacity="1.00" d=" M 359.99 719.14 C 362.49 718.92 364.99 718.72 367.49 718.54 C 364.66 720.83 361.76 723.04 358.86 725.25 C 359.21 723.20 359.60 721.17 359.99 719.14 Z" />
<path fill="#eec39a" opacity="1.00" d=" M 547.25 719.07 C 548.93 719.06 549.47 722.86 547.74 723.31 C 546.29 722.61 546.27 720.16 547.25 719.07 Z" />
</g>
<g id="#df7126ff">
<path fill="#df7126" opacity="1.00" d=" M 634.20 619.08 C 643.61 616.30 650.35 608.72 658.13 603.19 C 658.34 609.21 660.23 615.69 657.55 621.42 C 653.99 629.62 649.33 637.28 644.99 645.08 C 652.38 641.02 660.22 637.78 668.45 635.89 C 668.72 640.94 668.95 646.05 669.18 651.13 C 673.95 645.64 678.15 639.50 683.95 635.02 C 684.53 639.01 684.54 643.06 684.86 647.09 C 687.97 645.20 691.11 643.37 694.34 641.68 C 694.65 646.75 694.91 651.89 695.15 656.99 C 700.60 651.47 708.34 650.41 715.05 647.16 C 719.31 644.92 724.08 644.32 728.82 643.94 C 728.73 651.70 728.92 659.57 727.35 667.23 C 729.70 664.87 731.90 662.37 734.04 659.83 C 735.65 660.70 737.24 661.62 738.84 662.53 C 744.44 657.85 749.55 651.99 756.65 649.60 C 756.93 657.53 756.27 665.44 755.09 673.27 C 759.58 668.18 763.65 662.76 767.64 657.29 C 772.71 659.13 770.76 665.19 770.33 669.33 C 768.13 676.53 763.44 682.51 759.71 688.94 C 758.67 688.82 757.63 688.71 756.61 688.59 C 756.24 685.95 755.88 683.33 755.54 680.72 C 749.13 690.08 745.43 702.10 734.67 707.63 C 724.93 712.79 714.98 719.52 703.44 718.80 C 696.02 729.42 686.39 738.18 677.31 747.33 C 674.90 749.66 671.20 752.43 667.91 749.99 C 670.63 743.26 674.10 736.83 677.09 730.21 C 671.28 732.27 665.46 734.91 659.16 734.69 C 660.85 727.49 665.02 721.34 668.17 714.77 C 665.40 717.11 662.73 719.57 660.01 721.97 C 650.16 729.28 647.86 742.30 640.04 751.36 C 638.55 750.89 637.07 750.42 635.59 749.97 C 637.55 740.83 641.62 732.33 646.15 724.21 C 642.62 726.56 638.80 728.52 634.60 729.28 C 634.30 725.84 634.11 722.52 633.87 719.12 C 631.95 720.58 630.03 722.04 628.08 723.46 C 627.17 722.15 626.28 720.86 625.41 719.55 C 618.29 724.94 609.69 727.57 601.06 729.39 C 600.83 727.26 600.55 725.02 600.41 722.97 C 597.71 722.37 595.20 721.06 592.51 720.49 C 587.12 722.07 581.94 724.44 576.32 725.17 C 576.44 722.78 576.63 720.40 576.83 718.02 C 572.24 723.83 567.78 730.20 561.14 733.84 C 560.66 728.85 560.34 723.85 559.87 718.86 C 555.11 723.43 550.72 728.43 545.51 732.49 C 542.45 734.09 542.25 728.39 540.59 727.15 C 536.77 724.24 536.39 719.52 535.54 715.23 C 527.12 721.97 518.92 729.76 508.41 733.02 C 503.23 734.91 498.43 737.64 494.08 741.04 C 491.04 743.32 487.00 742.37 483.45 742.56 C 487.54 730.70 493.98 719.84 498.14 708.01 C 490.45 713.62 482.33 718.78 475.85 725.86 C 471.94 730.68 465.01 727.28 460.00 729.95 C 443.43 737.00 425.75 743.48 407.42 740.40 C 411.17 731.69 414.82 722.91 419.06 714.43 C 415.65 715.53 412.19 716.48 408.67 717.12 C 408.32 714.33 407.99 711.56 407.67 708.81 C 403.22 711.54 399.31 715.49 394.16 716.88 C 391.31 715.02 389.28 712.20 386.90 709.82 C 378.66 714.68 371.44 720.93 364.53 727.51 C 362.03 730.14 358.31 730.54 354.94 731.12 C 353.77 724.99 351.92 719.08 350.58 713.02 C 351.20 708.93 352.83 705.07 353.99 701.13 C 342.22 702.83 335.94 713.51 327.72 720.77 C 326.11 722.31 323.81 722.67 321.78 723.37 C 322.44 717.57 326.13 712.89 329.12 708.10 C 324.40 711.93 319.94 718.43 313.05 716.52 C 315.61 710.53 319.49 705.30 323.29 700.08 C 322.27 699.02 321.22 698.00 320.33 696.84 C 322.80 692.32 326.12 688.15 326.35 682.73 C 319.77 686.39 315.60 693.93 307.75 695.00 C 309.00 688.22 314.07 683.11 316.33 676.72 C 309.68 684.45 303.96 692.98 296.53 700.03 C 295.36 697.93 294.18 695.60 293.14 693.52 C 290.40 696.10 287.70 698.75 284.97 701.34 C 283.61 700.35 282.27 699.34 280.95 698.33 C 279.29 703.31 277.87 708.38 275.99 713.29 C 274.54 712.84 273.09 712.39 271.63 711.98 C 272.60 707.57 273.31 703.03 274.95 698.80 C 278.01 692.95 281.89 687.59 285.20 681.89 C 280.22 686.02 275.56 690.52 271.10 695.20 C 270.24 694.98 268.53 694.54 267.68 694.32 C 268.90 690.35 271.17 686.86 272.88 683.12 C 274.34 675.89 273.55 668.39 274.47 661.10 C 275.78 655.79 277.61 650.61 279.25 645.40 C 281.24 646.55 283.21 647.74 285.16 648.98 C 284.98 657.00 284.91 665.05 284.40 673.07 C 291.02 664.22 299.55 656.69 304.32 646.56 C 306.73 641.77 308.69 636.76 310.98 631.92 C 311.61 632.01 312.86 632.18 313.48 632.26 C 314.76 636.29 317.72 639.45 321.81 640.50 C 324.68 639.97 327.26 638.47 330.09 637.80 C 330.49 641.20 330.90 644.64 331.28 648.07 C 340.16 639.00 350.79 632.24 361.50 625.59 C 362.72 628.01 363.95 630.45 365.22 632.86 C 371.12 627.35 376.93 618.93 386.09 620.10 C 386.72 625.89 387.70 631.76 391.68 636.23 C 395.02 633.37 397.72 629.86 401.00 626.95 C 402.06 625.91 404.05 625.53 404.78 627.15 C 404.21 631.57 402.49 635.82 402.75 640.36 C 413.83 630.79 421.25 615.78 436.33 611.71 C 436.59 615.05 436.91 618.48 437.15 621.86 C 442.25 617.67 447.81 613.61 454.80 613.93 C 455.39 625.16 453.91 636.31 451.13 647.17 C 460.72 637.95 467.37 624.38 480.51 619.63 C 480.62 624.81 480.80 630.04 480.68 635.25 C 488.54 627.18 496.13 618.40 506.29 613.14 C 507.09 619.80 505.70 626.35 504.17 632.81 C 508.28 630.61 512.56 628.71 516.67 626.49 C 524.85 621.86 530.28 612.74 540.12 611.17 C 540.51 616.40 540.89 621.66 541.16 626.92 C 546.01 623.96 550.74 620.65 556.29 619.09 C 557.87 630.89 556.23 642.60 553.93 654.15 C 559.49 647.57 564.28 640.39 569.78 633.77 C 571.37 631.55 573.93 630.51 576.35 629.53 C 576.48 631.38 576.61 633.26 576.70 635.13 C 585.51 629.52 593.60 621.38 604.34 619.82 C 604.51 621.54 604.85 624.98 605.03 626.70 C 606.41 625.57 607.80 624.45 609.24 623.38 C 610.09 625.77 610.92 628.17 611.74 630.60 C 619.63 628.34 624.38 621.30 629.86 615.74 C 631.29 616.86 632.65 618.10 634.20 619.08 M 650.25 616.03 C 650.56 617.61 651.17 620.76 651.47 622.33 C 652.50 619.19 653.46 616.03 654.33 612.84 C 652.95 613.88 651.60 614.95 650.25 616.03 M 412.08 638.74 C 412.71 639.58 413.34 640.44 413.97 641.30 C 421.07 634.98 429.42 628.83 432.64 619.51 C 423.81 623.40 418.05 631.54 412.08 638.74 M 437.66 628.47 C 436.34 632.53 436.17 636.88 435.35 641.07 C 439.49 638.93 444.04 637.46 447.87 634.80 C 450.72 630.41 449.34 624.33 450.11 619.46 C 445.87 622.29 440.98 624.53 437.66 628.47 M 523.29 629.74 C 524.55 632.45 526.24 634.88 527.55 637.60 C 528.20 637.72 529.50 637.96 530.15 638.08 C 531.18 632.50 532.11 626.89 531.95 621.19 C 528.75 623.69 525.75 626.49 523.29 629.74 M 636.04 633.63 C 637.32 634.37 638.60 635.13 639.89 635.90 C 641.69 631.51 643.55 627.14 645.07 622.65 C 641.85 626.13 638.97 629.90 636.04 633.63 M 633.22 625.28 C 633.17 626.00 633.06 627.46 633.01 628.18 C 634.47 626.90 635.94 625.62 637.40 624.33 C 636.00 624.64 634.61 624.96 633.22 625.28 M 490.75 637.52 C 493.78 633.84 497.01 630.11 498.41 625.46 C 494.34 628.27 491.31 632.52 490.75 637.52 M 573.17 644.29 C 573.14 646.96 573.13 649.64 573.13 652.32 C 578.86 646.84 583.91 640.68 589.76 635.34 C 591.11 635.02 593.81 634.38 595.15 634.06 C 593.72 638.87 591.62 643.45 590.03 648.21 C 594.98 641.84 601.57 635.27 600.28 626.45 C 590.56 631.30 581.87 637.85 573.17 644.29 M 471.56 631.73 C 473.03 631.82 474.51 631.92 476.00 632.03 C 475.96 630.60 475.92 629.18 475.90 627.76 C 474.44 629.07 472.99 630.39 471.56 631.73 M 622.45 633.04 C 624.67 631.57 626.72 629.86 628.51 627.89 C 626.22 629.26 624.15 630.98 622.45 633.04 M 538.71 671.28 C 549.74 661.82 550.68 646.15 550.02 632.64 C 549.88 646.46 543.82 658.83 538.71 671.28 M 517.10 634.38 C 515.67 634.04 514.55 636.54 516.22 636.94 C 517.68 637.33 518.77 634.77 517.10 634.38 M 373.86 649.37 C 377.99 645.43 380.52 640.16 382.30 634.81 C 378.95 639.31 375.96 644.15 373.86 649.37 M 423.97 641.52 C 426.53 639.71 428.61 637.33 430.16 634.62 C 427.81 636.65 425.75 638.98 423.97 641.52 M 351.88 650.37 C 355.28 646.21 359.24 642.15 360.42 636.74 C 356.45 640.50 352.90 644.87 351.88 650.37 M 366.08 640.31 C 364.66 640.23 364.39 642.68 365.92 642.69 C 367.33 642.75 367.60 640.31 366.08 640.31 M 390.78 652.28 C 394.04 649.30 397.51 646.11 398.48 641.62 C 395.27 644.65 392.64 648.26 390.78 652.28 M 512.15 644.56 C 510.86 644.49 509.43 645.55 509.34 646.88 C 510.20 649.00 514.24 645.72 512.15 644.56 M 316.49 657.83 C 319.64 655.87 322.81 653.93 325.96 651.96 C 325.92 650.13 325.84 646.46 325.81 644.62 C 321.41 647.98 318.47 652.72 316.49 657.83 M 419.93 647.01 C 418.10 649.24 416.30 651.53 414.64 653.90 C 416.44 651.63 418.20 649.33 419.93 647.01 M 426.14 648.11 C 424.82 648.79 424.81 649.46 426.11 650.14 C 427.43 649.45 427.44 648.78 426.14 648.11 M 651.25 648.24 C 649.70 648.95 646.62 650.37 645.08 651.08 C 645.06 652.44 645.04 653.80 645.04 655.18 C 647.07 652.83 649.15 650.53 651.25 648.24 M 723.00 649.00 C 723.00 651.50 723.00 656.50 723.00 659.00 C 723.25 656.50 723.75 651.50 724.00 649.00 L 723.00 649.00 M 461.25 650.53 C 460.36 651.12 459.82 652.64 460.68 653.49 C 462.73 654.54 463.72 649.57 461.25 650.53 M 504.24 650.98 C 498.13 655.46 493.14 661.53 491.91 669.16 C 496.53 663.46 500.66 657.38 504.24 650.98 M 610.19 667.52 C 615.82 663.11 620.26 657.29 623.28 650.83 C 618.36 655.93 614.10 661.61 610.19 667.52 M 687.46 664.86 C 690.62 660.60 689.30 655.03 689.54 650.14 C 686.39 654.41 687.63 659.91 687.46 664.86 M 590.09 658.38 C 591.55 656.61 592.90 654.75 594.15 652.82 C 592.68 654.59 591.33 656.45 590.09 658.38 M 631.16 673.32 C 636.08 667.63 642.10 661.28 639.81 653.00 C 633.45 657.78 633.00 666.17 631.16 673.32 M 654.14 665.61 C 657.48 662.32 660.08 658.38 659.79 653.39 C 657.57 657.29 655.70 661.40 654.14 665.61 M 341.14 657.57 C 339.78 657.56 338.07 659.19 338.78 660.56 C 340.29 661.64 343.01 658.53 341.14 657.57 M 574.16 665.61 C 576.89 663.20 578.91 660.10 580.23 656.72 C 577.79 659.38 575.77 662.39 574.16 665.61 M 711.10 657.38 C 709.66 657.04 708.55 659.54 710.22 659.94 C 711.68 660.33 712.77 657.77 711.10 657.38 M 409.10 658.38 C 407.67 658.04 406.55 660.54 408.22 660.94 C 409.68 661.33 410.77 658.77 409.10 658.38 M 436.14 658.57 C 434.78 658.56 433.07 660.19 433.78 661.56 C 435.29 662.64 438.01 659.53 436.14 658.57 M 545.72 682.74 C 537.28 691.45 533.04 703.00 527.21 713.42 C 531.48 710.43 536.67 707.97 538.79 702.89 C 541.62 697.30 544.87 691.91 547.31 686.12 C 549.26 686.25 551.77 687.08 553.88 687.44 C 555.72 676.57 562.23 667.80 568.14 658.84 C 559.91 666.06 553.21 674.80 545.72 682.74 M 751.14 659.11 C 749.81 659.79 749.80 660.46 751.11 661.14 C 752.42 660.45 752.43 659.78 751.14 659.11 M 278.97 661.01 C 278.97 663.66 278.97 666.33 278.97 668.99 L 280.03 668.99 C 280.03 666.33 280.03 663.66 280.03 661.01 L 278.97 661.01 M 323.10 661.38 C 321.67 661.04 320.55 663.53 322.22 663.94 C 323.68 664.33 324.77 661.77 323.10 661.38 M 500.05 685.45 C 506.05 678.06 510.08 669.32 513.99 660.71 C 507.53 667.72 501.93 675.97 500.05 685.45 M 745.14 663.11 C 743.81 663.79 743.80 664.46 745.11 665.14 C 746.42 664.45 746.43 663.78 745.14 663.11 M 672.92 674.35 C 674.13 671.50 675.07 668.55 675.72 665.52 C 674.34 668.31 673.44 671.29 672.92 674.35 M 402.94 673.44 C 404.99 671.44 406.78 669.19 408.26 666.75 C 406.18 668.71 404.39 670.97 402.94 673.44 M 379.06 670.28 C 377.64 669.78 376.27 672.17 377.94 672.72 C 379.35 673.21 380.72 670.81 379.06 670.28 M 335.14 673.57 C 333.78 673.56 332.07 675.19 332.78 676.56 C 334.29 677.64 337.01 674.53 335.14 673.57 M 444.14 673.11 C 442.82 673.79 442.81 674.46 444.11 675.14 C 445.43 674.45 445.44 673.78 444.14 673.11 M 530.15 678.58 C 531.81 676.88 533.27 674.99 534.51 672.97 C 532.95 674.75 531.49 676.63 530.15 678.58 M 646.82 680.86 C 641.47 689.21 634.72 696.57 629.65 705.09 C 638.82 695.38 646.99 684.60 653.07 672.68 C 650.64 675.12 648.64 677.94 646.82 680.86 M 744.12 673.53 C 741.82 676.96 748.05 674.31 744.12 673.53 M 441.26 690.54 C 446.46 686.05 450.61 680.29 453.27 673.95 C 448.83 679.16 444.89 684.75 441.26 690.54 M 513.10 681.56 C 515.26 679.26 516.97 676.59 518.21 673.69 C 516.15 676.07 514.44 678.71 513.10 681.56 M 670.48 685.48 C 671.82 682.01 672.41 678.28 672.80 674.61 C 671.72 678.16 670.90 681.79 670.48 685.48 M 298.78 690.35 C 301.73 686.57 304.43 682.60 306.89 678.50 C 303.08 681.54 300.09 685.60 298.78 690.35 M 373.09 680.57 C 371.78 680.62 370.76 682.49 371.69 683.52 C 373.32 684.53 375.05 681.03 373.09 680.57 M 574.14 681.11 C 572.81 681.79 572.81 682.46 574.11 683.14 C 575.43 682.45 575.43 681.78 574.14 681.11 M 597.10 686.02 C 597.11 686.87 597.14 688.57 597.16 689.41 C 599.87 686.97 602.52 684.46 605.14 681.93 C 602.44 683.26 599.76 684.64 597.10 686.02 M 741.16 682.28 C 739.67 682.75 740.16 685.49 741.84 684.72 C 743.31 684.23 742.83 681.50 741.16 682.28 M 729.08 683.31 C 727.65 683.23 727.39 685.67 728.92 685.69 C 730.33 685.75 730.59 683.31 729.08 683.31 M 335.09 684.57 C 333.78 684.62 332.76 686.49 333.69 687.52 C 335.32 688.53 337.05 685.03 335.09 684.57 M 413.80 684.07 C 409.72 690.25 406.79 697.17 405.00 704.34 C 410.70 698.97 414.71 692.23 418.30 685.35 C 416.79 684.91 415.29 684.50 413.80 684.07 M 572.09 684.57 C 570.78 684.62 569.76 686.49 570.69 687.52 C 572.31 688.53 574.04 685.03 572.09 684.57 M 359.14 685.11 C 357.82 685.79 357.81 686.46 359.11 687.14 C 360.43 686.45 360.44 685.77 359.14 685.11 M 365.06 686.36 C 361.51 694.41 358.61 702.77 356.97 711.44 C 362.68 705.14 366.59 697.47 369.93 689.72 C 368.27 688.64 366.65 687.53 365.06 686.36 M 654.60 700.06 C 659.52 697.49 662.26 692.92 663.03 687.63 C 659.91 691.54 657.17 695.76 654.60 700.06 M 693.76 705.22 C 697.37 701.22 700.87 696.81 702.31 691.53 C 698.93 695.72 695.79 700.20 693.76 705.22 M 379.19 696.10 C 376.63 700.09 373.94 704.03 371.69 708.21 C 376.62 705.52 381.39 702.21 384.32 697.29 C 382.61 696.88 380.90 696.49 379.19 696.10 M 591.08 702.08 C 588.60 705.48 589.56 710.14 589.19 714.00 C 594.77 709.47 596.32 702.12 598.09 695.53 C 595.60 697.54 593.07 699.55 591.08 702.08 M 598.60 717.21 C 601.11 716.03 603.88 714.98 605.58 712.65 C 610.01 706.96 614.66 701.45 619.15 695.82 C 611.07 701.60 604.40 709.20 598.60 717.21 M 503.33 710.13 C 499.50 718.81 495.67 727.49 491.77 736.14 C 495.11 733.74 498.76 731.60 501.54 728.55 C 503.58 724.92 502.46 720.64 503.06 716.72 C 505.29 710.50 509.75 705.48 513.20 699.93 C 509.51 702.91 505.05 705.43 503.33 710.13 M 443.62 703.46 C 437.94 706.48 430.93 707.61 426.24 712.22 C 421.33 719.58 419.01 728.34 415.07 736.21 C 423.58 736.38 431.94 734.96 439.66 731.32 C 441.23 722.43 443.75 713.74 446.72 705.24 C 445.68 704.63 444.65 704.04 443.62 703.46 M 711.03 703.51 C 709.54 703.54 709.15 706.26 710.81 706.33 C 712.23 706.23 712.68 703.58 711.03 703.51 M 681.18 716.69 C 685.20 713.49 685.10 708.06 685.62 703.42 C 682.93 707.34 681.74 712.02 681.18 716.69 M 574.08 705.31 C 572.65 705.23 572.39 707.67 573.92 707.69 C 575.33 707.75 575.59 705.31 574.08 705.31 M 617.13 704.95 C 616.92 705.23 616.52 705.80 616.31 706.08 C 617.16 709.22 620.47 704.42 617.13 704.95 M 659.97 715.37 C 662.67 712.37 664.41 708.68 665.15 704.73 C 663.26 708.18 661.43 711.70 659.97 715.37 M 643.92 710.13 C 641.04 713.62 639.28 717.92 638.48 722.36 C 645.65 718.80 651.19 712.75 655.61 706.19 C 651.64 707.27 647.67 708.44 643.92 710.13 M 638.52 707.26 C 636.56 709.17 634.66 711.13 632.82 713.15 C 634.90 711.37 636.81 709.40 638.52 707.26 M 451.01 728.02 C 456.23 725.53 462.03 724.15 466.84 720.91 C 468.72 716.47 470.24 711.89 471.78 707.33 C 462.93 712.01 457.71 720.94 451.01 728.02 M 606.46 722.03 C 613.50 721.08 619.74 717.97 624.86 713.09 C 624.49 711.70 624.13 710.31 623.79 708.94 C 617.85 713.04 610.94 716.20 606.46 722.03 M 678.94 738.32 C 687.98 730.27 697.15 721.42 701.18 709.70 C 692.52 718.15 684.83 727.74 678.94 738.32 M 667.07 728.39 C 671.17 726.47 675.19 724.37 679.18 722.21 C 676.97 719.70 675.56 716.53 675.18 713.20 C 672.59 718.32 669.81 723.34 667.07 728.39 M 450.76 716.73 C 447.11 717.92 447.15 722.41 446.06 725.46 C 449.81 722.01 453.15 718.13 456.42 714.23 C 454.51 715.02 452.61 715.82 450.76 716.73 M 359.99 719.14 C 359.60 721.17 359.21 723.20 358.86 725.25 C 361.76 723.04 364.66 720.83 367.49 718.54 C 364.99 718.72 362.49 718.92 359.99 719.14 M 547.25 719.07 C 546.27 720.16 546.29 722.61 547.74 723.31 C 549.47 722.86 548.93 719.06 547.25 719.07 Z" />
</g>
</svg>
