<?xml version="1.0" encoding="UTF-8" ?>
<!DOCTYPE svg PUBLIC "-//W3C//DTD SVG 1.1//EN" "http://www.w3.org/Graphics/SVG/1.1/DTD/svg11.dtd">
<svg width="1024pt" height="768pt" viewBox="0 0 1024 768" version="1.1" xmlns="http://www.w3.org/2000/svg">
<g id="#222034ff">
<path fill="#222034" opacity="1.00" d=" M 521.22 21.55 C 522.05 21.34 523.71 20.91 524.54 20.70 C 526.30 31.05 525.77 41.62 526.77 52.05 C 528.41 77.14 533.33 102.74 527.53 127.62 C 526.31 133.35 529.03 138.99 528.47 144.77 C 530.11 145.77 531.73 146.81 533.34 147.87 C 531.08 150.96 529.01 154.19 527.19 157.56 C 525.09 155.92 523.13 154.11 521.25 152.22 C 501.86 152.29 482.69 155.65 463.34 156.61 C 445.93 157.71 428.56 161.83 411.06 160.17 C 411.30 163.23 411.53 166.29 411.67 169.35 C 409.28 165.43 407.50 160.92 403.49 158.32 C 407.16 153.75 407.07 147.48 406.38 141.95 C 404.65 123.07 404.63 104.07 405.23 85.14 C 405.77 70.88 408.47 56.70 407.49 42.41 C 407.11 36.11 404.62 30.30 403.12 24.25 C 408.65 28.26 409.10 35.36 410.40 41.53 C 447.65 40.79 484.88 39.57 522.14 39.98 C 521.96 33.83 521.75 27.68 521.22 21.55 M 411.11 43.26 C 410.34 80.70 406.65 118.26 410.44 155.66 C 427.85 155.62 445.08 152.84 462.42 151.53 C 476.12 150.24 490.18 150.35 503.41 146.09 C 509.39 144.26 515.70 145.69 521.75 146.51 C 521.58 139.82 522.11 133.12 523.53 126.58 C 528.73 103.96 524.92 80.73 523.25 57.93 C 522.91 52.98 522.46 47.84 519.11 43.96 C 483.11 43.64 447.08 44.85 411.11 43.26 Z" />
<path fill="#222034" opacity="1.00" d=" M 225.77 30.57 C 249.48 26.34 273.36 31.64 296.95 34.14 C 317.75 36.80 339.33 36.82 358.98 45.07 C 362.01 46.66 365.75 48.73 366.50 52.40 C 367.40 63.50 365.93 74.59 365.57 85.68 C 364.47 101.00 365.54 116.33 365.85 131.65 C 349.54 130.54 333.30 133.22 317.00 133.26 C 290.13 135.02 263.17 132.96 236.31 134.66 C 235.07 116.04 238.14 97.57 238.92 79.01 C 239.47 65.69 241.08 52.46 241.94 39.17 C 242.91 38.66 243.88 38.16 244.87 37.68 C 243.73 68.14 241.65 98.55 239.91 128.99 C 280.29 129.30 320.72 129.33 360.99 125.83 C 359.03 102.88 360.66 79.88 361.70 56.93 C 361.50 54.29 361.92 50.30 358.81 49.27 C 337.81 41.10 315.03 40.81 292.95 38.09 C 270.96 35.55 248.54 30.59 226.44 34.47 C 226.21 33.17 225.99 31.87 225.77 30.57 Z" />
<path fill="#222034" opacity="1.00" d=" M 101.33 35.03 C 112.98 31.98 125.06 31.05 137.04 30.32 C 150.67 28.91 164.03 32.65 177.59 33.17 C 183.48 33.74 189.81 32.71 195.29 35.49 C 194.66 63.80 191.59 92.41 196.71 120.47 C 184.77 123.17 172.47 122.86 160.32 123.44 C 143.65 124.26 127.13 126.81 110.47 127.81 C 110.78 117.91 110.75 108.00 109.73 98.14 C 108.23 80.71 111.34 63.19 109.30 45.81 C 108.70 41.00 104.27 38.36 101.33 35.03 M 110.01 37.12 C 114.43 51.36 112.73 66.35 113.08 81.01 C 113.17 95.08 114.77 109.07 115.20 123.12 C 132.85 122.41 150.31 119.15 168.00 119.05 C 176.00 118.95 183.99 118.37 191.91 117.21 C 188.65 90.99 190.04 64.51 191.07 38.19 C 177.46 37.84 163.97 35.90 150.46 34.40 C 136.91 33.51 123.43 35.57 110.01 37.12 Z" />
<path fill="#222034" opacity="1.00" d=" M 129.08 48.82 C 145.14 49.63 163.88 50.56 175.27 63.73 C 183.85 72.06 187.07 88.56 176.82 96.81 C 169.84 102.79 160.28 105.70 151.20 103.71 C 137.56 99.65 127.61 88.35 120.49 76.56 C 115.68 66.30 122.35 56.14 129.08 48.82 M 133.43 53.50 C 121.93 54.53 118.65 70.86 125.13 78.91 C 132.72 92.30 147.43 104.39 163.77 100.70 C 170.21 98.49 178.45 95.33 179.70 87.68 C 180.96 78.55 178.34 68.09 170.65 62.37 C 160.29 54.22 146.20 52.21 133.43 53.50 Z" />
<path fill="#222034" opacity="1.00" d=" M 269.88 62.93 C 273.36 60.22 277.22 57.61 281.38 56.13 C 292.53 57.28 304.31 56.64 314.87 61.03 C 320.71 63.29 326.81 65.26 331.85 69.15 C 341.12 78.67 338.55 92.81 341.66 104.57 C 344.26 108.71 347.96 112.62 347.07 118.05 C 347.44 120.62 345.18 124.06 342.33 122.72 C 337.47 119.57 337.72 112.84 337.30 107.81 C 336.23 96.94 336.62 85.32 331.63 75.34 C 328.75 69.33 321.36 68.41 315.95 65.84 C 318.81 69.86 321.75 73.95 323.36 78.65 C 325.22 88.48 322.15 99.76 313.40 105.43 C 307.10 110.15 298.93 115.06 290.84 112.25 C 281.29 108.42 273.82 98.52 274.14 87.96 C 273.49 78.89 276.33 70.23 277.91 61.43 C 272.34 65.27 267.71 70.57 266.36 77.34 C 264.14 86.79 264.01 96.56 263.07 106.18 C 265.50 106.01 267.93 105.74 270.37 105.56 C 269.31 109.57 267.51 113.54 264.49 116.46 C 261.25 118.53 257.29 119.07 253.60 119.91 C 254.76 115.60 257.40 111.92 259.06 107.83 C 260.28 92.61 258.43 74.94 269.88 62.93 M 281.08 60.25 C 278.67 71.26 276.76 82.71 279.02 93.93 C 281.32 102.90 290.44 111.47 300.27 108.21 C 308.51 105.20 317.91 99.65 319.07 90.03 C 321.47 83.02 318.84 75.25 314.10 69.90 C 305.07 61.96 292.60 60.63 281.08 60.25 M 261.09 110.57 C 259.78 110.62 258.76 112.50 259.69 113.52 C 261.32 114.53 263.05 111.03 261.09 110.57 M 341.53 116.29 C 340.38 117.07 341.65 119.14 342.85 118.33 C 344.04 117.53 342.76 115.42 341.53 116.29 Z" />
<path fill="#222034" opacity="1.00" d=" M 429.89 62.22 C 437.16 54.81 448.50 55.72 457.98 54.95 C 465.23 54.28 472.51 54.96 479.30 57.66 C 474.87 69.22 476.08 81.88 475.92 94.00 C 476.14 106.01 475.60 118.03 475.90 130.05 C 487.46 128.71 499.07 127.93 510.71 128.21 C 510.72 129.66 510.72 131.10 510.72 132.55 C 498.27 133.32 484.24 131.61 473.40 139.19 C 472.61 138.35 471.83 137.51 471.05 136.67 C 471.98 114.17 472.19 91.65 472.02 69.12 C 466.45 72.29 460.28 76.37 453.61 74.45 C 448.79 73.63 444.94 70.54 440.86 68.12 C 441.05 86.39 442.04 104.65 443.34 122.87 C 443.91 126.58 446.63 129.38 448.51 132.45 C 448.27 134.53 447.14 136.37 446.32 138.27 C 443.23 137.15 440.15 134.95 436.71 135.74 C 430.13 137.08 423.58 138.66 416.88 139.34 C 416.28 137.43 415.65 135.54 415.02 133.65 C 423.39 133.32 431.72 132.37 439.96 130.87 C 438.45 108.93 437.31 86.96 436.81 64.97 C 434.42 64.26 432.12 63.31 429.89 62.22 M 440.13 60.44 C 443.44 65.92 448.03 71.96 455.12 71.89 C 462.13 73.23 467.17 67.76 472.17 64.03 C 471.96 62.41 471.78 60.79 471.62 59.16 C 461.10 59.00 450.57 59.20 440.13 60.44 Z" />
<path fill="#222034" opacity="1.00" d=" M 124.93 63.96 C 129.79 62.41 137.96 57.85 141.10 63.95 C 144.48 68.92 137.32 74.57 132.59 72.51 C 128.50 71.46 126.80 67.31 124.93 63.96 M 131.99 64.53 C 132.63 66.43 133.27 68.34 133.88 70.25 C 135.61 69.82 137.34 69.37 139.07 68.93 C 138.92 67.41 138.78 65.90 138.63 64.38 C 136.97 64.42 133.65 64.49 131.99 64.53 Z" />
<path fill="#222034" opacity="1.00" d=" M 149.93 65.28 C 154.15 65.64 159.44 63.91 162.85 67.15 C 167.11 71.68 158.92 78.43 154.41 75.64 C 149.60 74.77 150.55 68.88 149.93 65.28 M 153.00 70.36 C 155.15 71.73 157.52 72.59 160.13 72.58 C 160.72 70.93 161.12 69.23 161.58 67.53 C 158.65 68.27 155.78 69.19 153.00 70.36 Z" />
<path fill="#222034" opacity="1.00" d=" M 139.06 85.05 C 150.25 85.79 161.45 85.94 172.65 85.21 C 172.67 86.38 172.68 87.55 172.68 88.71 C 160.83 89.10 148.97 88.89 137.12 88.27 C 137.78 87.20 138.43 86.13 139.06 85.05 Z" />
<path fill="#222034" opacity="1.00" d=" M 95.28 204.15 C 111.97 204.66 129.45 201.55 145.63 206.87 C 151.31 208.90 158.06 209.08 162.82 213.19 C 164.60 214.28 163.38 216.43 163.05 217.99 C 160.41 225.20 157.04 232.15 153.05 238.71 C 135.44 233.91 116.99 235.57 98.97 234.93 C 97.54 234.90 95.78 234.22 95.70 232.56 C 94.86 223.79 94.31 214.98 93.05 206.26 C 93.79 205.55 94.54 204.85 95.28 204.15 M 97.45 207.98 C 98.52 215.58 99.08 223.23 99.23 230.90 C 116.61 230.44 133.93 232.02 151.08 234.69 C 154.29 228.32 157.02 221.72 159.84 215.16 C 152.41 213.22 145.02 211.10 137.74 208.65 C 124.36 207.22 110.87 208.10 97.45 207.98 Z" />
<path fill="#222034" opacity="1.00" d=" M 201.71 214.72 C 207.45 209.19 214.98 203.62 223.43 204.51 C 235.65 205.36 246.47 212.32 258.85 212.23 C 265.29 213.31 273.24 211.40 278.26 216.73 C 284.65 221.92 284.97 231.20 283.64 238.68 C 281.71 244.90 274.18 244.93 268.91 245.96 C 247.34 248.21 225.62 246.78 204.01 246.05 C 187.39 245.69 170.82 247.17 154.21 247.09 C 153.77 257.04 152.32 266.96 152.65 276.94 C 173.15 278.07 193.37 282.01 213.86 283.28 C 221.91 283.85 230.00 284.04 238.05 284.73 C 250.29 285.30 262.76 288.03 274.92 285.23 C 276.94 276.32 278.55 267.31 279.27 258.20 C 265.26 251.01 248.79 254.19 233.70 251.25 C 239.21 254.09 244.71 256.99 249.77 260.59 L 250.00 265.04 C 252.34 270.60 246.14 272.56 242.81 274.82 C 234.78 275.65 226.66 273.63 219.95 269.14 C 221.08 262.40 224.78 256.65 228.16 250.88 C 241.76 249.94 255.41 249.51 269.04 250.01 C 274.55 250.34 278.82 254.26 283.33 257.04 C 282.97 266.47 281.86 276.00 278.93 285.00 C 274.88 292.89 263.65 289.95 256.49 290.77 C 258.38 292.72 260.37 294.58 262.29 296.52 C 261.44 297.24 260.60 297.96 259.77 298.69 C 258.65 298.23 257.54 297.79 256.43 297.33 C 256.15 307.98 253.64 318.40 253.23 329.03 C 252.77 338.44 252.94 347.87 253.01 357.30 C 259.01 356.72 265.25 354.66 271.15 357.05 C 267.08 362.81 259.11 360.29 253.18 361.51 C 253.04 367.88 253.00 374.27 252.73 380.65 C 251.62 380.67 250.50 380.68 249.40 380.68 C 249.16 373.83 248.96 366.98 248.81 360.13 C 208.08 356.90 167.08 357.10 126.42 361.09 C 127.32 365.55 128.32 370.01 129.01 374.52 C 128.42 374.52 127.22 374.54 126.62 374.55 C 125.72 370.45 124.80 366.38 123.82 362.31 C 120.61 362.34 117.41 362.43 114.20 362.35 C 116.72 360.67 119.43 359.30 122.21 358.12 C 120.73 340.93 120.88 323.64 118.67 306.51 C 117.55 303.48 119.36 297.18 113.71 297.32 C 115.90 294.25 116.51 290.44 117.53 286.88 C 118.78 289.53 119.74 292.26 120.79 295.00 C 134.87 293.49 148.77 290.28 162.98 290.12 C 193.92 289.69 224.88 289.69 255.77 291.37 C 242.85 287.85 229.26 288.87 216.04 287.79 C 193.48 286.92 171.39 281.14 148.76 281.38 C 148.36 274.71 148.06 267.98 149.08 261.35 C 149.82 255.48 150.06 249.47 148.14 243.82 C 180.40 241.88 212.74 241.18 245.04 242.63 C 256.78 243.15 268.62 243.17 280.22 241.04 C 280.99 232.90 282.99 223.40 275.76 217.30 C 264.42 214.53 252.17 216.99 241.07 212.86 C 228.75 208.85 213.15 205.37 203.16 216.16 C 198.89 222.58 200.61 230.83 200.83 238.00 C 200.08 238.00 198.58 237.99 197.84 237.99 C 198.76 230.35 195.41 220.80 201.71 214.72 M 230.06 255.99 C 224.51 257.72 224.61 264.60 223.27 269.08 C 231.01 271.37 239.20 272.86 247.10 270.31 C 246.67 267.18 246.28 264.11 245.88 260.99 C 240.80 258.90 235.70 255.84 230.06 255.99 M 120.92 297.65 C 122.91 317.80 124.28 337.98 124.97 358.22 C 165.96 352.00 207.63 353.30 248.86 356.14 C 247.72 336.03 251.97 316.37 253.87 296.49 C 223.83 291.47 193.29 293.07 162.98 293.12 C 148.81 293.12 135.01 296.82 120.92 297.65 Z" />
<path fill="#222034" opacity="1.00" d=" M 165.31 232.33 C 173.31 222.07 178.34 208.27 191.78 203.75 C 193.58 206.88 196.21 209.68 197.27 213.20 C 196.99 221.94 195.33 230.59 193.78 239.19 C 192.43 238.81 191.08 238.41 189.74 238.01 C 190.90 228.21 196.73 217.48 190.89 208.14 C 179.96 214.00 174.69 226.00 167.54 235.52 C 165.50 238.68 161.30 238.63 158.06 239.48 C 158.09 238.30 158.12 237.13 158.17 235.96 C 160.78 235.35 163.91 235.04 165.31 232.33 Z" />
<path fill="#222034" opacity="1.00" d=" M 108.09 226.10 C 108.51 220.89 111.46 213.45 117.94 214.26 C 122.66 215.26 130.81 217.86 127.66 224.65 C 123.54 231.43 113.98 229.21 108.09 226.10 M 111.94 219.41 C 112.29 221.76 111.39 225.18 114.34 225.64 C 119.25 226.63 127.66 226.77 125.70 218.97 C 121.11 219.08 116.52 219.24 111.94 219.41 Z" />
<path fill="#222034" opacity="1.00" d=" M 136.41 215.34 C 140.01 213.94 143.60 215.30 146.35 217.53 C 149.25 219.79 153.15 222.29 151.98 226.78 C 146.06 232.56 135.69 229.98 131.04 223.76 C 130.46 220.13 132.81 216.25 136.41 215.34 M 134.47 220.06 C 134.24 221.46 134.01 222.87 133.79 224.28 C 138.56 226.56 143.79 226.95 149.01 226.38 C 149.00 224.81 149.01 223.23 149.02 221.66 C 144.20 220.84 139.32 220.48 134.47 220.06 Z" />
<path fill="#222034" opacity="1.00" d=" M 169.23 237.91 C 172.90 231.76 175.94 225.23 180.55 219.68 C 181.46 221.47 182.60 223.17 183.23 225.09 C 182.76 227.91 181.24 230.42 180.14 233.03 C 183.38 233.76 186.69 234.64 189.62 236.29 C 183.75 237.84 177.55 237.97 171.89 240.27 C 171.00 239.48 170.11 238.69 169.23 237.91 Z" />
<path fill="#222034" opacity="1.00" d=" M 201.68 226.05 C 207.19 222.57 213.20 219.93 219.80 219.67 C 220.26 220.53 220.72 221.40 221.18 222.28 C 216.14 223.14 209.82 223.02 206.16 227.28 C 204.84 231.28 208.54 233.89 211.91 234.77 C 210.54 233.47 209.14 232.20 207.75 230.92 C 211.36 227.50 215.37 224.14 220.53 223.70 C 220.50 224.31 220.44 225.53 220.41 226.14 C 217.77 227.14 215.17 228.21 212.63 229.44 C 216.11 231.28 219.82 232.56 223.53 233.85 C 223.60 234.82 223.66 235.79 223.72 236.77 C 219.22 236.66 214.64 237.52 210.18 236.72 C 205.72 234.95 203.23 230.31 201.68 226.05 Z" />
<path fill="#222034" opacity="1.00" d=" M 238.05 220.83 C 247.86 219.64 258.75 219.35 266.95 225.86 C 265.57 231.39 263.70 238.55 257.62 240.64 C 253.20 240.45 246.46 243.35 243.47 238.70 C 242.74 237.70 242.12 236.62 241.49 235.56 C 246.57 235.82 251.61 236.69 256.71 236.63 C 261.07 235.59 261.27 230.30 262.55 226.83 C 254.51 224.28 245.82 224.17 238.05 220.83 Z" />
<path fill="#222034" opacity="1.00" d=" M 301.63 230.48 C 298.43 224.40 305.47 221.19 310.09 220.34 C 314.65 221.30 317.76 226.44 322.99 225.86 C 326.20 225.29 328.87 223.25 331.91 222.19 C 336.97 221.29 342.08 220.67 347.24 220.34 C 349.04 223.90 352.79 227.05 351.52 231.55 C 348.89 236.97 343.45 241.70 337.00 240.92 C 327.79 241.12 318.33 241.98 309.32 239.60 C 305.53 238.01 302.67 234.42 301.63 230.48 M 307.44 225.37 C 311.51 228.42 315.57 232.71 320.98 232.87 C 329.00 231.80 336.75 229.34 344.71 227.85 C 345.16 226.81 345.61 225.77 346.06 224.73 C 341.90 225.06 337.72 225.35 333.61 226.01 C 329.12 227.31 325.26 230.97 320.20 229.73 C 315.84 228.57 311.66 226.92 307.44 225.37 M 325.77 235.53 C 318.05 236.65 311.11 232.41 304.42 229.33 C 306.28 231.77 307.85 235.04 311.09 235.81 C 320.49 238.05 330.28 237.19 339.82 236.69 C 344.27 236.07 346.66 232.00 348.79 228.54 C 341.28 231.37 333.60 233.78 325.77 235.53 Z" />
<path fill="#222034" opacity="1.00" d=" M 115.49 222.12 C 117.59 222.20 119.69 222.37 121.78 222.55 C 119.59 223.71 117.35 224.75 115.06 225.71 C 115.17 224.81 115.38 223.02 115.49 222.12 Z" />
<path fill="#222034" opacity="1.00" d=" M 136.03 222.07 C 139.09 222.33 142.10 223.05 144.88 224.36 C 141.59 224.91 138.60 223.89 136.03 222.07 Z" />
<path fill="#222034" opacity="1.00" d=" M 50.39 226.27 C 54.79 226.12 59.57 223.32 63.85 225.06 C 64.84 228.84 64.93 232.80 65.62 236.66 C 67.62 252.70 74.34 267.63 77.24 283.50 C 69.90 284.95 62.44 285.66 54.99 286.12 C 45.94 286.72 37.17 289.48 28.10 289.82 C 24.11 288.90 22.88 283.68 23.46 280.16 C 23.72 266.19 22.98 252.24 22.37 238.30 C 22.42 236.91 22.15 235.27 23.30 234.24 C 30.77 227.70 41.25 228.28 50.39 226.27 M 24.71 237.52 C 26.28 253.59 26.90 269.75 26.45 285.90 C 41.72 283.90 56.89 281.09 72.33 280.77 C 68.73 263.42 61.41 246.88 60.43 229.01 C 48.43 231.29 35.52 231.09 24.71 237.52 Z" />
<path fill="#222034" opacity="1.00" d=" M 243.01 226.68 C 249.36 224.93 255.68 226.79 260.99 230.24 C 259.06 232.82 257.46 237.07 252.98 234.99 C 250.68 234.66 248.95 232.91 247.14 231.61 C 250.55 231.44 253.93 231.38 257.35 231.31 C 252.59 229.69 247.56 228.86 243.01 226.68 Z" />
<path fill="#222034" opacity="1.00" d=" M 37.21 236.86 C 38.98 236.38 40.89 235.28 42.71 236.22 C 48.71 238.57 54.31 241.84 59.69 245.34 C 62.93 247.40 63.11 251.79 63.96 255.14 C 65.96 260.27 61.67 263.51 58.80 266.79 C 55.00 270.92 50.03 274.63 44.02 274.04 C 39.34 273.18 35.68 269.67 33.20 265.79 C 27.93 259.26 29.87 249.65 34.13 243.13 C 35.82 240.29 39.12 239.30 41.99 238.13 C 40.40 237.72 38.80 237.30 37.21 236.86 M 38.08 242.06 C 30.80 250.30 30.92 265.95 42.32 270.69 C 50.21 272.98 55.95 265.87 61.48 261.78 C 60.23 256.58 62.23 248.76 55.95 246.08 C 51.03 242.15 44.23 239.65 38.08 242.06 Z" />
<path fill="#222034" opacity="1.00" d=" M 116.41 237.37 C 125.60 236.57 137.63 237.19 143.39 245.68 C 144.89 247.83 147.20 250.14 146.26 253.00 C 145.00 259.77 147.17 269.00 139.37 272.37 C 130.70 272.76 118.52 274.96 112.60 266.66 C 111.17 258.27 111.06 249.79 111.88 241.35 C 112.34 239.23 114.45 237.91 116.41 237.37 M 119.48 240.60 C 118.59 243.82 116.74 246.90 116.92 250.34 C 117.50 255.71 117.02 261.10 116.17 266.41 C 123.76 268.31 132.17 270.26 139.73 267.78 C 143.34 262.29 141.72 255.12 140.39 249.09 C 137.36 240.91 126.30 242.44 119.48 240.60 Z" />
<path fill="#222034" opacity="1.00" d=" M 79.28 242.39 C 86.81 242.02 94.95 243.94 102.04 240.61 C 105.92 255.33 107.70 270.92 104.92 286.00 C 98.87 287.68 92.80 289.33 86.64 290.54 C 82.37 275.37 81.46 259.37 77.05 244.18 C 77.79 243.58 78.54 242.98 79.28 242.39 M 81.82 246.50 C 84.87 259.54 87.66 272.70 88.69 286.09 C 92.84 285.25 96.93 284.12 100.97 282.85 C 101.96 282.49 103.25 282.07 103.15 280.77 C 103.57 269.06 102.10 257.32 99.32 245.94 C 93.49 246.28 87.66 246.66 81.82 246.50 Z" />
<path fill="#222034" opacity="1.00" d=" M 163.29 255.12 C 161.69 251.49 167.17 247.81 169.74 251.23 C 176.68 257.95 178.71 270.15 171.95 277.66 C 168.55 277.07 165.17 276.45 161.85 275.52 C 163.40 268.82 165.38 261.91 163.29 255.12 M 167.91 253.64 C 168.21 260.56 166.70 267.32 165.19 274.01 C 167.00 274.01 170.61 274.01 172.42 274.00 C 173.10 266.75 173.06 259.38 167.91 253.64 Z" />
<path fill="#222034" opacity="1.00" d=" M 189.40 250.28 C 194.47 249.71 200.62 249.43 204.34 253.67 C 208.68 257.14 208.09 263.38 209.75 268.17 C 206.01 270.14 202.42 274.21 197.68 272.34 C 192.13 269.47 187.35 264.83 184.90 259.02 C 182.68 255.47 186.49 251.88 189.40 250.28 M 186.74 254.53 C 188.37 258.57 188.93 263.55 192.91 266.11 C 196.26 270.81 201.90 269.19 206.64 268.54 C 205.03 264.15 206.00 258.16 202.25 254.75 C 197.55 251.93 191.71 254.48 186.74 254.53 Z" />
<path fill="#222034" opacity="1.00" d=" M 285.28 296.34 C 300.85 288.65 318.65 291.08 335.01 294.01 C 339.93 311.47 334.60 329.36 332.94 346.88 C 332.29 352.18 333.34 357.70 331.93 362.90 C 313.82 364.26 295.54 366.23 277.33 367.49 C 272.85 359.57 277.49 350.47 276.98 342.02 C 278.87 331.48 273.39 321.27 275.64 310.84 C 277.08 305.24 278.46 297.75 285.28 296.34 M 292.12 298.16 C 288.02 299.78 282.06 300.97 281.12 306.10 C 278.84 318.78 280.17 331.84 280.52 344.64 C 289.02 335.40 284.90 320.68 293.64 311.64 C 301.00 305.84 311.11 307.77 319.81 307.41 C 323.18 311.43 321.72 317.23 322.05 322.01 C 322.21 330.76 319.52 339.10 317.90 347.59 C 319.65 348.59 321.41 349.59 323.15 350.62 C 319.38 352.95 315.74 355.48 312.41 358.42 C 311.28 356.94 310.08 355.49 309.25 353.81 C 310.01 350.23 312.37 347.22 313.49 343.76 C 318.33 333.38 318.94 321.75 318.90 310.49 C 306.06 321.29 306.52 339.47 304.15 354.62 C 302.07 359.68 296.23 360.67 291.76 358.57 C 293.95 342.84 297.49 327.21 297.84 311.28 C 291.65 315.63 290.32 323.47 290.28 330.53 C 289.74 338.40 288.16 346.45 282.83 352.60 L 280.87 346.44 C 279.37 352.15 277.94 357.90 276.97 363.74 C 294.14 365.17 310.67 359.31 327.78 359.69 C 328.53 338.80 334.71 318.29 332.30 297.25 C 318.99 296.31 304.99 292.90 292.12 298.16 M 301.32 312.49 C 299.20 320.04 300.51 327.87 299.95 335.55 C 298.58 342.29 296.74 349.04 297.36 356.00 C 298.50 354.38 300.17 352.93 300.53 350.90 C 301.93 337.31 304.49 323.64 310.43 311.23 C 308.15 311.54 303.60 312.17 301.32 312.49 Z" />
<path fill="#222034" opacity="1.00" d=" M 21.28 300.41 C 40.17 297.87 59.10 295.37 78.18 294.75 C 82.93 301.18 84.59 309.04 83.73 316.94 C 82.66 335.39 83.35 353.88 82.53 372.34 C 63.44 374.04 45.07 381.00 25.76 380.42 C 24.56 380.35 23.71 379.59 23.75 378.35 C 20.98 359.73 22.29 340.83 23.44 322.14 C 23.61 314.88 24.79 307.09 21.28 300.41 M 26.25 303.56 C 27.35 317.71 25.61 331.85 25.19 346.00 C 24.93 356.41 25.54 366.82 26.08 377.22 C 41.26 376.88 55.83 372.37 70.68 369.74 C 73.71 368.81 78.84 369.25 78.91 365.01 C 79.47 354.35 78.82 343.66 79.13 333.00 C 79.14 321.63 80.87 309.91 77.21 298.89 C 60.12 299.22 43.25 302.05 26.25 303.56 Z" />
<path fill="#222034" opacity="1.00" d=" M 174.04 298.54 C 184.70 295.52 196.58 292.86 207.39 296.54 C 203.08 309.95 204.21 324.22 203.33 338.10 C 196.62 338.97 189.99 340.38 183.28 341.16 C 180.55 341.55 179.64 338.11 178.79 336.16 C 175.48 325.30 175.09 313.68 170.84 303.08 C 169.93 300.70 170.69 298.14 170.85 295.71 C 171.92 296.63 172.99 297.58 174.04 298.54 M 173.63 301.84 C 177.37 313.68 179.18 326.01 182.16 338.04 C 188.39 337.06 194.62 335.99 200.92 335.63 C 201.09 323.03 200.08 310.04 204.11 297.90 C 193.82 297.92 183.36 297.98 173.63 301.84 Z" />
<path fill="#222034" opacity="1.00" d=" M 358.05 300.12 C 365.53 295.93 374.44 297.34 382.65 296.90 C 383.47 297.71 384.30 298.53 385.13 299.35 C 384.85 306.77 384.99 314.30 383.55 321.62 C 380.63 334.56 380.32 347.97 376.67 360.77 C 370.79 360.84 364.90 361.18 359.04 360.80 C 353.14 360.07 347.78 357.19 342.78 354.12 C 341.89 336.85 346.66 320.02 346.62 302.80 C 350.50 302.22 354.53 302.03 358.05 300.12 M 351.73 309.73 C 349.79 313.32 349.91 317.60 349.25 321.52 C 347.87 331.83 346.93 342.19 346.94 352.60 C 355.01 356.18 363.66 358.20 372.57 356.79 C 375.30 338.40 379.05 320.14 380.41 301.58 C 370.20 301.37 359.75 302.84 351.73 309.73 Z" />
<path fill="#222034" opacity="1.00" d=" M 131.81 298.22 C 140.64 299.85 153.15 300.16 156.94 310.06 C 159.96 318.11 164.48 327.87 160.29 336.30 C 156.22 342.27 151.08 351.03 142.39 348.56 C 136.31 344.70 129.41 340.73 125.72 334.31 C 123.68 322.13 124.59 308.68 131.81 298.22 M 132.21 301.53 C 129.57 308.73 127.58 316.25 127.85 324.00 C 128.34 328.30 126.68 334.13 130.85 337.14 C 135.93 341.22 141.71 348.42 148.98 344.99 C 154.85 341.16 160.23 334.56 158.83 327.05 C 158.13 320.43 156.00 313.90 152.85 308.04 C 147.82 302.22 139.13 303.02 132.21 301.53 Z" />
<path fill="#222034" opacity="1.00" d=" M 55.32 306.37 C 61.05 305.38 67.11 306.65 71.78 310.20 C 78.56 319.55 78.49 331.95 76.85 342.90 C 75.50 354.25 67.04 363.82 56.36 367.40 C 46.44 369.73 35.09 364.80 29.77 356.23 C 27.07 345.10 32.25 334.32 36.16 324.19 C 39.65 316.00 45.56 307.02 55.32 306.37 M 57.37 310.41 C 49.98 311.54 42.52 315.62 39.72 322.88 C 35.54 333.20 30.50 344.08 32.41 355.56 C 34.67 360.87 41.14 362.73 46.29 363.77 C 57.83 365.95 69.39 357.10 71.83 345.95 C 74.62 336.59 74.72 326.11 70.91 317.02 C 69.30 311.24 62.58 309.58 57.37 310.41 Z" />
<path fill="#222034" opacity="1.00" d=" M 217.69 320.71 C 223.12 311.84 235.57 312.75 244.54 312.10 C 244.67 312.82 244.91 314.27 245.03 314.99 C 243.53 315.42 242.04 315.86 240.55 316.28 C 244.09 322.84 246.10 330.35 244.87 337.84 C 241.09 345.87 230.84 347.93 222.99 346.03 C 216.51 345.23 214.43 338.22 213.12 332.94 C 213.07 328.48 215.67 324.51 217.69 320.71 M 217.02 328.09 C 214.76 332.86 218.05 337.79 219.06 342.46 C 226.25 343.03 236.45 345.48 241.67 338.68 C 243.51 330.76 241.13 322.57 237.16 315.72 C 229.84 318.56 219.43 318.99 217.02 328.09 Z" />
<path fill="#222034" opacity="1.00" d=" M 371.40 315.12 C 375.71 324.39 375.17 336.70 368.79 344.87 C 365.28 344.71 364.59 339.70 362.44 337.51 C 360.88 339.29 359.27 341.03 357.65 342.76 C 349.97 335.29 353.15 322.72 360.11 315.98 C 364.01 320.08 365.06 325.72 365.63 331.17 C 367.40 325.76 368.62 320.13 371.40 315.12 M 357.31 337.74 C 360.66 333.30 360.99 327.79 359.92 322.48 C 357.68 327.23 356.66 332.47 357.31 337.74 M 371.01 325.86 C 369.49 329.85 368.01 333.86 366.59 337.90 C 367.46 337.91 369.18 337.94 370.04 337.95 C 370.48 333.93 370.81 329.89 371.01 325.86 Z" />
<path fill="#222034" opacity="1.00" d=" M 31.81 392.80 C 46.65 387.86 62.39 385.88 77.98 386.09 C 82.01 387.51 84.95 391.38 86.83 395.14 C 89.45 402.84 86.21 410.73 85.70 418.47 C 84.53 430.73 88.07 442.75 87.81 455.00 C 88.05 463.55 85.82 471.96 82.79 479.89 C 65.11 481.31 47.69 485.21 29.98 486.37 C 26.75 486.95 22.50 484.26 25.32 480.07 C 28.93 449.89 23.93 419.50 26.56 389.25 C 30.54 401.06 28.56 413.78 29.02 426.00 C 28.29 445.15 31.74 464.47 28.06 483.47 C 33.34 482.98 38.72 483.02 43.88 481.58 C 55.60 478.65 67.68 477.56 79.70 476.75 C 81.24 471.09 82.90 465.42 83.44 459.55 C 85.79 443.08 78.60 426.74 82.40 410.34 C 84.05 403.73 85.32 394.71 78.31 390.71 C 62.95 388.53 47.65 393.23 32.61 396.07 C 32.41 395.25 32.01 393.62 31.81 392.80 Z" />
<path fill="#222034" opacity="1.00" d=" M 112.04 389.81 C 115.45 384.30 122.64 386.72 127.87 387.18 C 145.95 390.29 166.36 386.61 182.26 397.79 C 181.83 421.55 179.02 445.22 180.10 469.03 C 179.43 471.70 181.40 477.14 177.60 478.55 C 160.95 480.68 144.03 480.53 127.31 479.57 C 120.51 478.18 123.10 469.81 122.63 464.99 C 121.60 445.76 120.51 426.53 119.82 407.29 C 119.82 401.83 118.26 396.62 117.36 391.30 C 122.48 397.56 124.11 405.58 126.04 413.21 C 125.37 411.71 124.71 410.20 124.04 408.71 C 123.77 430.91 126.79 453.02 126.29 475.21 C 142.82 476.30 159.49 476.72 175.98 474.87 C 176.06 459.62 175.59 444.37 176.45 429.15 C 177.46 419.79 178.49 410.39 178.03 400.98 C 178.04 399.46 177.10 397.94 175.54 397.65 C 166.25 395.08 156.68 393.35 147.02 393.16 C 135.26 393.18 123.71 390.88 112.04 389.81 Z" />
<path fill="#222034" opacity="1.00" d=" M 130.98 399.50 C 135.35 404.14 133.23 411.28 134.25 417.00 C 134.71 433.27 137.31 449.38 137.85 465.64 C 136.70 465.65 135.56 465.66 134.41 465.66 C 132.65 443.70 128.74 421.54 130.98 399.50 Z" />
<path fill="#222034" opacity="1.00" d=" M 49.29 405.97 C 56.71 406.96 65.44 405.85 70.86 412.14 C 77.43 419.90 76.57 430.96 75.46 440.39 C 72.82 450.02 65.36 458.40 56.16 462.27 C 52.28 463.84 47.55 464.91 43.98 462.02 C 37.61 458.64 37.64 450.24 37.80 444.02 C 36.83 430.42 41.55 417.00 49.29 405.97 M 54.45 411.47 C 50.78 412.19 48.11 415.08 46.02 417.97 C 40.37 427.57 40.32 439.25 41.04 450.00 C 41.01 453.24 41.50 457.54 44.62 459.43 C 48.64 462.49 53.41 458.88 57.38 457.42 C 72.19 450.11 76.12 429.96 68.93 416.05 C 66.32 410.78 59.54 410.24 54.45 411.47 Z" />
<path fill="#222034" opacity="1.00" d=" M 163.53 406.46 C 164.12 406.44 165.29 406.39 165.88 406.37 C 166.26 417.05 163.20 427.40 160.94 437.72 C 158.94 449.00 155.95 460.06 153.11 471.15 C 152.34 470.97 150.82 470.62 150.05 470.45 C 150.41 461.55 153.55 453.16 155.25 444.51 C 157.17 431.61 162.61 419.54 163.53 406.46 Z" />
<path fill="#222034" opacity="1.00" d=" M 196.67 424.66 C 207.02 415.20 222.33 419.15 234.86 418.57 C 241.39 418.95 248.45 416.84 254.72 419.31 C 265.66 430.37 261.67 446.62 264.19 460.46 C 256.28 463.89 247.34 462.55 238.98 463.25 C 223.60 464.27 208.41 467.40 192.99 467.97 C 189.52 468.77 189.16 463.30 188.40 461.48 C 185.57 449.00 185.85 433.39 196.67 424.66 M 192.95 436.99 C 189.13 445.62 191.92 455.23 192.95 464.17 C 214.89 462.25 236.64 458.01 258.76 458.58 C 258.23 446.51 258.39 434.15 253.44 422.88 C 241.50 423.54 229.56 423.63 217.65 422.40 C 207.63 421.71 195.42 426.18 192.95 436.99 Z" />
<path fill="#222034" opacity="1.00" d=" M 226.28 434.21 C 231.19 430.52 237.45 427.96 243.64 429.89 C 250.21 429.98 254.26 435.32 255.99 441.04 C 250.60 444.00 244.84 447.89 238.31 446.67 C 233.08 443.95 229.73 438.81 226.28 434.21 M 231.06 435.63 C 233.93 438.21 236.54 441.30 240.07 443.00 C 244.17 442.15 248.07 440.53 251.92 438.92 C 247.05 432.90 237.70 432.63 231.06 435.63 Z" />
<path fill="#222034" opacity="1.00" d=" M 214.66 431.53 C 218.20 429.22 222.15 431.13 225.63 432.32 C 220.50 436.99 215.92 442.19 211.81 447.77 C 205.70 447.32 199.59 446.99 193.48 446.64 C 193.32 445.95 192.99 444.56 192.83 443.87 C 199.86 439.31 208.02 436.69 214.66 431.53 M 202.78 442.91 C 205.36 442.83 207.95 442.76 210.54 442.68 C 212.92 439.63 215.59 436.84 218.25 434.04 C 212.97 436.79 207.89 439.87 202.78 442.91 Z" />
</g>
</svg>
