<?xml version="1.0" encoding="UTF-8" ?>
<!DOCTYPE svg PUBLIC "-//W3C//DTD SVG 1.1//EN" "http://www.w3.org/Graphics/SVG/1.1/DTD/svg11.dtd">
<svg width="94pt" height="296pt" viewBox="0 0 94 296" version="1.1" xmlns="http://www.w3.org/2000/svg">
<g id="#222034ff">
<path fill="#222034" opacity="1.00" d=" M 32.11 16.16 C 43.02 13.17 54.42 12.48 65.46 9.99 C 67.29 30.46 74.97 49.57 79.23 69.51 C 71.89 70.89 64.45 71.69 56.99 72.12 C 47.95 72.76 39.17 75.45 30.10 75.81 C 26.11 74.91 24.89 69.67 25.46 66.16 C 25.75 51.95 24.91 37.77 24.36 23.59 C 23.83 19.26 29.12 17.86 32.11 16.16 M 26.71 23.51 C 28.37 39.69 28.63 55.96 28.73 72.22 C 43.83 69.57 58.98 67.19 74.33 66.77 C 70.73 49.43 63.41 32.88 62.43 15.01 C 50.43 17.29 37.53 17.10 26.71 23.51 Z" />
<path fill="#222034" opacity="1.00" d=" M 39.19 22.87 C 40.97 22.40 42.88 21.26 44.71 22.22 C 50.71 24.56 56.30 27.85 61.69 31.34 C 64.93 33.39 65.11 37.80 65.96 41.14 C 67.96 46.27 63.67 49.50 60.81 52.79 C 57.00 56.92 52.03 60.63 46.02 60.03 C 41.34 59.19 37.68 55.67 35.20 51.79 C 29.93 45.27 31.87 35.65 36.13 29.13 C 37.82 26.29 41.13 25.30 44.00 24.12 C 42.39 23.72 40.79 23.30 39.19 22.87 M 40.08 28.06 C 32.79 36.29 32.92 51.96 44.32 56.70 C 52.21 58.98 57.95 51.86 63.50 47.79 C 62.21 42.59 64.24 34.76 57.95 32.08 C 53.03 28.14 46.23 25.66 40.08 28.06 Z" />
<path fill="#222034" opacity="1.00" d=" M 23.08 86.61 C 41.99 83.66 61.05 81.49 80.18 80.75 C 84.90 87.20 86.60 95.04 85.73 102.95 C 84.67 121.39 85.34 139.88 84.53 158.33 C 65.24 160.07 46.66 167.12 27.14 166.43 C 24.78 164.90 25.88 161.00 25.05 159.00 C 22.60 138.35 25.50 117.66 25.73 97.00 C 26.50 93.17 24.66 89.85 23.08 86.61 M 28.25 89.56 C 29.35 103.71 27.60 117.85 27.19 131.99 C 26.94 142.41 27.54 152.82 28.08 163.23 C 43.25 162.87 57.84 158.39 72.68 155.74 C 75.69 154.81 80.83 155.23 80.92 151.02 C 81.41 135.21 80.74 119.37 81.52 103.56 C 81.99 97.22 80.94 90.96 79.22 84.88 C 62.13 85.23 45.25 88.05 28.25 89.56 Z" />
<path fill="#222034" opacity="1.00" d=" M 57.33 92.37 C 63.05 91.39 69.11 92.65 73.78 96.20 C 80.57 105.55 80.48 117.95 78.86 128.90 C 77.50 140.25 69.04 149.82 58.36 153.40 C 49.14 155.76 39.54 151.35 33.34 144.68 C 29.94 141.10 31.32 135.57 31.34 131.16 C 32.84 122.95 35.97 115.10 39.39 107.52 C 42.84 100.31 48.68 92.87 57.33 92.37 M 59.37 96.41 C 51.99 97.56 44.51 101.61 41.72 108.88 C 37.54 119.20 32.50 130.08 34.41 141.56 C 36.67 146.87 43.14 148.73 48.29 149.77 C 59.83 151.95 71.39 143.10 73.83 131.95 C 76.62 122.59 76.72 112.12 72.91 103.02 C 71.30 97.25 64.58 95.58 59.37 96.41 Z" />
<path fill="#222034" opacity="1.00" d=" M 30.69 179.78 C 46.44 173.97 63.31 172.15 79.99 172.09 C 83.82 173.36 86.52 177.02 88.52 180.43 C 91.46 187.36 88.75 194.96 87.97 202.01 C 86.08 215.07 90.07 227.95 89.81 241.00 C 90.05 249.55 87.83 257.96 84.79 265.88 C 78.60 267.13 72.22 267.16 65.97 268.02 C 52.94 269.53 39.90 273.38 26.71 271.73 C 27.79 261.20 29.24 250.66 28.80 240.04 C 27.64 218.54 27.73 197.00 28.31 175.49 C 29.13 176.90 29.92 178.33 30.69 179.78 M 31.02 184.98 C 29.64 213.06 33.91 241.25 30.07 269.21 C 47.59 269.47 64.04 261.99 81.62 262.63 C 83.59 255.90 85.95 249.11 85.92 242.01 C 86.08 228.28 81.54 214.75 83.98 201.00 C 85.08 193.08 88.77 181.05 79.69 176.36 C 63.25 176.10 45.98 177.56 31.02 184.98 Z" />
<path fill="#222034" opacity="1.00" d=" M 51.28 191.97 C 58.70 192.96 67.44 191.86 72.86 198.14 C 79.43 205.90 78.56 216.96 77.47 226.39 C 74.82 236.02 67.36 244.40 58.16 248.27 C 54.28 249.84 49.55 250.92 45.98 248.02 C 39.61 244.63 39.64 236.24 39.80 230.02 C 38.82 216.41 43.57 203.02 51.28 191.97 M 56.45 197.47 C 52.78 198.19 50.12 201.08 48.02 203.97 C 42.37 213.57 42.32 225.25 43.04 236.00 C 43.01 239.25 43.50 243.53 46.62 245.43 C 50.64 248.49 55.41 244.89 59.38 243.42 C 74.19 236.10 78.12 215.97 70.93 202.05 C 68.33 196.77 61.54 196.25 56.45 197.47 Z" />
</g>
<g id="#6abe30ff">
<path fill="#6abe30" opacity="1.00" d=" M 26.71 23.51 C 37.53 17.10 50.43 17.29 62.43 15.01 C 63.41 32.88 70.73 49.43 74.33 66.77 C 58.98 67.19 43.83 69.57 28.73 72.22 C 28.63 55.96 28.37 39.69 26.71 23.51 M 39.19 22.87 C 40.79 23.30 42.39 23.72 44.00 24.12 C 41.13 25.30 37.82 26.29 36.13 29.13 C 31.87 35.65 29.93 45.27 35.20 51.79 C 37.68 55.67 41.34 59.19 46.02 60.03 C 52.03 60.63 57.00 56.92 60.81 52.79 C 63.67 49.50 67.96 46.27 65.96 41.14 C 65.11 37.80 64.93 33.39 61.69 31.34 C 56.30 27.85 50.71 24.56 44.71 22.22 C 42.88 21.26 40.97 22.40 39.19 22.87 Z" />
<path fill="#6abe30" opacity="1.00" d=" M 28.25 89.56 C 45.25 88.05 62.13 85.23 79.22 84.88 C 80.94 90.96 81.99 97.22 81.52 103.56 C 80.74 119.37 81.41 135.21 80.92 151.02 C 80.83 155.23 75.69 154.81 72.68 155.74 C 57.84 158.39 43.25 162.87 28.08 163.23 C 27.54 152.82 26.94 142.41 27.19 131.99 C 27.60 117.85 29.35 103.71 28.25 89.56 M 57.33 92.37 C 48.68 92.87 42.84 100.31 39.39 107.52 C 35.97 115.10 32.84 122.95 31.34 131.16 C 31.32 135.57 29.94 141.10 33.34 144.68 C 39.54 151.35 49.14 155.76 58.36 153.40 C 69.04 149.82 77.50 140.25 78.86 128.90 C 80.48 117.95 80.57 105.55 73.78 96.20 C 69.11 92.65 63.05 91.39 57.33 92.37 Z" />
<path fill="#6abe30" opacity="1.00" d=" M 31.02 184.98 C 45.98 177.56 63.25 176.10 79.69 176.36 C 88.77 181.05 85.08 193.08 83.98 201.00 C 81.54 214.75 86.08 228.28 85.92 242.01 C 85.95 249.11 83.59 255.90 81.62 262.63 C 64.04 261.99 47.59 269.47 30.07 269.21 C 33.91 241.25 29.64 213.06 31.02 184.98 M 51.28 191.97 C 43.57 203.02 38.82 216.41 39.80 230.02 C 39.64 236.24 39.61 244.63 45.98 248.02 C 49.55 250.92 54.28 249.84 58.16 248.27 C 67.36 244.40 74.82 236.02 77.47 226.39 C 78.56 216.96 79.43 205.90 72.86 198.14 C 67.44 191.86 58.70 192.96 51.28 191.97 Z" />
</g>
<g id="#fbf236ff">
<path fill="#fbf236" opacity="1.00" d=" M 40.08 28.06 C 46.23 25.66 53.03 28.14 57.95 32.08 C 64.24 34.76 62.21 42.59 63.50 47.79 C 57.95 51.86 52.21 58.98 44.32 56.70 C 32.92 51.96 32.79 36.29 40.08 28.06 Z" />
<path fill="#fbf236" opacity="1.00" d=" M 59.37 96.41 C 64.58 95.58 71.30 97.25 72.91 103.02 C 76.72 112.12 76.62 122.59 73.83 131.95 C 71.39 143.10 59.83 151.95 48.29 149.77 C 43.14 148.73 36.67 146.87 34.41 141.56 C 32.50 130.08 37.54 119.20 41.72 108.88 C 44.51 101.61 51.99 97.56 59.37 96.41 Z" />
<path fill="#fbf236" opacity="1.00" d=" M 56.45 197.47 C 61.54 196.25 68.33 196.77 70.93 202.05 C 78.12 215.97 74.19 236.10 59.38 243.42 C 55.41 244.89 50.64 248.49 46.62 245.43 C 43.50 243.53 43.01 239.25 43.04 236.00 C 42.32 225.25 42.37 213.57 48.02 203.97 C 50.12 201.08 52.78 198.19 56.45 197.47 Z" />
</g>
</svg>
