<?xml version="1.0" standalone="no"?>
<!DOCTYPE svg PUBLIC "-//W3C//DTD SVG 1.1//EN" "http://www.w3.org/Graphics/SVG/1.1/DTD/svg11.dtd" >
<svg xmlns="http://www.w3.org/2000/svg" xmlns:xlink="http://www.w3.org/1999/xlink" version="1.1">
<metadata>
Created by FontForge 20190801 at Thu Jul 28 22:38:41 1994
 By Jimmy Wärting
URW Software, Copyright 1994 by URW
</metadata>
<defs>
<font id="VoltaT-Regu" horiz-adv-x="1024" >
  <font-face 
    font-family="VoltaT"
    font-weight="400"
    font-stretch="normal"
    units-per-em="2048"
    panose-1="0 0 0 0 0 0 0 0 0 0"
    ascent="1564"
    descent="-484"
    x-height="936"
    cap-height="1365"
    bbox="-402 -512 2653 1877"
    underline-thickness="116"
    underline-position="-258"
    unicode-range="U+0020-F002"
  />
<missing-glyph horiz-adv-x="614" 
d="M61 0v1365h492v-1365h-492zM492 61v1243h-370v-1243h370z" />
    <glyph glyph-name=".notdef" horiz-adv-x="614" 
d="M61 0v1365h492v-1365h-492zM492 61v1243h-370v-1243h370z" />
    <glyph glyph-name="glyph1" horiz-adv-x="0" 
 />
    <glyph glyph-name="glyph2" horiz-adv-x="614" 
 />
    <glyph glyph-name="space" unicode=" " horiz-adv-x="614" 
 />
    <glyph glyph-name="exclam" unicode="!" horiz-adv-x="774" 
d="M342 322v30q-2 183 -69 677q-7 54 -7 96q0 71 37 116q30 37 89 37q50 0 84 -38q38 -43 38 -111q0 -45 -32 -252q-51 -376 -63 -526v-29h-77zM377 215q48 0 82 -33q35 -34 35 -83q0 -48 -32 -82q-36 -36 -86 -36q-49 0 -83 34q-33 33 -33 83t31 82q33 35 86 35z" />
    <glyph glyph-name="quotedbl" unicode="&#x22;" horiz-adv-x="705" 
d="M258 819h-134l-30 546h194zM580 819h-134l-30 546h194z" />
    <glyph glyph-name="numbersign" unicode="#" horiz-adv-x="1251" 
d="M804 469l-56 -400h-94l56 400h-235l-57 -400h-94l56 400h-249l13 90h249l32 226h-250l13 91h250l51 368h94l-51 -368h236l51 368h94l-52 -368h258l-13 -91h-257l-32 -226h257l-12 -90h-258zM755 785h-236l-32 -226h236z" />
    <glyph glyph-name="dollar" unicode="$" horiz-adv-x="1423" 
d="M760 726l128 -11q187 -18 290 -115q102 -97 102 -235q0 -190 -179 -306q-152 -98 -316 -98q-5 0 -25 1v-169h-102v172q-114 32 -195 63q-116 44 -152 44q-66 0 -70 -72h-80v444h80q24 -151 129 -247q113 -100 288 -126v455l-91 10q-225 24 -311 88q-114 84 -114 232
q0 89 44.5 168.5t124.5 132.5q145 97 315 97q11 0 33 -1v159h101v-167q99 -22 178 -50q60 -21 104 -21q46 0 49 57h88v-391h-88q-5 102 -107 194q-83 72 -224 103v-411zM658 1147q-24 1 -38 1q-103 0 -189 -56q-107 -69 -107 -175q0 -75 68 -123q45 -31 162 -46l104 -13v412
zM760 70q98 9 161 38q81 36 127.5 97.5t46.5 132.5q0 85 -84 137q-43 27 -179 41l-72 7v-453z" />
    <glyph glyph-name="percent" unicode="%" horiz-adv-x="1715" 
d="M397 1259q153 0 247 -101q83 -89 83 -222q0 -172 -127 -261q-84 -59 -209 -59q-147 0 -236 81q-100 91 -100 242q0 150 107 242q90 78 235 78zM392 1190q-104 0 -163 -102q-34 -60 -34 -145q0 -123 65 -197q53 -59 136 -59q96 0 151 80q49 70 49 178q0 98 -47 163
q-59 82 -157 82zM1376 1238l-955 -1291l-82 63l956 1291zM1330 633q153 0 248 -101q83 -89 83 -222q0 -172 -128 -261q-83 -59 -208 -59q-148 0 -237 81q-100 91 -100 242q0 150 107 242q90 78 235 78zM1325 564q-104 0 -163 -102q-34 -60 -34 -145q0 -123 66 -197
q52 -59 135 -59q97 0 152 80q49 71 49 178q0 98 -47 163q-59 82 -158 82z" />
    <glyph glyph-name="ampersand" unicode="&#x26;" horiz-adv-x="1666" 
d="M1549 356q1 -40 1 -59q0 -193 -80 -272q-66 -64 -153 -64q-171 0 -337 138q-220 -138 -427 -138q-164 0 -288 85q-70 49 -109 121t-39 153q0 239 336 382q-48 89 -48 192q0 181 94 270q78 74 178 74q109 0 179 -81q58 -66 58 -156q0 -135 -136 -237q-51 -38 -122 -81
q130 -205 357 -399q132 167 132 250q0 41 -39 60q-17 8 -108 9q-28 0 -48 1v98h564v-98q-136 0 -178 -28q-25 -16 -51 -59q-2 -2 -81 -146q-56 -103 -99 -152q52 -38 85 -57q75 -43 139 -43q90 0 113 93q10 41 17 144h90zM602 782q80 46 122 86q64 60 64 139q0 47 -30 83
q-35 43 -87 43q-70 0 -112 -63q-26 -39 -26 -85q0 -68 34 -146q6 -14 19.5 -36t15.5 -21zM871 173q-69 52 -207 203q-59 68 -120 159q-26 40 -40 60q-194 -98 -194 -255q0 -112 105 -185q84 -58 201 -58q108 0 255 76z" />
    <glyph glyph-name="quotesingle" unicode="'" horiz-adv-x="388" 
d="M263 819h-139l-30 546h199z" />
    <glyph glyph-name="parenleft" unicode="(" horiz-adv-x="801" 
d="M664 1386v-103q-125 -24 -216 -103q-89 -77 -123 -194q-39 -135 -39 -448q0 -329 58 -449q91 -186 320 -250v-102q-180 12 -315 114q-113 85 -177 240q-62 151 -62 464q0 353 86 529q133 271 468 302z" />
    <glyph glyph-name="parenright" unicode=")" horiz-adv-x="801" 
d="M137 1386q176 -16 298 -101q127 -87 190 -246q30 -78 48 -208.5t18 -274.5q0 -338 -77 -499q-93 -192 -275 -271q-99 -42 -202 -49v102q151 42 241 136q77 81 105 183q32 116 32 379q0 314 -39 449q-50 173 -218 257q-54 27 -121 40v103z" />
    <glyph glyph-name="asterisk" unicode="*" horiz-adv-x="1240" 
d="M648 1011l190 113q36 21 54 30q27 14 58 14q47 0 74 -41q18 -27 18 -58q0 -42 -27 -68q-18 -18 -43 -23q-29 -5 -84 -9l-223 -17l171 -139q49 -40 69 -74q11 -19 11 -47q0 -34 -19 -63q-25 -36 -73 -36q-52 0 -84 46q-19 26 -37 70l-86 207l-87 -224q-41 -106 -113 -106
q-51 0 -80 45q-16 25 -16 55q0 61 66 116l181 150l-249 20q-67 5 -91 28q-29 28 -29 71q0 35 19 62q26 37 70 37q38 0 87 -30l210 -129l-56 242q-6 27 -6 53q0 28 14 50q28 48 86 48q51 0 77 -44q13 -21 13 -51q0 -29 -8 -61z" />
    <glyph glyph-name="plus" unicode="+" 
d="M44 750h419v396h98v-396h420v-94h-420v-397h-98v397h-419v94z" />
    <glyph glyph-name="comma" unicode="," horiz-adv-x="604" 
d="M177 -197q60 37 100 92q39 57 43 113q-19 -8 -35 -8q-29 0 -53 13q-50 27 -50 89q0 47 30 78q34 35 88 35q67 0 104 -56q23 -36 23 -87q0 -57 -22 -117.5t-58 -103.5q-46 -53 -133 -109z" />
    <glyph glyph-name="hyphen" unicode="-" horiz-adv-x="503" 
d="M503 547v-137h-503v137h503z" />
    <glyph glyph-name="period" unicode="." horiz-adv-x="604" 
d="M302 215q48 0 82 -33q35 -34 35 -83q0 -48 -33 -82q-35 -36 -85 -36q-49 0 -83 34q-33 33 -33 83t31 82q34 35 86 35z" />
    <glyph glyph-name="slash" unicode="/" horiz-adv-x="843" 
d="M754 1365l-587 -1607h-146l594 1607h139z" />
    <glyph glyph-name="zero" unicode="0" horiz-adv-x="1423" 
d="M727 1278q284 0 467 -208q159 -182 159 -450q0 -148 -52.5 -274.5t-150.5 -214.5q-178 -160 -439 -160q-289 0 -471 198q-171 188 -171 461q0 135 51.5 258t145.5 216q177 174 461 174zM704 1172q-215 0 -334 -221q-74 -139 -74 -326q0 -243 120 -396q120 -154 302 -154
q209 0 325 203q83 146 83 350q0 223 -115 384q-114 160 -307 160z" />
    <glyph glyph-name="one" unicode="1" horiz-adv-x="1423" 
d="M815 1278v-928q1 -158 12 -180q31 -70 184 -72h41v-98h-681v98h51q72 0 106 6.5t57 24.5q30 24 36 66q7 34 7 153v510q-1 92 -20 123q-36 64 -190 64h-18v105h20q229 -3 306 128h89z" />
    <glyph glyph-name="two" unicode="2" horiz-adv-x="1423" 
d="M1186 358v-358h-986q17 188 100 299q68 92 347 219q143 63 221 115q61 41 100 117q31 58 31 125q0 143 -118 227q-83 59 -207 59q-154 0 -243 -81q-53 -49 -65 -142q28 4 46 4q47 0 79 -32q33 -32 33 -84q0 -58 -42 -96q-35 -32 -90 -32q-81 0 -130 63q-43 55 -43 142
q0 79 37.5 151t104.5 119q146 104 363 104q204 0 341 -101q158 -116 158 -302q0 -204 -176 -325q-77 -52 -321 -137q-218 -76 -288 -133q-49 -40 -72 -113h508q128 1 166 43q46 46 46 130v19h100z" />
    <glyph glyph-name="three" unicode="3" horiz-adv-x="1423" 
d="M506 702h161q164 0 240 46q106 64 106 183q0 125 -126 194q-89 50 -205 50q-115 0 -221 -50q-51 -24 -92 -66q98 -23 98 -113q0 -55 -38 -90q-34 -32 -84 -32q-56 0 -95 40q-37 37 -37 94q0 95 84 176q83 80 224 118q93 25 192 25q207 0 359 -86q79 -44 127 -128
q35 -63 35 -131q0 -108 -79 -181q-67 -61 -240 -92q109 -22 171 -56q83 -44 133 -120q46 -72 46 -156q0 -172 -188 -271q-160 -85 -366 -85q-217 0 -383 82q-80 39 -124.5 100.5t-44.5 131.5q0 62 38 101q37 39 98 39q64 0 101 -43q29 -35 29 -84q0 -99 -97 -117
q56 -44 107 -66q88 -37 206 -37q190 0 294 83q93 74 93 196q0 67 -31 121t-85 82q-87 45 -285 45h-121v97z" />
    <glyph glyph-name="four" unicode="4" horiz-adv-x="1423" 
d="M1030 1278v-800h238v-98h-238v-38q0 -95 13 -143t45 -70q41 -31 136 -31h25v-98h-644v98h26q112 1 152 25q39 22 50 60q15 43 15 158v39h-693v112l788 786h87zM848 1047l-560 -569h560v569z" />
    <glyph glyph-name="five" unicode="5" horiz-adv-x="1423" 
d="M1120 1248v-165h-739v-335q149 116 366 116q215 0 350 -119q143 -124 143 -322q0 -229 -182 -353q-144 -99 -372 -99q-236 0 -375 113q-127 103 -127 235q0 64 43 105q39 37 99 37q59 0 98 -36q35 -31 35 -85q0 -73 -58 -108q-26 -16 -62 -18q35 -57 96 -88
q94 -46 209 -46q173 0 280 100q107 99 107 241q0 148 -114 246q-103 89 -233 89q-121 0 -226 -62q-35 -20 -66 -56h-109v610h837z" />
    <glyph glyph-name="six" unicode="6" horiz-adv-x="1423" 
d="M339 633q178 234 440 234q102 0 200.5 -37t174.5 -102q140 -122 140 -298q0 -143 -90 -259q-75 -97 -198 -148.5t-280 -51.5q-296 0 -448 177q-71 83 -110 197t-39 239q0 159 58 298t164 233q182 163 441 163q175 0 305 -72q86 -47 120 -116q20 -41 20 -77q0 -59 -42 -98
q-34 -33 -85 -33q-52 0 -88 33q-38 36 -38 89q0 57 50 90q-106 81 -243 81q-219 0 -350 -186q-102 -143 -102 -356zM729 741q-160 0 -275 -109q-94 -88 -94 -215q0 -150 116 -251q105 -91 246 -91q153 0 263 107q104 101 104 242q0 144 -121 241q-95 76 -239 76z" />
    <glyph glyph-name="seven" unicode="7" horiz-adv-x="1423" 
d="M1211 1248v-112q-131 -146 -193 -247q-119 -196 -155 -324q-34 -120 -35 -334v-88q0 -172 -132 -172q-59 0 -94 38q-38 41 -38 120q0 151 102 370q68 145 173 310q69 110 202 277h-493q-84 0 -131 -15.5t-71 -50.5q-25 -41 -27 -125h-107v353h999z" />
    <glyph glyph-name="eight" unicode="8" horiz-adv-x="1423" 
d="M505 646q-125 27 -193 66q-136 77 -136 220q0 126 104 222q135 124 410 124q245 0 403 -90q74 -42 122 -117q45 -70 45 -146q0 -68 -36.5 -128t-100.5 -96q-60 -35 -167 -51q99 -18 162 -51q84 -43 130.5 -109.5t46.5 -142.5q0 -179 -200 -288q-162 -88 -372 -88
q-206 0 -378 79q-217 99 -217 294q0 117 87 198q69 65 182 89q35 7 108 15zM700 1174q-133 0 -220 -51q-109 -65 -109 -187q0 -135 129 -204q76 -40 205 -40q172 0 257 61q99 71 99 173q0 51 -31.5 102t-86.5 87q-87 59 -243 59zM705 583q-152 0 -255 -63
q-105 -64 -105 -167q0 -129 134 -211q101 -62 239 -62q152 0 256 72q108 74 108 190q0 126 -142 195q-95 46 -235 46z" />
    <glyph glyph-name="nine" unicode="9" horiz-adv-x="1423" 
d="M1084 616q-178 -235 -441 -235q-101 0 -199.5 37t-174.5 102q-140 123 -140 299q0 143 90 259q72 92 173 137q141 63 305 63q295 0 448 -177q71 -83 110 -197t39 -239q0 -159 -58 -298t-164 -233q-182 -163 -441 -163q-174 0 -305 72q-86 47 -120 116q-20 41 -20 77
q0 58 42 98q34 33 85 33q52 0 88 -34q38 -35 38 -88q0 -57 -50 -91q106 -80 242 -80q220 0 351 185q102 143 102 357zM698 1184q-148 0 -261 -109q-103 -99 -103 -242q0 -155 121 -250q97 -76 232 -76q168 0 283 108q93 88 93 222q0 146 -115 253q-102 94 -250 94z" />
    <glyph glyph-name="colon" unicode=":" horiz-adv-x="604" 
d="M302 215q48 0 82 -33q35 -34 35 -83q0 -48 -33 -82q-35 -36 -85 -36q-49 0 -83 34q-33 33 -33 83t31 82q34 35 86 35zM302 897q48 0 82 -33q35 -34 35 -83q0 -48 -33 -82q-35 -36 -85 -36q-49 0 -83 34q-33 33 -33 83t31 82q34 35 86 35z" />
    <glyph glyph-name="semicolon" unicode=";" horiz-adv-x="604" 
d="M177 -197q60 37 100 92q39 57 43 113q-19 -8 -35 -8q-29 0 -53 13q-50 27 -50 89q0 47 30 78q34 35 88 35q67 0 104 -56q23 -36 23 -87q0 -57 -22 -117.5t-58 -103.5q-46 -53 -133 -109zM302 897q47 0 82 -33t35 -83q0 -48 -33 -82q-35 -36 -85 -36q-49 0 -83 34
q-33 33 -33 83q0 51 31 82q34 35 86 35z" />
    <glyph glyph-name="less" unicode="&#x3c;" 
d="M955 1190v-180l-694 -324l694 -323v-180l-887 426v156z" />
    <glyph glyph-name="equal" unicode="=" 
d="M43 894h937v-92h-937v92zM43 603h937v-92h-937v92z" />
    <glyph glyph-name="greater" unicode="&#x3e;" 
d="M69 183v181l694 323l-694 324v179l887 -426v-155z" />
    <glyph glyph-name="question" unicode="?" horiz-adv-x="1318" 
d="M558 319q-2 88 23 155q18 52 47 88q36 47 101 107q81 75 124 138q37 55 37 129q0 112 -98 182q-69 49 -183 49q-179 0 -252 -105q30 -10 48 -39t18 -69q0 -46 -26 -79q-32 -42 -87 -42q-57 0 -92 43q-39 46 -39 112q0 159 212 246q109 45 246 45q161 0 298 -64
q203 -95 203 -278q0 -104 -59 -176q-59 -71 -162 -135q-137 -85 -163 -109q-67 -58 -82 -138q-3 -18 -6 -60h-108zM620 215q48 0 82 -33q35 -34 35 -83q0 -48 -32 -82q-36 -36 -86 -36q-49 0 -83 34q-33 33 -33 83t31 82q33 35 86 35z" />
    <glyph glyph-name="at" unicode="@" horiz-adv-x="1408" 
d="M1247 343h77q-53 -118 -159 -203q-193 -156 -434 -156q-156 0 -295 67t-234 189q-145 184 -145 420q0 149 59 282.5t167 230.5q195 173 459 173q131 0 251.5 -49t207.5 -138q151 -154 151 -373q0 -234 -177 -380q-126 -104 -250 -104q-77 0 -118 54q-15 19 -21 56
q-107 -108 -222 -108q-106 0 -170 88q-44 61 -44 158q0 157 96 296q125 182 289 182q132 0 188 -127l35 95h98l-164 -482q-19 -54 -19 -83q0 -69 76 -69q100 0 201 101q131 132 131 319q0 224 -171 368q-155 130 -367 130q-133 0 -253 -53.5t-206 -151.5
q-152 -172 -152 -414q0 -252 169 -426q177 -183 433 -183q207 0 379 135q82 65 134 156zM811 588l47 129q25 70 25 111q0 40 -18 73q-37 66 -107 66q-103 0 -195 -126q-53 -72 -82 -168q-24 -79 -24 -152q0 -67 29 -109q34 -49 96 -49q80 0 143 66q47 49 86 159z" />
    <glyph glyph-name="A" unicode="A" horiz-adv-x="1831" 
d="M531 488l-93 -178q-30 -57 -30 -93q0 -38 40 -74t147 -36h69v-107h-703v107h60q132 2 207 96q64 79 145 223l503 939h77l548 -1010q59 -108 83 -138q53 -64 108 -90q41 -19 114 -20h64v-107h-791v107h68q184 0 184 99q0 41 -27 93l-99 189h-674zM584 585h568l-283 555z
" />
    <glyph glyph-name="B" unicode="B" horiz-adv-x="1614" 
d="M1173 708q123 -23 190 -67q155 -101 155 -294q0 -149 -107 -247q-110 -100 -296 -100h-1045v107h44q114 1 173 35q54 31 63 91q3 14 3 63v773q0 73 -18 106q-48 82 -221 83h-44v107h838q243 0 346 -38q102 -37 164 -115q71 -88 71 -190q0 -137 -141 -238
q-71 -51 -175 -76zM554 761h324q162 0 268 50q63 29 100 94q26 45 26 95q0 128 -115 206q-76 52 -249 52h-354v-497zM554 107h296q158 0 218 10q127 20 185 104q47 67 47 155q0 136 -99 207q-97 71 -260 71h-387v-547z" />
    <glyph glyph-name="C" unicode="C" horiz-adv-x="1588" 
d="M1392 1377h97v-505h-92q-25 160 -95 243q-62 74 -165 121q-127 57 -266 57q-266 0 -419 -190q-150 -185 -150 -410q0 -122 49.5 -239t136.5 -203q155 -153 373 -153q158 0 302 88q101 62 163 153q22 33 53 100h131q-42 -146 -136 -247q-216 -231 -547 -231
q-160 0 -302.5 55.5t-243.5 157.5q-200 202 -200 515q0 330 228 533q205 182 504 182q112 0 202 -24q67 -18 202 -64q52 -18 86 -18q37 0 60 20.5t29 58.5z" />
    <glyph glyph-name="D" unicode="D" horiz-adv-x="1750" 
d="M353 296v773q0 73 -18 106q-47 82 -221 83h-44v107h848q270 0 432 -105q171 -109 256 -291q63 -135 63 -287q0 -283 -207 -486q-200 -196 -489 -196h-903v107h44q114 1 173 35q54 31 63 91q3 14 3 63zM554 107h221q161 0 275.5 34t201.5 108q185 157 185 431
q0 250 -159 409q-99 101 -228 135q-127 34 -283 34h-213v-1151z" />
    <glyph glyph-name="E" unicode="E" horiz-adv-x="1587" 
d="M552 107h448q92 0 132.5 8t73.5 32q84 63 113 203q12 59 23 172h97v-522h-1369v107h44q114 1 173 35q54 31 63 91q3 14 3 63v773q0 73 -18 106q-47 82 -221 83h-44v107h1369v-473h-97q-11 150 -34 203q-41 104 -135 140q-63 23 -170 23h-451v-502h215q119 1 164 93
q22 45 27 96q4 42 5 102h98v-707h-98q-2 118 -12 158q-23 96 -72 130q-36 25 -112 26h-215v-547z" />
    <glyph glyph-name="F" unicode="F" horiz-adv-x="1470" 
d="M543 654v-358q0 -73 18 -106q47 -82 221 -83h44v-107h-764v107h44q114 1 173 35q54 31 63 91q3 14 3 63v773q0 73 -18 106q-47 82 -221 83h-44v107h1346v-473h-98q0 144 -18 197q-35 108 -127 145q-59 24 -170 24h-452v-502h216q185 -2 197 301h97v-717h-97
q-6 120 -18 162q-39 148 -179 152h-216z" />
    <glyph glyph-name="G" unicode="G" horiz-adv-x="1742" 
d="M1297 178q-75 -80 -145 -121q-165 -96 -364 -96q-298 0 -506 215q-201 209 -201 512q0 283 172 480q206 236 540 236q110 0 223 -26q43 -10 144 -45q56 -19 87 -19q71 0 76 71h98v-511h-98q-8 112 -48 188q-59 109 -172 173q-119 66 -258 66q-260 0 -412 -207
q-122 -165 -122 -390q0 -263 162 -438q78 -84 179 -131t204 -47q149 0 266 95q112 91 112 195q0 30 -21.5 62t-49.5 44q-52 22 -181 22h-30v98h756v-98h-24q-110 0 -141 -10q-77 -23 -101 -94q-15 -42 -15 -118v-282h-58z" />
    <glyph glyph-name="H" unicode="H" horiz-adv-x="1969" 
d="M558 654v-358q0 -73 18 -106q47 -82 221 -83h44v-107h-771v107h44q114 1 173 35q54 31 63 91q3 14 3 63v773q0 73 -18 106q-48 82 -221 83h-44v107h771v-107h-44q-115 -1 -173 -35q-54 -31 -63 -90q-3 -14 -3 -64v-313h851v313q0 73 -18 106q-48 82 -221 83h-44v107h773
v-107h-44q-115 -1 -173 -35q-54 -31 -63 -90q-3 -14 -3 -64v-773q0 -73 18 -106q47 -82 221 -83h44v-107h-773v107h44q114 1 173 35q54 31 63 91q3 14 3 63v358h-851z" />
    <glyph glyph-name="I" unicode="I" horiz-adv-x="941" 
d="M368 296v773q0 73 -18 106q-48 82 -221 83h-44v107h771v-107h-44q-115 -1 -173 -35q-54 -31 -63 -90q-3 -14 -3 -64v-773q0 -73 18 -106q47 -82 221 -83h44v-107h-771v107h44q114 1 173 35q54 31 63 91q3 14 3 63z" />
    <glyph glyph-name="J" unicode="J" horiz-adv-x="1095" 
d="M210 141q56 -80 159 -80q106 0 162 90q41 65 41 200v718q0 73 -18 106q-48 82 -221 83h-44v107h769v-107h-44q-115 -1 -173 -35q-54 -31 -63 -90q-3 -14 -3 -64v-745q0 -207 -151 -297q-111 -66 -248 -66q-82 0 -156 26.5t-119 71.5q-71 72 -71 174q0 69 40 107
q40 37 91 37q53 0 93 -37q36 -33 36 -82q0 -52 -28 -81q-15 -16 -52 -36z" />
    <glyph glyph-name="K" unicode="K" horiz-adv-x="1879" 
d="M898 743l-339 -249v-198q0 -73 18 -106q47 -82 221 -83h44v-107h-772v107h44q114 1 173 35q54 31 63 91q3 14 3 63v773q0 73 -18 106q-48 82 -221 83h-44v107h772v-107h-44q-115 -1 -173 -35q-54 -31 -63 -90q-3 -14 -3 -64v-444l654 463q100 71 100 107q0 48 -86 59
q-16 2 -77 4h-39v107h674v-107h-30q-115 0 -254 -95l-443 -314l431 -527q111 -134 169 -171q63 -43 145 -44h27v-107h-719v107h39q163 0 163 67q0 31 -51 97z" />
    <glyph glyph-name="L" unicode="L" horiz-adv-x="1433" 
d="M553 107h385q218 2 285 175q23 66 42 240h98v-522h-1293v107h44q114 1 173 35q54 31 63 91q3 14 3 63v773q0 73 -18 106q-48 82 -221 83h-44v107h785v-107h-63q-115 -1 -173 -35q-54 -31 -63 -90q-3 -14 -3 -64v-962z" />
    <glyph glyph-name="M" unicode="M" horiz-adv-x="2282" 
d="M1151 245l538 1120h523v-107h-44q-115 -1 -173 -35q-54 -31 -63 -90q-3 -14 -3 -64v-773q0 -73 18 -106q47 -82 221 -83h44v-107h-774v107h44q114 1 173 35q54 31 63 91q3 14 3 63v899l-570 -1195h-101l-584 1195v-899q0 -73 18 -106q47 -82 221 -83h44v-107h-679v107h44
q114 1 173 35q54 31 63 91q3 14 3 63v773q0 73 -18 106q-47 82 -221 83h-44v107h535z" />
    <glyph glyph-name="N" unicode="N" horiz-adv-x="1989" 
d="M459 1151v-855q0 -73 18 -106q47 -82 221 -83h44v-107h-679v107h44q114 1 173 35q54 31 63 91q3 14 3 63v773q0 73 -18 106q-48 82 -221 83h-44v107h463l1006 -1046v750q0 74 -18 106q-47 82 -221 83h-44v107h677v-107h-44q-115 -1 -173 -35q-54 -31 -63 -90
q-3 -14 -3 -64v-1088h-67z" />
    <glyph glyph-name="O" unicode="O" horiz-adv-x="1782" 
d="M914 1404q152 0 296 -51.5t251 -143.5q140 -120 202 -289q40 -111 40 -230q0 -253 -161 -447q-139 -168 -356 -239q-132 -43 -290 -43q-333 0 -548 169q-151 119 -223 310q-45 120 -45 242q0 212 122 393q131 195 393 280q151 49 319 49zM885 1287q-116 0 -227.5 -55
t-192.5 -152q-144 -172 -144 -399q0 -115 41 -226t114 -194q84 -94 201 -144q103 -45 212 -45q113 0 220.5 47.5t186.5 132.5q78 84 122 197.5t44 233.5q0 112 -37.5 218t-105.5 184q-83 97 -196 149.5t-238 52.5z" />
    <glyph glyph-name="P" unicode="P" horiz-adv-x="1395" 
d="M553 654v-358q0 -73 18 -106q47 -82 221 -83h63v-107h-785v107h44q114 1 173 35q54 31 63 91q3 14 3 63v773q0 73 -18 106q-48 82 -221 83h-44v107h835q257 0 364 -117q93 -102 93 -235q0 -82 -37 -156.5t-102 -124.5q-102 -78 -324 -78h-346zM553 761h293q148 0 229 75
q68 64 68 171q0 118 -85 189q-75 62 -219 62h-286v-497z" />
    <glyph glyph-name="Q" unicode="Q" horiz-adv-x="1782" 
d="M1059 -22q-127 -17 -197 -17q-127 0 -264 48t-245 131q-272 209 -272 546q0 152 63.5 289t182.5 240q218 189 548 189q198 0 360.5 -63.5t275.5 -184.5q102 -111 152 -257q38 -110 38 -218q0 -218 -136 -408q-88 -124 -223 -197q-40 -22 -120 -56q48 -78 75 -105
q46 -47 96 -47q82 0 122 85q16 33 22 109h97q-3 -80 -17 -126.5t-50 -93.5q-76 -99 -196 -99q-110 0 -200 79q-49 43 -112 156zM613 139q29 118 74 164q66 68 164 68q110 0 201 -82q45 -40 105 -144q99 58 160 132q145 178 145 402q0 251 -167 431q-164 177 -405 177
q-135 0 -255 -61t-200 -170q-118 -159 -118 -371q0 -167 74.5 -304.5t221.5 -241.5zM701 103q90 -29 182 -29q41 0 107 10q-37 76 -61 105q-49 57 -111 57q-104 0 -117 -143z" />
    <glyph glyph-name="R" unicode="R" horiz-adv-x="1729" 
d="M1139 696q96 -17 133 -48q57 -44 79 -124q16 -59 19 -186q3 -141 24 -188q25 -58 80 -58q69 0 95 86q17 57 21 185h111q-1 -112 -10 -166q-22 -123 -97 -183q-66 -53 -165 -53q-155 0 -219 119q-31 58 -37 122q-7 71 -7 186q-2 160 -71 216q-59 49 -179 50h-362v-358
q0 -73 18 -106q47 -82 221 -83h44v-107h-767v107h44q114 1 173 35q54 31 63 91q3 14 3 63v773q0 73 -18 106q-48 82 -221 83h-44v107h919q266 0 386 -103q108 -93 108 -231q0 -168 -152 -262q-67 -42 -192 -73zM554 761h357q144 0 240 53q119 66 119 195q0 67 -37.5 124
t-103.5 89q-73 36 -234 36h-341v-497z" />
    <glyph glyph-name="S" unicode="S" horiz-adv-x="1477" 
d="M97 0v504h97q29 -150 84 -216q85 -103 263 -165q135 -47 257 -47q174 0 301 90q106 75 106 194q0 113 -94 179q-55 38 -165 47l-298 25q-207 17 -283 40q-137 40 -204 153q-52 88 -52 188q0 198 178 314q151 98 365 98q201 0 343 -65q110 -49 158 -49q32 0 48 28
q6 11 14 47h97v-428h-97q-17 71 -34 109.5t-48 70.5q-82 87 -230 135q-115 37 -232 37q-155 0 -256 -70q-117 -80 -117 -197q0 -100 103 -152q45 -23 171 -33l285 -22q205 -16 284 -48q134 -54 204 -170q55 -93 55 -200q0 -129 -77 -238q-72 -102 -220 -155
q-123 -43 -262 -43q-202 0 -381 77q-125 53 -184 53q-18 0 -38.5 -10.5t-29.5 -24.5q-13 -19 -14 -56h-97z" />
    <glyph glyph-name="T" unicode="T" horiz-adv-x="1556" 
d="M48 1365h1459v-473h-97q0 154 -25 216q-59 148 -241 150h-262v-962q0 -73 18 -106q47 -82 221 -83h44v-107h-770v107h44q114 1 173 35q54 31 63 91q3 14 3 63v962h-234q-74 0 -136 -23t-93 -62q-47 -56 -60 -154q-6 -53 -10 -127h-97v473z" />
    <glyph glyph-name="U" unicode="U" horiz-adv-x="1942" 
d="M536 1069v-553q0 -222 156 -345q117 -93 321 -93q220 0 348 106q124 104 124 296v589q0 73 -18 106q-48 82 -221 83h-44v107h693v-107h-44q-115 -1 -173 -35q-54 -31 -63 -90q-3 -14 -3 -64v-589q0 -274 -180 -403q-162 -116 -446 -116q-291 0 -469 130
q-187 138 -187 407v571q0 73 -18 106q-48 82 -221 83h-44v107h772v-107h-44q-115 -1 -173 -35q-54 -31 -63 -90q-3 -13 -3 -64z" />
    <glyph glyph-name="V" unicode="V" horiz-adv-x="1879" 
d="M1004 237l376 729q59 113 59 188q0 104 -153 104h-94v107h699v-107h-65q-117 -1 -196 -89q-41 -43 -107 -168l-530 -1001h-88l-549 1000q-74 135 -119 183q-64 73 -184 75h-65v107h801v-107h-78q-102 0 -136 -24q-41 -30 -41 -66q0 -56 69 -184z" />
    <glyph glyph-name="W" unicode="W" horiz-adv-x="2648" 
d="M1338 1075l-450 -1075h-93l-418 977q-65 150 -91 185q-51 68 -138 86q-50 10 -110 10h-43v107h826v-107h-51q-101 0 -152 -10q-37 -8 -60 -29.5t-23 -48.5q0 -55 40 -149l313 -736l450 1080h83l460 -1080l304 729q37 89 37 146q0 29 -22.5 52.5t-59.5 33.5
q-48 12 -162 12h-36v107h711v-107h-48q-124 0 -188 -50q-59 -44 -121 -193l-415 -1015h-88z" />
    <glyph glyph-name="X" unicode="X" horiz-adv-x="1789" 
d="M844 604l-233 -245q-48 -50 -79 -94q-26 -37 -26 -78q0 -80 151 -80h38v-107h-647v107h34q69 0 158 58q103 70 373 353l152 160l-400 420q-93 96 -144 122q-72 38 -143 38h-30v107h717v-107h-48q-66 0 -90 -12q-35 -17 -35 -52q0 -57 62 -120l255 -257l225 232
q84 87 84 145q0 46 -57 58q-30 6 -91 6h-30v107h649v-107h-33q-66 0 -115 -16t-105 -55q-77 -54 -141 -120l-318 -325l462 -473q98 -99 137 -121q73 -41 146 -41h28v-107h-744v107h47q80 0 109 12q47 20 47 54q0 38 -49 94q-37 43 -69 76z" />
    <glyph glyph-name="Y" unicode="Y" horiz-adv-x="1705" 
d="M895 686l273 371q22 30 33 49q17 28 17 62q0 53 -48 72q-47 18 -139 18h-37v107h673v-107h-34q-95 0 -169 -42q-82 -45 -168 -164l-342 -467v-289q0 -73 18 -106q47 -82 221 -83h44v-107h-771v107h44q114 1 173 35q54 31 63 91q3 14 3 63v289l-378 525q-73 99 -128 122
q-60 26 -160 26h-44v107h778v-107h-64q-163 0 -163 -85q0 -34 19 -62l39 -55z" />
    <glyph glyph-name="Z" unicode="Z" horiz-adv-x="1445" 
d="M347 107h620q111 1 162 36q73 49 110 155q21 57 38 199h98v-497h-1305v97l985 1161h-543q-192 -2 -264 -104q-32 -45 -44 -131q-4 -27 -8 -121h-98v463h1230v-97z" />
    <glyph glyph-name="bracketleft" unicode="[" horiz-adv-x="801" 
d="M618 1365v-89h-258v-1423h258v-95h-415v1607h415z" />
    <glyph glyph-name="backslash" unicode="\" horiz-adv-x="843" 
d="M89 1365h139l594 -1607h-146z" />
    <glyph glyph-name="bracketright" unicode="]" horiz-adv-x="801" 
d="M184 -242v89h258v1423h-258v95h415v-1607h-415z" />
    <glyph glyph-name="asciicircum" unicode="^" 
d="M228 759h-168l350 610h205l350 -610h-169l-285 486z" />
    <glyph glyph-name="underscore" unicode="_" 
d="M0 -142h1024v-116h-1024v116z" />
    <glyph glyph-name="grave" unicode="`" 
d="M246 1376h237l159 -273h-159z" />
    <glyph glyph-name="a" unicode="a" horiz-adv-x="1251" 
d="M799 209q-45 -86 -114 -139q-128 -99 -290 -99q-151 0 -232 77q-79 76 -79 182q0 148 150 225q89 46 193 73l182 46q91 23 126 43q60 34 60 91q0 79 -90 128q-67 36 -153 36q-128 0 -201 -76q44 -32 44 -73q0 -46 -35 -79t-83 -33q-52 0 -86 34q-38 39 -38 98
q0 116 132 172q120 50 274 50q171 0 279 -66q70 -43 100.5 -117.5t30.5 -200.5v-322q0 -98 14 -123q20 -38 67 -38q53 0 73 49q15 39 15 139v92h88v-152q0 -120 -56 -184q-63 -71 -167 -71q-114 0 -172 92q-32 51 -32 121v25zM799 570q-25 -36 -57 -55q-44 -25 -192 -69
q-154 -45 -212 -100q-51 -48 -51 -110q0 -73 60 -114q40 -27 94 -27q143 0 256 106q94 89 97 201z" />
    <glyph glyph-name="b" unicode="b" horiz-adv-x="1250" 
d="M358 752q44 84 109 131q113 82 254 82q140 0 259 -80q109 -74 158 -207q35 -94 35 -201q0 -205 -108 -346q-124 -160 -336 -160q-122 0 -224 61q-55 33 -90 73q-23 26 -57 75l-58 -180h-110v1097q0 80 -15 109q-31 62 -125 62h-17v97h325v-613zM665 854q-65 0 -127 -33
t-105 -91q-70 -95 -70 -256q0 -184 95 -292q92 -105 219 -105q147 0 234 133q66 100 66 259q0 163 -79 269q-87 116 -233 116z" />
    <glyph glyph-name="c" unicode="c" horiz-adv-x="1054" 
d="M998 282q-97 -311 -427 -311q-178 0 -312 108q-78 64 -125 161q-55 112 -55 236q0 101 38.5 194t107.5 159q142 136 383 136q139 0 233 -53q126 -71 126 -184q0 -54 -36 -93q-34 -35 -85 -35q-43 0 -73 27q-38 33 -38 83q0 61 59 88q-68 76 -186 76q-71 0 -136.5 -32
t-106.5 -86q-83 -110 -83 -278q0 -164 81 -270q44 -57 109 -89.5t137 -32.5q145 0 231 115q27 35 41 81h117z" />
    <glyph glyph-name="d" unicode="d" horiz-adv-x="1294" 
d="M885 179q-65 -92 -130 -137q-106 -72 -240 -72q-194 0 -311 139q-126 150 -126 369q0 212 118 347q122 140 336 140q218 0 353 -189v291q0 103 -26 145q-20 32 -61 45q-38 11 -104 11h-20v97h379v-1063q1 -93 17 -130q26 -59 103 -71q25 -3 76 -3v-98h-364v179zM573 857
q-69 0 -133.5 -38t-107.5 -104q-61 -95 -61 -234q0 -173 86 -288q88 -117 214 -117q73 0 142 42t114 114q65 102 65 247q0 166 -92 270q-94 108 -227 108z" />
    <glyph glyph-name="e" unicode="e" horiz-adv-x="1152" 
d="M278 429q5 -93 38 -158q45 -90 124.5 -139t179.5 -49q69 0 135 25.5t108 68.5q39 39 71 113h116q-32 -113 -107 -187q-135 -132 -337 -132q-218 0 -362 125q-166 144 -166 377q0 210 139 348q146 144 371 144q175 0 300 -94q134 -101 172 -290q11 -59 13 -152h-795z
M278 527h599q-7 114 -43 187q-32 64 -92 104q-71 48 -163 48q-176 0 -256 -154q-40 -77 -45 -185z" />
    <glyph glyph-name="f" unicode="f" horiz-adv-x="808" 
d="M276 838h-219v98h219v82q0 173 101 280q90 96 241 96q123 0 198 -64q67 -58 67 -137q0 -58 -35 -95q-32 -34 -85 -34q-43 0 -73 26q-37 33 -37 85q0 71 63 93q-36 41 -91 41q-96 0 -148 -96q-32 -60 -32 -172v-105h248v-98h-248v-485q0 -123 7 -146q15 -59 60 -84
q48 -25 138 -25h43v-98h-636v98h28q77 0 103 11q51 19 70 66q17 42 18 170v493z" />
    <glyph glyph-name="g" unicode="g" horiz-adv-x="1382" 
d="M961 814q36 58 91.5 89.5t122.5 31.5q94 0 151 -76q41 -55 41 -121q0 -62 -44 -104q-33 -32 -80 -32q-40 0 -71 26q-38 32 -38 79q0 83 103 95q-30 36 -74 36q-85 0 -149 -95q33 -69 33 -144q0 -98 -69 -186q-63 -80 -178 -123q-101 -38 -220 -38q-137 0 -248 66
q-125 -29 -125 -120q0 -57 54 -85q35 -18 152 -18h421q215 0 298 -66q36 -29 57.5 -75.5t21.5 -94.5q0 -117 -104 -201q-142 -116 -495 -116q-222 0 -372 44q-75 21 -129 74q-54 52 -54 125q0 74 72 133q31 26 76 45q-50 21 -78 50q-59 63 -59 144q0 104 91 167
q41 28 100 41q-111 102 -111 235q0 161 133 264q130 101 314 101q134 0 241 -53q54 -27 125 -98zM586 873q-110 0 -185 -80q-71 -76 -71 -185q0 -130 91 -208q70 -61 173 -61q114 0 191 75q76 74 76 184t-68 186q-80 89 -207 89zM798 -64h-356q-96 0 -173 -25
q-91 -29 -91 -115q0 -72 96 -112q103 -43 299 -43q183 0 296 27q147 35 147 135q0 59 -58 95q-63 38 -160 38z" />
    <glyph glyph-name="h" unicode="h" horiz-adv-x="1337" 
d="M389 741q115 225 365 225q152 0 248 -98q108 -112 108 -308v-258q1 -93 17 -130q27 -59 103 -71q25 -3 75 -3v-98h-564v98q95 -1 139 25q38 25 50 82q7 29 7 97v240q0 145 -70 221t-181 76q-143 0 -225 -105q-41 -53 -58 -122q-14 -60 -14 -158v-152q1 -93 17 -130
q27 -59 103 -71q25 -3 75 -3v-98h-559v98q95 -1 138 25q39 25 51 82q6 28 6 97v761q-1 94 -17 131q-26 58 -103 70q-25 3 -75 4v97h364v-624z" />
    <glyph glyph-name="i" unicode="i" horiz-adv-x="689" 
d="M438 936v-634q1 -93 17 -130q27 -59 103 -71q25 -3 75 -3v-98h-572v98h20q93 0 128 21q45 25 57 92q6 33 6 87v339q0 103 -26 145q-20 33 -62 45q-37 11 -103 11h-20v98h377zM325 1356q50 0 85 -34q37 -36 37 -88q0 -49 -34 -84q-37 -38 -89 -38q-51 0 -86 35t-35 87
t32 86q35 36 90 36z" />
    <glyph glyph-name="j" unicode="j" horiz-adv-x="664" 
d="M439 936v-961q0 -219 -65 -312q-44 -64 -123 -96q-63 -25 -130 -25q-90 0 -143 50q-51 48 -51 114q0 63 45 100q32 26 77 26q57 0 91 -38q28 -32 28 -73q0 -59 -63 -92q16 -8 32 -8q64 0 100 61q22 37 29 89q3 29 3 113v753q0 104 -26 145q-20 33 -62 45q-37 11 -103 11
h-20v98h381zM334 1356q50 0 86 -34q36 -35 36 -88q0 -49 -34 -84q-37 -38 -89 -38q-51 0 -86 35t-35 87t32 86q35 36 90 36z" />
    <glyph glyph-name="k" unicode="k" horiz-adv-x="1320" 
d="M738 602l311 -387q104 -124 211 -117h10v-98h-556v98q0 2 2 2l68 -4q55 13 69 21q17 10 17 28q0 19 -28 56l-228 297l-206 -182v-14q1 -93 17 -130q27 -59 103 -71q25 -3 76 -3v-98h-572v98h20q93 0 128 21q45 25 56 92q7 35 7 87v769q0 104 -26 145q-20 32 -62 45
q-37 11 -103 11h-20v97h376v-919l306 270q50 44 50 70q0 41 -68 48q-41 5 -98 5h-19v97h639v-97h-16q-95 0 -177 -29.5t-151 -89.5z" />
    <glyph glyph-name="l" unicode="l" horiz-adv-x="671" 
d="M420 1365v-1063q1 -93 17 -130q27 -59 103 -71q25 -3 75 -3v-98h-572v98h20q93 0 128 21q45 25 56 92q7 35 7 87v769q0 104 -26 145q-20 32 -62 45q-37 11 -103 11h-20v97h377z" />
    <glyph glyph-name="m" unicode="m" horiz-adv-x="2004" 
d="M427 746q49 93 121 145q101 74 227 74q128 0 213 -66q44 -34 68 -78q18 -33 36 -86q32 66 58.5 100.5t68.5 62.5q99 67 226 67q132 0 222 -76q80 -66 101 -181q9 -51 9 -160v-246q1 -93 17 -130q27 -59 103 -71q25 -3 76 -3v-98h-560v98q95 -1 138 25q39 25 51 82
q6 28 6 97v241q0 299 -225 299q-130 0 -207 -101q-73 -98 -73 -281v-158q1 -93 17 -130q26 -59 103 -71q25 -3 76 -3v-98h-556v98q96 -1 139 25q39 25 51 82q6 28 6 97v227q0 312 -214 312q-106 0 -184 -70q-104 -93 -104 -284v-185q1 -93 17 -130q27 -59 103 -71
q25 -3 75 -3v-98h-575v98h20q93 0 128 21q45 25 56 92q7 35 7 87v339q0 105 -26 145q-20 33 -62 45q-37 11 -103 11h-20v98h370v-190z" />
    <glyph glyph-name="n" unicode="n" horiz-adv-x="1384" 
d="M427 735q50 91 102 137q104 93 267 93q164 0 264 -102q62 -64 80 -138q18 -77 18 -197v-226q1 -93 17 -130q27 -59 103 -71q25 -3 75 -3v-98h-564v98q95 -1 139 25q38 25 50 82q7 29 7 97v262q0 139 -63 203q-68 71 -187 71q-96 0 -170 -52q-72 -52 -98 -129
q-30 -94 -30 -224v-131q1 -93 17 -130q27 -59 103 -71q25 -3 75 -3v-98h-575v98h20q93 0 128 21q45 25 57 92q6 33 6 87v339q0 103 -26 145q-20 33 -62 45q-37 11 -103 11h-20v98h370v-201z" />
    <glyph glyph-name="o" unicode="o" horiz-adv-x="1201" 
d="M606 965q225 0 377 -148q68 -65 105 -165q35 -97 35 -192q0 -112 -44 -210t-123 -161q-149 -118 -355 -118q-229 0 -382 142q-68 62 -104 159q-36 94 -36 189q0 128 60 248q65 128 214 202q112 54 253 54zM597 868q-139 0 -222 -104q-92 -115 -92 -303q0 -184 92 -293
q83 -99 226 -99q142 0 226 99q92 109 92 292q0 190 -92 304q-84 104 -230 104z" />
    <glyph glyph-name="p" unicode="p" horiz-adv-x="1258" 
d="M372 187v-239q2 -178 38 -227q36 -54 130 -55h42v-95h-592v97h20q93 1 128 21q44 25 56 92q7 35 7 88v768q0 104 -26 145q-20 33 -62 45q-37 11 -103 11h-20v98h382v-169q139 198 358 198q208 0 332 -143q117 -135 117 -354q0 -199 -111 -335q-134 -162 -330 -162
q-141 0 -257 86q-67 50 -109 130zM675 852q-121 0 -210 -93q-96 -100 -96 -284q0 -191 112 -302q89 -87 197 -87q162 0 251 165q54 98 54 227q0 173 -93 279q-84 95 -215 95z" />
    <glyph glyph-name="q" unicode="q" horiz-adv-x="1311" 
d="M888 188q-152 -217 -372 -217q-180 0 -310 142q-128 141 -128 357q0 225 126 361q123 134 319 134q232 0 365 -209v180h381v-98h-19q-93 0 -128 -21q-45 -25 -57 -92q-6 -33 -6 -88v-768q0 -103 26 -145q20 -32 62 -45q37 -10 103 -11h19v-97h-592v97h20q93 1 128 21
q45 26 56 92q7 35 7 88v319zM577 845q-139 0 -227 -120q-75 -103 -75 -258q0 -149 74 -252q92 -129 231 -129q72 0 137.5 40t109.5 109q60 97 60 237q0 168 -87 272q-84 101 -223 101z" />
    <glyph glyph-name="r" unicode="r" horiz-adv-x="978" 
d="M410 674q56 111 94 164q43 59 104.5 93t126.5 34q97 0 150 -73q38 -52 38 -114q0 -72 -46 -120q-34 -35 -85 -35q-45 0 -78 31q-32 31 -32 74q0 62 57 81q13 5 36 5q-30 52 -80 52q-105 0 -200 -179q-81 -152 -81 -345q0 -169 60 -215q42 -32 138 -32h31v-95h-586v98
q96 -1 139 25q39 25 51 82q6 28 6 97v332q-1 93 -17 130q-26 59 -103 71q-25 3 -76 3v98h353v-262z" />
    <glyph glyph-name="s" unicode="s" horiz-adv-x="1047" 
d="M120 0v363h88q18 -94 56 -145q43 -58 120 -96q87 -44 179 -44q94 0 160 48q62 45 62 116q0 66 -55 106q-35 26 -129 37l-214 24q-127 15 -195 76q-90 80 -90 195q0 125 110 209q101 76 245 76q87 0 165 -20q34 -9 101 -39q28 -13 50 -13q32 0 39 43h78v-303h-78
q-26 104 -80 155q-90 88 -236 88q-102 0 -166 -47q-61 -45 -61 -114q0 -59 46 -91q30 -21 102 -28l223 -24q164 -17 238 -96q80 -86 80 -195q0 -152 -132 -241q-101 -69 -232 -69q-78 0 -168 30q-36 13 -134 53q-23 9 -40 9q-33 0 -44 -63h-88z" />
    <glyph glyph-name="t" unicode="t" horiz-adv-x="763" 
d="M372 838v-526q0 -123 15 -163q21 -55 87 -55q58 0 82 46q21 40 21 163v62h88v-90q0 -122 -24 -179q-52 -125 -218 -125q-131 0 -187 85q-28 42 -36 103q-5 38 -5 149v530h-189v88q244 5 273 342h93v-332h295v-98h-295z" />
    <glyph glyph-name="u" unicode="u" horiz-adv-x="1324" 
d="M914 202q-125 -231 -356 -231q-180 0 -281 117q-52 60 -68 133q-13 62 -13 141v306q0 79 -15 108q-31 62 -126 62h-16v98h325v-556q0 -123 54 -194q31 -41 81.5 -65t105.5 -24q61 0 123 30.5t106 81.5q80 94 80 260v165q-1 93 -17 130q-26 59 -103 71q-25 3 -75 3v98h359
v-634q1 -93 17 -130q26 -59 103 -71q25 -3 75 -3v-98h-359v202z" />
    <glyph glyph-name="v" unicode="v" horiz-adv-x="1313" 
d="M699 198l238 416q63 109 63 151q0 47 -58 61q-53 13 -135 13h-27v97h552v-97h-12q-95 -1 -141 -42q-28 -25 -49 -57q-28 -44 -73 -124l-365 -645h-63l-387 679q-41 72 -72 108t-67 53q-44 20 -122 28v97h627v-97h-26q-180 0 -180 -77q0 -36 24 -79z" />
    <glyph glyph-name="w" unicode="w" horiz-adv-x="1898" 
d="M946 677l-301 -706h-77l-334 686q-56 112 -81 134q-57 45 -165 48v97h646v-97h-31q-213 0 -213 -89q0 -43 31 -105l220 -440l305 731h67l315 -731l207 430q35 71 35 123q0 81 -185 81h-32v97h557v-97h-11q-90 -1 -140 -33q-31 -19 -46 -44q-9 -8 -57 -107l-328 -684h-83z
" />
    <glyph glyph-name="x" unicode="x" horiz-adv-x="1390" 
d="M693 391l-158 -145l-38 -35q-31 -28 -37 -38q-7 -13 -7 -27q0 -28 37 -41q19 -7 93 -7h31v-98h-562v98h19q83 0 130 20q36 14 122 91l286 257l-317 269q-88 74 -134 90q-39 12 -102 14v97h589v-97q-35 -2 -45 -3q-60 -3 -78 -12q-26 -12 -26 -33q0 -29 57 -78l172 -149
l154 146q50 47 54 51q13 14 13 33q0 27 -36 38q-26 7 -104 7h-20v97h535v-97q-78 -6 -117 -18t-66 -33q-14 -12 -76 -66l-257 -227l335 -287q88 -75 124 -94q31 -16 78 -16h10v-98h-600v98h32q83 0 116 9q34 10 34 39q0 22 -20.5 48t-71.5 71z" />
    <glyph glyph-name="y" unicode="y" horiz-adv-x="1296" 
d="M689 134l263 528q33 66 33 101q0 76 -179 76h-45v97h547v-97q-88 -2 -126 -24q-45 -27 -94 -120l-471 -906q-75 -144 -152 -196q-76 -51 -161 -51q-100 0 -173 62q-66 57 -66 146q0 63 35 99q37 38 89 38q56 0 88 -43q24 -32 24 -68q0 -43 -31 -73q-20 -20 -52 -22
q43 -38 83 -38q71 0 135 60q38 36 89 129l67 120l-374 742q-40 80 -91.5 112.5t-138.5 32.5v97h622v-97q-97 0 -130 -5q-89 -13 -89 -64q0 -35 49 -133z" />
    <glyph glyph-name="z" unicode="z" horiz-adv-x="1106" 
d="M77 98l697 740h-349q-77 0 -121 -12t-68 -39q-31 -36 -38 -95q-5 -40 -5 -95v-40h-97v379h904v-98l-695 -740h372q97 0 131 15q64 25 88 87q15 41 18 117l2 84h103v-401h-942v98z" />
    <glyph glyph-name="braceleft" unicode="{" 
d="M450 502q65 -34 93 -101q20 -47 20 -137v-300q3 -125 20 -156q21 -45 49 -59q50 -25 126 -26v-106q-26 -1 -37 -1q-143 0 -194 18q-98 35 -128 143q-15 55 -15 143v322q0 116 -34 162q-31 41 -83 56v93q53 15 85 60q30 41 32 150v350q0 147 67 213q48 46 115 56
q64 9 161 9h31v-114q-90 -1 -140 -37q-37 -30 -47 -87q-8 -39 -8 -110v-307q-1 -108 -30 -158q-25 -44 -83 -76z" />
    <glyph glyph-name="bar" unicode="|" 
d="M421 1365h182v-1706h-182v1706z" />
    <glyph glyph-name="braceright" unicode="}" 
d="M574 505q-65 35 -94 102q-19 45 -19 136v301q-3 125 -20 155q-21 46 -49 60q-50 25 -126 26v106h28q152 0 203 -18q97 -35 127 -142q16 -56 16 -144v-321q0 -116 34 -162q31 -41 83 -56v-93q-53 -15 -85 -60q-30 -41 -32 -150v-350q0 -148 -67 -213q-49 -48 -115 -57
q-69 -9 -154 -9q-13 0 -38 1v114q89 1 140 37q37 30 47 87q8 38 8 110v307q1 108 30 158q25 44 83 75z" />
    <glyph glyph-name="asciitilde" unicode="~" horiz-adv-x="1365" 
d="M288 1180l-95 75q108 238 281 238q76 0 237 -79q98 -48 128 -57q32 -9 58 -9q100 0 183 149l95 -76q-104 -234 -298 -234q-31 0 -73 13q-40 13 -171 77q-108 53 -169 53q-92 0 -176 -150z" />
    <glyph glyph-name="Adieresis" unicode="&#xc4;" horiz-adv-x="1831" 
d="M531 488l-93 -178q-30 -57 -30 -93q0 -38 40 -74t147 -36h69v-107h-703v107h60q132 2 207 96q64 79 145 223l503 939h77l548 -1010q59 -108 83 -138q53 -64 108 -90q41 -19 114 -20h64v-107h-791v107h68q184 0 184 99q0 41 -27 93l-99 189h-674zM584 585h568l-283 555z
M1231 1764q47 0 82 -33q35 -34 35 -84q0 -47 -33 -81q-35 -36 -85 -36q-49 0 -83 34q-33 33 -33 83t31 82q34 35 86 35zM600 1764q48 0 82 -33q35 -34 35 -83q0 -48 -33 -82q-35 -36 -85 -36q-49 0 -83 34q-33 34 -33 83q0 50 31 82q34 35 86 35z" />
    <glyph glyph-name="Aring" unicode="&#xc5;" horiz-adv-x="1831" 
d="M531 488l-93 -178q-30 -57 -30 -93q0 -38 40 -74t147 -36h69v-107h-703v107h60q132 2 207 96q64 79 145 223l503 939h77l548 -1010q59 -108 83 -138q53 -64 108 -90q41 -19 114 -20h64v-107h-791v107h68q184 0 184 99q0 41 -27 93l-99 189h-674zM584 585h568l-283 555z
M918 1877q88 0 151 -65q65 -65 65 -156q0 -89 -64 -152q-64 -62 -154 -62t-154 63q-66 63 -66 154q0 90 62 152q66 66 160 66zM913 1753q-40 0 -67 -30q-25 -28 -25 -65q0 -40 29 -68q26 -26 65 -26t66 28q26 28 26 65q0 41 -29 69q-27 27 -65 27z" />
    <glyph glyph-name="Ccedilla" unicode="&#xc7;" horiz-adv-x="1566" 
d="M780 -40q-152 18 -235 47q-211 73 -336 246q-136 189 -136 434q0 219 114 397q113 176 308 259q142 61 311 61q128 0 244 -37q30 -9 154 -60q45 -18 97 -18q64 0 76 81h97v-500h-97q-9 80 -27.5 129.5t-58.5 100.5q-66 83 -161 129q-119 57 -255 57q-266 0 -427 -190
q-150 -177 -150 -412q0 -124 46.5 -237t132.5 -195q155 -148 390 -148q171 0 295 88q149 105 205 245h130q-68 -210 -257 -350q-103 -75 -232 -106q-40 -11 -138 -24l-12 -76q149 -24 149 -134q0 -79 -75 -121q-42 -24 -104 -24q-150 0 -188 130h96q21 -45 69 -45
q26 0 47 16q19 15 19 41q0 31 -23 52q-19 17 -50 17q-19 0 -42 -9z" />
    <glyph glyph-name="Eacute" unicode="&#xc9;" horiz-adv-x="1587" 
d="M552 107h448q92 0 132.5 8t73.5 32q84 63 113 203q12 59 23 172h97v-522h-1369v107h44q114 1 173 35q54 31 63 91q3 14 3 63v773q0 73 -18 106q-47 82 -221 83h-44v107h1369v-473h-97q-11 150 -34 203q-41 104 -135 140q-63 23 -170 23h-451v-502h215q119 1 164 93
q22 45 27 96q4 42 5 102h98v-707h-98q-2 118 -12 158q-23 96 -72 130q-36 25 -112 26h-215v-547zM1107 1764l-299 -234h-192l218 234h273z" />
    <glyph glyph-name="Ntilde" unicode="&#xd1;" horiz-adv-x="1989" 
d="M459 1151v-855q0 -73 18 -106q47 -82 221 -83h44v-107h-679v107h44q114 1 173 35q54 31 63 91q3 14 3 63v773q0 73 -18 106q-48 82 -221 83h-44v107h463l1006 -1046v750q0 74 -18 106q-47 82 -221 83h-44v107h677v-107h-44q-115 -1 -173 -35q-54 -31 -63 -90
q-3 -14 -3 -64v-1088h-67zM1451 1744q-38 -72 -66 -106q-58 -70 -158 -96q-36 -10 -73 -10q-59 0 -119 14l-161 38q-78 18 -123 18q-82 0 -132 -71l-82 18q117 206 293 206q51 0 104 -12l142 -33q107 -25 157 -25q95 0 144 77z" />
    <glyph glyph-name="Odieresis" unicode="&#xd6;" horiz-adv-x="1782" 
d="M914 1404q152 0 296 -51.5t251 -143.5q140 -120 202 -289q40 -111 40 -230q0 -253 -161 -447q-139 -168 -356 -239q-132 -43 -290 -43q-333 0 -548 169q-151 119 -223 310q-45 120 -45 242q0 212 122 393q131 195 393 280q151 49 319 49zM885 1287q-116 0 -227.5 -55
t-192.5 -152q-144 -172 -144 -399q0 -115 41 -226t114 -194q84 -94 201 -144q103 -45 212 -45q113 0 220.5 47.5t186.5 132.5q78 84 122 197.5t44 233.5q0 112 -37.5 218t-105.5 184q-83 97 -196 149.5t-238 52.5zM1206 1764q47 0 82 -33q35 -34 35 -84q0 -47 -33 -81
q-35 -36 -85 -36q-49 0 -83 34q-33 33 -33 83t31 82q34 35 86 35zM575 1764q48 0 82 -33q35 -34 35 -83q0 -48 -33 -82q-35 -36 -85 -36q-49 0 -83 34q-33 34 -33 83q0 50 31 82q34 35 86 35z" />
    <glyph glyph-name="Udieresis" unicode="&#xdc;" horiz-adv-x="1942" 
d="M536 1069v-553q0 -222 156 -345q117 -93 321 -93q220 0 348 106q124 104 124 296v589q0 73 -18 106q-48 82 -221 83h-44v107h693v-107h-44q-115 -1 -173 -35q-54 -31 -63 -90q-3 -14 -3 -64v-589q0 -274 -180 -403q-162 -116 -446 -116q-291 0 -469 130
q-187 138 -187 407v571q0 73 -18 106q-48 82 -221 83h-44v107h772v-107h-44q-115 -1 -173 -35q-54 -31 -63 -90q-3 -13 -3 -64zM1327 1764q47 0 82 -33q35 -34 35 -84q0 -47 -33 -81q-35 -36 -85 -36q-49 0 -83 34q-33 33 -33 83t31 82q34 35 86 35zM696 1764q48 0 82 -33
q35 -34 35 -83q0 -48 -33 -82q-35 -36 -85 -36q-49 0 -83 34q-33 34 -33 83q0 50 31 82q34 35 86 35z" />
    <glyph glyph-name="aacute" unicode="&#xe1;" horiz-adv-x="1251" 
d="M799 209q-45 -86 -114 -139q-128 -99 -290 -99q-151 0 -232 77q-79 76 -79 182q0 148 150 225q89 46 193 73l182 46q91 23 126 43q60 34 60 91q0 79 -90 128q-67 36 -153 36q-128 0 -201 -76q44 -32 44 -73q0 -46 -35 -79t-83 -33q-52 0 -86 34q-38 39 -38 98
q0 116 132 172q120 50 274 50q171 0 279 -66q70 -43 100.5 -117.5t30.5 -200.5v-322q0 -98 14 -123q20 -38 67 -38q53 0 73 49q15 39 15 139v92h88v-152q0 -120 -56 -184q-63 -71 -167 -71q-114 0 -172 92q-32 51 -32 121v25zM799 570q-25 -36 -57 -55q-44 -25 -192 -69
q-154 -45 -212 -100q-51 -48 -51 -110q0 -73 60 -114q40 -27 94 -27q143 0 256 106q94 89 97 201zM871 1376l-237 -273h-159l159 273h237z" />
    <glyph glyph-name="agrave" unicode="&#xe0;" horiz-adv-x="1251" 
d="M799 209q-45 -86 -114 -139q-128 -99 -290 -99q-151 0 -232 77q-79 76 -79 182q0 148 150 225q89 46 193 73l182 46q91 23 126 43q60 34 60 91q0 79 -90 128q-67 36 -153 36q-128 0 -201 -76q44 -32 44 -73q0 -46 -35 -79t-83 -33q-52 0 -86 34q-38 39 -38 98
q0 116 132 172q120 50 274 50q171 0 279 -66q70 -43 100.5 -117.5t30.5 -200.5v-322q0 -98 14 -123q20 -38 67 -38q53 0 73 49q15 39 15 139v92h88v-152q0 -120 -56 -184q-63 -71 -167 -71q-114 0 -172 92q-32 51 -32 121v25zM799 570q-25 -36 -57 -55q-44 -25 -192 -69
q-154 -45 -212 -100q-51 -48 -51 -110q0 -73 60 -114q40 -27 94 -27q143 0 256 106q94 89 97 201zM264 1376h237l159 -273h-159z" />
    <glyph glyph-name="acircumflex" unicode="&#xe2;" horiz-adv-x="1251" 
d="M799 209q-45 -86 -114 -139q-128 -99 -290 -99q-151 0 -232 77q-79 76 -79 182q0 148 150 225q89 46 193 73l182 46q91 23 126 43q60 34 60 91q0 79 -90 128q-67 36 -153 36q-128 0 -201 -76q44 -32 44 -73q0 -46 -35 -79t-83 -33q-52 0 -86 34q-38 39 -38 98
q0 116 132 172q120 50 274 50q171 0 279 -66q70 -43 100.5 -117.5t30.5 -200.5v-322q0 -98 14 -123q20 -38 67 -38q53 0 73 49q15 39 15 139v92h88v-152q0 -120 -56 -184q-63 -71 -167 -71q-114 0 -172 92q-32 51 -32 121v25zM799 570q-25 -36 -57 -55q-44 -25 -192 -69
q-154 -45 -212 -100q-51 -48 -51 -110q0 -73 60 -114q40 -27 94 -27q143 0 256 106q94 89 97 201zM558 1407l344 -227l-111 -109l-233 157l-234 -157l-111 109z" />
    <glyph glyph-name="adieresis" unicode="&#xe4;" horiz-adv-x="1251" 
d="M799 209q-45 -86 -114 -139q-128 -99 -290 -99q-151 0 -232 77q-79 76 -79 182q0 148 150 225q89 46 193 73l182 46q91 23 126 43q60 34 60 91q0 79 -90 128q-67 36 -153 36q-128 0 -201 -76q44 -32 44 -73q0 -46 -35 -79t-83 -33q-52 0 -86 34q-38 39 -38 98
q0 116 132 172q120 50 274 50q171 0 279 -66q70 -43 100.5 -117.5t30.5 -200.5v-322q0 -98 14 -123q20 -38 67 -38q53 0 73 49q15 39 15 139v92h88v-152q0 -120 -56 -184q-63 -71 -167 -71q-114 0 -172 92q-32 51 -32 121v25zM799 570q-25 -36 -57 -55q-44 -25 -192 -69
q-154 -45 -212 -100q-51 -48 -51 -110q0 -73 60 -114q40 -27 94 -27q143 0 256 106q94 89 97 201zM795 1356q48 0 82 -33q35 -34 35 -83q0 -48 -33 -82q-35 -36 -85 -36q-49 0 -83 34q-33 33 -33 83t31 82q33 35 86 35zM319 1356q48 0 82 -33q35 -34 35 -83q0 -48 -33 -82
q-35 -36 -85 -36q-49 0 -83 34q-33 33 -33 83t31 82q34 35 86 35z" />
    <glyph glyph-name="atilde" unicode="&#xe3;" horiz-adv-x="1251" 
d="M799 209q-45 -86 -114 -139q-128 -99 -290 -99q-151 0 -232 77q-79 76 -79 182q0 148 150 225q89 46 193 73l182 46q91 23 126 43q60 34 60 91q0 79 -90 128q-67 36 -153 36q-128 0 -201 -76q44 -32 44 -73q0 -46 -35 -79t-83 -33q-52 0 -86 34q-38 39 -38 98
q0 116 132 172q120 50 274 50q171 0 279 -66q70 -43 100.5 -117.5t30.5 -200.5v-322q0 -98 14 -123q20 -38 67 -38q53 0 73 49q15 39 15 139v92h88v-152q0 -120 -56 -184q-63 -71 -167 -71q-114 0 -172 92q-32 51 -32 121v25zM799 570q-25 -36 -57 -55q-44 -25 -192 -69
q-154 -45 -212 -100q-51 -48 -51 -110q0 -73 60 -114q40 -27 94 -27q143 0 256 106q94 89 97 201zM909 1336q-20 -104 -72 -157.5t-134 -53.5q-45 0 -87 13q-37 11 -101 33q-115 39 -164 39q-69 0 -81 -66h-64q15 83 44 126q58 84 156 84q54 0 160 -41q116 -45 178 -45
q83 0 98 68h67z" />
    <glyph glyph-name="aring" unicode="&#xe5;" horiz-adv-x="1251" 
d="M799 209q-45 -86 -114 -139q-128 -99 -290 -99q-151 0 -232 77q-79 76 -79 182q0 148 150 225q89 46 193 73l182 46q91 23 126 43q60 34 60 91q0 79 -90 128q-67 36 -153 36q-128 0 -201 -76q44 -32 44 -73q0 -46 -35 -79t-83 -33q-52 0 -86 34q-38 39 -38 98
q0 116 132 172q120 50 274 50q171 0 279 -66q70 -43 100.5 -117.5t30.5 -200.5v-322q0 -98 14 -123q20 -38 67 -38q53 0 73 49q15 39 15 139v92h88v-152q0 -120 -56 -184q-63 -71 -167 -71q-114 0 -172 92q-32 51 -32 121v25zM799 570q-25 -36 -57 -55q-44 -25 -192 -69
q-154 -45 -212 -100q-51 -48 -51 -110q0 -73 60 -114q40 -27 94 -27q143 0 256 106q94 89 97 201zM560 1479q88 0 151 -65q65 -65 65 -156q0 -89 -64 -152q-64 -62 -153 -62q-91 0 -155 63q-66 64 -66 155q0 88 62 151q66 66 160 66zM555 1355q-40 0 -67 -30
q-25 -29 -25 -65q0 -40 29 -68q27 -26 65 -26q39 0 66 28q26 27 26 65q0 41 -29 69q-27 27 -65 27z" />
    <glyph glyph-name="ccedilla" unicode="&#xe7;" horiz-adv-x="1059" 
d="M536 -33q-81 7 -141.5 29.5t-125.5 69.5q-85 63 -136 169q-55 114 -55 235q0 102 39.5 196t110.5 161q145 138 376 138q140 0 235 -48q60 -31 98 -89q36 -54 36 -111q0 -55 -44 -92q-35 -30 -79 -30q-60 0 -93 47q-19 28 -19 64q0 62 54 85q-58 81 -177 81
q-152 0 -249 -122q-84 -107 -84 -278q0 -167 80 -269q44 -57 112 -90t140 -33q124 0 207 87q33 34 65 109h117q-43 -156 -168 -245q-81 -55 -215 -67l-12 -88q69 -8 100 -27q54 -33 54 -101q0 -79 -73 -120q-49 -27 -118 -27q-149 0 -177 139h90q14 -63 80 -63q34 0 54 17
q20 18 20 48q0 40 -34 62q-23 15 -56 15q-12 0 -33 -2z" />
    <glyph glyph-name="eacute" unicode="&#xe9;" horiz-adv-x="1152" 
d="M278 429q5 -93 38 -158q45 -90 124.5 -139t179.5 -49q69 0 135 25.5t108 68.5q39 39 71 113h116q-32 -113 -107 -187q-135 -132 -337 -132q-218 0 -362 125q-166 144 -166 377q0 210 139 348q146 144 371 144q175 0 300 -94q134 -101 172 -290q11 -59 13 -152h-795z
M278 527h599q-7 114 -43 187q-32 64 -92 104q-71 48 -163 48q-176 0 -256 -154q-40 -77 -45 -185zM890 1376l-237 -273h-159l159 273h237z" />
    <glyph glyph-name="egrave" unicode="&#xe8;" horiz-adv-x="1152" 
d="M278 429q5 -93 38 -158q45 -90 124.5 -139t179.5 -49q69 0 135 25.5t108 68.5q39 39 71 113h116q-32 -113 -107 -187q-135 -132 -337 -132q-218 0 -362 125q-166 144 -166 377q0 210 139 348q146 144 371 144q175 0 300 -94q134 -101 172 -290q11 -59 13 -152h-795z
M278 527h599q-7 114 -43 187q-32 64 -92 104q-71 48 -163 48q-176 0 -256 -154q-40 -77 -45 -185zM268 1376h237l159 -273h-159z" />
    <glyph glyph-name="ecircumflex" unicode="&#xea;" horiz-adv-x="1152" 
d="M278 429q5 -93 38 -158q45 -90 124.5 -139t179.5 -49q69 0 135 25.5t108 68.5q39 39 71 113h116q-32 -113 -107 -187q-135 -132 -337 -132q-218 0 -362 125q-166 144 -166 377q0 210 139 348q146 144 371 144q175 0 300 -94q134 -101 172 -290q11 -59 13 -152h-795z
M278 527h599q-7 114 -43 187q-32 64 -92 104q-71 48 -163 48q-176 0 -256 -154q-40 -77 -45 -185zM576 1407l344 -227l-111 -109l-233 157l-234 -157l-111 109z" />
    <glyph glyph-name="edieresis" unicode="&#xeb;" horiz-adv-x="1152" 
d="M278 429q5 -93 38 -158q45 -90 124.5 -139t179.5 -49q69 0 135 25.5t108 68.5q39 39 71 113h116q-32 -113 -107 -187q-135 -132 -337 -132q-218 0 -362 125q-166 144 -166 377q0 210 139 348q146 144 371 144q175 0 300 -94q134 -101 172 -290q11 -59 13 -152h-795z
M278 527h599q-7 114 -43 187q-32 64 -92 104q-71 48 -163 48q-176 0 -256 -154q-40 -77 -45 -185zM814 1356q48 0 82 -33q35 -34 35 -83q0 -48 -33 -82q-35 -36 -85 -36q-49 0 -83 34q-33 33 -33 83t31 82q33 35 86 35zM338 1356q48 0 82 -33q35 -34 35 -83q0 -48 -33 -82
q-35 -36 -85 -36q-49 0 -83 34q-33 33 -33 83t31 82q34 35 86 35z" />
    <glyph glyph-name="iacute" unicode="&#xed;" horiz-adv-x="689" 
d="M438 936v-634q1 -93 17 -130q27 -59 103 -71q25 -3 75 -3v-98h-572v98h20q93 0 128 21q45 25 57 92q6 33 6 87v339q0 103 -26 145q-20 33 -62 45q-37 11 -103 11h-20v98h377zM659 1376l-237 -273h-159l159 273h237z" />
    <glyph glyph-name="igrave" unicode="&#xec;" horiz-adv-x="689" 
d="M437 936v-634q1 -93 17 -130q27 -59 103 -71q25 -3 75 -3v-98h-572v98h20q93 0 128 21q45 25 57 92q6 33 6 87v339q0 103 -26 145q-20 33 -62 45q-37 11 -103 11h-20v98h377zM10 1376h237l159 -273h-159z" />
    <glyph glyph-name="icircumflex" unicode="&#xee;" horiz-adv-x="689" 
d="M437 936v-634q1 -93 17 -130q27 -59 103 -71q25 -3 75 -3v-98h-572v98h20q93 0 128 21q45 25 57 92q6 33 6 87v339q0 103 -26 145q-20 33 -62 45q-37 11 -103 11h-20v98h377zM345 1407l344 -227l-111 -109l-233 157l-234 -157l-111 109z" />
    <glyph glyph-name="idieresis" unicode="&#xef;" horiz-adv-x="689" 
d="M437 936v-634q1 -93 17 -130q27 -59 103 -71q25 -3 75 -3v-98h-572v98h20q93 0 128 21q45 25 57 92q6 33 6 87v339q0 103 -26 145q-20 33 -62 45q-37 11 -103 11h-20v98h377zM439 1356q48 0 82 -33q35 -34 35 -83q0 -48 -33 -82q-35 -36 -85 -36q-49 0 -83 34
q-33 33 -33 83t31 82q33 35 86 35zM113 1356q48 0 82 -33q35 -34 35 -83q0 -48 -33 -82q-35 -36 -85 -36q-49 0 -83 34q-33 33 -33 83t31 82q34 35 86 35z" />
    <glyph glyph-name="ntilde" unicode="&#xf1;" horiz-adv-x="1384" 
d="M427 735q50 91 102 137q104 93 267 93q164 0 264 -102q62 -64 80 -138q18 -77 18 -197v-226q1 -93 17 -130q27 -59 103 -71q25 -3 75 -3v-98h-564v98q95 -1 139 25q38 25 50 82q7 29 7 97v262q0 139 -63 203q-68 71 -187 71q-96 0 -170 -52q-72 -52 -98 -129
q-30 -94 -30 -224v-131q1 -93 17 -130q27 -59 103 -71q25 -3 75 -3v-98h-575v98h20q93 0 128 21q45 25 57 92q6 33 6 87v339q0 103 -26 145q-20 33 -62 45q-37 11 -103 11h-20v98h370v-201zM1044 1336q-20 -104 -72 -157.5t-134 -53.5q-45 0 -87 13q-37 11 -101 33
q-115 39 -164 39q-69 0 -81 -66h-64q15 83 44 126q58 84 156 84q54 0 160 -41q116 -45 178 -45q83 0 98 68h67z" />
    <glyph glyph-name="oacute" unicode="&#xf3;" horiz-adv-x="1201" 
d="M606 965q225 0 377 -148q68 -65 105 -165q35 -97 35 -192q0 -112 -44 -210t-123 -161q-149 -118 -355 -118q-229 0 -382 142q-68 62 -104 159q-36 94 -36 189q0 128 60 248q65 128 214 202q112 54 253 54zM597 868q-139 0 -222 -104q-92 -115 -92 -303q0 -184 92 -293
q83 -99 226 -99q142 0 226 99q92 109 92 292q0 190 -92 304q-84 104 -230 104zM915 1376l-237 -273h-159l159 273h237z" />
    <glyph glyph-name="ograve" unicode="&#xf2;" horiz-adv-x="1201" 
d="M606 965q225 0 377 -148q68 -65 105 -165q35 -97 35 -192q0 -112 -44 -210t-123 -161q-149 -118 -355 -118q-229 0 -382 142q-68 62 -104 159q-36 94 -36 189q0 128 60 248q65 128 214 202q112 54 253 54zM597 868q-139 0 -222 -104q-92 -115 -92 -303q0 -184 92 -293
q83 -99 226 -99q142 0 226 99q92 109 92 292q0 190 -92 304q-84 104 -230 104zM308 1376h237l159 -273h-159z" />
    <glyph glyph-name="ocircumflex" unicode="&#xf4;" horiz-adv-x="1201" 
d="M606 965q225 0 377 -148q68 -65 105 -165q35 -97 35 -192q0 -112 -44 -210t-123 -161q-149 -118 -355 -118q-229 0 -382 142q-68 62 -104 159q-36 94 -36 189q0 128 60 248q65 128 214 202q112 54 253 54zM597 868q-139 0 -222 -104q-92 -115 -92 -303q0 -184 92 -293
q83 -99 226 -99q142 0 226 99q92 109 92 292q0 190 -92 304q-84 104 -230 104zM601 1407l344 -227l-111 -109l-233 157l-234 -157l-111 109z" />
    <glyph glyph-name="odieresis" unicode="&#xf6;" horiz-adv-x="1201" 
d="M606 965q225 0 377 -148q68 -65 105 -165q35 -97 35 -192q0 -112 -44 -210t-123 -161q-149 -118 -355 -118q-229 0 -382 142q-68 62 -104 159q-36 94 -36 189q0 128 60 248q65 128 214 202q112 54 253 54zM597 868q-139 0 -222 -104q-92 -115 -92 -303q0 -184 92 -293
q83 -99 226 -99q142 0 226 99q92 109 92 292q0 190 -92 304q-84 104 -230 104zM839 1356q48 0 82 -33q35 -34 35 -83q0 -48 -33 -82q-35 -36 -85 -36q-49 0 -83 34q-33 33 -33 83t31 82q33 35 86 35zM363 1356q48 0 82 -33q35 -34 35 -83q0 -48 -33 -82q-35 -36 -85 -36
q-49 0 -83 34q-33 33 -33 83t31 82q34 35 86 35z" />
    <glyph glyph-name="otilde" unicode="&#xf5;" horiz-adv-x="1201" 
d="M606 965q225 0 377 -148q68 -65 105 -165q35 -97 35 -192q0 -112 -44 -210t-123 -161q-149 -118 -355 -118q-229 0 -382 142q-68 62 -104 159q-36 94 -36 189q0 128 60 248q65 128 214 202q112 54 253 54zM597 868q-139 0 -222 -104q-92 -115 -92 -303q0 -184 92 -293
q83 -99 226 -99q142 0 226 99q92 109 92 292q0 190 -92 304q-84 104 -230 104zM953 1336q-20 -104 -72 -157.5t-134 -53.5q-45 0 -87 13q-37 11 -101 33q-115 39 -164 39q-69 0 -81 -66h-64q15 83 44 126q58 84 156 84q54 0 160 -41q116 -45 178 -45q83 0 98 68h67z" />
    <glyph glyph-name="uacute" unicode="&#xfa;" horiz-adv-x="1324" 
d="M914 202q-125 -231 -356 -231q-180 0 -281 117q-52 60 -68 133q-13 62 -13 141v306q0 79 -15 108q-31 62 -126 62h-16v98h325v-556q0 -123 54 -194q31 -41 81.5 -65t105.5 -24q61 0 123 30.5t106 81.5q80 94 80 260v165q-1 93 -17 130q-26 59 -103 71q-25 3 -75 3v98h359
v-634q1 -93 17 -130q26 -59 103 -71q25 -3 75 -3v-98h-359v202zM908 1376l-237 -273h-159l159 273h237z" />
    <glyph glyph-name="ugrave" unicode="&#xf9;" horiz-adv-x="1324" 
d="M914 202q-125 -231 -356 -231q-180 0 -281 117q-52 60 -68 133q-13 62 -13 141v306q0 79 -15 108q-31 62 -126 62h-16v98h325v-556q0 -123 54 -194q31 -41 81.5 -65t105.5 -24q61 0 123 30.5t106 81.5q80 94 80 260v165q-1 93 -17 130q-26 59 -103 71q-25 3 -75 3v98h359
v-634q1 -93 17 -130q26 -59 103 -71q25 -3 75 -3v-98h-359v202zM328 1376h237l159 -273h-159z" />
    <glyph glyph-name="ucircumflex" unicode="&#xfb;" horiz-adv-x="1324" 
d="M914 202q-125 -231 -356 -231q-180 0 -281 117q-52 60 -68 133q-13 62 -13 141v306q0 79 -15 108q-31 62 -126 62h-16v98h325v-556q0 -123 54 -194q31 -41 81.5 -65t105.5 -24q61 0 123 30.5t106 81.5q80 94 80 260v165q-1 93 -17 130q-26 59 -103 71q-25 3 -75 3v98h359
v-634q1 -93 17 -130q26 -59 103 -71q25 -3 75 -3v-98h-359v202zM594 1407l344 -227l-111 -109l-233 157l-234 -157l-111 109z" />
    <glyph glyph-name="udieresis" unicode="&#xfc;" horiz-adv-x="1324" 
d="M914 202q-125 -231 -356 -231q-180 0 -281 117q-52 60 -68 133q-13 62 -13 141v306q0 79 -15 108q-31 62 -126 62h-16v98h325v-556q0 -123 54 -194q31 -41 81.5 -65t105.5 -24q61 0 123 30.5t106 81.5q80 94 80 260v165q-1 93 -17 130q-26 59 -103 71q-25 3 -75 3v98h359
v-634q1 -93 17 -130q26 -59 103 -71q25 -3 75 -3v-98h-359v202zM832 1356q48 0 82 -33q35 -34 35 -83q0 -48 -33 -82q-35 -36 -85 -36q-49 0 -83 34q-33 33 -33 83t31 82q33 35 86 35zM356 1356q48 0 82 -33q35 -34 35 -83q0 -48 -33 -82q-35 -36 -85 -36q-49 0 -83 34
q-33 33 -33 83t31 82q34 35 86 35z" />
    <glyph glyph-name="dagger" unicode="&#x2020;" horiz-adv-x="1240" 
d="M587 872l-292 -73q-26 -7 -44 -7q-36 0 -67 28q-37 32 -37 77q0 43 34 76q27 26 71 26q16 0 30 -3l304 -66l-73 335q-3 15 -3 29q0 46 32 78q31 32 78 32q53 0 85 -41q24 -30 24 -71q0 -13 -3 -27l-73 -335l304 66q15 3 30 3q50 0 78 -34q27 -31 27 -68q0 -52 -46 -85
q-28 -20 -58 -20q-17 0 -43 7l-292 73l75 -1003q4 -47 4 -70q0 -51 -31 -82t-81 -31q-59 0 -90 41q-23 29 -23 71q0 20 4 71z" />
    <glyph glyph-name="degree" unicode="&#xb0;" 
d="M518 1360q118 0 206 -91q82 -84 82 -202q0 -124 -87 -211q-85 -85 -205 -85q-131 0 -220 96q-76 84 -76 199q0 137 100 221q86 73 200 73zM508 1279q-78 0 -137 -56q-70 -66 -70 -157q0 -79 52 -140q62 -74 159 -74q83 0 146 60q65 63 65 151q0 89 -61 151
q-64 65 -154 65z" />
    <glyph glyph-name="cent" unicode="&#xa2;" horiz-adv-x="1423" 
d="M1155 462q-85 -268 -362 -298v-164h-102v164q-135 20 -228 89q-91 66 -143 171q-52 106 -52 226q0 187 117 321q124 140 306 156v151h102v-151q99 -7 171 -37q84 -35 127 -96q35 -50 35 -106q0 -55 -37 -87q-35 -30 -79 -30q-45 0 -78 30q-28 26 -28 68q0 57 49 93
q-55 70 -160 72v-758q9 -1 11 -1q47 0 101.5 30t90.5 76q25 30 46 81h113zM691 1026q-68 -20 -117 -74q-109 -119 -109 -303q0 -174 101 -286q48 -54 125 -80v743z" />
    <glyph glyph-name="sterling" unicode="&#xa3;" horiz-adv-x="1423" 
d="M1250 311q-1 -112 -56 -204q-39 -64 -95 -101q-64 -43 -133 -43q-78 0 -164 32l-151 55q-145 53 -249 53q-62 0 -88 -36q-15 -21 -19 -67h-92q3 104 53 175q77 108 215 108q35 0 85 -5q36 27 57 66.5t21 79.5q0 50 -55 95q-21 18 -77 48h-328v96h190q-48 44 -71 72
q-68 82 -68 172q0 79 43.5 153.5t118.5 123.5q113 75 296 75q97 0 204 -29q45 -13 131 -41q36 -12 61 -12q44 0 49 54h92v-411h-92q-10 86 -33 133q-43 84 -135 138q-102 59 -230 59q-122 0 -209 -49q-96 -54 -96 -139q0 -74 55 -122q46 -40 123 -84q84 -47 136 -93h279v-96
h-223q15 -34 15 -64q0 -109 -169 -245q77 -19 96 -26l127 -47q79 -29 145 -29q61 0 98.5 38t53.5 117h89z" />
    <glyph glyph-name="section" unicode="&#xa7;" horiz-adv-x="1240" 
d="M242 -89q19 -45 71 -84q96 -71 251 -71q112 0 189 42q95 52 95 138q0 73 -79 132q-31 23 -105 60l-272 136q-114 57 -161 99q-70 63 -70 162q0 189 222 304q-96 50 -135 90q-69 71 -69 172q0 132 114 221q119 92 304 92q186 0 316 -76q94 -54 94 -146q0 -52 -34 -87
q-32 -35 -83 -35q-57 0 -93 41q-24 27 -24 62q0 61 60 82q8 3 39 4q-20 26 -56 39q-90 34 -192 34q-134 0 -214 -51q-66 -43 -66 -110q0 -92 168 -175l293 -146q132 -66 186 -110q79 -64 79 -163q0 -93 -66 -171q-44 -53 -166 -139q102 -56 144 -103q65 -73 65 -167
q0 -150 -147 -244q-133 -84 -315 -84q-171 0 -302 81q-153 94 -153 228q0 79 60 120q32 23 74 23q51 0 85 -33q33 -31 33 -76q0 -41 -25 -66q-32 -30 -83 -30q-11 0 -32 5zM753 309q82 53 108 78q55 52 55 108q0 90 -150 160l-296 139q-78 -46 -106 -73q-58 -55 -58 -115
q0 -57 66 -105q24 -17 104 -56z" />
    <glyph glyph-name="bullet" unicode="&#x2022;" horiz-adv-x="1365" 
d="M689 978q113 0 196 -83q84 -83 84 -201t-83 -201t-201 -83q-116 0 -199 82q-85 84 -85 202q0 121 84 202q86 82 204 82z" />
    <glyph glyph-name="paragraph" unicode="&#xb6;" horiz-adv-x="1153" 
d="M474 -232v875q-104 -1 -174 23q-111 38 -173 127q-62 90 -62 207q0 125 68 219q69 95 195 127q75 19 185 19h487v-78h-118v-1519h-97v1519h-214v-1519h-97z" />
    <glyph glyph-name="germandbls" unicode="&#xdf;" horiz-adv-x="1292" 
d="M259 936q3 158 32 232q48 124 168 182q94 45 215 45q134 0 231 -56q72 -41 109 -113q25 -49 25 -105q0 -100 -75 -160q-45 -35 -154 -62q152 -18 221 -63q105 -68 152 -197q31 -86 31 -190q0 -172 -79 -303q-49 -82 -130 -128.5t-176 -46.5q-178 0 -250 164
q-34 79 -35 216h86q3 -100 14 -144q23 -85 78 -122q33 -22 71 -22q134 0 190 165q34 102 34 217q0 207 -106 313q-64 64 -161 78q-44 6 -102 8v98q105 2 152 39q60 48 60 127q0 83 -67 138q-53 44 -131 44q-132 0 -193 -104q-39 -66 -39 -191v-995h-367v98q95 -1 138 25
q39 25 51 82q7 29 7 97v373q0 106 -61 141q-38 23 -108 23h-33v97h202z" />
    <glyph glyph-name="registered" unicode="&#xae;" horiz-adv-x="1729" 
d="M896 1389q189 0 358 -104q170 -105 260 -282q77 -151 77 -321q0 -140 -53.5 -270t-153.5 -229q-99 -99 -228.5 -153t-269.5 -54q-139 0 -269 53.5t-229 152.5t-153.5 229.5t-54.5 269.5q0 201 104 372q102 167 283 260q149 76 329 76zM879 1302q-117 0 -228 -47
t-197 -133q-86 -87 -133 -201.5t-47 -238.5q0 -256 180 -438q180 -181 432 -181t431 181q179 182 179 437q0 125 -47 240.5t-132 199.5q-183 181 -438 181zM1012 683q49 -11 67 -29q28 -26 39 -74q7 -34 10 -112q2 -86 11 -112q13 -35 41 -35q34 0 47 51q9 36 10 111h56
q-1 -117 -23 -166q-36 -75 -113 -75q-78 0 -109 72q-23 52 -22 182q-1 99 -35 131q-31 30 -90 31h-181v-215q-1 -66 33 -92q28 -21 86 -21h22v-65h-383v65h22q58 0 86 21q28 19 31 54q2 12 2 38v465q0 45 -8 63q-24 50 -111 50h-22v64h459q134 0 194 -63q53 -56 53 -137
q0 -150 -172 -202zM720 722h178q73 0 121 32q59 40 59 118q0 85 -69 127q-37 22 -119 22h-170v-299z" />
    <glyph glyph-name="copyright" unicode="&#xa9;" horiz-adv-x="1599" 
d="M810 1389q189 0 358 -104q170 -105 260 -282q77 -151 77 -321q0 -140 -53.5 -270t-153.5 -229q-99 -99 -228.5 -153t-269.5 -54q-139 0 -269 53.5t-229 152.5t-153.5 229.5t-54.5 269.5q0 201 104 372q102 167 283 260q149 76 329 76zM793 1302q-117 0 -228 -47
t-197 -133q-86 -87 -133 -201.5t-47 -238.5q0 -256 180 -438q180 -181 432 -181t431 181q179 182 179 437q0 125 -47 240.5t-132 199.5q-183 181 -438 181zM1130 1099h59v-303h-55q-15 96 -57 146q-41 49 -111.5 78t-147.5 29q-159 0 -251 -114q-90 -112 -90 -247
q0 -155 112 -265q93 -92 223 -92q134 0 234 92q43 41 77 113h79q-25 -87 -82 -148q-129 -139 -328 -139q-201 0 -328 128q-120 121 -120 309q0 198 137 321q123 109 302 109q66 0 121 -15q43 -11 122 -38q31 -11 51 -11q46 0 53 47z" />
    <glyph glyph-name="trademark" unicode="&#x2122;" horiz-adv-x="2450" 
d="M39 1365h921v-292h-77v21q0 92 -29 136q-38 58 -127 58h-154v-560q0 -41 10 -59q26 -45 130 -46h35v-77h-494v77h36q70 1 104 20q21 12 28.5 30t7.5 55v560h-138q-97 0 -136 -48q-27 -31 -34 -87q-5 -33 -7 -80h-76v292zM1731 715l328 650h337v-77h-35q-70 0 -104 -20
q-21 -12 -28.5 -29.5t-7.5 -54.5v-457q0 -41 10 -59q27 -44 130 -45h36v-77h-496v77h35q70 1 104 20q21 12 28.5 29.5t7.5 54.5v497l-339 -678h-74l-349 678v-497q0 -41 10 -59q27 -44 130 -45h36v-77h-438v77h36q70 1 104 20q21 12 28.5 29.5t7.5 54.5v457q0 41 -10 59
q-26 45 -130 45h-35v77h345z" />
    <glyph glyph-name="acute" unicode="&#xb4;" 
d="M785 1376l-237 -273h-159l159 273h237z" />
    <glyph glyph-name="dieresis" unicode="&#xa8;" 
d="M750 1356q48 0 82 -33q35 -34 35 -83q0 -48 -33 -82q-35 -36 -85 -36q-49 0 -83 34q-33 33 -33 83t31 82q33 35 86 35zM274 1356q48 0 82 -33q35 -34 35 -83q0 -48 -33 -82q-35 -36 -85 -36q-49 0 -83 34q-33 33 -33 83t31 82q34 35 86 35z" />
    <glyph glyph-name="notequal" unicode="&#x2260;" 
d="M552 911l126 253l121 -54l-100 -199h257v-151h-320l-96 -197h416v-151h-474l-124 -250l-121 54l97 196h-266v151h324l96 197h-419v151h483z" />
    <glyph glyph-name="AE" unicode="&#xc6;" horiz-adv-x="2506" 
d="M1479 107h468q105 0 168 35.5t99 115.5q46 110 54 262h98v-520h-1377v107h44q114 1 173 35q54 31 63 91q3 14 3 63v201h-575l-114 -159q-58 -81 -58 -141q0 -49 47 -73q33 -17 138 -17h63v-107h-762v107h50q122 0 192 43q43 26 99 80t95 108l521 712q66 90 66 143
q0 65 -164 65h-68v107h1564v-469h-98q-21 156 -49 213q-48 109 -164 135q-57 14 -161 14h-415v-497h164q134 0 188 61q39 39 52 121q7 45 11 107h95v-712h-95q-7 140 -22 182q-29 96 -108 121q-38 13 -117 13h-168v-547zM772 595h500v682z" />
    <glyph glyph-name="Oslash" unicode="&#xd8;" horiz-adv-x="1770" 
d="M274 197q-102 111 -150 229.5t-48 259.5q0 218 126 397q123 174 329 258q156 63 351 63q327 0 542 -164l200 187l69 -77l-193 -179q72 -76 110 -147q90 -170 90 -348q0 -136 -55.5 -264.5t-157.5 -226.5q-231 -224 -598 -224q-227 0 -412 87q-53 24 -126 78l-204 -180
l-69 72zM416 321l875 803q-59 52 -105 81q-130 82 -290 82q-130 0 -249.5 -55.5t-203.5 -153.5q-134 -159 -134 -403q0 -141 52 -255q18 -39 55 -99zM477 242q114 -91 204 -128t199 -37q163 0 312 94q271 171 271 511q0 148 -51 262q-18 40 -55 97z" />
    <glyph glyph-name="infinity" unicode="&#x221e;" horiz-adv-x="1365" 
d="M685 612q-155 -225 -341 -225q-157 0 -242 111q-64 83 -64 201q0 171 131 256q79 52 175 52q186 0 336 -225q151 225 343 225q158 0 244 -115q60 -82 60 -197q0 -148 -96 -233q-86 -76 -206 -76q-192 0 -340 226zM746 697q36 -56 66 -92q91 -106 199 -106q87 0 141 63
q46 54 46 134q0 104 -72 158q-53 40 -117 40q-111 0 -204 -114q-12 -15 -36 -48.5t-23 -34.5zM619 696q-35 55 -67 92q-91 106 -199 106q-86 0 -140 -63q-46 -54 -46 -135q0 -103 72 -157q52 -40 117 -40q111 0 204 114q11 15 35.5 48.5t23.5 34.5z" />
    <glyph glyph-name="plusminus" unicode="&#xb1;" 
d="M43 773h419v396h98v-396h420v-94h-420v-390h-98v390h-419v94zM43 198h937v-94h-937v94z" />
    <glyph glyph-name="lessequal" unicode="&#x2264;" 
d="M955 1232v-171l-689 -265l689 -263v-171l-887 357v156zM955 303v-159h-887v159h887z" />
    <glyph glyph-name="greaterequal" unicode="&#x2265;" 
d="M68 362v171l689 263l-689 265v171l887 -357v-156zM68 144v159h887v-159h-887z" />
    <glyph glyph-name="yen" unicode="&#xa5;" horiz-adv-x="1423" 
d="M828 635h186v-123h-217v-109h217v-123h-217q1 -69 26 -108q45 -64 177 -65h38v-107h-655v107h37q150 1 189 84q13 31 14 89h-213v123h213v109h-213v123h183l-291 475q-62 99 -108 122q-51 26 -137 26h-37v107h661v-107h-55q-138 0 -138 -84q0 -35 17 -63l32 -55l210 -370
l233 371q42 67 42 112q0 52 -41 71q-39 18 -117 18h-32v107h572v-107h-29q-82 1 -144 -42q-69 -46 -142 -164z" />
    <glyph glyph-name="mu" unicode="&#xb5;" 
d="M99 -341v1324h156v-551q0 -100 12 -146q25 -92 112 -145q58 -35 124 -35q135 0 206 116q60 100 60 228v533h156v-983h-156v182q-34 -87 -80 -132q-76 -76 -189 -76q-105 0 -179 64q-31 27 -66 85v-464h-156z" />
    <glyph glyph-name="partialdiff" unicode="&#x2202;" 
d="M168 1233l21 138q175 -23 289 -72q256 -109 384 -363q99 -197 99 -442q0 -193 -82 -318q-65 -100 -171 -153q-91 -45 -195 -45q-152 0 -274 94q-84 64 -130 160t-46 206q0 97 38.5 189t105.5 154q117 109 277 109q58 0 116.5 -16.5t95.5 -43.5q26 -19 87 -88
q-14 29 -68 153q-14 34 -58 89t-79 84q-36 29 -101.5 65.5t-117.5 56.5q-76 28 -191 43zM520 759q-44 0 -96.5 -18.5t-88.5 -47.5q-53 -41 -85 -111.5t-32 -145.5q0 -141 96 -236q86 -84 198 -84q102 0 183 69q109 92 109 258q0 160 -99 246q-80 70 -185 70z" />
    <glyph glyph-name="summation" unicode="&#x2211;" horiz-adv-x="1365" 
d="M1229 1536v-475h-157l-17 315h-793l509 -825l-508 -905h811l9 319h165v-477h-1178v184l497 879l-497 804v181h1159z" />
    <glyph glyph-name="product" unicode="&#x220f;" horiz-adv-x="1365" 
d="M53 1536h1259v-140h-150v-1767h150v-141h-459v141h153v1767h-646v-1767h150v-141h-457v141h152v1767h-152v140z" />
    <glyph glyph-name="pi" unicode="&#x3c0;" horiz-adv-x="1153" 
d="M188 0v849h-148v131h1074v-131h-148v-849h-162v849h-454v-849h-162z" />
    <glyph glyph-name="integral" unicode="&#x222b;" 
d="M187 -490l35 161q44 -20 81 -20q84 0 107 70q9 27 10 188v1176q1 146 2 173q3 119 57 184q77 94 222 94q58 0 136 -22l-34 -162q-44 21 -82 21q-83 0 -107 -70q-10 -30 -10 -138v-1222q0 -177 -6 -219q-19 -135 -116 -189q-79 -43 -199 -43q-51 0 -96 18z" />
    <glyph glyph-name="ordfeminine" unicode="&#xaa;" horiz-adv-x="811" 
d="M505 647q-20 -32 -58 -59q-81 -60 -186 -60q-94 0 -146 47q-53 47 -53 113q0 92 98 139q57 28 121 44l113 27q57 14 77 25q32 18 32 48q0 42 -52 69q-39 21 -90 21q-75 0 -114 -38q24 -18 24 -43q0 -32 -25 -53t-57 -21q-35 0 -58 21q-27 25 -27 63q0 74 88 109
q75 30 172 30q108 0 177 -40q46 -26 66 -71.5t20 -122.5v-190q0 -55 7 -69q10 -19 35 -19q27 0 37 25q9 22 9 79v61h71v-96q0 -75 -38 -114q-41 -44 -108 -44q-114 0 -135 119zM505 866q-26 -19 -49 -29q-13 -5 -95 -28q-95 -28 -128 -58q-29 -26 -29 -60q0 -39 33 -61
q23 -15 55 -15q85 0 153 61q55 51 57 113z" />
    <glyph glyph-name="ordmasculine" unicode="&#xba;" horiz-adv-x="780" 
d="M393 1129q142 0 239 -88q43 -39 67 -101q23 -59 23 -116q0 -67 -28.5 -126.5t-79.5 -97.5q-94 -71 -224 -71q-145 0 -242 85q-41 36 -65.5 93t-24.5 118q0 68 29 130t78 101q95 73 228 73zM388 1058q-82 0 -132 -59q-55 -66 -55 -174q0 -107 55 -168q50 -57 134 -57
t135 57q54 61 54 167q0 109 -55 175q-49 59 -136 59z" />
    <glyph glyph-name="Omega" unicode="&#x2126;" horiz-adv-x="1364" 
d="M57 0v151h364q-367 215 -367 595q0 312 234 509q170 143 394 143q225 0 395 -143q234 -196 234 -510q0 -379 -367 -594h364v-151h-535v141q132 73 212 167q151 182 151 408q0 254 -170 414q-122 116 -282 116q-162 0 -285 -116q-170 -159 -170 -412q0 -378 363 -577v-141
h-535z" />
    <glyph glyph-name="ae" unicode="&#xe6;" horiz-adv-x="1822" 
d="M814 247q-44 -93 -122 -158q-141 -118 -295 -118q-141 0 -239 93q-77 72 -77 175q0 123 101 196q136 97 391 140q134 22 176 58q44 38 44 86q0 80 -91 127q-61 31 -148 31q-131 0 -203 -75q44 -23 44 -71q0 -46 -27 -77q-33 -37 -89 -37t-90 37q-32 34 -32 89
q0 53 33.5 99t90.5 73q110 50 269 50q157 0 265 -54q51 -25 99 -83q59 57 107 84q96 53 242 53q305 0 429 -236q57 -110 60 -300h-785q12 -98 49 -170q44 -84 119.5 -130.5t167.5 -46.5q76 0 147 35t120 97q22 28 46 73h111q-37 -118 -125 -198q-129 -118 -323 -118
q-206 0 -360 134q-67 58 -105 142zM789 557q-43 -23 -65 -35q-47 -25 -128 -49q-164 -50 -220 -82q-94 -53 -94 -141q0 -73 60 -120q44 -33 97 -33q133 0 246 105q96 90 96 193q0 12 -2 42q-1 21 -1 41q0 37 11 79zM965 527h586q-3 87 -30 155q-70 176 -255 176
q-158 0 -244 -145q-46 -77 -57 -186z" />
    <glyph glyph-name="oslash" unicode="&#xf8;" horiz-adv-x="1220" 
d="M190 148q-98 144 -98 327q0 221 145 356t372 135q189 0 342 -98l119 112l72 -74l-118 -113q105 -139 105 -335q0 -195 -121 -326q-71 -77 -176 -119t-227 -42q-191 0 -336 101l-118 -112l-76 78zM324 273l513 491q-32 41 -75 65q-74 40 -155 40q-165 0 -257 -148
q-65 -104 -65 -256q0 -117 39 -192zM387 184q27 -37 61 -61q80 -54 168 -54q67 0 132.5 34.5t108.5 92.5q82 110 82 290q0 104 -40 187z" />
    <glyph glyph-name="questiondown" unicode="&#xbf;" horiz-adv-x="1318" 
d="M760 627q1 -88 -23 -155q-19 -52 -47 -88q-36 -46 -101 -107q-81 -75 -124 -138q-37 -54 -37 -129q0 -113 98 -182q69 -49 182 -49q179 0 253 105q-31 9 -48.5 38.5t-17.5 69.5q0 46 26 79q32 42 87 42q57 0 92 -43q39 -46 39 -112q0 -159 -212 -246q-109 -45 -246 -45
q-161 0 -298 64q-203 95 -203 277q0 105 59 177q59 71 162 135q137 85 163 109q67 58 81 138q4 18 6 60h109zM700 965q47 0 81 -34q33 -33 33 -83q0 -49 -31 -82q-33 -35 -84 -35q-50 0 -84 33q-35 34 -35 83t33 82q36 36 87 36z" />
    <glyph glyph-name="exclamdown" unicode="&#xa1;" horiz-adv-x="774" 
d="M432 624v-30q2 -182 69 -677q7 -54 7 -96q0 -71 -37 -116q-30 -37 -89 -37q-50 0 -84 38q-38 43 -38 111q0 45 32 252q53 391 63 526v29h77zM400 965q47 0 81 -34q33 -33 33 -83t-31 -82q-33 -35 -84 -35q-50 0 -84 33q-35 34 -35 83t33 82q36 36 87 36z" />
    <glyph glyph-name="logicalnot" unicode="&#xac;" 
d="M778 0v412h-710v159h887v-571h-177z" />
    <glyph glyph-name="radical" unicode="&#x221a;" horiz-adv-x="1365" 
d="M1365 1693v-144h-389l-452 -1549h-190l-168 593h-166v144h267l83 -278q9 -29 58 -246l7 -33h9q9 39 45 180l53 212l97 330l230 791h516z" />
    <glyph glyph-name="florin" unicode="&#x192;" horiz-adv-x="1423" 
d="M688 965h-219l19 99h218l16 91q30 174 150 280q108 96 259 96q123 0 185 -64q50 -50 50 -119q0 -74 -42 -117q-30 -30 -82 -30q-44 0 -74 28q-34 31 -34 80q0 72 72 96q-29 41 -80 41q-100 0 -168 -96q-44 -62 -63 -172l-20 -114h248l-19 -99h-248l-147 -862
q-30 -173 -150 -280q-109 -96 -261 -96q-122 0 -181 68q-47 54 -47 123q0 62 37 106q33 38 86 38q45 0 73 -30q30 -32 30 -80q0 -75 -71 -99q29 -41 80 -41q100 0 168 96q44 61 63 173z" />
    <glyph glyph-name="approxequal" unicode="&#x2248;" 
d="M116 712l-95 66q107 237 281 237q76 0 237 -79q98 -48 128 -57q32 -9 58 -9q70 0 118 51q27 29 65 88l95 -65q-104 -235 -298 -235q-31 0 -74 13q-43 14 -170 77q-108 53 -170 53q-57 0 -104 -46q-31 -31 -71 -94zM116 350l-95 65q107 237 281 237q76 0 237 -79
q98 -48 128 -57q32 -9 58 -9q70 0 118 51q27 29 65 88l95 -65q-103 -235 -298 -235q-32 0 -74 13t-170 77q-108 53 -170 53q-57 0 -104 -46q-31 -31 -71 -93z" />
    <glyph glyph-name="Delta" unicode="&#x2206;" horiz-adv-x="1280" 
d="M13 0l537 1365h178l539 -1365h-1254zM236 151h805l-401 1029z" />
    <glyph glyph-name="guillemotleft" unicode="&#xab;" horiz-adv-x="941" 
d="M825 717l-245 -239l245 -239h-155l-241 239l241 239h155zM513 717l-245 -239l245 -239h-155l-241 239l241 239h155z" />
    <glyph glyph-name="guillemotright" unicode="&#xbb;" horiz-adv-x="941" 
d="M117 717h154l242 -239l-242 -239h-154l245 239zM429 717h154l242 -239l-242 -239h-154l245 239z" />
    <glyph glyph-name="ellipsis" unicode="&#x2026;" horiz-adv-x="1813" 
d="M302 215q48 0 82 -33q35 -34 35 -83q0 -48 -33 -82q-35 -36 -85 -36q-49 0 -83 34q-33 33 -33 83t31 82q34 35 86 35zM906 215q48 0 82 -33q35 -34 35 -83q0 -48 -33 -82q-35 -36 -85 -36q-49 0 -83 34q-33 33 -33 83t31 82q34 35 86 35zM1511 215q48 0 82 -33
q35 -34 35 -83q0 -48 -33 -82q-35 -36 -85 -36q-49 0 -83 34q-33 33 -33 83t31 82q34 35 86 35z" />
    <glyph glyph-name="glyph172" horiz-adv-x="1423" 
 />
    <glyph glyph-name="Agrave" unicode="&#xc0;" horiz-adv-x="1831" 
d="M531 488l-93 -178q-30 -57 -30 -93q0 -38 40 -74t147 -36h69v-107h-703v107h60q132 2 207 96q64 79 145 223l503 939h77l548 -1010q59 -108 83 -138q53 -64 108 -90q41 -19 114 -20h64v-107h-791v107h68q184 0 184 99q0 41 -27 93l-99 189h-674zM584 585h568l-283 555z
M533 1764h273l218 -234h-192z" />
    <glyph glyph-name="Atilde" unicode="&#xc3;" horiz-adv-x="1831" 
d="M531 488l-93 -178q-30 -57 -30 -93q0 -38 40 -74t147 -36h69v-107h-703v107h60q132 2 207 96q64 79 145 223l503 939h77l548 -1010q59 -108 83 -138q53 -64 108 -90q41 -19 114 -20h64v-107h-791v107h68q184 0 184 99q0 41 -27 93l-99 189h-674zM584 585h568l-283 555z
M1373 1744q-38 -72 -66 -106q-58 -70 -158 -96q-36 -10 -73 -10q-59 0 -119 14l-161 38q-78 18 -123 18q-82 0 -132 -71l-82 18q117 206 293 206q51 0 104 -12l142 -33q107 -25 157 -25q95 0 144 77z" />
    <glyph glyph-name="Otilde" unicode="&#xd5;" horiz-adv-x="1782" 
d="M914 1404q152 0 296 -51.5t251 -143.5q140 -120 202 -289q40 -111 40 -230q0 -253 -161 -447q-139 -168 -356 -239q-132 -43 -290 -43q-333 0 -548 169q-151 119 -223 310q-45 120 -45 242q0 212 122 393q131 195 393 280q151 49 319 49zM885 1287q-116 0 -227.5 -55
t-192.5 -152q-144 -172 -144 -399q0 -115 41 -226t114 -194q84 -94 201 -144q103 -45 212 -45q113 0 220.5 47.5t186.5 132.5q78 84 122 197.5t44 233.5q0 112 -37.5 218t-105.5 184q-83 97 -196 149.5t-238 52.5zM1348 1744q-38 -72 -66 -106q-58 -70 -158 -96
q-36 -10 -73 -10q-59 0 -119 14l-161 38q-78 18 -123 18q-82 0 -132 -71l-82 18q117 206 293 206q51 0 104 -12l142 -33q107 -25 157 -25q95 0 144 77z" />
    <glyph glyph-name="OE" unicode="&#x152;" horiz-adv-x="2520" 
d="M1493 107h421q99 0 161.5 18.5t102.5 59.5q58 59 80 165q15 74 24 178h98v-528h-976q-115 0 -195 -11q-214 -28 -309 -28q-348 0 -574 187q-122 102 -187.5 239t-65.5 293q0 209 116 388q113 172 299 256q177 80 405 80q73 0 250 -24q112 -16 262 -15h975v-468h-98
q-11 137 -30 185q-39 109 -125 148q-62 28 -163 28h-471v-502h175q154 1 201 80q23 36 33 115q6 41 12 98h98v-704h-98q-1 118 -13 158q-27 95 -97 129q-46 21 -138 22h-173v-547zM1294 308v741q0 58 -30 109t-80 76q-120 60 -313 60q-255 0 -417 -203q-148 -185 -148 -413
q0 -125 48.5 -242t136.5 -204q170 -167 419 -167q155 0 274 62q80 42 102 109q8 24 8 72z" />
    <glyph glyph-name="oe" unicode="&#x153;" horiz-adv-x="1957" 
d="M999 167q-44 -73 -119 -120q-124 -76 -294 -76q-235 0 -368 124q-69 65 -108.5 167.5t-39.5 219.5q0 212 139 343q149 140 388 140q191 0 327 -103q49 -36 75 -81q137 184 399 184q306 0 431 -252q57 -115 58 -284h-789q10 -101 43 -165q42 -82 117 -130q81 -51 179 -51
q195 0 305 201h117q-29 -82 -71 -137q-133 -176 -376 -176q-259 0 -413 196zM580 866q-112 0 -200 -78q-53 -47 -83 -129.5t-30 -180.5q0 -192 105 -305q88 -96 213 -96q140 0 234 113q85 102 85 288q0 185 -99 294q-86 94 -225 94zM1096 527h593q-40 334 -289 334
q-174 0 -262 -167q-37 -72 -42 -167z" />
    <glyph glyph-name="endash" unicode="&#x2013;" horiz-adv-x="1423" 
d="M1157 547v-137h-890v137h890z" />
    <glyph glyph-name="emdash" unicode="&#x2014;" horiz-adv-x="1509" 
d="M1509 547v-137h-1509v137h1509z" />
    <glyph glyph-name="quotedblleft" unicode="&#x201c;" horiz-adv-x="1114" 
d="M487 1343q-60 -36 -100 -92q-40 -58 -43 -112q20 8 34 8q29 0 55 -13q50 -27 50 -90q0 -46 -30 -78q-34 -35 -88 -35q-68 0 -105 56q-23 36 -23 87q0 127 80 221q46 53 134 109zM877 1343q-60 -36 -100 -92q-39 -58 -43 -112q20 8 35 8q28 0 54 -13q50 -27 50 -90
q0 -46 -30 -78q-34 -35 -88 -35q-68 0 -105 56q-23 36 -23 87q0 127 80 221q46 53 134 109z" />
    <glyph glyph-name="quotedblright" unicode="&#x201d;" horiz-adv-x="1114" 
d="M237 993q60 36 100 91q39 58 43 113q-20 -8 -35 -8q-28 0 -53 13q-50 27 -50 89q0 46 30 78q34 35 88 35q68 0 104 -56q23 -36 23 -87q0 -57 -22 -117.5t-58 -102.5q-46 -54 -133 -110zM627 993q60 36 100 91q40 59 43 113q-20 -8 -35 -8q-28 0 -53 13q-50 27 -50 89
q0 46 30 78q34 35 88 35q67 0 104 -56q23 -36 23 -87q0 -57 -22 -117.5t-58 -102.5q-46 -54 -133 -110z" />
    <glyph glyph-name="quoteleft" unicode="&#x2018;" horiz-adv-x="724" 
d="M487 1343q-60 -36 -100 -92q-40 -58 -43 -112q20 8 34 8q29 0 55 -13q50 -27 50 -90q0 -46 -30 -78q-34 -35 -88 -35q-68 0 -105 56q-23 36 -23 87q0 127 80 221q46 53 134 109z" />
    <glyph glyph-name="quoteright" unicode="&#x2019;" horiz-adv-x="724" 
d="M237 993q60 36 100 91q39 58 43 113q-20 -8 -35 -8q-28 0 -53 13q-50 27 -50 89q0 46 30 78q34 35 88 35q68 0 104 -56q23 -36 23 -87q0 -57 -22 -117.5t-58 -102.5q-46 -54 -133 -110z" />
    <glyph glyph-name="divide" unicode="&#xf7;" 
d="M43 750h937v-94h-937v94zM513 1162q34 0 59 -24q25 -25 25 -61t-26 -61q-25 -24 -59 -24t-59 24q-26 25 -26 61t26 61q25 24 60 24zM513 413q35 0 61 -26q23 -24 23 -59q0 -36 -26 -61q-25 -24 -59 -24t-59 24q-26 25 -26 61q0 35 24 59q25 26 62 26z" />
    <glyph glyph-name="lozenge" unicode="&#x25ca;" horiz-adv-x="1365" 
d="M683 1419l531 -736l-531 -736l-532 736zM683 1238l-404 -555l404 -554l403 554z" />
    <glyph glyph-name="ydieresis" unicode="&#xff;" horiz-adv-x="1296" 
d="M689 134l263 528q33 66 33 101q0 76 -179 76h-45v97h547v-97q-88 -2 -126 -24q-45 -27 -94 -120l-471 -906q-75 -144 -152 -196q-76 -51 -161 -51q-100 0 -173 62q-66 57 -66 146q0 63 35 99q37 38 89 38q56 0 88 -43q24 -32 24 -68q0 -43 -31 -73q-20 -20 -52 -22
q43 -38 83 -38q71 0 135 60q38 36 89 129l67 120l-374 742q-40 80 -91.5 112.5t-138.5 32.5v97h622v-97q-97 0 -130 -5q-89 -13 -89 -64q0 -35 49 -133zM954 1356q48 0 82 -33q35 -34 35 -83q0 -48 -33 -82q-35 -36 -85 -36q-49 0 -83 34q-33 33 -33 83t31 82q33 35 86 35z
M478 1356q48 0 82 -33q35 -34 35 -83q0 -48 -33 -82q-35 -36 -85 -36q-49 0 -83 34q-33 33 -33 83t31 82q34 35 86 35z" />
    <glyph glyph-name="Ydieresis" unicode="&#x178;" horiz-adv-x="1705" 
d="M840 686l273 371q22 30 33 49q17 28 17 62q0 53 -48 72q-47 18 -139 18h-37v107h673v-107h-34q-95 0 -169 -42q-82 -45 -168 -164l-342 -467v-289q0 -73 18 -106q47 -82 221 -83h44v-107h-771v107h44q114 1 173 35q54 31 63 91q3 14 3 63v289l-378 525q-73 99 -128 122
q-60 26 -160 26h-44v107h778v-107h-64q-163 0 -163 -85q0 -34 19 -62l39 -55zM1168 1764q47 0 82 -33q35 -34 35 -84q0 -47 -33 -81q-35 -36 -85 -36q-49 0 -83 34q-33 33 -33 83t31 82q34 35 86 35zM537 1764q48 0 82 -33q35 -34 35 -83q0 -48 -33 -82q-35 -36 -85 -36
q-49 0 -83 34q-33 34 -33 83q0 50 31 82q34 35 86 35z" />
    <glyph glyph-name="fraction" unicode="&#x2215;" horiz-adv-x="234" 
d="M636 1238l-956 -1291l-82 63l957 1291z" />
    <glyph glyph-name="currency" unicode="&#xa4;" horiz-adv-x="1416" 
d="M132 223l189 192q-95 133 -95 286q0 109 56 213q15 26 43 69l-197 194l97 97l196 -195q57 36 93 54q90 44 194 44q113 0 215 -56q25 -14 68 -42l196 194l96 -96l-193 -192q99 -142 99 -288q0 -109 -53 -211q-14 -26 -42 -70l193 -193l-96 -97l-192 192q-136 -99 -281 -99
q-139 0 -298 99l-192 -192zM704 1024q-129 0 -223 -95t-94 -229t94 -228q94 -95 227 -95t227 95q94 94 94 227q0 137 -94 230q-96 95 -231 95z" />
    <glyph glyph-name="guilsinglleft" unicode="&#x2039;" horiz-adv-x="629" 
d="M513 717l-245 -239l245 -239h-155l-241 239l241 239h155z" />
    <glyph glyph-name="guilsinglright" unicode="&#x203a;" horiz-adv-x="629" 
d="M117 717h154l242 -239l-242 -239h-154l245 239z" />
    <glyph glyph-name="fi" unicode="&#xf001;" horiz-adv-x="1402" 
d="M276 838h-219v98h219v82q0 175 137 280q125 96 329 96q189 0 305 -70q109 -66 109 -166q0 -53 -35 -88q-34 -34 -85 -34q-43 0 -73 26q-37 33 -37 85q0 71 63 94q-99 68 -241 68q-161 0 -245 -92q-58 -63 -58 -176v-105h248v-98h-248v-485q0 -123 7 -146q15 -59 60 -84
q48 -25 138 -25h43v-98h-636v98h28q77 0 103 11q51 19 70 66q17 42 18 170v493zM1150 936v-634q1 -93 17 -130q27 -59 103 -71q25 -3 75 -3v-98h-572v98h20q93 0 128 21q45 25 57 92q6 33 6 87v339q0 103 -26 145q-20 33 -61 45q-38 11 -104 11h-20v98h377z" />
    <glyph glyph-name="fl" unicode="&#xf002;" horiz-adv-x="1384" 
d="M1133 1365v-1063q1 -93 17 -130q27 -59 103 -71q25 -3 75 -3v-98h-572v98h20q93 0 128 21q45 25 56 92q7 35 7 87v769q0 102 -31 142q-79 101 -222 101q-139 0 -218 -95q-51 -61 -51 -174v-105h248v-98h-248v-485q0 -123 7 -146q15 -59 60 -84q48 -25 138 -25h43v-98
h-636v98h28q77 0 103 11q51 19 70 66q17 42 18 170v493h-219v98h219v82q0 179 133 289q119 99 323 99q144 0 258 -41h143z" />
    <glyph glyph-name="daggerdbl" unicode="&#x2021;" horiz-adv-x="1240" 
d="M653 930l304 66q15 3 30 3q50 0 78 -34q27 -31 27 -68q0 -52 -46 -85q-28 -20 -58 -20q-17 0 -43 7l-292 73q30 -208 30 -327t-30 -327l292 73q26 7 43 7q37 0 68 -28q36 -32 36 -77q0 -43 -34 -76q-26 -26 -72 -26q-15 0 -29 3l-304 66l73 -335q3 -14 3 -27
q0 -48 -32 -80q-31 -32 -77 -32q-54 0 -86 40q-24 30 -24 70q0 14 3 29l73 335l-304 -66q-14 -3 -29 -3q-51 0 -79 34q-27 31 -27 68q0 52 46 85q28 20 58 20q17 0 44 -7l292 -73q-30 208 -30 327t30 327l-292 -73q-26 -7 -44 -7q-36 0 -67 28q-37 32 -37 77q0 43 34 76
q27 26 71 26q16 0 30 -3l304 -66l-73 335q-3 15 -3 29q0 46 32 78q31 32 78 32q53 0 85 -41q24 -30 24 -71q0 -13 -3 -27z" />
    <glyph glyph-name="periodcentered" unicode="&#x2219;" horiz-adv-x="1423" 
d="M711 595q48 0 82 -33q35 -34 35 -83q0 -48 -33 -82q-35 -36 -85 -36q-49 0 -83 34q-33 33 -33 83t31 82q34 35 86 35z" />
    <glyph glyph-name="quotesinglbase" unicode="&#x201a;" horiz-adv-x="604" 
d="M177 -197q60 37 100 92q39 57 43 113q-19 -8 -35 -8q-29 0 -53 13q-50 27 -50 89q0 47 30 78q34 35 88 35q67 0 104 -56q23 -36 23 -87q0 -57 -22 -117.5t-58 -103.5q-46 -53 -133 -109z" />
    <glyph glyph-name="quotedblbase" unicode="&#x201e;" horiz-adv-x="1125" 
d="M627 -215q63 38 105 95q41 61 45 118q-22 -8 -38 -8q-29 0 -55 14q-52 28 -52 93q0 48 31 81q36 37 93 37q70 0 109 -59q24 -37 24 -90q0 -60 -23 -123.5t-61 -107.5q-47 -55 -140 -114zM237 -215q63 38 104 95q42 61 46 118q-22 -8 -38 -8q-29 0 -55 14q-52 28 -52 93
q0 48 31 81q36 37 92 37q71 0 109 -59q24 -38 24 -90q0 -60 -23 -123.5t-61 -107.5q-46 -55 -139 -114z" />
    <glyph glyph-name="perthousand" unicode="&#x2030;" horiz-adv-x="2510" 
d="M397 1259q153 0 247 -101q83 -89 83 -222q0 -172 -127 -261q-84 -59 -209 -59q-147 0 -236 81q-100 91 -100 242q0 150 107 242q90 78 235 78zM392 1190q-104 0 -163 -102q-34 -60 -34 -145q0 -123 65 -197q53 -59 136 -59q96 0 151 80q49 70 49 178q0 98 -47 163
q-59 82 -157 82zM1376 1238l-955 -1291l-82 63l956 1291zM1330 633q153 0 248 -101q83 -89 83 -222q0 -172 -128 -261q-83 -59 -208 -59q-148 0 -237 81q-100 91 -100 242q0 150 107 242q90 78 235 78zM1325 564q-104 0 -163 -102q-34 -60 -34 -145q0 -123 66 -197
q52 -59 135 -59q97 0 152 80q49 71 49 178q0 98 -47 163q-59 82 -158 82zM2126 633q153 0 247 -101q83 -89 83 -222q0 -172 -127 -261q-84 -59 -209 -59q-147 0 -236 81q-100 91 -100 242q0 150 107 242q90 78 235 78zM2121 564q-104 0 -163 -102q-34 -60 -34 -145
q0 -123 65 -197q53 -59 136 -59q96 0 151 80q49 71 49 178q0 98 -47 163q-59 82 -157 82z" />
    <glyph glyph-name="Acircumflex" unicode="&#xc2;" horiz-adv-x="1831" 
d="M531 488l-93 -178q-30 -57 -30 -93q0 -38 40 -74t147 -36h69v-107h-703v107h60q132 2 207 96q64 79 145 223l503 939h77l548 -1010q59 -108 83 -138q53 -64 108 -90q41 -19 114 -20h64v-107h-791v107h68q184 0 184 99q0 41 -27 93l-99 189h-674zM584 585h568l-283 555z
M916 1802l404 -200l-114 -111l-290 139l-290 -139l-115 111z" />
    <glyph glyph-name="Ecircumflex" unicode="&#xca;" horiz-adv-x="1587" 
d="M552 107h448q92 0 132.5 8t73.5 32q84 63 113 203q12 59 23 172h97v-522h-1369v107h44q114 1 173 35q54 31 63 91q3 14 3 63v773q0 73 -18 106q-47 82 -221 83h-44v107h1369v-473h-97q-11 150 -34 203q-41 104 -135 140q-63 23 -170 23h-451v-502h215q119 1 164 93
q22 45 27 96q4 42 5 102h98v-707h-98q-2 118 -12 158q-23 96 -72 130q-36 25 -112 26h-215v-547zM794 1802l404 -200l-114 -111l-290 139l-290 -139l-115 111z" />
    <glyph glyph-name="Aacute" unicode="&#xc1;" horiz-adv-x="1831" 
d="M531 488l-93 -178q-30 -57 -30 -93q0 -38 40 -74t147 -36h69v-107h-703v107h60q132 2 207 96q64 79 145 223l503 939h77l548 -1010q59 -108 83 -138q53 -64 108 -90q41 -19 114 -20h64v-107h-791v107h68q184 0 184 99q0 41 -27 93l-99 189h-674zM584 585h568l-283 555z
M1297 1764l-299 -234h-192l218 234h273z" />
    <glyph glyph-name="Edieresis" unicode="&#xcb;" horiz-adv-x="1587" 
d="M552 107h448q92 0 132.5 8t73.5 32q84 63 113 203q12 59 23 172h97v-522h-1369v107h44q114 1 173 35q54 31 63 91q3 14 3 63v773q0 73 -18 106q-47 82 -221 83h-44v107h1369v-473h-97q-11 150 -34 203q-41 104 -135 140q-63 23 -170 23h-451v-502h215q119 1 164 93
q22 45 27 96q4 42 5 102h98v-707h-98q-2 118 -12 158q-23 96 -72 130q-36 25 -112 26h-215v-547zM1109 1764q47 0 82 -33q35 -34 35 -84q0 -47 -33 -81q-35 -36 -85 -36q-49 0 -83 34q-33 33 -33 83t31 82q34 35 86 35zM478 1764q48 0 82 -33q35 -34 35 -83q0 -48 -33 -82
q-35 -36 -85 -36q-49 0 -83 34q-33 34 -33 83q0 50 31 82q34 35 86 35z" />
    <glyph glyph-name="Egrave" unicode="&#xc8;" horiz-adv-x="1587" 
d="M552 107h448q92 0 132.5 8t73.5 32q84 63 113 203q12 59 23 172h97v-522h-1369v107h44q114 1 173 35q54 31 63 91q3 14 3 63v773q0 73 -18 106q-47 82 -221 83h-44v107h1369v-473h-97q-11 150 -34 203q-41 104 -135 140q-63 23 -170 23h-451v-502h215q119 1 164 93
q22 45 27 96q4 42 5 102h98v-707h-98q-2 118 -12 158q-23 96 -72 130q-36 25 -112 26h-215v-547zM411 1764h273l218 -234h-192z" />
    <glyph glyph-name="Iacute" unicode="&#xcd;" horiz-adv-x="941" 
d="M368 296v773q0 73 -18 106q-48 82 -221 83h-44v107h771v-107h-44q-115 -1 -173 -35q-54 -31 -63 -90q-3 -14 -3 -64v-773q0 -73 18 -106q47 -82 221 -83h44v-107h-771v107h44q114 1 173 35q54 31 63 91q3 14 3 63zM852 1764l-299 -234h-192l218 234h273z" />
    <glyph glyph-name="Icircumflex" unicode="&#xce;" horiz-adv-x="941" 
d="M368 296v773q0 73 -18 106q-48 82 -221 83h-44v107h771v-107h-44q-115 -1 -173 -35q-54 -31 -63 -90q-3 -14 -3 -64v-773q0 -73 18 -106q47 -82 221 -83h44v-107h-771v107h44q114 1 173 35q54 31 63 91q3 14 3 63zM471 1802l404 -200l-114 -111l-290 139l-290 -139
l-115 111z" />
    <glyph glyph-name="Idieresis" unicode="&#xcf;" horiz-adv-x="941" 
d="M368 296v773q0 73 -18 106q-48 82 -221 83h-44v107h771v-107h-44q-115 -1 -173 -35q-54 -31 -63 -90q-3 -14 -3 -64v-773q0 -73 18 -106q47 -82 221 -83h44v-107h-771v107h44q114 1 173 35q54 31 63 91q3 14 3 63zM718 1764q47 0 82 -33q35 -34 35 -84q0 -47 -33 -81
q-35 -36 -85 -36q-49 0 -83 34q-33 33 -33 83t31 82q34 35 86 35zM223 1764q48 0 82 -33q35 -34 35 -83q0 -48 -33 -82q-35 -36 -85 -36q-49 0 -83 34q-33 34 -33 83q0 50 31 82q34 35 86 35z" />
    <glyph glyph-name="Igrave" unicode="&#xcc;" horiz-adv-x="941" 
d="M368 296v773q0 73 -18 106q-48 82 -221 83h-44v107h771v-107h-44q-115 -1 -173 -35q-54 -31 -63 -90q-3 -14 -3 -64v-773q0 -73 18 -106q47 -82 221 -83h44v-107h-771v107h44q114 1 173 35q54 31 63 91q3 14 3 63zM88 1764h273l218 -234h-192z" />
    <glyph glyph-name="Oacute" unicode="&#xd3;" horiz-adv-x="1782" 
d="M914 1404q152 0 296 -51.5t251 -143.5q140 -120 202 -289q40 -111 40 -230q0 -253 -161 -447q-139 -168 -356 -239q-132 -43 -290 -43q-333 0 -548 169q-151 119 -223 310q-45 120 -45 242q0 212 122 393q131 195 393 280q151 49 319 49zM885 1287q-116 0 -227.5 -55
t-192.5 -152q-144 -172 -144 -399q0 -115 41 -226t114 -194q84 -94 201 -144q103 -45 212 -45q113 0 220.5 47.5t186.5 132.5q78 84 122 197.5t44 233.5q0 112 -37.5 218t-105.5 184q-83 97 -196 149.5t-238 52.5zM1273 1764l-299 -234h-192l218 234h273z" />
    <glyph glyph-name="Ocircumflex" unicode="&#xd4;" horiz-adv-x="1782" 
d="M914 1404q152 0 296 -51.5t251 -143.5q140 -120 202 -289q40 -111 40 -230q0 -253 -161 -447q-139 -168 -356 -239q-132 -43 -290 -43q-333 0 -548 169q-151 119 -223 310q-45 120 -45 242q0 212 122 393q131 195 393 280q151 49 319 49zM885 1287q-116 0 -227.5 -55
t-192.5 -152q-144 -172 -144 -399q0 -115 41 -226t114 -194q84 -94 201 -144q103 -45 212 -45q113 0 220.5 47.5t186.5 132.5q78 84 122 197.5t44 233.5q0 112 -37.5 218t-105.5 184q-83 97 -196 149.5t-238 52.5zM891 1802l404 -200l-114 -111l-290 139l-290 -139l-115 111
z" />
    <glyph glyph-name="apple" unicode="&#xf000;" horiz-adv-x="1365" 
d="M984 1416v-20q0 -162 -127 -266q-80 -65 -146 -68q-13 -1 -31 -1q0 141 82 239q91 104 222 116zM1277 935q-65 -49 -98 -92q-67 -84 -67 -192q0 -150 111 -250q34 -31 92 -56q-65 -161 -139 -256q-110 -143 -208 -143q-39 0 -82 18l-83 34q-17 7 -75 7q-73 0 -98 -10
l-87 -35q-41 -17 -79 -17q-54 0 -113.5 43.5t-112.5 123.5q-172 256 -172 526q0 176 100 306q103 135 281 135q67 0 160 -36q68 -26 101 -26q31 0 85 21q71 27 101 35q36 10 87 10q189 0 296 -146z" />
    <glyph glyph-name="Ograve" unicode="&#xd2;" horiz-adv-x="1782" 
d="M914 1404q152 0 296 -51.5t251 -143.5q140 -120 202 -289q40 -111 40 -230q0 -253 -161 -447q-139 -168 -356 -239q-132 -43 -290 -43q-333 0 -548 169q-151 119 -223 310q-45 120 -45 242q0 212 122 393q131 195 393 280q151 49 319 49zM885 1287q-116 0 -227.5 -55
t-192.5 -152q-144 -172 -144 -399q0 -115 41 -226t114 -194q84 -94 201 -144q103 -45 212 -45q113 0 220.5 47.5t186.5 132.5q78 84 122 197.5t44 233.5q0 112 -37.5 218t-105.5 184q-83 97 -196 149.5t-238 52.5zM509 1764h273l218 -234h-192z" />
    <glyph glyph-name="Uacute" unicode="&#xda;" horiz-adv-x="1942" 
d="M536 1069v-553q0 -222 156 -345q117 -93 321 -93q220 0 348 106q124 104 124 296v589q0 73 -18 106q-48 82 -221 83h-44v107h693v-107h-44q-115 -1 -173 -35q-54 -31 -63 -90q-3 -14 -3 -64v-589q0 -274 -180 -403q-162 -116 -446 -116q-291 0 -469 130
q-187 138 -187 407v571q0 73 -18 106q-48 82 -221 83h-44v107h772v-107h-44q-115 -1 -173 -35q-54 -31 -63 -90q-3 -13 -3 -64zM1394 1764l-299 -234h-192l218 234h273z" />
    <glyph glyph-name="Ucircumflex" unicode="&#xdb;" horiz-adv-x="1942" 
d="M536 1069v-553q0 -222 156 -345q117 -93 321 -93q220 0 348 106q124 104 124 296v589q0 73 -18 106q-48 82 -221 83h-44v107h693v-107h-44q-115 -1 -173 -35q-54 -31 -63 -90q-3 -14 -3 -64v-589q0 -274 -180 -403q-162 -116 -446 -116q-291 0 -469 130
q-187 138 -187 407v571q0 73 -18 106q-48 82 -221 83h-44v107h772v-107h-44q-115 -1 -173 -35q-54 -31 -63 -90q-3 -13 -3 -64zM1012 1802l404 -200l-114 -111l-290 139l-290 -139l-115 111z" />
    <glyph glyph-name="Ugrave" unicode="&#xd9;" horiz-adv-x="1942" 
d="M536 1069v-553q0 -222 156 -345q117 -93 321 -93q220 0 348 106q124 104 124 296v589q0 73 -18 106q-48 82 -221 83h-44v107h693v-107h-44q-115 -1 -173 -35q-54 -31 -63 -90q-3 -14 -3 -64v-589q0 -274 -180 -403q-162 -116 -446 -116q-291 0 -469 130
q-187 138 -187 407v571q0 73 -18 106q-48 82 -221 83h-44v107h772v-107h-44q-115 -1 -173 -35q-54 -31 -63 -90q-3 -13 -3 -64zM630 1764h273l218 -234h-192z" />
    <glyph glyph-name="dotlessi" unicode="&#x131;" horiz-adv-x="689" 
d="M438 936v-634q1 -93 17 -130q27 -59 103 -71q25 -3 75 -3v-98h-572v98h20q93 0 128 21q45 25 57 92q6 33 6 87v339q0 103 -26 145q-20 33 -62 45q-37 11 -103 11h-20v98h377z" />
    <glyph glyph-name="circumflex" unicode="&#x2c6;" 
d="M512 1407l344 -227l-111 -109l-233 157l-234 -157l-111 109z" />
    <glyph glyph-name="tilde" unicode="&#x2dc;" 
d="M864 1336q-20 -104 -72 -157.5t-134 -53.5q-45 0 -87 13q-37 11 -101 33q-115 39 -164 39q-69 0 -81 -66h-64q15 83 44 126q58 84 156 84q54 0 160 -41q116 -45 178 -45q83 0 98 68h67z" />
    <glyph glyph-name="macron" unicode="&#x2c9;" 
d="M863 1170h-702v139h702v-139z" />
    <glyph glyph-name="breve" unicode="&#x2d8;" 
d="M157 1371h78q36 -45 105 -69q82 -29 172 -29q99 0 185 34q59 23 91 64h80q-14 -102 -87 -167q-108 -97 -269 -97q-173 0 -282 109q-64 63 -73 155z" />
    <glyph glyph-name="dotaccent" unicode="&#x2d9;" 
d="M512 1356q48 0 82 -33q35 -34 35 -83q0 -48 -33 -82q-35 -36 -85 -36q-49 0 -83 34q-33 33 -33 83t31 82q34 35 86 35z" />
    <glyph glyph-name="ring" unicode="&#x2da;" 
d="M515 1479q88 0 151 -65q65 -65 65 -156q0 -89 -64 -152q-64 -62 -153 -62q-91 0 -155 63q-66 64 -66 155q0 88 62 151q66 66 160 66zM510 1355q-40 0 -67 -30q-25 -29 -25 -65q0 -40 29 -68q27 -26 65 -26q39 0 66 28q26 27 26 65q0 41 -29 69q-27 27 -65 27z" />
    <glyph glyph-name="cedilla" unicode="&#xb8;" 
d="M475 0h85l-17 -125q68 -7 100 -27q53 -33 53 -100q0 -79 -73 -120q-49 -27 -118 -27q-149 0 -177 139h90q15 -63 81 -63q33 0 53 17q20 18 20 48q0 40 -34 62q-23 15 -55 15q-12 0 -33 -3z" />
    <glyph glyph-name="hungarumlaut" unicode="&#x2dd;" 
d="M661 1356l-299 -234h-192l218 234h273zM1087 1356l-299 -234h-193l218 234h274z" />
    <glyph glyph-name="ogonek" unicode="&#x2db;" 
d="M479 0h143q-56 -24 -90 -52q-67 -56 -67 -117q0 -35 24 -61q21 -22 55 -22q44 0 79 17q26 13 43 21l33 -71q-95 -80 -187 -80q-82 0 -135 52q-52 51 -52 117q0 122 154 196z" />
    <glyph glyph-name="caron" unicode="&#x2c7;" 
d="M512 1071l-345 228l111 108l234 -157l233 157l111 -108z" />
    <glyph glyph-name="Lslash" unicode="&#x141;" horiz-adv-x="1417" 
d="M545 107h385q218 2 285 175q24 68 42 240h98v-522h-1293v108h44q115 0 173 34q54 32 63 91q3 14 3 63v210l-224 -172v129l224 172v434q0 73 -18 106q-48 83 -221 83h-44v107h785v-107h-63q-114 -1 -173 -35q-54 -31 -63 -90q-3 -14 -3 -64v-321l309 238v-129l-309 -237
v-513z" />
    <glyph glyph-name="lslash" unicode="&#x142;" horiz-adv-x="677" 
d="M420 1365v-536l201 155v-130l-201 -154v-398q1 -93 17 -130q26 -59 103 -71q25 -3 75 -3v-98h-572v98h20q93 0 128 21q45 25 56 92q7 36 7 87v295l-201 -154v130l201 154v344q0 103 -26 145q-20 32 -62 45q-37 11 -103 11h-20v97h377z" />
    <glyph glyph-name="Scaron" unicode="&#x160;" horiz-adv-x="1477" 
d="M97 0v504h97q29 -150 84 -216q85 -103 263 -165q135 -47 257 -47q174 0 301 90q106 75 106 194q0 113 -94 179q-55 38 -165 47l-298 25q-207 17 -283 40q-137 40 -204 153q-52 88 -52 188q0 198 178 314q151 98 365 98q201 0 343 -65q110 -49 158 -49q32 0 48 28
q6 11 14 47h97v-428h-97q-17 71 -34 109.5t-48 70.5q-82 87 -230 135q-115 37 -232 37q-155 0 -256 -70q-117 -80 -117 -197q0 -100 103 -152q45 -23 171 -33l285 -22q205 -16 284 -48q134 -54 204 -170q55 -93 55 -200q0 -129 -77 -238q-72 -102 -220 -155
q-123 -43 -262 -43q-202 0 -381 77q-125 53 -184 53q-18 0 -38.5 -10.5t-29.5 -24.5q-13 -19 -14 -56h-97zM739 1491l-405 201l115 110l290 -138l290 138l114 -110z" />
    <glyph glyph-name="scaron" unicode="&#x161;" horiz-adv-x="1047" 
d="M120 0v363h88q18 -94 56 -145q43 -58 120 -96q87 -44 179 -44q94 0 160 48q62 45 62 116q0 66 -55 106q-35 26 -129 37l-214 24q-127 15 -195 76q-90 80 -90 195q0 125 110 209q101 76 245 76q87 0 165 -20q34 -9 101 -39q28 -13 50 -13q32 0 39 43h78v-303h-78
q-26 104 -80 155q-90 88 -236 88q-102 0 -166 -47q-61 -45 -61 -114q0 -59 46 -91q30 -21 102 -28l223 -24q164 -17 238 -96q80 -86 80 -195q0 -152 -132 -241q-101 -69 -232 -69q-78 0 -168 30q-36 13 -134 53q-23 9 -40 9q-33 0 -44 -63h-88zM523 1071l-345 228l111 108
l234 -157l233 157l111 -108z" />
    <glyph glyph-name="Zcaron" unicode="&#x17d;" horiz-adv-x="1445" 
d="M347 107h620q111 1 162 36q73 49 110 155q21 57 38 199h98v-497h-1305v97l985 1161h-543q-192 -2 -264 -104q-32 -45 -44 -131q-4 -27 -8 -121h-98v463h1230v-97zM723 1491l-405 201l115 110l290 -138l290 138l114 -110z" />
    <glyph glyph-name="zcaron" unicode="&#x17e;" horiz-adv-x="1106" 
d="M77 98l697 740h-349q-77 0 -121 -12t-68 -39q-31 -36 -38 -95q-5 -40 -5 -95v-40h-97v379h904v-98l-695 -740h372q97 0 131 15q64 25 88 87q15 41 18 117l2 84h103v-401h-942v98zM553 1071l-345 228l111 108l234 -157l233 157l111 -108z" />
    <glyph glyph-name="brokenbar" unicode="&#xa6;" 
d="M421 1365h182v-689h-182v689zM421 314h182v-655h-182v655z" />
    <glyph glyph-name="Eth" unicode="&#xd0;" horiz-adv-x="1734" 
d="M345 657h-254v101h254v311q0 73 -18 106q-47 82 -221 83h-44v107h848q270 0 432 -105q171 -109 256 -291q63 -135 63 -287q0 -283 -207 -486q-200 -196 -489 -196h-903v107h44q114 1 173 35q54 31 63 91q3 14 3 63v361zM546 107h221q161 0 275.5 34t201.5 108
q185 158 185 431q0 250 -159 409q-99 101 -228 135q-127 34 -283 34h-213v-500h351v-101h-351v-550z" />
    <glyph glyph-name="eth" unicode="&#xf0;" horiz-adv-x="1201" 
d="M244 1316l35 67q31 -8 159 -51q84 -27 117 -44l216 140l48 -61l-179 -115q114 -65 169.5 -106.5t110.5 -102.5q203 -228 203 -529q0 -220 -100 -354q-141 -190 -415 -190q-240 0 -389 146q-140 136 -140 358q0 276 234 416q129 77 251 77q91 0 194 -41q29 -11 66 -46
q-79 130 -149 197q-58 56 -141 111l-215 -142l-47 64l186 119q-51 27 -108.5 50t-105.5 37zM597 867q-139 0 -222 -104q-92 -115 -92 -303q0 -184 92 -293q83 -99 226 -99q142 0 226 99q92 108 92 292q0 190 -92 304q-83 104 -230 104z" />
    <glyph glyph-name="Yacute" unicode="&#xdd;" horiz-adv-x="1705" 
d="M895 686l273 371q22 30 33 49q17 28 17 62q0 53 -48 72q-47 18 -139 18h-37v107h673v-107h-34q-95 0 -169 -42q-82 -45 -168 -164l-342 -467v-289q0 -73 18 -106q47 -82 221 -83h44v-107h-771v107h44q114 1 173 35q54 31 63 91q3 14 3 63v289l-378 525q-73 99 -128 122
q-60 26 -160 26h-44v107h778v-107h-64q-163 0 -163 -85q0 -34 19 -62l39 -55zM1303 1764l-299 -234h-192l218 234h273z" />
    <glyph glyph-name="yacute" unicode="&#xfd;" horiz-adv-x="1296" 
d="M689 134l263 528q33 66 33 101q0 76 -179 76h-45v97h547v-97q-88 -2 -126 -24q-45 -27 -94 -120l-471 -906q-75 -144 -152 -196q-76 -51 -161 -51q-100 0 -173 62q-66 57 -66 146q0 63 35 99q37 38 89 38q56 0 88 -43q24 -32 24 -68q0 -43 -31 -73q-20 -20 -52 -22
q43 -38 83 -38q71 0 135 60q38 36 89 129l67 120l-374 742q-40 80 -91.5 112.5t-138.5 32.5v97h622v-97q-97 0 -130 -5q-89 -13 -89 -64q0 -35 49 -133zM1017 1376l-237 -273h-159l159 273h237z" />
    <glyph glyph-name="Thorn" unicode="&#xde;" horiz-adv-x="1395" 
d="M560 1092h291q257 0 364 -117q93 -102 93 -236q0 -82 -37 -156.5t-103 -124.5q-101 -78 -324 -78h-284v-84q0 -73 18 -106q47 -82 221 -83h44v-107h-771v107h44q114 1 173 35q54 31 63 91q3 14 3 63v773q0 73 -18 106q-48 82 -221 83h-44v107h770v-107h-44
q-173 0 -220 -83q-16 -31 -18 -83zM560 985v-498h232q148 0 229 75q68 64 68 171q0 119 -85 189q-75 63 -220 63h-224z" />
    <glyph glyph-name="thorn" unicode="&#xfe;" horiz-adv-x="1258" 
d="M372 767q140 198 358 198q208 0 332 -143q117 -135 117 -354q0 -199 -111 -335q-134 -162 -330 -162q-141 0 -257 86q-67 50 -109 130v-239q2 -178 38 -227q36 -54 130 -55h42v-95h-592v97h20q96 1 131 21q46 25 58 92q7 35 7 88v1198q0 104 -26 145q-20 32 -62 45
q-37 11 -103 11h-20v97h377v-598zM372 534v-114q10 -86 41 -149q45 -94 132 -147q62 -38 133 -38q162 0 252 165q53 98 53 228q0 171 -93 278q-84 95 -210 95q-110 0 -195 -74q-92 -80 -113 -244z" />
    <glyph glyph-name="minus" unicode="&#x2212;" 
d="M43 750h937v-94h-937v94z" />
    <glyph glyph-name="multiply" unicode="&#xd7;" 
d="M191 1091l321 -321l322 323l69 -68l-324 -323l323 -321l-67 -67l-321 322l-323 -323l-69 68l324 323l-322 321z" />
    <glyph glyph-name="onesuperior" unicode="&#xb9;" horiz-adv-x="920" 
d="M532 1266v-558q0 -90 7 -101q15 -36 103 -38h35v-77h-435v77h42q71 0 92 16q16 13 19 35q4 14 4 87v301q-1 67 -27 84t-91 17h-21v82h22q137 -1 181 75h69z" />
    <glyph glyph-name="twosuperior" unicode="&#xb2;" horiz-adv-x="920" 
d="M759 723v-230h-622q9 120 64 191q43 57 216 132q136 58 172 103q37 47 37 100q0 78 -68 125q-49 33 -120 33q-89 0 -143 -45q-28 -24 -35 -65q95 0 95 -77q0 -39 -29 -65q-24 -21 -61 -21q-54 0 -87 40q-29 35 -29 90q0 105 91 168q92 63 227 63q127 0 214 -61
q101 -71 101 -186q0 -126 -112 -200q-46 -31 -199 -82q-110 -38 -144 -57q-32 -17 -65 -69h297q73 1 94 22q25 25 25 70v21h81z" />
    <glyph glyph-name="threesuperior" unicode="&#xb3;" horiz-adv-x="920" 
d="M324 926h108q201 0 201 126q0 68 -72 107q-52 28 -119 28q-93 0 -172 -55q50 -24 50 -72q0 -37 -27 -61q-23 -21 -57 -21q-39 0 -66 26q-25 25 -25 63q0 93 111 151q91 48 204 48q128 0 224 -52q47 -26 75.5 -70t28.5 -92q0 -77 -63 -123q-28 -21 -94 -39
q176 -58 176 -196q0 -107 -120 -168q-100 -51 -228 -51q-135 0 -238 50q-108 52 -108 146q0 40 26 66q25 26 66 26q44 0 69 -29q20 -23 20 -55q0 -49 -47 -74q50 -30 86 -38q37 -9 83 -9q113 0 173 46q54 41 54 109q0 78 -66 111q-51 25 -170 25h-83v77z" />
    <glyph glyph-name="onehalf" unicode="&#xbd;" horiz-adv-x="2075" 
d="M532 1266v-558q0 -90 7 -101q15 -36 103 -38h35v-77h-435v77h42q71 0 92 16q16 13 19 35q4 14 4 87v301q-1 67 -27 84t-91 17h-21v82h22q137 -1 181 75h69zM1555 1238l-956 -1291l-82 63l957 1291zM1913 231v-231h-622q11 125 64 193q45 57 216 131q136 58 172 103
q37 47 37 100q0 79 -68 125q-49 33 -120 33q-89 0 -143 -45q-28 -24 -35 -65q95 0 95 -77q0 -39 -29 -65q-24 -21 -61 -21q-55 0 -87 40q-29 36 -29 90q0 105 91 168q92 63 227 63q128 0 214 -61q101 -71 101 -186q0 -126 -112 -200q-45 -30 -199 -82q-110 -38 -144 -57
q-33 -18 -64 -69h296q73 1 94 22q25 25 25 70v21h81z" />
    <glyph glyph-name="onequarter" unicode="&#xbc;" horiz-adv-x="2074" 
d="M532 1266v-558q0 -90 7 -101q15 -36 103 -38h35v-77h-435v77h42q71 0 92 16q16 13 19 35q4 14 4 87v301q-1 67 -27 84t-91 17h-21v82h22q137 -1 181 75h69zM1555 1238l-956 -1291l-82 63l957 1291zM1818 773v-471h145v-77h-145v-13q2 -100 31 -118q23 -17 78 -17h25v-77
h-412v77h26q65 1 87 14q21 11 27 31q8 21 8 89v14h-423v80l486 468h67zM1688 604l-308 -302h308v302z" />
    <glyph glyph-name="threequarters" unicode="&#xbe;" horiz-adv-x="2074" 
d="M324 926h108q201 0 201 126q0 68 -72 107q-52 28 -119 28q-93 0 -172 -55q50 -24 50 -72q0 -37 -27 -61q-23 -21 -57 -21q-39 0 -66 26q-25 25 -25 63q0 93 111 151q91 48 204 48q128 0 224 -52q47 -26 75.5 -70t28.5 -92q0 -77 -63 -123q-28 -21 -94 -39
q176 -58 176 -196q0 -107 -120 -168q-100 -51 -228 -51q-135 0 -238 50q-108 52 -108 146q0 40 26 66q25 26 66 26q44 0 69 -29q20 -23 20 -55q0 -49 -47 -74q50 -30 86 -38q37 -9 83 -9q113 0 173 46q54 41 54 109q0 78 -66 111q-51 25 -170 25h-83v77zM1555 1238
l-955 -1291l-82 63l957 1291zM1818 773v-471h146v-77h-146v-13q2 -100 31 -118q23 -17 78 -17h25v-77h-412v77h26q65 1 87 14q21 11 27 31q8 21 8 89v14h-423v80l486 468h67zM1688 604l-308 -302h308v302z" />
    <glyph glyph-name="franc" unicode="&#x20a3;" horiz-adv-x="2448" 
d="M543 654v-358q0 -73 18 -106q47 -82 221 -83h44v-107h-764v107h44q114 1 173 35q54 31 63 91q3 14 3 63v773q0 73 -18 106q-47 82 -221 83h-44v107h1346v-473h-98q0 144 -18 197q-35 108 -127 145q-59 24 -170 24h-452v-502h216q185 -2 197 301h97v-717h-97
q-6 120 -18 162q-39 148 -179 152h-216zM1880 674q47 104 92 164q96 127 231 127q98 0 151 -73q38 -52 38 -114q0 -72 -46 -120q-34 -35 -85 -35q-45 0 -78 31q-32 31 -32 74q0 62 57 81q13 5 36 5q-30 52 -80 52q-105 0 -201 -179q-81 -152 -81 -345q0 -169 60 -215
q43 -32 139 -32h31v-95h-587v98q96 -1 139 25q39 25 51 82q6 28 6 97v332q-1 93 -17 130q-26 59 -103 71q-25 3 -76 3v98h355v-262z" />
    <glyph glyph-name="Gbreve" unicode="&#x11e;" horiz-adv-x="1742" 
d="M434 1778h87q41 -44 117 -68q90 -29 191 -29q111 0 207 34q64 23 101 63h89q-10 -60 -33 -98q-45 -69 -137 -115q-101 -50 -227 -50q-192 0 -313 108q-50 44 -68 92q-9 22 -14 63zM1297 178q-75 -80 -145 -121q-165 -96 -364 -96q-298 0 -506 215q-201 209 -201 512
q0 283 172 480q206 236 540 236q110 0 223 -26q43 -10 144 -45q56 -19 87 -19q71 0 76 71h98v-511h-98q-8 112 -48 188q-59 109 -172 173q-119 66 -258 66q-260 0 -412 -207q-122 -165 -122 -390q0 -263 162 -438q78 -84 179 -131t204 -47q149 0 266 95q112 91 112 195
q0 30 -21.5 62t-49.5 44q-52 22 -181 22h-30v98h756v-98h-24q-110 0 -141 -10q-77 -23 -101 -94q-15 -42 -15 -118v-282h-58z" />
    <glyph glyph-name="gbreve" unicode="&#x11f;" horiz-adv-x="1382" 
d="M254 1371h78q36 -45 105 -69q82 -29 172 -29q99 0 185 34q59 23 91 64h80q-14 -102 -87 -167q-108 -97 -269 -97q-173 0 -282 109q-64 63 -73 155zM961 814q36 58 91.5 89.5t122.5 31.5q94 0 151 -76q41 -55 41 -121q0 -62 -44 -104q-33 -32 -80 -32q-40 0 -71 26
q-38 32 -38 79q0 83 103 95q-30 36 -74 36q-85 0 -149 -95q33 -69 33 -144q0 -98 -69 -186q-63 -80 -178 -123q-101 -38 -220 -38q-137 0 -248 66q-125 -29 -125 -120q0 -57 54 -85q35 -18 152 -18h421q215 0 298 -66q36 -29 57.5 -75.5t21.5 -94.5q0 -117 -104 -201
q-142 -116 -495 -116q-222 0 -372 44q-75 21 -129 74q-54 52 -54 125q0 74 72 133q31 26 76 45q-50 21 -78 50q-59 63 -59 144q0 104 91 167q41 28 100 41q-111 102 -111 235q0 161 133 264q130 101 314 101q134 0 241 -53q54 -27 125 -98zM586 873q-110 0 -185 -80
q-71 -76 -71 -185q0 -130 91 -208q70 -61 173 -61q114 0 191 75q76 74 76 184t-68 186q-80 89 -207 89zM798 -64h-356q-96 0 -173 -25q-91 -29 -91 -115q0 -72 96 -112q103 -43 299 -43q183 0 296 27q147 35 147 135q0 59 -58 95q-63 38 -160 38z" />
    <glyph glyph-name="Idot" unicode="&#x130;" horiz-adv-x="941" 
d="M470 1764q48 0 82 -33q35 -34 35 -84q0 -47 -32 -81q-36 -36 -86 -36q-49 0 -83 34q-33 33 -33 83t31 82q33 35 86 35zM368 296v773q0 73 -18 106q-48 82 -221 83h-44v107h771v-107h-44q-115 -1 -173 -35q-54 -31 -63 -90q-3 -14 -3 -64v-773q0 -73 18 -106
q47 -82 221 -83h44v-107h-771v107h44q114 1 173 35q54 31 63 91q3 14 3 63z" />
    <glyph glyph-name="Scedilla" unicode="&#x15e;" horiz-adv-x="1477" 
d="M786 -37l-12 -82q149 -24 149 -134q0 -79 -75 -121q-42 -24 -104 -24q-150 0 -188 130h96q21 -45 69 -45q26 0 47 16q19 15 19 41q0 30 -23 51q-19 17 -50 17q-19 0 -42 -8l25 169q-134 20 -237 65q-125 53 -184 53q-18 0 -38.5 -10.5t-29.5 -24.5q-13 -19 -14 -56h-97
v504h97q29 -150 84 -216q85 -103 263 -165q135 -47 257 -47q174 0 301 90q106 75 106 194q0 113 -94 179q-55 38 -165 47l-298 25q-207 17 -283 40q-137 40 -204 153q-52 88 -52 188q0 198 178 314q151 98 365 98q201 0 343 -65q110 -49 158 -49q32 0 48 28q6 11 14 47h97
v-428h-97q-17 71 -34 109.5t-48 70.5q-82 87 -230 135q-115 37 -232 37q-155 0 -256 -70q-117 -80 -117 -197q0 -100 103 -152q45 -23 171 -33l285 -22q205 -16 284 -48q134 -54 204 -170q55 -93 55 -200q0 -129 -77 -238q-72 -102 -220 -154q-123 -44 -264 -44q-20 0 -53 2
z" />
    <glyph glyph-name="scedilla" unicode="&#x15f;" horiz-adv-x="1047" 
d="M567 -29l-13 -95q68 -8 100 -27q53 -33 53 -101q0 -79 -73 -120q-49 -27 -118 -27q-149 0 -177 139h90q15 -63 81 -63q33 0 53 17q20 18 20 48q0 40 -34 62q-22 15 -56 15q-12 0 -32 -2l23 167q-62 16 -192 70q-23 9 -40 9q-33 0 -44 -63h-88v363h88q18 -94 56 -145
q43 -58 120 -96q87 -44 179 -44q94 0 160 48q62 45 62 116q0 66 -55 106q-35 26 -129 37l-214 24q-127 15 -195 76q-90 80 -90 195q0 125 110 209q101 76 245 76q87 0 165 -20q34 -9 101 -39q28 -13 50 -13q32 0 39 43h78v-303h-78q-26 104 -80 155q-90 88 -236 88
q-102 0 -166 -47q-61 -45 -61 -114q0 -59 46 -91q30 -21 102 -28l223 -24q164 -17 238 -96q80 -86 80 -195q0 -152 -132 -242q-101 -68 -231 -68h-28z" />
    <glyph glyph-name="Cacute" unicode="&#x106;" horiz-adv-x="1588" 
d="M1217 1764l-299 -234h-192l218 234h273zM1392 1377h97v-505h-92q-25 160 -95 243q-62 74 -165 121q-127 57 -266 57q-266 0 -419 -190q-150 -185 -150 -410q0 -122 49.5 -239t136.5 -203q155 -153 373 -153q158 0 302 88q101 62 163 153q22 33 53 100h131
q-42 -146 -136 -247q-216 -231 -547 -231q-160 0 -302.5 55.5t-243.5 157.5q-200 202 -200 515q0 330 228 533q205 182 504 182q112 0 202 -24q67 -18 202 -64q52 -18 86 -18q37 0 60 20.5t29 58.5z" />
    <glyph glyph-name="cacute" unicode="&#x107;" horiz-adv-x="1054" 
d="M896 1376l-237 -273h-159l159 273h237zM998 282q-97 -311 -427 -311q-178 0 -312 108q-78 64 -125 161q-55 112 -55 236q0 101 38.5 194t107.5 159q142 136 383 136q139 0 233 -53q126 -71 126 -184q0 -54 -36 -93q-34 -35 -85 -35q-43 0 -73 27q-38 33 -38 83
q0 61 59 88q-68 76 -186 76q-71 0 -136.5 -32t-106.5 -86q-83 -110 -83 -278q0 -164 81 -270q44 -57 109 -89.5t137 -32.5q145 0 231 115q27 35 41 81h117z" />
    <glyph glyph-name="Ccaron" unicode="&#x10c;" horiz-adv-x="1588" 
d="M835 1491l-405 201l115 110l290 -138l290 138l114 -110zM1392 1377h97v-505h-92q-25 160 -95 243q-62 74 -165 121q-127 57 -266 57q-266 0 -419 -190q-150 -185 -150 -410q0 -122 49.5 -239t136.5 -203q155 -153 373 -153q158 0 302 88q101 62 163 153q22 33 53 100h131
q-42 -146 -136 -247q-216 -231 -547 -231q-160 0 -302.5 55.5t-243.5 157.5q-200 202 -200 515q0 330 228 533q205 182 504 182q112 0 202 -24q67 -18 202 -64q52 -18 86 -18q37 0 60 20.5t29 58.5z" />
    <glyph glyph-name="ccaron" unicode="&#x10d;" horiz-adv-x="1054" 
d="M569 1071l-345 228l111 108l234 -157l233 157l111 -108zM998 282q-97 -311 -427 -311q-178 0 -312 108q-78 64 -125 161q-55 112 -55 236q0 101 38.5 194t107.5 159q142 136 383 136q139 0 233 -53q126 -71 126 -184q0 -54 -36 -93q-34 -35 -85 -35q-43 0 -73 27
q-38 33 -38 83q0 61 59 88q-68 76 -186 76q-71 0 -136.5 -32t-106.5 -86q-83 -110 -83 -278q0 -164 81 -270q44 -57 109 -89.5t137 -32.5q145 0 231 115q27 35 41 81h117z" />
    <glyph glyph-name="dmacron" unicode="&#x111;" horiz-adv-x="1294" 
d="M885 179q-65 -92 -130 -137q-106 -72 -240 -72q-194 0 -311 139q-126 150 -126 366q0 206 118 335q122 135 338 135t351 -169v265h-333v102h333v18q4 106 -191 107h-20v97h379v-222h156v-102h-156v-739q1 -93 17 -130q26 -59 103 -71q25 -3 76 -3v-98h-364v179zM573 837
q-69 0 -133 -36t-107 -98q-62 -90 -62 -224q0 -170 86 -286q88 -117 214 -117q74 0 142.5 41.5t113.5 114.5q65 103 65 246q0 159 -92 257q-94 102 -227 102z" />
    <glyph glyph-name="nbspace" unicode="&#xa0;" horiz-adv-x="614" 
 />
    <glyph glyph-name="sfthyphen" unicode="&#xad;" horiz-adv-x="503" 
d="M503 547v-137h-503v137h503z" />
    <glyph glyph-name="overscore" unicode="&#xaf;" 
d="M0 1754h1024v-113h-1024v113z" />
    <glyph glyph-name="middot" unicode="&#xb7;" horiz-adv-x="1423" 
d="M711 595q48 0 82 -33q35 -34 35 -83q0 -48 -33 -82q-35 -36 -85 -36q-49 0 -83 34q-33 33 -33 83t31 82q34 35 86 35z" />
    <glyph glyph-name="glyph262" 
d="M675 1356q48 0 82 -33q35 -34 35 -83q0 -48 -33 -82q-35 -36 -85 -36q-49 0 -83 34q-33 33 -33 83t31 82q33 35 86 35zM349 1356q48 0 82 -33q35 -34 35 -83q0 -48 -33 -82q-35 -36 -85 -36q-49 0 -83 34q-33 33 -33 83t31 82q34 35 86 35z" />
    <glyph glyph-name="glyph263" 
d="M512 1491l-405 201l115 110l290 -138l290 138l114 -110z" />
    <glyph glyph-name="glyph264" 
d="M116 1778h87q41 -44 117 -68q90 -29 191 -29q111 0 207 34q64 23 101 63h89q-10 -60 -33 -98q-45 -69 -137 -115q-101 -50 -227 -50q-192 0 -313 108q-50 44 -68 92q-9 22 -14 63z" />
    <glyph glyph-name="glyph265" 
d="M512 1802l404 -200l-114 -111l-290 139l-290 -139l-115 111z" />
    <glyph glyph-name="glyph266" 
d="M130 1764h273l218 -234h-192z" />
    <glyph glyph-name="glyph267" 
d="M894 1764l-299 -234h-192l218 234h273z" />
    <glyph glyph-name="glyph268" 
d="M827 1764q47 0 82 -33q35 -34 35 -84q0 -47 -33 -81q-35 -36 -85 -36q-49 0 -83 34q-33 33 -33 83t31 82q34 35 86 35zM196 1764q48 0 82 -33q35 -34 35 -83q0 -48 -33 -82q-35 -36 -85 -36q-49 0 -83 34q-33 34 -33 83q0 50 31 82q34 35 86 35z" />
    <glyph glyph-name="glyph269" 
d="M969 1744q-38 -72 -66 -106q-58 -70 -158 -96q-36 -10 -73 -10q-59 0 -119 14l-161 38q-78 18 -123 18q-82 0 -132 -71l-82 18q117 206 293 206q51 0 104 -12l142 -33q107 -25 157 -25q95 0 144 77z" />
    <glyph glyph-name="glyph270" 
d="M760 1764q47 0 82 -33q35 -34 35 -84q0 -47 -33 -81q-35 -36 -85 -36q-49 0 -83 34q-33 33 -33 83t31 82q34 35 86 35zM265 1764q48 0 82 -33q35 -34 35 -83q0 -48 -33 -82q-35 -36 -85 -36q-49 0 -83 34q-33 34 -33 83q0 50 31 82q34 35 86 35z" />
    <glyph glyph-name="glyph271" 
d="M515 1877q88 0 151 -65q65 -65 65 -156q0 -89 -64 -152q-64 -62 -154 -62t-154 63q-66 63 -66 154q0 90 62 152q66 66 160 66zM510 1753q-40 0 -67 -30q-25 -28 -25 -65q0 -40 29 -68q26 -26 65 -26t66 28q26 28 26 65q0 41 -29 69q-27 27 -65 27z" />
    <glyph glyph-name="glyph272" 
d="M512 1764q48 0 82 -33q35 -34 35 -84q0 -47 -32 -81q-36 -36 -86 -36q-49 0 -83 34q-33 33 -33 83t31 82q33 35 86 35z" />
    <glyph glyph-name="glyph273" horiz-adv-x="614" 
 />
    </font>
</defs>
</svg>
