<?xml version="1.0" standalone="no"?>
<!DOCTYPE svg PUBLIC "-//W3C//DTD SVG 20010904//EN"
 "http://www.w3.org/TR/2001/REC-SVG-20010904/DTD/svg10.dtd">
<svg version="1.0" xmlns="http://www.w3.org/2000/svg"
 width="700.000000pt" height="700.000000pt" viewBox="0 0 700.000000 700.000000"
 preserveAspectRatio="xMidYMid meet">
<metadata>
Created by potrace 1.14, written by Peter Selinger 2001-2017
</metadata>
<g transform="translate(0.000000,700.000000) scale(0.100000,-0.100000)"
fill="#000000" stroke="none">
<path d="M5208 6675 c-2 -2 -62 -6 -133 -10 -72 -3 -170 -8 -220 -10 -85 -4
-170 -8 -465 -20 -69 -3 -172 -7 -230 -10 -184 -9 -340 -15 -510 -20 -261 -7
-378 -17 -426 -35 -27 -11 -191 -116 -281 -181 -34 -24 -71 -51 -83 -59 -12
-8 -44 -31 -71 -50 -128 -92 -190 -135 -554 -385 -214 -148 -401 -277 -415
-287 -14 -11 -63 -47 -110 -80 -47 -34 -98 -75 -113 -92 -16 -17 -148 -191
-294 -386 -316 -422 -344 -460 -360 -480 -7 -8 -139 -184 -293 -390 -155 -206
-287 -382 -294 -391 -45 -55 -147 -201 -166 -237 -17 -33 -23 -63 -25 -135 -2
-50 -6 -164 -10 -252 -3 -88 -8 -214 -10 -280 -2 -66 -6 -178 -10 -250 -7
-169 -14 -349 -20 -516 -3 -74 -7 -181 -10 -239 -2 -58 -7 -177 -10 -265 -7
-192 -12 -336 -21 -552 -6 -160 -6 -161 16 -168 13 -4 187 -88 389 -187 201
-99 407 -199 456 -223 50 -23 160 -76 247 -118 86 -42 171 -78 190 -81 121
-18 289 -28 728 -41 200 -6 435 -16 495 -21 28 -2 154 -6 280 -10 273 -6 227
-18 565 143 69 33 150 72 180 86 82 38 245 114 335 157 216 102 318 150 320
150 1 0 78 36 169 80 92 44 169 80 170 80 2 0 64 29 137 64 182 86 440 208
639 300 274 128 331 158 355 190 13 17 94 155 181 306 180 314 255 444 269
468 16 27 101 174 123 212 10 19 48 85 82 145 35 61 77 135 93 165 17 30 51
86 75 124 54 84 72 137 67 208 -2 29 -6 91 -9 138 -4 47 -8 105 -11 130 -2 25
-7 89 -10 143 -3 54 -8 121 -10 150 -2 29 -6 93 -10 142 -3 50 -8 106 -10 125
-2 19 -7 85 -10 145 -4 61 -8 128 -10 150 -2 22 -6 87 -10 145 -3 58 -8 125
-10 150 -2 25 -7 88 -10 140 -3 52 -8 115 -10 140 -2 25 -7 90 -10 145 -4 55
-8 120 -10 145 -2 25 -6 88 -10 141 -3 53 -7 116 -10 140 -2 24 -7 94 -11 154
-4 61 -8 121 -10 135 -1 14 -3 31 -3 37 -2 23 -73 93 -195 191 -67 53 -123 99
-126 102 -3 3 -41 35 -85 70 -43 36 -91 75 -105 86 -20 17 -310 257 -405 335
-11 10 -56 47 -100 84 -102 87 -148 115 -190 119 -19 2 -35 2 -37 1z"/>
</g>
</svg>
