<?xml version="1.0" encoding="UTF-8" ?>
<!DOCTYPE svg PUBLIC "-//W3C//DTD SVG 1.1//EN" "http://www.w3.org/Graphics/SVG/1.1/DTD/svg11.dtd">
<svg width="120pt" height="120pt" viewBox="0 0 120 120" version="1.1" xmlns="http://www.w3.org/2000/svg">
<g id="#514886ff">
<path fill="#514886" opacity="1.00" d=" M 56.75 9.78 C 61.85 8.56 67.22 7.15 72.44 8.54 C 78.93 9.77 84.65 13.31 89.95 17.08 C 95.19 22.15 96.87 29.58 98.61 36.40 C 99.81 44.98 98.08 53.75 99.66 62.32 C 101.88 79.10 102.16 96.03 104.18 112.84 C 99.43 113.63 96.46 117.95 91.81 118.84 C 86.50 119.43 81.00 118.23 75.82 120.00 L 49.08 120.00 C 45.59 119.02 41.83 119.10 38.50 117.60 C 35.44 115.29 32.86 112.25 29.26 110.74 C 25.82 109.32 22.28 108.09 18.60 107.46 C 19.38 103.83 21.13 100.50 21.87 96.88 C 22.33 90.27 21.74 83.64 22.04 77.02 C 22.33 72.31 24.71 68.07 25.40 63.43 C 26.14 58.61 27.88 54.06 29.50 49.49 C 33.88 39.27 38.37 29.07 42.87 18.93 C 45.89 16.16 49.60 14.32 52.78 11.75 C 53.92 10.76 55.27 10.08 56.75 9.78 M 40.62 36.25 C 41.52 37.12 42.40 38.02 43.37 38.83 C 44.77 38.67 46.09 38.15 47.44 37.80 C 46.96 36.47 46.49 35.14 45.84 33.88 C 43.98 34.38 42.30 35.34 40.62 36.25 M 85.68 35.95 C 86.17 37.05 86.67 38.16 87.18 39.26 C 87.70 38.45 88.21 37.64 88.73 36.83 C 89.93 37.74 91.14 38.63 92.42 39.43 C 91.99 38.25 91.43 37.14 90.76 36.08 C 89.07 35.94 87.37 35.97 85.68 35.95 M 58.36 73.27 C 58.27 72.08 58.37 70.90 58.42 69.71 C 51.53 69.67 45.78 76.26 45.72 82.92 C 49.04 85.08 52.98 85.23 56.82 85.06 C 56.89 84.23 57.04 82.55 57.11 81.72 C 57.44 82.28 58.11 83.40 58.44 83.96 C 60.47 82.03 62.59 80.20 64.74 78.40 C 64.86 79.84 65.04 81.26 65.27 82.69 C 66.19 84.03 67.96 84.15 69.38 84.62 C 73.08 85.41 76.88 86.46 80.68 85.87 C 83.38 83.65 84.35 79.80 83.17 76.53 C 82.06 76.37 80.94 76.20 79.83 76.02 C 80.61 75.35 81.39 74.69 82.17 74.03 C 80.36 73.22 78.54 72.45 76.70 71.73 C 76.01 73.36 75.39 75.04 74.37 76.50 C 74.61 74.98 74.85 73.46 75.10 71.93 C 70.22 68.45 61.50 66.69 58.36 73.27 M 62.36 82.22 C 60.87 83.51 59.35 84.75 57.80 85.97 C 61.34 86.05 64.89 86.53 68.43 86.16 C 66.43 84.81 64.37 83.55 62.36 82.22 M 47.02 85.99 C 47.32 91.03 46.65 96.01 46.06 100.99 C 46.29 106.21 44.71 111.28 45.00 116.50 C 52.42 108.26 58.32 97.43 56.99 86.00 C 53.67 86.00 50.34 86.00 47.02 85.99 M 70.03 85.88 C 69.73 93.72 70.05 101.59 71.78 109.26 C 72.31 112.24 74.96 114.10 76.76 116.33 C 79.36 113.24 79.70 109.11 80.33 105.29 C 81.53 99.29 80.84 93.15 81.00 87.09 C 77.30 87.15 73.61 86.82 70.03 85.88 M 57.52 87.01 C 58.84 88.16 59.94 89.82 61.78 90.18 C 64.65 91.18 67.36 89.24 69.75 87.90 C 65.68 87.52 61.62 86.87 57.52 87.01 Z" />
</g>
<g id="#fff1e8ff">
<path fill="#fff1e8" opacity="1.00" d=" M 40.62 36.25 C 42.30 35.34 43.98 34.38 45.84 33.88 C 46.49 35.14 46.96 36.47 47.44 37.80 C 46.09 38.15 44.77 38.67 43.37 38.83 C 42.40 38.02 41.52 37.12 40.62 36.25 M 43.17 36.14 C 42.64 37.75 43.20 38.31 44.84 37.80 C 45.36 36.18 44.81 35.62 43.17 36.14 Z" />
<path fill="#fff1e8" opacity="1.00" d=" M 85.68 35.95 C 87.37 35.97 89.07 35.94 90.76 36.08 C 91.43 37.14 91.99 38.25 92.42 39.43 C 91.14 38.63 89.93 37.74 88.73 36.83 C 88.21 37.64 87.70 38.45 87.18 39.26 C 86.67 38.16 86.17 37.05 85.68 35.95 Z" />
<path fill="#fff1e8" opacity="1.00" d=" M 47.02 85.99 C 50.34 86.00 53.67 86.00 56.99 86.00 C 58.32 97.43 52.42 108.26 45.00 116.50 C 44.71 111.28 46.29 106.21 46.06 100.99 C 46.65 96.01 47.32 91.03 47.02 85.99 Z" />
<path fill="#fff1e8" opacity="1.00" d=" M 70.03 85.88 C 73.61 86.82 77.30 87.15 81.00 87.09 C 80.84 93.15 81.53 99.29 80.33 105.29 C 79.70 109.11 79.36 113.24 76.76 116.33 C 74.96 114.10 72.31 112.24 71.78 109.26 C 70.05 101.59 69.73 93.72 70.03 85.88 Z" />
</g>
<g id="#000000ff">
<path fill="#000000" opacity="1.00" d=" M 43.17 36.14 C 44.81 35.62 45.36 36.18 44.84 37.80 C 43.20 38.31 42.64 37.75 43.17 36.14 Z" />
<path fill="#000000" opacity="1.00" d=" M 62.17 72.17 C 63.79 71.65 64.35 72.20 63.83 73.83 C 62.20 74.35 61.65 73.80 62.17 72.17 Z" />
<path fill="#000000" opacity="1.00" d=" M 54.21 73.21 C 54.85 73.85 54.85 73.85 54.21 73.21 Z" />
<path fill="#000000" opacity="1.00" d=" M 58.36 73.27 C 63.12 76.35 68.78 77.49 74.37 76.50 C 72.93 77.89 70.96 78.22 69.04 78.07 C 65.08 77.80 60.20 77.43 58.36 73.27 Z" />
<path fill="#000000" opacity="1.00" d=" M 78.10 74.25 C 81.35 74.46 76.57 77.33 78.10 74.25 Z" />
<path fill="#000000" opacity="1.00" d=" M 54.21 76.21 C 54.85 76.85 54.85 76.85 54.21 76.21 Z" />
<path fill="#000000" opacity="1.00" d=" M 76.02 80.03 C 74.67 80.08 74.32 77.64 75.55 77.21 C 76.95 77.31 77.11 79.39 76.02 80.03 Z" />
<path fill="#000000" opacity="1.00" d=" M 78.33 77.12 C 79.33 76.34 81.24 77.70 80.67 78.88 C 79.66 79.66 77.75 78.30 78.33 77.12 Z" />
<path fill="#000000" opacity="1.00" d=" M 51.10 78.25 C 54.35 78.46 49.57 81.33 51.10 78.25 Z" />
<path fill="#000000" opacity="1.00" d=" M 57.25 78.10 C 60.32 76.57 57.46 81.35 57.25 78.10 Z" />
<path fill="#000000" opacity="1.00" d=" M 69.04 79.39 C 70.41 79.06 70.94 79.58 70.61 80.96 C 69.20 81.32 68.68 80.80 69.04 79.39 Z" />
<path fill="#000000" opacity="1.00" d=" M 76.02 80.03 C 77.09 79.56 79.15 80.51 78.67 81.86 C 77.59 82.55 75.78 81.25 76.02 80.03 Z" />
<path fill="#000000" opacity="1.00" d=" M 51.27 81.28 C 52.18 80.76 54.36 80.27 54.76 81.57 C 54.04 82.49 49.90 83.41 51.27 81.28 Z" />
<path fill="#000000" opacity="1.00" d=" M 77.04 83.39 C 78.41 83.06 78.94 83.58 78.61 84.96 C 77.20 85.32 76.68 84.80 77.04 83.39 Z" />
</g>
<g id="#1d2b53ff">
<path fill="#1d2b53" opacity="1.00" d=" M 58.36 73.27 C 61.50 66.69 70.22 68.45 75.10 71.93 C 74.85 73.46 74.61 74.98 74.37 76.50 C 68.78 77.49 63.12 76.35 58.36 73.27 M 62.17 72.17 C 61.65 73.80 62.20 74.35 63.83 73.83 C 64.35 72.20 63.79 71.65 62.17 72.17 Z" />
<path fill="#1d2b53" opacity="1.00" d=" M 50.17 74.97 C 51.37 75.56 51.25 76.25 49.83 77.03 C 48.63 76.43 48.75 75.75 50.17 74.97 Z" />
<path fill="#1d2b53" opacity="1.00" d=" M 71.96 80.37 C 73.25 79.66 77.85 83.50 74.41 82.98 C 73.39 82.55 71.37 81.85 71.96 80.37 Z" />
</g>
<g id="#ffccaaff">
<path fill="#ffccaa" opacity="1.00" d=" M 45.72 82.92 C 45.78 76.26 51.53 69.67 58.42 69.71 C 58.37 70.90 58.27 72.08 58.36 73.27 C 60.20 77.43 65.08 77.80 69.04 78.07 C 70.96 78.22 72.93 77.89 74.37 76.50 C 75.39 75.04 76.01 73.36 76.70 71.73 C 78.54 72.45 80.36 73.22 82.17 74.03 C 81.39 74.69 80.61 75.35 79.83 76.02 C 80.94 76.20 82.06 76.37 83.17 76.53 C 84.35 79.80 83.38 83.65 80.68 85.87 C 76.88 86.46 73.08 85.41 69.38 84.62 C 67.96 84.15 66.19 84.03 65.27 82.69 C 65.04 81.26 64.86 79.84 64.74 78.40 C 62.59 80.20 60.47 82.03 58.44 83.96 C 58.11 83.40 57.44 82.28 57.11 81.72 C 57.04 82.55 56.89 84.23 56.82 85.06 C 52.98 85.23 49.04 85.08 45.72 82.92 M 54.21 73.21 C 54.85 73.85 54.85 73.85 54.21 73.21 M 78.10 74.25 C 76.57 77.33 81.35 74.46 78.10 74.25 M 50.17 74.97 C 48.75 75.75 48.63 76.43 49.83 77.03 C 51.25 76.25 51.37 75.56 50.17 74.97 M 54.21 76.21 C 54.85 76.85 54.85 76.85 54.21 76.21 M 76.02 80.03 C 75.78 81.25 77.59 82.55 78.67 81.86 C 79.15 80.51 77.09 79.56 76.02 80.03 C 77.11 79.39 76.95 77.31 75.55 77.21 C 74.32 77.64 74.67 80.08 76.02 80.03 M 78.33 77.12 C 77.75 78.30 79.66 79.66 80.67 78.88 C 81.24 77.70 79.33 76.34 78.33 77.12 M 51.10 78.25 C 49.57 81.33 54.35 78.46 51.10 78.25 M 57.25 78.10 C 57.46 81.35 60.32 76.57 57.25 78.10 M 69.04 79.39 C 68.68 80.80 69.20 81.32 70.61 80.96 C 70.94 79.58 70.41 79.06 69.04 79.39 M 71.96 80.37 C 71.37 81.85 73.39 82.55 74.41 82.98 C 77.85 83.50 73.25 79.66 71.96 80.37 M 51.27 81.28 C 49.90 83.41 54.04 82.49 54.76 81.57 C 54.36 80.27 52.18 80.76 51.27 81.28 M 77.04 83.39 C 76.68 84.80 77.20 85.32 78.61 84.96 C 78.94 83.58 78.41 83.06 77.04 83.39 Z" />
<path fill="#ffccaa" opacity="1.00" d=" M 57.52 87.01 C 61.62 86.87 65.68 87.52 69.75 87.90 C 67.36 89.24 64.65 91.18 61.78 90.18 C 59.94 89.82 58.84 88.16 57.52 87.01 Z" />
</g>
<g id="#ff004dff">
<path fill="#ff004d" opacity="1.00" d=" M 62.36 82.22 C 64.37 83.55 66.43 84.81 68.43 86.16 C 64.89 86.53 61.34 86.05 57.80 85.97 C 59.35 84.75 60.87 83.51 62.36 82.22 Z" />
</g>
</svg>
