<?xml version="1.0" encoding="UTF-8" ?>
<!DOCTYPE svg PUBLIC "-//W3C//DTD SVG 1.1//EN" "http://www.w3.org/Graphics/SVG/1.1/DTD/svg11.dtd">
<svg width="316pt" height="301pt" viewBox="0 0 316 301" version="1.1" xmlns="http://www.w3.org/2000/svg">
<g id="#000000ff">
<path fill="#000000" opacity="1.00" d=" M 39.81 7.02 C 43.67 5.94 47.36 8.04 50.96 9.14 C 51.99 14.88 53.75 20.79 52.08 26.59 C 53.00 27.05 53.92 27.51 54.84 27.97 C 55.54 32.31 57.50 36.26 60.20 39.70 C 57.72 44.93 58.57 51.26 54.50 55.81 C 57.25 56.69 60.08 57.33 62.71 58.54 C 65.48 62.31 61.41 65.77 60.13 69.19 C 58.85 74.43 59.75 80.13 57.37 85.13 C 58.42 86.39 59.55 87.62 60.29 89.10 C 58.82 93.15 57.21 97.20 57.22 101.60 C 58.91 101.96 62.27 102.67 63.96 103.02 C 63.02 105.55 62.06 108.08 60.94 110.54 C 61.60 112.37 62.27 114.19 62.91 116.02 C 61.77 117.27 60.62 118.51 59.47 119.74 C 60.80 120.17 62.12 120.60 63.44 121.03 C 61.98 123.82 60.48 126.62 58.60 129.17 C 59.52 132.22 60.55 135.25 61.74 138.21 C 60.69 141.01 57.33 143.80 58.85 147.03 C 60.34 151.22 61.82 155.42 63.13 159.67 C 60.65 161.20 58.18 162.73 55.70 164.26 C 56.45 166.12 57.18 168.00 57.91 169.88 C 56.66 170.86 55.40 171.83 54.15 172.81 C 55.59 173.12 57.03 173.43 58.46 173.75 C 56.77 175.61 54.97 177.38 53.20 179.18 C 54.93 183.30 57.01 187.50 57.09 192.06 C 56.49 194.09 55.06 195.74 54.31 197.71 C 52.83 202.99 53.91 208.53 53.57 213.85 C 49.01 218.96 41.30 216.06 35.30 216.85 C 31.49 229.00 36.58 241.85 33.46 254.18 C 33.26 253.19 31.35 251.42 30.89 253.15 C 31.24 254.33 32.05 254.88 33.35 254.80 C 32.26 260.99 32.53 267.29 32.34 273.55 C 24.74 268.43 26.90 258.69 26.44 251.02 C 26.02 237.76 27.01 224.51 28.75 211.38 C 22.27 214.36 15.02 217.71 7.79 215.32 C 3.06 212.65 5.41 206.76 4.73 202.46 C 3.36 199.95 1.56 197.71 0.00 195.32 L 0.00 193.37 C 0.84 192.76 1.69 192.15 2.53 191.54 C 1.67 190.23 0.85 188.89 0.00 187.58 L 0.00 182.93 C 1.12 179.30 2.69 175.70 3.02 171.89 C 2.64 169.33 1.04 167.16 0.00 164.84 L 0.00 160.89 C 1.57 165.09 3.86 168.97 6.31 172.72 C 5.15 173.34 3.99 173.95 2.84 174.58 C 2.25 181.34 1.76 188.16 2.74 194.91 C 3.71 197.75 5.80 200.14 6.57 203.06 C 6.89 206.93 4.40 212.03 8.80 214.30 C 16.48 217.08 23.44 211.81 30.25 209.00 C 30.74 211.17 31.29 213.33 31.85 215.49 C 34.42 200.19 30.77 185.05 28.92 169.93 C 28.54 163.69 22.02 160.79 18.46 156.35 C 22.05 158.99 25.62 161.65 29.26 164.23 C 29.38 157.67 29.02 151.15 28.19 144.66 C 25.55 139.61 22.11 135.01 19.78 129.79 C 22.85 133.48 25.62 137.40 28.53 141.21 C 28.61 134.48 28.87 127.76 29.01 121.04 C 34.06 115.91 38.43 110.17 43.35 104.93 C 40.31 109.90 37.08 114.82 32.92 118.94 C 28.42 123.16 30.75 130.34 29.34 135.74 C 33.23 133.39 37.07 130.97 41.07 128.80 C 37.84 132.39 33.96 135.33 30.67 138.84 C 29.29 147.65 30.00 156.62 30.17 165.50 C 34.12 161.02 37.09 155.81 40.43 150.89 C 37.91 157.18 34.12 162.82 30.80 168.68 C 29.48 175.74 31.88 182.74 32.51 189.73 C 34.02 199.04 34.07 208.60 32.28 217.87 C 36.03 212.30 42.93 217.55 48.18 215.88 C 50.44 214.81 52.47 213.30 54.55 211.92 C 52.97 210.04 51.36 208.19 49.71 206.38 C 51.00 205.11 52.29 203.83 53.58 202.56 C 53.22 200.25 52.85 197.95 52.49 195.65 C 54.12 194.48 55.73 193.29 57.34 192.10 C 55.08 190.80 52.83 189.46 50.48 188.33 C 51.89 187.48 53.31 186.64 54.73 185.81 C 53.48 183.54 52.16 181.31 50.91 179.04 C 52.88 177.39 54.91 175.83 56.91 174.22 C 55.66 174.03 54.40 173.85 53.15 173.66 C 54.01 172.10 55.10 170.64 55.67 168.95 C 55.37 167.22 54.53 165.66 53.88 164.05 C 56.80 162.10 59.77 160.22 62.62 158.17 C 61.18 157.33 59.74 156.51 58.30 155.67 C 59.84 151.84 58.43 148.07 56.18 144.86 C 57.81 142.44 59.46 140.04 61.13 137.64 C 59.47 137.08 57.80 136.52 56.13 135.97 C 57.52 133.33 58.16 130.41 58.15 127.44 C 59.52 125.57 60.92 123.71 62.25 121.81 C 60.83 121.30 59.41 120.81 58.00 120.32 C 59.16 118.59 60.28 116.84 61.47 115.13 C 60.44 113.46 59.42 111.78 58.39 110.11 C 59.95 108.69 61.50 107.25 63.05 105.83 C 62.91 105.31 62.62 104.28 62.48 103.77 C 60.18 103.42 57.88 103.07 55.58 102.72 C 55.71 97.44 56.69 92.23 59.18 87.52 C 57.69 87.36 54.72 87.04 53.23 86.89 C 55.17 84.60 57.09 82.29 59.02 80.00 C 57.69 79.27 56.37 78.54 55.05 77.81 C 58.73 72.22 60.40 65.62 62.75 59.41 C 59.45 58.50 56.14 57.60 52.84 56.69 C 56.32 51.55 57.21 45.48 58.00 39.48 C 53.20 32.73 51.43 24.52 50.71 16.42 C 51.72 10.08 42.96 5.83 38.41 9.82 C 35.55 12.67 33.50 16.65 29.44 18.01 C 24.00 20.17 19.28 24.52 17.39 30.13 C 17.50 33.73 19.65 36.89 20.11 40.43 C 19.69 43.34 18.21 45.99 17.21 48.74 C 16.03 49.69 14.79 50.58 13.73 51.67 C 14.15 54.35 15.54 56.73 16.69 59.15 C 12.63 59.55 7.67 60.23 8.05 65.80 C 7.32 75.30 6.74 84.99 6.96 94.55 C 8.65 99.24 8.60 104.10 6.68 108.78 C 5.38 107.78 4.07 106.81 2.77 105.83 C 3.53 109.22 4.56 112.55 4.99 116.00 C 5.38 118.75 3.03 120.93 2.84 123.58 C 3.74 127.05 5.78 130.09 7.48 133.21 C 6.13 133.78 4.79 134.36 3.45 134.95 C 5.54 142.88 3.09 150.83 2.96 158.80 C 1.97 159.10 0.99 159.40 0.00 159.70 L 0.00 159.03 C 1.78 147.85 5.01 136.27 2.71 124.92 C 4.16 116.75 1.27 107.81 6.13 100.47 C 6.52 87.03 6.16 73.49 7.83 60.11 C 9.81 59.32 11.80 58.51 13.79 57.74 C 13.32 55.67 12.62 53.59 12.71 51.45 C 13.97 49.47 15.89 47.96 17.01 45.88 C 19.28 39.89 16.09 33.87 16.90 27.78 C 18.23 24.29 21.04 21.57 23.71 19.07 C 26.93 16.37 31.65 15.78 34.02 12.03 C 35.80 10.27 37.08 7.47 39.81 7.02 M 29.12 225.53 C 26.83 228.96 33.05 226.31 29.12 225.53 M 28.21 232.85 C 27.15 234.03 28.79 236.49 30.27 235.67 C 31.17 234.52 29.60 232.20 28.21 232.85 M 29.17 241.90 C 28.11 243.60 31.71 245.34 32.22 243.39 C 31.94 242.23 30.25 241.12 29.17 241.90 M 30.79 247.17 C 30.35 248.59 32.74 249.09 33.21 247.83 C 33.65 246.41 31.25 245.91 30.79 247.17 Z" />
<path fill="#000000" opacity="1.00" d=" M 273.07 9.33 C 277.10 8.76 280.71 6.62 284.73 6.07 C 289.36 10.42 287.87 17.89 284.71 22.74 C 286.58 26.74 286.69 31.24 286.78 35.58 C 288.29 35.77 289.79 35.98 291.31 36.20 C 290.43 39.42 289.49 42.62 288.28 45.74 C 292.94 49.54 294.74 56.32 292.90 62.02 C 291.74 65.17 294.71 68.16 294.94 71.20 C 292.87 73.22 289.81 74.98 289.54 78.16 C 290.50 81.57 292.55 85.17 289.94 88.42 C 292.61 90.67 294.53 93.64 295.61 96.96 C 291.35 98.43 287.03 99.70 282.80 101.24 C 286.39 104.15 290.86 106.31 293.25 110.42 C 294.35 112.40 296.19 113.77 297.95 115.13 C 297.42 118.16 296.42 121.08 295.33 123.95 C 297.04 125.94 298.52 128.11 299.58 130.52 C 296.73 131.12 293.89 131.74 291.05 132.31 C 292.68 135.88 295.30 139.51 294.79 143.62 C 292.54 145.95 290.09 148.06 287.59 150.10 C 290.05 152.74 291.79 156.00 291.26 159.82 C 292.75 163.06 296.17 165.53 296.35 169.40 C 297.46 172.57 294.94 174.51 293.36 176.65 C 294.86 179.07 296.37 181.48 297.86 183.92 C 295.69 188.01 293.51 192.16 290.06 195.34 C 291.44 197.20 292.82 199.06 294.17 200.95 C 291.68 202.83 289.01 204.49 286.71 206.60 C 285.38 209.33 285.13 212.61 282.91 214.87 C 280.36 218.38 275.44 218.21 271.82 219.81 C 267.16 221.16 263.24 224.15 258.95 226.31 C 261.58 244.32 262.16 263.15 256.01 280.52 C 251.93 279.40 248.98 276.01 248.30 271.80 C 246.87 255.47 248.08 239.11 251.09 223.05 C 246.61 220.58 241.31 219.06 237.85 215.14 C 235.54 210.40 235.66 204.74 237.65 199.91 C 241.61 191.32 235.43 182.18 238.75 173.60 C 238.62 168.36 237.36 163.05 240.67 158.47 C 239.86 151.96 241.42 144.64 237.06 139.16 C 236.51 134.29 237.31 129.24 237.29 124.31 C 238.74 123.75 240.20 123.20 241.66 122.66 C 239.61 118.81 236.72 114.80 237.11 110.29 C 239.39 107.61 242.06 105.28 244.03 102.35 C 238.75 94.60 237.05 83.09 244.31 75.97 C 244.55 71.60 243.19 66.97 244.52 62.71 C 245.75 61.71 247.14 60.92 248.49 60.09 C 247.59 53.66 250.52 45.66 245.00 40.68 C 247.37 32.67 249.76 24.48 254.61 17.56 C 259.38 12.42 266.54 10.91 273.07 9.33 M 279.42 12.60 C 278.53 11.43 277.63 10.27 276.74 9.10 C 271.99 10.65 267.43 12.72 262.61 14.06 C 257.62 15.51 253.74 19.41 252.87 24.68 C 248.25 27.36 251.31 32.81 252.01 36.93 C 250.55 35.76 249.06 34.63 247.56 33.51 C 246.63 38.93 249.66 43.88 250.16 49.17 C 250.06 52.29 249.30 55.35 249.34 58.49 C 250.35 60.04 251.73 61.28 253.03 62.58 C 250.28 62.45 247.52 62.53 244.77 62.72 C 245.27 67.80 245.02 73.18 247.37 77.85 C 245.50 78.28 243.65 78.75 241.79 79.19 C 242.36 82.84 242.86 86.50 243.58 90.13 C 242.31 89.36 241.04 88.59 239.77 87.84 C 241.01 92.73 243.25 97.27 244.76 102.05 C 244.77 106.04 240.78 108.47 237.94 110.64 C 239.17 115.57 241.29 120.19 244.97 123.74 C 242.81 124.24 240.64 124.68 238.47 125.07 C 239.75 129.44 238.25 133.57 237.33 137.74 C 238.41 140.00 240.49 141.54 242.30 143.19 C 238.36 147.89 239.86 154.70 244.21 158.59 C 242.99 159.58 241.74 160.56 240.65 161.70 C 236.97 164.97 240.23 170.26 241.47 174.08 C 240.29 175.54 239.14 177.02 237.96 178.48 C 238.26 182.67 239.52 186.86 242.39 190.01 C 241.95 190.13 241.05 190.36 240.61 190.48 C 239.69 196.79 237.50 202.97 237.46 209.39 C 236.32 212.72 239.06 213.80 240.93 215.19 C 244.35 220.13 250.63 220.62 256.10 221.00 C 255.49 214.48 255.86 207.62 253.52 201.38 C 250.67 196.11 247.25 190.89 246.82 184.73 C 249.19 190.01 251.67 195.23 254.47 200.30 C 255.23 185.39 260.14 171.22 262.42 156.56 C 263.22 148.08 256.93 141.46 255.01 133.62 C 258.76 138.70 261.03 144.63 263.78 150.27 C 264.94 143.22 266.51 136.21 266.75 129.05 C 265.71 120.05 258.11 113.93 254.70 105.90 C 260.12 110.78 263.33 117.27 266.66 123.60 C 268.32 113.46 268.74 103.05 266.70 92.93 C 269.13 88.74 267.60 83.55 268.15 79.00 C 267.61 71.57 269.46 63.35 265.48 56.58 C 266.15 56.44 266.82 56.31 267.50 56.17 C 268.15 57.87 268.84 59.56 269.52 61.25 C 274.54 56.36 276.13 49.25 278.11 42.78 C 277.73 45.82 277.57 48.90 276.82 51.88 C 275.51 56.65 271.32 59.85 269.21 64.18 C 268.55 72.54 268.90 80.93 269.09 89.30 C 273.79 84.62 276.54 78.69 279.09 72.68 C 278.49 77.43 277.40 82.47 274.14 86.15 C 271.59 89.70 267.14 92.73 268.88 97.93 C 268.81 104.81 268.99 111.69 269.42 118.56 C 271.31 113.39 273.42 108.19 278.04 104.79 C 274.44 111.02 270.61 117.20 268.42 124.11 C 267.26 136.97 264.97 149.67 262.04 162.24 C 267.47 155.89 272.02 148.87 276.48 141.83 C 274.78 151.50 266.01 157.49 262.05 165.98 C 259.36 176.60 256.21 187.25 255.82 198.27 C 262.12 191.94 266.37 184.10 271.16 176.67 C 269.19 186.09 261.81 193.00 256.22 200.40 C 256.30 208.46 257.02 216.48 257.86 224.49 C 260.99 223.67 264.57 222.88 266.14 219.70 C 272.44 218.19 280.93 217.50 283.78 210.58 C 284.63 207.28 286.41 204.40 289.17 202.36 C 288.81 201.36 288.46 200.36 288.12 199.36 C 288.69 199.27 289.84 199.08 290.42 198.99 C 290.04 197.24 289.78 195.48 289.62 193.70 C 291.28 192.03 292.89 190.30 294.45 188.53 C 293.21 188.59 291.97 188.65 290.74 188.69 C 292.49 186.93 295.81 185.86 295.94 183.06 C 295.22 180.22 292.31 178.78 290.22 177.02 C 292.37 175.20 294.53 173.38 296.69 171.56 C 295.28 169.69 293.45 168.24 291.34 167.24 C 292.19 166.60 293.03 165.97 293.89 165.34 C 292.34 163.80 290.72 162.33 289.11 160.85 C 289.78 159.50 290.45 158.14 291.12 156.79 C 288.74 153.30 285.61 150.42 281.90 148.39 C 287.02 149.52 291.07 146.24 294.46 142.81 C 293.00 141.60 291.51 140.44 290.05 139.25 C 290.75 139.12 292.16 138.85 292.86 138.72 C 291.48 136.48 290.08 134.26 288.71 132.01 C 291.86 131.11 295.02 130.25 298.21 129.47 C 296.80 127.86 295.27 126.37 293.83 124.79 C 295.04 121.47 296.32 118.17 297.40 114.81 C 293.92 114.32 290.39 114.44 286.92 114.97 C 288.92 113.73 292.46 113.22 292.04 110.16 C 289.17 107.18 285.46 105.17 282.15 102.75 C 282.12 102.09 282.08 100.78 282.05 100.13 C 286.15 98.67 290.32 97.45 294.42 96.00 C 292.48 92.98 290.27 89.81 286.31 89.25 C 287.72 87.79 289.14 86.34 290.56 84.89 C 289.62 82.68 288.36 80.52 288.16 78.09 C 288.54 74.51 291.94 72.48 293.84 69.73 C 293.65 67.00 290.84 65.54 289.13 63.73 C 290.54 62.30 292.00 60.92 293.37 59.45 C 292.45 59.64 291.53 59.83 290.62 60.03 C 291.84 55.23 292.13 49.77 287.37 46.90 C 288.00 43.81 288.90 40.78 289.90 37.79 C 282.69 37.88 286.26 29.69 285.23 25.45 C 284.06 25.50 282.89 25.55 281.72 25.60 C 283.34 22.02 285.71 18.74 286.70 14.90 C 287.17 11.47 284.93 8.52 282.90 6.02 C 281.64 8.16 280.39 10.31 279.42 12.60 M 289.53 200.12 C 289.68 200.44 289.96 201.09 290.10 201.41 C 292.70 202.02 290.95 197.94 289.53 200.12 M 254.67 229.15 C 253.85 230.35 255.93 231.61 256.71 230.47 C 257.57 229.23 255.46 227.95 254.67 229.15 M 253.66 237.46 C 253.11 239.22 256.91 240.13 257.18 238.32 C 256.61 237.14 254.67 236.54 253.66 237.46 M 250.92 246.23 C 251.16 247.82 254.12 248.26 255.38 247.48 C 255.36 245.64 252.15 245.27 250.92 246.23 M 250.60 252.06 C 251.20 254.70 252.41 257.21 253.83 259.51 C 253.56 257.88 253.01 254.62 252.74 252.99 L 253.47 252.47 C 252.75 252.37 251.32 252.17 250.60 252.06 M 250.35 265.35 C 253.60 266.49 256.26 264.23 258.45 262.10 C 255.68 263.00 252.98 264.09 250.35 265.35 Z" />
<path fill="#000000" opacity="1.00" d=" M 184.77 11.84 C 188.33 11.15 192.90 6.43 196.59 9.36 C 198.48 11.86 198.78 15.11 199.71 18.02 C 205.56 20.27 203.05 26.79 201.79 31.32 C 200.97 31.51 200.16 31.69 199.35 31.89 C 201.34 28.28 202.63 24.31 202.54 20.16 C 200.55 20.33 198.57 20.51 196.58 20.70 C 197.02 18.23 197.42 15.76 197.84 13.29 C 196.56 11.88 195.32 10.44 194.11 8.98 C 192.70 10.34 191.34 11.80 189.68 12.86 C 187.80 13.42 185.65 12.86 183.89 13.83 C 181.58 15.99 181.54 19.43 180.59 22.28 C 179.43 21.86 178.26 21.45 177.10 21.03 C 176.68 25.74 176.94 30.89 173.66 34.69 C 170.71 38.14 174.29 42.25 175.52 45.70 C 174.23 45.61 172.94 45.53 171.66 45.46 C 171.52 50.33 172.16 55.17 172.98 59.97 C 171.25 60.16 169.53 60.39 167.81 60.61 C 168.43 63.97 169.36 67.26 170.05 70.61 C 165.74 74.84 164.45 81.10 161.47 86.20 C 162.61 88.33 163.73 90.48 164.87 92.62 C 162.66 96.17 162.74 100.27 164.28 104.05 C 162.77 105.28 161.30 106.57 159.81 107.83 C 160.89 109.93 161.95 112.02 163.02 114.12 C 161.72 115.69 160.30 117.21 159.36 119.04 C 160.33 121.65 162.18 123.79 163.86 125.97 C 160.45 125.76 156.73 126.51 157.04 131.31 C 155.50 134.77 158.74 137.70 160.51 140.34 C 159.46 147.37 157.42 154.62 158.97 161.74 C 159.55 165.99 159.05 170.36 160.16 174.55 C 158.86 174.79 157.56 175.04 156.27 175.29 C 157.07 177.56 158.29 179.75 158.53 182.17 C 158.10 184.50 156.83 186.59 156.36 188.92 C 157.33 190.92 158.97 192.47 160.45 194.09 C 159.18 194.24 157.92 194.39 156.66 194.55 C 157.92 197.08 159.26 199.56 160.61 202.04 C 159.18 204.03 158.03 206.38 159.34 208.78 C 161.04 212.19 158.88 215.80 158.22 219.13 C 165.21 221.12 172.66 222.73 179.83 220.77 C 177.99 205.45 179.74 189.74 176.25 174.65 C 173.54 167.01 170.68 159.42 168.25 151.69 C 172.13 157.79 174.41 164.64 176.69 171.44 C 176.67 153.39 177.76 135.38 179.49 117.43 C 180.78 109.03 176.25 101.56 173.63 93.92 C 175.65 97.42 177.62 100.94 179.66 104.44 C 181.12 86.43 180.77 68.38 179.80 50.37 C 180.62 58.38 180.89 66.45 182.25 74.39 C 186.02 68.69 187.90 62.07 190.10 55.66 C 189.58 62.20 187.17 68.30 184.54 74.22 C 180.06 84.71 181.65 96.31 181.52 107.38 C 180.85 114.98 180.37 122.59 180.02 130.22 C 182.75 125.37 185.40 120.46 188.51 115.84 C 186.59 122.93 181.52 128.66 179.93 135.87 C 178.16 142.84 178.23 150.06 177.92 157.20 C 182.52 153.51 186.80 149.47 190.79 145.14 C 188.20 150.90 183.02 154.75 178.34 158.74 C 177.88 170.56 177.99 182.39 179.14 194.17 C 183.09 189.32 186.91 184.32 191.50 180.06 C 188.12 185.62 183.25 190.18 180.17 195.92 C 178.42 205.57 180.70 215.36 182.12 224.94 C 186.46 224.97 188.41 222.06 188.27 218.35 C 190.80 217.27 193.36 216.27 195.87 215.16 C 195.12 213.43 194.37 211.71 193.60 210.00 C 196.19 209.54 198.66 208.95 201.29 208.54 C 199.58 207.28 197.89 206.02 196.16 204.80 C 199.83 199.95 199.69 193.50 202.84 188.41 C 204.73 184.49 209.13 182.88 211.77 179.61 C 211.51 175.87 209.97 172.48 208.37 169.17 C 210.53 166.34 212.62 163.47 214.69 160.58 C 213.03 159.48 211.38 158.40 209.71 157.33 C 211.11 154.75 212.65 152.14 213.04 149.18 C 211.07 147.61 208.47 147.65 206.10 147.38 C 208.03 146.16 210.09 145.10 211.85 143.61 C 211.15 136.02 204.65 129.75 206.95 121.71 C 205.99 121.22 205.03 120.72 204.07 120.22 C 205.52 119.94 206.98 119.66 208.44 119.40 C 207.00 116.00 205.25 112.74 203.20 109.67 C 203.65 106.49 203.96 103.29 204.76 100.18 C 204.60 97.74 204.04 95.33 204.18 92.88 C 204.94 88.55 210.81 85.55 209.21 80.86 C 208.88 79.60 208.50 78.36 208.14 77.12 C 206.10 76.92 204.07 76.72 202.04 76.52 C 204.04 72.96 205.70 69.02 204.70 64.86 C 202.74 65.46 200.80 66.08 198.86 66.71 C 200.50 65.06 202.31 63.52 203.58 61.53 C 205.21 57.86 201.50 52.99 204.48 49.65 C 206.60 47.07 208.78 44.52 211.00 42.01 C 210.59 41.14 210.19 40.26 209.79 39.39 C 208.72 39.56 207.66 39.73 206.59 39.90 C 208.21 36.75 209.32 33.38 210.53 30.05 C 207.88 30.35 205.24 30.70 202.61 31.16 C 205.18 30.08 207.83 29.27 210.51 28.47 C 210.61 32.73 211.02 36.98 211.46 41.22 C 212.14 46.08 205.93 48.32 204.97 52.70 C 204.81 58.00 204.93 63.35 206.36 68.48 C 207.24 71.41 204.54 73.63 203.19 75.92 C 204.80 75.60 206.41 75.28 208.03 74.98 C 209.33 78.36 212.17 82.52 209.99 86.07 C 209.04 88.96 204.55 91.37 206.19 94.77 C 208.31 99.62 206.55 104.84 204.96 109.56 C 208.99 114.27 209.60 120.56 208.15 126.52 C 206.62 132.28 212.78 136.44 212.51 142.13 C 213.31 149.58 212.70 157.16 214.69 164.49 C 213.40 165.68 210.83 168.07 209.54 169.27 C 211.78 172.59 213.91 176.54 212.79 180.71 C 210.19 184.24 205.34 185.54 203.79 190.01 C 199.60 195.55 197.88 203.49 202.08 209.51 C 200.69 209.89 197.92 210.65 196.54 211.03 C 196.29 212.84 197.22 215.22 195.69 216.61 C 193.90 217.82 191.80 218.47 189.81 219.30 C 189.58 220.87 189.37 222.45 189.12 224.03 C 186.39 224.48 183.66 224.92 180.93 225.37 C 181.94 241.78 184.27 258.27 182.70 274.70 C 180.61 278.16 175.59 279.18 173.08 275.60 C 178.51 269.40 176.01 260.43 178.75 253.18 C 179.65 251.85 181.97 250.34 180.87 248.57 C 178.77 248.25 178.56 251.30 178.47 252.80 C 176.93 243.05 177.00 233.14 177.66 223.32 C 170.64 223.17 163.65 222.18 156.99 219.94 C 158.00 211.65 159.00 202.99 156.19 194.92 C 154.60 189.36 157.96 183.64 155.92 178.18 C 154.57 174.29 159.48 171.18 157.50 166.99 C 157.81 162.66 155.82 158.34 157.17 154.07 C 158.38 149.82 157.95 145.35 157.68 141.00 C 157.36 137.67 154.19 134.47 156.03 131.14 C 156.89 128.10 159.60 125.27 158.95 121.89 C 157.93 116.62 161.85 111.76 159.70 106.42 C 160.52 105.21 161.35 104.01 162.19 102.81 C 161.14 99.27 161.50 95.58 163.16 92.29 C 162.07 90.30 160.42 88.42 160.22 86.10 C 162.27 80.95 164.54 75.87 166.96 70.87 C 168.96 67.61 167.22 63.71 167.11 60.19 C 168.53 59.24 169.98 58.32 171.43 57.41 C 169.92 50.05 172.48 42.73 172.02 35.33 C 174.33 26.76 176.79 16.96 184.77 11.84 M 178.59 229.10 C 179.25 232.25 179.70 235.43 180.47 238.56 C 180.37 235.39 180.08 232.19 180.01 229.03 L 178.59 229.10 M 179.37 263.64 C 178.22 264.50 179.39 266.91 180.78 266.21 C 181.96 265.33 180.79 262.89 179.37 263.64 Z" />
<path fill="#000000" opacity="1.00" d=" M 113.47 25.84 C 120.33 25.66 127.17 24.90 134.03 24.74 C 134.62 30.01 136.12 36.07 132.68 40.75 C 133.70 41.98 136.88 42.73 135.52 44.67 C 132.16 50.19 131.40 56.72 131.00 63.07 C 130.47 63.28 129.39 63.72 128.86 63.93 C 130.34 56.94 131.51 49.76 134.57 43.24 C 132.93 42.81 131.30 42.37 129.67 41.94 C 133.92 37.50 133.73 31.12 133.21 25.43 C 127.59 26.01 122.05 27.30 116.38 27.27 C 108.05 26.99 104.25 36.14 97.79 39.99 C 97.52 42.98 97.26 45.98 97.01 48.97 C 95.73 50.10 94.41 51.20 93.30 52.49 C 94.02 55.24 95.78 57.54 97.22 59.94 C 91.69 67.30 88.65 76.03 85.34 84.51 C 84.51 86.45 82.75 87.76 81.36 89.29 C 82.20 94.03 83.30 98.73 84.58 103.38 C 83.51 103.77 82.44 104.16 81.37 104.54 C 81.94 108.81 81.55 113.48 83.62 117.41 C 85.92 119.80 88.88 121.45 91.56 123.40 C 90.14 124.56 88.73 125.74 87.33 126.93 C 88.13 128.26 88.93 129.60 89.73 130.93 C 89.10 133.54 88.75 136.24 89.15 138.91 C 90.14 144.18 88.28 150.81 93.93 153.95 C 92.18 153.84 90.43 153.73 88.69 153.64 C 88.93 158.62 88.20 163.59 85.53 167.84 C 83.42 176.68 87.56 185.44 89.22 193.99 C 89.93 196.06 88.46 197.86 87.65 199.63 C 88.58 205.56 87.99 211.55 87.38 217.48 C 91.75 218.90 95.91 221.83 100.70 221.27 C 105.12 220.72 109.46 219.63 113.82 218.71 C 111.70 206.46 111.63 193.97 110.19 181.67 C 107.52 175.41 102.08 170.74 99.02 164.65 C 102.64 168.45 106.09 172.42 109.65 176.28 C 109.78 167.22 111.22 158.20 111.13 149.15 C 109.06 143.06 104.63 137.95 102.87 131.67 C 106.08 136.43 108.72 141.54 111.65 146.47 C 113.55 135.91 113.50 125.20 113.30 114.52 C 113.91 106.68 114.61 98.84 115.19 90.99 C 109.81 84.79 103.50 79.20 99.97 71.62 C 105.12 77.22 110.07 82.99 115.50 88.32 C 115.66 81.40 112.64 75.19 109.22 69.41 C 114.96 73.63 115.74 80.99 116.69 87.50 C 120.03 84.33 120.71 79.82 121.43 75.47 C 123.26 80.89 120.35 85.20 117.55 89.34 C 114.99 98.10 115.43 107.44 115.22 116.48 C 118.85 111.03 120.92 104.87 122.24 98.51 C 123.07 106.08 118.57 112.24 116.26 119.01 C 114.64 128.04 114.05 137.24 113.32 146.38 C 116.14 141.99 119.17 137.66 120.83 132.66 C 121.18 140.41 113.95 145.15 112.33 152.32 C 110.15 160.80 111.36 169.77 111.18 178.43 C 115.55 172.90 117.73 166.27 119.20 159.48 C 118.87 163.35 119.21 167.64 117.17 171.14 C 114.88 175.95 110.26 180.17 111.63 186.05 C 111.87 197.04 112.18 208.47 116.13 218.85 C 117.89 222.50 122.13 221.50 125.38 221.27 C 123.54 219.94 121.77 218.54 119.92 217.24 C 121.40 217.29 122.89 217.33 124.38 217.34 C 126.31 213.75 128.80 210.43 130.24 206.61 C 130.38 204.20 129.14 201.96 128.46 199.70 C 130.19 199.37 133.65 198.71 135.38 198.39 C 131.97 194.85 127.97 191.99 123.68 189.61 C 126.08 186.73 128.65 183.60 127.99 179.58 C 129.35 171.66 129.85 163.69 130.24 155.67 C 129.50 154.70 128.77 153.73 128.03 152.77 C 131.57 149.28 131.44 144.07 133.20 139.71 C 132.47 138.34 131.74 136.98 131.01 135.62 C 132.09 133.98 133.14 132.32 134.17 130.65 C 132.93 130.11 131.69 129.56 130.45 129.02 C 131.38 125.12 129.67 121.41 128.87 117.66 C 128.77 114.64 130.04 111.75 130.53 108.82 C 129.20 108.47 127.87 108.13 126.54 107.79 C 128.15 105.92 129.78 104.06 131.24 102.07 C 133.08 98.41 129.87 95.85 128.06 93.23 C 129.88 90.91 131.65 88.56 133.38 86.17 C 131.61 86.32 129.85 86.46 128.09 86.64 C 132.36 80.92 133.61 73.73 136.07 67.17 C 134.80 65.63 133.52 64.10 132.23 62.58 L 131.67 61.91 C 133.19 62.35 134.71 62.79 136.24 63.23 C 136.09 66.96 136.70 70.97 134.27 74.18 C 131.37 77.59 132.76 81.78 133.26 85.64 C 133.91 88.38 131.73 90.58 131.12 93.11 C 131.27 96.56 133.50 99.98 132.17 103.39 C 130.10 108.16 132.68 113.71 129.53 118.14 C 132.82 123.45 134.54 129.64 134.16 135.91 C 135.46 143.32 128.73 150.42 132.60 157.60 C 131.40 158.73 130.18 159.83 128.99 160.95 C 130.06 163.86 132.34 166.93 131.04 170.14 C 129.25 174.93 129.81 180.13 129.09 185.10 C 127.88 186.65 126.38 187.94 124.95 189.28 C 129.82 191.32 134.91 194.12 136.60 199.50 C 135.01 199.65 131.83 199.96 130.24 200.11 C 130.90 202.98 131.46 205.85 132.03 208.76 C 130.46 209.79 128.88 210.83 127.28 211.82 C 126.77 214.95 126.38 218.11 126.29 221.29 C 123.58 222.10 120.83 222.78 118.11 223.52 C 119.41 241.91 120.55 260.32 119.92 278.77 C 117.17 279.05 114.50 279.60 111.77 279.98 C 106.11 260.57 112.73 240.47 109.82 220.82 C 104.80 221.35 99.93 222.99 94.90 223.32 C 91.91 222.07 89.28 220.05 86.47 218.45 C 86.75 211.48 86.26 204.48 87.11 197.54 C 87.61 193.51 87.55 189.34 86.35 185.44 C 84.23 179.60 84.37 173.29 83.27 167.24 C 88.56 161.14 87.70 152.19 88.87 144.67 C 87.74 138.78 88.43 132.55 86.25 126.88 C 86.95 125.65 87.66 124.43 88.38 123.21 C 86.43 121.66 84.22 120.39 82.51 118.57 C 78.32 108.46 83.17 97.55 80.02 87.29 C 81.38 86.60 82.74 85.92 84.12 85.25 C 85.43 78.64 88.81 72.75 91.18 66.51 C 92.44 61.45 92.56 56.22 93.06 51.06 C 95.75 47.48 95.58 42.76 96.57 38.58 C 103.51 36.05 106.17 27.55 113.47 25.84 M 111.19 219.51 C 111.50 222.85 111.74 226.24 112.62 229.51 C 112.45 226.12 112.34 222.72 111.19 219.51 M 113.37 220.64 C 112.23 221.50 113.39 223.91 114.78 223.21 C 115.96 222.33 114.79 219.89 113.37 220.64 M 111.75 231.77 C 112.21 232.82 112.66 233.88 113.12 234.95 C 114.50 234.96 115.89 234.98 117.28 235.00 C 115.43 233.92 113.59 232.84 111.75 231.77 M 114.17 236.91 C 113.26 238.46 115.53 240.74 117.09 239.83 C 117.57 238.44 115.56 236.43 114.17 236.91 M 113.59 243.46 C 112.71 244.83 114.88 246.78 116.16 245.78 C 116.92 244.47 114.83 242.58 113.59 243.46 M 113.67 249.39 C 112.87 250.76 115.10 252.57 116.33 251.61 C 117.13 250.24 114.89 248.43 113.67 249.39 M 111.65 254.43 C 110.66 255.49 111.80 258.16 113.35 257.57 C 114.34 256.51 113.20 253.83 111.65 254.43 M 118.12 258.35 C 117.02 258.10 115.53 258.66 115.29 259.86 C 115.68 262.04 120.21 259.67 118.12 258.35 M 115.63 271.56 C 115.14 268.82 114.48 266.11 113.78 263.41 C 113.52 266.34 113.51 269.30 115.63 271.56 Z" />
<path fill="#000000" opacity="1.00" d=" M 30.34 84.49 C 31.03 74.04 32.59 63.59 35.93 53.64 C 35.46 62.08 32.70 70.16 31.91 78.55 C 36.69 75.28 40.44 70.79 43.51 65.92 C 42.73 72.47 36.78 76.03 32.60 80.39 C 32.43 87.66 30.28 94.75 30.70 102.05 C 31.03 107.81 29.91 113.48 28.82 119.09 C 25.29 114.48 21.46 110.02 18.83 104.79 C 22.02 108.22 25.02 111.82 28.12 115.33 C 28.73 111.78 29.84 108.23 29.33 104.60 C 27.99 98.50 29.76 92.41 30.85 86.44 C 26.52 81.75 24.76 75.46 21.45 70.11 C 26.65 73.20 27.09 79.85 30.34 84.49 Z" />
<path fill="#000000" opacity="1.00" d=" M 258.97 72.83 C 261.92 78.22 264.94 83.65 266.80 89.54 C 262.64 84.82 260.65 78.78 258.97 72.83 Z" />
<path fill="#000000" opacity="1.00" d=" M 18.35 82.34 C 22.54 87.00 25.25 92.74 28.06 98.28 C 23.86 93.61 20.32 88.34 18.35 82.34 Z" />
<path fill="#000000" opacity="1.00" d=" M 181.52 107.38 C 183.92 100.98 186.53 94.52 190.70 89.04 C 189.20 95.83 185.10 101.56 181.52 107.38 Z" />
<path fill="#000000" opacity="1.00" d=" M 266.70 92.93 C 263.89 96.06 269.43 95.92 266.70 92.93 Z" />
<path fill="#000000" opacity="1.00" d=" M 107.35 101.30 C 109.67 105.55 111.70 109.96 113.30 114.52 C 110.13 110.74 108.71 105.96 107.35 101.30 Z" />
<path fill="#000000" opacity="1.00" d=" M 173.18 117.58 C 175.15 122.01 177.07 126.53 177.96 131.32 C 175.55 127.07 173.58 122.50 173.18 117.58 Z" />
<path fill="#000000" opacity="1.00" d=" M 252.35 255.49 C 251.35 254.60 251.48 253.77 252.74 252.99 C 253.69 254.13 253.56 254.96 252.35 255.49 Z" />
</g>
<g id="#008751ff">
<path fill="#008751" opacity="1.00" d=" M 38.41 9.82 C 42.96 5.83 51.72 10.08 50.71 16.42 C 51.43 24.52 53.20 32.73 58.00 39.48 C 57.21 45.48 56.32 51.55 52.84 56.69 C 56.14 57.60 59.45 58.50 62.75 59.41 C 60.40 65.62 58.73 72.22 55.05 77.81 C 56.37 78.54 57.69 79.27 59.02 80.00 C 57.09 82.29 55.17 84.60 53.23 86.89 C 54.72 87.04 57.69 87.36 59.18 87.52 C 56.69 92.23 55.71 97.44 55.58 102.72 C 57.88 103.07 60.18 103.42 62.48 103.77 C 62.62 104.28 62.91 105.31 63.05 105.83 C 61.50 107.25 59.95 108.69 58.39 110.11 C 59.42 111.78 60.44 113.46 61.47 115.13 C 60.28 116.84 59.16 118.59 58.00 120.32 C 59.41 120.81 60.83 121.30 62.25 121.81 C 60.92 123.71 59.52 125.57 58.15 127.44 C 58.16 130.41 57.52 133.33 56.13 135.97 C 57.80 136.52 59.47 137.08 61.13 137.64 C 59.46 140.04 57.81 142.44 56.18 144.86 C 58.43 148.07 59.84 151.84 58.30 155.67 C 59.74 156.51 61.18 157.33 62.62 158.17 C 59.77 160.22 56.80 162.10 53.88 164.05 C 54.53 165.66 55.37 167.22 55.67 168.95 C 55.10 170.64 54.01 172.10 53.15 173.66 C 54.40 173.85 55.66 174.03 56.91 174.22 C 54.91 175.83 52.88 177.39 50.91 179.04 C 52.16 181.31 53.48 183.54 54.73 185.81 C 53.31 186.64 51.89 187.48 50.48 188.33 C 52.83 189.46 55.08 190.80 57.34 192.10 C 55.73 193.29 54.12 194.48 52.49 195.65 C 52.85 197.95 53.22 200.25 53.58 202.56 C 52.29 203.83 51.00 205.11 49.71 206.38 C 51.36 208.19 52.97 210.04 54.55 211.92 C 52.47 213.30 50.44 214.81 48.18 215.88 C 42.93 217.55 36.03 212.30 32.28 217.87 C 34.07 208.60 34.02 199.04 32.51 189.73 C 31.88 182.74 29.48 175.74 30.80 168.68 C 34.12 162.82 37.91 157.18 40.43 150.89 C 37.09 155.81 34.12 161.02 30.17 165.50 C 30.00 156.62 29.29 147.65 30.67 138.84 C 33.96 135.33 37.84 132.39 41.07 128.80 C 37.07 130.97 33.23 133.39 29.34 135.74 C 30.75 130.34 28.42 123.16 32.92 118.94 C 37.08 114.82 40.31 109.90 43.35 104.93 C 38.43 110.17 34.06 115.91 29.01 121.04 C 28.87 127.76 28.61 134.48 28.53 141.21 C 25.62 137.40 22.85 133.48 19.78 129.79 C 22.11 135.01 25.55 139.61 28.19 144.66 C 29.02 151.15 29.38 157.67 29.26 164.23 C 25.62 161.65 22.05 158.99 18.46 156.35 C 22.02 160.79 28.54 163.69 28.92 169.93 C 30.77 185.05 34.42 200.19 31.85 215.49 C 31.29 213.33 30.74 211.17 30.25 209.00 C 23.44 211.81 16.48 217.08 8.80 214.30 C 4.40 212.03 6.89 206.93 6.57 203.06 C 5.80 200.14 3.71 197.75 2.74 194.91 C 1.76 188.16 2.25 181.34 2.84 174.58 C 3.99 173.95 5.15 173.34 6.31 172.72 C 3.86 168.97 1.57 165.09 0.00 160.89 L 0.00 159.70 C 0.99 159.40 1.97 159.10 2.96 158.80 C 3.09 150.83 5.54 142.88 3.45 134.95 C 4.79 134.36 6.13 133.78 7.48 133.21 C 5.78 130.09 3.74 127.05 2.84 123.58 C 3.03 120.93 5.38 118.75 4.99 116.00 C 4.56 112.55 3.53 109.22 2.77 105.83 C 4.07 106.81 5.38 107.78 6.68 108.78 C 8.60 104.10 8.65 99.24 6.96 94.55 C 6.74 84.99 7.32 75.30 8.05 65.80 C 7.67 60.23 12.63 59.55 16.69 59.15 C 15.54 56.73 14.15 54.35 13.73 51.67 C 14.79 50.58 16.03 49.69 17.21 48.74 C 18.21 45.99 19.69 43.34 20.11 40.43 C 19.65 36.89 17.50 33.73 17.39 30.13 C 19.28 24.52 24.00 20.17 29.44 18.01 C 33.50 16.65 35.55 12.67 38.41 9.82 M 30.34 84.49 C 27.09 79.85 26.65 73.20 21.45 70.11 C 24.76 75.46 26.52 81.75 30.85 86.44 C 29.76 92.41 27.99 98.50 29.33 104.60 C 29.84 108.23 28.73 111.78 28.12 115.33 C 25.02 111.82 22.02 108.22 18.83 104.79 C 21.46 110.02 25.29 114.48 28.82 119.09 C 29.91 113.48 31.03 107.81 30.70 102.05 C 30.28 94.75 32.43 87.66 32.60 80.39 C 36.78 76.03 42.73 72.47 43.51 65.92 C 40.44 70.79 36.69 75.28 31.91 78.55 C 32.70 70.16 35.46 62.08 35.93 53.64 C 32.59 63.59 31.03 74.04 30.34 84.49 M 18.35 82.34 C 20.32 88.34 23.86 93.61 28.06 98.28 C 25.25 92.74 22.54 87.00 18.35 82.34 Z" />
<path fill="#008751" opacity="1.00" d=" M 279.42 12.60 C 280.39 10.31 281.64 8.16 282.90 6.02 C 284.93 8.52 287.17 11.47 286.70 14.90 C 285.71 18.74 283.34 22.02 281.72 25.60 C 282.89 25.55 284.06 25.50 285.23 25.45 C 286.26 29.69 282.69 37.88 289.90 37.79 C 288.90 40.78 288.00 43.81 287.37 46.90 C 292.13 49.77 291.84 55.23 290.62 60.03 C 291.53 59.83 292.45 59.64 293.37 59.45 C 292.00 60.92 290.54 62.30 289.13 63.73 C 290.84 65.54 293.65 67.00 293.84 69.73 C 291.94 72.48 288.54 74.51 288.16 78.09 C 288.36 80.52 289.62 82.68 290.56 84.89 C 289.14 86.34 287.72 87.79 286.31 89.25 C 290.27 89.81 292.48 92.98 294.42 96.00 C 290.32 97.45 286.15 98.67 282.05 100.13 C 282.08 100.78 282.12 102.09 282.15 102.75 C 285.46 105.17 289.17 107.18 292.04 110.16 C 292.46 113.22 288.92 113.73 286.92 114.97 C 290.39 114.44 293.92 114.32 297.40 114.81 C 296.32 118.17 295.04 121.47 293.83 124.79 C 295.27 126.37 296.80 127.86 298.21 129.47 C 295.02 130.25 291.86 131.11 288.71 132.01 C 290.08 134.26 291.48 136.48 292.86 138.72 C 292.16 138.85 290.75 139.12 290.05 139.25 C 291.51 140.44 293.00 141.60 294.46 142.81 C 291.07 146.24 287.02 149.52 281.90 148.39 C 285.61 150.42 288.74 153.30 291.12 156.79 C 290.45 158.14 289.78 159.50 289.11 160.85 C 290.72 162.33 292.34 163.80 293.89 165.34 C 293.03 165.97 292.19 166.60 291.34 167.24 C 293.45 168.24 295.28 169.69 296.69 171.56 C 294.53 173.38 292.37 175.20 290.22 177.02 C 292.31 178.78 295.22 180.22 295.94 183.06 C 295.81 185.86 292.49 186.93 290.74 188.69 C 291.97 188.65 293.21 188.59 294.45 188.53 C 292.89 190.30 291.28 192.03 289.62 193.70 C 289.78 195.48 290.04 197.24 290.42 198.99 C 289.84 199.08 288.69 199.27 288.12 199.36 C 288.46 200.36 288.81 201.36 289.17 202.36 C 286.41 204.40 284.63 207.28 283.78 210.58 C 280.93 217.50 272.44 218.19 266.14 219.70 C 264.57 222.88 260.99 223.67 257.86 224.49 C 257.02 216.48 256.30 208.46 256.22 200.40 C 261.81 193.00 269.19 186.09 271.16 176.67 C 266.37 184.10 262.12 191.94 255.82 198.27 C 256.21 187.25 259.36 176.60 262.05 165.98 C 266.01 157.49 274.78 151.50 276.48 141.83 C 272.02 148.87 267.47 155.89 262.04 162.24 C 264.97 149.67 267.26 136.97 268.42 124.11 C 270.61 117.20 274.44 111.02 278.04 104.79 C 273.42 108.19 271.31 113.39 269.42 118.56 C 268.99 111.69 268.81 104.81 268.88 97.93 C 267.14 92.73 271.59 89.70 274.14 86.15 C 277.40 82.47 278.49 77.43 279.09 72.68 C 276.54 78.69 273.79 84.62 269.09 89.30 C 268.90 80.93 268.55 72.54 269.21 64.18 C 271.32 59.85 275.51 56.65 276.82 51.88 C 277.57 48.90 277.73 45.82 278.11 42.78 C 276.13 49.25 274.54 56.36 269.52 61.25 C 268.84 59.56 268.15 57.87 267.50 56.17 C 266.82 56.31 266.15 56.44 265.48 56.58 C 269.46 63.35 267.61 71.57 268.15 79.00 C 267.60 83.55 269.13 88.74 266.70 92.93 C 263.89 96.06 269.43 95.92 266.70 92.93 C 268.74 103.05 268.32 113.46 266.66 123.60 C 263.33 117.27 260.12 110.78 254.70 105.90 C 258.11 113.93 265.71 120.05 266.75 129.05 C 266.51 136.21 264.94 143.22 263.78 150.27 C 261.03 144.63 258.76 138.70 255.01 133.62 C 256.93 141.46 263.22 148.08 262.42 156.56 C 260.14 171.22 255.23 185.39 254.47 200.30 C 251.67 195.23 249.19 190.01 246.82 184.73 C 247.25 190.89 250.67 196.11 253.52 201.38 C 255.86 207.62 255.49 214.48 256.10 221.00 C 250.63 220.62 244.35 220.13 240.93 215.19 C 239.06 213.80 236.32 212.72 237.46 209.39 C 237.50 202.97 239.69 196.79 240.61 190.48 C 241.05 190.36 241.95 190.13 242.39 190.01 C 239.52 186.86 238.26 182.67 237.96 178.48 C 239.14 177.02 240.29 175.54 241.47 174.08 C 240.23 170.26 236.97 164.97 240.65 161.70 C 241.74 160.56 242.99 159.58 244.21 158.59 C 239.86 154.70 238.36 147.89 242.30 143.19 C 240.49 141.54 238.41 140.00 237.33 137.74 C 238.25 133.57 239.75 129.44 238.47 125.07 C 240.64 124.68 242.81 124.24 244.97 123.74 C 241.29 120.19 239.17 115.57 237.94 110.64 C 240.78 108.47 244.77 106.04 244.76 102.05 C 243.25 97.27 241.01 92.73 239.77 87.84 C 241.04 88.59 242.31 89.36 243.58 90.13 C 242.86 86.50 242.36 82.84 241.79 79.19 C 243.65 78.75 245.50 78.28 247.37 77.85 C 245.02 73.18 245.27 67.80 244.77 62.72 C 247.52 62.53 250.28 62.45 253.03 62.58 C 251.73 61.28 250.35 60.04 249.34 58.49 C 249.30 55.35 250.06 52.29 250.16 49.17 C 249.66 43.88 246.63 38.93 247.56 33.51 C 249.06 34.63 250.55 35.76 252.01 36.93 C 251.31 32.81 248.25 27.36 252.87 24.68 C 253.74 19.41 257.62 15.51 262.61 14.06 C 267.43 12.72 271.99 10.65 276.74 9.10 C 277.63 10.27 278.53 11.43 279.42 12.60 M 258.97 72.83 C 260.65 78.78 262.64 84.82 266.80 89.54 C 264.94 83.65 261.92 78.22 258.97 72.83 Z" />
<path fill="#008751" opacity="1.00" d=" M 189.68 12.86 C 191.34 11.80 192.70 10.34 194.11 8.98 C 195.32 10.44 196.56 11.88 197.84 13.29 C 197.42 15.76 197.02 18.23 196.58 20.70 C 198.57 20.51 200.55 20.33 202.54 20.16 C 202.63 24.31 201.34 28.28 199.35 31.89 C 200.16 31.69 200.97 31.51 201.79 31.32 L 202.61 31.16 C 205.24 30.70 207.88 30.35 210.53 30.05 C 209.32 33.38 208.21 36.75 206.59 39.90 C 207.66 39.73 208.72 39.56 209.79 39.39 C 210.19 40.26 210.59 41.14 211.00 42.01 C 208.78 44.52 206.60 47.07 204.48 49.65 C 201.50 52.99 205.21 57.86 203.58 61.53 C 202.31 63.52 200.50 65.06 198.86 66.71 C 200.80 66.08 202.74 65.46 204.70 64.86 C 205.70 69.02 204.04 72.96 202.04 76.52 C 204.07 76.72 206.10 76.92 208.14 77.12 C 208.50 78.36 208.88 79.60 209.21 80.86 C 210.81 85.55 204.94 88.55 204.18 92.88 C 204.04 95.33 204.60 97.74 204.76 100.18 C 203.96 103.29 203.65 106.49 203.20 109.67 C 205.25 112.74 207.00 116.00 208.44 119.40 C 206.98 119.66 205.52 119.94 204.07 120.22 C 205.03 120.72 205.99 121.22 206.95 121.71 C 204.65 129.75 211.15 136.02 211.85 143.61 C 210.09 145.10 208.03 146.16 206.10 147.38 C 208.47 147.65 211.07 147.61 213.04 149.18 C 212.65 152.14 211.11 154.75 209.71 157.33 C 211.38 158.40 213.03 159.48 214.69 160.58 C 212.62 163.47 210.53 166.34 208.37 169.17 C 209.97 172.48 211.51 175.87 211.77 179.61 C 209.13 182.88 204.73 184.49 202.84 188.41 C 199.69 193.50 199.83 199.95 196.16 204.80 C 197.89 206.02 199.58 207.28 201.29 208.54 C 198.66 208.95 196.19 209.54 193.60 210.00 C 194.37 211.71 195.12 213.43 195.87 215.16 C 193.36 216.27 190.80 217.27 188.27 218.35 C 188.41 222.06 186.46 224.97 182.12 224.94 C 180.70 215.36 178.42 205.57 180.17 195.92 C 183.25 190.18 188.12 185.62 191.50 180.06 C 186.91 184.32 183.09 189.32 179.14 194.17 C 177.99 182.39 177.88 170.56 178.34 158.74 C 183.02 154.75 188.20 150.90 190.79 145.14 C 186.80 149.47 182.52 153.51 177.92 157.20 C 178.23 150.06 178.16 142.84 179.93 135.87 C 181.52 128.66 186.59 122.93 188.51 115.84 C 185.40 120.46 182.75 125.37 180.02 130.22 C 180.37 122.59 180.85 114.98 181.52 107.38 C 185.10 101.56 189.20 95.83 190.70 89.04 C 186.53 94.52 183.92 100.98 181.52 107.38 C 181.65 96.31 180.06 84.71 184.54 74.22 C 187.17 68.30 189.58 62.20 190.10 55.66 C 187.90 62.07 186.02 68.69 182.25 74.39 C 180.89 66.45 180.62 58.38 179.80 50.37 C 180.77 68.38 181.12 86.43 179.66 104.44 C 177.62 100.94 175.65 97.42 173.63 93.92 C 176.25 101.56 180.78 109.03 179.49 117.43 C 177.76 135.38 176.67 153.39 176.69 171.44 C 174.41 164.64 172.13 157.79 168.25 151.69 C 170.68 159.42 173.54 167.01 176.25 174.65 C 179.74 189.74 177.99 205.45 179.83 220.77 C 172.66 222.73 165.21 221.12 158.22 219.13 C 158.88 215.80 161.04 212.19 159.34 208.78 C 158.03 206.38 159.18 204.03 160.61 202.04 C 159.26 199.56 157.92 197.08 156.66 194.55 C 157.92 194.39 159.18 194.24 160.45 194.09 C 158.97 192.47 157.33 190.92 156.36 188.92 C 156.83 186.59 158.10 184.50 158.53 182.17 C 158.29 179.75 157.07 177.56 156.27 175.29 C 157.56 175.04 158.86 174.79 160.16 174.55 C 159.05 170.36 159.55 165.99 158.97 161.74 C 157.42 154.62 159.46 147.37 160.51 140.34 C 158.74 137.70 155.50 134.77 157.04 131.31 C 156.73 126.51 160.45 125.76 163.86 125.97 C 162.18 123.79 160.33 121.65 159.36 119.04 C 160.30 117.21 161.72 115.69 163.02 114.12 C 161.95 112.02 160.89 109.93 159.81 107.83 C 161.30 106.57 162.77 105.28 164.28 104.05 C 162.74 100.27 162.66 96.17 164.87 92.62 C 163.73 90.48 162.61 88.33 161.47 86.20 C 164.45 81.10 165.74 74.84 170.05 70.61 C 169.36 67.26 168.43 63.97 167.81 60.61 C 169.53 60.39 171.25 60.16 172.98 59.97 C 172.16 55.17 171.52 50.33 171.66 45.46 C 172.94 45.53 174.23 45.61 175.52 45.70 C 174.29 42.25 170.71 38.14 173.66 34.69 C 176.94 30.89 176.68 25.74 177.10 21.03 C 178.26 21.45 179.43 21.86 180.59 22.28 C 181.54 19.43 181.58 15.99 183.89 13.83 C 185.65 12.86 187.80 13.42 189.68 12.86 M 173.18 117.58 C 173.58 122.50 175.55 127.07 177.96 131.32 C 177.07 126.53 175.15 122.01 173.18 117.58 Z" />
<path fill="#008751" opacity="1.00" d=" M 116.38 27.27 C 122.05 27.30 127.59 26.01 133.21 25.43 C 133.73 31.12 133.92 37.50 129.67 41.94 C 131.30 42.37 132.93 42.81 134.57 43.24 C 131.51 49.76 130.34 56.94 128.86 63.93 C 129.39 63.72 130.47 63.28 131.00 63.07 L 132.23 62.58 C 133.52 64.10 134.80 65.63 136.07 67.17 C 133.61 73.73 132.36 80.92 128.09 86.64 C 129.85 86.46 131.61 86.32 133.38 86.17 C 131.65 88.56 129.88 90.91 128.06 93.23 C 129.87 95.85 133.08 98.41 131.24 102.07 C 129.78 104.06 128.15 105.92 126.54 107.79 C 127.87 108.13 129.20 108.47 130.53 108.82 C 130.04 111.75 128.77 114.64 128.87 117.66 C 129.67 121.41 131.38 125.12 130.45 129.02 C 131.69 129.56 132.93 130.11 134.17 130.65 C 133.14 132.32 132.09 133.98 131.01 135.62 C 131.74 136.98 132.47 138.34 133.20 139.71 C 131.44 144.07 131.57 149.28 128.03 152.77 C 128.77 153.73 129.50 154.70 130.24 155.67 C 129.85 163.69 129.35 171.66 127.99 179.58 C 128.65 183.60 126.08 186.73 123.68 189.61 C 127.97 191.99 131.97 194.85 135.38 198.39 C 133.65 198.71 130.19 199.37 128.46 199.70 C 129.14 201.96 130.38 204.20 130.24 206.61 C 128.80 210.43 126.31 213.75 124.38 217.34 C 122.89 217.33 121.40 217.29 119.92 217.24 C 121.77 218.54 123.54 219.94 125.38 221.27 C 122.13 221.50 117.89 222.50 116.13 218.85 C 112.18 208.47 111.87 197.04 111.63 186.05 C 110.26 180.17 114.88 175.95 117.17 171.14 C 119.21 167.64 118.87 163.35 119.20 159.48 C 117.73 166.27 115.55 172.90 111.18 178.43 C 111.36 169.77 110.15 160.80 112.33 152.32 C 113.95 145.15 121.18 140.41 120.83 132.66 C 119.17 137.66 116.14 141.99 113.32 146.38 C 114.05 137.24 114.64 128.04 116.26 119.01 C 118.57 112.24 123.07 106.08 122.24 98.51 C 120.92 104.87 118.85 111.03 115.22 116.48 C 115.43 107.44 114.99 98.10 117.55 89.34 C 120.35 85.20 123.26 80.89 121.43 75.47 C 120.71 79.82 120.03 84.33 116.69 87.50 C 115.74 80.99 114.96 73.63 109.22 69.41 C 112.64 75.19 115.66 81.40 115.50 88.32 C 110.07 82.99 105.12 77.22 99.97 71.62 C 103.50 79.20 109.81 84.79 115.19 90.99 C 114.61 98.84 113.91 106.68 113.30 114.52 C 111.70 109.96 109.67 105.55 107.35 101.30 C 108.71 105.96 110.13 110.74 113.30 114.52 C 113.50 125.20 113.55 135.91 111.65 146.47 C 108.72 141.54 106.08 136.43 102.87 131.67 C 104.63 137.95 109.06 143.06 111.13 149.15 C 111.22 158.20 109.78 167.22 109.65 176.28 C 106.09 172.42 102.64 168.45 99.02 164.65 C 102.08 170.74 107.52 175.41 110.19 181.67 C 111.63 193.97 111.70 206.46 113.82 218.71 C 109.46 219.63 105.12 220.72 100.70 221.27 C 95.91 221.83 91.75 218.90 87.38 217.48 C 87.99 211.55 88.58 205.56 87.65 199.63 C 88.46 197.86 89.93 196.06 89.22 193.99 C 87.56 185.44 83.42 176.68 85.53 167.84 C 88.20 163.59 88.93 158.62 88.69 153.64 C 90.43 153.73 92.18 153.84 93.93 153.95 C 88.28 150.81 90.14 144.18 89.15 138.91 C 88.75 136.24 89.10 133.54 89.73 130.93 C 88.93 129.60 88.13 128.26 87.33 126.93 C 88.73 125.74 90.14 124.56 91.56 123.40 C 88.88 121.45 85.92 119.80 83.62 117.41 C 81.55 113.48 81.94 108.81 81.37 104.54 C 82.44 104.16 83.51 103.77 84.58 103.38 C 83.30 98.73 82.20 94.03 81.36 89.29 C 82.75 87.76 84.51 86.45 85.34 84.51 C 88.65 76.03 91.69 67.30 97.22 59.94 C 95.78 57.54 94.02 55.24 93.30 52.49 C 94.41 51.20 95.73 50.10 97.01 48.97 C 97.26 45.98 97.52 42.98 97.79 39.99 C 104.25 36.14 108.05 26.99 116.38 27.27 Z" />
</g>
<g id="#fff1e8ff">
<path fill="#fff1e8" opacity="1.00" d=" M 29.12 225.53 C 33.05 226.31 26.83 228.96 29.12 225.53 Z" />
<path fill="#fff1e8" opacity="1.00" d=" M 178.59 229.10 L 180.01 229.03 C 180.08 232.19 180.37 235.39 180.47 238.56 C 179.70 235.43 179.25 232.25 178.59 229.10 Z" />
<path fill="#fff1e8" opacity="1.00" d=" M 254.67 229.15 C 255.46 227.95 257.57 229.23 256.71 230.47 C 255.93 231.61 253.85 230.35 254.67 229.15 Z" />
<path fill="#fff1e8" opacity="1.00" d=" M 28.21 232.85 C 29.60 232.20 31.17 234.52 30.27 235.67 C 28.79 236.49 27.15 234.03 28.21 232.85 Z" />
<path fill="#fff1e8" opacity="1.00" d=" M 111.75 231.77 C 113.59 232.84 115.43 233.92 117.28 235.00 C 115.89 234.98 114.50 234.96 113.12 234.95 C 112.66 233.88 112.21 232.82 111.75 231.77 Z" />
<path fill="#fff1e8" opacity="1.00" d=" M 114.17 236.91 C 115.56 236.43 117.57 238.44 117.09 239.83 C 115.53 240.74 113.26 238.46 114.17 236.91 Z" />
<path fill="#fff1e8" opacity="1.00" d=" M 253.66 237.46 C 254.67 236.54 256.61 237.14 257.18 238.32 C 256.91 240.13 253.11 239.22 253.66 237.46 Z" />
<path fill="#fff1e8" opacity="1.00" d=" M 29.17 241.90 C 30.25 241.12 31.94 242.23 32.22 243.39 C 31.71 245.34 28.11 243.60 29.17 241.90 Z" />
<path fill="#fff1e8" opacity="1.00" d=" M 113.59 243.46 C 114.83 242.58 116.92 244.47 116.16 245.78 C 114.88 246.78 112.71 244.83 113.59 243.46 Z" />
<path fill="#fff1e8" opacity="1.00" d=" M 250.92 246.23 C 252.15 245.27 255.36 245.64 255.38 247.48 C 254.12 248.26 251.16 247.82 250.92 246.23 Z" />
<path fill="#fff1e8" opacity="1.00" d=" M 30.79 247.17 C 31.25 245.91 33.65 246.41 33.21 247.83 C 32.74 249.09 30.35 248.59 30.79 247.17 Z" />
<path fill="#fff1e8" opacity="1.00" d=" M 178.47 252.80 C 178.56 251.30 178.77 248.25 180.87 248.57 C 181.97 250.34 179.65 251.85 178.75 253.18 L 178.47 252.80 Z" />
<path fill="#fff1e8" opacity="1.00" d=" M 113.67 249.39 C 114.89 248.43 117.13 250.24 116.33 251.61 C 115.10 252.57 112.87 250.76 113.67 249.39 Z" />
<path fill="#fff1e8" opacity="1.00" d=" M 30.89 253.15 C 31.35 251.42 33.26 253.19 33.46 254.18 L 33.35 254.80 C 32.05 254.88 31.24 254.33 30.89 253.15 Z" />
<path fill="#fff1e8" opacity="1.00" d=" M 250.60 252.06 C 251.32 252.17 252.75 252.37 253.47 252.47 L 252.74 252.99 C 251.48 253.77 251.35 254.60 252.35 255.49 C 253.56 254.96 253.69 254.13 252.74 252.99 C 253.01 254.62 253.56 257.88 253.83 259.51 C 252.41 257.21 251.20 254.70 250.60 252.06 Z" />
<path fill="#fff1e8" opacity="1.00" d=" M 111.65 254.43 C 113.20 253.83 114.34 256.51 113.35 257.57 C 111.80 258.16 110.66 255.49 111.65 254.43 Z" />
<path fill="#fff1e8" opacity="1.00" d=" M 118.12 258.35 C 120.21 259.67 115.68 262.04 115.29 259.86 C 115.53 258.66 117.02 258.10 118.12 258.35 Z" />
<path fill="#fff1e8" opacity="1.00" d=" M 250.35 265.35 C 252.98 264.09 255.68 263.00 258.45 262.10 C 256.26 264.23 253.60 266.49 250.35 265.35 Z" />
<path fill="#fff1e8" opacity="1.00" d=" M 179.37 263.64 C 180.79 262.89 181.96 265.33 180.78 266.21 C 179.39 266.91 178.22 264.50 179.37 263.64 Z" />
<path fill="#fff1e8" opacity="1.00" d=" M 115.63 271.56 C 113.51 269.30 113.52 266.34 113.78 263.41 C 114.48 266.11 115.14 268.82 115.63 271.56 Z" />
</g>
</svg>
