<?xml version="1.0" encoding="UTF-8" ?>
<!DOCTYPE svg PUBLIC "-//W3C//DTD SVG 1.1//EN" "http://www.w3.org/Graphics/SVG/1.1/DTD/svg11.dtd">
<svg width="120pt" height="120pt" viewBox="0 0 120 120" version="1.1" xmlns="http://www.w3.org/2000/svg">
<g id="#ffffffff">
<path fill="#ffffff" opacity="1.00" d=" M 90.21 2.83 C 92.28 2.40 90.74 7.50 89.83 4.72 C 89.93 4.25 90.12 3.30 90.21 2.83 Z" />
<path fill="#ffffff" opacity="1.00" d=" M 91.74 7.39 C 92.52 5.10 94.10 3.51 96.40 2.76 C 95.90 5.08 94.07 6.92 91.74 7.39 Z" />
<path fill="#ffffff" opacity="1.00" d=" M 110.23 3.32 C 111.78 1.68 113.73 3.81 112.06 5.30 C 110.89 7.44 108.80 4.59 110.23 3.32 Z" />
<path fill="#ffffff" opacity="1.00" d=" M 85.00 5.05 C 86.33 5.05 87.67 5.05 89.00 5.05 C 89.00 5.52 88.99 6.48 88.99 6.96 C 87.66 6.95 86.33 6.95 85.01 6.96 C 85.01 6.48 85.00 5.52 85.00 5.05 Z" />
<path fill="#ffffff" opacity="1.00" d=" M 104.90 5.95 C 105.81 6.04 107.65 6.22 108.56 6.31 C 107.76 7.65 106.67 8.76 105.33 9.56 C 105.22 8.66 105.01 6.85 104.90 5.95 Z" />
<path fill="#ffffff" opacity="1.00" d=" M 114.46 6.17 C 116.51 6.89 112.86 10.59 112.17 8.48 C 112.64 7.42 113.40 6.65 114.46 6.17 Z" />
<path fill="#ffffff" opacity="1.00" d=" M 95.17 7.28 C 95.95 6.14 98.86 6.94 97.41 8.40 C 96.64 9.80 93.91 8.79 95.17 7.28 Z" />
<path fill="#ffffff" opacity="1.00" d=" M 87.17 7.96 C 88.01 8.04 89.70 8.21 90.55 8.29 C 89.41 10.01 88.00 11.52 86.65 13.06 C 86.24 12.73 85.42 12.07 85.01 11.74 C 85.74 10.49 86.45 9.22 87.17 7.96 Z" />
<path fill="#ffffff" opacity="1.00" d=" M 93.29 10.12 C 94.50 9.40 96.29 10.10 96.85 11.35 C 96.45 13.15 92.66 11.78 93.29 10.12 Z" />
<path fill="#ffffff" opacity="1.00" d=" M 105.01 11.01 C 105.89 10.34 106.85 10.04 107.92 10.11 C 108.92 12.07 105.91 13.01 105.02 14.44 C 105.02 13.58 105.01 11.87 105.01 11.01 Z" />
<path fill="#ffffff" opacity="1.00" d=" M 113.15 10.37 C 114.27 9.65 115.43 9.58 116.65 10.13 C 117.62 12.42 111.78 13.01 113.15 10.37 Z" />
<path fill="#ffffff" opacity="1.00" d=" M 109.28 12.15 C 110.50 12.82 110.44 13.50 109.08 14.20 C 107.83 13.59 107.89 12.91 109.28 12.15 Z" />
<path fill="#ffffff" opacity="1.00" d=" M 110.84 11.92 C 111.91 12.44 112.98 12.93 114.07 13.41 C 113.98 14.19 113.79 15.74 113.69 16.52 C 111.75 15.64 110.59 14.11 110.84 11.92 Z" />
<path fill="#ffffff" opacity="1.00" d=" M 100.08 19.39 C 101.36 18.59 102.77 20.96 101.71 21.90 C 100.23 22.87 99.14 20.43 100.08 19.39 Z" />
<path fill="#ffffff" opacity="1.00" d=" M 95.34 20.31 C 96.51 19.82 97.84 21.00 97.93 22.15 C 97.09 24.38 92.52 21.60 95.34 20.31 Z" />
<path fill="#ffffff" opacity="1.00" d=" M 104.29 21.15 C 105.52 21.81 105.45 22.49 104.09 23.19 C 102.83 22.59 102.90 21.91 104.29 21.15 Z" />
<path fill="#ffffff" opacity="1.00" d=" M 36.54 24.81 C 37.66 24.19 38.79 23.58 39.89 22.94 C 40.76 24.56 41.59 26.19 42.36 27.85 C 41.61 27.89 40.11 27.96 39.36 28.00 C 38.42 26.93 37.48 25.88 36.54 24.81 Z" />
<path fill="#ffffff" opacity="1.00" d=" M 103.27 25.22 C 104.14 24.61 106.72 24.30 106.74 25.76 C 105.88 26.35 103.29 26.64 103.27 25.22 Z" />
<path fill="#ffffff" opacity="1.00" d=" M 96.30 26.08 C 98.03 25.02 98.26 27.58 96.71 27.92 C 94.97 28.97 94.74 26.42 96.30 26.08 Z" />
<path fill="#ffffff" opacity="1.00" d=" M 99.37 27.31 C 101.22 27.16 101.85 31.51 99.54 30.93 C 97.92 30.33 98.42 28.26 99.37 27.31 Z" />
<path fill="#ffffff" opacity="1.00" d=" M 103.33 27.08 C 104.28 26.41 106.69 27.02 106.01 28.50 C 105.17 29.07 102.82 28.28 103.33 27.08 Z" />
<path fill="#ffffff" opacity="1.00" d=" M 103.94 39.41 C 102.79 39.38 102.79 39.38 103.94 39.41 Z" />
<path fill="#ffffff" opacity="1.00" d=" M 39.22 104.22 C 39.83 104.83 39.83 104.83 39.22 104.22 Z" />
<path fill="#ffffff" opacity="1.00" d=" M 48.26 107.24 C 48.87 107.85 48.87 107.85 48.26 107.24 Z" />
</g>
<g id="#000000ff">
<path fill="#000000" opacity="1.00" d=" M 88.52 4.00 C 89.32 2.75 89.67 0.36 91.67 1.00 C 91.86 1.53 92.22 2.59 92.41 3.12 C 93.87 2.58 95.35 2.07 96.86 1.69 C 97.09 3.68 96.40 6.39 99.22 6.56 C 98.44 9.16 97.93 11.86 96.88 14.38 C 95.87 13.89 94.87 13.37 93.87 12.84 C 92.34 14.37 90.64 15.70 88.33 14.93 C 89.25 14.60 91.10 13.95 92.02 13.62 C 91.97 12.23 91.91 10.85 91.83 9.47 C 90.66 10.94 89.68 12.55 88.67 14.14 C 86.98 14.05 85.28 13.79 83.80 12.92 C 85.02 9.98 84.39 7.03 83.82 4.04 C 85.38 4.01 86.95 4.00 88.52 4.00 M 90.21 2.83 C 90.12 3.30 89.93 4.25 89.83 4.72 C 90.74 7.50 92.28 2.40 90.21 2.83 M 91.74 7.39 C 94.07 6.92 95.90 5.08 96.40 2.76 C 94.10 3.51 92.52 5.10 91.74 7.39 M 85.00 5.05 C 85.00 5.52 85.01 6.48 85.01 6.96 C 86.33 6.95 87.66 6.95 88.99 6.96 C 88.99 6.48 89.00 5.52 89.00 5.05 C 87.67 5.05 86.33 5.05 85.00 5.05 M 95.17 7.28 C 93.91 8.79 96.64 9.80 97.41 8.40 C 98.86 6.94 95.95 6.14 95.17 7.28 M 87.17 7.96 C 86.45 9.22 85.74 10.49 85.01 11.74 C 85.42 12.07 86.24 12.73 86.65 13.06 C 88.00 11.52 89.41 10.01 90.55 8.29 C 89.70 8.21 88.01 8.04 87.17 7.96 M 91.26 8.11 C 91.50 11.36 94.27 6.58 91.26 8.11 M 93.29 10.12 C 92.66 11.78 96.45 13.15 96.85 11.35 C 96.29 10.10 94.50 9.40 93.29 10.12 Z" />
<path fill="#000000" opacity="1.00" d=" M 109.04 2.00 C 110.55 2.00 112.07 2.00 113.58 2.00 C 114.89 5.34 116.82 8.38 118.45 11.58 C 117.31 12.23 116.17 12.85 115.00 13.44 C 114.99 14.68 114.97 15.93 114.95 17.17 C 113.59 16.91 111.94 17.25 110.83 16.24 C 109.04 14.34 106.31 15.17 104.03 15.00 C 104.07 11.95 104.21 8.83 102.82 6.02 C 104.70 4.90 106.87 4.93 108.98 4.93 C 109.00 4.20 109.03 2.73 109.04 2.00 M 110.23 3.32 C 108.80 4.59 110.89 7.44 112.06 5.30 C 113.73 3.81 111.78 1.68 110.23 3.32 M 104.90 5.95 C 105.01 6.85 105.22 8.66 105.33 9.56 C 106.67 8.76 107.76 7.65 108.56 6.31 C 107.65 6.22 105.81 6.04 104.90 5.95 M 114.46 6.17 C 113.40 6.65 112.64 7.42 112.17 8.48 C 112.86 10.59 116.51 6.89 114.46 6.17 M 109.01 8.44 C 108.33 9.45 109.93 11.03 110.94 10.66 C 111.78 9.60 110.18 7.59 109.01 8.44 M 105.01 11.01 C 105.01 11.87 105.02 13.58 105.02 14.44 C 105.91 13.01 108.92 12.07 107.92 10.11 C 106.85 10.04 105.89 10.34 105.01 11.01 M 113.15 10.37 C 111.78 13.01 117.62 12.42 116.65 10.13 C 115.43 9.58 114.27 9.65 113.15 10.37 M 109.28 12.15 C 107.89 12.91 107.83 13.59 109.08 14.20 C 110.44 13.50 110.50 12.82 109.28 12.15 M 110.84 11.92 C 110.59 14.11 111.75 15.64 113.69 16.52 C 113.79 15.74 113.98 14.19 114.07 13.41 C 112.98 12.93 111.91 12.44 110.84 11.92 Z" />
<path fill="#000000" opacity="1.00" d=" M 69.71 21.22 C 69.90 19.45 70.45 17.80 71.67 16.46 C 72.54 17.88 72.96 19.48 73.21 21.11 C 74.36 20.15 75.55 19.23 76.84 18.46 C 76.96 20.26 77.10 22.06 76.98 23.87 C 76.33 26.86 73.19 28.46 72.55 31.46 C 74.37 31.02 75.78 29.78 77.22 28.66 C 78.25 30.01 80.48 30.97 80.01 32.99 C 79.35 36.91 78.01 40.68 75.87 44.05 C 74.09 44.00 72.29 44.11 70.53 43.84 C 67.57 41.05 63.91 39.19 60.78 36.61 C 60.96 34.80 61.43 33.04 62.09 31.35 C 63.13 30.86 64.15 30.36 65.16 29.83 C 66.54 30.31 67.91 30.83 69.30 31.29 C 69.00 29.85 68.78 28.35 67.81 27.17 C 65.97 24.32 65.77 20.90 66.01 17.60 C 67.26 18.79 68.49 20.00 69.71 21.22 M 70.56 22.22 C 69.31 21.58 68.07 20.90 66.81 20.27 C 67.50 23.00 67.89 26.15 70.35 27.94 C 74.20 28.85 75.44 24.01 76.48 21.27 C 75.08 21.57 73.69 21.89 72.29 22.19 C 72.14 21.26 71.84 19.40 71.70 18.47 C 71.30 19.71 70.92 20.97 70.56 22.22 M 69.98 30.07 C 70.31 34.22 70.84 38.34 71.44 42.45 C 72.03 42.65 73.21 43.06 73.80 43.26 C 73.54 41.06 72.77 38.79 73.31 36.57 C 74.08 35.49 75.00 34.52 75.88 33.54 C 75.06 36.44 74.00 39.42 75.11 42.41 C 77.24 39.18 78.33 35.44 79.18 31.70 C 77.93 31.47 76.69 31.21 75.43 31.13 C 74.16 32.70 73.25 34.52 72.22 36.25 C 72.08 34.15 71.96 32.06 71.83 29.97 C 71.37 30.00 70.44 30.05 69.98 30.07 M 61.85 35.91 C 64.22 38.20 67.25 39.62 70.15 41.11 C 70.03 40.48 69.78 39.21 69.65 38.58 C 67.90 37.46 66.19 36.29 64.58 34.99 C 66.23 35.55 67.84 36.18 69.47 36.80 C 68.97 34.86 68.85 32.17 66.44 31.64 C 63.90 30.37 62.14 33.80 61.85 35.91 Z" />
<path fill="#000000" opacity="1.00" d=" M 36.44 18.00 C 38.54 18.00 40.64 18.00 42.74 18.00 C 43.89 20.00 45.31 21.80 46.84 23.51 C 47.18 25.85 46.97 28.22 47.00 30.58 C 45.31 31.39 43.37 31.98 42.29 33.62 C 44.94 33.11 47.62 32.89 50.32 32.97 C 48.23 37.27 41.96 38.76 41.74 44.00 C 40.58 44.00 39.42 44.00 38.26 44.00 C 38.16 39.92 34.07 37.69 31.00 35.77 C 31.00 35.06 31.00 33.63 31.00 32.92 C 34.07 32.56 36.87 33.66 39.45 35.20 C 38.87 32.22 35.22 31.98 33.00 30.63 C 33.00 27.56 33.00 24.50 33.00 21.43 C 34.17 20.31 35.31 19.16 36.44 18.00 M 37.43 19.00 C 36.30 20.17 35.14 21.31 33.96 22.44 C 33.77 25.71 33.97 30.16 37.66 31.42 C 40.64 33.24 43.65 31.08 46.13 29.49 C 46.63 25.36 43.81 22.23 41.75 18.99 C 40.31 18.99 38.87 19.00 37.43 19.00 M 40.32 42.50 C 41.53 39.19 41.44 35.63 41.16 32.17 C 39.39 35.34 39.91 39.06 40.32 42.50 M 31.66 33.76 C 33.61 35.67 35.75 37.38 37.84 39.13 C 38.16 38.60 38.80 37.53 39.12 37.00 C 36.87 35.43 34.39 34.18 31.66 33.76 M 41.86 35.84 C 42.19 36.42 42.85 37.59 43.18 38.18 C 44.91 36.76 46.66 35.36 48.30 33.83 C 46.04 34.08 43.87 34.78 41.86 35.84 Z" />
<path fill="#000000" opacity="1.00" d=" M 99.13 17.62 C 101.57 18.12 103.45 19.92 105.92 20.32 C 105.99 22.05 105.84 24.03 107.90 24.61 C 108.07 26.46 108.56 28.82 106.66 29.97 C 105.14 30.32 103.83 29.37 102.50 28.84 C 101.99 29.91 101.46 30.96 100.91 32.02 C 100.20 32.02 98.80 32.02 98.09 32.03 C 97.58 31.04 97.10 30.05 96.63 29.04 C 95.90 28.99 94.42 28.88 93.68 28.83 C 93.81 27.01 94.74 25.54 96.07 24.35 C 94.94 23.86 93.83 23.34 92.72 22.79 C 92.97 21.43 93.09 19.95 94.30 19.05 C 96.28 18.27 97.60 20.15 98.97 21.22 C 99.01 20.32 99.09 18.52 99.13 17.62 M 100.08 19.39 C 99.14 20.43 100.23 22.87 101.71 21.90 C 102.77 20.96 101.36 18.59 100.08 19.39 M 95.34 20.31 C 92.52 21.60 97.09 24.38 97.93 22.15 C 97.84 21.00 96.51 19.82 95.34 20.31 M 104.29 21.15 C 102.90 21.91 102.83 22.59 104.09 23.19 C 105.45 22.49 105.52 21.81 104.29 21.15 M 97.61 24.40 C 99.05 25.61 100.55 26.76 102.25 27.59 C 101.78 25.91 101.21 24.26 100.65 22.61 C 99.63 23.20 98.61 23.79 97.61 24.40 M 103.27 25.22 C 103.29 26.64 105.88 26.35 106.74 25.76 C 106.72 24.30 104.14 24.61 103.27 25.22 M 96.30 26.08 C 94.74 26.42 94.97 28.97 96.71 27.92 C 98.26 27.58 98.03 25.02 96.30 26.08 M 99.37 27.31 C 98.42 28.26 97.92 30.33 99.54 30.93 C 101.85 31.51 101.22 27.16 99.37 27.31 M 103.33 27.08 C 102.82 28.28 105.17 29.07 106.01 28.50 C 106.69 27.02 104.28 26.41 103.33 27.08 Z" />
<path fill="#000000" opacity="1.00" d=" M 8.04 20.77 C 9.48 20.98 11.07 21.01 11.98 22.35 C 12.44 25.17 11.03 27.79 10.83 30.56 C 12.53 27.87 15.07 24.46 18.67 25.08 C 20.67 26.13 20.16 28.52 19.05 30.03 C 17.93 32.66 14.93 33.26 12.78 34.74 C 11.72 35.95 11.31 37.58 10.60 39.00 C 9.58 39.00 8.55 39.00 7.53 39.00 C 6.47 35.89 3.26 34.70 0.94 32.76 C 0.96 30.41 0.98 28.06 1.06 25.72 C 3.75 25.97 6.05 27.44 8.00 29.21 C 8.00 26.39 7.99 23.58 8.04 20.77 M 9.03 21.75 C 9.19 27.39 8.83 33.03 8.26 38.64 C 9.19 37.63 10.71 36.70 10.42 35.09 C 10.05 31.17 10.21 27.24 11.01 23.37 C 10.52 22.97 9.53 22.15 9.03 21.75 M 12.74 29.33 C 14.03 29.73 15.57 29.87 16.25 31.23 C 17.71 29.81 18.85 28.10 18.95 26.00 C 16.49 26.27 14.57 27.82 12.74 29.33 M 1.94 26.55 C 2.18 28.87 1.59 31.71 3.46 33.50 C 4.60 34.27 5.85 34.83 7.08 35.44 C 5.75 33.47 4.29 31.60 2.91 29.68 C 4.81 30.73 6.65 31.86 8.56 32.90 C 6.97 30.22 4.73 27.97 1.94 26.55 M 16.25 31.23 C 13.52 29.28 15.28 34.39 16.25 31.23 Z" />
<path fill="#000000" opacity="1.00" d=" M 36.57 27.24 C 34.00 24.50 38.23 21.86 40.74 21.47 C 42.20 23.85 43.25 26.44 43.41 29.25 C 41.01 29.05 38.02 29.72 36.57 27.24 M 36.54 24.81 C 37.48 25.88 38.42 26.93 39.36 28.00 C 40.11 27.96 41.61 27.89 42.36 27.85 C 41.59 26.19 40.76 24.56 39.89 22.94 C 38.79 23.58 37.66 24.19 36.54 24.81 Z" />
<path fill="#000000" opacity="1.00" d=" M 100.00 34.83 L 101.49 35.46 C 100.29 39.76 99.48 44.43 101.28 48.70 C 102.03 44.03 102.38 39.32 102.81 34.62 L 104.01 35.12 C 103.99 36.55 103.97 37.98 103.94 39.41 C 102.79 39.38 102.79 39.38 103.94 39.41 C 105.12 38.55 106.36 37.77 107.58 36.97 C 108.38 37.81 109.18 38.64 110.00 39.46 C 110.00 40.90 110.00 42.34 110.01 43.78 C 107.74 45.76 104.96 46.96 102.53 48.70 C 101.19 49.81 99.66 48.31 98.52 47.65 C 96.79 44.91 94.33 42.80 91.70 40.97 C 92.10 39.87 92.58 38.80 93.13 37.77 C 95.57 38.61 98.12 39.29 100.00 41.18 C 100.00 39.06 100.00 36.94 100.00 34.83 M 102.78 46.79 C 104.93 45.74 107.86 45.23 108.76 42.68 C 109.50 41.40 108.75 39.92 107.84 38.96 C 104.03 39.12 103.23 43.80 102.78 46.79 M 92.71 39.46 C 94.76 41.55 96.98 43.49 99.35 45.23 C 98.72 43.71 98.18 42.13 97.23 40.78 C 95.98 39.75 94.19 39.90 92.71 39.46 Z" />
<path fill="#000000" opacity="1.00" d=" M 20.11 44.70 C 21.07 45.59 22.03 46.48 23.00 47.37 C 23.00 49.82 23.03 52.28 22.98 54.73 L 23.38 55.02 C 24.65 55.94 25.93 56.85 27.24 57.73 C 25.01 59.08 22.37 59.48 19.85 60.00 C 16.48 60.63 13.72 58.21 10.88 56.81 C 11.08 55.17 10.50 53.07 12.34 52.17 C 13.12 52.07 14.70 51.85 15.49 51.75 L 14.84 52.25 C 13.77 53.07 12.70 53.89 11.64 54.71 C 12.69 55.89 13.75 57.07 14.81 58.24 C 16.05 57.52 17.29 56.81 18.53 56.09 L 19.06 55.78 C 19.23 52.09 18.14 48.06 20.11 44.70 M 20.36 46.39 C 19.84 50.63 19.96 54.90 20.07 59.16 C 20.99 58.78 21.90 58.39 22.82 58.00 C 22.08 54.11 22.54 49.87 20.36 46.39 Z" />
<path fill="#000000" opacity="1.00" d=" M 105.48 54.07 C 107.04 52.25 109.00 50.86 111.09 49.71 C 117.86 55.63 116.93 65.16 118.99 73.11 C 120.21 78.43 117.38 83.46 117.98 88.78 C 115.74 91.54 112.03 91.08 108.90 91.94 C 98.64 92.05 88.36 92.04 78.10 91.94 C 72.95 90.28 67.52 91.44 62.24 90.82 C 58.65 89.51 54.82 90.21 51.10 89.94 C 46.43 89.05 41.73 88.36 37.00 87.86 C 36.96 83.60 36.67 79.26 38.19 75.19 C 40.36 69.84 39.77 63.26 44.23 59.00 C 46.10 59.00 47.97 59.00 49.84 59.00 C 50.64 60.35 51.40 61.73 52.18 63.09 C 52.62 62.79 53.49 62.19 53.92 61.89 C 53.22 63.29 52.54 64.69 51.84 66.08 C 50.86 63.86 49.83 61.66 48.75 59.48 C 46.16 59.91 43.27 60.67 42.49 63.56 C 40.18 71.07 37.86 78.79 37.86 86.73 C 52.43 89.37 67.24 89.79 81.96 90.95 C 89.32 91.10 96.68 91.01 104.04 91.03 C 108.02 90.87 112.26 90.78 115.86 88.88 C 119.46 79.76 117.62 69.68 115.68 60.38 C 114.99 56.78 112.86 53.69 110.32 51.14 C 108.80 52.90 107.33 54.69 105.91 56.52 C 104.51 54.76 103.35 52.48 101.04 51.80 C 97.78 53.54 96.42 57.19 94.61 60.19 C 92.65 57.32 90.75 53.40 86.88 52.99 C 82.41 52.52 81.48 58.19 79.66 61.16 C 77.19 58.13 74.67 53.79 70.21 53.95 C 68.47 54.86 67.17 56.38 65.84 57.77 C 65.50 58.26 64.81 59.22 64.47 59.71 C 63.91 60.61 63.34 61.50 62.77 62.39 C 62.25 60.74 61.75 59.08 61.24 57.43 C 60.70 57.27 59.60 56.95 59.05 56.79 C 57.59 58.16 56.12 59.53 54.66 60.90 C 55.36 59.22 56.20 57.59 57.08 56.00 C 58.70 56.00 60.33 55.99 61.95 55.98 C 62.45 57.05 62.92 58.13 63.37 59.22 C 64.46 56.71 66.59 54.93 68.41 52.97 C 73.06 52.15 77.79 54.97 79.63 59.25 C 80.43 57.17 81.41 55.18 82.28 53.14 C 84.24 52.34 86.47 51.39 88.58 52.23 C 90.44 53.16 92.09 54.44 93.92 55.42 C 93.96 56.22 94.04 57.80 94.08 58.60 C 95.46 55.73 97.12 53.01 99.48 50.83 C 101.80 50.95 104.87 51.37 105.48 54.07 Z" />
<path fill="#000000" opacity="1.00" d=" M 24.62 54.03 C 24.88 52.00 26.96 51.57 28.45 50.68 C 28.91 51.69 29.38 52.68 29.87 53.68 C 29.29 54.55 28.71 55.43 28.13 56.30 C 28.10 55.43 28.04 53.71 28.01 52.84 C 26.87 53.22 25.74 53.61 24.62 54.03 Z" />
</g>
<g id="#ffe925ff">
<path fill="#ffe925" opacity="1.00" d=" M 91.26 8.11 C 94.27 6.58 91.50 11.36 91.26 8.11 Z" />
<path fill="#ffe925" opacity="1.00" d=" M 109.01 8.44 C 110.18 7.59 111.78 9.60 110.94 10.66 C 109.93 11.03 108.33 9.45 109.01 8.44 Z" />
<path fill="#ffe925" opacity="1.00" d=" M 37.43 19.00 C 38.87 19.00 40.31 18.99 41.75 18.99 C 43.81 22.23 46.63 25.36 46.13 29.49 C 43.65 31.08 40.64 33.24 37.66 31.42 C 33.97 30.16 33.77 25.71 33.96 22.44 C 35.14 21.31 36.30 20.17 37.43 19.00 M 36.57 27.24 C 38.02 29.72 41.01 29.05 43.41 29.25 C 43.25 26.44 42.20 23.85 40.74 21.47 C 38.23 21.86 34.00 24.50 36.57 27.24 Z" />
<path fill="#ffe925" opacity="1.00" d=" M 97.61 24.40 C 98.61 23.79 99.63 23.20 100.65 22.61 C 101.21 24.26 101.78 25.91 102.25 27.59 C 100.55 26.76 99.05 25.61 97.61 24.40 Z" />
</g>
<g id="#ff004dff">
<path fill="#ff004d" opacity="1.00" d=" M 70.56 22.22 C 70.92 20.97 71.30 19.71 71.70 18.47 C 71.84 19.40 72.14 21.26 72.29 22.19 C 73.69 21.89 75.08 21.57 76.48 21.27 C 75.44 24.01 74.20 28.85 70.35 27.94 C 67.89 26.15 67.50 23.00 66.81 20.27 C 68.07 20.90 69.31 21.58 70.56 22.22 Z" />
</g>
<g id="#008751ff">
<path fill="#008751" opacity="1.00" d=" M 9.03 21.75 C 9.53 22.15 10.52 22.97 11.01 23.37 C 10.21 27.24 10.05 31.17 10.42 35.09 C 10.71 36.70 9.19 37.63 8.26 38.64 C 8.83 33.03 9.19 27.39 9.03 21.75 Z" />
<path fill="#008751" opacity="1.00" d=" M 12.74 29.33 C 14.57 27.82 16.49 26.27 18.95 26.00 C 18.85 28.10 17.71 29.81 16.25 31.23 C 15.57 29.87 14.03 29.73 12.74 29.33 Z" />
<path fill="#008751" opacity="1.00" d=" M 1.94 26.55 C 4.73 27.97 6.97 30.22 8.56 32.90 C 6.65 31.86 4.81 30.73 2.91 29.68 C 4.29 31.60 5.75 33.47 7.08 35.44 C 5.85 34.83 4.60 34.27 3.46 33.50 C 1.59 31.71 2.18 28.87 1.94 26.55 Z" />
<path fill="#008751" opacity="1.00" d=" M 69.98 30.07 C 70.44 30.05 71.37 30.00 71.83 29.97 C 71.96 32.06 72.08 34.15 72.22 36.25 C 73.25 34.52 74.16 32.70 75.43 31.13 C 76.69 31.21 77.93 31.47 79.18 31.70 C 78.33 35.44 77.24 39.18 75.11 42.41 C 74.00 39.42 75.06 36.44 75.88 33.54 C 75.00 34.52 74.08 35.49 73.31 36.57 C 72.77 38.79 73.54 41.06 73.80 43.26 C 73.21 43.06 72.03 42.65 71.44 42.45 C 70.84 38.34 70.31 34.22 69.98 30.07 Z" />
<path fill="#008751" opacity="1.00" d=" M 16.25 31.23 C 15.28 34.39 13.52 29.28 16.25 31.23 Z" />
<path fill="#008751" opacity="1.00" d=" M 61.85 35.91 C 62.14 33.80 63.90 30.37 66.44 31.64 C 68.85 32.17 68.97 34.86 69.47 36.80 C 67.84 36.18 66.23 35.55 64.58 34.99 C 66.19 36.29 67.90 37.46 69.65 38.58 C 69.78 39.21 70.03 40.48 70.15 41.11 C 67.25 39.62 64.22 38.20 61.85 35.91 Z" />
<path fill="#008751" opacity="1.00" d=" M 40.32 42.50 C 39.91 39.06 39.39 35.34 41.16 32.17 C 41.44 35.63 41.53 39.19 40.32 42.50 Z" />
<path fill="#008751" opacity="1.00" d=" M 31.66 33.76 C 34.39 34.18 36.87 35.43 39.12 37.00 C 38.80 37.53 38.16 38.60 37.84 39.13 C 35.75 37.38 33.61 35.67 31.66 33.76 Z" />
<path fill="#008751" opacity="1.00" d=" M 41.86 35.84 C 43.87 34.78 46.04 34.08 48.30 33.83 C 46.66 35.36 44.91 36.76 43.18 38.18 C 42.85 37.59 42.19 36.42 41.86 35.84 Z" />
<path fill="#008751" opacity="1.00" d=" M 101.49 35.46 C 101.82 35.25 102.48 34.83 102.81 34.62 C 102.38 39.32 102.03 44.03 101.28 48.70 C 99.48 44.43 100.29 39.76 101.49 35.46 Z" />
<path fill="#008751" opacity="1.00" d=" M 102.78 46.79 C 103.23 43.80 104.03 39.12 107.84 38.96 C 108.75 39.92 109.50 41.40 108.76 42.68 C 107.86 45.23 104.93 45.74 102.78 46.79 Z" />
<path fill="#008751" opacity="1.00" d=" M 92.71 39.46 C 94.19 39.90 95.98 39.75 97.23 40.78 C 98.18 42.13 98.72 43.71 99.35 45.23 C 96.98 43.49 94.76 41.55 92.71 39.46 Z" />
<path fill="#008751" opacity="1.00" d=" M 20.36 46.39 C 22.54 49.87 22.08 54.11 22.82 58.00 C 21.90 58.39 20.99 58.78 20.07 59.16 C 19.96 54.90 19.84 50.63 20.36 46.39 Z" />
<path fill="#008751" opacity="1.00" d=" M 94.61 60.19 C 96.42 57.19 97.78 53.54 101.04 51.80 C 103.35 52.48 104.51 54.76 105.91 56.52 C 107.33 54.69 108.80 52.90 110.32 51.14 C 112.86 53.69 114.99 56.78 115.68 60.38 C 117.62 69.68 119.46 79.76 115.86 88.88 C 112.26 90.78 108.02 90.87 104.04 91.03 C 96.68 91.01 89.32 91.10 81.96 90.95 C 67.24 89.79 52.43 89.37 37.86 86.73 C 37.86 78.79 40.18 71.07 42.49 63.56 C 43.27 60.67 46.16 59.91 48.75 59.48 C 49.83 61.66 50.86 63.86 51.84 66.08 C 52.54 64.69 53.22 63.29 53.92 61.89 C 54.11 61.64 54.48 61.15 54.66 60.90 C 56.12 59.53 57.59 58.16 59.05 56.79 C 59.60 56.95 60.70 57.27 61.24 57.43 C 61.75 59.08 62.25 60.74 62.77 62.39 C 63.34 61.50 63.91 60.61 64.47 59.71 C 66.55 62.32 69.51 57.92 65.84 57.77 C 67.17 56.38 68.47 54.86 70.21 53.95 C 74.67 53.79 77.19 58.13 79.66 61.16 C 81.48 58.19 82.41 52.52 86.88 52.99 C 90.75 53.40 92.65 57.32 94.61 60.19 M 100.10 55.33 C 98.68 55.22 98.37 57.67 99.91 57.67 C 101.33 57.78 101.64 55.33 100.10 55.33 M 108.59 55.19 C 107.05 56.81 110.73 58.17 111.46 56.50 C 111.75 55.05 109.57 54.43 108.59 55.19 M 83.23 57.50 C 81.83 57.55 81.75 60.00 83.25 59.90 C 84.67 59.87 84.73 57.41 83.23 57.50 M 57.05 61.47 C 55.86 61.63 55.22 63.41 56.18 64.22 C 57.80 65.08 58.98 61.58 57.05 61.47 M 101.36 61.10 C 100.30 62.28 102.38 63.61 103.22 62.42 C 104.29 61.25 102.18 59.89 101.36 61.10 M 84.54 63.18 C 83.21 65.01 86.96 65.43 87.25 63.72 C 87.28 62.34 85.22 62.36 84.54 63.18 M 69.59 65.19 C 68.05 66.81 71.73 68.17 72.46 66.50 C 72.74 65.05 70.57 64.43 69.59 65.19 M 60.79 66.18 C 60.35 67.60 62.74 68.12 63.19 66.83 C 63.63 65.41 61.24 64.90 60.79 66.18 M 103.31 65.98 C 101.90 65.97 100.89 68.34 102.91 68.17 C 105.24 68.61 106.27 64.96 103.31 65.98 M 68.77 69.55 C 71.61 69.79 74.46 69.80 77.30 69.58 C 74.47 69.17 71.60 69.16 68.77 69.55 M 86.78 70.17 C 86.10 71.56 88.51 72.73 89.39 71.61 C 90.08 70.20 87.67 69.02 86.78 70.17 M 55.86 72.14 C 55.17 73.83 58.78 74.59 58.76 72.73 C 58.45 71.55 56.60 71.17 55.86 72.14 M 104.36 72.66 C 103.70 74.15 106.20 75.56 107.35 74.63 C 108.00 73.14 105.50 71.72 104.36 72.66 M 110.72 78.32 C 109.95 79.65 111.15 82.40 112.79 82.19 C 113.63 80.87 112.41 78.02 110.72 78.32 Z" />
<path fill="#008751" opacity="1.00" d=" M 11.64 54.71 C 12.70 53.89 13.77 53.07 14.84 52.25 C 16.10 53.50 17.35 54.76 18.53 56.09 C 17.29 56.81 16.05 57.52 14.81 58.24 C 13.75 57.07 12.69 55.89 11.64 54.71 Z" />
<path fill="#008751" opacity="1.00" d=" M 24.62 54.03 C 25.74 53.61 26.87 53.22 28.01 52.84 C 28.04 53.71 28.10 55.43 28.13 56.30 C 27.91 56.65 27.46 57.37 27.24 57.73 C 25.93 56.85 24.65 55.94 23.38 55.02 C 23.69 54.77 24.31 54.28 24.62 54.03 Z" />
</g>
<g id="#3fc70dff">
<path fill="#3fc70d" opacity="1.00" d=" M 100.10 55.33 C 101.64 55.33 101.33 57.78 99.91 57.67 C 98.37 57.67 98.68 55.22 100.10 55.33 Z" />
<path fill="#3fc70d" opacity="1.00" d=" M 108.59 55.19 C 109.57 54.43 111.75 55.05 111.46 56.50 C 110.73 58.17 107.05 56.81 108.59 55.19 Z" />
<path fill="#3fc70d" opacity="1.00" d=" M 83.23 57.50 C 84.73 57.41 84.67 59.87 83.25 59.90 C 81.75 60.00 81.83 57.55 83.23 57.50 Z" />
<path fill="#3fc70d" opacity="1.00" d=" M 64.47 59.71 C 64.81 59.22 65.50 58.26 65.84 57.77 C 69.51 57.92 66.55 62.32 64.47 59.71 Z" />
<path fill="#3fc70d" opacity="1.00" d=" M 57.05 61.47 C 58.98 61.58 57.80 65.08 56.18 64.22 C 55.22 63.41 55.86 61.63 57.05 61.47 Z" />
<path fill="#3fc70d" opacity="1.00" d=" M 101.36 61.10 C 102.18 59.89 104.29 61.25 103.22 62.42 C 102.38 63.61 100.30 62.28 101.36 61.10 Z" />
<path fill="#3fc70d" opacity="1.00" d=" M 84.54 63.18 C 85.22 62.36 87.28 62.34 87.25 63.72 C 86.96 65.43 83.21 65.01 84.54 63.18 Z" />
<path fill="#3fc70d" opacity="1.00" d=" M 69.59 65.19 C 70.57 64.43 72.74 65.05 72.46 66.50 C 71.73 68.17 68.05 66.81 69.59 65.19 Z" />
<path fill="#3fc70d" opacity="1.00" d=" M 60.79 66.18 C 61.24 64.90 63.63 65.41 63.19 66.83 C 62.74 68.12 60.35 67.60 60.79 66.18 Z" />
<path fill="#3fc70d" opacity="1.00" d=" M 103.31 65.98 C 106.27 64.96 105.24 68.61 102.91 68.17 C 100.89 68.34 101.90 65.97 103.31 65.98 Z" />
<path fill="#3fc70d" opacity="1.00" d=" M 68.77 69.55 C 71.60 69.16 74.47 69.17 77.30 69.58 C 74.46 69.80 71.61 69.79 68.77 69.55 Z" />
<path fill="#3fc70d" opacity="1.00" d=" M 86.78 70.17 C 87.67 69.02 90.08 70.20 89.39 71.61 C 88.51 72.73 86.10 71.56 86.78 70.17 Z" />
<path fill="#3fc70d" opacity="1.00" d=" M 55.86 72.14 C 56.60 71.17 58.45 71.55 58.76 72.73 C 58.78 74.59 55.17 73.83 55.86 72.14 Z" />
<path fill="#3fc70d" opacity="1.00" d=" M 104.36 72.66 C 105.50 71.72 108.00 73.14 107.35 74.63 C 106.20 75.56 103.70 74.15 104.36 72.66 Z" />
<path fill="#3fc70d" opacity="1.00" d=" M 110.72 78.32 C 112.41 78.02 113.63 80.87 112.79 82.19 C 111.15 82.40 109.95 79.65 110.72 78.32 Z" />
<path fill="#3fc70d" opacity="1.00" d=" M 46.49 100.27 C 52.52 100.25 58.35 96.92 64.41 98.58 C 71.17 99.20 77.74 101.54 84.58 101.16 C 88.42 100.51 92.28 102.77 94.39 105.89 C 90.32 105.79 86.18 106.79 82.17 105.74 C 76.24 104.55 70.38 103.09 64.54 101.51 C 60.32 100.30 55.43 101.11 52.22 104.23 C 50.59 105.49 51.58 107.73 51.62 109.44 C 51.99 111.12 54.13 111.17 55.34 111.99 C 53.98 112.00 52.62 112.02 51.26 112.03 C 51.14 111.20 50.88 109.52 50.75 108.68 C 47.28 109.33 43.88 110.31 40.46 111.14 C 41.26 109.70 42.17 108.33 43.10 106.97 C 40.62 107.89 38.22 106.90 36.05 105.66 C 35.32 103.83 37.45 103.34 38.66 102.68 C 41.22 101.76 43.70 100.23 46.49 100.27 M 39.22 104.22 C 39.83 104.83 39.83 104.83 39.22 104.22 M 48.26 107.24 C 48.87 107.85 48.87 107.85 48.26 107.24 Z" />
<path fill="#3fc70d" opacity="1.00" d=" M 54.23 108.51 C 56.12 107.35 57.73 105.41 60.02 105.11 C 64.40 105.14 68.52 106.88 72.68 108.05 C 66.90 110.45 60.06 111.04 54.23 108.51 Z" />
</g>
<g id="#7cc708ff">
<path fill="#7cc708" opacity="1.00" d=" M 52.22 104.23 C 55.43 101.11 60.32 100.30 64.54 101.51 C 70.38 103.09 76.24 104.55 82.17 105.74 C 78.89 106.03 75.88 107.44 72.68 108.05 C 68.52 106.88 64.40 105.14 60.02 105.11 C 57.73 105.41 56.12 107.35 54.23 108.51 C 53.58 108.74 52.28 109.21 51.62 109.44 C 51.58 107.73 50.59 105.49 52.22 104.23 Z" />
</g>
</svg>
