<?xml version="1.0" encoding="UTF-8" ?>
<!DOCTYPE svg PUBLIC "-//W3C//DTD SVG 1.1//EN" "http://www.w3.org/Graphics/SVG/1.1/DTD/svg11.dtd">
<svg width="474pt" height="304pt" viewBox="0 0 474 304" version="1.1" xmlns="http://www.w3.org/2000/svg">
<g id="#ffffffff">
<path fill="#ffffff" opacity="1.00" d=" M 418.45 0.00 L 429.78 0.00 C 428.39 1.43 427.00 2.85 425.70 4.37 C 425.32 3.80 424.56 2.68 424.18 2.12 C 423.09 3.79 422.01 5.48 420.87 7.11 C 420.63 7.41 420.13 8.00 419.88 8.30 C 418.84 7.36 417.68 6.56 416.41 5.98 C 416.98 3.95 417.68 1.96 418.45 0.00 Z" />
<path fill="#ffffff" opacity="1.00" d=" M 437.04 0.00 L 448.82 0.00 C 451.87 0.59 454.98 0.54 458.04 0.00 L 466.42 0.00 C 465.48 0.93 465.05 2.06 465.14 3.39 C 464.56 3.69 463.98 4.00 463.42 4.32 C 461.38 5.29 459.48 6.51 457.50 7.59 C 454.83 9.27 451.35 10.56 448.54 8.51 C 447.00 7.54 445.50 6.49 444.02 5.44 C 443.79 5.26 443.33 4.91 443.11 4.73 C 441.72 3.61 440.34 2.48 438.92 1.41 C 438.45 1.05 437.51 0.35 437.04 0.00 Z" />
<path fill="#ffffff" opacity="1.00" d=" M 469.48 15.01 L 470.27 14.57 C 471.47 15.34 472.71 15.43 474.00 14.84 L 474.00 20.99 C 472.64 20.11 471.19 21.17 470.29 22.15 C 469.00 23.08 467.72 24.01 466.43 24.91 C 463.91 26.58 461.40 28.25 458.87 29.89 C 457.83 30.51 456.79 31.12 455.75 31.71 C 454.41 30.87 452.67 30.59 451.28 31.46 C 450.78 30.15 450.38 28.79 450.04 27.43 C 451.56 27.60 452.40 26.11 452.94 24.93 C 455.06 24.16 457.18 23.35 459.30 22.55 C 460.98 22.24 462.26 20.73 462.06 18.98 L 462.71 18.65 C 465.01 17.53 467.26 16.30 469.48 15.01 Z" />
<path fill="#ffffff" opacity="1.00" d=" M 245.37 145.93 C 247.26 142.63 252.16 143.71 255.19 142.47 C 256.05 144.94 256.86 147.42 257.50 149.96 C 253.16 149.59 248.83 149.26 244.50 148.96 L 243.47 148.88 C 244.22 147.98 244.79 146.95 245.37 145.93 Z" />
<path fill="#ffffff" opacity="1.00" d=" M 299.01 153.87 C 307.20 153.59 315.41 153.29 323.59 154.16 C 329.06 154.78 335.25 154.03 339.81 157.74 C 314.84 162.03 289.53 156.67 264.41 158.57 C 242.95 160.32 221.44 159.11 199.96 160.12 C 200.59 159.31 200.90 158.39 200.87 157.37 L 200.93 156.03 C 233.57 154.13 266.31 154.11 299.01 153.87 Z" />
<path fill="#ffffff" opacity="1.00" d=" M 189.36 202.38 C 221.40 197.70 253.78 202.74 285.96 200.66 C 302.32 199.43 318.62 202.23 334.95 202.67 C 344.10 202.43 353.25 201.90 362.42 202.06 C 361.64 203.05 360.87 204.04 360.08 205.02 C 352.79 211.79 345.77 218.82 338.98 226.07 C 337.55 227.30 336.11 228.51 334.59 229.62 C 330.08 231.69 324.77 231.11 319.96 231.71 C 308.20 231.54 296.75 234.62 285.02 234.86 C 263.28 235.29 241.54 236.41 219.79 236.11 C 218.17 236.02 216.56 235.92 214.95 235.82 C 213.39 234.72 211.44 234.43 209.67 235.20 C 208.02 235.18 204.73 235.12 203.08 235.09 C 201.55 235.06 198.48 235.00 196.95 234.97 C 182.52 234.05 168.04 233.37 153.62 232.35 C 152.27 232.05 150.89 231.88 149.51 231.96 C 132.90 232.21 116.92 226.70 100.32 226.42 C 99.14 226.28 96.77 225.99 95.59 225.85 L 94.67 225.73 C 89.57 224.93 84.51 223.92 79.40 223.17 C 85.36 213.16 99.16 213.86 109.33 212.15 C 110.50 212.24 111.66 212.05 112.77 211.69 C 123.61 210.12 134.42 208.13 145.32 207.12 C 146.49 207.21 147.65 207.00 148.77 206.63 C 162.17 204.14 176.00 205.25 189.36 202.38 M 250.22 221.11 C 253.38 221.16 257.75 223.00 260.10 220.05 C 262.79 215.90 257.74 212.45 255.08 209.97 C 252.77 213.34 250.86 217.00 250.22 221.11 M 269.80 220.95 C 272.47 221.91 275.20 222.05 277.99 222.68 C 277.98 219.55 277.92 216.38 277.91 213.26 C 276.84 212.75 275.77 212.24 274.70 211.72 C 271.87 214.02 268.23 216.35 269.80 220.95 M 284.25 220.30 C 287.91 221.56 291.76 221.98 295.61 222.26 C 295.45 221.60 295.12 220.26 294.96 219.59 C 297.08 219.92 296.46 215.83 294.52 216.72 C 294.42 215.54 294.31 214.36 294.20 213.18 C 292.74 212.68 291.28 212.18 289.82 211.70 C 287.85 214.50 285.95 217.34 284.25 220.30 M 306.35 220.65 C 309.13 223.15 312.83 220.90 315.83 220.13 C 314.35 217.17 313.21 213.39 309.92 211.97 C 305.49 211.77 303.42 217.64 306.35 220.65 M 234.03 212.98 C 233.95 215.84 233.87 218.70 233.79 221.57 C 237.28 222.72 240.93 222.36 244.34 221.14 C 243.56 218.40 242.90 215.74 242.06 213.04 C 239.38 213.01 236.70 212.99 234.03 212.98 Z" />
</g>
<g id="#5ec5e2ff">
<path fill="#5ec5e2" opacity="1.00" d=" M 448.82 0.00 L 458.04 0.00 C 454.98 0.54 451.87 0.59 448.82 0.00 Z" />
<path fill="#5ec5e2" opacity="1.00" d=" M 224.07 170.79 C 230.07 170.96 236.10 171.12 242.06 171.99 C 241.71 178.76 241.28 185.51 240.90 192.28 C 236.02 192.56 231.13 192.78 226.26 192.24 C 225.69 185.07 225.12 177.91 224.07 170.79 Z" />
<path fill="#5ec5e2" opacity="1.00" d=" M 235.96 214.19 C 238.33 215.54 240.63 217.01 242.77 218.70 C 240.79 219.34 238.79 219.89 236.79 220.43 C 236.51 218.35 236.23 216.27 235.96 214.19 Z" />
<path fill="#5ec5e2" opacity="1.00" d=" M 252.15 219.05 C 253.29 217.43 253.87 214.23 256.52 215.17 C 257.42 216.38 258.09 217.74 258.85 219.05 C 256.62 219.14 254.38 219.14 252.15 219.05 Z" />
<path fill="#5ec5e2" opacity="1.00" d=" M 272.10 216.16 C 273.38 215.72 274.67 215.28 275.96 214.85 C 275.98 216.57 275.99 218.29 276.01 220.01 C 274.65 220.00 273.30 219.99 271.95 219.98 C 272.00 218.70 272.04 217.43 272.10 216.16 Z" />
<path fill="#5ec5e2" opacity="1.00" d=" M 287.54 218.99 C 288.81 217.45 290.12 215.94 291.48 214.49 C 292.01 216.40 292.54 218.32 293.07 220.24 C 291.22 219.84 289.38 219.42 287.54 218.99 Z" />
<path fill="#5ec5e2" opacity="1.00" d=" M 307.62 214.29 C 309.50 215.78 311.21 217.49 312.71 219.38 C 309.81 219.00 308.00 217.18 307.62 214.29 Z" />
</g>
<g id="#d1e0e5fa">
<path fill="#d1e0e5" opacity="0.98" d=" M 466.42 0.00 L 469.12 0.00 C 468.18 1.54 466.81 2.73 465.14 3.39 C 465.05 2.06 465.48 0.93 466.42 0.00 Z" />
<path fill="#d1e0e5" opacity="0.98" d=" M 438.92 1.41 C 440.34 2.48 441.72 3.61 443.11 4.73 C 441.70 3.64 440.31 2.51 438.92 1.41 Z" />
<path fill="#d1e0e5" opacity="0.98" d=" M 424.18 2.12 C 424.56 2.68 425.32 3.80 425.70 4.37 C 423.84 3.75 422.21 5.09 421.31 6.60 L 420.87 7.11 C 422.01 5.48 423.09 3.79 424.18 2.12 Z" />
<path fill="#d1e0e5" opacity="0.98" d=" M 457.50 7.59 C 459.48 6.51 461.38 5.29 463.42 4.32 C 461.47 5.46 459.52 6.59 457.50 7.59 Z" />
<path fill="#d1e0e5" opacity="0.98" d=" M 444.02 5.44 C 445.50 6.49 447.00 7.54 448.54 8.51 C 446.96 7.59 445.47 6.54 444.02 5.44 Z" />
<path fill="#d1e0e5" opacity="0.98" d=" M 462.71 18.65 C 464.97 17.45 467.22 16.22 469.48 15.01 C 467.26 16.30 465.01 17.53 462.71 18.65 Z" />
<path fill="#d1e0e5" opacity="0.98" d=" M 459.30 22.55 C 459.18 20.82 460.49 19.48 462.06 18.98 C 462.26 20.73 460.98 22.24 459.30 22.55 Z" />
<path fill="#d1e0e5" opacity="0.98" d=" M 470.29 22.15 C 471.19 21.17 472.64 20.11 474.00 20.99 L 474.00 21.67 C 472.84 22.30 471.60 22.47 470.29 22.15 Z" />
<path fill="#d1e0e5" opacity="0.98" d=" M 458.87 29.89 C 461.40 28.25 463.91 26.58 466.43 24.91 C 464.01 26.72 461.49 28.39 458.87 29.89 Z" />
<path fill="#d1e0e5" opacity="0.98" d=" M 450.04 27.43 C 449.34 25.71 451.69 25.09 452.94 24.93 C 452.40 26.11 451.56 27.60 450.04 27.43 Z" />
<path fill="#d1e0e5" opacity="0.98" d=" M 242.88 148.84 C 241.67 147.43 243.84 144.93 245.37 145.93 C 244.79 146.95 244.22 147.98 243.47 148.88 L 242.88 148.84 Z" />
<path fill="#d1e0e5" opacity="0.98" d=" M 208.73 152.17 C 219.51 152.00 230.29 151.91 241.07 151.73 C 241.01 152.04 240.88 152.66 240.81 152.97 C 230.11 153.26 219.42 152.64 208.73 152.17 Z" />
<path fill="#d1e0e5" opacity="0.98" d=" M 199.96 160.12 C 197.98 159.95 199.20 156.26 200.87 157.37 C 200.90 158.39 200.59 159.31 199.96 160.12 Z" />
<path fill="#d1e0e5" opacity="0.98" d=" M 362.42 202.06 C 363.54 202.07 364.67 202.08 365.80 202.10 C 368.51 207.37 371.61 212.57 372.95 218.41 C 373.32 220.98 373.72 223.54 374.10 226.11 C 360.92 227.13 347.56 226.62 334.59 229.62 C 336.11 228.51 337.55 227.30 338.98 226.07 C 346.80 219.91 354.12 213.03 360.08 205.02 C 360.87 204.04 361.64 203.05 362.42 202.06 Z" />
<path fill="#d1e0e5" opacity="0.98" d=" M 145.32 207.12 C 145.07 205.22 148.32 204.92 148.77 206.63 C 147.65 207.00 146.49 207.21 145.32 207.12 Z" />
<path fill="#d1e0e5" opacity="0.98" d=" M 109.33 212.15 C 109.08 210.25 112.34 209.97 112.77 211.69 C 111.66 212.05 110.50 212.24 109.33 212.15 Z" />
<path fill="#d1e0e5" opacity="0.98" d=" M 209.67 235.20 C 211.44 234.43 213.39 234.72 214.95 235.82 C 213.23 236.27 211.42 236.28 209.73 235.67 L 209.67 235.20 Z" />
<path fill="#d1e0e5" opacity="0.98" d=" M 284.04 290.01 C 285.86 290.00 289.50 289.98 291.32 289.97 C 288.02 293.10 284.53 296.42 283.39 301.00 L 283.20 301.54 C 282.46 303.46 285.48 303.54 286.57 302.76 C 291.04 301.28 295.53 299.81 300.15 298.85 C 301.79 300.59 303.44 302.33 305.18 304.00 L 299.86 304.00 C 299.38 301.95 296.75 301.97 296.27 304.00 L 278.12 304.00 C 278.48 302.06 278.80 300.11 279.29 298.21 C 280.72 295.38 282.43 292.72 284.04 290.01 Z" />
<path fill="#d1e0e5" opacity="0.98" d=" M 303.40 290.39 C 305.70 290.56 308.01 290.74 310.32 290.86 C 310.22 292.27 311.60 293.36 312.96 293.20 L 313.92 293.25 C 314.90 294.39 317.54 295.03 317.71 292.89 C 318.71 293.01 320.72 293.24 321.72 293.36 C 320.34 295.56 319.13 297.85 317.94 300.16 L 317.03 300.00 C 311.30 298.78 307.45 294.22 303.40 290.39 Z" />
<path fill="#d1e0e5" opacity="0.98" d=" M 272.26 300.99 L 272.88 300.94 C 273.06 302.19 273.65 303.21 274.66 304.00 L 267.98 304.00 C 269.73 303.54 271.07 302.30 272.26 300.99 Z" />
</g>
<g id="#3b4c51a4">
<path fill="#3b4c51" opacity="0.64" d=" M 421.31 6.60 C 422.21 5.09 423.84 3.75 425.70 4.37 C 424.78 5.92 423.06 6.64 421.31 6.60 Z" />
<path fill="#3b4c51" opacity="0.64" d=" M 416.41 5.98 C 417.68 6.56 418.84 7.36 419.88 8.30 C 418.47 10.28 415.44 8.00 416.41 5.98 Z" />
<path fill="#3b4c51" opacity="0.64" d=" M 451.28 31.46 C 452.67 30.59 454.41 30.87 455.75 31.71 C 454.52 32.62 452.01 33.23 451.28 31.46 Z" />
<path fill="#3b4c51" opacity="0.64" d=" M 244.50 148.96 C 248.83 149.26 253.16 149.59 257.50 149.96 L 256.32 149.89 C 252.38 149.55 248.43 149.26 244.50 148.96 Z" />
<path fill="#3b4c51" opacity="0.64" d=" M 279.68 160.37 C 282.52 160.30 285.37 160.34 288.21 160.55 C 285.37 160.50 282.50 160.40 279.68 160.37 Z" />
<path fill="#3b4c51" opacity="0.64" d=" M 214.00 164.16 C 251.43 164.27 288.89 163.33 326.32 164.53 L 325.56 164.56 C 288.39 165.00 251.13 165.89 214.00 164.16 Z" />
<path fill="#3b4c51" opacity="0.64" d=" M 328.63 169.09 C 330.39 169.53 330.33 171.65 329.92 173.03 C 328.89 172.00 328.20 170.56 328.63 169.09 Z" />
<path fill="#3b4c51" opacity="0.64" d=" M 197.77 194.39 C 199.66 191.93 202.56 192.53 204.99 194.68 C 203.18 194.61 199.57 194.46 197.77 194.39 Z" />
<path fill="#3b4c51" opacity="0.64" d=" M 0.78 209.99 C 2.61 211.04 2.22 213.36 1.46 214.96 C 0.68 213.43 0.18 211.68 0.78 209.99 Z" />
<path fill="#3b4c51" opacity="0.64" d=" M 408.25 222.15 C 407.99 220.27 411.22 219.92 411.73 221.61 C 410.61 222.00 409.43 222.20 408.25 222.15 Z" />
<path fill="#3b4c51" opacity="0.64" d=" M 402.19 223.21 C 401.96 221.34 405.15 220.86 405.74 222.53 C 404.60 222.93 403.40 223.18 402.19 223.21 Z" />
<path fill="#3b4c51" opacity="0.64" d=" M 397.58 224.29 C 397.20 222.43 400.39 221.82 401.04 223.47 C 399.93 223.93 398.77 224.23 397.58 224.29 Z" />
<path fill="#3b4c51" opacity="0.64" d=" M 441.05 238.18 C 441.16 236.80 441.78 234.94 443.49 235.02 C 443.82 236.61 442.28 237.61 441.05 238.18 Z" />
<path fill="#3b4c51" opacity="0.64" d=" M 425.00 268.19 C 427.82 261.30 431.87 255.01 436.09 248.90 C 433.12 255.72 429.10 262.01 425.00 268.19 Z" />
<path fill="#3b4c51" opacity="0.64" d=" M 128.99 275.88 C 129.81 273.69 132.59 274.11 134.10 275.27 C 132.82 275.42 130.26 275.73 128.99 275.88 Z" />
<path fill="#3b4c51" opacity="0.64" d=" M 410.79 275.27 C 413.40 275.33 416.02 275.41 418.65 275.50 L 419.47 275.53 L 418.37 275.52 C 415.83 275.46 413.30 275.38 410.79 275.27 Z" />
<path fill="#3b4c51" opacity="0.64" d=" M 408.52 286.52 C 409.24 286.54 410.69 286.58 411.41 286.60 C 410.43 287.62 409.12 288.24 407.71 288.21 C 407.91 287.79 408.32 286.95 408.52 286.52 Z" />
<path fill="#3b4c51" opacity="0.64" d=" M 89.72 289.58 C 99.55 289.19 109.39 289.36 119.22 289.72 C 109.39 289.73 99.55 289.68 89.72 289.58 Z" />
<path fill="#3b4c51" opacity="0.64" d=" M 207.80 289.23 C 212.94 289.21 218.07 289.19 223.22 289.13 C 218.14 290.11 212.86 290.83 207.80 289.23 Z" />
<path fill="#3b4c51" opacity="0.64" d=" M 245.74 289.78 C 249.56 289.69 253.38 289.72 257.21 289.75 C 253.39 289.74 249.55 289.72 245.74 289.78 Z" />
<path fill="#3b4c51" opacity="0.64" d=" M 318.71 289.45 C 321.89 289.46 325.02 289.35 328.22 289.33 C 325.03 289.44 321.89 289.58 318.71 289.45 Z" />
<path fill="#3b4c51" opacity="0.64" d=" M 350.71 289.72 C 352.07 289.48 353.44 289.23 354.82 289.04 C 370.95 288.59 387.09 289.41 403.23 288.97 C 385.77 290.83 368.21 289.77 350.71 289.72 Z" />
<path fill="#3b4c51" opacity="0.64" d=" M 282.96 290.03 L 284.04 290.01 C 282.43 292.72 280.72 295.38 279.29 298.21 C 279.94 295.26 281.14 292.44 282.96 290.03 Z" />
<path fill="#3b4c51" opacity="0.64" d=" M 291.32 289.97 L 292.41 289.96 C 289.54 293.75 286.31 297.25 283.39 301.00 C 284.53 296.42 288.02 293.10 291.32 289.97 Z" />
<path fill="#3b4c51" opacity="0.64" d=" M 301.60 290.23 C 302.05 290.27 302.95 290.35 303.40 290.39 C 307.45 294.22 311.30 298.78 317.03 300.00 C 309.99 300.41 305.73 294.91 301.60 290.23 Z" />
<path fill="#3b4c51" opacity="0.64" d=" M 310.32 290.86 C 310.72 290.88 311.50 290.93 311.89 290.96 C 312.16 291.52 312.69 292.64 312.96 293.20 C 311.60 293.36 310.22 292.27 310.32 290.86 Z" />
<path fill="#3b4c51" opacity="0.64" d=" M 313.92 293.25 C 315.15 292.80 316.42 292.68 317.71 292.89 C 317.54 295.03 314.90 294.39 313.92 293.25 Z" />
<path fill="#3b4c51" opacity="0.64" d=" M 321.72 293.36 L 323.10 293.45 C 321.56 295.82 319.88 298.10 317.94 300.16 C 319.13 297.85 320.34 295.56 321.72 293.36 Z" />
<path fill="#3b4c51" opacity="0.64" d=" M 300.15 298.85 C 302.58 300.25 304.61 302.18 306.73 304.00 L 305.18 304.00 C 303.44 302.33 301.79 300.59 300.15 298.85 Z" />
<path fill="#3b4c51" opacity="0.64" d=" M 267.45 304.00 C 268.13 301.93 270.09 300.71 272.26 300.99 C 271.07 302.30 269.73 303.54 267.98 304.00 L 267.45 304.00 Z" />
<path fill="#3b4c51" opacity="0.64" d=" M 272.88 300.94 C 274.75 300.52 275.85 302.46 276.21 304.00 L 274.66 304.00 C 273.65 303.21 273.06 302.19 272.88 300.94 Z" />
<path fill="#3b4c51" opacity="0.64" d=" M 283.20 301.54 C 284.48 301.46 285.61 301.86 286.57 302.76 C 285.48 303.54 282.46 303.46 283.20 301.54 Z" />
<path fill="#3b4c51" opacity="0.64" d=" M 296.27 304.00 C 296.75 301.97 299.38 301.95 299.86 304.00 L 296.27 304.00 Z" />
</g>
<g id="#aababff8">
<path fill="#aababf" opacity="0.97" d=" M 470.27 14.57 C 471.32 13.78 472.84 13.31 474.00 14.19 L 474.00 14.84 C 472.71 15.43 471.47 15.34 470.27 14.57 Z" />
<path fill="#aababf" opacity="0.97" d=" M 338.98 226.07 C 345.77 218.82 352.79 211.79 360.08 205.02 C 354.12 213.03 346.80 219.91 338.98 226.07 Z" />
<path fill="#aababf" opacity="0.97" d=" M 203.08 235.09 C 204.73 235.12 208.02 235.18 209.67 235.20 L 209.73 235.67 C 209.07 235.87 207.76 236.27 207.10 236.48 C 205.56 236.75 204.21 236.40 203.05 235.44 L 203.08 235.09 Z" />
</g>
<g id="#000000ff">
<path fill="#000000" opacity="1.00" d=" M 324.84 118.95 C 329.28 119.39 333.72 119.84 338.17 120.22 C 334.83 130.91 332.08 141.81 328.02 152.26 C 331.78 153.23 336.01 152.92 339.61 154.54 C 341.09 156.22 341.85 158.38 342.79 160.38 C 338.33 160.75 333.85 161.02 329.39 161.34 C 329.14 163.92 328.89 166.50 328.63 169.09 C 328.20 170.56 328.89 172.00 329.92 173.03 C 331.27 182.23 333.46 191.26 335.30 200.37 C 345.84 199.99 356.38 199.77 366.92 199.21 C 371.92 207.79 377.37 216.33 379.57 226.15 C 391.41 223.52 402.87 219.01 415.07 218.20 C 423.98 217.73 432.72 216.05 441.37 213.96 C 442.94 220.86 443.38 227.95 443.49 235.02 C 441.78 234.94 441.16 236.80 441.05 238.18 C 439.45 241.78 437.82 245.36 436.09 248.90 C 431.87 255.01 427.82 261.30 425.00 268.19 C 421.38 274.92 419.63 283.98 411.41 286.60 C 410.69 286.58 409.24 286.54 408.52 286.52 C 390.69 288.97 372.57 285.83 354.82 289.04 C 353.44 289.23 352.07 289.48 350.71 289.72 C 337.94 292.39 324.82 291.82 311.89 290.96 C 311.50 290.93 310.72 290.88 310.32 290.86 C 308.01 290.74 305.70 290.56 303.40 290.39 C 302.95 290.35 302.05 290.27 301.60 290.23 C 298.55 290.04 295.45 289.98 292.41 289.96 L 291.32 289.97 C 289.50 289.98 285.86 290.00 284.04 290.01 L 282.96 290.03 C 274.37 290.10 265.79 289.82 257.21 289.75 C 253.38 289.72 249.56 289.69 245.74 289.78 C 235.36 290.21 225.07 291.79 214.69 292.23 C 182.91 290.39 151.04 290.46 119.22 289.72 C 109.39 289.36 99.55 289.19 89.72 289.58 C 70.63 289.89 51.49 290.91 32.43 289.45 C 28.79 289.24 26.40 286.10 24.98 283.06 C 19.84 271.92 14.90 260.66 10.74 249.11 C 6.00 238.30 1.20 227.02 1.46 214.96 C 2.22 213.36 2.61 211.04 0.78 209.99 C 1.02 208.70 1.26 207.41 1.50 206.13 C 11.16 208.27 20.78 210.66 30.52 212.47 C 44.54 214.97 57.88 220.40 72.07 222.15 C 76.60 223.24 78.50 217.86 81.99 216.13 C 100.77 207.54 121.87 209.02 141.72 204.89 C 155.10 202.59 168.75 202.87 182.19 201.14 C 188.05 200.55 192.66 196.86 197.77 194.39 C 199.57 194.46 203.18 194.61 204.99 194.68 C 208.49 194.22 211.96 193.54 215.44 192.93 C 215.31 185.75 214.59 178.60 213.85 171.47 C 211.42 171.07 208.99 170.67 206.56 170.27 C 206.52 167.93 206.49 165.59 206.47 163.26 C 202.41 162.71 198.35 162.15 194.29 161.52 C 196.93 155.78 202.12 151.29 208.73 152.17 C 219.42 152.64 230.11 153.26 240.81 152.97 C 240.88 152.66 241.01 152.04 241.07 151.73 C 241.75 148.90 241.52 145.68 243.25 143.26 C 246.68 140.54 251.56 140.89 255.63 141.22 C 259.08 143.55 259.01 148.40 260.26 151.88 C 272.33 152.05 284.40 152.03 296.48 151.84 C 304.50 139.73 314.50 129.09 324.84 118.95 M 325.34 121.40 C 323.21 122.93 321.96 125.32 320.56 127.47 C 320.07 127.49 319.10 127.51 318.62 127.53 L 319.43 127.55 C 313.03 135.79 305.65 143.25 299.76 151.90 C 308.14 151.52 316.52 151.51 324.91 151.86 C 329.46 144.45 331.45 135.88 332.61 127.35 L 333.26 127.32 L 334.03 127.32 C 334.32 125.48 334.64 123.64 334.97 121.81 C 331.75 121.64 328.55 120.92 325.34 121.40 M 245.37 145.93 C 243.84 144.93 241.67 147.43 242.88 148.84 C 245.06 155.27 253.69 150.32 258.30 151.43 C 257.81 151.05 256.81 150.27 256.32 149.89 L 257.50 149.96 C 256.86 147.42 256.05 144.94 255.19 142.47 C 252.16 143.71 247.26 142.63 245.37 145.93 M 299.01 153.87 C 266.31 154.11 233.57 154.13 200.93 156.03 L 200.87 157.37 C 199.20 156.26 197.98 159.95 199.96 160.12 C 221.44 159.11 242.95 160.32 264.41 158.57 C 289.53 156.67 314.84 162.03 339.81 157.74 C 335.25 154.03 329.06 154.78 323.59 154.16 C 315.41 153.29 307.20 153.59 299.01 153.87 M 249.68 161.64 C 235.89 162.12 222.04 160.74 208.26 162.08 L 209.00 162.41 C 208.71 164.26 208.39 166.10 208.08 167.95 C 210.65 168.71 213.24 169.43 215.83 170.21 C 216.45 174.55 217.14 178.87 217.90 183.19 C 217.94 185.97 218.01 191.52 218.04 194.30 C 210.01 196.63 201.67 197.40 193.44 198.61 C 206.14 198.58 218.84 197.61 231.54 198.54 C 248.34 199.57 265.14 198.32 281.95 198.51 C 298.98 197.97 315.92 200.09 332.92 200.56 C 330.57 188.59 327.36 176.73 326.44 164.53 L 325.56 164.56 L 326.32 164.53 C 326.23 163.73 326.05 162.13 325.96 161.33 C 313.37 161.26 300.79 160.72 288.21 160.55 C 285.37 160.34 282.52 160.30 279.68 160.37 C 269.67 160.59 259.62 160.05 249.68 161.64 M 189.36 202.38 C 176.00 205.25 162.17 204.14 148.77 206.63 C 148.32 204.92 145.07 205.22 145.32 207.12 C 134.42 208.13 123.61 210.12 112.77 211.69 C 112.34 209.97 109.08 210.25 109.33 212.15 C 99.16 213.86 85.36 213.16 79.40 223.17 L 78.44 223.03 C 83.74 224.46 89.17 225.38 94.67 225.73 L 95.59 225.85 C 95.49 228.16 99.64 228.46 100.32 226.42 C 116.92 226.70 132.90 232.21 149.51 231.96 C 149.38 234.08 153.03 234.16 153.62 232.35 C 168.04 233.37 182.52 234.05 196.95 234.97 C 197.36 237.13 201.60 236.77 203.05 235.44 C 204.21 236.40 205.56 236.75 207.10 236.48 L 206.25 236.73 C 211.04 236.67 215.81 236.41 220.60 236.15 L 219.79 236.11 C 241.54 236.41 263.28 235.29 285.02 234.86 C 296.75 234.62 308.20 231.54 319.96 231.71 C 324.77 231.11 330.08 231.69 334.59 229.62 C 347.56 226.62 360.92 227.13 374.10 226.11 C 374.85 226.08 376.34 226.04 377.09 226.01 C 375.97 222.36 374.93 218.68 373.34 215.21 C 373.24 216.01 373.05 217.61 372.95 218.41 C 371.61 212.57 368.51 207.37 365.80 202.10 C 364.67 202.08 363.54 202.07 362.42 202.06 C 353.25 201.90 344.10 202.43 334.95 202.67 C 318.62 202.23 302.32 199.43 285.96 200.66 C 253.78 202.74 221.40 197.70 189.36 202.38 M 5.09 208.89 C 0.85 220.33 6.21 231.74 10.79 242.11 C 15.62 254.55 19.92 267.23 25.92 279.17 C 27.86 282.27 29.38 286.55 33.31 287.58 C 62.57 289.64 91.89 285.96 121.17 287.58 C 150.05 288.17 178.91 289.15 207.80 289.23 C 212.86 290.83 218.14 290.11 223.22 289.13 C 233.12 288.59 242.99 286.77 252.94 287.39 C 267.21 288.06 281.50 288.09 295.79 288.09 C 299.89 288.01 304.00 287.94 308.12 287.88 C 311.26 289.80 315.24 289.02 318.71 289.45 C 321.89 289.58 325.03 289.44 328.22 289.33 C 341.40 290.54 353.98 285.71 367.03 285.22 C 381.52 285.70 396.32 287.03 410.54 283.45 C 414.32 282.27 416.23 278.53 418.37 275.52 L 419.47 275.53 L 418.65 275.50 L 419.63 275.53 C 423.56 260.07 434.13 247.70 440.40 233.28 C 442.95 228.05 440.78 222.19 439.37 216.94 C 430.33 219.56 420.86 219.59 411.73 221.61 C 411.22 219.92 407.99 220.27 408.25 222.15 C 407.62 222.25 406.37 222.44 405.74 222.53 C 405.15 220.86 401.96 221.34 402.19 223.21 L 401.04 223.47 C 400.39 221.82 397.20 222.43 397.58 224.29 C 390.94 225.31 384.75 228.29 378.17 229.44 C 356.23 225.63 334.90 234.41 313.05 234.46 C 282.67 238.28 251.98 237.17 221.45 238.61 C 201.83 239.83 182.60 234.39 162.99 234.95 C 141.44 235.37 120.50 229.35 99.04 228.72 C 85.65 228.31 72.83 224.09 59.66 222.20 C 41.69 216.91 23.26 213.45 5.09 208.89 Z" />
<path fill="#000000" opacity="1.00" d=" M 220.25 167.95 C 228.19 168.67 236.15 169.19 244.09 170.03 C 244.04 178.33 243.48 186.61 242.88 194.90 C 236.70 194.47 230.52 194.44 224.34 194.06 C 223.94 185.25 223.45 176.28 220.25 167.95 M 224.07 170.79 C 225.12 177.91 225.69 185.07 226.26 192.24 C 231.13 192.78 236.02 192.56 240.90 192.28 C 241.28 185.51 241.71 178.76 242.06 171.99 C 236.10 171.12 230.07 170.96 224.07 170.79 Z" />
<path fill="#000000" opacity="1.00" d=" M 250.22 221.11 C 250.86 217.00 252.77 213.34 255.08 209.97 C 257.74 212.45 262.79 215.90 260.10 220.05 C 257.75 223.00 253.38 221.16 250.22 221.11 M 252.15 219.05 C 254.38 219.14 256.62 219.14 258.85 219.05 C 258.09 217.74 257.42 216.38 256.52 215.17 C 253.87 214.23 253.29 217.43 252.15 219.05 Z" />
<path fill="#000000" opacity="1.00" d=" M 269.80 220.95 C 268.23 216.35 271.87 214.02 274.70 211.72 C 275.77 212.24 276.84 212.75 277.91 213.26 C 277.92 216.38 277.98 219.55 277.99 222.68 C 275.20 222.05 272.47 221.91 269.80 220.95 M 272.10 216.16 C 272.04 217.43 272.00 218.70 271.95 219.98 C 273.30 219.99 274.65 220.00 276.01 220.01 C 275.99 218.29 275.98 216.57 275.96 214.85 C 274.67 215.28 273.38 215.72 272.10 216.16 Z" />
<path fill="#000000" opacity="1.00" d=" M 284.25 220.30 C 285.95 217.34 287.85 214.50 289.82 211.70 C 291.28 212.18 292.74 212.68 294.20 213.18 C 294.31 214.36 294.42 215.54 294.52 216.72 C 294.54 217.69 294.69 218.65 294.96 219.59 C 295.12 220.26 295.45 221.60 295.61 222.26 C 291.76 221.98 287.91 221.56 284.25 220.30 M 287.54 218.99 C 289.38 219.42 291.22 219.84 293.07 220.24 C 292.54 218.32 292.01 216.40 291.48 214.49 C 290.12 215.94 288.81 217.45 287.54 218.99 Z" />
<path fill="#000000" opacity="1.00" d=" M 306.35 220.65 C 303.42 217.64 305.49 211.77 309.92 211.97 C 313.21 213.39 314.35 217.17 315.83 220.13 C 312.83 220.90 309.13 223.15 306.35 220.65 M 307.62 214.29 C 308.00 217.18 309.81 219.00 312.71 219.38 C 311.21 217.49 309.50 215.78 307.62 214.29 Z" />
<path fill="#000000" opacity="1.00" d=" M 234.03 212.98 C 236.70 212.99 239.38 213.01 242.06 213.04 C 242.90 215.74 243.56 218.40 244.34 221.14 C 240.93 222.36 237.28 222.72 233.79 221.57 C 233.87 218.70 233.95 215.84 234.03 212.98 M 235.96 214.19 C 236.23 216.27 236.51 218.35 236.79 220.43 C 238.79 219.89 240.79 219.34 242.77 218.70 C 240.63 217.01 238.33 215.54 235.96 214.19 Z" />
</g>
<g id="#5b818cfe">
<path fill="#5b818c" opacity="1.00" d=" M 325.34 121.40 C 328.55 120.92 331.75 121.64 334.97 121.81 C 334.64 123.64 334.32 125.48 334.03 127.32 L 333.26 127.32 C 329.02 127.36 324.79 127.41 320.56 127.47 C 321.96 125.32 323.21 122.93 325.34 121.40 Z" />
<path fill="#5b818c" opacity="1.00" d=" M 209.00 162.41 C 210.62 163.08 212.25 163.85 214.00 164.16 C 251.13 165.89 288.39 165.00 325.56 164.56 L 326.44 164.53 C 327.36 176.73 330.57 188.59 332.92 200.56 C 315.92 200.09 298.98 197.97 281.95 198.51 C 265.14 198.32 248.34 199.57 231.54 198.54 C 218.84 197.61 206.14 198.58 193.44 198.61 C 201.67 197.40 210.01 196.63 218.04 194.30 C 218.01 191.52 217.94 185.97 217.90 183.19 C 217.93 179.08 217.97 174.98 218.01 170.88 C 217.46 170.72 216.37 170.38 215.83 170.21 C 213.24 169.43 210.65 168.71 208.08 167.95 C 208.39 166.10 208.71 164.26 209.00 162.41 M 220.25 167.95 C 223.45 176.28 223.94 185.25 224.34 194.06 C 230.52 194.44 236.70 194.47 242.88 194.90 C 243.48 186.61 244.04 178.33 244.09 170.03 C 236.15 169.19 228.19 168.67 220.25 167.95 Z" />
<path fill="#5b818c" opacity="1.00" d=" M 294.52 216.72 C 296.46 215.83 297.08 219.92 294.96 219.59 C 294.69 218.65 294.54 217.69 294.52 216.72 Z" />
<path fill="#5b818c" opacity="1.00" d=" M 411.73 221.61 C 420.86 219.59 430.33 219.56 439.37 216.94 C 440.78 222.19 442.95 228.05 440.40 233.28 C 434.13 247.70 423.56 260.07 419.63 275.53 L 418.65 275.50 C 416.02 275.41 413.40 275.33 410.79 275.27 C 388.32 274.80 365.84 274.85 343.37 275.18 C 339.34 279.63 334.86 283.75 329.25 286.14 C 330.82 282.46 332.45 278.81 334.08 275.17 C 327.91 273.88 321.14 275.46 317.71 281.17 C 314.61 279.03 311.55 276.90 308.48 274.76 C 307.41 277.20 306.17 279.58 305.30 282.10 C 304.35 284.42 307.01 286.14 308.12 287.88 C 304.00 287.94 299.89 288.01 295.79 288.09 C 293.76 283.94 291.98 279.69 290.29 275.40 C 238.23 274.61 186.16 274.94 134.10 275.27 C 132.59 274.11 129.81 273.69 128.99 275.88 C 120.09 274.23 110.81 272.46 103.77 266.25 C 88.14 252.52 74.83 236.41 59.66 222.20 C 72.83 224.09 85.65 228.31 99.04 228.72 C 120.50 229.35 141.44 235.37 162.99 234.95 C 182.60 234.39 201.83 239.83 221.45 238.61 C 251.98 237.17 282.67 238.28 313.05 234.46 C 334.90 234.41 356.23 225.63 378.17 229.44 C 384.75 228.29 390.94 225.31 397.58 224.29 C 398.77 224.23 399.93 223.93 401.04 223.47 L 402.19 223.21 C 403.40 223.18 404.60 222.93 405.74 222.53 C 406.37 222.44 407.62 222.25 408.25 222.15 C 409.43 222.20 410.61 222.00 411.73 221.61 Z" />
<path fill="#5b818c" opacity="1.00" d=" M 78.44 223.03 L 79.40 223.17 C 84.51 223.92 89.57 224.93 94.67 225.73 C 89.17 225.38 83.74 224.46 78.44 223.03 Z" />
<path fill="#5b818c" opacity="1.00" d=" M 95.59 225.85 C 96.77 225.99 99.14 226.28 100.32 226.42 C 99.64 228.46 95.49 228.16 95.59 225.85 Z" />
<path fill="#5b818c" opacity="1.00" d=" M 149.51 231.96 C 150.89 231.88 152.27 232.05 153.62 232.35 C 153.03 234.16 149.38 234.08 149.51 231.96 Z" />
<path fill="#5b818c" opacity="1.00" d=" M 196.95 234.97 C 198.48 235.00 201.55 235.06 203.08 235.09 L 203.05 235.44 C 201.60 236.77 197.36 237.13 196.95 234.97 Z" />
<path fill="#5b818c" opacity="1.00" d=" M 207.10 236.48 C 207.76 236.27 209.07 235.87 209.73 235.67 C 211.42 236.28 213.23 236.27 214.95 235.82 C 216.56 235.92 218.17 236.02 219.79 236.11 L 220.60 236.15 C 215.81 236.41 211.04 236.67 206.25 236.73 L 207.10 236.48 Z" />
</g>
<g id="#485a5efe">
<path fill="#485a5e" opacity="1.00" d=" M 318.62 127.53 C 319.10 127.51 320.07 127.49 320.56 127.47 C 324.79 127.41 329.02 127.36 333.26 127.32 L 332.61 127.35 C 328.20 127.50 323.82 127.62 319.43 127.55 L 318.62 127.53 Z" />
<path fill="#485a5e" opacity="1.00" d=" M 249.68 161.64 C 259.62 160.05 269.67 160.59 279.68 160.37 C 282.50 160.40 285.37 160.50 288.21 160.55 C 300.79 160.72 313.37 161.26 325.96 161.33 C 326.05 162.13 326.23 163.73 326.32 164.53 C 288.89 163.33 251.43 164.27 214.00 164.16 C 212.25 163.85 210.62 163.08 209.00 162.41 L 208.26 162.08 C 222.04 160.74 235.89 162.12 249.68 161.64 Z" />
<path fill="#485a5e" opacity="1.00" d=" M 5.09 208.89 C 23.26 213.45 41.69 216.91 59.66 222.20 C 74.83 236.41 88.14 252.52 103.77 266.25 C 110.81 272.46 120.09 274.23 128.99 275.88 C 130.26 275.73 132.82 275.42 134.10 275.27 C 186.16 274.94 238.23 274.61 290.29 275.40 C 291.98 279.69 293.76 283.94 295.79 288.09 C 281.50 288.09 267.21 288.06 252.94 287.39 C 242.99 286.77 233.12 288.59 223.22 289.13 C 218.07 289.19 212.94 289.21 207.80 289.23 C 178.91 289.15 150.05 288.17 121.17 287.58 C 91.89 285.96 62.57 289.64 33.31 287.58 C 29.38 286.55 27.86 282.27 25.92 279.17 C 19.92 267.23 15.62 254.55 10.79 242.11 C 6.21 231.74 0.85 220.33 5.09 208.89 Z" />
<path fill="#485a5e" opacity="1.00" d=" M 317.71 281.17 C 321.14 275.46 327.91 273.88 334.08 275.17 C 332.45 278.81 330.82 282.46 329.25 286.14 C 334.86 283.75 339.34 279.63 343.37 275.18 C 365.84 274.85 388.32 274.80 410.79 275.27 C 413.30 275.38 415.83 275.46 418.37 275.52 C 416.23 278.53 414.32 282.27 410.54 283.45 C 396.32 287.03 381.52 285.70 367.03 285.22 C 353.98 285.71 341.40 290.54 328.22 289.33 C 325.02 289.35 321.89 289.46 318.71 289.45 C 315.24 289.02 311.26 289.80 308.12 287.88 C 307.01 286.14 304.35 284.42 305.30 282.10 C 306.17 279.58 307.41 277.20 308.48 274.76 C 311.55 276.90 314.61 279.03 317.71 281.17 Z" />
<path fill="#485a5e" opacity="1.00" d=" M 354.82 289.04 C 372.57 285.83 390.69 288.97 408.52 286.52 C 408.32 286.95 407.91 287.79 407.71 288.21 C 406.22 288.50 404.73 288.79 403.23 288.97 C 387.09 289.41 370.95 288.59 354.82 289.04 Z" />
</g>
<g id="#f76357ff">
<path fill="#f76357" opacity="1.00" d=" M 319.43 127.55 C 323.82 127.62 328.20 127.50 332.61 127.35 C 331.45 135.88 329.46 144.45 324.91 151.86 C 316.52 151.51 308.14 151.52 299.76 151.90 C 305.65 143.25 313.03 135.79 319.43 127.55 Z" />
</g>
</svg>
