<?xml version="1.0" encoding="UTF-8" ?>
<!DOCTYPE svg PUBLIC "-//W3C//DTD SVG 1.1//EN" "http://www.w3.org/Graphics/SVG/1.1/DTD/svg11.dtd">
<svg width="120pt" height="120pt" viewBox="0 0 120 120" version="1.1" xmlns="http://www.w3.org/2000/svg">
<g id="#ffffffff">
<path fill="#ffffff" opacity="1.00" d=" M 119.75 16.23 L 120.00 16.51 L 120.00 16.94 L 119.48 16.69 L 119.75 16.23 Z" />
</g>
<g id="#050403ff">
<path fill="#050403" opacity="1.00" d=" M 83.89 0.00 L 86.28 0.00 C 86.61 1.25 86.92 2.50 87.21 3.76 C 89.70 3.70 91.75 4.86 93.35 6.70 C 95.67 5.99 98.05 4.57 100.54 5.39 C 103.22 6.05 105.98 6.04 108.72 6.07 C 109.26 6.82 109.80 7.57 110.35 8.31 C 104.32 6.38 97.96 8.06 91.84 7.08 C 88.50 6.41 86.05 3.96 84.16 1.29 C 79.84 3.48 75.43 7.16 70.26 6.03 C 65.45 4.97 60.52 4.66 55.71 3.65 C 54.66 4.09 53.62 4.54 52.58 4.97 C 49.13 3.60 45.41 3.24 41.72 3.35 C 41.72 4.63 41.73 5.91 41.73 7.19 C 41.44 7.19 40.86 7.20 40.57 7.20 C 38.85 6.09 37.22 4.41 35.03 4.45 C 31.46 4.40 28.10 5.79 24.70 6.68 C 24.23 8.49 23.76 10.30 23.31 12.13 C 19.54 8.41 14.15 9.10 9.33 9.17 C 8.86 12.66 8.30 16.14 7.78 19.62 C 6.84 19.58 5.90 19.53 4.96 19.48 C 5.63 20.80 6.36 22.10 6.91 23.48 C 7.70 24.97 6.12 26.29 5.58 27.57 C 5.70 28.52 5.84 29.47 5.98 30.43 C 5.06 31.36 4.14 32.31 3.22 33.25 C 4.34 38.04 5.81 42.76 8.39 46.98 C 7.58 48.34 6.78 49.70 6.00 51.08 C 7.74 51.96 9.53 52.76 11.14 53.85 C 10.73 55.84 9.82 57.67 9.08 59.55 C 10.70 59.83 12.33 60.10 13.95 60.39 C 14.64 62.66 15.64 64.89 17.53 66.42 C 14.80 66.12 11.08 64.56 12.44 61.19 C 10.82 60.91 9.22 60.52 7.63 60.07 C 7.94 57.76 8.79 55.61 9.85 53.57 C 8.16 53.23 6.46 52.97 4.76 52.71 C 4.93 50.49 4.90 48.04 7.22 46.95 C 5.46 44.95 3.21 42.95 3.09 40.09 C 2.88 37.63 2.32 35.22 1.72 32.83 C 2.70 31.61 3.69 30.41 4.79 29.30 C 4.01 28.44 3.24 27.58 2.48 26.71 C 3.56 25.99 4.65 25.28 5.75 24.61 C 4.98 22.51 4.29 20.38 3.66 18.23 C 4.45 18.15 6.04 17.99 6.83 17.91 C 7.36 14.66 8.10 11.44 8.12 8.13 C 12.94 7.90 18.53 6.09 22.85 8.84 C 23.19 7.29 23.61 5.76 24.04 4.23 C 29.12 4.65 34.00 1.94 39.08 3.55 C 44.67 0.84 50.83 2.58 56.74 2.34 C 62.99 3.70 69.52 2.64 75.65 4.60 C 77.95 2.33 81.06 1.38 83.89 0.00 M 70.18 5.22 C 70.70 5.74 70.70 5.74 70.18 5.22 Z" />
<path fill="#050403" opacity="1.00" d=" M 111.60 8.64 C 112.74 8.33 113.88 8.04 115.02 7.75 C 115.49 9.14 115.93 10.55 116.33 11.97 C 117.55 12.00 118.78 12.05 120.00 12.11 L 120.00 16.51 L 119.75 16.23 C 117.71 13.34 114.52 11.73 111.44 10.20 C 112.89 10.22 114.34 10.24 115.80 10.25 C 114.41 9.69 113.01 9.13 111.60 8.64 Z" />
<path fill="#050403" opacity="1.00" d=" M 34.50 15.82 C 36.85 14.70 39.27 13.75 41.71 12.85 C 42.06 13.30 42.77 14.22 43.12 14.67 C 40.24 15.01 37.37 15.46 34.50 15.82 Z" />
<path fill="#050403" opacity="1.00" d=" M 63.57 14.15 C 64.81 14.23 66.05 14.28 67.30 14.35 C 65.06 15.13 62.82 15.94 60.62 16.81 C 60.99 16.12 61.75 14.73 62.12 14.03 C 62.48 14.06 63.21 14.12 63.57 14.15 Z" />
<path fill="#050403" opacity="1.00" d=" M 90.17 13.98 C 92.03 13.98 93.90 13.99 95.76 14.00 C 96.27 15.36 96.78 16.71 97.29 18.07 C 96.16 17.02 95.07 15.89 93.80 14.99 C 92.24 15.02 90.97 16.10 89.60 16.73 C 89.74 16.04 90.03 14.67 90.17 13.98 Z" />
<path fill="#050403" opacity="1.00" d=" M 24.86 14.51 C 27.47 15.85 29.04 18.23 29.34 21.14 C 28.05 19.68 26.83 18.17 25.59 16.67 C 25.12 18.63 24.63 20.58 24.03 22.50 C 23.87 19.81 24.19 17.12 24.86 14.51 Z" />
<path fill="#050403" opacity="1.00" d=" M 28.40 14.90 C 30.70 15.34 32.82 16.38 34.54 17.98 C 32.23 17.57 29.67 17.13 28.40 14.90 Z" />
<path fill="#050403" opacity="1.00" d=" M 67.46 15.84 C 69.77 18.01 71.97 20.32 73.74 22.96 C 70.68 21.58 67.86 19.44 67.46 15.84 Z" />
<path fill="#050403" opacity="1.00" d=" M 76.62 16.20 C 77.78 15.30 80.54 16.18 80.44 17.77 C 79.27 18.49 76.55 17.76 76.62 16.20 Z" />
<path fill="#050403" opacity="1.00" d=" M 119.48 16.69 L 120.00 16.94 L 120.00 20.63 L 119.55 21.06 C 117.96 20.03 118.35 17.90 119.48 16.69 Z" />
<path fill="#050403" opacity="1.00" d=" M 75.27 18.53 C 77.11 18.70 75.81 22.18 74.26 21.53 C 73.40 20.59 74.17 18.90 75.27 18.53 Z" />
<path fill="#050403" opacity="1.00" d=" M 82.07 19.29 C 85.40 19.34 80.62 22.33 82.07 19.29 Z" />
<path fill="#050403" opacity="1.00" d=" M 94.12 19.23 C 97.63 20.07 101.16 20.84 104.56 22.05 C 100.62 22.06 96.74 21.37 92.87 20.75 C 93.18 20.37 93.81 19.61 94.12 19.23 Z" />
<path fill="#050403" opacity="1.00" d=" M 48.72 20.29 C 49.60 19.37 51.40 19.37 52.28 20.29 C 52.35 21.88 48.66 21.88 48.72 20.29 Z" />
<path fill="#050403" opacity="1.00" d=" M 38.94 20.57 C 42.32 21.18 44.47 23.90 45.47 27.03 C 43.19 24.98 41.03 22.80 38.94 20.57 Z" />
<path fill="#050403" opacity="1.00" d=" M 55.48 22.44 C 58.25 21.63 61.05 22.22 63.42 23.80 C 60.74 23.52 58.09 23.06 55.48 22.44 Z" />
<path fill="#050403" opacity="1.00" d=" M 37.29 23.71 C 38.90 23.63 38.86 27.33 37.26 27.24 C 36.34 26.37 36.36 24.57 37.29 23.71 Z" />
<path fill="#050403" opacity="1.00" d=" M 115.83 24.64 C 116.13 24.35 116.73 23.77 117.03 23.48 C 117.82 26.57 117.43 29.76 117.86 32.89 C 115.87 33.83 113.91 34.87 112.56 36.67 C 113.69 34.62 114.92 32.63 116.22 30.69 C 116.15 28.67 116.02 26.65 115.83 24.64 Z" />
<path fill="#050403" opacity="1.00" d=" M 106.15 24.72 C 107.58 24.33 107.93 26.76 106.78 27.28 C 105.35 27.66 105.01 25.24 106.15 24.72 Z" />
<path fill="#050403" opacity="1.00" d=" M 81.30 27.93 C 85.07 28.74 88.96 29.06 92.61 30.34 C 95.14 31.88 94.81 35.26 95.17 37.81 C 94.48 37.94 93.10 38.19 92.42 38.32 C 93.00 36.44 94.73 34.00 92.82 32.31 C 90.57 29.78 86.92 30.17 84.28 31.79 C 84.09 31.07 83.72 29.63 83.53 28.91 C 82.20 29.50 80.89 30.12 79.57 30.74 C 80.14 29.80 80.72 28.87 81.30 27.93 Z" />
<path fill="#050403" opacity="1.00" d=" M 29.08 32.15 L 30.02 32.06 C 30.46 32.97 30.90 33.89 31.34 34.80 C 35.05 34.41 38.76 34.00 42.44 33.32 C 39.43 35.56 35.69 35.61 32.14 36.09 C 30.62 35.28 29.09 34.48 27.55 33.73 C 26.26 36.10 24.89 38.44 23.03 40.42 C 23.06 38.90 22.97 37.37 23.24 35.86 C 24.85 34.18 26.93 33.00 29.08 32.15 Z" />
<path fill="#050403" opacity="1.00" d=" M 107.28 36.10 C 110.26 34.54 107.46 39.43 107.28 36.10 Z" />
<path fill="#050403" opacity="1.00" d=" M 88.56 36.60 C 89.28 37.13 90.01 37.66 90.73 38.20 C 90.48 41.71 91.41 45.02 93.96 47.52 C 92.50 46.63 90.87 45.93 89.68 44.67 C 89.23 41.99 89.11 39.26 88.56 36.60 Z" />
<path fill="#050403" opacity="1.00" d=" M 110.79 39.02 C 111.02 38.72 111.48 38.11 111.71 37.80 C 114.06 37.96 116.42 38.08 118.77 38.40 C 117.37 40.48 115.01 41.28 112.82 42.22 C 112.75 41.93 112.61 41.37 112.54 41.08 C 113.75 40.35 115.01 39.68 116.25 39.00 C 114.43 39.00 112.61 39.01 110.79 39.02 Z" />
<path fill="#050403" opacity="1.00" d=" M 49.72 41.22 C 50.23 40.07 52.66 40.41 52.29 41.84 C 51.76 42.98 49.35 42.65 49.72 41.22 Z" />
<path fill="#050403" opacity="1.00" d=" M 47.11 43.26 C 50.43 43.53 45.47 46.20 47.11 43.26 Z" />
<path fill="#050403" opacity="1.00" d=" M 60.36 43.57 C 62.15 43.41 63.94 43.23 65.74 43.05 C 66.26 44.32 66.78 45.59 67.31 46.86 C 65.12 45.50 62.77 44.44 60.36 43.57 Z" />
<path fill="#050403" opacity="1.00" d=" M 113.02 42.93 C 114.37 42.35 116.10 44.11 114.50 45.06 C 114.13 44.53 113.39 43.46 113.02 42.93 Z" />
<path fill="#050403" opacity="1.00" d=" M 56.56 45.55 C 57.46 44.90 58.36 44.26 59.27 43.63 C 58.32 45.11 57.35 46.57 56.39 48.05 C 55.84 47.08 55.28 46.12 54.72 45.16 C 55.18 45.26 56.10 45.45 56.56 45.55 Z" />
<path fill="#050403" opacity="1.00" d=" M 109.22 51.12 C 109.61 48.76 111.91 47.53 113.51 46.03 C 110.42 49.69 110.52 54.38 109.87 58.86 C 108.90 59.47 107.92 60.07 106.94 60.69 C 106.31 60.32 105.69 59.96 105.06 59.59 C 106.10 58.98 107.15 58.36 108.19 57.74 C 108.45 55.52 108.71 53.30 109.22 51.12 Z" />
<path fill="#050403" opacity="1.00" d=" M 87.77 47.20 C 88.28 46.06 90.71 46.38 90.34 47.81 C 89.82 48.96 87.39 48.63 87.77 47.20 Z" />
<path fill="#050403" opacity="1.00" d=" M 72.45 56.69 C 76.22 54.57 81.78 53.69 84.63 57.75 C 80.76 56.03 76.56 55.89 72.45 56.69 Z" />
<path fill="#050403" opacity="1.00" d=" M 108.90 61.86 C 109.26 62.09 109.97 62.56 110.32 62.80 C 109.15 65.48 105.89 65.56 103.49 66.46 C 100.98 68.13 98.86 70.27 97.71 73.10 C 95.20 72.32 92.64 72.24 90.07 72.72 C 86.47 71.49 82.80 70.46 79.36 68.82 C 76.34 73.89 71.67 78.63 71.96 84.97 C 71.11 92.67 74.80 99.91 74.02 107.60 C 76.11 108.64 77.37 110.31 77.33 112.70 C 72.79 113.22 68.32 114.19 63.81 114.91 C 60.43 115.42 57.06 114.19 53.70 114.81 C 49.81 115.48 45.97 114.54 42.17 113.82 C 41.62 109.25 40.49 104.71 41.04 100.07 C 42.88 89.35 42.81 77.70 37.60 67.86 C 34.34 68.92 30.54 69.98 27.97 66.93 C 25.93 68.02 23.86 69.08 21.83 70.20 C 20.78 69.24 19.73 68.27 18.65 67.35 C 23.43 66.66 28.28 66.35 33.06 67.21 C 40.73 68.38 48.25 63.87 55.80 66.42 C 59.53 67.66 63.38 66.08 67.17 66.77 C 73.09 67.67 79.30 66.66 84.93 69.16 C 88.74 70.49 93.65 73.14 97.27 70.00 C 100.75 66.74 105.02 64.58 108.90 61.86 M 45.95 68.53 C 43.68 68.22 41.40 68.03 39.11 67.89 C 43.26 76.53 43.59 86.47 42.67 95.85 C 41.52 101.53 41.88 107.38 43.22 113.00 C 47.14 113.36 51.07 112.95 54.99 113.07 C 57.91 113.11 60.78 114.12 63.71 113.74 C 67.91 113.14 72.06 112.23 76.27 111.69 C 75.31 110.63 74.29 109.62 73.42 108.48 C 72.70 105.00 73.18 101.36 72.19 97.91 C 70.76 92.50 70.46 86.76 71.43 81.26 C 72.28 76.65 75.36 73.03 77.42 68.96 C 72.83 68.69 68.23 68.90 63.65 68.45 C 61.89 68.06 60.38 69.16 58.85 69.83 C 57.57 68.92 56.35 67.88 54.92 67.20 C 53.28 67.34 51.69 67.76 50.08 68.08 C 49.35 67.33 48.61 66.58 47.88 65.83 C 47.23 66.73 46.59 67.63 45.95 68.53 M 77.42 68.96 C 77.69 68.26 77.69 68.26 77.42 68.96 Z" />
<path fill="#050403" opacity="1.00" d=" M 85.52 63.13 C 86.68 62.20 87.33 62.45 87.48 63.87 C 86.32 64.80 85.67 64.55 85.52 63.13 Z" />
</g>
<g id="#477238ff">
<path fill="#477238" opacity="1.00" d=" M 70.26 6.03 C 75.43 7.16 79.84 3.48 84.16 1.29 C 86.05 3.96 88.50 6.41 91.84 7.08 C 97.96 8.06 104.32 6.38 110.35 8.31 C 110.67 8.39 111.29 8.55 111.60 8.64 C 113.01 9.13 114.41 9.69 115.80 10.25 C 114.34 10.24 112.89 10.22 111.44 10.20 C 114.52 11.73 117.71 13.34 119.75 16.23 L 119.48 16.69 C 118.35 17.90 117.96 20.03 119.55 21.06 C 118.71 21.87 117.87 22.67 117.03 23.48 C 116.73 23.77 116.13 24.35 115.83 24.64 C 116.02 26.65 116.15 28.67 116.22 30.69 C 114.92 32.63 113.69 34.62 112.56 36.67 C 112.35 36.95 111.92 37.52 111.71 37.80 C 111.48 38.11 111.02 38.72 110.79 39.02 C 112.61 39.01 114.43 39.00 116.25 39.00 C 115.01 39.68 113.75 40.35 112.54 41.08 C 112.61 41.37 112.75 41.93 112.82 42.22 L 113.02 42.93 C 113.39 43.46 114.13 44.53 114.50 45.06 C 114.25 45.30 113.76 45.78 113.51 46.03 C 111.91 47.53 109.61 48.76 109.22 51.12 C 108.71 53.30 108.45 55.52 108.19 57.74 C 107.15 58.36 106.10 58.98 105.06 59.59 C 105.69 59.96 106.31 60.32 106.94 60.69 C 107.43 60.98 108.41 61.57 108.90 61.86 C 105.02 64.58 100.75 66.74 97.27 70.00 C 93.65 73.14 88.74 70.49 84.93 69.16 C 79.30 66.66 73.09 67.67 67.17 66.77 C 63.38 66.08 59.53 67.66 55.80 66.42 C 48.25 63.87 40.73 68.38 33.06 67.21 C 28.28 66.35 23.43 66.66 18.65 67.35 C 18.37 67.12 17.81 66.66 17.53 66.42 C 15.64 64.89 14.64 62.66 13.95 60.39 C 12.33 60.10 10.70 59.83 9.08 59.55 C 9.82 57.67 10.73 55.84 11.14 53.85 C 9.53 52.76 7.74 51.96 6.00 51.08 C 6.78 49.70 7.58 48.34 8.39 46.98 C 5.81 42.76 4.34 38.04 3.22 33.25 C 4.14 32.31 5.06 31.36 5.98 30.43 C 5.84 29.47 5.70 28.52 5.58 27.57 C 6.12 26.29 7.70 24.97 6.91 23.48 C 6.36 22.10 5.63 20.80 4.96 19.48 C 5.90 19.53 6.84 19.58 7.78 19.62 C 8.30 16.14 8.86 12.66 9.33 9.17 C 14.15 9.10 19.54 8.41 23.31 12.13 C 23.76 10.30 24.23 8.49 24.70 6.68 C 28.10 5.79 31.46 4.40 35.03 4.45 C 37.22 4.41 38.85 6.09 40.57 7.20 C 40.86 7.20 41.44 7.19 41.73 7.19 C 41.73 5.91 41.72 4.63 41.72 3.35 C 45.41 3.24 49.13 3.60 52.58 4.97 C 53.62 4.54 54.66 4.09 55.71 3.65 C 60.52 4.66 65.45 4.97 70.26 6.03 M 32.86 8.38 C 35.16 9.31 37.63 9.72 40.11 9.71 C 37.73 9.08 35.31 8.62 32.86 8.38 M 73.89 8.45 C 76.88 9.27 79.95 9.70 83.04 9.76 C 80.12 8.66 77.00 8.25 73.89 8.45 M 53.93 10.16 C 56.53 11.68 59.09 13.55 62.12 14.03 C 61.75 14.73 60.99 16.12 60.62 16.81 C 62.82 15.94 65.06 15.13 67.30 14.35 C 66.05 14.28 64.81 14.23 63.57 14.15 C 60.53 12.43 57.29 11.10 53.93 10.16 M 109.40 12.20 C 108.52 12.85 107.64 13.51 106.76 14.16 C 107.73 14.25 108.70 14.33 109.68 14.41 C 110.59 16.08 111.50 17.75 112.37 19.44 C 111.08 21.47 111.10 23.87 111.52 26.16 C 112.87 24.33 114.56 22.32 114.24 19.88 C 113.04 17.09 111.02 14.75 109.40 12.20 M 13.20 13.39 C 11.50 13.86 12.23 16.77 13.99 16.11 C 15.70 15.64 14.95 12.73 13.20 13.39 M 34.50 15.82 C 37.37 15.46 40.24 15.01 43.12 14.67 C 42.77 14.22 42.06 13.30 41.71 12.85 C 39.27 13.75 36.85 14.70 34.50 15.82 M 90.17 13.98 C 90.03 14.67 89.74 16.04 89.60 16.73 C 90.97 16.10 92.24 15.02 93.80 14.99 C 95.07 15.89 96.16 17.02 97.29 18.07 C 96.78 16.71 96.27 15.36 95.76 14.00 C 93.90 13.99 92.03 13.98 90.17 13.98 M 24.86 14.51 C 24.19 17.12 23.87 19.81 24.03 22.50 C 24.63 20.58 25.12 18.63 25.59 16.67 C 26.83 18.17 28.05 19.68 29.34 21.14 C 29.04 18.23 27.47 15.85 24.86 14.51 M 28.40 14.90 C 29.67 17.13 32.23 17.57 34.54 17.98 C 32.82 16.38 30.70 15.34 28.40 14.90 M 67.46 15.84 C 67.86 19.44 70.68 21.58 73.74 22.96 C 71.97 20.32 69.77 18.01 67.46 15.84 M 76.62 16.20 C 76.55 17.76 79.27 18.49 80.44 17.77 C 80.54 16.18 77.78 15.30 76.62 16.20 M 75.27 18.53 C 74.17 18.90 73.40 20.59 74.26 21.53 C 75.81 22.18 77.11 18.70 75.27 18.53 M 18.79 19.30 C 18.31 20.97 22.00 22.04 22.33 20.27 C 21.84 19.02 19.84 18.38 18.79 19.30 M 82.07 19.29 C 80.62 22.33 85.40 19.34 82.07 19.29 M 94.12 19.23 C 93.81 19.61 93.18 20.37 92.87 20.75 C 96.74 21.37 100.62 22.06 104.56 22.05 C 101.16 20.84 97.63 20.07 94.12 19.23 M 48.72 20.29 C 48.66 21.88 52.35 21.88 52.28 20.29 C 51.40 19.37 49.60 19.37 48.72 20.29 M 38.94 20.57 C 41.03 22.80 43.19 24.98 45.47 27.03 C 44.47 23.90 42.32 21.18 38.94 20.57 M 55.48 22.44 C 58.09 23.06 60.74 23.52 63.42 23.80 C 61.05 22.22 58.25 21.63 55.48 22.44 M 37.29 23.71 C 36.36 24.57 36.34 26.37 37.26 27.24 C 38.86 27.33 38.90 23.63 37.29 23.71 M 106.15 24.72 C 105.01 25.24 105.35 27.66 106.78 27.28 C 107.93 26.76 107.58 24.33 106.15 24.72 M 56.52 29.22 C 59.44 29.22 62.34 28.90 65.20 28.40 C 62.29 28.13 59.29 28.13 56.52 29.22 M 81.30 27.93 C 80.72 28.87 80.14 29.80 79.57 30.74 C 80.89 30.12 82.20 29.50 83.53 28.91 C 83.72 29.63 84.09 31.07 84.28 31.79 C 86.92 30.17 90.57 29.78 92.82 32.31 C 94.73 34.00 93.00 36.44 92.42 38.32 C 93.10 38.19 94.48 37.94 95.17 37.81 C 94.81 35.26 95.14 31.88 92.61 30.34 C 88.96 29.06 85.07 28.74 81.30 27.93 M 13.14 31.73 C 13.53 33.42 13.91 35.12 14.24 36.82 C 14.67 34.13 16.39 32.14 18.71 30.84 C 16.86 31.17 15.00 31.46 13.14 31.73 M 26.63 32.04 C 27.24 32.06 28.47 32.12 29.08 32.15 C 26.93 33.00 24.85 34.18 23.24 35.86 C 22.97 37.37 23.06 38.90 23.03 40.42 C 24.89 38.44 26.26 36.10 27.55 33.73 C 29.09 34.48 30.62 35.28 32.14 36.09 C 35.69 35.61 39.43 35.56 42.44 33.32 C 38.76 34.00 35.05 34.41 31.34 34.80 C 30.90 33.89 30.46 32.97 30.02 32.06 C 31.74 31.90 33.47 31.71 35.19 31.49 C 32.33 31.00 29.32 30.66 26.63 32.04 M 71.14 33.55 C 67.95 35.34 73.99 36.85 74.14 34.27 C 73.61 33.22 72.11 33.22 71.14 33.55 M 107.28 36.10 C 107.46 39.43 110.26 34.54 107.28 36.10 M 39.93 40.08 C 44.01 39.20 48.13 38.48 52.28 37.98 C 48.00 36.85 43.85 38.56 39.93 40.08 M 88.56 36.60 C 89.11 39.26 89.23 41.99 89.68 44.67 C 90.87 45.93 92.50 46.63 93.96 47.52 C 91.41 45.02 90.48 41.71 90.73 38.20 C 90.01 37.66 89.28 37.13 88.56 36.60 M 98.44 40.11 C 101.39 40.05 104.34 39.77 107.24 39.22 C 104.28 39.15 101.32 39.39 98.44 40.11 M 13.97 46.40 C 19.41 45.50 24.16 49.67 29.56 48.26 C 25.90 48.36 22.39 47.31 19.61 44.89 C 18.04 45.27 16.48 45.66 14.92 46.05 C 15.06 44.26 15.21 42.47 15.35 40.69 C 14.89 42.59 14.43 44.49 13.97 46.40 M 49.72 41.22 C 49.35 42.65 51.76 42.98 52.29 41.84 C 52.66 40.41 50.23 40.07 49.72 41.22 M 77.88 41.32 C 78.10 42.90 81.90 42.90 82.12 41.31 C 81.03 40.32 78.97 40.32 77.88 41.32 M 101.47 42.61 C 100.57 43.65 101.11 45.65 102.34 46.21 C 104.11 45.90 103.17 42.16 101.47 42.61 M 47.11 43.26 C 45.47 46.20 50.43 43.53 47.11 43.26 M 60.36 43.57 C 62.77 44.44 65.12 45.50 67.31 46.86 C 66.78 45.59 66.26 44.32 65.74 43.05 C 63.94 43.23 62.15 43.41 60.36 43.57 M 56.56 45.55 C 56.10 45.45 55.18 45.26 54.72 45.16 C 55.28 46.12 55.84 47.08 56.39 48.05 C 57.35 46.57 58.32 45.11 59.27 43.63 C 58.36 44.26 57.46 44.90 56.56 45.55 M 87.77 47.20 C 87.39 48.63 89.82 48.96 90.34 47.81 C 90.71 46.38 88.28 46.06 87.77 47.20 M 17.27 49.79 C 17.72 51.32 18.16 52.85 18.60 54.38 C 19.61 54.72 20.63 55.07 21.64 55.42 C 20.13 53.59 18.67 51.71 17.27 49.79 M 28.95 50.41 C 29.08 50.86 29.33 51.75 29.46 52.19 C 32.32 52.70 35.19 53.24 38.06 53.71 C 35.07 52.48 32.02 51.40 28.95 50.41 M 40.33 53.18 C 39.17 54.63 41.68 56.33 42.67 54.82 C 43.83 53.37 41.32 51.67 40.33 53.18 M 54.12 54.26 C 54.63 55.01 55.15 55.78 55.66 56.54 C 57.45 55.77 59.24 55.01 61.04 54.27 C 58.73 54.26 56.42 54.25 54.12 54.26 M 72.45 56.69 C 76.56 55.89 80.76 56.03 84.63 57.75 C 81.78 53.69 76.22 54.57 72.45 56.69 M 22.96 56.92 C 25.90 58.25 29.01 59.12 32.18 59.68 C 29.35 58.10 26.24 56.94 22.96 56.92 M 95.90 57.19 C 95.47 58.85 99.16 59.82 99.48 58.08 C 98.97 56.81 96.94 56.25 95.90 57.19 M 33.83 59.31 C 34.03 60.56 36.09 60.22 37.02 60.32 C 37.59 60.43 40.12 59.86 38.75 59.03 C 37.20 58.55 35.22 58.34 33.83 59.31 M 94.86 61.55 C 94.58 62.66 94.29 63.77 94.00 64.88 C 92.57 64.84 91.13 64.80 89.70 64.78 C 90.98 65.08 92.24 65.46 93.56 65.54 C 95.91 63.94 97.96 61.94 100.27 60.28 C 98.47 60.72 96.67 61.14 94.86 61.55 M 85.52 63.13 C 85.67 64.55 86.32 64.80 87.48 63.87 C 87.33 62.45 86.68 62.20 85.52 63.13 Z" />
<path fill="#477238" opacity="1.00" d=" M 70.18 5.22 C 70.70 5.74 70.70 5.74 70.18 5.22 Z" />
</g>
<g id="#42a459ff">
<path fill="#42a459" opacity="1.00" d=" M 32.86 8.38 C 35.31 8.62 37.73 9.08 40.11 9.71 C 37.63 9.72 35.16 9.31 32.86 8.38 Z" />
<path fill="#42a459" opacity="1.00" d=" M 73.89 8.45 C 77.00 8.25 80.12 8.66 83.04 9.76 C 79.95 9.70 76.88 9.27 73.89 8.45 Z" />
<path fill="#42a459" opacity="1.00" d=" M 53.93 10.16 C 57.29 11.10 60.53 12.43 63.57 14.15 C 63.21 14.12 62.48 14.06 62.12 14.03 C 59.09 13.55 56.53 11.68 53.93 10.16 Z" />
<path fill="#42a459" opacity="1.00" d=" M 109.40 12.20 C 111.02 14.75 113.04 17.09 114.24 19.88 C 114.56 22.32 112.87 24.33 111.52 26.16 C 111.10 23.87 111.08 21.47 112.37 19.44 C 111.50 17.75 110.59 16.08 109.68 14.41 C 108.70 14.33 107.73 14.25 106.76 14.16 C 107.64 13.51 108.52 12.85 109.40 12.20 Z" />
<path fill="#42a459" opacity="1.00" d=" M 13.20 13.39 C 14.95 12.73 15.70 15.64 13.99 16.11 C 12.23 16.77 11.50 13.86 13.20 13.39 Z" />
<path fill="#42a459" opacity="1.00" d=" M 18.79 19.30 C 19.84 18.38 21.84 19.02 22.33 20.27 C 22.00 22.04 18.31 20.97 18.79 19.30 Z" />
<path fill="#42a459" opacity="1.00" d=" M 56.52 29.22 C 59.29 28.13 62.29 28.13 65.20 28.40 C 62.34 28.90 59.44 29.22 56.52 29.22 Z" />
<path fill="#42a459" opacity="1.00" d=" M 13.14 31.73 C 15.00 31.46 16.86 31.17 18.71 30.84 C 16.39 32.14 14.67 34.13 14.24 36.82 C 13.91 35.12 13.53 33.42 13.14 31.73 Z" />
<path fill="#42a459" opacity="1.00" d=" M 26.63 32.04 C 29.32 30.66 32.33 31.00 35.19 31.49 C 33.47 31.71 31.74 31.90 30.02 32.06 L 29.08 32.15 C 28.47 32.12 27.24 32.06 26.63 32.04 Z" />
<path fill="#42a459" opacity="1.00" d=" M 71.14 33.55 C 72.11 33.22 73.61 33.22 74.14 34.27 C 73.99 36.85 67.95 35.34 71.14 33.55 Z" />
<path fill="#42a459" opacity="1.00" d=" M 39.93 40.08 C 43.85 38.56 48.00 36.85 52.28 37.98 C 48.13 38.48 44.01 39.20 39.93 40.08 Z" />
<path fill="#42a459" opacity="1.00" d=" M 98.44 40.11 C 101.32 39.39 104.28 39.15 107.24 39.22 C 104.34 39.77 101.39 40.05 98.44 40.11 Z" />
<path fill="#42a459" opacity="1.00" d=" M 13.97 46.40 C 14.43 44.49 14.89 42.59 15.35 40.69 C 15.21 42.47 15.06 44.26 14.92 46.05 C 16.48 45.66 18.04 45.27 19.61 44.89 C 22.39 47.31 25.90 48.36 29.56 48.26 C 24.16 49.67 19.41 45.50 13.97 46.40 Z" />
<path fill="#42a459" opacity="1.00" d=" M 77.88 41.32 C 78.97 40.32 81.03 40.32 82.12 41.31 C 81.90 42.90 78.10 42.90 77.88 41.32 Z" />
<path fill="#42a459" opacity="1.00" d=" M 101.47 42.61 C 103.17 42.16 104.11 45.90 102.34 46.21 C 101.11 45.65 100.57 43.65 101.47 42.61 Z" />
<path fill="#42a459" opacity="1.00" d=" M 17.27 49.79 C 18.67 51.71 20.13 53.59 21.64 55.42 C 20.63 55.07 19.61 54.72 18.60 54.38 C 18.16 52.85 17.72 51.32 17.27 49.79 Z" />
<path fill="#42a459" opacity="1.00" d=" M 28.95 50.41 C 32.02 51.40 35.07 52.48 38.06 53.71 C 35.19 53.24 32.32 52.70 29.46 52.19 C 29.33 51.75 29.08 50.86 28.95 50.41 Z" />
<path fill="#42a459" opacity="1.00" d=" M 40.33 53.18 C 41.32 51.67 43.83 53.37 42.67 54.82 C 41.68 56.33 39.17 54.63 40.33 53.18 Z" />
<path fill="#42a459" opacity="1.00" d=" M 54.12 54.26 C 56.42 54.25 58.73 54.26 61.04 54.27 C 59.24 55.01 57.45 55.77 55.66 56.54 C 55.15 55.78 54.63 55.01 54.12 54.26 Z" />
<path fill="#42a459" opacity="1.00" d=" M 22.96 56.92 C 26.24 56.94 29.35 58.10 32.18 59.68 C 29.01 59.12 25.90 58.25 22.96 56.92 Z" />
<path fill="#42a459" opacity="1.00" d=" M 95.90 57.19 C 96.94 56.25 98.97 56.81 99.48 58.08 C 99.16 59.82 95.47 58.85 95.90 57.19 Z" />
<path fill="#42a459" opacity="1.00" d=" M 33.83 59.31 C 35.22 58.34 37.20 58.55 38.75 59.03 C 40.12 59.86 37.59 60.43 37.02 60.32 C 36.09 60.22 34.03 60.56 33.83 59.31 Z" />
<path fill="#42a459" opacity="1.00" d=" M 94.86 61.55 C 96.67 61.14 98.47 60.72 100.27 60.28 C 97.96 61.94 95.91 63.94 93.56 65.54 C 92.24 65.46 90.98 65.08 89.70 64.78 C 91.13 64.80 92.57 64.84 94.00 64.88 C 94.29 63.77 94.58 62.66 94.86 61.55 Z" />
<path fill="#42a459" opacity="1.00" d=" M 0.77 64.12 C 2.34 63.64 3.90 63.13 5.47 62.70 C 4.05 64.31 2.39 65.78 1.56 67.83 C 5.22 68.06 8.89 67.96 12.56 68.02 C 10.50 69.70 8.25 71.20 6.63 73.35 C 7.82 74.15 9.03 74.94 10.25 75.72 C 11.34 75.06 12.44 74.42 13.57 73.82 C 12.60 75.77 11.12 77.38 10.00 79.22 C 9.87 80.65 10.66 81.92 11.10 83.22 C 13.94 83.03 15.71 80.69 17.56 78.83 C 18.19 80.02 18.84 81.21 19.51 82.39 C 21.07 81.68 22.55 80.83 24.00 79.92 C 24.01 81.61 24.02 83.31 24.04 85.01 C 24.68 85.00 25.96 84.97 26.60 84.96 C 27.48 83.75 28.36 82.54 29.29 81.38 C 30.15 83.64 30.87 85.98 32.19 88.03 C 34.48 87.88 34.69 84.84 36.09 83.43 C 36.34 86.00 35.07 88.22 33.83 90.34 C 31.77 89.14 30.05 87.51 28.77 85.50 C 26.87 85.90 24.93 86.08 23.00 86.24 C 23.00 85.17 23.00 83.05 23.00 81.98 C 21.96 82.77 20.92 83.57 19.89 84.37 C 18.97 83.54 18.06 82.71 17.15 81.89 C 14.93 84.52 11.68 84.40 8.82 82.91 C 8.93 80.97 9.07 79.04 9.40 77.12 C 7.79 75.48 6.01 73.85 5.47 71.52 C 6.78 70.68 8.08 69.84 9.39 69.00 C 6.52 68.99 3.65 69.00 0.77 69.00 C 0.76 67.37 0.76 65.75 0.77 64.12 Z" />
<path fill="#42a459" opacity="1.00" d=" M 45.95 68.53 C 46.59 67.63 47.23 66.73 47.88 65.83 C 48.61 66.58 49.35 67.33 50.08 68.08 C 51.69 67.76 53.28 67.34 54.92 67.20 C 56.35 67.88 57.57 68.92 58.85 69.83 C 60.38 69.16 61.89 68.06 63.65 68.45 C 68.23 68.90 72.83 68.69 77.42 68.96 C 75.36 73.03 72.28 76.65 71.43 81.26 C 70.46 86.76 70.76 92.50 72.19 97.91 C 73.18 101.36 72.70 105.00 73.42 108.48 C 74.29 109.62 75.31 110.63 76.27 111.69 C 72.06 112.23 67.91 113.14 63.71 113.74 C 60.78 114.12 57.91 113.11 54.99 113.07 C 51.07 112.95 47.14 113.36 43.22 113.00 C 41.88 107.38 41.52 101.53 42.67 95.85 C 43.59 86.47 43.26 76.53 39.11 67.89 C 41.40 68.03 43.68 68.22 45.95 68.53 Z" />
<path fill="#42a459" opacity="1.00" d=" M 77.42 68.96 C 77.69 68.26 77.69 68.26 77.42 68.96 Z" />
</g>
</svg>
