<?xml version="1.0" encoding="UTF-8" ?>
<!DOCTYPE svg PUBLIC "-//W3C//DTD SVG 1.1//EN" "http://www.w3.org/Graphics/SVG/1.1/DTD/svg11.dtd">
<svg width="120pt" height="120pt" viewBox="0 0 120 120" version="1.1" xmlns="http://www.w3.org/2000/svg">
<g id="#000000ff">
<path fill="#000000" opacity="1.00" d=" M 19.18 12.62 C 27.87 13.10 36.38 14.89 44.97 16.12 C 55.53 17.29 66.17 16.88 76.77 16.80 C 76.29 37.31 78.90 57.73 81.29 78.06 C 63.20 77.57 45.11 76.93 27.02 77.55 C 22.93 77.90 18.92 78.90 14.92 79.83 C 13.61 57.37 14.32 34.65 19.18 12.62 M 20.32 13.63 C 15.65 34.67 14.37 56.37 15.87 77.85 C 37.20 75.21 58.83 76.46 80.26 77.03 C 77.64 57.53 75.25 37.85 75.60 18.15 C 57.01 18.87 38.59 16.79 20.32 13.63 Z" />
<path fill="#000000" opacity="1.00" d=" M 23.95 21.79 C 39.98 22.64 55.95 24.47 72.03 24.12 C 71.85 31.27 70.58 38.50 71.52 45.64 C 73.08 52.51 74.67 59.39 75.40 66.42 C 58.89 70.31 41.80 67.66 25.05 69.06 C 25.14 53.29 24.83 37.53 23.95 21.79 M 31.31 28.32 C 26.82 32.09 30.51 38.15 31.98 42.58 C 31.71 38.52 29.43 34.19 31.27 30.32 C 36.12 25.49 44.27 28.03 50.17 28.39 C 51.26 32.30 52.24 36.23 53.18 40.18 C 52.34 35.83 53.91 29.15 48.69 27.33 C 43.11 25.50 36.66 26.18 31.31 28.32 M 32.59 33.70 C 33.02 35.40 33.87 38.80 34.30 40.50 C 34.43 40.70 34.68 41.08 34.81 41.27 C 36.24 42.81 37.61 44.46 39.43 45.56 C 43.36 45.59 47.13 44.48 50.82 43.27 C 49.41 38.47 48.91 31.65 43.04 29.98 C 39.22 28.05 35.75 31.97 32.59 33.70 M 42.92 52.77 C 42.16 55.49 41.45 58.21 40.78 60.94 C 43.86 60.98 46.93 60.98 50.02 61.02 C 49.99 59.28 49.94 55.82 49.91 54.09 C 47.58 53.64 45.25 53.19 42.92 52.77 M 53.12 52.94 C 53.51 55.57 53.85 58.18 54.21 60.83 C 56.84 61.15 59.47 61.48 62.10 61.82 C 61.93 58.97 61.74 56.12 61.57 53.28 C 58.76 53.15 55.92 53.03 53.12 52.94 M 64.02 53.93 C 64.01 56.62 64.00 59.31 63.99 62.00 C 66.66 62.00 69.34 62.00 72.01 61.99 C 71.99 60.26 71.95 56.81 71.93 55.08 C 69.30 54.70 66.65 54.29 64.02 53.93 M 26.80 56.67 C 26.88 64.30 34.09 62.75 39.04 63.72 C 38.71 61.00 38.36 58.28 38.00 55.56 C 34.24 55.41 30.47 55.78 26.80 56.67 Z" />
</g>
<g id="#ab5236ff">
<path fill="#ab5236" opacity="1.00" d=" M 20.32 13.63 C 38.59 16.79 57.01 18.87 75.60 18.15 C 75.25 37.85 77.64 57.53 80.26 77.03 C 58.83 76.46 37.20 75.21 15.87 77.85 C 14.37 56.37 15.65 34.67 20.32 13.63 M 21.29 17.35 C 22.08 24.65 21.08 31.97 19.71 39.13 C 19.15 50.37 19.65 61.65 19.97 72.90 C 39.31 73.28 58.67 74.60 77.99 72.99 C 74.48 56.02 74.76 38.62 73.57 21.41 C 56.00 22.85 38.60 19.87 21.29 17.35 Z" />
</g>
<g id="#5f574fff">
<path fill="#5f574f" opacity="1.00" d=" M 21.29 17.35 C 38.60 19.87 56.00 22.85 73.57 21.41 C 74.76 38.62 74.48 56.02 77.99 72.99 C 58.67 74.60 39.31 73.28 19.97 72.90 C 19.65 61.65 19.15 50.37 19.71 39.13 C 21.08 31.97 22.08 24.65 21.29 17.35 M 23.95 21.79 C 24.83 37.53 25.14 53.29 25.05 69.06 C 41.80 67.66 58.89 70.31 75.40 66.42 C 74.67 59.39 73.08 52.51 71.52 45.64 C 70.58 38.50 71.85 31.27 72.03 24.12 C 55.95 24.47 39.98 22.64 23.95 21.79 Z" />
<path fill="#5f574f" opacity="1.00" d=" M 32.59 33.70 C 35.75 31.97 39.22 28.05 43.04 29.98 C 48.91 31.65 49.41 38.47 50.82 43.27 C 47.13 44.48 43.36 45.59 39.43 45.56 C 37.61 44.46 36.24 42.81 34.81 41.27 C 36.19 40.86 38.77 40.28 38.45 38.40 C 36.80 37.65 35.40 39.54 34.30 40.50 C 33.87 38.80 33.02 35.40 32.59 33.70 Z" />
</g>
<g id="#fff1e8ff">
<path fill="#fff1e8" opacity="1.00" d=" M 31.31 28.32 C 36.66 26.18 43.11 25.50 48.69 27.33 C 53.91 29.15 52.34 35.83 53.18 40.18 C 52.24 36.23 51.26 32.30 50.17 28.39 C 44.27 28.03 36.12 25.49 31.27 30.32 C 29.43 34.19 31.71 38.52 31.98 42.58 C 30.51 38.15 26.82 32.09 31.31 28.32 Z" />
<path fill="#fff1e8" opacity="1.00" d=" M 34.30 40.50 C 35.40 39.54 36.80 37.65 38.45 38.40 C 38.77 40.28 36.19 40.86 34.81 41.27 C 34.68 41.08 34.43 40.70 34.30 40.50 Z" />
</g>
<g id="#ffec27ff">
<path fill="#ffec27" opacity="1.00" d=" M 42.92 52.77 C 45.25 53.19 47.58 53.64 49.91 54.09 C 49.94 55.82 49.99 59.28 50.02 61.02 C 46.93 60.98 43.86 60.98 40.78 60.94 C 41.45 58.21 42.16 55.49 42.92 52.77 Z" />
</g>
<g id="#ffa300ff">
<path fill="#ffa300" opacity="1.00" d=" M 53.12 52.94 C 55.92 53.03 58.76 53.15 61.57 53.28 C 61.74 56.12 61.93 58.97 62.10 61.82 C 59.47 61.48 56.84 61.15 54.21 60.83 C 53.85 58.18 53.51 55.57 53.12 52.94 Z" />
</g>
<g id="#ff004dff">
<path fill="#ff004d" opacity="1.00" d=" M 64.02 53.93 C 66.65 54.29 69.30 54.70 71.93 55.08 C 71.95 56.81 71.99 60.26 72.01 61.99 C 69.34 62.00 66.66 62.00 63.99 62.00 C 64.00 59.31 64.01 56.62 64.02 53.93 Z" />
</g>
<g id="#29adffff">
<path fill="#29adff" opacity="1.00" d=" M 26.80 56.67 C 30.47 55.78 34.24 55.41 38.00 55.56 C 38.36 58.28 38.71 61.00 39.04 63.72 C 34.09 62.75 26.88 64.30 26.80 56.67 Z" />
</g>
</svg>
