<?xml version="1.0" encoding="UTF-8" ?>
<!DOCTYPE svg PUBLIC "-//W3C//DTD SVG 1.1//EN" "http://www.w3.org/Graphics/SVG/1.1/DTD/svg11.dtd">
<svg width="176pt" height="155pt" viewBox="0 0 176 155" version="1.1" xmlns="http://www.w3.org/2000/svg">
<g id="#181d3dff">
<path fill="#181d3d" opacity="1.00" d=" M 57.60 60.18 C 68.72 59.92 79.84 60.18 90.97 60.04 C 93.70 59.83 96.24 61.21 98.97 61.07 C 104.90 60.91 111.82 62.18 115.56 67.24 C 115.62 67.29 115.72 67.40 115.77 67.46 C 119.14 70.42 123.05 72.71 126.64 75.39 C 128.76 80.55 133.37 84.16 137.99 87.02 C 140.21 88.48 142.86 88.97 145.45 89.33 C 147.32 90.40 149.52 90.01 151.57 90.11 C 153.36 92.66 156.65 93.71 158.16 96.42 C 156.40 95.81 154.90 94.69 153.35 93.70 C 150.81 91.22 147.24 90.89 143.90 90.46 C 142.36 91.46 141.02 92.74 139.64 93.94 C 139.15 94.02 138.18 94.19 137.70 94.28 C 135.51 95.28 133.08 94.99 130.75 95.20 C 128.55 96.47 125.92 95.88 123.51 96.11 C 124.03 96.54 125.07 97.38 125.59 97.80 C 129.83 98.27 134.13 97.80 138.38 98.07 C 141.22 99.88 144.82 98.14 147.72 99.76 C 149.75 99.99 151.90 99.79 153.74 100.85 C 156.63 101.04 159.53 100.96 162.43 101.05 C 163.20 101.36 164.75 101.97 165.52 102.28 C 163.55 100.33 161.16 98.89 159.30 96.82 C 163.77 98.08 169.59 101.60 168.92 107.00 C 168.64 110.55 170.09 114.11 168.95 117.60 C 165.61 120.74 162.57 124.55 158.05 126.03 C 156.61 125.28 157.22 123.30 156.93 122.00 C 156.87 120.54 156.84 119.09 156.80 117.64 C 156.09 116.22 155.38 114.80 154.69 113.36 C 153.20 112.69 151.72 111.96 150.31 111.13 C 146.71 111.25 143.10 111.33 139.51 111.49 L 138.68 111.91 C 134.70 114.03 131.65 117.53 129.09 121.17 C 127.14 123.95 124.21 125.76 121.56 127.78 C 103.37 126.79 85.17 126.05 66.98 125.20 C 65.25 120.29 62.72 115.70 58.91 112.10 C 59.15 111.71 59.64 110.94 59.89 110.55 C 61.50 113.69 64.69 115.51 66.77 118.28 C 67.90 119.99 68.70 121.89 69.56 123.75 C 75.05 123.04 80.49 124.03 85.89 124.94 C 84.83 123.55 83.83 122.12 82.84 120.68 C 82.85 120.16 82.85 119.11 82.85 118.58 C 81.99 116.55 81.15 114.51 80.19 112.52 C 80.06 112.05 79.81 111.12 79.68 110.65 C 79.05 107.91 78.62 105.09 77.30 102.56 C 76.80 101.04 76.28 99.53 75.80 98.00 L 75.01 98.00 C 75.00 97.19 74.99 95.59 74.99 94.78 C 78.33 94.96 81.67 94.99 85.01 95.00 L 84.98 94.24 C 81.84 93.79 78.69 93.35 75.51 93.57 C 74.77 89.97 72.78 86.83 71.13 83.60 C 71.02 83.13 70.80 82.20 70.69 81.73 C 70.26 80.37 69.94 78.98 69.59 77.61 C 69.20 76.61 68.80 75.62 68.40 74.63 C 68.08 73.20 67.59 71.73 67.92 70.25 C 69.49 68.24 72.31 69.05 74.48 68.45 C 70.77 67.76 66.83 68.67 63.26 67.27 C 63.03 67.28 62.58 67.29 62.35 67.30 C 59.30 67.24 56.13 67.60 53.26 66.33 C 51.27 66.19 49.27 66.15 47.27 66.01 L 46.71 65.26 C 48.37 60.55 54.23 62.52 57.60 60.18 M 56.07 62.24 L 55.98 62.99 C 55.36 63.02 54.13 63.06 53.51 63.09 C 52.49 64.60 50.49 63.82 49.00 64.09 L 49.00 64.98 C 50.87 65.16 53.09 64.40 54.65 65.82 C 58.30 66.21 62.18 65.19 65.67 66.58 C 76.32 66.95 86.98 66.94 97.63 67.02 C 98.55 68.20 99.46 68.20 100.37 67.01 C 101.89 66.99 103.42 67.00 104.94 67.00 L 105.01 66.00 C 105.75 66.00 107.25 66.00 108.00 65.99 L 108.03 67.00 L 109.00 67.00 L 109.00 66.00 C 109.50 66.00 110.50 66.00 110.99 66.00 L 111.05 67.02 C 111.62 67.00 112.76 66.96 113.33 66.94 C 112.40 65.96 111.47 64.90 110.02 64.78 L 109.93 64.00 C 109.45 64.00 108.49 64.00 108.00 64.00 L 107.95 63.00 C 106.64 63.00 105.32 63.00 104.01 63.00 L 103.94 62.00 C 100.63 62.00 97.32 62.00 94.01 62.00 L 93.92 61.00 C 82.94 61.01 71.96 60.98 60.99 61.02 C 59.24 60.89 57.67 61.70 56.07 62.24 M 99.62 69.83 C 100.41 69.83 102.00 69.83 102.79 69.83 C 104.30 71.50 105.48 73.42 106.30 75.51 C 109.43 80.33 112.33 85.26 114.95 90.38 C 114.97 90.94 115.01 92.07 115.03 92.64 C 115.82 93.47 116.69 94.20 117.65 94.83 C 117.30 97.01 118.78 99.01 121.00 99.25 C 121.00 99.68 121.00 100.54 121.00 100.97 L 122.11 101.01 C 121.94 102.56 122.39 104.37 121.18 105.62 C 121.14 107.21 121.14 108.80 121.20 110.39 C 122.63 111.90 121.98 114.09 122.18 115.94 C 121.88 118.45 122.47 121.07 121.63 123.51 C 121.09 124.41 120.56 125.32 120.04 126.23 C 122.62 125.24 124.97 123.76 126.83 121.69 L 127.02 121.28 C 129.29 118.47 131.45 115.56 134.26 113.25 C 136.03 112.79 137.16 111.30 138.32 110.00 C 142.88 110.00 147.44 110.00 152.00 110.00 L 152.00 110.77 C 153.37 111.21 154.73 111.70 156.11 112.15 C 156.08 112.58 156.03 113.45 156.00 113.88 C 158.94 113.37 161.90 113.97 164.86 113.91 C 165.49 114.25 166.76 114.92 167.40 115.26 C 168.03 111.88 168.03 108.43 168.00 105.00 L 167.00 105.00 C 167.00 104.50 167.00 103.50 167.00 103.00 C 165.33 103.00 163.66 103.00 162.00 103.00 L 162.00 102.00 C 158.67 102.00 155.34 102.00 152.00 102.00 L 151.97 101.00 C 149.98 101.00 147.99 101.00 146.00 101.00 L 145.98 100.00 C 143.32 100.00 140.66 100.00 138.00 100.00 L 137.99 99.00 C 133.42 98.99 128.86 99.03 124.29 99.00 C 121.25 96.12 118.85 92.71 116.04 89.64 C 116.02 89.23 115.99 88.41 115.97 88.00 L 115.00 88.00 C 115.00 87.56 115.00 86.68 114.99 86.24 C 114.49 85.88 113.49 85.18 112.99 84.82 C 112.99 84.37 113.00 83.46 113.00 83.00 L 111.98 83.00 C 111.99 82.50 112.00 81.50 112.00 81.00 L 110.99 81.00 C 111.00 80.50 111.00 79.50 111.00 79.00 L 110.00 79.00 C 110.00 78.50 110.00 77.50 110.00 77.00 L 109.00 77.00 C 109.00 75.67 109.00 74.33 109.00 73.00 L 107.88 73.00 C 107.92 71.31 108.28 69.67 108.82 68.07 C 105.76 68.62 102.15 67.62 99.62 69.83 M 109.25 71.65 C 109.80 72.53 110.35 73.42 110.90 74.31 L 110.74 75.02 C 114.59 81.10 116.80 88.16 121.39 93.80 C 123.76 95.16 126.69 94.30 129.29 94.41 C 131.62 93.64 134.18 94.01 136.44 93.03 L 137.21 93.19 C 138.18 92.79 139.11 92.32 140.02 91.79 C 141.50 91.23 141.48 90.68 139.95 90.14 L 140.06 89.66 C 138.11 88.75 136.32 87.55 134.56 86.34 C 134.10 86.12 133.19 85.69 132.74 85.47 C 132.68 85.43 132.56 85.34 132.51 85.30 C 132.06 84.84 131.15 83.92 130.70 83.46 C 130.67 83.43 130.60 83.36 130.57 83.33 C 129.63 82.40 128.68 81.50 127.70 80.61 C 127.89 81.45 128.27 83.14 128.46 83.99 C 123.65 78.46 117.60 74.07 113.24 68.18 C 110.94 68.06 109.75 69.59 109.25 71.65 M 75.70 69.45 C 73.08 70.28 68.69 69.25 69.00 73.31 C 70.26 75.14 70.72 77.36 71.35 79.46 C 71.82 80.43 72.18 81.44 72.41 82.49 C 72.72 83.02 73.33 84.07 73.64 84.59 C 76.20 85.06 78.79 85.37 81.40 85.37 C 81.81 86.45 81.32 87.49 80.90 88.48 L 82.56 88.12 C 82.79 89.07 83.02 90.03 83.25 90.98 C 83.39 90.12 83.69 88.40 83.84 87.54 C 83.34 86.87 82.85 86.20 82.36 85.52 C 86.18 86.00 91.20 83.89 94.02 87.38 C 92.63 87.66 91.25 87.97 89.88 88.30 C 90.76 88.27 92.53 88.20 93.42 88.17 C 94.33 90.30 95.28 92.46 96.88 94.19 C 96.50 91.82 95.79 89.53 95.08 87.25 C 99.36 88.00 104.31 86.24 108.10 88.74 C 109.41 88.50 110.71 88.26 112.02 88.03 C 110.93 86.30 109.95 84.50 109.15 82.62 C 107.90 80.62 106.27 78.87 105.22 76.74 C 104.43 74.59 103.19 72.67 101.61 71.02 C 101.07 71.00 99.97 70.95 99.42 70.93 C 95.96 68.47 91.08 71.60 87.50 69.30 C 83.57 69.23 79.63 69.26 75.70 69.45 M 127.70 80.61 C 127.04 80.18 127.04 80.18 127.70 80.61 M 87.00 95.00 L 87.00 96.00 C 89.00 96.00 91.00 96.00 93.00 96.00 L 93.01 97.00 C 94.34 97.00 95.66 97.00 96.99 97.00 L 97.01 95.77 C 97.81 95.95 99.41 96.32 100.21 96.50 L 100.18 96.50 C 103.36 96.98 106.68 97.12 109.84 96.40 C 111.94 95.99 114.09 95.89 116.22 95.60 C 113.88 94.73 111.36 95.25 108.93 95.19 C 101.62 95.31 94.31 94.92 87.00 95.00 M 75.99 96.00 C 76.47 96.95 76.91 97.93 77.32 98.92 L 77.87 99.02 C 78.00 100.74 78.64 102.34 79.22 103.94 L 80.04 104.02 C 80.02 104.64 79.98 105.88 79.96 106.51 C 80.14 107.22 80.49 108.65 80.67 109.37 C 81.02 110.36 81.37 111.36 81.72 112.36 C 82.64 115.11 84.60 117.59 84.38 120.62 C 85.44 121.42 86.53 122.16 87.64 122.89 C 87.55 123.32 87.35 124.20 87.26 124.63 C 94.50 124.51 101.77 124.56 109.01 124.80 C 109.42 124.97 110.26 125.30 110.68 125.46 C 113.42 125.61 116.16 125.64 118.91 125.78 C 118.73 125.21 118.38 124.07 118.20 123.50 L 119.56 123.78 C 121.60 120.41 120.68 116.38 120.77 112.66 C 120.15 111.51 119.86 110.27 119.88 108.95 C 119.89 106.95 120.07 104.97 120.61 103.05 C 121.52 101.35 119.47 100.42 118.62 99.30 C 116.38 97.57 113.96 96.38 111.03 97.00 L 110.99 98.00 C 107.00 98.00 103.00 98.00 99.00 98.00 L 98.99 97.00 L 98.00 97.00 L 98.00 98.00 C 95.89 97.67 93.10 98.90 91.51 97.08 C 89.55 96.71 86.94 97.84 85.50 96.06 C 82.33 95.96 79.16 96.02 75.99 96.00 M 158.20 124.24 C 159.66 123.36 161.09 122.43 162.57 121.59 C 163.40 120.88 164.24 120.18 165.07 119.48 C 164.56 118.40 164.05 117.32 163.54 116.25 C 162.82 116.61 161.38 117.32 160.66 117.68 C 160.51 116.78 160.20 114.98 160.05 114.08 C 156.60 116.31 158.49 120.84 158.20 124.24 Z" />
<path fill="#181d3d" opacity="1.00" d=" M 37.66 78.70 C 38.77 73.69 42.14 69.48 46.39 66.73 C 46.26 67.22 45.99 68.20 45.86 68.69 C 45.07 69.58 44.26 70.46 43.43 71.33 L 43.01 71.64 L 43.17 72.04 C 41.10 72.50 39.86 74.83 40.20 76.84 C 39.57 77.30 38.30 78.23 37.66 78.70 Z" />
<path fill="#181d3d" opacity="1.00" d=" M 43.43 71.33 C 45.23 70.48 46.59 69.02 47.94 67.61 C 52.46 67.42 56.99 67.85 61.49 67.37 C 65.48 69.81 65.42 75.19 68.39 78.54 C 68.85 80.20 69.24 81.88 69.84 83.50 C 70.30 86.36 70.51 89.25 70.19 92.14 C 66.93 92.67 63.63 92.66 60.34 92.54 C 52.62 91.52 44.65 92.96 37.11 90.72 C 34.62 90.03 34.71 86.99 35.70 85.11 C 37.12 82.31 39.39 79.94 40.20 76.84 C 42.15 76.09 42.89 73.93 43.17 72.04 L 43.66 71.80 L 43.43 71.33 M 50.08 69.00 C 49.46 72.61 49.42 76.28 49.42 79.94 C 49.49 83.27 48.32 86.59 49.22 89.89 C 52.59 89.82 55.96 89.79 59.32 89.94 C 58.35 88.65 57.52 87.25 57.26 85.63 C 56.74 85.20 55.70 84.34 55.19 83.91 C 58.39 80.96 63.02 81.52 66.58 79.23 C 65.57 77.30 64.50 75.40 63.25 73.61 C 62.97 72.35 62.56 71.13 61.93 70.00 C 59.62 70.00 57.31 70.00 55.00 70.00 L 54.99 69.00 C 53.35 69.00 51.72 69.00 50.08 69.00 Z" />
<path fill="#181d3d" opacity="1.00" d=" M 32.83 85.96 C 34.29 83.89 34.84 81.02 37.27 79.79 C 37.05 80.47 36.62 81.82 36.40 82.49 C 35.66 83.86 34.93 85.23 34.17 86.59 C 34.15 87.09 34.12 88.09 34.10 88.59 C 32.68 90.61 31.12 92.52 29.70 94.54 C 28.99 96.24 28.18 97.89 27.36 99.55 C 27.09 100.59 26.81 101.64 26.54 102.69 C 26.14 104.07 25.77 105.45 25.29 106.81 C 25.38 109.06 25.94 111.24 26.64 113.36 C 29.65 113.32 32.69 113.71 34.96 115.89 C 34.81 115.07 34.67 114.25 34.52 113.44 C 36.11 111.17 37.95 108.94 40.62 107.94 C 45.97 107.98 51.32 107.88 56.66 108.04 L 57.66 109.14 C 52.31 109.28 46.55 107.92 41.45 109.75 C 40.88 109.81 39.75 109.93 39.18 109.99 C 36.91 112.40 36.09 115.66 34.76 118.60 C 31.73 117.01 28.79 114.94 25.26 114.77 C 25.08 113.58 24.72 112.46 24.17 111.39 C 24.24 107.65 23.31 103.56 25.31 100.17 C 27.80 95.42 29.86 90.44 32.83 85.96 Z" />
<path fill="#181d3d" opacity="1.00" d=" M 78.41 97.61 L 80.14 98.83 C 80.34 98.96 80.72 99.24 80.92 99.38 C 82.58 99.67 84.37 99.87 85.95 99.15 C 86.43 98.96 87.38 98.59 87.85 98.41 C 87.50 98.88 86.78 99.81 86.42 100.28 C 84.38 100.41 82.34 100.38 80.30 100.29 C 79.83 99.62 78.88 98.28 78.41 97.61 Z" />
<path fill="#181d3d" opacity="1.00" d=" M 39.80 117.60 C 43.37 111.87 51.67 110.03 57.31 113.77 C 60.67 115.61 62.18 119.29 63.90 122.51 C 63.89 123.81 63.87 125.11 63.83 126.41 C 62.95 127.66 62.94 129.17 62.82 130.62 C 61.38 134.26 57.36 135.45 53.96 136.53 C 50.43 137.61 46.85 136.31 43.34 135.79 C 41.97 134.42 40.60 133.05 39.23 131.68 C 37.97 127.09 36.71 121.78 39.80 117.60 M 48.02 120.16 C 45.72 121.28 45.52 124.00 45.13 126.21 C 43.79 124.64 43.52 122.63 43.22 120.67 C 42.65 122.96 41.87 125.52 43.06 127.76 C 44.31 129.60 46.12 130.94 47.77 132.39 C 49.56 132.34 51.34 132.31 53.13 132.31 C 54.85 130.79 56.56 129.16 57.47 127.00 C 55.83 127.82 54.22 128.71 52.61 129.58 C 53.66 128.05 54.99 126.68 55.72 124.95 C 56.72 121.02 51.12 117.08 48.02 120.16 Z" />
<path fill="#181d3d" opacity="1.00" d=" M 137.39 115.20 C 140.05 114.60 142.73 113.98 145.48 114.03 C 148.73 116.71 152.50 118.87 154.89 122.45 C 154.92 125.66 154.94 128.88 155.01 132.10 L 153.15 130.82 C 155.52 134.02 151.26 135.67 149.63 137.77 C 144.73 139.10 138.89 139.92 134.74 136.28 C 130.40 133.17 129.80 127.46 130.06 122.55 C 132.42 120.00 133.99 116.57 137.39 115.20 Z" />
<path fill="#181d3d" opacity="1.00" d=" M 50.86 121.25 C 51.41 121.24 52.52 121.22 53.07 121.22 C 52.71 122.10 52.35 122.98 51.98 123.86 C 52.89 124.55 53.80 125.24 54.71 125.93 C 53.09 126.34 51.49 126.77 49.88 127.22 C 48.71 125.94 47.41 124.76 46.07 123.66 C 47.97 123.60 50.00 123.20 50.86 121.25 Z" />
</g>
<g id="#fefcfbff">
<path fill="#fefcfb" opacity="1.00" d=" M 56.07 62.24 C 57.67 61.70 59.24 60.89 60.99 61.02 C 71.96 60.98 82.94 61.01 93.92 61.00 L 94.01 62.00 C 97.32 62.00 100.63 62.00 103.94 62.00 L 104.01 63.00 C 105.32 63.00 106.64 63.00 107.95 63.00 L 108.00 64.00 C 108.49 64.00 109.45 64.00 109.93 64.00 L 110.02 64.78 C 111.47 64.90 112.40 65.96 113.33 66.94 C 112.76 66.96 111.62 67.00 111.05 67.02 L 110.99 66.00 C 110.50 66.00 109.50 66.00 109.00 66.00 L 109.00 67.00 L 108.03 67.00 L 108.00 65.99 C 107.25 66.00 105.75 66.00 105.01 66.00 L 104.94 67.00 C 103.42 67.00 101.89 66.99 100.37 67.01 C 99.46 68.20 98.55 68.20 97.63 67.02 C 86.98 66.94 76.32 66.95 65.67 66.58 C 62.18 65.19 58.30 66.21 54.65 65.82 C 53.09 64.40 50.87 65.16 49.00 64.98 L 49.00 64.09 C 50.49 63.82 52.49 64.60 53.51 63.09 C 54.13 63.06 55.36 63.02 55.98 62.99 L 56.07 62.24 Z" />
<path fill="#fefcfb" opacity="1.00" d=" M 109.25 71.65 C 109.75 69.59 110.94 68.06 113.24 68.18 C 117.60 74.07 123.65 78.46 128.46 83.99 C 130.95 87.40 134.42 90.00 137.21 93.19 L 136.44 93.03 C 132.54 92.30 128.85 90.80 125.14 89.44 C 125.66 88.33 126.18 87.21 126.70 86.10 C 123.96 84.33 121.45 82.15 119.88 79.24 C 117.92 75.76 114.92 73.08 111.73 70.75 C 111.45 71.94 111.17 73.12 110.90 74.31 C 110.35 73.42 109.80 72.53 109.25 71.65 Z" />
<path fill="#fefcfb" opacity="1.00" d=" M 139.64 93.94 C 141.02 92.74 142.36 91.46 143.90 90.46 C 147.24 90.89 150.81 91.22 153.35 93.70 C 154.90 94.69 156.40 95.81 158.16 96.42 C 158.45 96.52 159.02 96.72 159.30 96.82 C 161.16 98.89 163.55 100.33 165.52 102.28 C 164.75 101.97 163.20 101.36 162.43 101.05 C 159.53 100.96 156.63 101.04 153.74 100.85 C 151.90 99.79 149.75 99.99 147.72 99.76 C 144.82 98.14 141.22 99.88 138.38 98.07 C 134.13 97.80 129.83 98.27 125.59 97.80 C 125.07 97.38 124.03 96.54 123.51 96.11 C 125.92 95.88 128.55 96.47 130.75 95.20 C 133.08 94.99 135.51 95.28 137.70 94.28 C 138.18 94.19 139.15 94.02 139.64 93.94 Z" />
<path fill="#fefcfb" opacity="1.00" d=" M 40.62 107.94 C 44.76 105.65 49.59 106.96 54.05 107.05 C 56.09 107.36 59.30 107.04 59.59 109.79 L 59.25 110.90 C 58.85 110.46 58.06 109.58 57.66 109.14 L 56.66 108.04 C 51.32 107.88 45.97 107.98 40.62 107.94 Z" />
</g>
<g id="#f7bca2ff">
<path fill="#f7bca2" opacity="1.00" d=" M 46.39 66.73 C 46.47 66.36 46.63 65.63 46.71 65.26 L 47.27 66.01 C 49.27 66.15 51.27 66.19 53.26 66.33 C 56.13 67.60 59.30 67.24 62.35 67.30 L 61.49 67.37 C 56.99 67.85 52.46 67.42 47.94 67.61 C 46.59 69.02 45.23 70.48 43.43 71.33 C 44.26 70.46 45.07 69.58 45.86 68.69 C 45.99 68.20 46.26 67.22 46.39 66.73 Z" />
<path fill="#f7bca2" opacity="1.00" d=" M 40.20 76.84 C 39.86 74.83 41.10 72.50 43.17 72.04 C 42.89 73.93 42.15 76.09 40.20 76.84 Z" />
<path fill="#f7bca2" opacity="1.00" d=" M 37.66 78.70 C 38.30 78.23 39.57 77.30 40.20 76.84 C 39.39 79.94 37.12 82.31 35.70 85.11 C 34.71 86.99 34.62 90.03 37.11 90.72 C 44.65 92.96 52.62 91.52 60.34 92.54 C 55.30 93.32 49.94 91.69 45.15 93.74 C 48.64 95.01 52.36 95.39 56.05 95.36 C 62.51 95.32 69.08 96.13 75.01 98.80 L 75.01 98.00 L 75.80 98.00 C 76.28 99.53 76.80 101.04 77.30 102.56 C 78.62 105.09 79.05 107.91 79.68 110.65 C 79.81 111.12 80.06 112.05 80.19 112.52 C 81.15 114.51 81.99 116.55 82.85 118.58 C 82.85 119.11 82.85 120.16 82.84 120.68 C 83.83 122.12 84.83 123.55 85.89 124.94 C 80.49 124.03 75.05 123.04 69.56 123.75 C 68.70 121.89 67.90 119.99 66.77 118.28 C 64.69 115.51 61.50 113.69 59.89 110.55 L 59.59 109.79 C 59.30 107.04 56.09 107.36 54.05 107.05 C 49.59 106.96 44.76 105.65 40.62 107.94 C 37.95 108.94 36.11 111.17 34.52 113.44 C 34.67 114.25 34.81 115.07 34.96 115.89 C 32.69 113.71 29.65 113.32 26.64 113.36 C 25.94 111.24 25.38 109.06 25.29 106.81 C 25.77 105.45 26.14 104.07 26.54 102.69 C 26.81 101.64 27.09 100.59 27.36 99.55 C 28.18 97.89 28.99 96.24 29.70 94.54 C 31.12 92.52 32.68 90.61 34.10 88.59 C 34.12 88.09 34.15 87.09 34.17 86.59 C 34.93 85.23 35.66 83.86 36.40 82.49 C 36.62 81.82 37.05 80.47 37.27 79.79 L 37.35 79.53 C 37.43 79.32 37.59 78.91 37.66 78.70 Z" />
<path fill="#f7bca2" opacity="1.00" d=" M 80.30 100.29 C 82.34 100.38 84.38 100.41 86.42 100.28 C 86.17 102.43 80.88 102.31 80.30 100.29 Z" />
<path fill="#f7bca2" opacity="1.00" d=" M 79.96 106.51 C 82.31 107.15 83.84 108.90 84.86 111.01 C 85.05 109.81 85.25 108.60 85.45 107.40 C 90.06 108.40 94.80 108.58 99.42 109.48 C 104.77 110.39 110.03 108.61 115.24 107.69 C 116.90 107.38 118.38 108.43 119.88 108.95 C 119.86 110.27 120.15 111.51 120.77 112.66 C 120.68 116.38 121.60 120.41 119.56 123.78 L 118.20 123.50 C 118.38 124.07 118.73 125.21 118.91 125.78 C 116.16 125.64 113.42 125.61 110.68 125.46 C 110.26 125.30 109.42 124.97 109.01 124.80 C 101.77 124.56 94.50 124.51 87.26 124.63 C 87.35 124.20 87.55 123.32 87.64 122.89 C 86.53 122.16 85.44 121.42 84.38 120.62 C 84.60 117.59 82.64 115.11 81.72 112.36 C 81.37 111.36 81.02 110.36 80.67 109.37 C 80.49 108.65 80.14 107.22 79.96 106.51 Z" />
<path fill="#f7bca2" opacity="1.00" d=" M 122.89 114.66 C 123.46 114.79 124.61 115.05 125.19 115.18 C 127.05 114.88 128.90 114.55 130.75 114.23 C 129.41 116.53 128.11 118.85 127.02 121.28 L 126.83 121.69 C 124.97 123.76 122.62 125.24 120.04 126.23 C 120.56 125.32 121.09 124.41 121.63 123.51 C 122.47 121.07 121.88 118.45 122.18 115.94 C 122.36 115.62 122.71 114.98 122.89 114.66 Z" />
<path fill="#f7bca2" opacity="1.00" d=" M 158.20 124.24 C 158.49 120.84 156.60 116.31 160.05 114.08 C 160.20 114.98 160.51 116.78 160.66 117.68 C 161.38 117.32 162.82 116.61 163.54 116.25 C 164.05 117.32 164.56 118.40 165.07 119.48 C 164.24 120.18 163.40 120.88 162.57 121.59 C 161.09 122.43 159.66 123.36 158.20 124.24 Z" />
</g>
<g id="#ffe1d0ff">
<path fill="#ffe1d0" opacity="1.00" d=" M 62.35 67.30 C 62.58 67.29 63.03 67.28 63.26 67.27 C 66.83 68.67 70.77 67.76 74.48 68.45 C 72.31 69.05 69.49 68.24 67.92 70.25 C 67.59 71.73 68.08 73.20 68.40 74.63 C 68.80 75.62 69.20 76.61 69.59 77.61 C 69.94 78.98 70.26 80.37 70.69 81.73 C 70.80 82.20 71.02 83.13 71.13 83.60 C 72.78 86.83 74.77 89.97 75.51 93.57 C 78.69 93.35 81.84 93.79 84.98 94.24 L 85.01 95.00 C 81.67 94.99 78.33 94.96 74.99 94.78 C 74.99 95.59 75.00 97.19 75.01 98.00 L 75.01 98.80 C 69.08 96.13 62.51 95.32 56.05 95.36 C 52.36 95.39 48.64 95.01 45.15 93.74 C 49.94 91.69 55.30 93.32 60.34 92.54 C 63.63 92.66 66.93 92.67 70.19 92.14 C 70.51 89.25 70.30 86.36 69.84 83.50 C 69.24 81.88 68.85 80.20 68.39 78.54 C 65.42 75.19 65.48 69.81 61.49 67.37 L 62.35 67.30 Z" />
<path fill="#ffe1d0" opacity="1.00" d=" M 99.62 69.83 C 102.15 67.62 105.76 68.62 108.82 68.07 C 108.28 69.67 107.92 71.31 107.88 73.00 L 109.00 73.00 C 109.00 74.33 109.00 75.67 109.00 77.00 L 110.00 77.00 C 110.00 77.50 110.00 78.50 110.00 79.00 L 111.00 79.00 C 111.00 79.50 111.00 80.50 110.99 81.00 L 112.00 81.00 C 112.00 81.50 111.99 82.50 111.98 83.00 L 113.00 83.00 C 113.00 83.46 112.99 84.37 112.99 84.82 C 113.49 85.18 114.49 85.88 114.99 86.24 C 115.00 86.68 115.00 87.56 115.00 88.00 L 115.97 88.00 C 115.99 88.41 116.02 89.23 116.04 89.64 C 118.85 92.71 121.25 96.12 124.29 99.00 C 128.86 99.03 133.42 98.99 137.99 99.00 L 138.00 100.00 C 140.66 100.00 143.32 100.00 145.98 100.00 L 146.00 101.00 C 147.99 101.00 149.98 101.00 151.97 101.00 L 152.00 102.00 C 155.34 102.00 158.67 102.00 162.00 102.00 L 162.00 103.00 C 163.66 103.00 165.33 103.00 167.00 103.00 C 167.00 103.50 167.00 104.50 167.00 105.00 L 168.00 105.00 C 168.03 108.43 168.03 111.88 167.40 115.26 C 166.76 114.92 165.49 114.25 164.86 113.91 C 161.90 113.97 158.94 113.37 156.00 113.88 C 156.03 113.45 156.08 112.58 156.11 112.15 C 154.73 111.70 153.37 111.21 152.00 110.77 L 152.00 110.00 C 147.44 110.00 142.88 110.00 138.32 110.00 C 137.16 111.30 136.03 112.79 134.26 113.25 C 131.45 115.56 129.29 118.47 127.02 121.28 C 128.11 118.85 129.41 116.53 130.75 114.23 C 128.90 114.55 127.05 114.88 125.19 115.18 C 124.61 115.05 123.46 114.79 122.89 114.66 C 122.71 114.98 122.36 115.62 122.18 115.94 C 121.98 114.09 122.63 111.90 121.20 110.39 C 121.14 108.80 121.14 107.21 121.18 105.62 C 122.39 104.37 121.94 102.56 122.11 101.01 L 121.00 100.97 C 121.00 100.54 121.00 99.68 121.00 99.25 C 118.78 99.01 117.30 97.01 117.65 94.83 C 116.69 94.20 115.82 93.47 115.03 92.64 C 115.01 92.07 114.97 90.94 114.95 90.38 C 112.33 85.26 109.43 80.33 106.30 75.51 C 105.48 73.42 104.30 71.50 102.79 69.83 C 102.00 69.83 100.41 69.83 99.62 69.83 Z" />
<path fill="#ffe1d0" opacity="1.00" d=" M 43.01 71.64 L 43.43 71.33 L 43.66 71.80 L 43.17 72.04 L 43.01 71.64 Z" />
<path fill="#ffe1d0" opacity="1.00" d=" M 139.95 90.14 C 141.48 90.68 141.50 91.23 140.02 91.79 C 140.00 91.38 139.97 90.55 139.95 90.14 Z" />
<path fill="#ffe1d0" opacity="1.00" d=" M 87.00 95.00 C 94.31 94.92 101.62 95.31 108.93 95.19 C 111.36 95.25 113.88 94.73 116.22 95.60 C 114.09 95.89 111.94 95.99 109.84 96.40 C 106.63 96.58 103.42 96.51 100.21 96.50 C 99.41 96.32 97.81 95.95 97.01 95.77 L 96.99 97.00 C 95.66 97.00 94.34 97.00 93.01 97.00 L 93.00 96.00 C 91.00 96.00 89.00 96.00 87.00 96.00 L 87.00 95.00 Z" />
<path fill="#ffe1d0" opacity="1.00" d=" M 75.99 96.00 C 79.16 96.02 82.33 95.96 85.50 96.06 C 86.94 97.84 89.55 96.71 91.51 97.08 C 93.10 98.90 95.89 97.67 98.00 98.00 L 98.00 97.00 L 98.99 97.00 L 99.00 98.00 C 103.00 98.00 107.00 98.00 110.99 98.00 L 111.03 97.00 C 113.96 96.38 116.38 97.57 118.62 99.30 C 119.47 100.42 121.52 101.35 120.61 103.05 C 120.07 104.97 119.89 106.95 119.88 108.95 C 118.38 108.43 116.90 107.38 115.24 107.69 C 110.03 108.61 104.77 110.39 99.42 109.48 C 94.80 108.58 90.06 108.40 85.45 107.40 C 85.25 108.60 85.05 109.81 84.86 111.01 C 83.84 108.90 82.31 107.15 79.96 106.51 C 79.98 105.88 80.02 104.64 80.04 104.02 L 79.22 103.94 C 78.64 102.34 78.00 100.74 77.87 99.02 L 77.32 98.92 C 76.91 97.93 76.47 96.95 75.99 96.00 M 78.41 97.61 C 78.88 98.28 79.83 99.62 80.30 100.29 C 80.88 102.31 86.17 102.43 86.42 100.28 C 86.78 99.81 87.50 98.88 87.85 98.41 C 87.38 98.59 86.43 98.96 85.95 99.15 C 84.36 97.96 81.84 97.77 80.14 98.83 L 78.41 97.61 M 82.18 104.03 C 80.47 106.92 85.50 104.37 82.18 104.03 Z" />
<path fill="#ffe1d0" opacity="1.00" d=" M 139.51 111.49 C 143.10 111.33 146.71 111.25 150.31 111.13 C 151.72 111.96 153.20 112.69 154.69 113.36 C 155.38 114.80 156.09 116.22 156.80 117.64 C 156.84 119.09 156.87 120.54 156.93 122.00 C 155.88 118.47 155.36 113.68 151.40 112.20 C 147.22 111.25 142.91 111.93 138.68 111.91 L 139.51 111.49 Z" />
</g>
<g id="#7fa4ecff">
<path fill="#7fa4ec" opacity="1.00" d=" M 115.56 67.24 C 115.62 67.29 115.72 67.40 115.77 67.46 C 115.72 67.40 115.62 67.29 115.56 67.24 Z" />
<path fill="#7fa4ec" opacity="1.00" d=" M 50.08 69.00 C 51.72 69.00 53.35 69.00 54.99 69.00 L 55.00 70.00 C 57.31 70.00 59.62 70.00 61.93 70.00 C 62.56 71.13 62.97 72.35 63.25 73.61 C 64.50 75.40 65.57 77.30 66.58 79.23 C 63.02 81.52 58.39 80.96 55.19 83.91 C 55.70 84.34 56.74 85.20 57.26 85.63 C 57.52 87.25 58.35 88.65 59.32 89.94 C 55.96 89.79 52.59 89.82 49.22 89.89 C 48.32 86.59 49.49 83.27 49.42 79.94 C 49.42 76.28 49.46 72.61 50.08 69.00 Z" />
<path fill="#7fa4ec" opacity="1.00" d=" M 75.70 69.45 C 79.63 69.26 83.57 69.23 87.50 69.30 C 91.08 71.60 95.96 68.47 99.42 70.93 C 99.97 70.95 101.07 71.00 101.61 71.02 C 103.19 72.67 104.43 74.59 105.22 76.74 C 106.27 78.87 107.90 80.62 109.15 82.62 C 109.95 84.50 110.93 86.30 112.02 88.03 C 110.71 88.26 109.41 88.50 108.10 88.74 C 104.31 86.24 99.36 88.00 95.08 87.25 C 95.79 89.53 96.50 91.82 96.88 94.19 C 95.28 92.46 94.33 90.30 93.42 88.17 C 92.53 88.20 90.76 88.27 89.88 88.30 C 91.25 87.97 92.63 87.66 94.02 87.38 C 91.20 83.89 86.18 86.00 82.36 85.52 C 82.85 86.20 83.34 86.87 83.84 87.54 C 83.69 88.40 83.39 90.12 83.25 90.98 C 83.02 90.03 82.79 89.07 82.56 88.12 L 80.90 88.48 C 81.32 87.49 81.81 86.45 81.40 85.37 C 78.79 85.37 76.20 85.06 73.64 84.59 C 73.33 84.07 72.72 83.02 72.41 82.49 C 72.18 81.44 71.82 80.43 71.35 79.46 C 70.72 77.36 70.26 75.14 69.00 73.31 C 68.69 69.25 73.08 70.28 75.70 69.45 Z" />
<path fill="#7fa4ec" opacity="1.00" d=" M 127.70 80.61 C 127.04 80.18 127.04 80.18 127.70 80.61 Z" />
<path fill="#7fa4ec" opacity="1.00" d=" M 127.70 80.61 C 128.68 81.50 129.63 82.40 130.57 83.33 C 130.60 83.36 130.67 83.43 130.70 83.46 C 131.15 83.92 132.06 84.84 132.51 85.30 C 132.56 85.34 132.68 85.43 132.74 85.47 C 133.19 85.69 134.10 86.12 134.56 86.34 C 136.32 87.55 138.11 88.75 140.06 89.66 L 139.95 90.14 C 139.97 90.55 140.00 91.38 140.02 91.79 C 139.11 92.32 138.18 92.79 137.21 93.19 C 134.42 90.00 130.95 87.40 128.46 83.99 C 128.27 83.14 127.89 81.45 127.70 80.61 Z" />
<path fill="#7fa4ec" opacity="1.00" d=" M 82.18 104.03 C 85.50 104.37 80.47 106.92 82.18 104.03 Z" />
<path fill="#7fa4ec" opacity="1.00" d=" M 48.02 120.16 C 51.12 117.08 56.72 121.02 55.72 124.95 C 54.99 126.68 53.66 128.05 52.61 129.58 C 54.22 128.71 55.83 127.82 57.47 127.00 C 56.56 129.16 54.85 130.79 53.13 132.31 C 51.34 132.31 49.56 132.34 47.77 132.39 C 46.12 130.94 44.31 129.60 43.06 127.76 C 41.87 125.52 42.65 122.96 43.22 120.67 C 43.52 122.63 43.79 124.64 45.13 126.21 C 45.52 124.00 45.72 121.28 48.02 120.16 M 50.86 121.25 C 50.00 123.20 47.97 123.60 46.07 123.66 C 47.41 124.76 48.71 125.94 49.88 127.22 C 51.49 126.77 53.09 126.34 54.71 125.93 C 53.80 125.24 52.89 124.55 51.98 123.86 C 52.35 122.98 52.71 122.10 53.07 121.22 C 52.52 121.22 51.41 121.24 50.86 121.25 Z" />
</g>
<g id="#d6ebfeff">
<path fill="#d6ebfe" opacity="1.00" d=" M 111.73 70.75 C 114.92 73.08 117.92 75.76 119.88 79.24 C 121.45 82.15 123.96 84.33 126.70 86.10 C 126.18 87.21 125.66 88.33 125.14 89.44 C 128.85 90.80 132.54 92.30 136.44 93.03 C 134.18 94.01 131.62 93.64 129.29 94.41 C 126.69 94.30 123.76 95.16 121.39 93.80 C 116.80 88.16 114.59 81.10 110.74 75.02 L 110.90 74.31 C 111.17 73.12 111.45 71.94 111.73 70.75 Z" />
<path fill="#d6ebfe" opacity="1.00" d=" M 80.14 98.83 C 81.84 97.77 84.36 97.96 85.95 99.15 C 84.37 99.87 82.58 99.67 80.92 99.38 C 80.72 99.24 80.34 98.96 80.14 98.83 Z" />
</g>
</svg>
