<?xml version="1.0" encoding="UTF-8" ?>
<!DOCTYPE svg PUBLIC "-//W3C//DTD SVG 1.1//EN" "http://www.w3.org/Graphics/SVG/1.1/DTD/svg11.dtd">
<svg width="120pt" height="120pt" viewBox="0 0 120 120" version="1.1" xmlns="http://www.w3.org/2000/svg">
<g id="#000000ff">
<path fill="#000000" opacity="1.00" d=" M 22.64 21.57 C 25.69 18.04 30.71 17.44 34.95 16.42 C 35.40 20.24 35.84 24.05 36.22 27.87 C 44.20 28.01 52.19 28.01 60.15 28.62 C 61.85 21.53 68.85 18.04 75.31 16.13 C 79.43 31.66 80.78 47.84 81.67 63.86 C 82.03 68.95 84.06 75.58 79.62 79.61 C 71.61 86.58 60.61 87.54 50.62 89.57 C 38.84 91.36 27.10 94.32 15.12 93.92 C 10.06 90.72 4.17 85.84 5.10 79.02 C 5.20 73.97 5.72 68.72 8.13 64.19 C 15.27 50.79 14.72 34.67 22.64 21.57 M 23.69 22.57 C 21.62 25.87 21.01 29.83 19.27 33.30 C 14.66 42.25 15.50 52.90 10.72 61.83 C 7.21 68.57 4.51 76.51 6.97 84.04 C 9.91 88.36 13.80 94.18 20.01 92.84 C 36.28 91.15 52.56 88.61 68.38 84.39 C 73.25 82.15 80.60 79.78 81.06 73.39 C 80.33 59.49 79.87 45.50 77.24 31.79 C 77.41 26.74 76.26 21.84 74.19 17.22 C 70.77 19.05 67.44 21.05 64.33 23.35 C 62.41 25.21 62.54 28.13 62.10 30.58 C 53.23 28.76 44.17 29.07 35.18 29.45 C 34.78 25.39 34.39 21.32 33.91 17.27 C 30.44 18.85 26.54 19.95 23.69 22.57 Z" />
<path fill="#000000" opacity="1.00" d=" M 24.56 26.86 C 27.76 27.39 30.95 27.96 34.15 28.52 C 35.10 34.55 31.76 41.76 24.88 41.37 C 24.43 36.55 24.44 31.69 24.56 26.86 M 24.85 29.76 C 25.14 33.36 25.49 36.95 25.85 40.54 C 30.39 38.65 33.23 34.43 33.98 29.58 C 30.94 29.48 27.89 29.56 24.85 29.76 Z" />
<path fill="#000000" opacity="1.00" d=" M 62.41 42.51 C 61.83 37.23 63.60 31.95 67.13 28.02 C 71.09 28.55 76.83 31.28 74.32 36.17 C 73.39 41.90 66.99 41.94 62.41 42.51 M 67.74 29.82 C 65.32 33.38 63.39 37.33 63.12 41.70 C 65.36 40.07 69.65 41.14 71.56 38.60 C 72.89 36.44 73.26 33.86 73.74 31.41 C 71.73 30.89 69.74 30.36 67.74 29.82 Z" />
<path fill="#000000" opacity="1.00" d=" M 26.34 34.79 C 27.88 34.04 29.43 33.31 30.99 32.60 C 30.57 34.19 30.15 35.78 29.72 37.37 C 28.59 36.52 27.46 35.65 26.34 34.79 Z" />
<path fill="#000000" opacity="1.00" d=" M 67.00 34.00 C 68.33 34.00 69.67 34.00 71.00 34.00 C 71.00 35.33 71.00 36.67 71.00 38.00 C 69.67 38.00 68.33 38.00 67.00 38.00 C 67.00 36.67 67.00 35.33 67.00 34.00 Z" />
<path fill="#000000" opacity="1.00" d=" M 39.76 55.38 C 40.93 52.33 42.65 49.49 45.19 47.39 C 44.04 50.45 42.10 53.12 39.76 55.38 Z" />
<path fill="#000000" opacity="1.00" d=" M 52.63 48.58 C 53.34 50.99 53.93 53.44 54.49 55.89 C 53.81 55.92 52.44 55.98 51.76 56.01 C 52.03 53.53 52.31 51.05 52.63 48.58 Z" />
<path fill="#000000" opacity="1.00" d=" M 14.52 62.77 C 22.23 63.03 28.87 67.44 36.45 68.35 C 45.12 69.05 54.75 71.05 62.87 66.73 C 67.04 64.50 71.65 63.53 76.29 62.89 C 76.11 68.25 73.36 73.18 67.72 74.63 C 50.22 81.19 30.56 79.90 12.90 74.58 C 13.46 70.65 13.96 66.71 14.52 62.77 M 15.26 63.44 C 15.72 67.67 13.92 74.25 19.31 75.59 C 33.91 78.42 49.36 79.20 63.75 74.81 C 68.36 73.18 72.10 69.81 75.67 66.57 C 75.16 65.80 74.13 64.27 73.61 63.51 C 68.35 65.48 63.37 68.17 57.94 69.71 C 43.44 72.01 28.79 68.59 15.26 63.44 Z" />
<path fill="#000000" opacity="1.00" d=" M 18.24 69.18 C 30.08 75.61 43.62 73.20 56.38 72.10 C 61.31 71.88 65.87 70.03 70.45 68.45 C 66.91 71.18 62.70 73.02 58.15 73.15 C 48.93 73.94 39.65 74.29 30.39 74.40 C 25.75 74.24 21.86 71.76 18.24 69.18 Z" />
</g>
<g id="#008751ff">
<path fill="#008751" opacity="1.00" d=" M 23.69 22.57 C 26.54 19.95 30.44 18.85 33.91 17.27 C 34.39 21.32 34.78 25.39 35.18 29.45 C 44.17 29.07 53.23 28.76 62.10 30.58 C 62.54 28.13 62.41 25.21 64.33 23.35 C 67.44 21.05 70.77 19.05 74.19 17.22 C 76.26 21.84 77.41 26.74 77.24 31.79 C 79.87 45.50 80.33 59.49 81.06 73.39 C 80.60 79.78 73.25 82.15 68.38 84.39 C 52.56 88.61 36.28 91.15 20.01 92.84 C 13.80 94.18 9.91 88.36 6.97 84.04 C 4.51 76.51 7.21 68.57 10.72 61.83 C 15.50 52.90 14.66 42.25 19.27 33.30 C 21.01 29.83 21.62 25.87 23.69 22.57 M 24.56 26.86 C 24.44 31.69 24.43 36.55 24.88 41.37 C 31.76 41.76 35.10 34.55 34.15 28.52 C 30.95 27.96 27.76 27.39 24.56 26.86 M 62.41 42.51 C 66.99 41.94 73.39 41.90 74.32 36.17 C 76.83 31.28 71.09 28.55 67.13 28.02 C 63.60 31.95 61.83 37.23 62.41 42.51 M 39.76 55.38 C 42.10 53.12 44.04 50.45 45.19 47.39 C 42.65 49.49 40.93 52.33 39.76 55.38 M 52.63 48.58 C 52.31 51.05 52.03 53.53 51.76 56.01 C 52.44 55.98 53.81 55.92 54.49 55.89 C 53.93 53.44 53.34 50.99 52.63 48.58 M 14.52 62.77 C 13.96 66.71 13.46 70.65 12.90 74.58 C 30.56 79.90 50.22 81.19 67.72 74.63 C 73.36 73.18 76.11 68.25 76.29 62.89 C 71.65 63.53 67.04 64.50 62.87 66.73 C 54.75 71.05 45.12 69.05 36.45 68.35 C 28.87 67.44 22.23 63.03 14.52 62.77 Z" />
</g>
<g id="#fff1e8ff">
<path fill="#fff1e8" opacity="1.00" d=" M 24.85 29.76 C 27.89 29.56 30.94 29.48 33.98 29.58 C 33.23 34.43 30.39 38.65 25.85 40.54 C 25.49 36.95 25.14 33.36 24.85 29.76 M 26.34 34.79 C 27.46 35.65 28.59 36.52 29.72 37.37 C 30.15 35.78 30.57 34.19 30.99 32.60 C 29.43 33.31 27.88 34.04 26.34 34.79 Z" />
<path fill="#fff1e8" opacity="1.00" d=" M 67.74 29.82 C 69.74 30.36 71.73 30.89 73.74 31.41 C 73.26 33.86 72.89 36.44 71.56 38.60 C 69.65 41.14 65.36 40.07 63.12 41.70 C 63.39 37.33 65.32 33.38 67.74 29.82 M 67.00 34.00 C 67.00 35.33 67.00 36.67 67.00 38.00 C 68.33 38.00 69.67 38.00 71.00 38.00 C 71.00 36.67 71.00 35.33 71.00 34.00 C 69.67 34.00 68.33 34.00 67.00 34.00 Z" />
</g>
<g id="#7e2553ff">
<path fill="#7e2553" opacity="1.00" d=" M 15.26 63.44 C 28.79 68.59 43.44 72.01 57.94 69.71 C 63.37 68.17 68.35 65.48 73.61 63.51 C 74.13 64.27 75.16 65.80 75.67 66.57 C 72.10 69.81 68.36 73.18 63.75 74.81 C 49.36 79.20 33.91 78.42 19.31 75.59 C 13.92 74.25 15.72 67.67 15.26 63.44 M 18.24 69.18 C 21.86 71.76 25.75 74.24 30.39 74.40 C 39.65 74.29 48.93 73.94 58.15 73.15 C 62.70 73.02 66.91 71.18 70.45 68.45 C 65.87 70.03 61.31 71.88 56.38 72.10 C 43.62 73.20 30.08 75.61 18.24 69.18 Z" />
</g>
</svg>
