<?xml version="1.0" encoding="UTF-8" ?>
<!DOCTYPE svg PUBLIC "-//W3C//DTD SVG 1.1//EN" "http://www.w3.org/Graphics/SVG/1.1/DTD/svg11.dtd">
<svg width="100pt" height="100pt" viewBox="0 0 100 100" version="1.1" xmlns="http://www.w3.org/2000/svg">
<g id="#000000ff">
<path fill="#000000" opacity="1.00" d=" M 46.17 14.20 C 50.36 12.46 54.82 14.30 59.02 14.98 C 68.46 17.43 78.15 13.91 87.62 16.00 C 83.49 24.49 76.51 31.89 76.70 41.95 C 74.88 54.31 65.74 64.51 54.80 69.90 C 48.59 71.30 43.28 67.61 37.78 65.53 C 34.12 63.53 29.09 63.18 26.47 59.59 C 22.82 52.65 22.08 44.67 22.41 36.97 C 23.95 31.74 19.49 28.36 17.06 24.56 C 17.30 20.85 17.68 17.15 18.07 13.45 C 23.90 14.28 29.46 16.32 35.21 17.49 C 39.12 17.69 42.51 15.23 46.17 14.20 M 18.58 15.12 C 22.21 16.93 26.00 18.38 29.64 20.18 C 28.13 22.95 26.43 25.60 24.76 28.26 C 26.05 27.40 27.35 26.54 28.65 25.69 C 23.17 33.03 23.92 42.58 24.79 51.17 C 25.72 54.86 27.20 59.24 31.13 60.66 C 37.13 63.36 43.20 65.94 49.15 68.73 C 54.81 70.39 58.88 65.87 62.77 62.78 C 69.85 57.31 74.95 48.92 75.94 40.00 C 77.31 31.64 70.70 25.73 65.25 20.72 C 61.15 17.17 55.90 13.65 50.14 15.12 C 42.15 16.22 35.39 20.66 28.83 24.99 C 30.54 22.95 32.34 20.98 34.15 19.02 C 29.03 17.47 23.90 15.82 18.58 15.12 M 65.66 18.11 C 69.32 22.67 73.31 26.95 77.73 30.79 C 75.16 26.54 71.87 22.80 69.00 18.77 C 73.43 17.92 77.89 17.26 82.28 16.25 C 76.71 16.60 71.17 17.28 65.66 18.11 M 17.75 18.94 C 18.09 22.56 19.44 25.92 21.47 28.89 C 23.87 26.24 26.23 23.54 28.50 20.77 C 25.15 19.40 21.39 17.15 17.75 18.94 M 70.67 19.41 C 73.37 22.58 76.25 25.58 79.16 28.56 C 81.13 25.05 83.02 21.51 85.02 18.02 C 80.24 18.51 75.46 19.00 70.67 19.41 M 23.42 29.83 C 24.85 30.16 25.30 29.64 24.76 28.26 C 23.34 27.94 22.89 28.47 23.42 29.83 Z" />
<path fill="#000000" opacity="1.00" d=" M 50.71 26.91 C 56.04 24.95 62.16 23.51 67.54 26.11 C 62.80 26.74 56.41 24.66 53.43 29.49 C 50.35 33.61 52.14 38.97 52.80 43.61 C 59.89 44.36 63.92 50.01 68.81 54.28 C 67.37 54.02 65.92 53.75 64.48 53.48 C 60.63 57.85 59.13 65.72 52.61 66.55 C 43.34 69.30 40.46 56.08 31.16 58.37 C 33.01 57.66 34.84 56.91 36.64 56.10 C 34.92 55.75 31.48 55.05 29.76 54.69 C 31.14 54.38 33.88 53.76 35.25 53.44 C 37.53 50.05 39.98 46.75 42.78 43.77 C 47.13 39.35 45.26 32.53 45.96 26.98 C 39.02 26.30 32.40 27.97 27.38 32.76 C 30.39 25.41 42.86 21.05 47.79 28.37 C 48.20 34.07 47.05 39.71 45.20 45.06 C 47.23 44.75 49.26 44.43 51.29 44.11 C 50.40 38.42 50.06 32.65 50.71 26.91 M 38.16 51.00 C 39.49 51.05 40.82 51.10 42.16 51.16 C 40.32 51.92 38.48 52.70 36.65 53.48 C 38.21 53.46 39.77 53.44 41.33 53.42 C 39.78 54.51 38.21 55.56 36.66 56.64 C 38.46 56.45 40.25 56.23 42.05 56.03 C 41.00 56.92 39.94 57.80 38.89 58.69 C 40.90 59.10 42.91 59.52 44.92 59.95 C 46.28 58.17 47.63 56.37 48.95 54.55 C 45.85 52.35 42.87 49.90 40.92 46.58 C 40.02 48.06 39.10 49.54 38.16 51.00 M 43.48 46.28 C 43.35 46.91 43.09 48.19 42.96 48.83 C 44.97 49.84 46.99 50.85 49.00 51.88 C 51.00 50.16 53.06 48.51 55.06 46.78 C 51.20 46.59 47.34 46.42 43.48 46.28 M 49.84 56.25 C 54.41 58.22 59.43 57.71 63.49 54.84 C 61.79 54.45 58.39 53.66 56.69 53.27 C 58.37 53.07 61.72 52.68 63.40 52.48 C 61.72 52.22 58.35 51.70 56.67 51.43 C 58.34 51.19 61.69 50.72 63.36 50.48 C 61.35 48.78 59.29 47.14 57.18 45.57 C 54.52 48.98 51.64 52.26 49.84 56.25 M 43.33 63.64 C 46.11 64.31 48.84 65.55 51.72 65.48 C 54.41 64.89 56.46 62.92 58.58 61.29 C 53.48 61.94 48.38 62.65 43.33 63.64 Z" />
<path fill="#000000" opacity="1.00" d=" M 36.42 28.45 C 43.12 25.01 46.55 35.12 43.86 39.81 C 41.74 45.49 31.91 43.63 30.82 38.04 C 29.15 33.96 32.11 29.09 36.42 28.45 M 33.08 31.03 C 32.44 33.20 32.11 35.44 32.11 37.73 C 34.00 40.42 37.26 41.50 40.08 42.90 C 41.75 39.21 42.94 35.33 43.86 31.39 C 40.29 31.00 36.66 30.48 33.08 31.03 Z" />
<path fill="#000000" opacity="1.00" d=" M 53.09 32.24 C 55.56 28.99 59.95 28.74 63.72 29.12 C 67.33 33.51 65.54 39.60 63.10 44.09 C 57.79 42.72 50.72 39.33 53.09 32.24 M 58.33 30.28 C 56.35 31.07 53.71 32.50 53.99 35.00 C 54.08 38.38 57.09 40.87 60.12 41.76 C 62.61 42.89 63.84 39.43 64.55 37.61 C 66.86 33.74 62.18 28.78 58.33 30.28 Z" />
<path fill="#000000" opacity="1.00" d=" M 34.02 36.80 C 35.68 34.66 37.55 32.68 39.62 30.93 C 40.24 33.08 40.81 35.24 41.33 37.42 C 38.89 37.29 36.45 37.08 34.02 36.80 Z" />
<path fill="#000000" opacity="1.00" d=" M 56.02 33.13 C 58.39 33.40 60.75 33.72 63.11 34.05 C 62.45 36.05 61.78 38.06 61.10 40.06 C 59.15 37.96 57.46 35.62 56.02 33.13 Z" />
<path fill="#000000" opacity="1.00" d=" M 68.03 45.44 C 69.94 46.94 65.18 49.17 64.69 47.08 C 65.04 45.73 66.78 45.15 68.03 45.44 Z" />
<path fill="#000000" opacity="1.00" d=" M 68.16 48.98 C 70.86 49.32 68.02 52.37 66.45 51.14 C 64.96 50.21 67.09 48.75 68.16 48.98 Z" />
<path fill="#000000" opacity="1.00" d=" M 31.80 50.17 C 32.26 48.90 34.65 49.41 34.20 50.83 C 33.74 52.10 31.35 51.59 31.80 50.17 Z" />
</g>
<g id="#5f574fff">
<path fill="#5f574f" opacity="1.00" d=" M 18.58 15.12 C 23.90 15.82 29.03 17.47 34.15 19.02 C 32.34 20.98 30.54 22.95 28.83 24.99 C 35.39 20.66 42.15 16.22 50.14 15.12 C 55.90 13.65 61.15 17.17 65.25 20.72 C 70.70 25.73 77.31 31.64 75.94 40.00 C 74.95 48.92 69.85 57.31 62.77 62.78 C 58.88 65.87 54.81 70.39 49.15 68.73 C 43.20 65.94 37.13 63.36 31.13 60.66 C 27.20 59.24 25.72 54.86 24.79 51.17 C 23.92 42.58 23.17 33.03 28.65 25.69 C 27.35 26.54 26.05 27.40 24.76 28.26 C 26.43 25.60 28.13 22.95 29.64 20.18 C 26.00 18.38 22.21 16.93 18.58 15.12 M 50.71 26.91 C 50.06 32.65 50.40 38.42 51.29 44.11 C 49.26 44.43 47.23 44.75 45.20 45.06 C 47.05 39.71 48.20 34.07 47.79 28.37 C 42.86 21.05 30.39 25.41 27.38 32.76 C 32.40 27.97 39.02 26.30 45.96 26.98 C 45.26 32.53 47.13 39.35 42.78 43.77 C 39.98 46.75 37.53 50.05 35.25 53.44 C 33.88 53.76 31.14 54.38 29.76 54.69 C 31.48 55.05 34.92 55.75 36.64 56.10 C 34.84 56.91 33.01 57.66 31.16 58.37 C 40.46 56.08 43.34 69.30 52.61 66.55 C 59.13 65.72 60.63 57.85 64.48 53.48 C 65.92 53.75 67.37 54.02 68.81 54.28 C 63.92 50.01 59.89 44.36 52.80 43.61 C 52.14 38.97 50.35 33.61 53.43 29.49 C 56.41 24.66 62.80 26.74 67.54 26.11 C 62.16 23.51 56.04 24.95 50.71 26.91 M 36.42 28.45 C 32.11 29.09 29.15 33.96 30.82 38.04 C 31.91 43.63 41.74 45.49 43.86 39.81 C 46.55 35.12 43.12 25.01 36.42 28.45 M 53.09 32.24 C 50.72 39.33 57.79 42.72 63.10 44.09 C 65.54 39.60 67.33 33.51 63.72 29.12 C 59.95 28.74 55.56 28.99 53.09 32.24 M 68.03 45.44 C 66.78 45.15 65.04 45.73 64.69 47.08 C 65.18 49.17 69.94 46.94 68.03 45.44 M 68.16 48.98 C 67.09 48.75 64.96 50.21 66.45 51.14 C 68.02 52.37 70.86 49.32 68.16 48.98 M 31.80 50.17 C 31.35 51.59 33.74 52.10 34.20 50.83 C 34.65 49.41 32.26 48.90 31.80 50.17 Z" />
<path fill="#5f574f" opacity="1.00" d=" M 65.66 18.11 C 71.17 17.28 76.71 16.60 82.28 16.25 C 77.89 17.26 73.43 17.92 69.00 18.77 C 71.87 22.80 75.16 26.54 77.73 30.79 C 73.31 26.95 69.32 22.67 65.66 18.11 Z" />
<path fill="#5f574f" opacity="1.00" d=" M 23.42 29.83 C 22.89 28.47 23.34 27.94 24.76 28.26 C 25.30 29.64 24.85 30.16 23.42 29.83 Z" />
</g>
<g id="#ffccaaff">
<path fill="#ffccaa" opacity="1.00" d=" M 17.75 18.94 C 21.39 17.15 25.15 19.40 28.50 20.77 C 26.23 23.54 23.87 26.24 21.47 28.89 C 19.44 25.92 18.09 22.56 17.75 18.94 Z" />
<path fill="#ffccaa" opacity="1.00" d=" M 70.67 19.41 C 75.46 19.00 80.24 18.51 85.02 18.02 C 83.02 21.51 81.13 25.05 79.16 28.56 C 76.25 25.58 73.37 22.58 70.67 19.41 Z" />
<path fill="#ffccaa" opacity="1.00" d=" M 38.16 51.00 C 39.10 49.54 40.02 48.06 40.92 46.58 C 42.87 49.90 45.85 52.35 48.95 54.55 C 47.63 56.37 46.28 58.17 44.92 59.95 C 42.91 59.52 40.90 59.10 38.89 58.69 C 39.94 57.80 41.00 56.92 42.05 56.03 C 40.25 56.23 38.46 56.45 36.66 56.64 C 38.21 55.56 39.78 54.51 41.33 53.42 C 39.77 53.44 38.21 53.46 36.65 53.48 C 38.48 52.70 40.32 51.92 42.16 51.16 C 40.82 51.10 39.49 51.05 38.16 51.00 Z" />
<path fill="#ffccaa" opacity="1.00" d=" M 49.84 56.25 C 51.64 52.26 54.52 48.98 57.18 45.57 C 59.29 47.14 61.35 48.78 63.36 50.48 C 61.69 50.72 58.34 51.19 56.67 51.43 C 58.35 51.70 61.72 52.22 63.40 52.48 C 61.72 52.68 58.37 53.07 56.69 53.27 C 58.39 53.66 61.79 54.45 63.49 54.84 C 59.43 57.71 54.41 58.22 49.84 56.25 Z" />
</g>
<g id="#fff1e8ff">
<path fill="#fff1e8" opacity="1.00" d=" M 33.08 31.03 C 36.66 30.48 40.29 31.00 43.86 31.39 C 42.94 35.33 41.75 39.21 40.08 42.90 C 37.26 41.50 34.00 40.42 32.11 37.73 C 32.11 35.44 32.44 33.20 33.08 31.03 M 34.02 36.80 C 36.45 37.08 38.89 37.29 41.33 37.42 C 40.81 35.24 40.24 33.08 39.62 30.93 C 37.55 32.68 35.68 34.66 34.02 36.80 Z" />
<path fill="#fff1e8" opacity="1.00" d=" M 58.33 30.28 C 62.18 28.78 66.86 33.74 64.55 37.61 C 63.84 39.43 62.61 42.89 60.12 41.76 C 57.09 40.87 54.08 38.38 53.99 35.00 C 53.71 32.50 56.35 31.07 58.33 30.28 M 56.02 33.13 C 57.46 35.62 59.15 37.96 61.10 40.06 C 61.78 38.06 62.45 36.05 63.11 34.05 C 60.75 33.72 58.39 33.40 56.02 33.13 Z" />
</g>
<g id="#7e2553ff">
<path fill="#7e2553" opacity="1.00" d=" M 43.48 46.28 C 47.34 46.42 51.20 46.59 55.06 46.78 C 53.06 48.51 51.00 50.16 49.00 51.88 C 46.99 50.85 44.97 49.84 42.96 48.83 C 43.09 48.19 43.35 46.91 43.48 46.28 Z" />
</g>
<g id="#c2c3c7ff">
<path fill="#c2c3c7" opacity="1.00" d=" M 43.33 63.64 C 48.38 62.65 53.48 61.94 58.58 61.29 C 56.46 62.92 54.41 64.89 51.72 65.48 C 48.84 65.55 46.11 64.31 43.33 63.64 Z" />
</g>
</svg>
