<?xml version="1.0" encoding="UTF-8" ?>
<!DOCTYPE svg PUBLIC "-//W3C//DTD SVG 1.1//EN" "http://www.w3.org/Graphics/SVG/1.1/DTD/svg11.dtd">
<svg width="120pt" height="120pt" viewBox="0 0 120 120" version="1.1" xmlns="http://www.w3.org/2000/svg">
<g id="#000000ff">
<path fill="#000000" opacity="1.00" d=" M 4.15 15.19 C 6.96 6.63 16.66 1.41 25.41 3.49 C 30.21 4.86 33.14 9.36 36.23 12.98 C 50.81 9.00 65.87 10.56 80.68 11.16 C 88.42 6.96 96.91 3.48 106.00 4.96 C 109.95 5.27 111.57 9.75 113.21 12.65 C 105.64 14.74 95.94 14.82 90.89 21.75 C 89.24 33.04 93.45 45.34 88.39 56.16 C 84.43 65.86 79.55 75.59 72.21 83.20 C 65.55 88.50 56.13 88.85 48.01 88.97 C 44.20 88.76 41.20 85.92 38.70 83.31 C 26.83 68.37 22.13 47.98 26.54 29.36 C 27.62 25.23 27.64 19.93 23.71 17.26 C 17.49 14.89 10.68 15.42 4.15 15.19 M 6.34 12.24 C 12.91 9.19 20.38 8.10 27.54 9.50 C 30.58 10.60 32.80 13.07 35.29 15.01 C 32.50 10.61 29.33 5.02 23.61 4.52 C 16.56 2.95 11.19 8.05 6.34 12.24 M 82.20 13.19 C 87.49 11.75 92.74 10.08 98.16 9.23 C 102.95 8.69 107.61 10.45 111.89 12.39 C 110.24 10.05 108.75 7.13 105.90 6.10 C 97.55 5.33 88.05 6.53 82.20 13.19 M 11.06 10.83 C 10.66 11.78 10.25 12.73 9.85 13.68 C 14.94 14.37 20.02 15.01 25.10 15.78 C 26.36 18.18 27.56 20.61 28.78 23.03 C 30.01 19.79 33.60 15.69 30.56 12.46 C 25.11 7.94 17.49 10.84 11.06 10.83 M 85.68 13.81 C 86.91 16.04 88.17 18.26 89.33 20.53 C 95.11 16.45 101.42 13.24 108.32 11.60 C 100.81 9.14 92.88 11.38 85.68 13.81 M 37.51 14.69 C 35.04 15.61 33.20 17.64 31.76 19.76 C 26.62 27.80 25.53 37.65 26.14 46.97 C 26.36 57.78 31.40 67.50 35.49 77.25 C 36.05 74.61 36.61 71.98 37.17 69.35 C 41.73 69.75 46.23 70.55 50.52 72.17 C 59.14 74.74 67.39 70.75 75.14 67.57 C 75.65 70.43 76.04 73.28 76.49 76.16 C 81.31 67.57 86.26 58.94 89.16 49.47 C 90.39 41.28 89.97 32.97 90.02 24.72 C 88.06 26.26 86.12 27.83 84.11 29.31 C 85.77 26.78 87.50 24.29 89.25 21.81 C 84.84 16.10 78.40 11.56 71.02 11.07 C 59.81 10.72 48.17 10.72 37.51 14.69 M 54.06 73.84 C 48.18 73.87 41.82 67.43 36.69 73.04 C 39.31 74.34 41.99 75.78 44.97 75.97 C 55.14 76.36 66.84 76.69 75.26 70.02 C 68.32 71.86 61.38 74.37 54.06 73.84 M 48.33 83.41 C 53.91 82.64 59.46 81.65 64.82 79.88 C 59.05 76.58 53.21 80.19 48.33 83.41 M 39.54 82.53 C 43.31 85.03 46.88 88.99 51.98 87.86 C 60.28 88.01 68.11 84.41 74.45 79.27 C 63.00 81.70 51.24 86.52 39.54 82.53 Z" />
<path fill="#000000" opacity="1.00" d=" M 35.16 23.62 C 41.24 24.40 46.61 29.27 45.21 36.07 C 43.63 36.69 41.93 37.07 40.22 37.00 C 36.01 33.84 36.16 28.32 35.16 23.62 M 36.73 25.03 C 37.34 29.65 39.57 33.68 42.43 37.24 C 42.97 35.30 43.83 33.35 43.66 31.29 C 42.62 28.12 39.39 26.60 36.73 25.03 Z" />
<path fill="#000000" opacity="1.00" d=" M 77.28 25.47 C 79.18 25.49 81.04 25.97 82.89 26.33 C 81.98 29.64 82.48 33.57 80.64 36.65 C 78.53 38.87 74.83 38.61 72.41 40.06 C 72.76 35.05 73.04 28.98 77.28 25.47 M 73.62 38.96 C 76.16 37.61 79.55 36.73 80.69 33.77 C 80.56 30.84 79.86 27.97 79.16 25.14 C 75.85 29.00 73.54 33.71 73.62 38.96 Z" />
<path fill="#000000" opacity="1.00" d=" M 39.19 28.70 C 40.26 30.07 41.34 31.43 42.41 32.79 C 41.65 32.73 40.13 32.61 39.37 32.55 C 39.31 31.27 39.25 29.98 39.19 28.70 Z" />
<path fill="#000000" opacity="1.00" d=" M 76.41 30.20 C 77.68 30.36 78.95 30.53 80.22 30.71 C 79.27 32.81 78.14 34.83 76.85 36.74 C 76.74 35.11 76.52 31.84 76.41 30.20 Z" />
<path fill="#000000" opacity="1.00" d=" M 55.42 33.41 C 61.46 32.03 67.18 35.65 71.17 39.82 C 75.17 45.43 79.29 51.78 79.02 58.99 C 78.59 63.37 74.53 66.65 70.35 67.32 C 61.91 68.46 53.25 67.57 44.95 65.95 C 37.93 64.27 37.42 55.03 41.05 50.03 C 45.27 44.33 48.38 36.29 55.42 33.41 M 56.34 34.35 C 49.42 37.45 46.23 45.26 42.05 51.02 C 38.34 55.58 39.72 63.57 45.95 64.97 C 53.56 66.66 61.57 67.09 69.34 66.31 C 74.97 65.57 80.16 59.58 77.25 53.73 C 74.21 44.84 67.11 33.54 56.34 34.35 Z" />
<path fill="#000000" opacity="1.00" d=" M 41.94 61.78 C 42.19 54.93 48.13 49.66 54.66 49.34 C 60.55 49.84 66.48 50.64 72.09 52.57 C 72.09 54.58 72.07 58.60 72.06 60.62 C 68.25 61.33 64.37 61.32 60.52 61.05 C 54.27 60.18 48.17 62.78 41.94 61.78 M 46.91 53.88 C 43.87 55.55 44.56 59.21 45.11 62.01 C 52.86 58.48 61.45 61.12 69.51 59.71 C 70.16 58.28 71.46 55.43 72.11 54.00 C 64.25 50.97 54.38 49.13 46.91 53.88 Z" />
<path fill="#000000" opacity="1.00" d=" M 46.81 55.86 C 48.64 55.23 50.46 54.62 52.30 54.01 C 52.52 54.80 52.97 56.36 53.19 57.14 C 51.36 57.77 49.53 58.38 47.70 58.99 C 47.48 58.20 47.03 56.64 46.81 55.86 Z" />
<path fill="#000000" opacity="1.00" d=" M 62.35 53.18 C 64.59 54.35 66.86 55.55 69.02 56.88 C 67.23 57.19 63.66 57.83 61.87 58.15 C 62.03 56.49 62.19 54.83 62.35 53.18 Z" />
</g>
<g id="#ffccaaff">
<path fill="#ffccaa" opacity="1.00" d=" M 6.34 12.24 C 11.19 8.05 16.56 2.95 23.61 4.52 C 29.33 5.02 32.50 10.61 35.29 15.01 C 32.80 13.07 30.58 10.60 27.54 9.50 C 20.38 8.10 12.91 9.19 6.34 12.24 Z" />
<path fill="#ffccaa" opacity="1.00" d=" M 82.20 13.19 C 88.05 6.53 97.55 5.33 105.90 6.10 C 108.75 7.13 110.24 10.05 111.89 12.39 C 107.61 10.45 102.95 8.69 98.16 9.23 C 92.74 10.08 87.49 11.75 82.20 13.19 Z" />
<path fill="#ffccaa" opacity="1.00" d=" M 37.51 14.69 C 48.17 10.72 59.81 10.72 71.02 11.07 C 78.40 11.56 84.84 16.10 89.25 21.81 C 87.50 24.29 85.77 26.78 84.11 29.31 C 86.12 27.83 88.06 26.26 90.02 24.72 C 89.97 32.97 90.39 41.28 89.16 49.47 C 86.26 58.94 81.31 67.57 76.49 76.16 C 76.04 73.28 75.65 70.43 75.14 67.57 C 67.39 70.75 59.14 74.74 50.52 72.17 C 46.23 70.55 41.73 69.75 37.17 69.35 C 36.61 71.98 36.05 74.61 35.49 77.25 C 31.40 67.50 26.36 57.78 26.14 46.97 C 25.53 37.65 26.62 27.80 31.76 19.76 C 33.20 17.64 35.04 15.61 37.51 14.69 M 35.16 23.62 C 36.16 28.32 36.01 33.84 40.22 37.00 C 41.93 37.07 43.63 36.69 45.21 36.07 C 46.61 29.27 41.24 24.40 35.16 23.62 M 77.28 25.47 C 73.04 28.98 72.76 35.05 72.41 40.06 C 74.83 38.61 78.53 38.87 80.64 36.65 C 82.48 33.57 81.98 29.64 82.89 26.33 C 81.04 25.97 79.18 25.49 77.28 25.47 M 55.42 33.41 C 48.38 36.29 45.27 44.33 41.05 50.03 C 37.42 55.03 37.93 64.27 44.95 65.95 C 53.25 67.57 61.91 68.46 70.35 67.32 C 74.53 66.65 78.59 63.37 79.02 58.99 C 79.29 51.78 75.17 45.43 71.17 39.82 C 67.18 35.65 61.46 32.03 55.42 33.41 Z" />
<path fill="#ffccaa" opacity="1.00" d=" M 56.34 34.35 C 67.11 33.54 74.21 44.84 77.25 53.73 C 80.16 59.58 74.97 65.57 69.34 66.31 C 61.57 67.09 53.56 66.66 45.95 64.97 C 39.72 63.57 38.34 55.58 42.05 51.02 C 46.23 45.26 49.42 37.45 56.34 34.35 M 41.94 61.78 C 48.17 62.78 54.27 60.18 60.52 61.05 C 64.37 61.32 68.25 61.33 72.06 60.62 C 72.07 58.60 72.09 54.58 72.09 52.57 C 66.48 50.64 60.55 49.84 54.66 49.34 C 48.13 49.66 42.19 54.93 41.94 61.78 Z" />
<path fill="#ffccaa" opacity="1.00" d=" M 39.54 82.53 C 51.24 86.52 63.00 81.70 74.45 79.27 C 68.11 84.41 60.28 88.01 51.98 87.86 C 46.88 88.99 43.31 85.03 39.54 82.53 Z" />
</g>
<g id="#ff77a8ff">
<path fill="#ff77a8" opacity="1.00" d=" M 11.06 10.83 C 17.49 10.84 25.11 7.94 30.56 12.46 C 33.60 15.69 30.01 19.79 28.78 23.03 C 27.56 20.61 26.36 18.18 25.10 15.78 C 20.02 15.01 14.94 14.37 9.85 13.68 C 10.25 12.73 10.66 11.78 11.06 10.83 Z" />
<path fill="#ff77a8" opacity="1.00" d=" M 85.68 13.81 C 92.88 11.38 100.81 9.14 108.32 11.60 C 101.42 13.24 95.11 16.45 89.33 20.53 C 88.17 18.26 86.91 16.04 85.68 13.81 Z" />
<path fill="#ff77a8" opacity="1.00" d=" M 46.91 53.88 C 54.38 49.13 64.25 50.97 72.11 54.00 C 71.46 55.43 70.16 58.28 69.51 59.71 C 61.45 61.12 52.86 58.48 45.11 62.01 C 44.56 59.21 43.87 55.55 46.91 53.88 M 46.81 55.86 C 47.03 56.64 47.48 58.20 47.70 58.99 C 49.53 58.38 51.36 57.77 53.19 57.14 C 52.97 56.36 52.52 54.80 52.30 54.01 C 50.46 54.62 48.64 55.23 46.81 55.86 M 62.35 53.18 C 62.19 54.83 62.03 56.49 61.87 58.15 C 63.66 57.83 67.23 57.19 69.02 56.88 C 66.86 55.55 64.59 54.35 62.35 53.18 Z" />
</g>
<g id="#fff1e8ff">
<path fill="#fff1e8" opacity="1.00" d=" M 36.73 25.03 C 39.39 26.60 42.62 28.12 43.66 31.29 C 43.83 33.35 42.97 35.30 42.43 37.24 C 39.57 33.68 37.34 29.65 36.73 25.03 M 39.19 28.70 C 39.25 29.98 39.31 31.27 39.37 32.55 C 40.13 32.61 41.65 32.73 42.41 32.79 C 41.34 31.43 40.26 30.07 39.19 28.70 Z" />
<path fill="#fff1e8" opacity="1.00" d=" M 73.62 38.96 C 73.54 33.71 75.85 29.00 79.16 25.14 C 79.86 27.97 80.56 30.84 80.69 33.77 C 79.55 36.73 76.16 37.61 73.62 38.96 M 76.41 30.20 C 76.52 31.84 76.74 35.11 76.85 36.74 C 78.14 34.83 79.27 32.81 80.22 30.71 C 78.95 30.53 77.68 30.36 76.41 30.20 Z" />
<path fill="#fff1e8" opacity="1.00" d=" M 54.06 73.84 C 61.38 74.37 68.32 71.86 75.26 70.02 C 66.84 76.69 55.14 76.36 44.97 75.97 C 41.99 75.78 39.31 74.34 36.69 73.04 C 41.82 67.43 48.18 73.87 54.06 73.84 Z" />
</g>
<g id="#ff004dff">
<path fill="#ff004d" opacity="1.00" d=" M 48.33 83.41 C 53.21 80.19 59.05 76.58 64.82 79.88 C 59.46 81.65 53.91 82.64 48.33 83.41 Z" />
</g>
</svg>
