<?xml version="1.0" encoding="UTF-8" ?>
<!DOCTYPE svg PUBLIC "-//W3C//DTD SVG 1.1//EN" "http://www.w3.org/Graphics/SVG/1.1/DTD/svg11.dtd">
<svg width="377pt" height="286pt" viewBox="0 0 377 286" version="1.1" xmlns="http://www.w3.org/2000/svg">
<g id="#ffffffff">
</g>
<g id="#b8c890ff">
<path fill="#b8c890" opacity="1.00" d=" M 108.99 14.79 C 115.41 19.24 121.22 27.02 119.11 35.23 C 115.57 31.27 111.79 27.36 109.38 22.57 C 108.08 20.15 108.59 17.36 108.99 14.79 Z" />
</g>
<g id="#a2ad87ff">
<path fill="#a2ad87" opacity="1.00" d=" M 172.64 40.00 C 173.59 31.15 177.60 23.08 180.60 14.81 C 181.84 26.35 175.20 36.68 174.91 48.05 C 177.45 44.28 180.40 40.80 183.81 37.79 C 188.23 33.89 192.15 29.42 196.95 25.96 C 194.99 34.33 186.87 38.70 180.72 43.75 C 177.39 46.08 176.85 50.35 175.97 54.00 C 182.12 47.75 188.10 41.23 195.18 36.00 C 193.14 42.29 188.54 47.43 183.20 51.17 C 179.58 53.60 175.63 56.24 174.50 60.75 C 176.26 59.48 177.95 58.12 179.65 56.76 C 179.46 58.69 179.28 60.63 178.78 62.50 C 177.70 62.57 176.63 62.69 175.56 62.85 C 174.49 64.88 174.06 67.17 173.47 69.37 C 174.88 68.26 176.28 67.15 177.62 65.97 C 177.50 66.29 177.27 66.95 177.16 67.27 C 175.86 70.43 175.02 73.76 174.87 77.19 C 174.32 76.44 173.76 75.70 173.19 74.96 C 173.39 71.68 173.20 68.39 173.31 65.10 C 173.38 63.89 173.49 62.68 173.63 61.48 C 174.05 58.24 174.53 55.01 174.64 51.75 C 174.84 47.70 172.19 44.07 172.64 40.00 Z" />
</g>
<g id="#b8c599ff">
<path fill="#b8c599" opacity="1.00" d=" M 179.13 38.36 C 180.16 29.38 185.92 21.96 191.29 15.05 C 190.31 21.31 187.69 27.17 184.54 32.62 C 183.24 34.95 181.22 36.75 179.13 38.36 Z" />
</g>
<g id="#c5d4bcff">
<path fill="#c5d4bc" opacity="1.00" d=" M 280.23 15.95 C 281.63 17.63 282.98 19.35 284.24 21.14 C 283.55 22.37 282.81 23.59 282.31 24.91 C 283.23 26.48 284.45 27.85 285.60 29.26 C 285.90 27.49 286.20 25.73 286.51 23.96 C 287.67 27.50 287.33 31.30 285.35 34.47 C 284.72 35.73 284.06 36.97 283.42 38.22 C 281.17 35.44 278.09 32.81 277.73 29.02 C 277.48 24.53 278.94 20.19 280.23 15.95 Z" />
</g>
<g id="#b7ca91ff">
<path fill="#b7ca91" opacity="1.00" d=" M 118.32 38.91 C 122.00 31.80 123.30 23.29 129.13 17.45 C 129.89 22.50 128.84 27.59 127.29 32.39 C 125.91 36.80 122.30 39.90 119.70 43.57 C 118.57 42.29 117.41 41.03 116.20 39.82 C 116.63 42.84 117.88 45.65 119.85 47.98 C 120.98 45.25 122.21 42.47 124.45 40.45 C 127.91 37.20 130.88 33.39 134.87 30.74 C 134.81 35.61 133.07 40.34 130.34 44.33 C 128.28 47.10 124.63 47.86 122.11 50.07 C 120.97 51.49 120.36 53.22 119.57 54.83 C 117.66 51.96 115.44 49.30 113.51 46.44 C 111.16 42.95 110.63 38.46 107.67 35.34 C 105.40 32.87 103.36 30.12 102.58 26.78 C 109.93 27.05 115.01 32.96 118.32 38.91 Z" />
</g>
<g id="#8c9f83ff">
<path fill="#8c9f83" opacity="1.00" d=" M 51.31 32.07 C 51.65 27.05 54.91 23.17 57.99 19.49 C 58.75 19.57 60.29 19.72 61.05 19.79 C 59.54 23.46 58.09 27.16 57.16 31.02 C 58.39 31.62 59.62 32.22 60.86 32.82 C 58.85 36.22 56.25 39.39 52.34 40.64 C 51.99 40.56 51.30 40.40 50.96 40.32 C 48.92 36.93 47.22 33.31 46.37 29.43 C 48.05 30.25 49.69 31.14 51.31 32.07 Z" />
</g>
<g id="#c2daaeff">
<path fill="#c2daae" opacity="1.00" d=" M 228.57 21.66 C 230.14 24.02 230.94 26.82 230.51 29.66 C 230.26 33.10 229.81 36.56 230.28 40.00 C 230.92 44.51 234.35 47.97 235.40 52.34 C 235.64 56.09 234.01 59.63 232.95 63.15 C 232.11 60.88 231.12 58.67 230.21 56.43 C 228.12 50.88 228.16 44.84 228.11 39.00 C 228.24 33.22 228.13 27.43 228.57 21.66 Z" />
</g>
<g id="#a9b7a1ff">
<path fill="#a9b7a1" opacity="1.00" d=" M 282.31 24.91 C 282.81 23.59 283.55 22.37 284.24 21.14 C 284.81 21.85 285.94 23.26 286.51 23.96 C 286.20 25.73 285.90 27.49 285.60 29.26 C 284.45 27.85 283.23 26.48 282.31 24.91 Z" />
</g>
<g id="#bbc5a7ff">
<path fill="#bbc5a7" opacity="1.00" d=" M 321.83 24.28 C 322.57 24.29 324.05 24.30 324.79 24.31 C 327.34 27.99 329.92 31.80 331.02 36.20 C 331.32 38.08 331.63 39.95 331.96 41.83 C 330.18 39.10 328.31 36.43 326.28 33.88 C 323.81 31.21 322.27 27.89 321.83 24.28 Z" />
</g>
<g id="#adb68aff">
<path fill="#adb68a" opacity="1.00" d=" M 310.95 26.05 C 316.73 26.43 320.46 31.13 324.00 35.13 C 325.78 37.20 327.57 39.46 328.03 42.23 C 322.11 37.17 313.76 33.88 310.95 26.05 Z" />
</g>
<g id="#bbcda3ff">
<path fill="#bbcda3" opacity="1.00" d=" M 235.72 44.08 C 237.01 38.75 238.83 33.54 241.54 28.75 C 241.20 38.50 245.04 48.96 240.13 58.09 C 241.66 52.85 239.00 47.97 235.72 44.08 Z" />
</g>
<g id="#aeba90ff">
<path fill="#aeba90" opacity="1.00" d=" M 165.17 29.72 C 166.62 32.82 167.65 36.10 168.62 39.38 C 169.95 44.10 172.71 48.34 173.42 53.25 C 165.21 48.59 164.41 38.13 165.17 29.72 Z" />
</g>
<g id="#93ad7cff">
<path fill="#93ad7c" opacity="1.00" d=" M 230.28 40.00 C 229.81 36.56 230.26 33.10 230.51 29.66 C 231.83 34.58 232.53 39.93 235.72 44.08 C 239.00 47.97 241.66 52.85 240.13 58.09 L 239.90 58.93 C 239.65 59.78 239.39 60.63 239.13 61.47 C 238.19 60.95 237.25 60.44 236.31 59.92 C 235.64 62.58 235.01 65.25 234.41 67.92 C 233.94 66.33 233.48 64.73 232.95 63.15 C 234.01 59.63 235.64 56.09 235.40 52.34 C 234.35 47.97 230.92 44.51 230.28 40.00 Z" />
</g>
<g id="#cddabeff">
<path fill="#cddabe" opacity="1.00" d=" M 289.13 37.16 C 292.98 34.62 297.55 33.51 301.86 32.03 C 300.61 36.21 299.71 40.63 297.38 44.39 C 294.86 48.16 289.83 47.72 286.04 49.21 C 284.23 51.25 286.09 53.98 286.56 56.19 C 290.81 51.22 296.47 47.14 303.28 47.14 C 302.77 50.16 302.33 53.30 300.76 55.99 C 296.99 59.69 291.52 59.96 286.57 60.39 C 286.29 62.32 286.01 64.25 285.73 66.17 C 285.33 64.50 284.94 62.83 284.55 61.16 C 281.14 61.10 277.72 61.01 274.32 61.22 C 271.11 58.96 268.46 56.01 266.81 52.44 C 270.04 52.06 273.36 51.12 276.62 51.74 C 279.47 52.90 281.77 55.05 284.25 56.81 C 284.26 53.99 283.99 51.17 283.38 48.41 C 280.95 48.97 278.35 50.21 275.87 49.20 C 271.33 47.41 268.09 43.55 264.97 39.97 C 266.24 39.85 267.52 39.77 268.81 39.71 C 271.37 39.79 274.05 39.69 276.47 40.66 C 279.22 42.18 281.05 44.83 283.12 47.11 C 283.68 46.44 284.24 45.76 284.81 45.08 C 285.16 46.08 285.52 47.08 285.88 48.08 C 286.42 44.40 285.78 39.69 289.13 37.16 Z" />
</g>
<g id="#9eac89ff">
<path fill="#9eac89" opacity="1.00" d=" M 332.12 31.73 C 335.92 35.48 336.97 40.90 338.12 45.89 C 338.84 49.78 339.76 53.88 338.59 57.77 C 338.33 58.06 337.82 58.64 337.57 58.93 C 338.66 50.33 333.19 42.87 332.44 34.47 C 332.36 33.79 332.20 32.42 332.12 31.73 Z" />
</g>
<g id="#dbe3d1ff">
<path fill="#dbe3d1" opacity="1.00" d=" M 326.28 33.88 C 328.31 36.43 330.18 39.10 331.96 41.83 C 331.63 39.95 331.32 38.08 331.02 36.20 C 331.38 35.77 332.08 34.90 332.44 34.47 C 333.19 42.87 338.66 50.33 337.57 58.93 C 334.40 58.83 332.05 56.66 329.94 54.56 C 330.44 53.41 330.95 52.27 331.38 51.10 C 331.66 48.69 327.76 48.11 326.23 46.64 C 326.76 46.75 327.82 46.99 328.35 47.10 C 328.30 46.09 328.25 45.08 328.19 44.07 C 328.15 43.61 328.07 42.69 328.03 42.23 C 327.57 39.46 325.78 37.20 324.00 35.13 C 324.57 34.82 325.71 34.20 326.28 33.88 M 331.34 46.37 C 330.05 47.30 331.58 49.60 332.89 48.56 C 334.15 47.61 332.66 45.31 331.34 46.37 Z" />
</g>
<g id="#dfe9ddff">
<path fill="#dfe9dd" opacity="1.00" d=" M 283.42 38.22 C 284.06 36.97 284.72 35.73 285.35 34.47 C 285.02 38.00 284.85 41.54 284.81 45.08 C 284.24 45.76 283.68 46.44 283.12 47.11 C 281.05 44.83 279.22 42.18 276.47 40.66 C 274.05 39.69 271.37 39.79 268.81 39.71 C 270.80 39.20 272.79 38.46 274.87 38.53 C 277.34 39.05 279.49 40.46 281.70 41.61 C 282.27 40.48 282.84 39.34 283.42 38.22 Z" />
</g>
<g id="#dcebd3ff">
<path fill="#dcebd3" opacity="1.00" d=" M 40.88 39.84 C 41.22 38.31 41.57 36.77 41.92 35.24 C 44.95 36.89 47.64 39.26 50.96 40.32 C 51.30 40.40 51.99 40.56 52.34 40.64 C 54.00 41.03 55.63 41.52 57.26 42.02 C 55.01 43.17 52.80 44.38 50.57 45.56 C 48.68 42.53 46.34 39.81 43.66 37.45 C 43.12 37.91 42.06 38.83 41.53 39.29 L 40.88 39.84 Z" />
</g>
<g id="#7f9072ff">
<path fill="#7f9072" opacity="1.00" d=" M 41.53 39.29 C 42.06 38.83 43.12 37.91 43.66 37.45 C 46.34 39.81 48.68 42.53 50.57 45.56 C 52.80 44.38 55.01 43.17 57.26 42.02 C 59.05 40.91 61.13 40.61 63.19 40.83 C 60.72 45.89 54.98 47.97 50.03 49.79 C 50.60 50.62 51.18 51.44 51.75 52.26 C 50.56 53.63 49.38 55.00 48.20 56.37 C 48.46 54.07 48.91 51.77 48.74 49.44 C 46.44 45.99 43.74 42.81 41.53 39.29 Z" />
</g>
<g id="#a9b191ff">
<path fill="#a9b191" opacity="1.00" d=" M 151.97 38.19 C 156.48 42.97 161.51 47.24 165.92 52.11 C 167.15 54.34 167.80 56.81 168.19 59.31 C 160.91 54.14 153.93 47.21 151.97 38.19 Z" />
</g>
<g id="#bfc6abff">
<path fill="#bfc6ab" opacity="1.00" d=" M 312.79 38.04 C 318.50 38.28 323.28 41.55 328.19 44.07 C 328.25 45.08 328.30 46.09 328.35 47.10 C 327.82 46.99 326.76 46.75 326.23 46.64 C 322.25 45.71 318.28 44.38 314.85 42.14 C 313.44 41.26 313.37 39.43 312.79 38.04 Z" />
</g>
<g id="#b9ca9bff">
<path fill="#b9ca9b" opacity="1.00" d=" M 222.37 46.16 C 222.31 44.43 223.21 42.98 224.25 41.69 C 225.47 47.32 226.74 52.96 229.17 58.22 C 231.57 65.36 231.96 72.93 233.60 80.25 C 230.64 76.45 228.06 72.33 226.22 67.87 C 223.52 61.01 221.97 53.55 222.37 46.16 Z" />
</g>
<g id="#97a575ff">
<path fill="#97a575" opacity="1.00" d=" M 344.39 46.25 C 345.04 44.17 346.95 42.94 348.58 41.67 C 349.69 48.74 346.27 55.22 342.87 61.13 C 342.39 61.27 341.42 61.57 340.94 61.72 C 342.06 56.56 342.65 51.25 344.39 46.25 Z" />
</g>
<g id="#6d865bff">
<path fill="#6d865b" opacity="1.00" d=" M 34.22 44.10 C 40.86 45.27 44.01 51.86 48.20 56.37 C 49.38 55.00 50.56 53.63 51.75 52.26 C 54.54 48.06 59.84 47.66 64.42 47.79 C 62.99 49.30 61.46 50.73 59.65 51.76 C 56.23 53.64 53.32 56.33 49.88 58.15 C 47.95 59.26 45.69 58.27 44.19 56.91 C 41.00 54.10 37.90 51.16 35.17 47.89 C 34.93 46.94 34.46 45.04 34.22 44.10 Z" />
</g>
<g id="#acb19bff">
<path fill="#acb19b" opacity="1.00" d=" M 194.03 46.14 C 195.30 45.17 196.83 46.30 198.18 46.50 C 196.05 49.67 193.49 52.54 190.54 54.97 C 188.64 54.67 186.74 54.36 184.83 54.18 C 187.86 51.47 190.69 48.48 194.03 46.14 Z" />
</g>
<g id="#a6bd93ff">
<path fill="#a6bd93" opacity="1.00" d=" M 239.88 65.47 C 243.52 57.16 250.34 50.86 256.63 44.55 C 255.06 50.06 253.44 55.64 250.63 60.67 C 248.16 65.10 243.69 67.85 239.30 70.10 C 239.56 68.56 239.71 67.02 239.88 65.47 Z" />
</g>
<g id="#adc189ff">
<path fill="#adc189" opacity="1.00" d=" M 102.77 45.82 C 111.20 45.33 116.62 52.96 119.76 59.76 C 121.72 51.95 129.11 47.23 136.67 45.97 C 135.49 50.17 133.48 54.26 130.22 57.24 C 127.18 59.90 122.86 60.22 119.69 62.65 C 119.10 65.38 119.17 68.21 118.99 70.99 C 120.27 68.41 121.19 65.39 123.72 63.73 C 127.69 61.06 131.56 58.13 136.03 56.29 C 135.35 58.63 135.00 61.35 133.06 63.04 C 130.73 64.85 127.83 65.74 125.49 67.54 C 123.23 69.28 121.14 71.24 118.92 73.03 C 118.48 72.83 117.60 72.44 117.16 72.24 C 112.81 70.22 107.92 69.02 104.33 65.66 C 101.02 62.63 98.02 58.59 98.09 53.90 C 99.55 53.62 100.91 54.16 102.12 54.91 C 108.13 58.57 114.83 62.15 117.81 68.92 C 117.87 65.88 118.09 62.85 118.32 59.82 C 112.04 56.65 105.27 52.86 102.77 45.82 Z" />
</g>
<g id="#a6b19bff">
<path fill="#a6b19b" opacity="1.00" d=" M 331.34 46.37 C 332.66 45.31 334.15 47.61 332.89 48.56 C 331.58 49.60 330.05 47.30 331.34 46.37 Z" />
</g>
<g id="#f1faf1ff">
<path fill="#f1faf1" opacity="1.00" d=" M 35.17 47.89 C 37.90 51.16 41.00 54.10 44.19 56.91 C 45.69 58.27 47.95 59.26 49.88 58.15 C 53.32 56.33 56.23 53.64 59.65 51.76 C 59.25 52.76 58.85 53.76 58.45 54.76 C 61.01 54.27 63.59 53.92 66.19 53.68 C 66.00 55.10 65.96 56.57 65.49 57.94 C 64.43 58.95 62.88 59.16 61.57 59.71 C 62.65 58.32 63.61 56.83 64.55 55.34 C 62.43 55.70 60.05 55.79 58.49 57.49 C 55.12 60.66 51.21 63.31 48.33 66.98 C 46.04 65.04 43.74 63.11 41.64 60.96 C 41.14 60.95 40.65 60.94 40.16 60.93 C 40.00 60.16 39.85 59.39 39.69 58.62 C 37.52 57.47 35.73 55.77 34.06 53.99 C 34.97 52.08 35.24 49.98 35.17 47.89 Z" />
</g>
<g id="#94a281ff">
<path fill="#94a281" opacity="1.00" d=" M 315.93 49.71 C 320.93 47.13 326.38 49.99 331.38 51.10 C 330.95 52.27 330.44 53.41 329.94 54.56 C 328.90 55.05 327.86 55.54 326.83 56.04 C 323.23 53.86 319.44 52.02 315.93 49.71 Z" />
</g>
<g id="#889579ff">
<path fill="#889579" opacity="1.00" d=" M 30.15 51.20 C 31.53 52.02 32.95 52.82 34.06 53.99 C 35.73 55.77 37.52 57.47 39.69 58.62 C 39.85 59.39 40.00 60.16 40.16 60.93 C 40.65 60.94 41.14 60.95 41.64 60.96 C 43.74 63.11 46.04 65.04 48.33 66.98 C 51.21 63.31 55.12 60.66 58.49 57.49 C 60.05 55.79 62.43 55.70 64.55 55.34 C 63.61 56.83 62.65 58.32 61.57 59.71 C 59.43 61.50 57.29 63.29 55.21 65.15 C 52.68 67.33 50.05 69.42 47.76 71.87 C 45.89 70.81 43.74 71.04 41.68 71.12 C 42.31 70.14 42.96 69.16 43.60 68.19 C 42.60 68.39 41.59 68.58 40.58 68.77 C 40.12 65.71 37.87 63.98 35.24 62.73 C 33.53 58.86 29.90 55.74 30.15 51.20 Z" />
</g>
<g id="#dadfceff">
<path fill="#dadfce" opacity="1.00" d=" M 165.92 52.11 C 169.17 54.67 170.68 58.67 173.63 61.48 C 173.49 62.68 173.38 63.89 173.31 65.10 C 171.49 63.35 168.64 62.03 168.19 59.31 C 167.80 56.81 167.15 54.34 165.92 52.11 Z" />
</g>
<g id="#bcc7a3ff">
<path fill="#bcc7a3" opacity="1.00" d=" M 348.75 56.68 C 349.64 54.59 351.48 53.16 353.16 51.71 C 354.77 57.76 351.29 63.32 348.21 68.21 C 347.11 69.94 345.47 71.20 343.85 72.40 C 344.67 66.95 346.53 61.71 348.75 56.68 Z" />
</g>
<g id="#a8b68cff">
<path fill="#a8b68c" opacity="1.00" d=" M 151.07 52.96 C 158.57 59.15 167.68 64.60 171.22 74.18 C 167.86 73.06 164.62 71.42 162.27 68.71 C 157.99 63.90 153.52 59.01 151.07 52.96 Z" />
</g>
<g id="#838b6cff">
<path fill="#838b6c" opacity="1.00" d=" M 179.65 56.76 C 181.28 55.77 182.84 54.33 184.83 54.18 C 186.74 54.36 188.64 54.67 190.54 54.97 C 187.29 60.19 182.46 64.26 177.16 67.27 C 177.27 66.95 177.50 66.29 177.62 65.97 C 178.04 64.82 178.42 63.67 178.78 62.50 C 179.28 60.63 179.46 58.69 179.65 56.76 Z" />
</g>
<g id="#c0cca6ff">
<path fill="#c0cca6" opacity="1.00" d=" M 326.83 56.04 C 327.86 55.54 328.90 55.05 329.94 54.56 C 332.05 56.66 334.40 58.83 337.57 58.93 C 337.82 58.64 338.33 58.06 338.59 57.77 C 338.88 59.24 339.17 60.70 339.47 62.17 C 339.84 62.06 340.57 61.83 340.94 61.72 C 341.42 61.57 342.39 61.27 342.87 61.13 C 341.10 63.71 340.32 66.74 341.06 69.83 C 339.10 65.32 333.35 63.11 328.83 64.70 C 327.76 65.24 326.72 65.81 325.67 66.39 L 325.23 66.64 C 325.25 65.61 325.28 64.59 325.31 63.56 C 323.21 62.05 321.31 60.28 319.69 58.27 C 327.00 56.79 332.52 62.53 339.28 63.86 C 335.67 60.44 330.87 58.83 326.83 56.04 Z" />
</g>
<g id="#f5fcf0ff">
<path fill="#f5fcf0" opacity="1.00" d=" M 286.57 60.39 C 291.52 59.96 296.99 59.69 300.76 55.99 C 302.55 57.26 304.22 58.67 305.81 60.18 L 304.87 60.02 C 297.49 57.76 291.44 64.04 287.40 69.36 C 290.78 70.39 294.21 71.22 297.67 71.96 L 298.55 72.15 C 296.39 72.98 294.32 74.02 292.35 75.23 C 290.16 76.43 288.13 78.27 285.55 78.51 C 282.76 76.07 280.34 73.23 277.43 70.92 C 280.00 70.75 282.57 70.53 285.15 70.27 C 283.25 62.12 273.33 62.61 266.78 62.79 C 269.26 62.13 271.74 61.41 274.32 61.22 C 277.72 61.01 281.14 61.10 284.55 61.16 C 284.94 62.83 285.33 64.50 285.73 66.17 C 286.01 64.25 286.29 62.32 286.57 60.39 Z" />
</g>
<g id="#b9c297ff">
<path fill="#b9c297" opacity="1.00" d=" M 174.87 77.19 C 180.24 68.63 187.81 61.24 197.11 57.10 C 195.34 60.77 193.16 64.31 190.00 66.95 C 185.32 70.87 181.08 75.40 175.72 78.42 C 175.51 78.11 175.08 77.50 174.87 77.19 Z" />
</g>
<g id="#dae5d9ff">
<path fill="#dae5d9" opacity="1.00" d=" M 230.21 56.43 C 231.12 58.67 232.11 60.88 232.95 63.15 C 233.48 64.73 233.94 66.33 234.41 67.92 C 235.01 65.25 235.64 62.58 236.31 59.92 C 237.25 60.44 238.19 60.95 239.13 61.47 C 239.39 60.63 239.65 59.78 239.90 58.93 C 239.87 61.11 239.96 63.29 239.88 65.47 C 239.71 67.02 239.56 68.56 239.30 70.10 C 238.95 71.44 238.31 72.68 237.74 73.94 C 236.80 73.15 235.86 72.35 234.93 71.56 C 234.97 74.11 235.02 76.66 235.08 79.21 C 235.66 78.04 236.24 76.88 236.83 75.73 C 237.23 77.96 237.74 80.18 238.01 82.43 C 237.61 85.55 237.01 88.64 236.23 91.69 C 234.60 89.19 233.03 86.63 231.86 83.88 C 230.52 79.22 227.66 75.25 224.88 71.35 C 225.33 70.19 225.77 69.03 226.22 67.87 C 228.06 72.33 230.64 76.45 233.60 80.25 C 231.96 72.93 231.57 65.36 229.17 58.22 C 229.43 57.77 229.95 56.87 230.21 56.43 Z" />
</g>
<g id="#ccd7c2ff">
<path fill="#ccd7c2" opacity="1.00" d=" M 287.40 69.36 C 291.44 64.04 297.49 57.76 304.87 60.02 C 303.31 64.46 300.84 68.49 297.67 71.96 C 294.21 71.22 290.78 70.39 287.40 69.36 Z" />
</g>
<g id="#9ca877ff">
<path fill="#9ca877" opacity="1.00" d=" M 149.37 61.02 C 151.32 63.87 153.07 66.96 155.68 69.28 C 158.17 71.01 161.16 71.78 163.85 73.15 C 167.25 74.76 169.98 77.42 172.76 79.89 C 172.70 78.03 172.65 76.17 172.67 74.31 L 173.19 74.96 C 173.76 75.70 174.32 76.44 174.87 77.19 C 175.08 77.50 175.51 78.11 175.72 78.42 C 175.50 80.30 175.31 82.18 175.16 84.07 C 179.73 79.97 184.14 75.52 189.64 72.65 C 193.02 70.91 196.56 69.52 200.14 68.25 C 198.39 70.46 196.31 72.43 193.83 73.81 C 189.28 76.55 184.78 79.38 180.36 82.32 C 178.63 83.57 176.72 84.76 175.61 86.64 C 174.99 89.26 175.46 91.98 175.51 94.64 L 175.04 94.34 C 174.15 92.12 174.02 89.43 172.25 87.67 C 166.48 82.72 158.28 80.72 153.94 74.13 C 151.67 70.60 148.83 67.50 145.89 64.52 C 147.26 64.64 148.62 64.78 149.99 64.90 C 149.78 63.61 149.58 62.31 149.37 61.02 M 164.85 77.89 C 167.08 81.31 169.80 84.51 173.46 86.48 C 173.22 84.86 173.58 82.97 172.50 81.60 C 170.65 79.25 167.56 78.66 164.85 77.89 Z" />
</g>
<g id="#c1d1a9ff">
<path fill="#c1d1a9" opacity="1.00" d=" M 246.32 72.32 C 250.59 68.61 253.73 63.59 258.86 60.93 C 255.00 67.15 251.75 73.72 248.05 80.03 C 244.91 85.62 239.57 89.47 236.13 94.85 C 236.52 94.95 237.30 95.16 237.69 95.27 C 238.07 95.36 238.85 95.55 239.24 95.64 C 238.08 96.60 236.90 97.55 235.74 98.50 C 235.50 98.03 235.04 97.10 234.81 96.63 C 233.42 93.60 232.36 90.38 232.06 87.06 C 231.99 86.00 231.93 84.94 231.86 83.88 C 233.03 86.63 234.60 89.19 236.23 91.69 C 237.01 88.64 237.61 85.55 238.01 82.43 C 239.57 78.24 243.23 75.37 246.32 72.32 Z" />
</g>
<g id="#6e8365ff">
<path fill="#6e8365" opacity="1.00" d=" M 20.40 64.52 C 21.29 63.64 22.17 62.75 23.04 61.86 C 25.43 63.07 27.67 64.58 29.56 66.48 C 32.32 69.23 35.94 71.07 38.07 74.43 C 38.45 74.11 38.83 73.79 39.21 73.47 L 39.85 74.06 C 42.34 76.76 46.82 76.75 48.15 80.68 C 48.17 80.21 48.22 79.26 48.24 78.79 C 48.88 78.92 50.15 79.17 50.78 79.30 C 51.94 80.01 52.97 80.92 53.98 81.83 C 52.37 81.80 50.77 81.68 49.17 81.55 C 49.58 83.25 49.99 84.95 50.39 86.65 C 53.96 85.02 57.75 83.83 61.06 81.68 C 65.25 78.04 68.23 73.17 72.50 69.56 C 73.39 69.27 74.15 69.49 74.78 70.23 C 73.25 73.82 71.19 77.24 68.77 80.30 C 65.69 82.69 61.03 84.45 61.05 89.04 C 60.10 89.40 59.14 89.76 58.18 90.10 C 55.46 91.04 52.69 91.85 49.91 92.59 C 45.16 94.43 40.33 92.64 35.73 91.32 C 36.30 90.43 36.88 89.54 37.47 88.66 C 37.79 88.22 38.41 87.34 38.72 86.90 C 38.88 86.69 39.18 86.28 39.34 86.08 C 42.50 87.29 45.69 88.49 49.08 88.87 C 48.80 87.18 48.51 85.49 48.21 83.80 C 44.16 85.28 40.67 82.55 37.28 80.77 C 37.67 80.25 38.06 79.73 38.46 79.21 C 37.10 79.24 35.74 79.26 34.39 79.28 C 34.44 78.22 34.50 77.17 34.56 76.12 C 34.09 76.37 33.17 76.86 32.70 77.11 C 30.57 71.32 24.69 68.47 20.40 64.52 Z" />
</g>
<g id="#8a9b7eff">
<path fill="#8a9b7e" opacity="1.00" d=" M 64.79 63.66 C 66.57 62.40 68.80 62.29 70.87 61.94 C 68.04 67.97 62.80 72.69 56.76 75.39 C 56.66 77.03 56.54 78.67 56.39 80.31 C 54.52 79.97 52.65 79.65 50.78 79.30 C 50.15 79.17 48.88 78.92 48.24 78.79 C 48.32 77.45 48.41 76.11 48.51 74.78 C 54.64 72.22 59.99 68.20 64.79 63.66 Z" />
</g>
<g id="#e1e5dbff">
<path fill="#e1e5db" opacity="1.00" d=" M 175.56 62.85 C 176.63 62.69 177.70 62.57 178.78 62.50 C 178.42 63.67 178.04 64.82 177.62 65.97 C 176.28 67.15 174.88 68.26 173.47 69.37 C 174.06 67.17 174.49 64.88 175.56 62.85 Z" />
</g>
<g id="#aeb89aff">
<path fill="#aeb89a" opacity="1.00" d=" M 343.98 80.57 C 348.21 74.28 349.05 65.16 356.73 61.72 C 356.70 64.63 356.82 67.72 355.29 70.33 C 353.15 74.95 348.98 78.03 345.75 81.79 C 343.95 83.67 344.33 86.35 344.62 88.69 C 348.70 84.19 351.16 78.29 356.26 74.74 C 357.72 82.43 349.23 86.23 344.80 90.95 C 342.85 90.49 340.90 90.01 338.98 89.43 C 340.00 88.97 341.02 88.51 342.04 88.05 C 342.52 87.82 343.48 87.37 343.96 87.15 C 343.10 85.37 342.52 83.38 341.19 81.89 C 337.54 79.42 333.09 78.67 329.17 76.77 C 326.23 75.55 323.91 73.33 321.67 71.15 C 322.04 70.62 322.78 69.55 323.15 69.01 C 329.98 71.60 336.00 75.81 341.99 79.92 C 341.73 77.98 341.46 76.05 341.18 74.13 C 341.66 74.34 342.62 74.77 343.10 74.99 C 343.36 76.85 343.64 78.71 343.98 80.57 Z" />
</g>
<g id="#c7dbc3ff">
<path fill="#c7dbc3" opacity="1.00" d=" M 54.55 69.20 C 57.97 66.83 61.38 64.27 65.44 63.09 L 64.79 63.66 C 59.99 68.20 54.64 72.22 48.51 74.78 C 48.41 76.11 48.32 77.45 48.24 78.79 C 48.22 79.26 48.17 80.21 48.15 80.68 C 46.82 76.75 42.34 76.76 39.85 74.06 C 41.92 74.25 43.98 74.45 46.05 74.63 C 46.48 73.94 47.33 72.56 47.76 71.87 C 50.05 69.42 52.68 67.33 55.21 65.15 L 55.83 64.63 C 55.43 66.16 55.00 67.68 54.55 69.20 Z" />
</g>
<g id="#c9d8baff">
<path fill="#c9d8ba" opacity="1.00" d=" M 265.77 62.80 L 266.78 62.79 C 273.33 62.61 283.25 62.12 285.15 70.27 C 282.57 70.53 280.00 70.75 277.43 70.92 C 280.34 73.23 282.76 76.07 285.55 78.51 C 288.13 78.27 290.16 76.43 292.35 75.23 C 292.16 77.24 291.95 79.26 291.74 81.28 C 293.78 81.33 295.82 81.39 297.85 81.61 C 299.07 81.91 300.22 82.40 301.40 82.84 C 299.71 85.60 298.51 89.06 295.56 90.74 C 291.97 91.59 288.20 91.37 284.66 92.54 C 284.71 88.85 284.75 85.15 284.82 81.46 C 282.02 81.33 279.06 81.75 276.42 80.65 C 273.51 78.54 271.14 75.15 271.13 71.44 C 271.36 67.69 267.75 65.50 265.77 62.80 M 286.99 80.86 C 286.50 83.59 286.24 86.35 286.16 89.11 C 287.78 87.18 289.31 85.16 290.79 83.11 C 289.52 82.36 288.25 81.61 286.99 80.86 Z" />
</g>
<g id="#96ab7aff">
<path fill="#96ab7a" opacity="1.00" d=" M 220.03 64.90 C 221.73 66.98 223.33 69.15 224.88 71.35 C 227.66 75.25 230.52 79.22 231.86 83.88 C 231.93 84.94 231.99 86.00 232.06 87.06 C 224.01 82.84 220.73 73.43 220.03 64.90 Z" />
</g>
<g id="#a0b07eff">
<path fill="#a0b07e" opacity="1.00" d=" M 325.67 66.39 C 326.72 65.81 327.76 65.24 328.83 64.70 C 334.10 67.02 338.71 70.52 343.67 73.39 C 343.53 73.79 343.24 74.59 343.10 74.99 C 342.62 74.77 341.66 74.34 341.18 74.13 C 335.90 71.80 330.19 70.14 325.67 66.39 Z" />
</g>
<g id="#b8cc94ff">
<path fill="#b8cc94" opacity="1.00" d=" M 97.29 68.69 C 98.75 68.75 100.29 68.66 101.65 69.33 C 106.93 71.72 111.74 75.02 116.46 78.36 C 116.70 76.32 116.94 74.28 117.16 72.24 C 117.60 72.44 118.48 72.83 118.92 73.03 C 118.81 75.70 118.77 78.38 118.81 81.05 C 120.48 78.37 121.89 75.43 124.20 73.21 C 127.10 70.61 130.78 69.11 134.44 67.89 C 133.95 70.30 133.61 72.96 131.74 74.76 C 127.78 78.84 122.49 81.21 118.07 84.73 C 117.20 83.65 116.37 82.54 115.37 81.58 C 113.80 81.39 112.23 81.62 110.67 81.76 C 106.90 79.18 102.84 77.09 98.80 74.99 C 99.11 76.74 99.42 78.48 99.81 80.21 C 97.47 76.83 97.64 72.61 97.29 68.69 Z" />
</g>
<g id="#b0bcaeff">
<path fill="#b0bcae" opacity="1.00" d=" M 234.93 71.56 C 235.86 72.35 236.80 73.15 237.74 73.94 C 237.51 74.39 237.05 75.28 236.83 75.73 C 236.24 76.88 235.66 78.04 235.08 79.21 C 235.02 76.66 234.97 74.11 234.93 71.56 Z" />
</g>
<g id="#afbc9cff">
<path fill="#afbc9c" opacity="1.00" d=" M 298.55 72.15 C 299.93 71.93 301.33 71.89 302.73 71.82 C 301.24 75.16 299.65 78.44 297.85 81.61 C 295.82 81.39 293.78 81.33 291.74 81.28 C 291.95 79.26 292.16 77.24 292.35 75.23 C 294.32 74.02 296.39 72.98 298.55 72.15 Z" />
</g>
<g id="#c9d0c3ff">
<path fill="#c9d0c3" opacity="1.00" d=" M 13.78 74.70 C 15.25 74.31 16.72 73.92 18.18 73.53 C 18.33 73.89 18.61 74.61 18.75 74.96 C 17.76 75.61 16.77 76.26 15.77 76.91 C 20.15 81.09 25.78 83.39 30.92 86.42 C 30.44 86.91 29.48 87.89 29.00 88.38 C 23.49 84.41 15.98 81.76 13.78 74.70 Z" />
</g>
<g id="#c8c9c7ff">
<path fill="#c8c9c7" opacity="1.00" d=" M 180.36 82.32 C 184.78 79.38 189.28 76.55 193.83 73.81 C 193.60 75.68 193.38 77.56 193.16 79.44 L 192.38 79.11 C 192.03 78.97 191.33 78.68 190.98 78.54 C 185.41 81.24 180.12 85.43 177.33 91.07 C 175.60 97.29 176.98 103.74 177.92 109.97 C 178.40 111.58 177.39 114.96 175.58 112.60 C 174.95 108.47 175.45 104.27 175.56 100.12 C 175.60 98.29 175.58 96.46 175.51 94.64 C 175.46 91.98 174.99 89.26 175.61 86.64 C 176.72 84.76 178.63 83.57 180.36 82.32 Z" />
</g>
<g id="#869279ff">
<path fill="#869279" opacity="1.00" d=" M 15.77 76.91 C 16.77 76.26 17.76 75.61 18.75 74.96 C 21.50 75.62 23.69 77.41 25.64 79.38 C 27.58 81.43 30.45 81.90 32.87 83.13 C 34.92 84.23 36.82 85.57 38.72 86.90 C 38.41 87.34 37.79 88.22 37.47 88.66 C 35.93 90.37 34.15 88.45 32.59 87.81 C 31.39 88.00 30.20 88.19 29.00 88.38 C 29.48 87.89 30.44 86.91 30.92 86.42 C 25.78 83.39 20.15 81.09 15.77 76.91 Z" />
</g>
<g id="#a3b580ff">
<path fill="#a3b580" opacity="1.00" d=" M 98.80 74.99 C 102.84 77.09 106.90 79.18 110.67 81.76 C 112.78 83.94 113.99 86.80 115.29 89.50 C 113.16 89.82 111.04 90.14 108.89 90.34 C 104.11 89.15 101.53 84.43 99.81 80.21 C 99.42 78.48 99.11 76.74 98.80 74.99 Z" />
</g>
<g id="#eef7eeff">
<path fill="#eef7ee" opacity="1.00" d=" M 32.70 77.11 C 33.17 76.86 34.09 76.37 34.56 76.12 C 34.50 77.17 34.44 78.22 34.39 79.28 C 35.74 79.26 37.10 79.24 38.46 79.21 C 38.06 79.73 37.67 80.25 37.28 80.77 C 40.67 82.55 44.16 85.28 48.21 83.80 C 48.51 85.49 48.80 87.18 49.08 88.87 C 45.69 88.49 42.50 87.29 39.34 86.08 C 39.18 86.28 38.88 86.69 38.72 86.90 C 36.82 85.57 34.92 84.23 32.87 83.13 C 33.66 82.67 34.46 82.22 35.25 81.77 C 34.36 80.24 33.51 78.68 32.70 77.11 Z" />
</g>
<g id="#bacb93ff">
<path fill="#bacb93" opacity="1.00" d=" M 119.76 88.45 C 124.01 82.19 130.83 77.99 138.35 77.06 C 137.73 79.37 137.49 81.98 135.83 83.84 C 131.46 88.39 125.30 90.49 119.15 91.14 C 119.03 94.21 119.07 97.29 119.30 100.36 C 121.76 98.50 123.90 96.27 126.11 94.13 C 128.67 91.62 132.08 90.30 135.30 88.88 C 137.30 91.79 134.45 94.56 132.45 96.48 C 129.13 99.68 124.17 99.94 120.55 102.61 C 120.14 105.69 120.83 108.77 121.24 111.82 C 122.31 110.91 123.39 109.99 124.47 109.09 C 124.39 109.65 124.22 110.77 124.14 111.34 C 123.80 113.49 123.37 115.64 122.98 117.79 C 122.70 119.32 122.42 120.86 122.20 122.41 C 121.38 120.04 120.58 117.66 119.73 115.31 C 115.19 114.08 110.33 113.34 106.38 110.64 C 104.49 109.39 104.78 106.88 104.45 104.93 C 110.22 105.47 115.63 107.91 119.83 111.91 C 119.33 108.72 118.84 105.53 118.32 102.35 C 115.07 102.33 111.76 103.00 108.55 102.31 C 103.97 100.35 100.13 97.04 96.47 93.74 C 97.84 93.01 99.18 91.83 100.86 92.14 C 107.28 92.47 112.64 96.31 118.23 99.02 C 117.72 96.91 117.81 94.43 116.28 92.73 C 113.91 91.68 111.36 91.12 108.89 90.34 C 111.04 90.14 113.16 89.82 115.29 89.50 C 115.64 89.45 116.34 89.34 116.69 89.29 C 116.93 88.31 117.18 87.33 117.43 86.35 C 118.21 87.05 118.98 87.75 119.76 88.45 Z" />
</g>
<g id="#e8ecddff">
<path fill="#e8ecdd" opacity="1.00" d=" M 164.85 77.89 C 167.56 78.66 170.65 79.25 172.50 81.60 C 173.58 82.97 173.22 84.86 173.46 86.48 C 169.80 84.51 167.08 81.31 164.85 77.89 Z" />
</g>
<g id="#a3ab8aff">
<path fill="#a3ab8a" opacity="1.00" d=" M 177.33 91.07 C 180.12 85.43 185.41 81.24 190.98 78.54 C 191.33 78.68 192.03 78.97 192.38 79.11 C 189.02 84.85 183.39 88.63 177.33 91.07 Z" />
</g>
<g id="#aab98aff">
<path fill="#aab98a" opacity="1.00" d=" M 205.93 78.22 C 211.30 83.94 219.86 84.17 225.49 89.51 C 228.22 91.46 229.79 94.47 230.99 97.52 C 230.48 98.05 229.96 98.59 229.45 99.13 C 226.66 98.37 223.72 97.51 221.80 95.19 C 218.93 91.97 215.41 89.48 211.95 86.95 C 208.98 84.82 207.44 81.42 205.93 78.22 Z" />
</g>
<g id="#b1ba92ff">
<path fill="#b1ba92" opacity="1.00" d=" M 153.03 78.89 C 157.04 81.16 160.62 84.11 164.73 86.25 C 168.73 88.23 170.89 92.57 175.04 94.34 L 175.51 94.64 C 175.58 96.46 175.60 98.29 175.56 100.12 C 174.39 97.21 172.53 94.48 169.38 93.53 C 162.29 90.94 156.68 85.39 153.03 78.89 Z" />
</g>
<g id="#a8b599ff">
<path fill="#a8b599" opacity="1.00" d=" M 70.25 85.23 C 73.01 82.80 76.30 81.10 79.68 79.74 C 79.70 82.59 78.68 85.25 77.19 87.64 C 75.59 86.88 74.00 86.09 72.41 85.30 C 69.71 89.18 66.67 93.29 61.90 94.67 C 63.43 90.58 67.12 88.02 70.25 85.23 Z" />
</g>
<g id="#f3ffefff">
<path fill="#f3ffef" opacity="1.00" d=" M 49.17 81.55 C 50.77 81.68 52.37 81.80 53.98 81.83 C 56.34 81.77 58.70 81.40 61.06 81.68 C 57.75 83.83 53.96 85.02 50.39 86.65 C 49.99 84.95 49.58 83.25 49.17 81.55 Z" />
</g>
<g id="#bfd0abff">
<path fill="#bfd0ab" opacity="1.00" d=" M 244.02 87.92 C 247.86 82.94 254.04 80.40 260.29 80.87 C 255.38 86.51 250.10 92.15 243.34 95.57 C 243.98 93.02 244.69 90.48 245.27 87.91 C 244.95 87.91 244.33 87.92 244.02 87.92 Z" />
</g>
<g id="#f9fdf3ff">
<path fill="#f9fdf3" opacity="1.00" d=" M 286.99 80.86 C 288.25 81.61 289.52 82.36 290.79 83.11 C 289.31 85.16 287.78 87.18 286.16 89.11 C 286.24 86.35 286.50 83.59 286.99 80.86 Z" />
</g>
<g id="#b2bd95ff">
<path fill="#b2bd95" opacity="1.00" d=" M 326.59 81.16 C 331.50 80.95 336.12 82.87 340.02 85.72 C 338.46 85.50 336.91 85.29 335.36 85.08 C 335.46 86.14 335.55 87.20 335.66 88.26 C 332.55 87.00 329.57 85.34 327.08 83.07 C 326.96 82.59 326.72 81.63 326.59 81.16 Z" />
</g>
<g id="#cbd6b6ff">
<path fill="#cbd6b6" opacity="1.00" d=" M 272.13 83.68 C 275.46 82.60 279.39 82.35 282.28 84.68 C 283.62 86.19 283.91 88.31 284.62 90.14 C 282.55 90.79 280.36 91.82 278.19 90.94 C 274.65 90.27 273.53 86.47 272.13 83.68 Z" />
</g>
<g id="#f5fbf5ff">
<path fill="#f5fbf5" opacity="1.00" d=" M 327.08 83.07 C 329.57 85.34 332.55 87.00 335.66 88.26 C 336.75 88.68 337.86 89.07 338.98 89.43 C 340.90 90.01 342.85 90.49 344.80 90.95 C 346.30 99.37 344.80 107.87 343.44 116.19 C 342.63 120.32 341.79 125.16 337.71 127.36 C 338.51 121.75 341.23 116.57 341.46 110.86 C 341.87 108.02 341.41 104.83 343.07 102.33 C 343.37 101.86 343.97 100.94 344.28 100.48 C 340.57 96.60 337.09 92.40 332.73 89.23 C 331.30 88.05 329.36 88.38 327.66 88.29 L 326.95 88.29 C 327.36 87.60 327.77 86.91 328.19 86.22 C 327.81 85.17 327.43 84.12 327.08 83.07 Z" />
</g>
<g id="#859a7bff">
<path fill="#859a7b" opacity="1.00" d=" M 61.90 94.67 C 66.67 93.29 69.71 89.18 72.41 85.30 C 74.00 86.09 75.59 86.88 77.19 87.64 L 76.32 88.04 C 73.29 89.21 70.82 91.35 68.87 93.92 C 66.27 97.29 62.48 99.39 59.41 102.28 C 57.77 103.83 55.96 105.24 53.92 106.22 C 51.99 106.95 50.03 107.57 48.12 108.36 C 44.34 106.94 40.78 105.06 37.39 102.87 C 33.06 101.07 28.16 100.59 24.29 97.73 C 21.15 95.28 17.18 92.62 17.07 88.18 C 19.83 88.40 22.39 89.46 24.78 90.80 C 28.77 93.01 33.27 94.27 36.99 96.99 C 40.44 99.38 44.13 101.74 48.34 102.50 C 50.47 103.04 52.28 101.54 54.06 100.63 C 54.23 100.91 54.57 101.46 54.75 101.73 C 54.80 100.53 54.86 99.33 54.93 98.14 C 55.47 98.55 56.01 98.97 56.54 99.40 C 56.94 96.54 59.48 95.46 61.90 94.67 Z" />
</g>
<g id="#95a377ff">
<path fill="#95a377" opacity="1.00" d=" M 335.36 85.08 C 336.91 85.29 338.46 85.50 340.02 85.72 C 340.69 86.50 341.36 87.27 342.04 88.05 C 341.02 88.51 340.00 88.97 338.98 89.43 C 337.86 89.07 336.75 88.68 335.66 88.26 C 335.55 87.20 335.46 86.14 335.36 85.08 Z" />
</g>
<g id="#bdccb2ff">
<path fill="#bdccb2" opacity="1.00" d=" M 68.87 93.92 C 70.82 91.35 73.29 89.21 76.32 88.04 C 70.24 94.77 65.16 103.60 55.80 106.06 C 56.24 108.55 56.67 111.04 57.05 113.53 C 58.61 112.12 60.20 110.75 61.81 109.40 C 62.25 109.73 63.12 110.40 63.56 110.73 C 61.57 113.63 58.81 115.85 56.15 118.11 C 55.98 117.85 55.64 117.32 55.47 117.06 C 54.81 113.47 54.51 109.82 53.92 106.22 C 55.96 105.24 57.77 103.83 59.41 102.28 C 62.48 99.39 66.27 97.29 68.87 93.92 Z" />
</g>
<g id="#90a17dff">
<path fill="#90a17d" opacity="1.00" d=" M 244.02 87.92 C 244.33 87.92 244.95 87.91 245.27 87.91 C 244.69 90.48 243.98 93.02 243.34 95.57 C 241.97 95.62 240.60 95.76 239.24 95.64 C 238.85 95.55 238.07 95.36 237.69 95.27 C 239.66 92.71 241.54 90.03 244.02 87.92 Z" />
</g>
<g id="#bbc999ff">
<path fill="#bbc999" opacity="1.00" d=" M 327.66 88.29 C 329.36 88.38 331.30 88.05 332.73 89.23 C 337.09 92.40 340.57 96.60 344.28 100.48 C 343.97 100.94 343.37 101.86 343.07 102.33 C 337.24 98.51 331.35 94.36 327.66 88.29 Z" />
</g>
<g id="#afbea6ff">
<path fill="#afbea6" opacity="1.00" d=" M 49.91 92.59 C 52.69 91.85 55.46 91.04 58.18 90.10 C 56.62 91.80 54.55 92.81 52.37 93.48 C 52.90 95.87 53.47 98.25 54.06 100.63 C 52.28 101.54 50.47 103.04 48.34 102.50 C 44.13 101.74 40.44 99.38 36.99 96.99 C 41.71 97.49 46.12 99.40 50.78 100.20 C 50.56 97.66 50.25 95.12 49.91 92.59 Z" />
</g>
<g id="#b3c1aeff">
<path fill="#b3c1ae" opacity="1.00" d=" M 72.91 99.82 C 76.52 97.25 79.30 93.41 83.67 92.04 C 83.70 95.35 82.40 98.41 80.58 101.11 C 80.42 99.18 80.26 97.26 80.10 95.33 C 78.03 97.49 76.03 99.71 74.08 101.98 C 71.41 105.12 68.34 107.91 65.01 110.35 C 65.04 109.93 65.08 109.08 65.11 108.66 C 65.96 104.52 69.80 102.19 72.91 99.82 Z" />
</g>
<g id="#c6cfb9ff">
<path fill="#c6cfb9" opacity="1.00" d=" M 272.72 93.86 C 277.02 93.18 280.85 95.30 284.83 96.42 C 288.62 95.43 292.20 93.37 296.27 93.78 C 295.39 95.55 294.96 97.96 292.91 98.78 C 290.37 99.77 287.57 99.77 284.90 100.14 C 283.47 105.85 283.63 111.79 282.61 117.56 C 282.04 117.64 280.90 117.81 280.33 117.89 C 281.65 112.02 283.06 106.14 283.42 100.12 C 279.43 98.90 274.69 98.05 272.72 93.86 Z" />
</g>
<g id="#a1af89ff">
<path fill="#a1af89" opacity="1.00" d=" M 74.08 101.98 C 76.03 99.71 78.03 97.49 80.10 95.33 C 80.26 97.26 80.42 99.18 80.58 101.11 C 80.11 101.67 79.18 102.79 78.71 103.34 C 77.17 102.89 75.63 102.43 74.08 101.98 Z" />
</g>
<g id="#e1e7e0ff">
<path fill="#e1e7e0" opacity="1.00" d=" M 230.99 97.52 C 231.62 97.91 232.25 98.31 232.88 98.70 C 233.36 98.18 234.32 97.15 234.81 96.63 C 235.04 97.10 235.50 98.03 235.74 98.50 C 235.46 105.12 235.25 111.75 234.53 118.34 C 232.77 114.84 233.44 110.84 232.87 107.10 C 232.50 104.17 230.93 101.61 229.45 99.13 C 229.96 98.59 230.48 98.05 230.99 97.52 Z" />
</g>
<g id="#aebe84ff">
<path fill="#aebe84" opacity="1.00" d=" M 124.47 109.09 C 125.59 103.08 132.25 99.65 138.01 100.29 C 137.05 106.88 130.05 110.28 124.14 111.34 C 124.22 110.77 124.39 109.65 124.47 109.09 Z" />
</g>
<g id="#7e9172ff">
<path fill="#7e9172" opacity="1.00" d=" M 74.08 101.98 C 75.63 102.43 77.17 102.89 78.71 103.34 L 79.52 103.58 C 78.87 103.88 77.57 104.46 76.92 104.75 C 73.49 106.16 70.40 108.38 68.18 111.38 C 66.85 113.02 65.86 114.91 64.42 116.47 C 62.82 117.81 60.66 118.18 58.76 118.94 C 58.35 121.09 57.95 123.24 57.46 125.38 C 57.02 123.22 56.62 121.05 56.19 118.89 C 54.48 119.99 52.76 121.09 50.94 122.01 C 50.65 122.16 50.07 122.45 49.78 122.60 C 50.13 121.47 50.48 120.34 50.83 119.22 C 49.65 119.57 48.46 119.92 47.27 120.27 C 47.75 119.56 48.23 118.86 48.71 118.16 C 45.90 117.16 43.20 115.86 40.73 114.19 C 44.88 114.86 49.29 116.52 53.31 114.37 C 54.05 115.25 54.79 116.13 55.47 117.06 C 55.64 117.32 55.98 117.85 56.15 118.11 C 58.81 115.85 61.57 113.63 63.56 110.73 C 63.96 110.02 64.75 108.61 65.14 107.90 L 65.11 108.66 C 65.08 109.08 65.04 109.93 65.01 110.35 C 68.34 107.91 71.41 105.12 74.08 101.98 Z" />
</g>
<g id="#a2ac8fff">
<path fill="#a2ac8f" opacity="1.00" d=" M 81.41 114.10 C 85.96 111.49 88.01 106.02 92.94 103.96 C 93.04 105.45 93.65 107.01 93.20 108.49 C 90.99 112.78 87.35 116.12 83.57 119.02 C 83.85 117.76 84.16 116.51 84.48 115.27 C 83.45 114.88 82.43 114.49 81.41 114.10 Z" />
</g>
<g id="#adbc9fff">
<path fill="#adbc9f" opacity="1.00" d=" M 15.90 105.22 C 21.77 104.71 26.93 107.55 32.31 109.30 C 38.83 110.41 45.28 113.40 52.01 112.04 C 52.34 112.62 52.99 113.79 53.31 114.37 C 49.29 116.52 44.88 114.86 40.73 114.19 C 43.20 115.86 45.90 117.16 48.71 118.16 C 48.23 118.86 47.75 119.56 47.27 120.27 C 48.46 119.92 49.65 119.57 50.83 119.22 C 50.48 120.34 50.13 121.47 49.78 122.60 C 50.07 122.45 50.65 122.16 50.94 122.01 C 50.26 122.52 49.58 123.04 48.90 123.56 C 45.02 119.63 39.72 117.80 34.88 115.41 C 28.22 112.84 20.15 111.62 15.90 105.22 Z" />
</g>
<g id="#c5d1beff">
<path fill="#c5d1be" opacity="1.00" d=" M 68.18 111.38 C 70.40 108.38 73.49 106.16 76.92 104.75 C 75.87 108.76 72.39 111.56 68.18 111.38 Z" />
</g>
<g id="#92a582ff">
<path fill="#92a582" opacity="1.00" d=" M 15.87 113.90 C 20.44 114.76 23.59 118.42 27.67 120.31 C 32.08 122.56 36.40 125.08 41.07 126.73 C 43.28 127.54 45.88 127.02 47.89 128.33 C 49.00 129.13 50.07 129.98 51.18 130.79 C 48.71 130.92 46.28 131.32 43.83 131.61 C 38.84 132.65 34.51 129.76 30.60 127.14 C 24.66 124.36 17.70 120.71 15.87 113.90 Z" />
</g>
<g id="#728b6bff">
<path fill="#728b6b" opacity="1.00" d=" M 81.41 114.10 C 82.43 114.49 83.45 114.88 84.48 115.27 C 84.16 116.51 83.85 117.76 83.57 119.02 C 83.40 119.75 83.28 120.47 83.16 121.21 C 81.57 121.65 79.98 122.10 78.39 122.54 C 78.38 123.46 78.37 124.38 78.36 125.30 C 76.18 125.52 74.00 125.79 71.83 126.15 C 73.29 126.62 74.75 127.10 76.21 127.58 C 74.68 128.08 73.15 128.54 71.61 128.99 C 71.66 129.88 71.71 130.78 71.75 131.67 C 70.05 131.90 68.34 132.15 66.63 132.37 C 66.61 133.09 66.58 133.81 66.56 134.54 C 63.91 134.93 61.31 135.70 58.63 135.76 C 55.45 134.65 52.00 132.58 48.70 134.58 C 48.30 134.74 47.48 135.06 47.07 135.23 C 45.83 134.63 44.58 134.05 43.32 133.48 C 43.45 133.01 43.70 132.08 43.83 131.61 C 46.28 131.32 48.71 130.92 51.18 130.79 C 54.50 131.94 58.35 132.80 61.59 130.87 C 64.94 128.86 68.86 127.28 71.13 123.93 C 71.53 122.46 71.85 120.98 72.24 119.51 C 72.65 120.51 73.05 121.52 73.44 122.53 C 74.90 120.65 76.42 118.74 78.43 117.42 C 78.78 117.64 79.47 118.07 79.82 118.28 C 80.33 116.88 80.85 115.48 81.41 114.10 Z" />
</g>
<g id="#9eac8fff">
<path fill="#9eac8f" opacity="1.00" d=" M 90.54 123.52 C 92.57 120.94 94.16 117.62 97.64 116.76 C 97.57 119.56 97.92 122.67 96.05 125.03 C 93.63 128.48 91.68 132.49 88.21 135.02 C 85.94 136.28 83.59 137.35 81.24 138.45 C 81.47 140.08 81.70 141.70 81.94 143.32 C 81.14 143.20 79.53 142.96 78.73 142.83 C 78.22 142.78 77.20 142.67 76.69 142.61 C 77.39 141.32 78.02 140.00 78.67 138.69 C 74.82 142.18 70.36 145.01 65.26 146.23 C 65.49 143.99 65.86 141.77 66.30 139.56 C 67.75 139.51 69.20 139.45 70.64 139.38 C 70.84 140.64 71.05 141.90 71.26 143.16 C 72.37 141.10 72.81 138.35 75.06 137.17 C 77.60 135.74 80.06 134.10 81.86 131.75 C 84.36 128.59 88.11 126.74 90.54 123.52 Z" />
</g>
<g id="#cccfc8ff">
<path fill="#cccfc8" opacity="1.00" d=" M 122.98 117.79 C 124.35 121.84 125.74 126.07 125.06 130.40 C 122.48 128.57 121.55 125.43 122.20 122.41 C 122.42 120.86 122.70 119.32 122.98 117.79 Z" />
</g>
<g id="#a5b6a3ff">
<path fill="#a5b6a3" opacity="1.00" d=" M 57.46 125.38 C 57.95 123.24 58.35 121.09 58.76 118.94 C 59.09 121.80 59.46 124.65 59.80 127.50 C 62.00 126.49 64.27 125.64 66.56 124.89 C 67.76 123.24 69.57 121.59 71.13 123.93 C 68.86 127.28 64.94 128.86 61.59 130.87 C 58.35 132.80 54.50 131.94 51.18 130.79 C 50.07 129.98 49.00 129.13 47.89 128.33 C 50.84 128.37 53.93 128.93 56.77 127.83 C 56.94 127.21 57.29 125.99 57.46 125.38 Z" />
</g>
<g id="#acb5a0ff">
<path fill="#acb5a0" opacity="1.00" d=" M 306.76 124.15 C 310.55 122.97 314.94 123.07 317.67 126.34 C 318.47 125.58 319.26 124.82 320.07 124.07 C 320.66 126.17 321.24 128.28 321.85 130.38 C 319.31 130.52 316.77 130.76 314.25 131.00 C 314.38 129.91 314.52 128.83 314.67 127.75 C 311.75 127.30 308.87 126.32 306.76 124.15 Z" />
</g>
<g id="#9da68bff">
<path fill="#9da68b" opacity="1.00" d=" M 283.96 123.79 C 285.93 126.05 288.06 128.28 289.21 131.09 C 290.06 133.65 288.87 136.25 288.16 138.68 C 286.63 137.25 284.85 135.99 283.82 134.12 C 282.57 130.80 283.41 127.17 283.96 123.79 Z" />
</g>
<g id="#a4af6bff">
<path fill="#a4af6b" opacity="1.00" d=" M 188.10 125.07 C 193.67 127.49 200.81 129.23 203.30 135.45 C 200.94 135.37 198.56 135.22 196.23 135.66 C 192.74 132.79 190.05 129.13 188.10 125.07 Z" />
</g>
<g id="#d8e2b4ff">
<path fill="#d8e2b4" opacity="1.00" d=" M 227.97 126.03 C 233.22 127.47 239.13 128.82 242.71 133.27 C 245.36 137.33 246.55 142.13 248.05 146.69 C 246.32 145.61 244.61 144.51 243.01 143.26 C 237.58 137.94 231.08 133.21 227.97 126.03 Z" />
</g>
<g id="#c6d2bbff">
<path fill="#c6d2bb" opacity="1.00" d=" M 17.76 128.64 C 20.79 128.98 23.91 129.76 25.84 132.32 C 24.26 131.94 22.67 131.64 21.08 131.32 C 21.28 132.22 21.49 133.12 21.69 134.02 C 29.68 137.62 37.24 142.13 45.41 145.35 C 45.10 146.12 44.78 146.90 44.47 147.68 C 46.33 147.30 48.18 146.93 50.06 146.63 C 49.78 147.03 49.24 147.85 48.97 148.26 C 48.22 148.69 47.47 149.12 46.70 149.53 C 37.81 144.77 28.31 140.95 20.27 134.71 C 18.70 133.10 18.49 130.68 17.76 128.64 Z" />
</g>
<g id="#b1ba9aff">
<path fill="#b1ba9a" opacity="1.00" d=" M 325.01 131.08 C 326.14 130.17 327.18 128.11 328.92 129.11 C 328.94 131.53 327.36 133.49 326.55 135.67 C 327.50 136.86 328.79 137.70 329.99 138.61 C 329.70 139.82 329.42 141.03 329.14 142.25 C 325.85 142.63 322.52 142.66 319.26 142.06 C 319.30 141.30 319.37 139.78 319.41 139.02 C 321.89 138.76 324.40 138.64 326.90 138.65 C 326.57 137.76 326.24 136.86 325.92 135.97 C 323.33 135.79 320.74 135.66 318.16 135.51 C 318.22 135.06 318.34 134.15 318.39 133.70 C 320.69 133.16 323.42 133.10 325.01 131.08 M 319.80 134.22 C 319.34 135.63 321.74 136.15 322.21 134.89 C 322.65 133.47 320.26 132.96 319.80 134.22 Z" />
</g>
<g id="#77906cff">
<path fill="#77906c" opacity="1.00" d=" M 21.08 131.32 C 22.67 131.64 24.26 131.94 25.84 132.32 C 27.81 133.23 29.50 134.61 31.24 135.87 C 35.59 139.19 40.75 141.14 45.96 142.62 C 49.19 143.74 52.54 144.63 56.00 144.48 C 55.77 143.00 55.54 141.52 55.31 140.04 C 56.85 141.40 58.41 142.73 60.00 144.03 C 60.77 142.94 61.54 141.85 62.30 140.76 C 62.94 142.70 63.58 144.63 64.19 146.58 C 64.46 146.49 64.99 146.32 65.26 146.23 C 70.36 145.01 74.82 142.18 78.67 138.69 C 78.02 140.00 77.39 141.32 76.69 142.61 C 73.15 145.68 68.87 148.24 66.54 152.42 C 66.15 154.85 66.77 157.29 67.04 159.70 C 68.27 159.66 69.50 159.62 70.73 159.58 C 71.31 157.80 71.89 156.02 72.45 154.24 C 72.77 155.22 73.10 156.19 73.45 157.16 C 73.81 157.41 74.51 157.92 74.87 158.18 C 75.32 158.46 76.23 159.03 76.68 159.32 C 74.99 160.58 73.31 161.87 71.64 163.16 C 72.71 163.61 73.78 164.06 74.86 164.51 C 72.51 164.82 70.15 165.12 67.84 165.65 C 67.28 166.46 66.75 167.30 66.25 168.15 L 65.76 167.52 C 64.60 166.02 63.43 164.53 62.24 163.06 C 65.39 160.06 64.48 155.80 64.09 151.95 C 59.41 149.62 54.26 147.90 48.97 148.26 C 49.24 147.85 49.78 147.03 50.06 146.63 C 48.18 146.93 46.33 147.30 44.47 147.68 C 44.78 146.90 45.10 146.12 45.41 145.35 C 37.24 142.13 29.68 137.62 21.69 134.02 C 21.49 133.12 21.28 132.22 21.08 131.32 Z" />
</g>
<g id="#b3d3c1ff">
<path fill="#b3d3c1" opacity="1.00" d=" M 150.73 132.74 C 154.57 130.75 158.96 132.53 162.58 134.16 C 161.11 134.75 159.64 135.34 158.16 135.92 C 158.15 138.15 158.14 140.38 158.14 142.62 C 160.41 143.58 162.67 144.55 164.93 145.52 C 165.21 143.96 165.51 142.39 165.74 140.82 C 167.74 144.60 166.35 148.96 162.99 151.41 C 159.79 152.10 156.58 152.77 153.33 153.11 C 149.73 153.00 145.38 151.14 144.62 147.24 C 143.56 141.76 146.52 136.11 150.73 132.74 Z" />
</g>
<g id="#d7e0c2ff">
<path fill="#d7e0c2" opacity="1.00" d=" M 248.27 131.83 C 253.56 136.94 257.61 144.39 255.78 151.92 C 254.92 149.45 254.05 147.00 253.19 144.54 C 252.40 145.93 251.62 147.33 250.84 148.73 C 251.55 142.86 247.56 137.73 248.27 131.83 Z" />
</g>
<g id="#98a188ff">
<path fill="#98a188" opacity="1.00" d=" M 288.51 139.49 C 290.98 136.51 293.01 132.89 296.92 131.60 C 297.29 136.61 295.21 142.31 289.78 143.50 C 284.96 143.47 279.63 140.19 279.50 134.91 C 283.13 135.18 285.26 138.75 288.51 139.49 Z" />
<path fill="#98a188" opacity="1.00" d=" M 66.25 168.15 C 66.75 167.30 67.28 166.46 67.84 165.65 C 67.84 170.48 67.85 175.32 67.76 180.15 C 67.32 184.92 67.99 190.12 65.27 194.35 C 63.90 188.53 65.52 182.66 65.64 176.81 C 65.81 173.92 65.57 170.98 66.25 168.15 Z" />
</g>
<g id="#bbc8b7ff">
<path fill="#bbc8b7" opacity="1.00" d=" M 48.70 134.58 C 52.00 132.58 55.45 134.65 58.63 135.76 C 57.41 136.59 56.21 137.47 54.86 138.08 C 52.48 137.61 50.61 135.95 48.70 134.58 Z" />
</g>
<g id="#989e74ff">
<path fill="#989e74" opacity="1.00" d=" M 208.16 144.25 C 210.03 139.56 212.80 135.03 217.50 132.74 C 217.22 137.40 214.55 141.24 211.86 144.85 C 210.46 146.46 210.68 148.64 210.65 150.62 C 210.36 151.35 210.08 152.08 209.82 152.82 C 205.15 152.94 200.63 154.52 195.96 154.36 C 194.57 154.41 193.68 153.18 192.65 152.46 C 198.19 151.33 203.89 151.58 209.41 150.31 C 207.96 145.98 206.04 141.65 202.30 138.79 C 202.76 138.53 203.68 137.99 204.13 137.73 C 205.56 139.84 206.87 142.04 208.16 144.25 Z" />
</g>
<g id="#bdcab3ff">
<path fill="#bdcab3" opacity="1.00" d=" M 32.07 134.07 C 35.60 136.35 39.58 137.63 43.60 138.69 C 45.53 138.95 45.49 141.18 45.96 142.62 C 40.75 141.14 35.59 139.19 31.24 135.87 C 31.45 135.42 31.86 134.52 32.07 134.07 Z" />
</g>
<g id="#cbe3d6ff">
<path fill="#cbe3d6" opacity="1.00" d=" M 162.58 134.16 C 163.72 136.33 165.06 138.44 165.74 140.82 C 165.51 142.39 165.21 143.96 164.93 145.52 C 162.67 144.55 160.41 143.58 158.14 142.62 C 158.14 140.38 158.15 138.15 158.16 135.92 C 159.64 135.34 161.11 134.75 162.58 134.16 Z" />
</g>
<g id="#848c5bff">
<path fill="#848c5b" opacity="1.00" d=" M 196.23 135.66 C 198.56 135.22 200.94 135.37 203.30 135.45 C 203.51 136.02 203.93 137.16 204.13 137.73 C 203.68 137.99 202.76 138.53 202.30 138.79 C 198.23 141.55 193.32 142.51 188.50 142.92 C 190.56 140.02 193.19 137.53 196.23 135.66 Z" />
</g>
<g id="#919c71ff">
<path fill="#919c71" opacity="1.00" d=" M 319.80 134.22 C 320.26 132.96 322.65 133.47 322.21 134.89 C 321.74 136.15 319.34 135.63 319.80 134.22 Z" />
</g>
<g id="#c8d5b4ff">
<path fill="#c8d5b4" opacity="1.00" d=" M 81.24 138.45 C 83.59 137.35 85.94 136.28 88.21 135.02 C 86.71 138.18 84.87 141.29 81.94 143.32 C 81.70 141.70 81.47 140.08 81.24 138.45 Z" />
</g>
<g id="#d2dac5ff">
<path fill="#d2dac5" opacity="1.00" d=" M 335.86 135.29 C 336.15 135.30 336.74 135.31 337.03 135.32 C 336.77 136.62 336.57 137.95 336.17 139.22 C 334.79 140.53 333.05 141.37 331.43 142.32 C 332.74 144.96 334.02 147.62 335.17 150.34 C 336.78 147.95 339.38 147.01 342.17 146.89 C 339.33 148.08 336.98 150.13 335.70 152.96 C 338.50 152.04 341.24 150.95 343.92 149.72 C 341.64 151.84 339.07 153.70 337.19 156.21 C 337.58 158.03 338.31 159.75 338.83 161.54 C 338.74 161.85 338.55 162.46 338.46 162.76 C 336.69 161.28 334.93 159.79 333.06 158.44 C 333.57 157.99 334.60 157.10 335.11 156.66 C 334.36 155.06 333.68 153.42 332.70 151.96 C 331.63 150.47 330.47 149.07 329.19 147.77 C 329.84 147.75 331.13 147.69 331.77 147.67 C 330.90 145.86 330.02 144.05 329.14 142.25 C 331.80 140.74 334.80 139.18 335.58 135.95 L 335.86 135.29 Z" />
</g>
<g id="#98a27cff">
<path fill="#98a27c" opacity="1.00" d=" M 330.46 136.69 C 332.16 136.43 333.87 136.18 335.58 135.95 C 334.80 139.18 331.80 140.74 329.14 142.25 C 329.42 141.03 329.70 139.82 329.99 138.61 C 330.11 138.13 330.34 137.17 330.46 136.69 Z" />
</g>
<g id="#a2af90ff">
<path fill="#a2af90" opacity="1.00" d=" M 84.59 149.38 C 88.42 144.01 93.42 138.63 100.01 136.93 C 99.90 143.51 93.67 147.93 88.21 150.39 C 84.18 153.11 80.69 156.55 76.68 159.32 C 76.23 159.03 75.32 158.46 74.87 158.18 C 76.28 155.76 77.72 153.35 79.18 150.96 C 80.03 149.49 81.56 148.65 82.87 147.66 C 83.30 148.09 84.16 148.95 84.59 149.38 Z" />
</g>
<g id="#ccda9fff">
<path fill="#ccda9f" opacity="1.00" d=" M 232.08 138.89 C 235.09 140.56 238.20 142.14 240.90 144.32 C 243.44 146.75 245.17 149.85 246.75 152.95 C 243.20 151.44 239.56 149.91 236.58 147.41 C 234.08 145.22 233.15 141.91 232.08 138.89 Z" />
</g>
<g id="#98a27eff">
<path fill="#98a27e" opacity="1.00" d=" M 288.95 147.76 C 291.96 144.63 294.98 141.04 299.57 140.40 C 298.94 143.10 298.59 146.38 295.94 147.92 C 293.60 149.30 291.00 150.50 288.27 150.70 C 284.04 150.07 280.68 146.85 278.76 143.18 C 282.85 142.69 286.20 145.03 288.95 147.76 Z" />
</g>
<g id="#b9c2abff">
<path fill="#b9c2ab" opacity="1.00" d=" M 17.78 144.40 C 18.84 143.89 19.90 143.39 20.96 142.89 C 26.20 147.25 33.50 147.95 38.46 152.64 C 36.89 152.85 35.19 153.21 33.77 152.28 C 30.32 150.39 26.71 148.78 22.84 148.00 C 25.70 150.93 29.03 153.46 32.90 154.91 C 37.90 156.81 42.42 159.84 47.63 161.20 C 53.32 162.81 58.64 165.44 64.31 167.09 C 62.89 167.90 61.53 168.95 59.91 169.31 C 56.50 168.68 53.56 166.65 50.85 164.59 C 47.57 164.03 44.32 163.16 41.40 161.51 C 36.73 158.76 31.13 157.73 27.01 154.03 C 23.74 151.04 18.55 149.32 17.78 144.40 Z" />
</g>
<g id="#c4d5c1ff">
<path fill="#c4d5c1" opacity="1.00" d=" M 66.54 152.42 C 68.87 148.24 73.15 145.68 76.69 142.61 C 77.20 142.67 78.22 142.78 78.73 142.83 C 79.05 143.75 79.37 144.67 79.70 145.59 C 78.07 146.65 76.30 147.58 75.00 149.05 C 74.16 150.83 74.04 152.84 73.63 154.75 C 75.20 153.11 76.96 151.61 79.18 150.96 C 77.72 153.35 76.28 155.76 74.87 158.18 C 74.51 157.92 73.81 157.41 73.45 157.16 C 73.10 156.19 72.77 155.22 72.45 154.24 C 71.89 156.02 71.31 157.80 70.73 159.58 C 69.50 159.62 68.27 159.66 67.04 159.70 C 66.77 157.29 66.15 154.85 66.54 152.42 Z" />
</g>
<g id="#dee7ddff">
<path fill="#dee7dd" opacity="1.00" d=" M 243.01 143.26 C 244.61 144.51 246.32 145.61 248.05 146.69 C 249.02 147.31 250.00 147.93 250.84 148.73 C 251.49 150.54 252.04 152.38 252.60 154.22 C 253.66 153.45 254.72 152.68 255.78 151.92 C 254.26 155.18 253.28 158.69 253.27 162.31 C 255.27 158.93 255.83 154.69 259.20 152.24 C 261.48 157.22 257.72 161.75 256.54 166.43 C 255.29 172.30 255.96 178.35 255.64 184.29 C 254.74 187.51 253.80 190.72 252.95 193.96 C 253.89 193.53 254.83 193.10 255.77 192.66 C 252.44 195.91 248.91 199.25 247.56 203.86 C 246.82 204.20 246.07 204.54 245.34 204.91 C 245.82 202.52 246.70 199.99 245.54 197.66 C 245.78 196.79 245.99 195.92 246.20 195.05 C 246.69 192.86 247.13 190.65 247.49 188.44 C 247.98 185.47 248.28 182.48 248.39 179.47 C 248.88 173.58 248.93 167.66 249.71 161.79 C 250.03 158.58 250.59 154.17 246.75 152.95 C 245.17 149.85 243.44 146.75 240.90 144.32 C 241.43 144.06 242.48 143.52 243.01 143.26 M 249.98 166.38 C 249.15 172.67 249.49 179.23 252.57 184.91 C 254.47 178.99 255.88 172.76 254.63 166.54 C 253.07 166.49 251.52 166.44 249.98 166.38 Z" />
</g>
<g id="#9ead83ff">
<path fill="#9ead83" opacity="1.00" d=" M 250.84 148.73 C 251.62 147.33 252.40 145.93 253.19 144.54 C 254.05 147.00 254.92 149.45 255.78 151.92 C 254.72 152.68 253.66 153.45 252.60 154.22 C 252.04 152.38 251.49 150.54 250.84 148.73 Z" />
</g>
<g id="#a3ab8fff">
<path fill="#a3ab8f" opacity="1.00" d=" M 321.89 149.59 C 323.87 147.87 326.59 146.40 329.19 147.77 C 330.47 149.07 331.63 150.47 332.70 151.96 C 328.87 153.70 325.13 151.47 321.89 149.59 Z" />
</g>
<g id="#919d7dff">
<path fill="#919d7d" opacity="1.00" d=" M 342.17 146.89 C 343.62 147.06 344.78 147.97 345.97 148.74 C 345.46 148.98 344.43 149.47 343.92 149.72 C 341.24 150.95 338.50 152.04 335.70 152.96 C 336.98 150.13 339.33 148.08 342.17 146.89 Z" />
<path fill="#919d7d" opacity="1.00" d=" M 279.31 172.15 C 283.13 170.14 286.70 173.92 290.59 173.33 C 293.61 172.99 296.59 172.32 299.61 171.90 C 298.55 174.92 296.01 177.37 292.79 177.87 C 288.58 178.00 284.36 176.69 281.21 173.84 C 280.74 173.42 279.79 172.58 279.31 172.15 Z" />
<path fill="#919d7d" opacity="1.00" d=" M 79.41 207.63 C 82.01 209.21 84.20 211.35 86.75 213.00 C 89.07 213.61 91.51 213.43 93.87 213.80 C 91.28 216.15 87.53 217.36 84.16 216.14 C 81.49 214.07 80.02 210.89 79.41 207.63 Z" />
</g>
<g id="#869a77ff">
<path fill="#869a77" opacity="1.00" d=" M 22.84 148.00 C 26.71 148.78 30.32 150.39 33.77 152.28 C 35.19 153.21 36.89 152.85 38.46 152.64 C 40.20 155.55 43.77 153.59 46.45 154.22 C 48.59 154.34 50.18 155.83 51.74 157.12 C 52.12 156.85 52.90 156.32 53.28 156.05 C 54.48 157.41 55.66 158.79 56.85 160.17 C 56.76 158.96 56.68 157.76 56.60 156.56 C 58.55 158.67 60.43 160.84 62.24 163.06 C 63.43 164.53 64.60 166.02 65.76 167.52 C 65.40 167.41 64.67 167.20 64.31 167.09 C 58.64 165.44 53.32 162.81 47.63 161.20 C 42.42 159.84 37.90 156.81 32.90 154.91 C 29.03 153.46 25.70 150.93 22.84 148.00 Z" />
</g>
<g id="#b5c4a2ff">
<path fill="#b5c4a2" opacity="1.00" d=" M 46.70 149.53 C 47.47 149.12 48.22 148.69 48.97 148.26 C 54.26 147.90 59.41 149.62 64.09 151.95 C 60.97 154.26 57.00 153.12 53.44 153.70 C 54.53 152.37 55.63 151.06 56.74 149.76 C 54.87 150.47 53.05 151.36 51.07 151.72 C 49.51 151.22 48.13 150.31 46.70 149.53 Z" />
</g>
<g id="#969f83ff">
<path fill="#969f83" opacity="1.00" d=" M 289.22 153.63 C 292.65 151.45 295.99 148.73 300.23 148.47 C 299.36 152.97 295.33 155.18 291.38 156.56 C 291.25 157.62 291.13 158.68 291.00 159.74 C 294.04 157.68 297.23 155.12 301.15 155.60 C 299.47 159.85 295.58 162.32 291.38 163.61 C 291.21 164.15 290.88 165.24 290.71 165.78 C 293.86 164.88 297.11 164.35 300.40 164.67 C 299.38 166.23 298.56 168.30 296.55 168.79 C 294.18 169.45 291.78 170.15 289.31 170.17 C 285.76 170.00 282.85 167.69 280.15 165.62 L 279.32 164.97 C 282.91 162.68 286.70 164.86 290.37 165.68 C 288.01 163.28 284.82 161.94 282.39 159.65 C 281.13 156.45 280.49 153.03 279.11 149.86 C 282.72 150.34 286.16 151.65 289.22 153.63 M 287.62 157.09 C 286.23 158.35 288.34 160.77 289.74 159.43 C 291.15 158.16 289.01 155.72 287.62 157.09 Z" />
</g>
<g id="#ccd7c4ff">
<path fill="#ccd7c4" opacity="1.00" d=" M 76.68 159.32 C 80.69 156.55 84.18 153.11 88.21 150.39 C 88.53 150.85 89.17 151.79 89.49 152.25 C 86.34 154.82 83.04 157.22 80.30 160.25 C 78.84 162.07 76.29 161.80 74.23 162.24 C 75.19 163.21 76.14 164.18 77.08 165.16 C 74.35 165.61 71.61 165.96 68.86 166.27 C 68.57 170.90 69.26 175.67 67.76 180.15 C 67.85 175.32 67.84 170.48 67.84 165.65 C 70.15 165.12 72.51 164.82 74.86 164.51 C 73.78 164.06 72.71 163.61 71.64 163.16 C 73.31 161.87 74.99 160.58 76.68 159.32 Z" />
</g>
<g id="#d5e9ddff">
<path fill="#d5e9dd" opacity="1.00" d=" M 153.33 153.11 C 156.58 152.77 159.79 152.10 162.99 151.41 C 166.14 152.16 168.06 155.29 168.89 158.22 C 169.81 161.38 168.18 164.45 167.00 167.29 C 163.29 168.09 159.43 169.02 156.59 171.70 C 155.88 173.04 155.20 174.41 154.77 175.87 C 153.75 179.05 154.48 182.46 157.02 184.71 C 155.35 184.59 153.67 184.50 152.00 184.45 C 152.52 186.23 153.54 187.78 154.88 189.05 C 152.66 188.88 150.43 188.80 148.21 188.86 C 148.99 187.00 149.74 185.11 150.32 183.18 C 151.59 179.34 152.03 175.27 151.32 171.28 C 150.87 173.91 150.50 176.55 150.15 179.20 C 144.69 177.16 140.62 172.96 136.77 168.77 C 138.50 168.00 140.22 167.15 142.09 166.75 C 145.31 166.77 148.23 168.38 151.13 169.59 C 150.77 167.41 150.23 165.23 150.30 163.01 C 151.42 159.74 153.25 156.67 153.33 153.11 Z" />
</g>
<g id="#c9d2c1ff">
<path fill="#c9d2c1" opacity="1.00" d=" M 210.65 150.62 C 211.52 154.19 211.97 157.86 212.78 161.45 C 211.70 163.38 210.48 165.23 209.16 167.01 C 209.49 162.29 208.70 157.45 209.82 152.82 C 210.08 152.08 210.36 151.35 210.65 150.62 Z" />
</g>
<g id="#8b9373ff">
<path fill="#8b9373" opacity="1.00" d=" M 111.80 152.10 C 112.57 152.16 114.12 152.28 114.89 152.34 C 116.18 155.19 116.75 158.26 117.07 161.36 C 117.60 165.29 118.67 169.13 119.07 173.09 C 119.07 173.47 119.07 174.25 119.07 174.63 C 117.92 169.75 116.02 165.05 113.26 160.85 C 111.21 158.35 111.12 155.12 111.80 152.10 Z" />
</g>
<g id="#b0bc85ff">
<path fill="#b0bc85" opacity="1.00" d=" M 212.78 161.45 C 214.70 157.64 216.99 153.85 220.79 151.65 C 220.84 159.07 217.47 166.43 211.01 170.35 C 210.10 169.62 209.19 168.89 208.27 168.18 C 208.50 167.88 208.94 167.30 209.16 167.01 C 210.48 165.23 211.70 163.38 212.78 161.45 Z" />
</g>
<g id="#a4af8cff">
<path fill="#a4af8c" opacity="1.00" d=" M 320.63 159.98 C 321.91 158.83 322.78 156.58 324.79 156.71 C 327.58 156.81 330.65 156.85 333.06 158.44 C 334.93 159.79 336.69 161.28 338.46 162.76 C 338.55 162.46 338.74 161.85 338.83 161.54 C 339.02 161.03 339.40 160.00 339.60 159.48 C 343.86 160.18 349.36 158.11 352.18 162.51 C 348.88 163.74 345.57 165.23 342.02 165.52 C 337.01 165.00 332.71 161.46 327.57 161.58 C 325.13 161.72 322.78 161.11 320.63 159.98 Z" />
</g>
<g id="#ccd4bdff">
<path fill="#ccd4bd" opacity="1.00" d=" M 287.62 157.09 C 289.01 155.72 291.15 158.16 289.74 159.43 C 288.34 160.77 286.23 158.35 287.62 157.09 Z" />
</g>
<g id="#cad2b8ff">
<path fill="#cad2b8" opacity="1.00" d=" M 117.07 161.36 C 118.57 160.55 120.05 159.70 121.54 158.87 C 121.75 162.68 121.48 166.85 123.87 170.10 C 122.27 171.08 120.67 172.09 119.07 173.09 C 118.67 169.13 117.60 165.29 117.07 161.36 Z" />
<path fill="#cad2b8" opacity="1.00" d=" M 121.35 206.57 C 121.34 203.82 121.53 200.90 123.54 198.78 C 125.03 199.17 126.52 199.56 128.01 199.97 C 127.24 202.88 126.41 205.77 125.52 208.65 C 126.20 209.42 126.87 210.19 127.55 210.96 C 127.22 211.56 126.90 212.16 126.58 212.76 C 126.17 212.39 125.34 211.66 124.93 211.29 C 123.73 211.66 122.53 212.02 121.33 212.39 C 120.53 210.97 119.74 209.56 118.87 208.18 C 119.22 207.66 119.92 206.63 120.27 206.11 C 120.54 206.22 121.08 206.46 121.35 206.57 Z" />
</g>
<g id="#ced7c3ff">
<path fill="#ced7c3" opacity="1.00" d=" M 113.26 160.85 C 116.02 165.05 117.92 169.75 119.07 174.63 C 119.05 175.78 119.00 176.92 118.94 178.07 C 116.71 175.64 114.58 173.13 112.29 170.77 C 112.11 171.30 111.76 172.35 111.58 172.88 C 111.30 169.52 110.97 166.16 110.16 162.88 C 111.19 162.20 112.22 161.52 113.26 160.85 Z" />
</g>
<g id="#79825eff">
<path fill="#79825e" opacity="1.00" d=" M 191.80 169.52 C 194.22 165.83 198.91 165.36 202.96 165.51 C 205.08 165.45 206.69 167.00 208.27 168.18 C 209.19 168.89 210.10 169.62 211.01 170.35 C 210.79 170.77 210.34 171.61 210.12 172.03 C 209.62 171.79 208.61 171.30 208.11 171.05 C 205.30 169.76 202.54 168.24 199.54 167.41 C 196.74 166.57 194.27 168.53 191.80 169.52 Z" />
</g>
<g id="#bbd3a5ff">
<path fill="#bbd3a5" opacity="1.00" d=" M 249.98 166.38 C 251.52 166.44 253.07 166.49 254.63 166.54 C 255.88 172.76 254.47 178.99 252.57 184.91 C 249.49 179.23 249.15 172.67 249.98 166.38 Z" />
</g>
<g id="#e2ece7ff">
<path fill="#e2ece7" opacity="1.00" d=" M 280.15 165.62 C 282.85 167.69 285.76 170.00 289.31 170.17 C 291.78 170.15 294.18 169.45 296.55 168.79 C 296.21 169.46 295.88 170.14 295.56 170.83 C 296.91 171.17 298.25 171.53 299.61 171.90 C 296.59 172.32 293.61 172.99 290.59 173.33 C 286.70 173.92 283.13 170.14 279.31 172.15 L 278.55 172.40 C 278.75 171.90 279.16 170.90 279.36 170.39 C 280.47 170.15 281.59 169.91 282.71 169.67 C 281.85 168.32 281.00 166.97 280.15 165.62 Z" />
</g>
<g id="#99a683ff">
<path fill="#99a683" opacity="1.00" d=" M 87.10 166.69 C 88.97 168.44 90.79 170.44 91.34 173.03 C 91.19 174.87 90.53 176.61 90.03 178.38 C 88.81 176.98 87.44 175.65 86.61 173.97 C 86.35 171.53 86.77 169.10 87.10 166.69 Z" />
</g>
<g id="#c3e0d1ff">
<path fill="#c3e0d1" opacity="1.00" d=" M 156.59 171.70 C 159.43 169.02 163.29 168.09 167.00 167.29 C 169.33 169.11 172.22 170.63 173.47 173.46 C 174.38 178.20 173.06 184.00 168.67 186.63 C 164.92 188.87 159.85 188.05 157.02 184.71 C 154.48 182.46 153.75 179.05 154.77 175.87 C 154.86 177.91 155.06 179.95 155.25 181.99 C 159.05 179.54 163.07 177.38 166.58 174.50 C 168.30 173.27 168.51 171.03 169.10 169.17 C 164.87 169.72 160.73 170.74 156.59 171.70 Z" />
</g>
<g id="#c1dbceff">
<path fill="#c1dbce" opacity="1.00" d=" M 136.77 168.77 C 140.62 172.96 144.69 177.16 150.15 179.20 C 150.50 176.55 150.87 173.91 151.32 171.28 C 152.03 175.27 151.59 179.34 150.32 183.18 C 148.01 184.42 145.77 186.23 143.04 186.35 C 139.13 185.68 135.52 182.18 135.50 178.06 C 135.43 174.92 136.21 171.84 136.77 168.77 Z" />
</g>
<g id="#abcbbdff">
<path fill="#abcbbd" opacity="1.00" d=" M 156.59 171.70 C 160.73 170.74 164.87 169.72 169.10 169.17 C 168.51 171.03 168.30 173.27 166.58 174.50 C 163.07 177.38 159.05 179.54 155.25 181.99 C 155.06 179.95 154.86 177.91 154.77 175.87 C 155.20 174.41 155.88 173.04 156.59 171.70 Z" />
</g>
<g id="#bdc9a6ff">
<path fill="#bdc9a6" opacity="1.00" d=" M 243.07 168.82 C 244.92 172.33 246.80 175.83 248.39 179.47 C 248.28 182.48 247.98 185.47 247.49 188.44 C 242.66 183.13 241.92 175.64 243.07 168.82 Z" />
</g>
<g id="#b2bc9aff">
<path fill="#b2bc9a" opacity="1.00" d=" M 317.80 169.49 C 322.23 169.32 327.04 169.44 330.76 172.19 C 333.25 174.14 335.76 176.09 338.13 178.19 C 339.02 179.89 338.85 181.91 338.63 183.76 C 337.87 188.44 336.53 193.02 334.75 197.41 C 334.40 197.05 333.70 196.34 333.35 195.99 C 334.21 191.02 336.46 186.36 336.65 181.26 C 330.25 177.56 322.59 175.43 317.80 169.49 Z" />
</g>
<g id="#7d8765ff">
<path fill="#7d8765" opacity="1.00" d=" M 119.07 173.09 C 120.67 172.09 122.27 171.08 123.87 170.10 C 125.02 173.83 123.27 177.54 121.86 180.93 C 121.36 182.06 120.86 183.18 120.36 184.31 C 117.46 180.48 113.83 177.16 111.58 172.88 C 111.76 172.35 112.11 171.30 112.29 170.77 C 114.58 173.13 116.71 175.64 118.94 178.07 C 119.00 176.92 119.05 175.78 119.07 174.63 C 119.07 174.25 119.07 173.47 119.07 173.09 Z" />
</g>
<g id="#b3bb8eff">
<path fill="#b3bb8e" opacity="1.00" d=" M 208.11 171.05 C 208.61 171.30 209.62 171.79 210.12 172.03 C 209.56 175.20 208.94 178.35 208.41 181.53 C 210.53 179.28 212.37 176.76 214.70 174.71 C 216.78 172.82 219.71 172.53 222.36 172.08 C 221.37 174.08 219.97 175.84 218.15 177.15 C 214.01 180.31 209.98 183.61 206.05 187.03 C 206.06 186.44 206.09 185.25 206.10 184.66 C 206.39 180.07 207.65 175.62 208.11 171.05 Z" />
</g>
<g id="#9da98eff">
<path fill="#9da98e" opacity="1.00" d=" M 89.67 179.50 C 91.96 176.92 94.64 174.64 97.90 173.40 C 96.97 176.57 96.24 180.59 92.82 182.03 C 88.45 184.12 82.98 179.98 83.35 175.21 C 85.67 176.31 87.75 177.82 89.67 179.50 Z" />
</g>
<g id="#d3d7cfff">
<path fill="#d3d7cf" opacity="1.00" d=" M 281.21 173.84 C 284.36 176.69 288.58 178.00 292.79 177.87 C 291.78 178.79 290.77 179.71 289.77 180.64 C 290.65 180.88 292.42 181.35 293.30 181.58 C 287.97 182.84 283.99 178.70 279.82 176.21 C 279.91 176.63 280.09 177.47 280.18 177.89 C 279.50 177.10 278.84 176.31 278.18 175.51 C 279.19 174.95 280.20 174.40 281.21 173.84 Z" />
</g>
<g id="#abbfa4ff">
<path fill="#abbfa4" opacity="1.00" d=" M 255.64 184.29 C 258.69 180.03 263.65 177.88 268.37 176.03 C 268.00 178.77 268.24 181.99 266.00 184.02 C 262.88 187.19 259.75 190.56 255.77 192.66 C 254.83 193.10 253.89 193.53 252.95 193.96 C 253.80 190.72 254.74 187.51 255.64 184.29 Z" />
</g>
<g id="#96a075ff">
<path fill="#96a075" opacity="1.00" d=" M 279.82 176.21 C 283.99 178.70 287.97 182.84 293.30 181.58 C 294.82 181.49 296.35 181.54 297.88 181.65 C 295.09 185.09 290.62 185.77 286.54 186.51 C 285.46 189.88 284.24 193.26 282.17 196.18 C 282.97 192.43 284.42 188.88 285.85 185.34 C 283.67 183.14 280.84 181.10 280.18 177.89 C 280.09 177.47 279.91 176.63 279.82 176.21 Z" />
</g>
<g id="#6b786eff">
<path fill="#6b786e" opacity="1.00" d=" M 34.31 177.39 C 34.85 177.35 35.95 177.26 36.50 177.21 C 36.58 181.16 37.15 185.22 35.95 189.07 C 36.09 186.85 36.12 184.63 36.16 182.41 C 34.36 182.68 32.55 182.93 30.77 183.28 C 31.87 181.27 33.08 179.33 34.31 177.39 Z" />
</g>
<g id="#a5ae8bff">
<path fill="#a5ae8b" opacity="1.00" d=" M 340.09 178.51 C 343.21 178.54 346.34 178.59 349.47 178.51 C 349.53 179.29 349.59 180.07 349.66 180.86 C 350.95 181.06 352.24 181.27 353.54 181.47 C 354.08 182.82 354.62 184.17 355.16 185.53 C 350.51 184.90 345.93 183.93 341.33 183.06 C 339.42 182.50 340.23 179.98 340.09 178.51 Z" />
</g>
<g id="#a3ab8bff">
<path fill="#a3ab8b" opacity="1.00" d=" M 111.94 178.60 C 115.19 180.15 117.62 182.83 119.78 185.63 C 119.93 185.30 120.22 184.64 120.36 184.31 C 120.86 183.18 121.36 182.06 121.86 180.93 C 121.94 181.62 122.11 182.99 122.19 183.68 C 123.48 182.29 124.80 180.92 126.16 179.61 C 127.39 184.73 123.79 188.98 121.09 192.91 C 123.18 191.79 125.30 190.71 127.47 189.75 C 127.90 193.33 125.69 196.21 123.54 198.78 C 121.53 200.90 121.34 203.82 121.35 206.57 C 121.08 206.46 120.54 206.22 120.27 206.11 C 117.18 203.14 113.38 200.30 112.72 195.75 C 115.33 196.51 117.79 197.66 120.19 198.93 C 120.21 198.22 120.26 196.80 120.29 196.09 C 120.29 194.15 120.43 192.16 119.94 190.26 C 118.44 188.00 116.20 186.39 114.25 184.54 C 112.35 183.17 112.29 180.70 111.94 178.60 Z" />
</g>
<g id="#a8b28dff">
<path fill="#a8b28d" opacity="1.00" d=" M 309.85 180.25 C 312.76 180.84 315.75 181.26 318.52 182.40 C 322.62 184.20 324.76 188.41 328.20 191.08 C 329.43 192.44 331.99 193.63 331.12 195.84 C 328.38 199.66 322.14 195.63 322.75 191.46 C 316.97 189.75 314.09 184.06 309.85 180.25 Z" />
</g>
<g id="#9ca689ff">
<path fill="#9ca689" opacity="1.00" d=" M 89.45 185.57 C 92.37 183.51 95.50 181.69 98.96 180.72 C 98.00 185.33 93.74 188.36 89.17 188.55 C 85.65 187.71 83.45 184.56 81.82 181.57 C 84.90 181.66 87.35 183.48 89.45 185.57 Z" />
</g>
<g id="#495951ff">
<path fill="#495951" opacity="1.00" d=" M 30.77 183.28 C 32.55 182.93 34.36 182.68 36.16 182.41 C 36.12 184.63 36.09 186.85 35.95 189.07 C 34.79 193.29 31.98 197.42 27.72 198.93 C 28.24 193.67 28.16 188.05 30.77 183.28 Z" />
</g>
<g id="#cbd4bfff">
<path fill="#cbd4bf" opacity="1.00" d=" M 114.25 184.54 C 116.20 186.39 118.44 188.00 119.94 190.26 C 120.43 192.16 120.29 194.15 120.29 196.09 C 117.14 194.79 113.43 193.24 112.45 189.61 C 111.56 187.64 113.26 186.03 114.25 184.54 Z" />
</g>
<g id="#dbe0d2ff">
<path fill="#dbe0d2" opacity="1.00" d=" M 200.96 198.86 C 202.91 194.21 204.06 189.27 206.10 184.66 C 206.09 185.25 206.06 186.44 206.05 187.03 C 206.00 191.26 204.19 195.31 204.76 199.57 C 203.20 200.46 201.63 201.34 200.07 202.23 C 200.39 202.96 200.71 203.70 201.03 204.45 C 201.44 205.40 201.85 206.35 202.25 207.31 C 200.53 207.85 198.82 208.41 197.15 209.09 C 198.66 205.95 199.49 202.45 197.91 199.17 C 198.32 198.26 198.73 197.35 199.14 196.45 C 199.74 197.25 200.35 198.05 200.96 198.86 Z" />
</g>
<g id="#798478ff">
<path fill="#798478" opacity="1.00" d=" M 15.67 187.59 C 18.64 189.10 20.20 192.12 21.90 194.82 C 20.23 197.13 18.80 199.59 17.46 202.10 C 16.06 197.39 15.17 192.52 15.67 187.59 Z" />
</g>
<g id="#95a083ff">
<path fill="#95a083" opacity="1.00" d=" M 82.00 187.23 C 84.65 187.68 87.08 188.87 89.20 190.50 C 92.15 189.09 95.21 187.86 98.48 187.49 C 97.25 191.06 93.72 192.41 90.50 193.61 C 90.41 194.12 90.22 195.13 90.12 195.64 C 92.72 194.45 95.42 193.48 98.26 193.06 C 96.39 198.78 87.87 200.83 84.01 195.97 C 82.92 193.18 82.60 190.15 82.00 187.23 Z" />
</g>
<g id="#b6d1c3ff">
<path fill="#b6d1c3" opacity="1.00" d=" M 140.80 192.88 C 142.01 189.80 145.06 188.63 148.21 188.86 C 150.43 188.80 152.66 188.88 154.88 189.05 C 156.40 189.16 157.93 189.34 159.45 189.52 C 159.90 190.78 160.36 192.04 160.82 193.30 C 158.05 193.65 155.28 193.96 152.53 194.45 L 152.36 195.22 C 152.07 196.69 151.83 198.16 151.56 199.63 C 151.48 200.02 151.32 200.80 151.24 201.19 C 151.02 198.93 150.82 196.68 150.61 194.43 C 147.32 194.02 144.05 193.54 140.80 192.88 Z" />
</g>
<g id="#9fa773ff">
<path fill="#9fa773" opacity="1.00" d=" M 187.09 188.47 C 192.38 188.61 196.06 192.63 199.14 196.45 C 198.73 197.35 198.32 198.26 197.91 199.17 C 193.22 196.85 189.55 193.05 187.09 188.47 Z" />
</g>
<g id="#cfe8dbff">
<path fill="#cfe8db" opacity="1.00" d=" M 159.45 189.52 C 160.63 190.21 161.82 190.90 163.02 191.60 C 162.16 192.98 161.29 194.35 160.40 195.71 C 162.91 195.93 165.93 195.16 167.96 197.02 C 173.06 201.09 169.43 211.09 162.89 210.94 C 159.87 211.14 157.26 209.38 154.70 208.05 C 154.10 209.02 153.50 210.00 152.90 210.97 C 154.92 211.66 156.93 212.34 158.95 213.02 C 156.34 213.07 153.74 213.27 151.17 213.73 C 151.21 211.59 151.19 209.45 151.12 207.31 C 149.05 206.94 146.98 206.57 144.91 206.20 C 146.70 205.74 148.50 205.28 150.30 204.83 C 150.42 204.37 150.67 203.45 150.80 202.99 C 150.91 202.54 151.13 201.64 151.24 201.19 C 151.32 200.80 151.48 200.02 151.56 199.63 C 152.00 200.18 152.88 201.26 153.32 201.80 C 154.86 199.49 156.41 197.18 157.96 194.87 C 156.09 194.98 154.22 195.09 152.36 195.22 L 152.53 194.45 C 155.28 193.96 158.05 193.65 160.82 193.30 C 160.36 192.04 159.90 190.78 159.45 189.52 Z" />
</g>
<g id="#9fab85ff">
<path fill="#9fab85" opacity="1.00" d=" M 299.86 196.72 C 302.16 196.15 304.61 194.60 307.02 195.59 C 309.48 196.42 311.91 197.44 314.12 198.83 C 314.58 200.41 314.73 202.07 314.98 203.70 C 315.91 203.16 316.84 202.62 317.78 202.09 C 317.61 203.95 317.42 205.82 317.22 207.68 C 318.22 207.20 319.22 206.72 320.23 206.25 C 320.01 207.79 319.77 209.33 319.55 210.88 C 320.72 211.21 321.88 211.54 323.06 211.89 C 325.73 208.82 328.11 205.51 330.18 202.01 C 329.24 201.07 328.29 200.15 327.35 199.22 C 329.42 198.29 331.46 197.26 333.35 195.99 C 333.70 196.34 334.40 197.05 334.75 197.41 C 335.39 198.07 336.03 198.75 336.66 199.43 C 338.09 198.80 339.52 198.19 340.96 197.58 C 340.72 198.64 340.49 199.70 340.24 200.77 C 341.76 200.21 343.28 199.65 344.82 199.12 C 344.71 199.92 344.61 200.72 344.51 201.52 C 349.28 201.48 354.46 204.84 354.02 210.09 C 348.18 207.53 342.85 203.13 336.17 203.07 C 335.34 202.29 334.51 201.51 333.69 200.74 C 329.95 205.57 326.31 210.49 322.83 215.51 C 323.82 215.45 324.81 215.40 325.80 215.35 C 326.00 215.86 326.39 216.89 326.59 217.41 C 327.94 216.95 329.28 216.42 330.71 216.21 C 333.25 217.21 335.47 218.95 337.11 221.15 C 339.52 222.58 341.65 224.39 343.67 226.32 C 343.30 227.20 342.93 228.09 342.57 228.97 C 336.49 227.91 333.28 221.48 327.13 220.70 C 324.85 220.24 322.55 219.63 320.20 219.68 C 318.67 220.39 317.37 221.52 315.87 222.27 C 315.62 222.35 315.13 222.52 314.88 222.60 C 316.26 220.52 317.66 218.46 318.99 216.35 C 317.48 215.19 315.88 214.13 314.57 212.74 C 314.44 211.15 314.81 209.58 315.11 208.03 C 314.24 207.58 313.36 207.13 312.50 206.68 C 312.31 205.96 312.13 205.25 311.95 204.54 C 308.41 201.21 304.01 199.14 299.86 196.72 Z" />
</g>
<g id="#4f5d52ff">
<path fill="#4f5d52" opacity="1.00" d=" M 17.46 202.10 C 18.80 199.59 20.23 197.13 21.90 194.82 C 24.67 199.47 24.33 204.97 24.83 210.15 L 24.19 209.74 C 20.95 208.21 18.84 205.32 17.46 202.10 Z" />
</g>
<g id="#aedac5ff">
<path fill="#aedac5" opacity="1.00" d=" M 134.93 197.95 C 135.30 196.45 136.49 195.12 138.15 195.23 C 143.39 195.19 148.49 198.25 150.80 202.99 C 150.67 203.45 150.42 204.37 150.30 204.83 C 148.50 205.28 146.70 205.74 144.91 206.20 C 141.41 203.69 137.59 201.41 134.93 197.95 Z" />
</g>
<g id="#f2fcf7ff">
<path fill="#f2fcf7" opacity="1.00" d=" M 152.36 195.22 C 154.22 195.09 156.09 194.98 157.96 194.87 C 156.41 197.18 154.86 199.49 153.32 201.80 C 152.88 201.26 152.00 200.18 151.56 199.63 C 151.83 198.16 152.07 196.69 152.36 195.22 Z" />
</g>
<g id="#aeb7a0ff">
<path fill="#aeb7a0" opacity="1.00" d=" M 243.04 196.94 C 244.09 196.30 245.14 195.67 246.20 195.05 C 245.99 195.92 245.78 196.79 245.54 197.66 C 245.12 198.39 244.27 199.87 243.84 200.60 C 243.59 199.38 243.32 198.16 243.04 196.94 Z" />
</g>
<g id="#d3e2adff">
<path fill="#d3e2ad" opacity="1.00" d=" M 234.39 205.36 C 236.38 201.76 239.88 199.42 243.04 196.94 C 243.32 198.16 243.59 199.38 243.84 200.60 C 244.07 201.75 243.02 202.60 242.50 203.51 C 239.85 206.84 237.01 210.19 233.23 212.30 C 233.39 209.97 233.18 207.46 234.39 205.36 Z" />
</g>
<g id="#949a6cff">
<path fill="#949a6c" opacity="1.00" d=" M 204.76 199.57 C 209.05 196.25 214.51 197.75 219.31 198.78 C 217.89 200.00 216.44 201.34 214.52 201.62 C 210.02 202.52 205.49 203.32 201.03 204.45 C 200.71 203.70 200.39 202.96 200.07 202.23 C 201.63 201.34 203.20 200.46 204.76 199.57 Z" />
</g>
<g id="#9ba181ff">
<path fill="#9ba181" opacity="1.00" d=" M 80.68 198.51 C 86.22 199.27 91.61 201.02 97.29 200.45 C 93.38 206.70 83.42 205.02 80.68 198.51 Z" />
</g>
<g id="#b9c7b0ff">
<path fill="#b9c7b0" opacity="1.00" d=" M 247.56 203.86 C 251.86 201.74 256.03 199.09 260.96 198.75 C 259.36 202.01 257.81 205.66 254.55 207.59 C 250.76 209.46 245.97 208.03 242.41 210.40 C 236.00 216.33 230.93 223.63 223.85 228.84 C 226.62 222.34 232.88 218.56 237.13 213.18 C 239.70 210.29 241.73 206.64 245.34 204.91 C 246.07 204.54 246.82 204.20 247.56 203.86 Z" />
<path fill="#b9c7b0" opacity="1.00" d=" M 211.06 251.63 C 213.33 246.53 215.00 241.00 218.76 236.73 C 217.20 242.18 214.67 247.31 213.57 252.90 C 212.73 252.47 211.89 252.05 211.06 251.63 Z" />
</g>
<g id="#6e8670ff">
<path fill="#6e8670" opacity="1.00" d=" M 31.08 220.17 C 30.73 213.06 33.57 204.98 40.94 202.62 C 40.67 206.58 40.31 210.75 38.19 214.23 C 36.52 216.92 33.61 218.41 31.08 220.17 Z" />
</g>
<g id="#a4ae93ff">
<path fill="#a4ae93" opacity="1.00" d=" M 111.80 202.89 C 114.42 204.22 117.24 205.62 118.87 208.18 C 119.74 209.56 120.53 210.97 121.33 212.39 C 122.53 212.02 123.73 211.66 124.93 211.29 C 125.34 211.66 126.17 212.39 126.58 212.76 C 124.18 215.12 121.93 217.69 120.76 220.90 C 120.29 221.83 119.81 222.76 119.34 223.70 C 117.39 218.73 111.00 216.56 110.91 210.72 C 114.77 211.70 117.34 214.87 120.32 217.26 C 121.20 213.38 117.51 211.16 115.32 208.65 C 113.67 207.06 112.60 205.01 111.80 202.89 Z" />
</g>
<g id="#8f9582ff">
<path fill="#8f9582" opacity="1.00" d=" M 79.92 203.71 C 82.43 204.48 84.82 205.59 87.35 206.28 C 90.34 206.60 93.39 206.14 96.36 206.79 C 94.52 208.56 92.52 210.66 89.76 210.62 C 85.14 211.44 81.97 207.20 79.92 203.71 Z" />
</g>
<g id="#adb992ff">
<path fill="#adb992" opacity="1.00" d=" M 292.88 204.98 C 295.37 205.67 297.79 206.60 300.03 207.90 C 300.80 207.87 301.57 207.83 302.35 207.79 C 304.12 209.90 305.65 212.21 306.86 214.69 C 309.35 217.01 309.83 220.52 310.82 223.61 C 312.17 223.29 313.54 223.00 314.88 222.60 C 315.13 222.52 315.62 222.35 315.87 222.27 C 315.16 224.00 314.41 225.71 313.68 227.42 C 318.50 228.25 322.73 230.82 326.90 233.21 C 330.02 235.04 331.36 238.55 333.44 241.32 C 333.26 242.54 333.07 243.76 332.88 244.98 C 326.34 242.81 323.39 234.62 316.24 233.91 C 315.58 233.06 314.92 232.21 314.27 231.37 C 314.08 231.93 313.69 233.06 313.50 233.62 C 311.85 232.70 310.21 231.78 308.59 230.83 C 308.25 230.62 307.57 230.21 307.23 230.01 C 306.42 229.16 305.69 228.25 304.95 227.35 C 305.33 226.93 306.09 226.09 306.46 225.67 C 305.51 224.78 304.57 223.89 303.64 222.99 C 303.71 222.55 303.79 222.10 303.87 221.66 C 299.58 216.58 295.94 210.89 292.88 204.98 Z" />
</g>
<g id="#a0aa69ff">
<path fill="#a0aa69" opacity="1.00" d=" M 202.25 207.31 C 202.73 207.16 203.68 206.87 204.16 206.73 C 201.76 211.53 199.44 216.53 195.51 220.31 C 195.50 217.71 195.27 215.11 195.16 212.52 C 195.52 211.23 196.21 210.03 197.15 209.09 C 198.82 208.41 200.53 207.85 202.25 207.31 Z" />
</g>
<g id="#788174ff">
<path fill="#788174" opacity="1.00" d=" M 24.19 209.74 L 24.83 210.15 C 26.01 210.96 27.29 211.77 28.06 213.02 C 30.38 219.16 30.52 225.80 32.10 232.12 C 33.68 225.74 37.10 218.99 43.83 216.89 C 42.85 222.31 40.58 227.66 36.29 231.28 C 35.18 232.68 32.67 233.72 33.26 235.85 C 35.06 240.67 38.52 244.86 39.21 250.11 C 32.10 244.61 33.18 233.86 26.33 228.08 L 27.33 227.98 C 27.84 227.92 28.85 227.81 29.35 227.76 C 27.65 221.75 26.95 215.43 24.19 209.74 Z" />
<path fill="#788174" opacity="1.00" d=" M 191.57 247.38 C 192.01 243.90 192.41 240.40 192.61 236.90 C 192.40 241.39 192.64 245.89 193.38 250.33 C 193.46 251.12 193.62 252.72 193.70 253.52 C 191.03 252.49 191.11 249.75 191.57 247.38 Z" />
</g>
<g id="#808e7eff">
<path fill="#808e7e" opacity="1.00" d=" M 14.25 210.89 C 17.88 212.42 20.40 215.50 22.78 218.50 C 21.36 219.94 19.94 221.39 18.53 222.85 C 16.28 219.22 14.68 215.16 14.25 210.89 Z" />
</g>
<g id="#c7ccb9ff">
<path fill="#c7ccb9" opacity="1.00" d=" M 195.11 211.70 L 195.16 212.52 C 195.27 215.11 195.50 217.71 195.51 220.31 C 195.22 223.23 194.45 226.09 194.14 229.01 C 193.18 236.08 194.09 243.24 193.38 250.33 C 192.64 245.89 192.40 241.39 192.61 236.90 C 192.41 240.40 192.01 243.90 191.57 247.38 C 190.44 235.35 192.42 223.38 195.11 211.70 Z" />
</g>
<g id="#96a178ff">
<path fill="#96a178" opacity="1.00" d=" M 76.64 212.54 C 79.21 214.12 81.22 216.39 83.63 218.16 C 85.80 218.98 88.14 219.21 90.39 219.73 C 88.29 222.53 84.45 223.20 81.28 222.05 C 78.76 219.52 76.21 216.34 76.64 212.54 Z" />
</g>
<g id="#afcec0ff">
<path fill="#afcec0" opacity="1.00" d=" M 151.17 213.73 C 153.74 213.27 156.34 213.07 158.95 213.02 C 162.90 214.63 163.79 219.73 162.36 223.38 C 161.68 226.26 159.17 228.01 156.89 229.60 C 154.38 228.07 151.90 226.44 149.87 224.29 C 146.86 221.23 147.41 215.89 151.17 213.73 Z" />
</g>
<g id="#c5d0a9ff">
<path fill="#c5d0a9" opacity="1.00" d=" M 277.74 214.28 C 280.19 214.10 282.64 213.95 285.10 213.83 L 284.96 214.62 C 284.81 215.82 284.40 217.10 284.84 218.29 C 287.22 224.87 293.32 229.49 294.64 236.54 C 293.68 236.72 291.76 237.09 290.80 237.28 C 294.13 238.48 297.28 240.35 299.01 243.56 C 299.29 240.61 299.69 237.68 300.04 234.75 C 302.33 233.02 304.58 231.15 307.23 230.01 C 307.57 230.21 308.25 230.62 308.59 230.83 C 306.26 233.17 303.75 235.35 301.30 237.57 C 304.50 239.47 307.68 241.40 310.86 243.32 C 309.83 243.93 308.81 244.55 307.78 245.16 C 307.48 245.34 306.88 245.69 306.58 245.87 C 306.47 246.79 306.39 247.73 306.34 248.66 C 304.88 248.28 302.59 249.00 301.91 247.22 C 301.20 245.60 300.86 243.85 300.43 242.15 C 299.91 243.62 299.38 245.08 298.83 246.54 C 297.78 244.58 296.80 242.58 295.83 240.58 C 292.61 242.06 289.49 243.77 286.57 245.78 C 287.99 246.74 289.42 247.69 290.83 248.68 C 290.48 248.59 289.77 248.42 289.42 248.33 C 287.00 247.78 284.60 247.13 282.25 246.34 C 285.19 244.16 288.82 242.76 291.26 239.97 C 290.98 234.61 287.11 230.59 285.24 225.79 C 283.50 221.46 279.06 218.87 277.74 214.28 Z" />
</g>
<g id="#9aaa7bff">
<path fill="#9aaa7b" opacity="1.00" d=" M 284.84 218.29 C 284.40 217.10 284.81 215.82 284.96 214.62 C 286.54 216.43 288.44 217.93 290.73 218.74 C 290.91 220.76 291.07 222.79 291.18 224.82 C 292.01 224.09 292.85 223.36 293.70 222.64 C 293.62 224.29 293.51 225.94 293.38 227.59 C 294.37 227.30 295.36 227.01 296.36 226.73 C 296.47 229.83 298.05 232.48 300.04 234.75 C 299.69 237.68 299.29 240.61 299.01 243.56 C 297.28 240.35 294.13 238.48 290.80 237.28 C 291.76 237.09 293.68 236.72 294.64 236.54 C 293.32 229.49 287.22 224.87 284.84 218.29 Z" />
</g>
<g id="#c1caabff">
<path fill="#c1caab" opacity="1.00" d=" M 263.55 217.20 C 264.64 217.58 265.74 217.97 266.85 218.36 C 266.29 219.22 265.74 220.08 265.20 220.95 C 270.24 226.01 273.04 232.77 278.06 237.88 C 276.17 237.58 274.29 237.27 272.40 236.99 C 270.63 234.48 269.31 231.71 268.19 228.86 C 266.65 224.95 263.31 221.66 263.55 217.20 Z" />
</g>
<g id="#849171ff">
<path fill="#849171" opacity="1.00" d=" M 73.08 217.78 C 76.44 218.53 77.76 221.78 79.81 224.12 C 82.56 224.67 85.39 224.80 88.08 225.67 C 85.51 228.01 81.77 229.45 78.54 227.47 C 75.67 224.96 73.91 221.46 73.08 217.78 Z" />
</g>
<g id="#535c52ff">
<path fill="#535c52" opacity="1.00" d=" M 18.53 222.85 C 19.94 221.39 21.36 219.94 22.78 218.50 C 25.01 221.27 26.65 224.46 27.33 227.98 L 26.33 228.08 C 22.89 228.32 20.82 224.88 18.53 222.85 Z" />
</g>
<g id="#c2d0b4ff">
<path fill="#c2d0b4" opacity="1.00" d=" M 111.81 219.01 C 115.11 219.18 116.39 222.93 118.80 224.74 C 119.13 225.98 119.46 227.22 119.80 228.46 C 119.89 228.78 120.06 229.41 120.14 229.73 C 121.85 229.56 123.56 229.41 125.28 229.29 C 124.09 232.55 120.97 234.60 119.90 237.91 C 118.68 238.32 117.46 238.75 116.25 239.18 C 116.26 238.50 116.30 237.14 116.31 236.46 C 117.44 235.71 118.56 234.97 119.69 234.23 C 118.57 233.64 117.44 233.07 116.37 232.39 C 116.83 227.33 111.87 223.92 111.81 219.01 Z" />
</g>
<g id="#85906aff">
<path fill="#85906a" opacity="1.00" d=" M 120.76 220.90 C 122.35 220.10 124.05 219.58 125.75 219.10 C 126.54 223.45 123.08 226.38 119.80 228.46 C 119.46 227.22 119.13 225.98 118.80 224.74 L 119.34 223.70 C 119.81 222.76 120.29 221.83 120.76 220.90 Z" />
</g>
<g id="#b0be8aff">
<path fill="#b0be8a" opacity="1.00" d=" M 265.20 220.95 C 265.74 220.08 266.29 219.22 266.85 218.36 C 270.54 219.66 273.75 222.42 273.74 226.63 C 274.60 226.11 275.46 225.60 276.34 225.09 C 275.92 227.01 275.47 228.93 275.03 230.84 C 276.33 229.48 277.61 228.10 279.05 226.88 C 280.33 229.50 278.62 232.24 277.96 234.80 C 279.13 233.58 280.32 232.38 281.54 231.22 C 281.91 233.88 281.30 236.50 280.38 238.98 C 281.72 238.41 283.07 237.83 284.42 237.28 C 283.58 240.26 282.55 243.18 281.47 246.09 C 280.63 246.45 279.78 246.81 278.94 247.17 C 275.47 244.50 272.06 241.45 271.46 236.85 L 272.40 236.99 C 274.29 237.27 276.17 237.58 278.06 237.88 C 273.04 232.77 270.24 226.01 265.20 220.95 Z" />
</g>
<g id="#abbf8bff">
<path fill="#abbf8b" opacity="1.00" d=" M 239.74 227.76 C 242.41 223.91 246.36 220.64 250.96 219.50 C 252.66 220.21 252.20 222.56 252.33 224.05 C 251.93 229.15 249.06 233.85 244.90 236.79 C 241.30 239.21 238.17 242.26 236.27 246.21 C 236.02 239.94 236.08 233.15 239.74 227.76 Z" />
</g>
<g id="#8e9987ff">
<path fill="#8e9987" opacity="1.00" d=" M 70.24 223.64 C 73.48 224.85 75.36 227.80 77.20 230.54 C 80.26 230.60 83.31 230.85 86.31 231.44 C 83.76 235.26 78.37 235.04 74.63 233.33 C 71.79 230.91 70.37 227.31 70.24 223.64 Z" />
</g>
<g id="#7a8769ff">
<path fill="#7a8769" opacity="1.00" d=" M 108.05 223.75 C 111.64 225.78 113.46 229.64 116.37 232.39 C 117.44 233.07 118.57 233.64 119.69 234.23 C 118.56 234.97 117.44 235.71 116.31 236.46 C 112.64 232.97 107.77 229.42 108.05 223.75 Z" />
</g>
<g id="#dce1dfff">
<path fill="#dce1df" opacity="1.00" d=" M 149.87 224.29 C 151.90 226.44 154.38 228.07 156.89 229.60 C 155.54 229.76 154.20 229.92 152.86 230.10 C 152.65 233.21 152.83 236.35 153.60 239.39 C 155.09 245.59 155.18 252.04 154.78 258.38 C 152.63 257.45 152.90 254.96 152.78 253.04 C 152.85 243.36 150.10 233.95 149.87 224.29 Z" />
</g>
<g id="#777f6aff">
<path fill="#777f6a" opacity="1.00" d=" M 68.72 229.38 C 70.70 231.55 72.30 234.01 73.75 236.55 C 76.36 236.94 78.96 237.45 81.52 238.12 C 79.21 240.57 75.50 241.41 72.52 239.61 C 68.47 238.11 68.05 233.05 68.72 229.38 Z" />
</g>
<g id="#a7b18eff">
<path fill="#a7b18e" opacity="1.00" d=" M 108.09 236.63 C 106.98 235.21 108.24 233.62 108.64 232.21 C 110.68 234.63 112.47 237.23 114.18 239.88 C 114.70 239.71 115.73 239.35 116.25 239.18 C 117.46 238.75 118.68 238.32 119.90 237.91 C 120.71 237.68 122.32 237.22 123.13 236.98 C 121.56 240.49 118.69 243.35 114.97 244.48 C 112.03 242.54 109.90 239.60 108.09 236.63 Z" />
</g>
<g id="#8b937eff">
<path fill="#8b937e" opacity="1.00" d=" M 64.80 235.41 C 66.82 237.37 68.40 239.72 69.80 242.15 C 71.90 242.74 74.00 243.46 75.65 244.94 C 72.49 245.71 69.24 245.72 66.02 245.68 C 65.74 246.26 65.19 247.42 64.92 248.00 C 67.07 248.38 69.21 248.82 71.32 249.40 C 68.82 252.48 64.70 252.13 61.19 252.79 C 57.54 255.59 55.09 259.73 51.02 262.05 C 54.03 257.68 58.09 254.21 61.46 250.15 C 60.71 247.45 60.25 244.69 60.10 241.90 C 61.91 243.24 63.64 244.68 65.41 246.07 C 65.37 242.50 64.36 238.99 64.80 235.41 Z" />
</g>
<g id="#c1d29dff">
<path fill="#c1d29d" opacity="1.00" d=" M 243.84 244.24 C 249.30 240.51 255.32 237.07 262.14 237.03 C 260.34 242.71 255.83 246.79 251.61 250.72 C 249.34 248.20 246.71 246.04 243.84 244.24 Z" />
</g>
<g id="#a5ad8cff">
<path fill="#a5ad8c" opacity="1.00" d=" M 105.35 241.96 C 107.55 239.30 110.04 242.81 112.01 244.02 C 114.49 246.52 118.20 245.02 121.27 245.21 C 119.81 249.05 115.77 250.44 113.00 253.06 C 111.42 256.03 110.67 259.35 109.51 262.49 C 108.96 262.57 107.85 262.74 107.29 262.82 C 109.14 259.07 111.50 255.31 111.73 251.04 C 110.21 247.65 106.50 245.62 105.35 241.96 Z" />
</g>
<g id="#a9b888ff">
<path fill="#a9b888" opacity="1.00" d=" M 240.21 255.68 C 240.42 251.62 241.04 247.40 243.84 244.24 C 246.71 246.04 249.34 248.20 251.61 250.72 C 248.10 252.97 244.35 254.95 240.21 255.68 Z" />
</g>
<g id="#98a47fff">
<path fill="#98a47f" opacity="1.00" d=" M 306.58 245.87 C 306.88 245.69 307.48 245.34 307.78 245.16 C 309.79 245.43 311.76 245.92 313.74 246.38 C 313.39 247.18 313.05 247.99 312.70 248.79 C 314.13 249.78 316.19 250.36 316.77 252.19 C 317.71 254.38 317.01 256.80 316.82 259.07 C 315.62 258.28 314.38 257.53 313.31 256.56 C 312.53 254.95 312.42 253.12 312.08 251.39 C 311.39 251.86 310.71 252.32 310.03 252.78 C 309.65 251.31 309.30 249.84 308.95 248.37 C 308.28 248.87 306.95 249.85 306.28 250.35 C 306.30 249.92 306.33 249.08 306.34 248.66 C 306.39 247.73 306.47 246.79 306.58 245.87 Z" />
</g>
<g id="#8b996eff">
<path fill="#8b996e" opacity="1.00" d=" M 278.94 247.17 C 279.78 246.81 280.63 246.45 281.47 246.09 L 282.25 246.34 C 284.60 247.13 287.00 247.78 289.42 248.33 C 288.27 250.65 287.04 252.93 285.72 255.16 C 285.04 253.10 284.44 251.02 283.85 248.94 C 283.35 250.53 282.84 252.12 282.30 253.69 C 281.37 252.15 280.49 250.59 279.61 249.02 C 275.37 250.22 271.24 251.81 267.20 253.55 C 266.95 253.27 266.46 252.70 266.21 252.42 C 270.47 250.72 274.72 248.98 278.94 247.17 Z" />
</g>
<g id="#b6c397ff">
<path fill="#b6c397" opacity="1.00" d=" M 289.42 248.33 C 289.77 248.42 290.48 248.59 290.83 248.68 C 295.46 250.44 298.84 254.30 302.37 257.63 C 304.40 259.79 306.88 261.61 308.50 264.12 C 308.47 266.02 308.23 267.92 308.22 269.83 C 305.67 268.89 302.81 268.19 301.01 266.00 C 300.20 264.60 299.96 262.96 299.52 261.42 C 298.96 262.00 298.39 262.58 297.83 263.16 C 297.36 261.74 296.90 260.32 296.45 258.90 C 292.31 260.15 289.54 255.73 285.56 255.43 L 285.72 255.16 C 287.04 252.93 288.27 250.65 289.42 248.33 Z" />
</g>
</svg>
