<?xml version="1.0" encoding="UTF-8" ?>
<!DOCTYPE svg PUBLIC "-//W3C//DTD SVG 1.1//EN" "http://www.w3.org/Graphics/SVG/1.1/DTD/svg11.dtd">
<svg width="74pt" height="37pt" viewBox="0 0 74 37" version="1.1" xmlns="http://www.w3.org/2000/svg">
<g id="#fefefeff">
<path fill="#fefefe" opacity="1.00" d=" M 0.00 0.00 L 74.00 0.00 L 74.00 7.82 C 71.64 5.01 68.23 3.41 64.53 3.93 C 61.37 5.85 58.50 8.43 54.91 9.51 C 49.09 9.74 44.34 4.91 38.38 5.92 C 35.59 7.87 32.52 9.99 28.97 9.93 C 25.09 8.88 22.30 5.08 18.08 4.99 C 14.30 5.08 11.75 8.19 8.47 9.57 C 5.67 10.54 2.70 9.61 0.00 8.74 L 0.00 0.00 Z" />
<path fill="#fefefe" opacity="1.00" d=" M 54.77 11.50 C 59.10 10.73 62.44 7.52 66.12 5.34 C 69.26 5.77 71.89 7.50 74.00 9.79 L 74.00 20.27 C 70.35 19.05 69.26 13.90 65.02 14.20 C 62.87 13.91 61.13 15.39 59.36 16.33 C 56.07 18.44 51.98 18.71 48.19 18.69 C 45.75 17.62 44.04 15.45 42.00 13.80 C 35.76 15.24 30.93 21.01 24.15 20.14 C 21.76 18.82 20.63 15.77 17.89 14.98 C 11.58 15.18 6.50 20.63 0.00 19.62 L 0.00 10.54 C 2.59 11.21 5.27 11.93 7.97 11.66 C 11.68 10.87 14.20 7.48 17.91 6.73 C 22.08 6.28 24.71 10.11 28.15 11.60 C 32.66 12.43 36.35 9.14 40.07 7.18 C 45.21 7.76 49.59 11.27 54.77 11.50 Z" />
<path fill="#fefefe" opacity="1.00" d=" M 33.07 20.15 C 35.89 18.50 38.68 16.57 41.97 16.02 C 44.38 17.37 45.84 20.61 48.95 20.43 C 52.84 21.07 56.26 18.84 59.95 18.11 C 61.02 17.39 62.08 16.66 63.14 15.92 C 65.22 16.11 67.69 16.03 68.76 18.24 C 69.90 20.22 72.01 21.02 74.00 21.87 L 74.00 31.30 C 69.65 30.78 67.80 25.30 63.09 25.84 C 59.69 25.10 57.52 28.30 54.84 29.73 C 51.74 31.55 47.42 33.24 44.23 30.68 C 41.62 28.43 38.61 26.74 35.25 25.89 C 31.85 27.76 28.64 30.84 24.58 30.90 C 21.02 29.07 18.02 25.91 13.73 25.90 C 9.11 27.80 5.23 31.80 0.00 31.87 L 0.00 21.45 C 3.88 22.08 7.68 20.68 10.62 18.18 C 10.86 18.20 11.36 18.25 11.60 18.28 C 13.68 17.69 15.75 16.99 17.93 16.90 C 20.20 18.35 21.89 20.52 23.86 22.33 C 26.99 21.99 30.30 21.81 33.07 20.15 Z" />
<path fill="#fefefe" opacity="1.00" d=" M 12.46 28.39 C 16.30 26.64 19.74 29.74 22.34 32.20 C 25.05 31.89 27.72 31.30 30.41 30.83 C 32.16 29.84 33.85 28.62 35.82 28.08 C 40.65 28.42 43.12 33.81 48.00 33.84 C 53.16 33.97 57.08 30.26 61.11 27.62 C 66.04 27.26 69.73 30.94 74.00 32.72 L 74.00 37.00 L 19.57 37.00 C 18.37 36.44 17.18 35.86 15.99 35.28 C 14.85 35.85 13.72 36.44 12.57 37.00 L 0.00 37.00 L 0.00 33.91 C 4.70 33.42 8.41 30.48 12.46 28.39 Z" />
</g>
<g id="#363636ff">
<path fill="#363636" opacity="1.00" d=" M 64.53 3.93 C 68.23 3.41 71.64 5.01 74.00 7.82 L 74.00 9.79 C 71.89 7.50 69.26 5.77 66.12 5.34 C 62.44 7.52 59.10 10.73 54.77 11.50 C 49.59 11.27 45.21 7.76 40.07 7.18 C 36.35 9.14 32.66 12.43 28.15 11.60 C 24.71 10.11 22.08 6.28 17.91 6.73 C 14.20 7.48 11.68 10.87 7.97 11.66 C 5.27 11.93 2.59 11.21 0.00 10.54 L 0.00 8.74 C 2.70 9.61 5.67 10.54 8.47 9.57 C 11.75 8.19 14.30 5.08 18.08 4.99 C 22.30 5.08 25.09 8.88 28.97 9.93 C 32.52 9.99 35.59 7.87 38.38 5.92 C 44.34 4.91 49.09 9.74 54.91 9.51 C 58.50 8.43 61.37 5.85 64.53 3.93 Z" />
<path fill="#363636" opacity="1.00" d=" M 24.15 20.14 C 30.93 21.01 35.76 15.24 42.00 13.80 C 44.04 15.45 45.75 17.62 48.19 18.69 C 51.98 18.71 56.07 18.44 59.36 16.33 C 61.13 15.39 62.87 13.91 65.02 14.20 C 69.26 13.90 70.35 19.05 74.00 20.27 L 74.00 21.87 C 72.01 21.02 69.90 20.22 68.76 18.24 C 67.69 16.03 65.22 16.11 63.14 15.92 C 62.08 16.66 61.02 17.39 59.95 18.11 C 56.26 18.84 52.84 21.07 48.95 20.43 C 45.84 20.61 44.38 17.37 41.97 16.02 C 38.68 16.57 35.89 18.50 33.07 20.15 C 30.30 21.81 26.99 21.99 23.86 22.33 C 21.89 20.52 20.20 18.35 17.93 16.90 C 15.75 16.99 13.68 17.69 11.60 18.28 C 11.36 18.25 10.86 18.20 10.62 18.18 C 7.68 20.68 3.88 22.08 0.00 21.45 L 0.00 19.62 C 6.50 20.63 11.58 15.18 17.89 14.98 C 20.63 15.77 21.76 18.82 24.15 20.14 Z" />
<path fill="#363636" opacity="1.00" d=" M 54.84 29.73 C 57.52 28.30 59.69 25.10 63.09 25.84 C 67.80 25.30 69.65 30.78 74.00 31.30 L 74.00 32.72 C 69.73 30.94 66.04 27.26 61.11 27.62 C 57.08 30.26 53.16 33.97 48.00 33.84 C 43.12 33.81 40.65 28.42 35.82 28.08 C 33.85 28.62 32.16 29.84 30.41 30.83 C 27.72 31.30 25.05 31.89 22.34 32.20 C 19.74 29.74 16.30 26.64 12.46 28.39 C 8.41 30.48 4.70 33.42 0.00 33.91 L 0.00 31.87 C 5.23 31.80 9.11 27.80 13.73 25.90 C 18.02 25.91 21.02 29.07 24.58 30.90 C 28.64 30.84 31.85 27.76 35.25 25.89 C 38.61 26.74 41.62 28.43 44.23 30.68 C 47.42 33.24 51.74 31.55 54.84 29.73 Z" />
<path fill="#363636" opacity="1.00" d=" M 12.57 37.00 C 13.72 36.44 14.85 35.85 15.99 35.28 C 17.18 35.86 18.37 36.44 19.57 37.00 L 12.57 37.00 Z" />
</g>
</svg>
