<?xml version="1.0" encoding="UTF-8" ?>
<!DOCTYPE svg PUBLIC "-//W3C//DTD SVG 1.1//EN" "http://www.w3.org/Graphics/SVG/1.1/DTD/svg11.dtd">
<svg width="200pt" height="200pt" viewBox="0 0 200 200" version="1.1" xmlns="http://www.w3.org/2000/svg">
<g id="#477238ff">
<path fill="#477238" opacity="1.00" d=" M 78.26 27.46 C 81.71 25.57 85.13 23.65 88.51 21.64 C 89.37 23.89 90.24 26.14 91.16 28.37 C 91.89 26.19 92.63 24.01 93.38 21.83 C 96.84 22.56 99.75 24.50 101.95 27.16 C 102.89 27.22 103.83 27.28 104.78 27.34 C 105.85 32.20 109.61 35.39 112.75 38.89 C 113.13 37.59 113.51 36.30 113.90 35.00 C 115.38 35.01 116.87 35.02 118.36 35.03 C 118.27 40.89 118.25 46.78 117.35 52.58 C 115.10 65.37 118.80 78.15 117.95 90.96 C 117.90 93.36 115.02 93.81 113.44 94.99 C 112.91 92.93 112.39 90.88 111.91 88.81 C 106.98 91.44 101.58 93.00 96.26 94.62 C 95.79 92.28 95.19 89.97 94.64 87.66 C 94.50 87.07 94.21 85.90 94.07 85.32 C 93.99 77.08 94.00 68.82 94.99 60.63 C 95.21 59.30 95.47 57.97 95.72 56.64 C 94.22 56.50 92.73 56.35 91.24 56.17 C 90.90 56.11 90.22 55.97 89.88 55.91 C 90.52 57.77 91.18 59.63 91.77 61.51 C 89.64 61.83 87.51 62.14 85.38 62.46 C 85.22 63.95 85.06 65.45 84.90 66.95 C 82.27 66.97 79.64 67.00 77.01 67.03 C 77.00 68.35 77.00 69.67 77.00 71.00 C 79.66 71.00 82.32 71.00 84.99 71.00 C 84.96 69.65 84.93 68.30 84.90 66.95 C 87.48 67.01 90.07 67.06 92.66 67.11 C 90.73 71.39 89.45 75.90 88.13 80.39 C 86.44 79.48 84.77 78.55 83.11 77.59 C 82.52 80.76 81.91 83.94 81.36 87.12 C 81.11 87.76 80.60 89.04 80.35 89.68 C 77.88 87.73 75.76 85.39 73.42 83.30 C 72.57 85.85 71.71 88.40 70.93 90.98 C 70.21 92.32 71.29 93.83 72.63 94.17 C 74.67 95.10 76.67 96.08 78.68 97.07 C 78.45 98.63 78.21 100.19 78.02 101.76 C 71.93 99.18 66.10 95.92 59.61 94.32 C 56.92 88.85 52.64 84.14 50.94 78.22 C 53.75 75.15 57.82 73.49 61.43 76.29 C 59.88 73.05 57.84 69.98 56.90 66.49 C 55.37 62.44 58.63 59.43 61.00 56.78 C 63.49 50.04 59.56 39.99 66.35 35.17 C 70.15 34.67 73.61 36.16 76.90 37.74 C 77.33 34.31 77.80 30.88 78.26 27.46 M 92.00 29.00 C 92.00 30.33 92.00 31.67 92.00 33.00 C 93.33 33.00 94.67 33.00 96.00 33.00 C 96.00 31.67 96.00 30.33 96.00 29.00 C 94.67 29.00 93.33 29.00 92.00 29.00 M 69.14 39.30 C 67.89 39.28 66.72 41.33 68.21 41.91 C 70.09 42.74 71.63 39.21 69.14 39.30 M 87.02 38.91 C 87.02 40.28 87.02 41.65 87.03 43.03 C 89.35 43.38 91.66 43.74 93.98 44.09 C 93.98 42.72 93.97 41.34 93.97 39.97 C 91.65 39.62 89.33 39.26 87.02 38.91 M 96.86 40.97 C 96.59 43.66 96.34 46.36 96.19 49.06 C 99.30 47.56 102.00 45.21 102.12 41.30 C 100.36 41.18 98.61 41.08 96.86 40.97 M 65.00 45.00 C 65.00 46.50 65.00 49.50 65.00 51.00 C 66.33 51.00 67.67 51.00 69.00 51.00 C 69.00 49.50 69.00 46.50 69.00 45.00 C 67.67 45.00 66.33 45.00 65.00 45.00 M 99.52 50.21 C 100.63 54.27 102.30 58.15 103.93 62.02 C 105.48 61.97 107.03 61.91 108.59 61.86 C 107.19 57.00 106.18 50.43 99.52 50.21 M 67.96 54.55 C 68.89 58.43 71.69 61.17 75.66 61.81 C 74.49 58.28 73.89 52.92 67.96 54.55 M 76.00 56.00 C 76.00 57.33 76.00 58.67 76.00 60.00 C 77.67 60.00 79.33 60.00 81.00 60.00 C 81.00 58.67 81.00 57.33 81.00 56.00 C 79.33 56.00 77.67 56.00 76.00 56.00 M 67.00 66.00 C 67.00 67.67 67.00 69.33 67.00 71.00 C 68.33 71.00 69.67 71.00 71.00 71.00 C 71.00 69.33 71.00 67.67 71.00 66.00 C 69.67 66.00 68.33 66.00 67.00 66.00 M 101.25 66.40 C 103.12 71.20 105.45 76.22 109.94 79.10 C 109.98 73.33 109.37 65.62 101.25 66.40 M 61.28 84.73 C 66.07 83.92 70.36 80.68 69.27 74.88 C 64.96 76.48 62.08 80.25 61.28 84.73 M 54.09 80.63 C 56.16 81.23 58.23 81.80 60.32 82.32 C 59.80 80.23 59.23 78.16 58.63 76.09 C 57.05 77.53 55.53 79.05 54.09 80.63 M 105.01 88.11 C 105.12 86.10 105.20 84.09 105.24 82.07 C 104.08 83.99 104.03 86.11 105.01 88.11 Z" />
</g>
<g id="#61a53fff">
<path fill="#61a53f" opacity="1.00" d=" M 92.00 29.00 C 93.33 29.00 94.67 29.00 96.00 29.00 C 96.00 30.33 96.00 31.67 96.00 33.00 C 94.67 33.00 93.33 33.00 92.00 33.00 C 92.00 31.67 92.00 30.33 92.00 29.00 Z" />
<path fill="#61a53f" opacity="1.00" d=" M 87.02 38.91 C 89.33 39.26 91.65 39.62 93.97 39.97 C 93.97 41.34 93.98 42.72 93.98 44.09 C 91.66 43.74 89.35 43.38 87.03 43.03 C 87.02 41.65 87.02 40.28 87.02 38.91 Z" />
<path fill="#61a53f" opacity="1.00" d=" M 96.86 40.97 C 98.61 41.08 100.36 41.18 102.12 41.30 C 102.00 45.21 99.30 47.56 96.19 49.06 C 96.34 46.36 96.59 43.66 96.86 40.97 Z" />
<path fill="#61a53f" opacity="1.00" d=" M 65.00 45.00 C 66.33 45.00 67.67 45.00 69.00 45.00 C 69.00 46.50 69.00 49.50 69.00 51.00 C 67.67 51.00 66.33 51.00 65.00 51.00 C 65.00 49.50 65.00 46.50 65.00 45.00 Z" />
<path fill="#61a53f" opacity="1.00" d=" M 99.52 50.21 C 106.18 50.43 107.19 57.00 108.59 61.86 C 107.03 61.91 105.48 61.97 103.93 62.02 C 102.30 58.15 100.63 54.27 99.52 50.21 Z" />
<path fill="#61a53f" opacity="1.00" d=" M 67.96 54.55 C 73.89 52.92 74.49 58.28 75.66 61.81 C 71.69 61.17 68.89 58.43 67.96 54.55 Z" />
<path fill="#61a53f" opacity="1.00" d=" M 76.00 56.00 C 77.67 56.00 79.33 56.00 81.00 56.00 C 81.00 57.33 81.00 58.67 81.00 60.00 C 79.33 60.00 77.67 60.00 76.00 60.00 C 76.00 58.67 76.00 57.33 76.00 56.00 Z" />
<path fill="#61a53f" opacity="1.00" d=" M 91.24 56.17 C 92.73 56.35 94.22 56.50 95.72 56.64 C 95.47 57.97 95.21 59.30 94.99 60.63 C 93.73 59.15 92.51 57.64 91.24 56.17 Z" />
<path fill="#61a53f" opacity="1.00" d=" M 85.38 62.46 C 87.51 62.14 89.64 61.83 91.77 61.51 C 92.32 63.33 92.54 65.22 92.66 67.11 C 90.07 67.06 87.48 67.01 84.90 66.95 C 85.06 65.45 85.22 63.95 85.38 62.46 Z" />
<path fill="#61a53f" opacity="1.00" d=" M 67.00 66.00 C 68.33 66.00 69.67 66.00 71.00 66.00 C 71.00 67.67 71.00 69.33 71.00 71.00 C 69.67 71.00 68.33 71.00 67.00 71.00 C 67.00 69.33 67.00 67.67 67.00 66.00 Z" />
<path fill="#61a53f" opacity="1.00" d=" M 77.01 67.03 C 79.64 67.00 82.27 66.97 84.90 66.95 C 84.93 68.30 84.96 69.65 84.99 71.00 C 82.32 71.00 79.66 71.00 77.00 71.00 C 77.00 69.67 77.00 68.35 77.01 67.03 Z" />
<path fill="#61a53f" opacity="1.00" d=" M 101.25 66.40 C 109.37 65.62 109.98 73.33 109.94 79.10 C 105.45 76.22 103.12 71.20 101.25 66.40 Z" />
<path fill="#61a53f" opacity="1.00" d=" M 61.28 84.73 C 62.08 80.25 64.96 76.48 69.27 74.88 C 70.36 80.68 66.07 83.92 61.28 84.73 Z" />
<path fill="#61a53f" opacity="1.00" d=" M 54.09 80.63 C 55.53 79.05 57.05 77.53 58.63 76.09 C 59.23 78.16 59.80 80.23 60.32 82.32 C 58.23 81.80 56.16 81.23 54.09 80.63 Z" />
<path fill="#61a53f" opacity="1.00" d=" M 83.21 81.22 C 86.90 82.38 90.64 83.50 94.07 85.32 C 94.21 85.90 94.50 87.07 94.64 87.66 C 90.73 87.45 86.85 87.00 82.99 86.34 C 83.06 84.63 83.14 82.93 83.21 81.22 Z" />
</g>
<g id="#b05b2cff">
<path fill="#b05b2c" opacity="1.00" d=" M 89.88 55.91 C 90.22 55.97 90.90 56.11 91.24 56.17 C 92.51 57.64 93.73 59.15 94.99 60.63 C 94.00 68.82 93.99 77.08 94.07 85.32 C 90.64 83.50 86.90 82.38 83.21 81.22 C 83.14 82.93 83.06 84.63 82.99 86.34 C 86.85 87.00 90.73 87.45 94.64 87.66 C 95.19 89.97 95.79 92.28 96.26 94.62 C 98.51 114.14 102.45 134.26 98.53 153.77 C 95.12 159.53 91.83 166.18 85.46 169.15 C 82.15 160.18 80.94 150.65 81.18 141.13 C 79.77 128.06 78.19 114.92 78.02 101.76 C 78.21 100.19 78.45 98.63 78.68 97.07 C 76.67 96.08 74.67 95.10 72.63 94.17 C 73.05 92.88 72.33 91.26 70.93 90.98 C 71.71 88.40 72.57 85.85 73.42 83.30 C 75.76 85.39 77.88 87.73 80.35 89.68 C 81.95 91.02 82.35 87.96 81.36 87.12 C 81.91 83.94 82.52 80.76 83.11 77.59 C 84.77 78.55 86.44 79.48 88.13 80.39 C 89.45 75.90 90.73 71.39 92.66 67.11 C 92.54 65.22 92.32 63.33 91.77 61.51 C 91.18 59.63 90.52 57.77 89.88 55.91 Z" />
</g>
</svg>
