<?xml version="1.0" encoding="UTF-8" ?>
<!DOCTYPE svg PUBLIC "-//W3C//DTD SVG 1.1//EN" "http://www.w3.org/Graphics/SVG/1.1/DTD/svg11.dtd">
<svg width="1024pt" height="1024pt" viewBox="0 0 1024 1024" version="1.1" xmlns="http://www.w3.org/2000/svg">
<g id="#5f574fff">
<path fill="#5f574f" opacity="1.00" d=" M 600.75 49.81 C 601.93 47.20 604.36 43.81 607.68 45.28 C 616.45 49.98 619.52 60.55 621.69 69.56 C 636.81 69.50 652.84 72.12 664.18 83.02 C 669.41 80.50 675.24 78.63 679.43 74.41 C 682.86 71.01 683.67 65.95 684.85 61.50 C 677.79 57.97 671.51 64.39 666.18 68.20 C 663.21 70.33 663.54 74.31 663.03 77.50 C 662.08 75.09 661.25 72.64 660.47 70.17 C 667.03 64.78 673.94 58.16 682.95 57.82 C 687.04 61.01 686.46 67.13 684.36 71.34 C 680.86 78.31 673.05 81.45 666.36 84.51 C 670.39 92.07 672.10 100.95 670.43 109.43 C 667.11 124.48 659.53 138.72 648.45 149.47 C 643.11 153.58 636.55 149.02 632.02 145.99 C 621.54 139.82 616.28 128.38 611.00 118.00 C 606.79 109.98 606.29 100.71 603.60 92.19 C 601.57 87.71 597.39 84.17 597.23 78.90 C 596.99 69.23 596.61 58.82 600.75 49.81 M 605.27 46.14 C 598.29 57.19 598.51 70.96 600.20 83.47 C 604.21 75.30 603.52 64.52 610.99 58.39 C 608.70 64.40 606.08 70.29 604.52 76.57 C 609.34 73.67 614.41 71.27 619.59 69.07 C 617.69 60.05 613.24 51.22 605.27 46.14 M 604.79 79.13 C 605.58 91.05 607.40 103.10 611.75 114.28 C 617.35 125.30 622.32 137.92 633.55 144.51 C 637.64 147.23 644.30 151.16 648.51 146.53 C 657.45 136.99 663.86 125.11 667.44 112.55 C 670.07 105.07 669.21 96.72 666.57 89.39 C 660.29 80.68 650.34 75.12 639.87 73.19 C 628.04 71.17 614.42 70.79 604.79 79.13 M 602.12 84.53 C 599.82 87.97 606.05 85.31 602.12 84.53 Z" />
<path fill="#5f574f" opacity="1.00" d=" M 394.66 64.11 C 399.35 76.86 396.10 91.21 400.85 104.06 C 401.27 110.56 406.77 114.12 412.01 116.69 C 418.36 105.09 416.92 89.17 427.99 80.40 C 424.54 88.08 420.72 95.69 418.99 104.00 C 417.73 108.36 417.05 113.36 413.81 116.82 C 411.68 119.16 408.15 117.47 406.01 116.00 C 398.80 111.74 398.21 102.77 396.76 95.39 C 395.60 85.01 394.52 74.56 394.66 64.11 Z" />
<path fill="#5f574f" opacity="1.00" d=" M 270.23 67.94 C 274.53 71.80 277.29 77.00 279.28 82.34 C 291.70 80.84 304.76 80.70 316.81 84.39 C 320.67 80.82 324.90 77.62 329.74 75.51 C 332.13 80.55 334.45 85.94 333.71 91.68 C 332.91 96.92 328.47 100.65 323.80 102.57 C 326.52 99.40 330.36 96.94 332.01 92.97 C 333.50 87.48 331.25 81.94 329.07 76.98 C 324.80 79.62 320.87 82.74 316.95 85.85 C 319.13 91.25 321.44 96.62 323.04 102.23 C 320.42 97.62 318.53 92.65 316.07 87.96 C 314.85 85.47 312.35 83.73 309.58 83.50 C 298.76 82.37 287.77 82.20 277.00 83.89 C 276.98 96.19 276.47 108.54 277.42 120.82 C 279.02 129.96 281.67 138.96 285.54 147.40 C 289.08 154.42 296.12 160.91 304.56 159.50 C 312.13 156.12 316.61 148.70 321.50 142.40 C 319.87 143.42 318.26 144.47 316.59 145.42 C 316.81 142.62 316.77 139.81 316.60 137.01 C 312.65 137.87 308.68 138.71 304.73 139.52 C 308.17 141.12 311.61 142.67 315.07 144.26 C 309.79 143.03 304.60 141.40 299.71 139.06 C 301.29 139.06 302.87 139.05 304.46 139.01 C 300.77 137.73 297.03 136.61 293.30 135.51 C 293.80 135.82 294.79 136.45 295.29 136.77 C 293.42 135.73 291.52 134.74 289.60 133.78 C 292.62 137.90 294.59 143.93 300.21 144.91 C 305.25 145.89 310.48 145.80 315.61 145.57 C 308.81 146.33 300.92 148.41 294.90 143.99 C 291.78 140.45 289.43 136.30 287.53 132.00 C 292.57 133.11 297.41 134.91 302.41 136.19 C 306.66 137.21 311.14 136.33 315.39 137.35 C 317.94 138.30 320.08 140.07 322.40 141.47 C 323.86 136.69 325.88 131.79 325.24 126.71 C 324.37 118.91 322.23 111.02 323.27 103.14 C 322.64 114.72 328.59 126.13 325.50 137.58 C 321.43 145.88 315.86 153.89 308.16 159.19 C 304.57 161.98 299.49 161.00 295.55 159.54 C 288.34 156.55 284.40 149.22 281.92 142.25 C 279.11 133.02 277.46 123.24 272.39 114.87 C 269.98 107.99 265.49 101.67 265.27 94.14 C 265.41 85.21 266.05 76.03 270.23 67.94 M 270.44 70.70 C 265.31 81.71 264.59 95.56 270.23 106.51 C 271.83 110.37 273.12 114.41 275.44 117.92 C 276.25 106.64 276.05 95.32 276.00 84.02 C 273.97 84.74 271.93 85.45 269.88 86.11 C 272.31 84.33 274.78 82.62 277.24 80.87 C 275.24 77.37 274.23 72.80 270.44 70.70 Z" />
<path fill="#5f574f" opacity="1.00" d=" M 549.45 71.66 C 557.85 69.76 567.30 71.05 573.78 77.19 C 577.14 79.33 576.38 84.04 575.38 87.35 C 573.35 91.35 570.70 95.82 566.14 97.19 C 556.63 99.44 546.73 97.37 539.40 90.88 C 540.15 83.56 542.25 75.17 549.45 71.66 M 550.36 74.30 C 549.19 76.67 548.02 79.03 546.79 81.37 C 546.35 80.43 545.46 78.56 545.02 77.62 C 543.59 82.68 538.78 90.23 546.00 92.97 C 551.34 96.53 558.30 96.21 564.36 95.37 C 571.12 93.81 573.59 86.08 574.81 80.14 C 570.93 78.09 567.48 74.92 563.11 74.06 C 558.85 73.81 554.61 74.31 550.36 74.30 Z" />
<path fill="#5f574f" opacity="1.00" d=" M 616.51 86.48 C 620.81 81.35 628.30 79.94 634.49 82.34 C 642.95 81.92 641.78 91.66 642.74 97.05 C 638.21 100.03 633.79 104.49 628.15 104.96 C 619.77 103.25 619.26 93.83 618.79 87.08 C 617.63 89.34 616.40 91.57 615.00 93.69 C 615.32 91.26 615.38 88.70 616.51 86.48 M 623.69 83.41 C 619.18 90.38 621.50 99.91 628.88 103.77 C 632.64 101.01 637.65 99.18 639.91 94.84 C 640.27 91.67 640.59 87.40 637.62 85.43 C 633.09 84.13 628.36 83.76 623.69 83.41 Z" />
<path fill="#5f574f" opacity="1.00" d=" M 385.78 99.91 C 388.12 93.57 389.31 86.51 393.82 81.25 C 389.83 98.24 383.10 114.56 376.15 130.54 C 377.63 119.84 382.65 110.14 385.78 99.91 Z" />
<path fill="#5f574f" opacity="1.00" d=" M 480.02 88.01 C 481.39 84.69 485.34 84.46 488.29 83.54 C 483.84 87.50 478.59 92.33 479.29 98.84 C 480.31 104.50 483.05 109.66 485.20 114.96 C 488.96 111.15 492.60 107.11 497.28 104.39 C 501.71 102.83 506.55 103.39 511.18 103.54 C 511.41 108.72 512.99 114.25 509.90 118.95 C 508.54 122.32 506.66 125.43 504.83 128.56 C 498.44 128.40 491.71 126.74 487.70 121.30 C 480.53 112.43 473.36 99.08 480.02 88.01 M 496.24 107.28 C 492.30 109.81 489.71 113.89 486.49 117.19 C 491.19 121.95 496.57 126.52 503.68 126.60 C 505.17 123.75 506.65 120.91 507.88 117.93 C 510.87 113.84 509.09 108.93 508.45 104.45 C 504.42 105.45 500.05 105.52 496.24 107.28 Z" />
<path fill="#5f574f" opacity="1.00" d=" M 440.63 100.16 C 443.51 93.18 449.43 85.91 457.89 86.94 C 465.11 90.40 464.31 99.61 463.19 106.13 C 461.31 112.18 457.47 117.74 452.63 121.80 C 444.75 122.90 436.11 116.71 435.55 108.56 C 434.44 100.60 436.83 92.05 443.80 87.42 C 440.80 94.52 435.58 102.00 437.94 109.95 C 439.31 115.99 445.80 120.02 451.75 119.95 C 457.27 114.38 462.20 107.15 461.93 98.96 C 461.98 94.92 459.72 91.38 457.90 87.94 C 450.82 89.84 445.87 95.45 440.63 100.16 Z" />
<path fill="#5f574f" opacity="1.00" d=" M 646.05 95.14 C 648.72 92.53 651.72 90.27 654.94 88.38 C 654.04 90.09 653.10 91.78 652.16 93.46 C 655.47 95.48 659.49 96.96 661.67 100.34 C 663.76 104.98 661.70 110.21 660.20 114.73 C 655.59 113.24 648.59 112.88 646.50 107.57 C 646.64 103.72 642.50 98.37 646.05 95.14 M 649.90 95.09 C 648.70 98.98 647.87 102.98 647.33 107.01 C 651.00 109.31 654.90 111.20 659.00 112.60 C 659.84 108.96 661.59 104.94 659.71 101.32 C 656.59 98.98 653.37 96.84 649.90 95.09 Z" />
<path fill="#5f574f" opacity="1.00" d=" M 283.99 109.17 C 281.55 103.51 281.28 93.99 290.04 94.02 C 290.84 98.17 292.62 102.44 291.72 106.68 C 290.27 109.59 286.82 109.21 283.99 109.17 M 286.41 96.44 C 283.03 99.27 284.55 104.54 284.93 108.25 C 287.13 108.20 289.61 107.80 290.83 105.73 C 291.65 102.02 290.58 98.11 287.89 95.46 C 287.52 95.71 286.78 96.20 286.41 96.44 Z" />
<path fill="#5f574f" opacity="1.00" d=" M 300.75 94.46 C 308.47 93.35 313.01 99.80 316.67 105.30 C 319.76 110.80 317.04 117.09 314.37 122.12 C 307.48 121.84 299.75 118.61 297.50 111.55 C 297.10 107.47 296.53 103.20 297.57 99.18 C 297.96 96.64 300.99 97.04 302.87 96.51 C 301.27 98.39 299.36 100.11 298.38 102.43 C 295.40 110.98 303.08 120.51 311.88 120.18 C 316.94 117.92 318.43 112.32 316.41 107.50 C 312.94 101.47 307.96 95.82 300.75 94.46 Z" />
<path fill="#5f574f" opacity="1.00" d=" M 287.22 102.27 C 288.71 101.74 289.76 104.30 288.12 104.73 C 286.62 105.21 285.56 102.74 287.22 102.27 Z" />
<path fill="#5f574f" opacity="1.00" d=" M 301.06 110.71 C 300.29 107.56 301.65 104.76 303.05 102.15 C 302.75 104.92 302.21 107.62 301.91 110.40 C 304.83 111.59 307.79 112.58 310.80 113.52 C 311.25 111.71 311.71 109.89 312.16 108.08 C 309.39 107.17 306.57 106.45 303.76 105.70 C 306.88 105.97 310.02 106.22 313.12 106.69 C 312.73 109.38 312.32 112.07 311.89 114.75 C 308.24 113.98 303.62 113.95 301.06 110.71 Z" />
<path fill="#5f574f" opacity="1.00" d=" M 629.93 114.68 C 632.98 113.99 635.82 113.34 638.99 112.79 C 639.65 118.12 635.32 120.21 631.46 121.75 C 630.95 119.39 630.44 117.04 629.93 114.68 M 633.38 115.46 C 633.30 116.75 633.22 118.03 633.16 119.32 C 634.25 117.94 635.34 116.56 636.43 115.17 C 635.67 115.24 634.14 115.39 633.38 115.46 Z" />
<path fill="#5f574f" opacity="1.00" d=" M 646.89 118.70 C 648.50 119.15 650.11 119.61 651.73 120.07 C 650.57 125.46 649.62 132.34 644.34 135.39 C 637.47 137.81 630.76 133.43 625.36 129.67 C 623.84 126.80 622.90 123.69 621.86 120.63 C 626.19 127.72 633.11 134.12 641.93 134.00 C 646.79 132.21 647.90 126.42 649.48 122.09 C 647.89 123.10 646.32 124.14 644.74 125.16 C 645.43 123.00 646.16 120.85 646.89 118.70 Z" />
<path fill="#5f574f" opacity="1.00" d=" M 351.17 247.17 C 352.79 246.65 353.35 247.20 352.83 248.83 C 351.20 249.35 350.64 248.79 351.17 247.17 Z" />
<path fill="#5f574f" opacity="1.00" d=" M 284.09 287.78 C 293.86 286.70 303.76 287.14 313.52 288.25 C 314.95 288.84 316.35 289.49 317.79 290.09 C 309.22 289.61 300.65 288.80 292.07 289.42 C 283.86 289.56 276.24 292.94 268.47 295.14 C 267.94 295.07 266.89 294.94 266.36 294.87 C 268.14 293.57 269.94 292.29 271.76 291.04 C 273.39 290.47 275.05 289.95 276.71 289.43 C 279.16 288.82 281.59 288.26 284.09 287.78 Z" />
<path fill="#5f574f" opacity="1.00" d=" M 127.25 332.24 C 134.29 325.32 145.13 331.63 149.52 338.54 C 154.21 347.31 152.02 358.55 146.05 366.18 C 137.45 364.73 130.10 359.70 124.82 352.89 C 125.08 346.02 124.31 338.70 127.25 332.24 M 130.77 333.75 C 126.04 338.22 126.66 345.67 127.53 351.48 C 130.93 357.98 137.81 362.32 144.89 363.83 C 150.13 356.88 152.09 346.54 146.97 339.01 C 143.98 333.48 136.46 329.97 130.77 333.75 Z" />
<path fill="#5f574f" opacity="1.00" d=" M 135.06 342.56 C 139.40 344.09 144.40 345.92 143.70 351.93 C 141.11 351.64 138.52 351.35 135.94 351.04 C 135.60 348.22 135.33 345.36 135.06 342.56 M 136.69 346.09 C 137.96 347.60 139.23 349.10 140.56 350.56 C 140.68 349.68 140.90 347.91 141.02 347.03 C 139.58 346.71 138.13 346.40 136.69 346.09 Z" />
<path fill="#5f574f" opacity="1.00" d=" M 165.12 350.64 C 168.06 343.78 177.73 343.26 182.75 348.23 C 185.96 357.73 182.49 367.94 177.13 375.92 C 172.35 375.23 167.21 374.73 163.15 371.85 C 160.92 366.16 162.11 359.74 163.76 354.04 C 165.14 353.99 166.52 353.95 167.90 353.92 C 165.92 356.96 163.63 360.09 164.00 364.02 C 161.72 371.11 170.41 374.35 175.68 372.74 C 180.12 369.49 180.47 363.23 181.43 358.32 C 181.68 355.16 182.67 349.73 178.75 348.19 C 174.16 345.96 169.31 348.84 165.12 350.64 Z" />
<path fill="#5f574f" opacity="1.00" d=" M 305.81 354.08 C 310.06 352.51 314.16 354.40 317.75 356.47 C 313.39 356.36 308.92 355.11 304.63 356.49 C 299.32 358.06 293.80 359.15 288.91 361.85 C 288.54 362.04 287.78 362.42 287.41 362.61 C 283.16 364.64 278.93 366.72 274.61 368.59 C 273.56 369.03 272.50 369.46 271.44 369.89 C 267.05 371.43 262.75 373.23 258.27 374.50 C 257.10 374.78 255.93 375.03 254.75 375.27 C 243.24 377.09 231.00 378.73 219.82 374.59 C 211.20 371.93 201.51 370.97 194.27 365.15 C 205.09 367.86 215.75 371.25 226.56 374.06 C 235.73 375.86 245.23 375.09 254.29 373.03 C 254.76 372.94 255.69 372.75 256.16 372.66 C 260.60 371.39 264.91 369.69 269.25 368.10 C 270.18 367.75 271.11 367.38 272.03 367.01 C 276.26 365.27 280.39 363.30 284.46 361.21 C 285.38 360.74 286.31 360.29 287.25 359.85 C 293.18 357.24 299.59 355.86 305.81 354.08 Z" />
<path fill="#5f574f" opacity="1.00" d=" M 168.80 367.07 C 165.53 360.53 173.90 360.86 176.74 359.07 C 175.67 361.66 176.34 365.84 173.78 367.93 C 172.07 368.15 170.35 367.75 168.80 367.07 M 173.26 362.62 C 171.92 362.55 170.56 364.40 171.59 365.54 C 173.31 366.91 175.44 363.25 173.26 362.62 Z" />
<path fill="#5f574f" opacity="1.00" d=" M 144.94 376.47 C 151.39 378.09 159.63 378.15 163.92 384.10 C 167.96 390.86 165.53 399.06 162.15 405.52 C 155.12 404.71 145.18 405.10 141.30 397.69 C 138.51 390.54 141.11 382.69 144.94 376.47 M 147.35 380.21 C 142.47 383.14 141.94 390.29 142.69 395.31 C 145.09 402.92 154.76 402.07 161.04 403.71 C 162.90 398.44 165.04 392.66 162.94 387.08 C 160.51 381.20 153.10 379.36 147.35 380.21 Z" />
<path fill="#5f574f" opacity="1.00" d=" M 144.31 394.06 C 144.64 390.21 145.33 382.56 151.79 384.77 C 152.59 387.44 152.87 390.25 153.42 393.00 C 150.38 393.37 147.34 393.69 144.31 394.06 M 146.53 391.81 C 147.90 391.75 149.28 391.69 150.66 391.63 C 150.77 390.01 150.88 388.39 150.98 386.78 C 149.50 388.45 148.00 390.11 146.53 391.81 Z" />
<path fill="#5f574f" opacity="1.00" d=" M 193.11 404.23 C 201.93 402.23 210.95 401.24 219.98 401.01 C 227.90 400.90 236.15 400.10 243.68 403.18 C 232.63 403.64 221.56 402.50 210.53 403.49 C 204.75 403.68 198.77 406.82 193.11 404.23 Z" />
<path fill="#5f574f" opacity="1.00" d=" M 101.18 405.76 C 105.32 405.08 109.76 403.92 113.74 405.83 C 110.84 406.25 107.86 406.21 105.05 407.07 C 104.59 409.94 105.31 412.82 105.39 415.69 C 103.71 412.52 102.34 409.15 101.18 405.76 Z" />
<path fill="#5f574f" opacity="1.00" d=" M 188.16 412.87 C 193.10 412.24 198.11 412.20 203.05 412.86 C 213.97 413.96 225.07 413.68 235.84 416.01 C 219.97 417.47 203.73 416.19 188.16 412.87 Z" />
<path fill="#5f574f" opacity="1.00" d=" M 164.23 418.58 C 167.08 414.90 171.89 412.52 176.54 414.41 C 179.51 417.37 180.36 421.66 180.97 425.65 C 178.63 422.55 176.75 419.14 174.82 415.78 C 171.26 416.63 167.77 417.70 164.23 418.58 Z" />
<path fill="#5f574f" opacity="1.00" d=" M 111.11 415.38 C 115.56 424.90 122.02 433.79 131.97 438.09 C 142.99 442.37 157.50 443.62 166.54 434.49 C 169.23 432.20 167.55 428.60 167.20 425.73 C 168.79 426.21 170.36 426.71 171.95 427.21 C 170.79 438.97 157.37 444.32 147.00 443.16 C 131.29 443.45 112.26 432.46 111.11 415.38 Z" />
<path fill="#5f574f" opacity="1.00" d=" M 121.94 463.46 C 140.76 465.69 159.13 470.92 177.99 473.16 C 194.66 476.08 211.70 474.04 228.45 476.14 C 269.79 480.84 311.43 481.62 353.00 480.94 C 374.62 480.15 396.05 483.33 417.65 483.72 C 411.25 484.50 404.87 486.79 398.36 486.13 C 360.89 479.94 322.78 484.72 285.05 482.54 C 266.40 480.91 247.64 481.08 229.06 478.64 C 214.84 476.57 200.44 477.28 186.14 476.59 C 169.34 474.96 152.96 470.73 136.29 468.30 C 131.32 467.40 125.93 466.91 121.94 463.46 Z" />
</g>
<g id="#fe7fadff">
<path fill="#fe7fad" opacity="1.00" d=" M 270.44 70.70 C 274.23 72.80 275.24 77.37 277.24 80.87 C 274.78 82.62 272.31 84.33 269.88 86.11 C 271.93 85.45 273.97 84.74 276.00 84.02 C 276.05 95.32 276.25 106.64 275.44 117.92 C 273.12 114.41 271.83 110.37 270.23 106.51 C 264.59 95.56 265.31 81.71 270.44 70.70 Z" />
<path fill="#fe7fad" opacity="1.00" d=" M 316.95 85.85 C 320.87 82.74 324.80 79.62 329.07 76.98 C 331.25 81.94 333.50 87.48 332.01 92.97 C 330.36 96.94 326.52 99.40 323.80 102.57 L 323.27 103.14 C 322.23 111.02 324.37 118.91 325.24 126.71 C 325.88 131.79 323.86 136.69 322.40 141.47 C 320.08 140.07 317.94 138.30 315.39 137.35 C 311.14 136.33 306.66 137.21 302.41 136.19 C 297.41 134.91 292.57 133.11 287.53 132.00 C 289.43 136.30 291.78 140.45 294.90 143.99 C 300.92 148.41 308.81 146.33 315.61 145.57 L 316.59 145.42 C 318.26 144.47 319.87 143.42 321.50 142.40 C 316.61 148.70 312.13 156.12 304.56 159.50 C 296.12 160.91 289.08 154.42 285.54 147.40 C 281.67 138.96 279.02 129.96 277.42 120.82 C 276.47 108.54 276.98 96.19 277.00 83.89 C 287.77 82.20 298.76 82.37 309.58 83.50 C 312.35 83.73 314.85 85.47 316.07 87.96 C 318.53 92.65 320.42 97.62 323.04 102.23 C 321.44 96.62 319.13 91.25 316.95 85.85 M 283.99 109.17 C 286.82 109.21 290.27 109.59 291.72 106.68 C 292.62 102.44 290.84 98.17 290.04 94.02 C 281.28 93.99 281.55 103.51 283.99 109.17 M 300.75 94.46 C 307.96 95.82 312.94 101.47 316.41 107.50 C 318.43 112.32 316.94 117.92 311.88 120.18 C 303.08 120.51 295.40 110.98 298.38 102.43 C 299.36 100.11 301.27 98.39 302.87 96.51 C 300.99 97.04 297.96 96.64 297.57 99.18 C 296.53 103.20 297.10 107.47 297.50 111.55 C 299.75 118.61 307.48 121.84 314.37 122.12 C 317.04 117.09 319.76 110.80 316.67 105.30 C 313.01 99.80 308.47 93.35 300.75 94.46 M 301.06 110.71 C 303.62 113.95 308.24 113.98 311.89 114.75 C 312.32 112.07 312.73 109.38 313.12 106.69 C 310.02 106.22 306.88 105.97 303.76 105.70 C 306.57 106.45 309.39 107.17 312.16 108.08 C 311.71 109.89 311.25 111.71 310.80 113.52 C 307.79 112.58 304.83 111.59 301.91 110.40 C 302.21 107.62 302.75 104.92 303.05 102.15 C 301.65 104.76 300.29 107.56 301.06 110.71 Z" />
<path fill="#fe7fad" opacity="1.00" d=" M 286.41 96.44 C 286.78 96.20 287.52 95.71 287.89 95.46 C 290.58 98.11 291.65 102.02 290.83 105.73 C 289.61 107.80 287.13 108.20 284.93 108.25 C 284.55 104.54 283.03 99.27 286.41 96.44 M 287.22 102.27 C 285.56 102.74 286.62 105.21 288.12 104.73 C 289.76 104.30 288.71 101.74 287.22 102.27 Z" />
<path fill="#fe7fad" opacity="1.00" d=" M 287.62 278.73 C 314.76 278.60 341.88 278.16 369.00 276.94 C 392.80 275.60 416.23 281.11 439.99 280.87 C 446.63 281.20 453.52 280.46 459.99 282.43 C 459.53 282.49 458.62 282.61 458.16 282.68 C 424.29 285.53 390.86 276.94 356.99 279.13 C 333.29 280.28 309.56 280.35 285.84 280.89 C 286.43 280.17 287.03 279.45 287.62 278.73 Z" />
<path fill="#fe7fad" opacity="1.00" d=" M 268.42 279.85 C 273.06 279.66 277.68 279.46 282.32 279.23 C 280.94 279.78 279.56 280.31 278.15 280.78 C 276.06 281.46 273.95 282.11 271.91 282.95 C 270.75 281.90 269.59 280.87 268.42 279.85 Z" />
<path fill="#fe7fad" opacity="1.00" d=" M 258.40 283.28 C 261.21 282.29 264.04 281.39 266.90 280.51 C 266.92 281.15 266.98 282.44 267.01 283.08 C 264.14 283.17 261.27 283.26 258.40 283.28 Z" />
<path fill="#fe7fad" opacity="1.00" d=" M 378.96 285.93 C 390.36 284.54 401.75 287.08 413.18 286.48 C 412.98 287.03 412.58 288.13 412.38 288.68 C 401.60 288.58 390.79 286.92 380.04 288.15 C 359.38 290.37 338.54 291.67 317.79 290.09 C 316.35 289.49 314.95 288.84 313.52 288.25 C 335.34 289.75 357.23 288.01 378.96 285.93 Z" />
<path fill="#fe7fad" opacity="1.00" d=" M 270.08 287.98 C 270.99 287.40 271.92 286.85 272.88 286.34 C 274.00 286.68 275.12 287.03 276.25 287.38 C 275.37 288.11 274.50 288.85 273.61 289.58 C 272.43 289.04 271.25 288.51 270.08 287.98 Z" />
<path fill="#fe7fad" opacity="1.00" d=" M 276.71 289.43 C 277.49 289.16 278.27 288.89 279.06 288.61 C 280.72 288.27 282.40 288.01 284.09 287.78 C 281.59 288.26 279.16 288.82 276.71 289.43 Z" />
<path fill="#fe7fad" opacity="1.00" d=" M 269.31 295.27 C 285.14 298.85 301.05 293.29 316.99 294.09 C 346.31 295.54 375.79 293.66 405.00 297.02 C 424.55 299.74 444.36 299.28 464.03 298.55 C 464.14 299.15 464.36 300.36 464.47 300.97 C 461.32 300.94 458.27 300.92 455.16 300.96 C 453.49 300.99 451.82 301.04 450.17 301.13 C 435.07 301.25 419.90 301.45 404.95 299.11 C 378.43 295.54 351.63 297.95 325.01 296.21 C 305.19 294.85 285.60 300.42 265.80 297.92 C 266.97 297.04 268.14 296.15 269.31 295.27 Z" />
<path fill="#fe7fad" opacity="1.00" d=" M 468.80 298.82 C 469.70 298.89 471.48 299.02 472.38 299.08 C 471.58 300.38 470.79 301.69 470.00 302.99 C 469.62 302.32 468.88 300.97 468.50 300.30 C 468.58 299.93 468.73 299.19 468.80 298.82 Z" />
<path fill="#fe7fad" opacity="1.00" d=" M 286.12 300.94 C 286.78 301.00 288.09 301.12 288.75 301.19 C 289.22 302.63 289.71 304.08 290.19 305.53 C 288.72 311.24 288.25 317.13 287.58 322.97 C 286.97 322.97 285.76 322.97 285.16 322.97 C 285.62 315.63 285.91 308.28 286.12 300.94 Z" />
<path fill="#fe7fad" opacity="1.00" d=" M 270.95 302.01 C 271.42 302.01 272.36 302.01 272.83 302.01 C 271.80 309.76 275.85 318.61 271.94 325.91 C 271.29 317.96 271.22 309.97 270.95 302.01 Z" />
<path fill="#fe7fad" opacity="1.00" d=" M 302.07 324.95 C 303.60 317.07 304.77 309.11 306.28 301.23 C 307.27 309.59 306.29 317.94 304.87 326.18 C 303.93 325.77 303.00 325.37 302.07 324.95 Z" />
<path fill="#fe7fad" opacity="1.00" d=" M 317.49 326.79 C 317.92 318.49 319.86 310.36 321.29 302.20 C 322.21 310.43 322.37 319.64 317.49 326.79 Z" />
<path fill="#fe7fad" opacity="1.00" d=" M 334.47 302.99 C 335.15 303.00 336.53 303.03 337.22 303.04 C 336.99 311.03 336.77 319.08 335.19 326.95 C 334.46 326.99 332.99 327.05 332.26 327.08 C 334.59 319.28 335.09 311.08 334.47 302.99 Z" />
<path fill="#fe7fad" opacity="1.00" d=" M 366.96 325.90 C 366.39 318.06 364.58 309.45 368.29 302.10 C 368.57 310.02 368.63 318.11 366.96 325.90 Z" />
<path fill="#fe7fad" opacity="1.00" d=" M 384.73 324.83 C 384.22 317.30 383.25 309.40 386.27 302.23 C 386.96 309.80 385.83 317.35 384.73 324.83 Z" />
<path fill="#fe7fad" opacity="1.00" d=" M 398.29 302.92 C 398.98 302.95 400.37 303.03 401.07 303.06 C 402.06 310.33 402.70 317.64 403.13 324.97 C 402.43 324.98 401.04 324.99 400.35 325.00 C 401.12 317.59 400.63 310.01 398.29 302.92 Z" />
<path fill="#fe7fad" opacity="1.00" d=" M 432.14 303.01 C 432.85 303.01 434.27 303.02 434.97 303.03 C 434.49 309.34 434.12 315.65 433.81 321.97 C 433.14 321.97 431.79 321.97 431.12 321.97 C 431.56 315.65 431.85 309.32 432.14 303.01 Z" />
<path fill="#fe7fad" opacity="1.00" d=" M 413.10 327.00 C 414.89 319.10 413.23 310.33 417.40 303.14 C 417.48 311.09 416.98 319.05 416.01 326.95 C 415.28 326.96 413.82 326.99 413.10 327.00 Z" />
<path fill="#fe7fad" opacity="1.00" d=" M 461.44 327.77 C 461.78 319.62 463.08 311.50 464.92 303.57 C 465.12 304.70 465.33 305.83 465.53 306.96 C 465.33 313.98 465.72 321.76 461.44 327.77 Z" />
<path fill="#fe7fad" opacity="1.00" d=" M 351.80 326.65 C 349.58 319.29 349.65 311.48 352.05 304.17 C 353.28 311.64 352.43 319.18 351.80 326.65 Z" />
<path fill="#fe7fad" opacity="1.00" d=" M 446.63 306.47 C 447.68 305.91 448.74 305.34 449.80 304.77 C 449.55 306.92 449.32 309.08 449.01 311.22 C 448.51 312.29 448.02 313.36 447.56 314.45 C 447.33 312.45 446.86 308.46 446.63 306.47 Z" />
<path fill="#fe7fad" opacity="1.00" d=" M 446.46 319.94 C 447.13 319.56 448.48 318.81 449.16 318.43 C 448.63 321.87 447.61 325.30 445.25 327.95 C 445.49 325.25 445.89 322.58 446.46 319.94 Z" />
<path fill="#fe7fad" opacity="1.00" d=" M 265.34 330.38 C 301.20 322.48 337.76 333.12 373.96 330.73 C 392.44 329.44 411.07 331.06 429.47 328.72 C 442.22 327.44 454.99 329.76 467.75 330.00 C 467.74 331.03 467.74 332.07 467.76 333.11 C 455.38 331.26 442.85 330.48 430.34 330.63 C 410.28 332.64 390.10 331.58 370.01 332.82 C 347.62 333.94 325.34 331.17 303.04 329.77 C 290.46 329.01 277.91 330.47 265.34 330.38 Z" />
<path fill="#fe7fad" opacity="1.00" d=" M 225.61 335.19 C 229.13 340.35 227.33 346.85 227.39 352.63 C 226.29 346.87 225.37 341.06 225.61 335.19 Z" />
<path fill="#fe7fad" opacity="1.00" d=" M 286.60 345.28 C 291.25 345.64 295.89 346.03 300.56 346.37 C 300.75 347.52 300.94 348.67 301.13 349.83 C 296.07 348.96 290.97 348.33 285.89 347.70 C 286.07 347.10 286.42 345.88 286.60 345.28 Z" />
<path fill="#fe7fad" opacity="1.00" d=" M 374.26 356.12 C 376.03 356.16 379.56 356.25 381.33 356.30 C 378.57 357.26 375.81 358.21 373.05 359.15 C 373.45 358.13 373.85 357.12 374.26 356.12 Z" />
<path fill="#fe7fad" opacity="1.00" d=" M 372.57 361.87 C 373.10 361.68 374.17 361.32 374.70 361.13 C 376.64 366.35 377.50 373.49 383.91 375.16 C 387.18 376.43 392.20 379.70 395.38 376.37 C 398.48 373.61 394.79 370.03 393.69 367.18 C 393.39 366.18 393.14 365.17 392.90 364.16 C 398.64 365.93 398.94 372.37 399.59 377.34 C 392.88 381.27 384.68 379.75 378.57 375.39 C 374.96 371.80 374.03 366.54 372.57 361.87 Z" />
<path fill="#fe7fad" opacity="1.00" d=" M 389.08 369.06 C 390.48 369.24 391.69 370.21 392.26 371.50 C 390.50 372.77 388.15 371.13 389.08 369.06 Z" />
</g>
<g id="#ff004dff">
<path fill="#ff004d" opacity="1.00" d=" M 289.60 133.78 C 291.52 134.74 293.42 135.73 295.29 136.77 C 296.73 137.60 298.19 138.39 299.71 139.06 C 304.60 141.40 309.79 143.03 315.07 144.26 C 311.61 142.67 308.17 141.12 304.73 139.52 C 308.68 138.71 312.65 137.87 316.60 137.01 C 316.77 139.81 316.81 142.62 316.59 145.42 L 315.61 145.57 C 310.48 145.80 305.25 145.89 300.21 144.91 C 294.59 143.93 292.62 137.90 289.60 133.78 Z" />
<path fill="#ff004d" opacity="1.00" d=" M 632.42 190.64 C 643.50 187.87 655.41 185.65 666.76 188.12 C 676.81 191.23 679.49 203.08 682.19 211.95 C 688.20 228.24 691.10 245.90 688.08 263.17 C 686.38 269.84 682.64 275.68 680.17 282.05 C 676.79 291.57 674.13 301.42 669.63 310.51 C 666.59 316.54 667.81 324.12 663.48 329.54 C 658.57 335.57 652.95 340.99 647.17 346.18 C 643.88 348.56 640.53 351.89 635.99 350.93 C 626.28 350.90 616.32 350.40 606.90 347.95 C 591.16 338.66 574.18 330.13 562.60 315.51 C 554.93 303.49 549.29 290.30 545.20 276.67 C 546.97 279.80 548.90 282.84 550.87 285.85 C 555.99 299.60 561.88 313.89 573.28 323.69 C 581.44 330.52 590.79 335.68 599.81 341.26 C 611.12 348.92 625.78 348.78 638.84 348.75 C 647.23 344.75 653.46 337.38 659.87 330.84 C 665.20 325.23 664.72 316.96 667.18 310.03 C 669.80 305.06 671.69 299.75 673.51 294.44 C 676.11 287.69 677.99 280.65 681.31 274.18 C 685.67 265.83 687.79 256.48 687.16 247.01 C 688.06 232.62 681.99 219.31 678.11 205.79 C 676.07 198.94 671.49 191.86 664.27 189.80 C 653.44 188.36 641.74 188.91 631.74 193.73 C 623.82 197.75 615.24 200.72 608.36 206.51 C 612.81 206.33 617.28 205.93 621.73 205.76 C 609.04 210.87 595.15 212.27 582.64 217.90 C 574.16 221.46 566.79 227.10 559.51 232.61 C 556.22 234.94 554.11 238.36 552.37 241.90 C 550.97 244.29 549.50 246.64 548.17 249.07 C 546.90 251.31 545.81 253.64 544.86 256.03 C 544.25 257.45 543.69 258.90 543.20 260.37 C 543.22 256.55 542.60 252.30 545.03 249.05 C 548.57 243.87 551.13 238.04 555.35 233.35 C 567.68 222.41 582.34 213.03 599.03 210.94 C 606.06 210.03 608.02 201.75 614.19 199.26 C 620.35 196.56 626.53 193.92 632.42 190.64 Z" />
<path fill="#ff004d" opacity="1.00" d=" M 594.97 237.94 C 606.21 235.10 617.26 239.71 627.74 243.18 C 633.13 244.85 637.35 249.51 639.31 254.70 C 642.21 262.58 635.94 268.88 631.16 274.17 C 623.91 282.12 612.55 286.06 601.98 284.11 C 589.58 279.78 576.27 269.93 577.43 255.09 C 578.79 254.64 580.16 254.19 581.54 253.74 C 581.20 257.38 579.54 261.31 581.19 264.79 C 586.00 274.57 596.54 281.08 607.05 282.73 C 619.39 283.32 629.22 274.29 635.97 264.97 C 640.37 257.92 635.38 248.51 628.18 245.77 C 618.18 242.20 607.64 238.02 596.82 239.72 C 589.55 241.90 588.39 250.64 586.36 256.75 C 585.16 249.58 587.73 240.80 594.97 237.94 Z" />
<path fill="#ff004d" opacity="1.00" d=" M 604.98 242.85 C 614.41 243.91 624.44 251.43 623.75 261.68 C 622.84 265.44 623.14 271.00 619.35 273.39 C 611.10 275.87 600.54 270.96 598.69 262.15 C 596.69 255.00 602.75 249.22 604.98 242.85 M 601.18 262.72 C 603.30 270.11 611.91 271.74 618.40 272.90 C 619.54 268.63 621.12 264.41 621.61 260.00 C 621.25 253.43 615.05 249.66 610.71 245.66 C 603.93 248.00 598.45 255.50 601.18 262.72 Z" />
<path fill="#ff004d" opacity="1.00" d=" M 722.02 492.96 C 737.98 492.78 753.84 488.03 769.83 490.82 C 750.80 491.39 732.06 495.40 713.00 495.10 C 696.79 495.35 680.51 492.87 664.43 495.83 C 663.25 495.95 660.90 496.17 659.72 496.29 C 643.67 496.83 627.68 499.04 611.60 498.46 C 585.10 497.17 558.62 499.12 532.14 499.39 C 506.84 501.82 481.39 502.07 456.01 501.24 C 442.40 500.77 428.34 501.45 415.34 496.66 C 437.50 498.23 459.70 499.61 481.95 499.40 C 510.51 500.96 538.88 495.39 567.46 496.92 C 568.80 496.96 570.15 496.85 571.50 496.71 C 580.30 496.00 589.16 495.86 598.00 495.97 C 602.91 496.04 607.86 496.18 612.80 496.29 C 617.26 496.32 621.78 496.50 626.27 496.34 C 630.61 496.13 634.98 495.84 639.34 495.55 C 648.05 495.05 656.81 494.93 665.46 493.65 C 684.23 490.77 703.17 493.67 722.02 492.96 Z" />
<path fill="#ff004d" opacity="1.00" d=" M 376.86 588.67 C 420.81 583.73 465.00 588.28 509.00 589.98 C 517.70 590.05 526.27 591.78 534.98 591.80 C 546.31 592.36 557.73 591.39 569.00 592.92 C 602.19 597.33 635.68 593.76 669.00 594.01 C 676.64 593.92 684.34 594.09 691.95 593.10 C 692.34 593.97 692.74 594.85 693.15 595.74 C 656.52 595.13 619.92 598.11 583.32 596.59 C 564.97 594.10 546.46 593.88 527.99 593.81 C 490.40 590.86 452.69 589.49 415.00 588.25 C 397.04 587.84 379.24 590.80 361.32 591.38 C 333.87 592.30 306.42 593.64 278.96 592.48 C 263.77 593.68 248.39 595.07 233.20 593.09 C 238.38 590.27 244.42 591.75 250.00 591.69 C 261.55 592.33 273.03 590.63 284.57 590.61 C 315.34 591.52 346.13 590.38 376.86 588.67 Z" />
<path fill="#ff004d" opacity="1.00" d=" M 502.67 604.62 C 520.26 601.29 538.21 602.30 555.99 601.18 C 572.72 600.18 589.35 602.56 605.83 605.17 C 632.75 607.36 660.51 609.95 686.96 602.84 C 686.97 603.69 686.98 605.37 686.98 606.21 C 655.42 610.42 623.28 610.57 591.81 605.48 C 567.48 601.71 542.78 603.54 518.32 604.37 C 488.45 608.84 458.20 610.13 428.04 610.27 C 410.41 611.96 392.67 612.63 374.98 611.87 C 350.80 610.05 326.71 603.19 302.32 606.22 C 292.54 607.02 282.73 607.00 272.95 606.52 C 260.67 605.80 248.42 607.68 236.15 607.19 C 243.63 604.19 251.99 605.19 259.87 604.54 C 273.47 603.60 287.07 605.22 300.67 604.55 C 317.77 602.54 335.14 603.49 352.02 606.83 C 379.38 612.22 407.38 609.84 434.99 608.19 C 457.61 608.42 480.18 606.91 502.67 604.62 Z" />
<path fill="#ff004d" opacity="1.00" d=" M 299.41 618.33 C 314.78 616.32 330.25 620.03 345.60 617.69 C 359.68 615.57 372.94 622.53 386.98 621.93 C 422.98 621.91 459.03 622.73 495.01 620.85 C 527.31 619.47 559.68 619.63 591.99 620.84 C 614.98 621.54 638.04 620.05 661.00 621.98 C 669.97 622.62 678.98 622.73 687.99 622.32 C 687.99 623.01 687.98 624.38 687.98 625.07 C 678.64 625.00 669.31 624.79 660.00 624.05 C 630.38 621.83 600.65 624.03 571.01 622.22 C 520.97 620.31 471.03 624.86 421.00 624.01 C 406.14 623.86 391.24 624.65 376.42 623.35 C 366.68 622.34 357.23 618.72 347.34 619.34 C 337.11 620.43 326.71 621.54 316.48 619.99 C 309.31 618.46 302.11 620.26 294.94 620.71 C 283.32 621.97 271.63 621.76 259.97 622.16 C 252.77 621.78 246.19 625.08 239.15 625.86 C 245.39 620.63 254.21 620.13 261.97 620.06 C 274.47 619.97 286.98 619.81 299.41 618.33 Z" />
<path fill="#ff004d" opacity="1.00" d=" M 474.32 637.73 C 533.87 637.89 593.54 641.15 653.04 637.11 C 656.55 637.08 659.75 638.84 663.00 640.06 C 642.14 642.02 621.14 639.93 600.32 642.20 C 584.76 642.96 569.05 644.89 553.53 642.75 C 531.23 640.01 508.74 641.42 486.36 640.72 C 475.54 640.37 464.71 640.79 453.96 642.00 C 419.66 645.00 385.31 641.50 351.01 640.92 C 351.01 640.41 351.00 639.40 351.00 638.90 C 392.08 639.20 433.49 644.48 474.32 637.73 M 562.00 640.98 L 562.00 642.02 C 565.75 642.02 573.25 642.02 577.00 642.02 L 577.00 640.98 C 573.25 640.98 565.75 640.98 562.00 640.98 Z" />
</g>
<g id="#000000ff">
<path fill="#000000" opacity="1.00" d=" M 212.04 246.64 C 225.84 227.82 229.80 202.67 247.09 186.36 C 238.54 201.68 228.95 216.51 222.88 233.08 C 233.70 222.88 244.95 212.68 258.92 206.97 C 267.99 203.98 277.72 202.02 287.09 204.79 C 293.84 204.57 298.76 209.99 301.32 215.63 C 303.25 220.87 303.86 226.49 305.69 231.77 C 307.98 238.21 313.40 243.62 313.07 250.87 C 305.13 260.61 295.25 268.66 287.62 278.73 C 287.03 279.45 286.43 280.17 285.84 280.89 C 283.67 283.54 281.48 286.19 279.06 288.61 C 278.27 288.89 277.49 289.16 276.71 289.43 C 275.05 289.95 273.39 290.47 271.76 291.04 C 272.22 290.68 273.15 289.95 273.61 289.58 C 274.50 288.85 275.37 288.11 276.25 287.38 C 278.29 285.63 280.35 283.91 282.37 282.15 C 279.16 283.44 275.96 284.76 272.88 286.34 C 271.92 286.85 270.99 287.40 270.08 287.98 C 265.31 290.96 260.78 294.68 255.27 296.15 C 245.16 297.63 234.77 297.74 224.66 296.30 C 220.20 295.46 219.22 290.25 217.55 286.81 C 215.68 281.14 214.60 275.13 211.32 270.03 C 208.48 280.52 208.31 291.65 209.61 302.38 C 211.56 308.51 213.16 316.28 218.65 320.31 C 225.70 321.74 232.81 318.06 238.88 314.82 C 248.36 308.61 257.14 301.44 266.36 294.87 C 266.89 294.94 267.94 295.07 268.47 295.14 L 269.31 295.27 C 268.14 296.15 266.97 297.04 265.80 297.92 C 252.88 306.42 241.82 319.23 226.02 322.16 C 222.43 322.59 217.91 323.96 215.29 320.71 C 209.47 312.76 206.64 302.84 206.86 293.03 C 205.58 277.27 211.25 262.25 212.04 246.64 M 265.62 209.51 C 259.06 211.18 254.54 216.64 249.62 220.89 C 258.90 221.02 268.16 220.47 277.43 219.94 C 284.17 219.33 289.90 223.29 296.04 225.34 C 292.70 219.19 290.91 211.18 284.66 207.36 C 278.34 206.25 271.72 207.81 265.62 209.51 M 289.29 206.38 C 293.68 214.80 296.63 224.23 302.88 231.54 C 302.04 226.23 301.10 220.87 299.13 215.86 C 297.36 211.44 292.86 209.14 289.29 206.38 M 236.45 223.95 C 245.66 222.07 252.73 215.34 259.45 209.20 C 251.38 213.44 243.16 217.66 236.45 223.95 M 244.81 223.89 C 238.76 227.07 233.64 233.81 234.77 240.97 C 235.09 247.73 233.68 255.73 238.97 261.04 C 245.74 270.06 257.89 270.83 268.18 270.98 C 272.30 262.87 277.43 255.32 283.33 248.41 C 289.92 241.21 286.63 230.67 284.51 222.30 C 273.85 222.93 266.34 231.33 256.54 234.41 C 247.88 236.19 239.56 243.33 240.22 252.90 C 239.78 252.90 238.88 252.90 238.43 252.91 C 238.85 250.41 239.69 245.42 240.12 242.92 C 243.61 237.60 249.46 234.07 255.53 232.40 C 261.87 230.22 267.60 226.63 273.26 223.10 C 263.78 223.05 254.16 222.28 244.81 223.89 M 288.48 224.69 C 288.46 233.16 291.01 243.08 285.16 250.16 C 279.87 256.47 275.03 263.15 270.64 270.11 C 278.46 269.07 286.38 267.77 293.67 264.63 C 295.86 263.78 296.88 261.52 297.48 259.42 C 299.84 250.75 299.32 241.60 298.31 232.79 C 297.69 227.87 292.22 226.59 288.48 224.69 M 217.05 266.02 C 215.31 276.85 222.01 287.48 231.25 292.55 C 244.08 297.95 257.12 290.63 268.91 285.96 C 268.94 285.23 269.01 283.76 269.04 283.02 C 268.53 283.04 267.51 283.07 267.01 283.08 C 266.98 282.44 266.92 281.15 266.90 280.51 C 266.92 278.17 266.95 275.83 266.97 273.49 C 258.63 272.24 248.97 272.63 242.04 266.95 C 238.22 264.47 235.46 260.58 233.63 256.49 C 232.24 246.10 231.49 234.54 237.91 225.61 C 224.17 233.70 217.69 250.72 217.05 266.02 M 300.75 231.37 C 300.77 236.74 301.28 242.07 301.65 247.43 C 303.26 242.12 302.95 236.47 300.75 231.37 M 221.50 238.96 C 223.19 237.36 224.81 235.67 226.28 233.86 C 224.54 235.42 222.93 237.12 221.50 238.96 M 300.93 260.52 C 304.56 257.68 308.37 254.69 310.57 250.56 C 311.17 245.29 307.85 240.95 305.77 236.47 C 304.23 244.50 302.12 252.42 300.93 260.52 M 213.62 247.44 C 213.48 250.19 213.19 255.68 213.05 258.43 C 215.61 252.68 218.06 246.80 219.05 240.54 C 217.15 242.77 215.34 245.07 213.62 247.44 M 212.87 269.69 C 213.42 270.06 214.52 270.81 215.08 271.18 C 214.89 268.00 214.63 264.74 214.46 261.59 C 213.93 264.30 213.36 266.96 212.87 269.69 M 270.34 273.28 C 269.55 275.42 268.91 277.61 268.42 279.85 C 269.59 280.87 270.75 281.90 271.91 282.95 C 271.50 283.12 270.69 283.48 270.28 283.65 C 273.04 283.11 275.73 282.22 278.15 280.78 C 279.56 280.31 280.94 279.78 282.32 279.23 C 287.16 276.61 290.00 271.51 293.51 267.41 C 285.81 269.49 277.98 271.04 270.34 273.28 M 218.54 284.99 C 220.95 289.60 223.68 294.59 229.29 295.46 C 225.96 291.71 222.36 288.22 218.54 284.99 Z" />
<path fill="#000000" opacity="1.00" d=" M 326.16 359.31 C 327.20 350.43 326.50 341.19 329.41 332.62 C 329.39 335.25 329.28 337.89 329.23 340.53 C 332.34 339.29 334.80 337.00 336.43 334.09 C 336.12 335.60 335.50 338.63 335.19 340.15 C 341.91 340.58 348.65 340.92 355.38 341.28 C 355.05 341.73 354.40 342.62 354.07 343.07 C 347.43 343.03 340.81 343.06 334.19 343.03 C 331.48 359.01 330.52 375.42 325.96 391.03 C 332.77 390.94 339.58 390.85 346.40 390.73 C 339.74 390.18 333.07 389.90 326.43 389.11 C 337.18 388.97 347.92 388.96 358.67 388.94 C 359.03 382.78 359.45 376.63 360.23 370.50 C 360.49 370.75 361.03 371.23 361.30 371.48 C 361.44 377.12 361.57 382.77 361.68 388.43 C 362.61 383.61 363.47 378.77 364.30 373.93 C 364.59 374.17 365.18 374.65 365.47 374.89 C 365.18 379.62 364.81 384.48 363.03 388.94 C 361.09 390.74 358.79 392.30 356.16 392.84 C 350.67 392.82 345.19 392.71 339.73 392.62 C 334.81 392.42 329.92 392.26 325.02 392.24 C 324.76 388.61 324.36 385.05 324.29 381.43 C 324.60 379.22 325.01 377.04 325.52 374.89 C 324.30 375.99 324.64 377.77 325.35 379.06 C 325.70 380.86 326.41 384.48 326.76 386.28 C 327.32 380.43 327.64 374.55 327.95 368.69 C 327.05 372.13 326.18 375.58 325.35 379.06 C 326.58 377.96 326.23 376.16 325.52 374.89 C 324.53 369.74 326.06 364.47 326.16 359.31 M 330.12 341.53 C 327.82 344.96 334.05 342.31 330.12 341.53 M 330.76 352.48 C 331.47 349.21 332.18 345.95 332.69 342.65 C 331.84 345.89 331.32 349.17 330.76 352.48 M 329.51 365.48 C 330.59 361.25 331.24 356.86 330.76 352.48 C 330.43 350.97 329.77 347.95 329.44 346.44 C 329.13 352.78 329.33 359.13 329.51 365.48 Z" />
<path fill="#000000" opacity="1.00" d=" M 481.54 337.71 C 497.82 336.70 514.18 336.55 530.47 337.56 C 520.73 339.38 510.81 337.96 501.00 338.26 C 494.51 338.14 487.97 338.79 481.54 337.71 Z" />
<path fill="#000000" opacity="1.00" d=" M 493.52 339.60 C 501.86 339.24 510.44 338.27 518.68 340.12 C 510.31 340.87 501.82 341.07 493.52 339.60 Z" />
<path fill="#000000" opacity="1.00" d=" M 357.43 343.21 C 358.56 341.81 359.73 340.46 360.90 339.10 C 361.59 339.32 362.97 339.75 363.66 339.97 C 366.52 340.24 369.34 340.49 372.23 340.86 C 370.93 340.97 369.64 341.08 368.36 341.19 C 367.58 344.96 366.73 348.72 365.77 352.45 C 365.98 348.48 366.23 344.55 366.38 340.59 C 366.14 344.53 365.94 348.49 365.77 352.45 C 365.73 353.18 365.64 354.64 365.60 355.37 C 364.73 352.12 363.97 348.85 363.13 345.60 C 363.29 354.17 364.77 362.63 365.10 371.19 C 364.82 370.94 364.24 370.43 363.96 370.18 C 362.58 361.02 362.47 351.70 363.27 342.49 C 361.33 342.76 359.38 343.00 357.43 343.21 Z" />
<path fill="#000000" opacity="1.00" d=" M 475.59 342.74 C 481.17 340.36 487.29 340.34 493.26 339.99 C 487.37 340.96 481.55 342.33 475.59 342.74 Z" />
<path fill="#000000" opacity="1.00" d=" M 426.05 345.17 C 431.25 342.88 437.08 343.26 442.59 342.49 C 442.97 346.44 444.40 350.69 442.61 354.48 C 440.91 358.93 436.16 360.77 432.60 363.42 C 435.98 358.58 441.98 355.25 442.91 348.96 C 443.26 346.05 440.07 344.66 438.19 343.15 C 439.33 345.16 440.58 347.11 441.84 349.06 C 440.61 351.42 439.43 353.81 438.24 356.20 C 438.61 353.75 439.28 351.32 439.27 348.83 C 435.03 344.71 428.93 346.52 424.65 349.53 C 421.68 351.00 418.75 352.54 415.78 353.99 C 418.90 350.74 421.76 346.95 426.05 345.17 Z" />
<path fill="#000000" opacity="1.00" d=" M 424.65 349.53 C 426.46 353.25 420.61 349.75 424.65 349.53 Z" />
<path fill="#000000" opacity="1.00" d=" M 422.24 351.72 C 423.58 354.45 424.38 357.40 424.93 360.39 C 427.34 360.66 429.86 361.03 432.31 361.31 C 429.46 361.66 427.04 362.39 424.35 363.02 C 426.93 363.05 429.90 363.36 432.60 363.42 C 430.15 363.99 427.64 364.52 425.18 364.83 C 423.16 363.36 421.70 361.29 420.18 359.34 C 419.02 359.63 417.86 359.91 416.72 360.21 C 418.22 363.08 419.81 365.91 421.36 368.76 C 428.29 367.43 434.65 364.29 440.72 360.82 C 435.01 365.34 428.22 370.97 420.44 368.61 C 417.22 365.44 415.58 361.11 413.62 357.14 C 414.42 357.74 415.22 358.35 416.02 358.97 C 415.89 357.48 415.76 355.99 415.63 354.51 C 416.33 356.06 417.03 357.61 417.75 359.17 C 419.56 357.50 421.28 355.73 423.02 353.99 C 421.62 354.63 421.37 355.48 422.27 356.52 C 423.45 356.10 423.70 355.26 423.02 353.99 C 422.83 353.42 422.43 352.28 422.24 351.72 Z" />
<path fill="#000000" opacity="1.00" d=" M 359.58 366.52 C 360.53 365.00 361.48 363.50 362.46 362.00 C 362.27 364.12 362.04 366.23 361.81 368.35 C 361.06 367.73 360.32 367.12 359.58 366.52 Z" />
<path fill="#000000" opacity="1.00" d=" M 661.46 375.89 C 675.43 374.46 689.36 372.53 703.35 371.33 C 686.44 374.89 669.10 375.79 651.95 377.58 C 624.11 377.94 596.24 376.52 568.54 373.69 C 549.57 371.82 530.59 374.26 511.62 374.47 C 523.31 372.68 535.19 372.69 546.99 372.11 C 570.44 370.82 593.57 376.05 616.99 376.00 C 631.79 375.80 646.73 378.14 661.46 375.89 Z" />
<path fill="#000000" opacity="1.00" d=" M 323.31 391.46 C 323.36 388.06 323.58 384.74 324.29 381.43 C 323.97 384.75 323.73 388.13 323.31 391.46 Z" />
<path fill="#000000" opacity="1.00" d=" M 471.61 386.48 C 496.37 387.39 521.16 388.03 545.86 390.26 C 564.93 391.21 583.86 394.33 603.00 394.04 C 623.46 393.94 643.85 396.33 664.32 395.72 C 645.93 398.58 627.45 395.59 609.01 395.23 C 575.56 395.46 542.40 390.24 509.01 389.13 C 496.52 388.87 483.96 388.45 471.61 386.48 Z" />
<path fill="#000000" opacity="1.00" d=" M 358.03 394.67 C 358.81 394.02 359.71 393.72 360.72 393.78 C 360.34 395.54 359.44 395.84 358.03 394.67 Z" />
<path fill="#000000" opacity="1.00" d=" M 288.54 399.01 C 309.33 396.30 330.17 399.36 350.95 400.30 C 387.89 403.50 425.00 401.28 462.01 402.12 C 496.00 403.59 530.09 405.25 563.64 411.27 C 572.98 412.93 582.33 414.53 591.68 416.15 C 622.56 419.40 653.54 421.58 684.44 424.68 C 678.46 424.70 672.49 424.95 666.54 424.50 C 634.74 420.88 602.62 419.85 571.09 414.02 C 531.50 406.56 491.20 404.05 451.00 402.98 C 417.32 402.53 383.56 404.30 349.95 401.34 C 329.59 400.39 309.17 397.67 288.79 399.80 C 278.11 401.22 267.39 402.51 256.61 402.81 C 267.20 401.13 277.90 400.35 288.54 399.01 Z" />
<path fill="#000000" opacity="1.00" d=" M 452.00 455.03 C 486.39 455.90 520.62 451.42 555.00 451.96 C 578.33 452.08 601.67 451.88 625.00 452.03 C 641.33 452.10 657.69 454.02 674.00 452.36 C 673.99 453.02 673.98 454.32 673.97 454.97 C 639.97 455.20 606.00 453.27 572.00 454.00 C 539.62 453.09 507.34 455.64 475.01 456.84 C 418.38 457.38 361.75 456.80 305.14 456.20 C 288.00 456.44 271.14 459.87 254.02 460.23 C 254.02 459.72 254.01 458.71 254.01 458.20 C 270.58 458.31 286.88 454.67 303.45 454.54 C 352.96 453.69 402.47 455.63 452.00 455.03 Z" />
<path fill="#000000" opacity="1.00" d=" M 513.59 471.64 C 537.04 470.40 560.53 471.20 584.00 470.94 C 604.57 470.56 624.94 475.88 645.52 472.96 C 631.43 476.78 616.75 474.61 602.56 472.72 C 572.95 470.78 543.23 472.96 513.59 471.64 Z" />
<path fill="#000000" opacity="1.00" d=" M 545.59 483.60 C 573.46 480.73 601.15 486.49 629.01 484.90 C 637.47 484.67 645.91 483.90 654.37 483.57 C 618.32 489.73 581.83 483.21 545.59 483.60 Z" />
<path fill="#000000" opacity="1.00" d=" M 557.47 494.63 C 560.81 494.45 564.31 494.47 567.68 494.65 C 564.34 495.74 560.83 495.36 557.47 494.63 Z" />
<path fill="#000000" opacity="1.00" d=" M 567.46 496.92 C 566.56 494.47 571.25 494.50 571.50 496.71 C 570.15 496.85 568.80 496.96 567.46 496.92 Z" />
<path fill="#000000" opacity="1.00" d=" M 598.00 494.97 C 611.78 494.93 625.57 494.84 639.34 495.55 C 634.98 495.84 630.61 496.13 626.27 496.34 C 621.75 496.35 617.28 496.33 612.80 496.29 C 607.86 496.18 602.91 496.04 598.00 495.97 L 598.00 494.97 Z" />
<path fill="#000000" opacity="1.00" d=" M 659.72 496.29 C 660.90 496.17 663.25 495.95 664.43 495.83 C 664.49 498.16 660.33 498.36 659.72 496.29 Z" />
<path fill="#000000" opacity="1.00" d=" M 584.67 499.38 C 585.51 498.18 587.91 499.38 587.17 500.77 C 586.31 502.00 583.89 500.79 584.67 499.38 Z" />
<path fill="#000000" opacity="1.00" d=" M 514.59 512.64 C 530.48 511.80 546.46 512.40 562.26 510.32 C 546.78 514.63 530.44 512.90 514.59 512.64 Z" />
<path fill="#000000" opacity="1.00" d=" M 191.56 517.41 C 205.22 516.77 218.91 517.57 232.47 519.26 C 253.05 521.80 273.86 521.19 294.46 523.48 C 307.40 524.99 320.48 524.71 333.40 526.58 C 311.15 527.72 289.17 523.39 267.00 522.90 C 241.77 522.17 216.75 518.69 191.56 517.41 Z" />
<path fill="#000000" opacity="1.00" d=" M 617.62 538.30 C 634.39 534.10 651.92 536.38 669.02 536.12 C 705.03 538.48 741.10 541.49 776.52 548.69 C 793.95 552.33 811.78 549.76 829.40 550.24 C 812.54 550.66 795.42 553.68 778.69 550.22 C 752.31 545.61 725.81 541.28 699.04 539.78 C 672.00 537.41 644.69 535.25 617.62 538.30 Z" />
<path fill="#000000" opacity="1.00" d=" M 252.60 545.75 C 290.51 543.81 328.46 540.40 366.46 542.52 C 390.60 544.89 414.85 545.40 439.05 546.86 C 453.18 547.54 467.34 551.43 481.47 548.71 C 511.95 546.38 542.37 541.79 573.00 542.23 C 593.53 544.89 614.22 547.39 634.96 546.80 C 650.59 546.24 665.90 540.70 681.62 542.78 C 667.03 542.71 652.78 546.01 638.33 547.37 C 615.43 549.59 592.69 545.44 569.95 543.39 C 543.70 542.29 517.69 546.83 491.59 548.67 C 478.89 550.05 466.05 551.61 453.32 549.64 C 428.35 546.22 403.07 547.08 378.01 544.85 C 348.47 541.58 318.66 542.89 289.04 544.28 C 276.94 545.61 264.76 546.35 252.60 545.75 Z" />
<path fill="#000000" opacity="1.00" d=" M 173.63 560.28 C 183.90 558.82 194.36 559.73 204.68 558.71 C 230.17 560.14 255.50 563.62 280.99 565.06 C 320.01 566.98 358.96 570.03 397.99 571.82 C 434.00 571.92 470.03 574.23 506.04 572.41 C 573.71 570.50 641.35 574.39 709.00 575.04 C 745.33 574.61 781.69 575.87 817.99 574.08 C 831.32 573.82 844.65 573.99 857.99 574.00 L 858.00 575.02 C 836.66 575.09 815.31 574.54 794.01 575.78 C 724.98 576.64 655.95 575.76 586.96 573.38 C 540.30 571.62 493.65 574.70 446.99 573.84 C 422.02 572.58 396.99 573.58 372.05 571.74 C 349.57 569.94 327.03 569.20 304.55 567.59 C 270.81 566.39 237.27 562.43 203.66 559.60 C 193.66 559.84 183.61 561.86 173.63 560.28 Z" />
<path fill="#000000" opacity="1.00" d=" M 255.05 575.30 C 274.99 573.46 295.05 574.35 315.04 573.35 C 343.97 572.31 372.95 573.36 401.83 575.33 C 414.87 576.27 427.61 579.56 440.67 580.40 C 493.07 583.15 545.56 581.57 598.01 582.02 C 611.37 581.95 624.63 583.93 637.99 583.93 C 659.35 583.90 680.63 586.81 702.00 585.81 C 726.42 584.56 750.90 585.53 775.30 583.67 C 751.70 587.49 727.72 585.15 703.96 586.66 C 679.92 588.45 656.01 584.79 631.99 584.84 C 567.91 580.65 503.63 585.11 439.53 581.59 C 427.04 580.87 414.90 577.51 402.43 576.59 C 367.02 574.09 331.47 573.11 296.01 574.88 C 270.96 574.29 246.05 577.40 221.01 577.13 L 221.00 576.03 C 232.34 575.92 243.73 576.35 255.05 575.30 Z" />
</g>
<g id="#29adffff">
<path fill="#29adff" opacity="1.00" d=" M 594.92 219.85 C 602.77 216.44 611.16 214.21 619.69 213.39 C 616.46 214.94 613.18 216.33 609.91 217.75 C 629.56 215.45 648.94 224.73 662.82 238.18 C 669.90 244.02 676.55 251.60 677.75 261.05 C 677.06 272.25 674.73 283.29 673.51 294.44 C 671.69 299.75 669.80 305.06 667.18 310.03 C 660.82 316.43 654.36 322.90 646.60 327.61 C 642.05 330.35 636.41 329.46 631.39 329.48 C 616.78 327.88 602.01 325.81 588.13 320.84 C 572.88 312.61 562.42 298.31 550.87 285.85 C 548.90 282.84 546.97 279.80 545.20 276.67 C 542.57 271.76 542.48 265.76 543.20 260.37 C 543.69 258.90 544.25 257.45 544.86 256.03 C 545.90 253.68 547.00 251.36 548.17 249.07 C 549.50 246.64 550.97 244.29 552.37 241.90 C 564.89 231.64 580.21 226.11 594.92 219.85 M 604.42 219.06 C 597.91 220.20 592.08 223.68 585.95 226.03 C 575.35 231.04 563.54 234.47 555.26 243.26 C 549.09 251.06 543.67 261.03 545.66 271.33 C 549.05 282.39 558.08 290.13 565.30 298.71 C 574.79 308.42 584.78 319.78 598.99 321.95 C 609.71 324.57 620.68 325.98 631.58 327.57 C 636.98 328.22 642.93 327.92 647.40 324.47 C 658.86 316.52 670.88 305.55 671.58 290.60 C 672.17 279.98 676.96 269.57 675.12 258.90 C 671.80 247.16 661.31 240.03 652.55 232.48 C 638.77 222.43 621.45 217.52 604.42 219.06 Z" />
</g>
<g id="#83769cff">
<path fill="#83769c" opacity="1.00" d=" M 459.99 282.43 C 467.68 281.63 475.40 281.09 483.07 280.06 C 482.96 281.26 482.84 282.45 482.73 283.65 C 477.99 288.45 471.09 292.09 468.80 298.82 C 468.73 299.19 468.58 299.93 468.50 300.30 C 466.27 311.48 473.94 324.12 467.78 334.59 L 467.76 333.11 C 467.74 332.07 467.74 331.03 467.75 330.00 C 468.45 322.18 467.43 314.50 465.53 306.96 C 465.33 305.83 465.12 304.70 464.92 303.57 C 464.81 302.92 464.58 301.62 464.47 300.97 C 464.36 300.36 464.14 299.15 464.03 298.55 C 468.69 292.57 474.45 287.57 479.96 282.42 C 472.75 283.62 465.41 283.29 458.16 282.68 C 458.62 282.61 459.53 282.49 459.99 282.43 Z" />
<path fill="#83769c" opacity="1.00" d=" M 450.17 301.13 C 451.82 301.04 453.49 300.99 455.16 300.96 C 456.56 305.16 456.77 309.60 456.46 314.00 C 454.00 315.43 451.59 316.96 449.16 318.43 C 448.48 318.81 447.13 319.56 446.46 319.94 L 445.47 320.48 C 446.09 318.44 446.71 316.40 447.56 314.45 C 448.02 313.36 448.51 312.29 449.01 311.22 C 450.48 308.45 451.99 305.69 453.37 302.87 C 452.17 303.49 450.98 304.13 449.80 304.77 C 448.74 305.34 447.68 305.91 446.63 306.47 C 445.58 307.00 444.54 307.52 443.48 308.03 C 445.59 305.62 447.59 303.05 450.17 301.13 Z" />
<path fill="#83769c" opacity="1.00" d=" M 249.26 319.38 C 250.09 321.84 251.48 324.57 250.26 327.16 C 248.37 332.25 241.93 333.78 240.25 339.01 C 240.77 343.80 245.08 346.88 248.79 349.29 C 256.88 354.73 264.67 360.62 272.03 367.01 C 271.11 367.38 270.18 367.75 269.25 368.10 C 261.31 360.72 252.70 354.04 243.44 348.39 C 248.76 355.87 252.97 364.07 256.16 372.66 C 255.69 372.75 254.76 372.94 254.29 373.03 C 251.69 369.16 250.53 364.55 248.24 360.52 C 245.75 356.13 242.91 351.96 240.32 347.64 C 238.05 343.66 233.98 341.27 231.21 337.70 C 232.94 337.61 234.68 337.55 236.42 337.48 C 236.60 336.91 236.94 335.78 237.11 335.21 C 234.42 333.78 231.74 332.36 229.05 330.93 C 229.09 330.10 229.16 328.43 229.20 327.59 C 232.61 329.81 236.00 332.08 239.36 334.39 C 241.91 331.94 245.09 330.16 247.33 327.40 C 248.55 324.90 248.70 322.06 249.26 319.38 Z" />
<path fill="#83769c" opacity="1.00" d=" M 359.68 337.69 C 370.17 335.51 380.28 340.31 388.78 346.01 C 389.58 352.19 391.51 358.11 392.90 364.16 C 393.14 365.17 393.39 366.18 393.69 367.18 C 394.00 368.33 394.33 369.50 394.65 370.67 C 394.05 370.88 392.86 371.30 392.26 371.50 C 391.69 370.21 390.48 369.24 389.08 369.06 C 390.10 364.69 390.07 360.17 389.04 355.81 C 384.33 357.78 379.54 359.53 374.70 361.13 C 374.17 361.32 373.10 361.68 372.57 361.87 L 371.80 362.13 C 372.21 361.13 372.63 360.13 373.05 359.15 C 375.81 358.21 378.57 357.26 381.33 356.30 C 382.51 355.89 383.69 355.47 384.87 355.06 C 384.20 353.75 383.53 352.45 382.87 351.14 C 384.80 351.27 386.74 351.42 388.68 351.55 C 384.90 345.88 379.17 341.50 372.23 340.86 C 369.34 340.49 366.52 340.24 363.66 339.97 C 363.60 338.55 361.63 337.57 360.90 339.10 C 359.73 340.46 358.56 341.81 357.43 343.21 C 354.79 347.09 350.75 350.80 350.46 355.75 C 351.94 360.31 356.03 363.49 359.58 366.52 C 360.32 367.12 361.06 367.73 361.81 368.35 C 362.52 368.95 363.24 369.56 363.96 370.18 C 364.24 370.43 364.82 370.94 365.10 371.19 C 368.96 374.49 373.00 377.61 376.72 381.08 C 371.23 385.12 366.31 389.90 360.72 393.78 C 359.71 393.72 358.81 394.02 358.03 394.67 C 354.12 396.77 349.34 395.24 345.16 395.55 C 336.18 394.54 327.15 394.49 318.14 394.22 C 310.95 393.71 304.25 390.37 296.98 390.45 C 290.23 389.39 282.68 391.24 276.54 387.59 C 269.23 383.56 261.38 380.43 254.75 375.27 C 255.93 375.03 257.10 374.78 258.27 374.50 C 264.86 379.72 272.55 383.18 280.11 386.69 C 288.26 388.37 296.74 387.94 304.95 389.46 C 311.63 390.36 318.22 392.41 325.02 392.24 C 329.92 392.26 334.81 392.42 339.73 392.62 C 345.18 392.91 350.73 394.00 356.16 392.84 C 358.79 392.30 361.09 390.74 363.03 388.94 C 366.19 385.88 369.54 383.04 373.10 380.47 C 370.54 378.63 367.97 376.78 365.47 374.89 C 365.18 374.65 364.59 374.17 364.30 373.93 C 363.29 373.12 362.28 372.31 361.30 371.48 C 361.03 371.23 360.49 370.75 360.23 370.50 C 355.74 366.44 350.59 362.47 348.37 356.66 C 347.80 351.51 351.56 347.21 354.07 343.07 C 354.40 342.62 355.05 341.73 355.38 341.28 C 356.54 339.81 357.90 338.39 359.68 337.69 Z" />
<path fill="#83769c" opacity="1.00" d=" M 278.81 352.25 C 282.58 353.55 285.07 356.69 287.25 359.85 C 286.31 360.29 285.38 360.74 284.46 361.21 C 282.52 358.26 280.51 355.35 278.81 352.25 Z" />
<path fill="#83769c" opacity="1.00" d=" M 287.41 362.61 C 287.78 362.42 288.54 362.04 288.91 361.85 C 288.91 363.61 288.91 367.13 288.90 368.89 C 285.92 370.53 283.02 372.37 279.93 373.81 C 276.82 373.24 274.18 371.36 271.44 369.89 C 272.50 369.46 273.56 369.03 274.61 368.59 C 276.60 369.94 278.60 371.28 280.59 372.63 C 283.04 369.41 285.58 366.24 287.41 362.61 Z" />
</g>
<g id="#00e436ff">
<path fill="#00e436" opacity="1.00" d=" M 708.02 332.05 C 711.75 327.92 714.74 323.08 719.01 319.43 C 717.26 323.16 715.26 326.76 713.29 330.38 C 715.60 328.43 717.83 326.38 720.19 324.48 C 719.76 336.42 709.88 344.07 704.56 353.85 C 712.45 348.07 720.23 342.11 728.48 336.84 C 725.34 346.26 717.95 353.29 712.91 361.64 C 721.28 358.28 725.56 349.51 733.29 345.21 C 731.56 352.10 727.12 358.01 725.81 365.01 C 727.24 365.56 729.09 366.63 730.56 365.58 C 738.28 359.37 743.60 350.53 752.00 345.11 C 750.86 352.71 748.75 360.13 747.75 367.77 C 748.40 368.20 749.70 369.06 750.35 369.49 C 755.99 364.04 760.88 357.73 763.29 350.18 C 764.04 350.16 765.55 350.11 766.30 350.08 C 764.81 353.90 762.93 357.58 761.81 361.53 C 758.83 367.25 765.77 371.71 770.63 370.76 C 776.15 364.71 779.82 357.06 782.09 349.24 C 783.11 343.73 784.68 335.10 778.10 332.36 C 779.82 331.66 781.54 330.99 783.29 330.35 C 784.27 338.07 786.29 346.48 782.99 353.93 C 780.19 360.69 777.09 367.77 771.57 372.75 C 765.74 374.13 759.96 370.41 758.53 364.78 C 754.73 368.09 750.61 372.39 745.38 369.59 C 745.98 362.92 747.23 356.33 748.80 349.83 C 743.82 355.18 739.16 360.85 733.78 365.81 C 731.23 368.38 725.98 369.34 724.14 365.64 C 723.56 360.97 726.16 357.04 728.13 353.10 C 723.06 357.90 717.40 362.42 710.21 363.38 C 713.85 355.63 719.19 348.94 724.32 342.15 C 716.35 347.22 709.90 355.45 700.34 357.54 C 704.35 347.26 713.63 340.22 717.28 329.71 C 709.05 334.94 704.92 346.31 694.35 347.43 C 697.63 341.26 703.54 337.25 708.02 332.05 M 704.14 339.11 C 702.81 339.79 702.80 340.47 704.11 341.14 C 705.42 340.45 705.43 339.78 704.14 339.11 Z" />
<path fill="#00e436" opacity="1.00" d=" M 705.05 395.81 C 709.16 396.19 713.34 396.59 717.50 396.93 C 715.68 405.51 712.46 413.90 712.99 422.84 C 716.45 430.73 725.24 431.55 732.76 431.24 C 733.43 430.38 734.10 429.52 734.79 428.67 C 735.05 421.61 735.52 414.59 735.59 407.54 C 736.63 409.19 737.64 410.87 738.63 412.57 C 742.40 412.64 746.19 412.64 749.97 412.84 C 750.36 415.23 750.75 417.62 751.14 420.02 C 748.46 421.81 745.70 423.48 742.90 425.06 C 745.84 425.34 748.93 425.74 751.91 426.08 C 755.56 419.95 758.03 412.84 763.22 407.81 C 764.31 409.32 766.49 412.34 767.58 413.85 C 774.91 412.70 782.12 410.54 789.60 410.43 C 792.74 411.07 794.95 413.60 797.23 415.66 C 807.56 411.85 818.34 409.61 828.98 406.87 C 828.96 407.60 828.93 409.05 828.91 409.78 C 817.57 411.53 806.52 414.55 795.79 418.57 C 793.99 416.39 792.55 413.07 789.36 412.81 C 786.19 412.55 783.11 412.73 779.97 412.80 C 780.77 415.68 781.59 418.57 782.37 421.46 C 779.03 422.39 775.78 423.94 772.26 423.94 C 770.43 421.38 770.34 418.18 770.29 415.16 C 769.39 415.51 768.49 415.87 767.61 416.24 C 767.14 425.15 766.55 434.26 763.78 442.79 C 761.65 444.46 759.35 445.86 756.98 447.13 C 755.97 440.37 755.30 433.58 754.82 426.78 C 749.12 428.15 743.41 426.98 738.18 424.61 C 738.41 430.70 738.35 436.79 738.13 442.90 C 737.05 439.50 736.36 435.99 735.59 432.53 C 728.94 432.59 720.97 434.81 715.65 429.39 C 710.31 426.64 711.34 419.97 710.50 415.03 C 709.23 417.30 707.93 419.54 706.63 421.80 C 702.32 420.52 694.77 418.47 697.02 412.00 C 696.35 405.35 701.64 400.74 705.05 395.81 M 706.32 397.27 C 702.94 402.91 697.32 408.46 699.11 415.65 C 701.00 417.51 703.46 418.60 705.80 419.81 C 708.83 413.36 711.41 406.64 712.72 399.61 C 713.74 399.72 714.75 399.82 715.80 399.93 C 712.79 398.62 709.50 397.87 706.32 397.27 M 762.24 412.37 C 760.87 414.19 759.85 416.25 758.79 418.27 C 761.11 416.97 763.35 415.55 765.60 414.14 C 764.48 413.52 763.39 412.88 762.24 412.37 M 737.06 421.14 C 739.58 421.35 742.14 421.88 744.69 421.52 C 747.41 420.87 748.60 418.02 750.12 415.98 C 745.20 413.52 736.80 413.00 737.06 421.14 M 771.50 417.06 C 772.31 418.78 773.14 420.51 773.97 422.24 C 775.94 421.44 777.92 420.63 779.90 419.83 C 779.22 418.09 778.54 416.35 777.85 414.62 C 775.73 415.43 773.62 416.25 771.50 417.06 M 757.19 427.13 C 756.63 433.06 757.43 439.13 759.06 444.85 C 760.42 443.01 762.19 441.29 762.73 438.98 C 764.31 431.59 765.56 424.05 765.44 416.47 C 761.75 419.13 757.91 422.36 757.19 427.13 Z" />
</g>
<g id="#ab5236ff">
<path fill="#ab5236" opacity="1.00" d=" M 780.97 437.26 C 786.60 443.06 790.77 450.14 793.94 457.55 C 799.23 456.47 804.52 455.04 809.98 455.03 C 813.17 455.76 815.77 458.06 818.70 459.49 C 821.39 450.44 826.67 441.26 836.26 438.39 C 833.98 446.84 830.20 454.80 827.36 463.06 C 830.67 470.96 835.29 480.00 831.59 488.60 C 824.62 502.67 809.42 509.63 796.08 516.31 C 796.13 515.61 796.24 514.21 796.29 513.50 C 806.61 509.11 816.16 503.00 824.55 495.55 C 832.52 487.74 833.62 472.41 823.90 465.57 C 826.90 457.91 829.97 450.27 832.79 442.54 C 825.42 446.93 822.40 455.38 819.65 463.03 C 815.08 460.45 810.85 456.02 805.14 457.16 C 800.79 458.31 796.64 459.95 792.58 461.83 C 790.43 454.71 787.32 447.62 781.94 442.34 C 780.97 449.65 784.66 456.13 789.65 461.04 C 782.89 470.68 790.16 481.56 791.81 491.71 C 785.08 483.35 783.13 471.54 785.79 461.25 C 779.91 454.52 779.54 445.64 780.97 437.26 Z" />
<path fill="#ab5236" opacity="1.00" d=" M 795.05 469.05 C 797.87 468.73 800.38 468.22 803.32 467.98 C 802.89 469.68 802.51 471.40 802.18 473.13 C 800.38 473.10 796.78 473.03 794.98 472.99 C 794.99 471.67 795.02 470.36 795.05 469.05 Z" />
<path fill="#ab5236" opacity="1.00" d=" M 811.22 473.25 C 813.81 472.78 816.41 472.31 819.01 471.86 C 819.38 474.54 819.78 477.22 820.19 479.91 C 815.46 480.86 812.60 477.29 811.22 473.25 M 816.17 474.67 C 814.74 475.50 815.88 478.32 817.49 477.30 C 818.94 476.47 817.75 473.72 816.17 474.67 Z" />
<path fill="#ab5236" opacity="1.00" d=" M 797.89 483.41 C 800.16 486.84 801.91 490.60 804.38 493.92 C 808.88 494.15 811.65 489.86 815.12 487.69 C 813.42 490.83 811.58 493.89 809.88 497.03 C 806.86 495.49 800.73 496.74 799.95 492.04 C 798.77 489.29 798.30 486.34 797.89 483.41 Z" />
</g>
</svg>
