<?xml version="1.0" encoding="UTF-8" ?>
<!DOCTYPE svg PUBLIC "-//W3C//DTD SVG 1.1//EN" "http://www.w3.org/Graphics/SVG/1.1/DTD/svg11.dtd">
<svg width="500pt" height="120pt" viewBox="0 0 500 120" version="1.1" xmlns="http://www.w3.org/2000/svg">
<g id="#00110afa">
<path fill="#00110a" opacity="0.98" d=" M 102.32 8.30 C 108.86 7.15 112.90 15.19 112.00 20.77 C 109.76 22.97 107.06 24.86 104.06 25.87 C 100.05 23.88 95.99 20.01 96.99 14.99 C 97.13 11.95 99.45 9.22 102.32 8.30 M 103.19 9.39 C 96.61 11.24 97.29 19.92 102.23 23.35 C 103.15 23.93 104.07 24.51 104.99 25.09 C 105.53 23.99 106.07 22.88 106.60 21.77 C 107.96 22.58 108.75 22.20 108.96 20.63 C 109.53 20.84 110.67 21.25 111.23 21.46 C 110.86 16.81 109.11 9.53 103.19 9.39 Z" />
</g>
<g id="#008651ff">
<path fill="#008651" opacity="1.00" d=" M 103.19 9.39 C 109.11 9.53 110.86 16.81 111.23 21.46 C 110.67 21.25 109.53 20.84 108.96 20.63 C 108.47 20.44 107.99 20.25 107.51 20.06 C 106.37 16.99 104.96 14.04 103.12 11.32 C 102.25 15.27 101.96 19.32 102.23 23.35 C 97.29 19.92 96.61 11.24 103.19 9.39 Z" />
<path fill="#008651" opacity="1.00" d=" M 108.78 37.87 C 109.88 33.86 114.45 28.81 118.69 32.28 C 124.69 36.46 121.39 44.81 117.64 49.47 C 117.08 45.59 117.82 41.60 120.56 38.66 C 119.83 39.05 119.10 39.44 118.37 39.83 C 118.37 38.14 118.36 36.44 118.33 34.74 C 115.10 36.55 112.04 39.08 112.77 43.46 C 112.35 43.23 111.93 43.00 111.51 42.77 C 112.43 44.92 113.30 47.08 114.06 49.28 C 109.70 47.40 106.96 42.49 108.78 37.87 Z" />
<path fill="#008651" opacity="1.00" d=" M 84.24 36.32 C 86.22 32.27 93.58 33.14 94.78 37.39 C 96.84 42.92 91.21 44.64 87.56 46.27 C 88.68 43.19 89.58 40.03 90.28 36.83 C 88.71 37.20 87.15 37.58 85.58 37.97 C 85.20 40.17 84.74 42.35 84.39 44.56 C 83.86 41.89 82.60 38.85 84.24 36.32 Z" />
<path fill="#008651" opacity="1.00" d=" M 89.43 59.59 C 89.32 54.33 93.70 51.80 97.89 50.33 C 99.68 54.33 102.93 59.80 97.88 62.87 C 97.53 59.79 97.32 56.69 97.15 53.59 C 96.18 53.52 95.21 53.45 94.24 53.38 C 94.04 56.27 93.86 59.16 93.78 62.05 C 92.33 61.23 90.88 60.41 89.43 59.59 Z" />
<path fill="#008651" opacity="1.00" d=" M 107.59 64.28 C 110.14 62.79 112.68 61.28 115.22 59.77 C 120.07 62.05 123.62 66.30 123.64 71.96 C 121.13 73.12 118.59 74.23 116.00 75.23 C 116.33 71.21 116.06 67.16 115.57 63.16 C 113.15 66.01 111.75 69.54 111.76 73.29 C 108.77 71.25 107.69 67.85 107.59 64.28 Z" />
<path fill="#008651" opacity="1.00" d=" M 84.55 72.65 C 86.86 66.12 96.89 68.36 99.10 73.94 C 101.65 78.43 97.40 82.90 93.34 84.39 C 93.93 79.95 93.71 75.46 92.77 71.08 C 90.21 74.30 88.80 78.31 89.48 82.43 C 86.78 79.99 82.42 76.81 84.55 72.65 Z" />
</g>
<g id="#45c274ff">
<path fill="#45c274" opacity="1.00" d=" M 103.12 11.32 C 104.96 14.04 106.37 16.99 107.51 20.06 C 107.99 20.25 108.47 20.44 108.96 20.63 C 107.81 20.25 107.02 20.63 106.60 21.77 C 106.07 22.88 105.53 23.99 104.99 25.09 C 104.07 24.51 103.15 23.93 102.23 23.35 C 101.96 19.32 102.25 15.27 103.12 11.32 Z" />
<path fill="#45c274" opacity="1.00" d=" M 133.83 27.39 C 135.54 27.62 137.25 27.86 138.97 28.09 C 139.73 32.37 140.70 36.60 141.62 40.84 C 141.71 41.31 141.89 42.23 141.98 42.69 C 141.07 41.80 140.14 40.93 139.32 39.95 C 136.41 36.33 134.48 32.00 133.83 27.39 Z" />
<path fill="#45c274" opacity="1.00" d=" M 112.77 43.46 C 112.04 39.08 115.10 36.55 118.33 34.74 C 118.36 36.44 118.37 38.14 118.37 39.83 C 119.10 39.44 119.83 39.05 120.56 38.66 C 117.82 41.60 117.08 45.59 117.64 49.47 C 117.66 49.86 117.71 50.65 117.73 51.04 C 116.69 50.98 115.65 50.91 114.61 50.85 C 114.48 50.46 114.20 49.67 114.06 49.28 C 113.30 47.08 112.43 44.92 111.51 42.77 C 111.93 43.00 112.35 43.23 112.77 43.46 Z" />
<path fill="#45c274" opacity="1.00" d=" M 136.91 47.58 C 138.74 49.30 140.67 50.93 142.70 52.41 C 141.16 55.74 139.68 59.10 137.81 62.27 C 136.21 63.74 134.46 65.05 132.68 66.30 C 132.76 64.48 132.83 62.66 133.04 60.85 C 134.24 56.40 135.68 52.02 136.91 47.58 Z" />
<path fill="#45c274" opacity="1.00" d=" M 111.76 73.29 C 111.75 69.54 113.15 66.01 115.57 63.16 C 116.06 67.16 116.33 71.21 116.00 75.23 C 115.62 76.69 114.36 77.69 113.49 78.87 C 112.89 77.02 112.19 75.19 111.76 73.29 Z" />
<path fill="#45c274" opacity="1.00" d=" M 89.48 82.43 C 88.80 78.31 90.21 74.30 92.77 71.08 C 93.71 75.46 93.93 79.95 93.34 84.39 L 93.27 85.15 C 92.37 85.09 90.56 84.98 89.65 84.92 C 89.61 84.30 89.52 83.05 89.48 82.43 Z" />
</g>
<g id="#008751ff">
<path fill="#008751" opacity="1.00" d=" M 106.60 21.77 C 107.02 20.63 107.81 20.25 108.96 20.63 C 108.75 22.20 107.96 22.58 106.60 21.77 Z" />
<path fill="#008751" opacity="1.00" d=" M 132.91 45.13 C 140.97 43.21 147.88 51.03 147.92 58.68 C 145.72 62.00 141.25 61.67 137.81 62.27 C 139.68 59.10 141.16 55.74 142.70 52.41 C 140.67 50.93 138.74 49.30 136.91 47.58 C 135.68 52.02 134.24 56.40 133.04 60.85 C 131.66 58.95 130.00 57.13 129.33 54.83 C 129.43 51.95 130.96 49.39 132.08 46.81 C 132.29 46.39 132.70 45.55 132.91 45.13 Z" />
</g>
<g id="#00190fff">
<path fill="#00190f" opacity="1.00" d=" M 136.24 22.54 C 142.04 22.95 148.83 27.99 146.66 34.66 C 146.23 38.09 143.26 44.99 138.99 42.07 C 134.92 39.25 129.87 36.17 129.09 30.86 C 128.53 26.66 132.69 23.65 136.24 22.54 M 130.22 29.98 C 130.48 35.07 135.57 37.50 139.32 39.95 C 140.14 40.93 141.07 41.80 141.98 42.69 C 141.89 42.23 141.71 41.31 141.62 40.84 C 144.17 38.31 146.39 34.90 145.83 31.14 C 144.75 27.27 140.80 24.60 137.01 24.01 C 133.97 24.48 130.75 26.80 130.22 29.98 Z" />
</g>
<g id="#018851ff">
<path fill="#018851" opacity="1.00" d=" M 130.22 29.98 C 130.75 26.80 133.97 24.48 137.01 24.01 C 140.80 24.60 144.75 27.27 145.83 31.14 C 146.39 34.90 144.17 38.31 141.62 40.84 C 140.70 36.60 139.73 32.37 138.97 28.09 C 137.25 27.86 135.54 27.62 133.83 27.39 C 134.48 32.00 136.41 36.33 139.32 39.95 C 135.57 37.50 130.48 35.07 130.22 29.98 Z" />
</g>
<g id="#000a06ff">
<path fill="#000a06" opacity="1.00" d=" M 108.94 47.04 C 105.29 41.09 107.89 32.45 114.06 29.30 C 117.64 29.73 121.66 31.66 122.67 35.42 C 124.70 41.62 120.56 46.92 118.48 52.40 C 113.99 53.74 111.22 50.04 108.94 47.04 M 108.78 37.87 C 106.96 42.49 109.70 47.40 114.06 49.28 C 114.20 49.67 114.48 50.46 114.61 50.85 C 115.65 50.91 116.69 50.98 117.73 51.04 C 117.71 50.65 117.66 49.86 117.64 49.47 C 121.39 44.81 124.69 36.46 118.69 32.28 C 114.45 28.81 109.88 33.86 108.78 37.87 Z" />
</g>
<g id="#00160dff">
<path fill="#00160d" opacity="1.00" d=" M 83.73 34.73 C 87.70 29.14 98.63 33.75 96.04 40.98 C 95.78 45.65 90.63 46.76 86.92 47.48 C 87.08 47.18 87.40 46.57 87.56 46.27 C 91.21 44.64 96.84 42.92 94.78 37.39 C 93.58 33.14 86.22 32.27 84.24 36.32 C 82.60 38.85 83.86 41.89 84.39 44.56 C 84.51 45.01 84.74 45.90 84.85 46.35 C 82.03 43.27 80.69 38.08 83.73 34.73 Z" />
</g>
<g id="#46c273ff">
<path fill="#46c273" opacity="1.00" d=" M 85.58 37.97 C 87.15 37.58 88.71 37.20 90.28 36.83 C 89.58 40.03 88.68 43.19 87.56 46.27 C 87.40 46.57 87.08 47.18 86.92 47.48 C 86.68 47.93 86.19 48.83 85.94 49.28 C 85.56 48.31 85.17 47.34 84.85 46.35 C 84.74 45.90 84.51 45.01 84.39 44.56 C 84.74 42.35 85.20 40.17 85.58 37.97 Z" />
<path fill="#46c273" opacity="1.00" d=" M 94.24 53.38 C 95.21 53.45 96.18 53.52 97.15 53.59 C 97.32 56.69 97.53 59.79 97.88 62.87 C 97.91 63.16 97.97 63.75 98.00 64.04 C 96.57 64.01 95.15 63.99 93.72 63.97 C 93.74 63.49 93.77 62.53 93.78 62.05 C 93.86 59.16 94.04 56.27 94.24 53.38 Z" />
</g>
<g id="#00180eff">
<path fill="#00180e" opacity="1.00" d=" M 129.49 45.49 C 134.87 41.41 142.37 43.73 145.86 49.12 C 147.73 52.14 151.23 56.09 148.74 59.69 C 146.64 63.29 141.95 62.63 138.37 63.49 C 137.84 64.96 137.30 66.42 136.77 67.89 C 135.08 67.25 133.41 66.57 131.73 65.88 C 131.31 61.09 128.33 57.00 128.09 52.16 C 128.95 50.07 130.59 48.46 132.08 46.81 C 130.96 49.39 129.43 51.95 129.33 54.83 C 130.00 57.13 131.66 58.95 133.04 60.85 C 132.83 62.66 132.76 64.48 132.68 66.30 C 134.46 65.05 136.21 63.74 137.81 62.27 C 141.25 61.67 145.72 62.00 147.92 58.68 C 147.88 51.03 140.97 43.21 132.91 45.13 C 131.77 45.23 130.62 45.37 129.49 45.49 Z" />
</g>
<g id="#000b07ff">
<path fill="#000b07" opacity="1.00" d=" M 88.24 58.00 C 88.33 52.65 94.06 50.75 97.88 48.46 C 100.73 52.83 104.42 60.24 99.05 64.13 C 94.32 67.32 89.56 62.20 88.24 58.00 M 89.43 59.59 C 90.88 60.41 92.33 61.23 93.78 62.05 C 93.77 62.53 93.74 63.49 93.72 63.97 C 95.15 63.99 96.57 64.01 98.00 64.04 C 97.97 63.75 97.91 63.16 97.88 62.87 C 102.93 59.80 99.68 54.33 97.89 50.33 C 93.70 51.80 89.32 54.33 89.43 59.59 Z" />
</g>
<g id="#00110aff">
<path fill="#00110a" opacity="1.00" d=" M 108.52 59.00 C 112.47 58.55 116.78 58.21 119.98 61.03 C 124.04 63.46 123.69 68.65 124.23 72.74 C 120.59 74.76 117.38 77.72 113.37 78.98 C 109.78 74.66 105.64 69.43 107.24 63.39 C 108.60 62.05 110.28 61.09 111.89 60.06 C 111.04 59.80 109.36 59.26 108.52 59.00 M 107.59 64.28 C 107.69 67.85 108.77 71.25 111.76 73.29 C 112.19 75.19 112.89 77.02 113.49 78.87 C 114.36 77.69 115.62 76.69 116.00 75.23 C 118.59 74.23 121.13 73.12 123.64 71.96 C 123.62 66.30 120.07 62.05 115.22 59.77 C 112.68 61.28 110.14 62.79 107.59 64.28 Z" />
</g>
<g id="#00130bfb">
<path fill="#00130b" opacity="1.00" d=" M 86.37 68.15 C 91.72 67.22 97.60 67.32 100.01 73.02 C 103.22 79.12 97.86 85.16 92.20 86.75 C 89.00 85.15 86.66 82.27 84.49 79.50 C 81.76 76.04 82.77 70.56 86.37 68.15 M 84.55 72.65 C 82.42 76.81 86.78 79.99 89.48 82.43 C 89.52 83.05 89.61 84.30 89.65 84.92 C 90.56 84.98 92.37 85.09 93.27 85.15 L 93.34 84.39 C 97.40 82.90 101.65 78.43 99.10 73.94 C 96.89 68.36 86.86 66.12 84.55 72.65 Z" />
</g>
</svg>
