<?xml version="1.0" encoding="UTF-8" ?>
<!DOCTYPE svg PUBLIC "-//W3C//DTD SVG 1.1//EN" "http://www.w3.org/Graphics/SVG/1.1/DTD/svg11.dtd">
<svg width="500pt" height="120pt" viewBox="0 0 500 120" version="1.1" xmlns="http://www.w3.org/2000/svg">
<g id="#000000ff">
<path fill="#000000" opacity="1.00" d=" M 296.38 6.77 C 299.61 5.18 303.13 4.37 306.61 3.46 C 303.41 5.12 299.96 6.30 296.38 6.77 Z" />
<path fill="#000000" opacity="1.00" d=" M 311.61 3.69 C 314.41 3.41 317.21 3.13 320.02 2.87 C 319.99 3.51 319.94 4.77 319.91 5.40 C 317.09 4.86 314.39 4.31 311.61 3.69 Z" />
<path fill="#000000" opacity="1.00" d=" M 72.55 6.53 C 75.72 5.21 79.15 4.38 82.55 5.29 C 79.25 5.87 75.89 6.20 72.55 6.53 Z" />
<path fill="#000000" opacity="1.00" d=" M 85.19 4.64 C 88.97 3.82 92.62 4.73 95.61 6.92 C 92.11 6.31 88.65 5.43 85.19 4.64 Z" />
<path fill="#000000" opacity="1.00" d=" M 231.46 5.53 C 235.76 5.34 240.07 6.26 243.58 8.85 C 239.41 8.28 235.40 6.96 231.46 5.53 Z" />
<path fill="#000000" opacity="1.00" d=" M 41.52 8.43 C 42.80 7.59 44.06 6.73 45.33 5.88 C 46.79 7.58 48.24 9.29 49.69 10.99 C 50.24 9.64 50.80 8.29 51.36 6.94 C 52.56 8.27 53.75 9.61 54.94 10.95 C 56.07 9.90 57.19 8.83 58.34 7.80 C 58.08 11.98 60.34 19.16 54.63 20.40 C 51.93 20.86 48.81 22.05 46.22 20.73 C 42.55 17.01 40.38 11.77 40.63 6.52 C 41.06 7.44 41.47 8.36 41.88 9.29 C 43.19 12.34 44.61 15.37 46.44 18.15 C 49.51 19.32 52.88 19.11 56.10 19.42 C 56.85 16.61 57.61 13.81 58.36 11.01 C 57.23 11.95 56.09 12.89 54.96 13.84 C 53.77 12.47 52.58 11.10 51.37 9.74 C 51.28 11.03 51.18 12.32 51.07 13.61 C 48.23 11.33 45.13 9.26 41.52 8.43 Z" />
<path fill="#000000" opacity="1.00" d=" M 382.65 10.13 C 384.62 8.32 386.83 6.80 389.27 5.67 C 387.21 7.38 385.01 8.90 382.65 10.13 Z" />
<path fill="#000000" opacity="1.00" d=" M 214.53 11.74 C 219.01 9.78 223.67 8.23 228.41 7.02 C 224.15 9.57 219.37 10.88 214.53 11.74 Z" />
<path fill="#000000" opacity="1.00" d=" M 453.66 8.13 C 459.69 7.44 466.36 5.75 471.79 9.38 C 465.73 9.30 459.70 8.51 453.66 8.13 Z" />
<path fill="#000000" opacity="1.00" d=" M 300.22 7.83 C 302.28 8.24 304.33 8.69 306.38 9.14 C 305.38 10.94 304.35 12.72 303.30 14.50 C 301.92 13.29 300.54 12.08 299.13 10.91 C 299.49 9.88 299.85 8.85 300.22 7.83 M 301.38 9.38 C 300.01 10.71 302.29 12.99 303.62 11.62 C 304.98 10.29 302.71 8.01 301.38 9.38 Z" />
<path fill="#000000" opacity="1.00" d=" M 391.97 7.70 C 394.53 9.35 396.93 11.23 399.08 13.38 C 396.62 11.60 394.27 9.68 391.97 7.70 Z" />
<path fill="#000000" opacity="1.00" d=" M 481.55 8.08 C 485.45 8.22 489.41 8.38 493.28 9.04 C 489.05 9.67 484.76 10.01 480.73 11.50 C 481.00 10.36 481.27 9.22 481.55 8.08 Z" />
<path fill="#000000" opacity="1.00" d=" M 76.51 8.81 C 78.67 9.36 80.84 9.92 83.01 10.47 C 80.66 11.51 78.31 12.61 76.02 13.76 C 76.17 12.11 76.34 10.46 76.51 8.81 Z" />
<path fill="#000000" opacity="1.00" d=" M 87.86 9.04 C 89.25 9.02 90.63 9.00 92.02 8.98 C 92.00 10.36 91.97 11.75 91.96 13.14 C 90.79 12.95 89.62 12.75 88.45 12.55 C 88.25 11.38 88.05 10.21 87.86 9.04 Z" />
<path fill="#000000" opacity="1.00" d=" M 312.00 8.67 C 314.52 9.00 316.99 9.56 319.41 10.34 C 319.62 11.97 320.02 15.22 320.22 16.85 C 316.01 15.94 313.03 12.81 312.00 8.67 M 313.44 10.20 C 315.02 12.12 316.73 13.93 318.57 15.61 C 318.73 14.03 318.90 12.45 319.08 10.88 C 317.20 10.63 315.32 10.41 313.44 10.20 Z" />
<path fill="#000000" opacity="1.00" d=" M 138.38 12.24 C 141.40 11.57 144.50 11.69 147.54 12.14 C 144.48 12.28 141.43 12.31 138.38 12.24 Z" />
<path fill="#000000" opacity="1.00" d=" M 153.38 12.66 C 156.02 11.80 158.77 11.40 161.53 11.22 C 158.89 12.07 156.14 12.50 153.38 12.66 Z" />
<path fill="#000000" opacity="1.00" d=" M 85.25 12.44 C 88.98 15.29 93.29 17.49 98.18 17.22 C 95.57 17.38 92.93 17.84 90.31 17.47 C 87.96 16.65 86.75 14.25 85.25 12.44 Z" />
<path fill="#000000" opacity="1.00" d=" M 234.80 13.95 C 237.60 13.41 240.44 12.86 243.28 12.45 C 240.48 13.10 237.64 13.57 234.80 13.95 Z" />
<path fill="#000000" opacity="1.00" d=" M 72.50 17.66 C 76.66 16.67 80.79 15.50 84.54 13.39 C 82.00 17.65 77.09 18.72 72.50 17.66 Z" />
<path fill="#000000" opacity="1.00" d=" M 465.97 16.40 C 466.46 15.13 466.99 13.87 467.53 12.62 C 468.53 14.03 469.46 15.50 470.36 16.99 C 468.89 16.81 467.42 16.61 465.97 16.40 Z" />
<path fill="#000000" opacity="1.00" d=" M 218.81 14.78 C 221.62 14.73 224.42 14.61 227.23 14.67 C 224.43 14.78 221.61 14.84 218.81 14.78 Z" />
<path fill="#000000" opacity="1.00" d=" M 482.60 18.84 C 483.21 17.46 483.85 16.08 484.49 14.70 C 485.07 16.13 485.65 17.55 486.22 18.98 C 485.31 18.95 483.50 18.87 482.60 18.84 Z" />
<path fill="#000000" opacity="1.00" d=" M 141.86 16.05 C 143.57 16.02 145.29 16.00 147.01 15.98 C 147.00 16.77 146.98 18.35 146.97 19.14 C 145.48 18.98 144.00 18.80 142.52 18.58 C 142.36 17.94 142.02 16.68 141.86 16.05 Z" />
<path fill="#000000" opacity="1.00" d=" M 385.01 18.86 C 383.22 18.21 384.21 15.18 386.05 15.97 C 387.89 16.57 386.84 19.67 385.01 18.86 Z" />
<path fill="#000000" opacity="1.00" d=" M 155.55 17.42 C 156.03 17.42 156.99 17.42 157.47 17.42 C 157.70 18.60 157.93 19.78 158.17 20.96 C 157.10 20.55 156.04 20.15 154.98 19.75 C 155.12 19.17 155.40 18.00 155.55 17.42 Z" />
<path fill="#000000" opacity="1.00" d=" M 391.44 17.32 C 392.85 17.31 394.28 17.30 395.70 17.30 C 395.69 18.72 395.68 20.14 395.68 21.56 C 394.22 20.19 392.80 18.78 391.44 17.32 Z" />
<path fill="#000000" opacity="1.00" d=" M 461.83 19.85 C 465.58 18.91 469.44 18.25 473.16 17.16 C 472.28 17.84 471.41 18.53 470.55 19.22 C 472.60 20.65 475.88 21.49 476.22 24.40 C 476.50 26.23 477.07 29.90 477.35 31.73 C 475.32 31.07 473.21 30.56 471.35 29.49 C 469.29 26.84 468.67 23.46 467.81 20.30 C 466.32 20.19 463.33 19.96 461.83 19.85 M 468.78 20.76 C 470.17 24.83 472.40 28.60 476.00 31.06 C 475.85 28.39 475.40 25.80 474.64 23.27 C 472.95 21.92 470.78 21.44 468.78 20.76 Z" />
<path fill="#000000" opacity="1.00" d=" M 298.84 18.07 C 299.63 18.05 301.22 18.01 302.02 17.98 C 301.99 18.78 301.95 20.37 301.93 21.16 C 301.34 20.98 300.16 20.62 299.56 20.44 C 299.38 19.84 299.02 18.66 298.84 18.07 Z" />
<path fill="#000000" opacity="1.00" d=" M 309.19 17.53 C 310.64 18.54 312.09 19.56 313.51 20.61 C 312.15 20.65 310.78 20.69 309.42 20.71 C 309.36 19.92 309.24 18.33 309.19 17.53 Z" />
<path fill="#000000" opacity="1.00" d=" M 138.59 21.13 C 142.59 20.94 146.58 20.50 150.58 20.34 C 146.59 20.70 142.58 20.90 138.59 21.13 Z" />
<path fill="#000000" opacity="1.00" d=" M 223.92 18.91 C 225.11 19.09 226.30 19.27 227.49 19.45 C 227.63 20.11 227.93 21.43 228.08 22.09 C 226.89 21.91 225.70 21.73 224.51 21.55 C 224.37 20.89 224.07 19.57 223.92 18.91 Z" />
<path fill="#000000" opacity="1.00" d=" M 236.92 18.91 C 238.11 19.09 239.30 19.27 240.50 19.46 C 240.65 20.08 240.96 21.32 241.11 21.94 C 240.14 22.34 239.17 22.74 238.20 23.14 C 237.77 21.73 237.33 20.32 236.92 18.91 Z" />
<path fill="#000000" opacity="1.00" d=" M 385.89 21.15 C 383.54 21.91 381.62 18.23 385.01 18.86 C 386.40 18.71 388.15 21.05 385.89 21.15 Z" />
<path fill="#000000" opacity="1.00" d=" M 481.68 20.76 C 485.22 20.38 488.83 20.02 492.40 19.72 C 488.82 20.10 485.24 20.45 481.68 20.76 Z" />
<path fill="#000000" opacity="1.00" d=" M 152.65 20.60 C 155.48 21.09 158.31 21.55 161.17 21.82 C 159.19 22.24 157.22 22.64 155.24 23.02 C 154.37 22.21 153.51 21.41 152.65 20.60 Z" />
<path fill="#000000" opacity="1.00" d=" M 196.53 21.11 C 199.99 21.98 203.57 23.10 207.13 22.02 C 207.54 23.33 207.92 24.64 208.32 25.96 C 210.40 24.35 212.51 22.78 214.73 21.38 C 215.15 24.61 215.65 27.83 216.15 31.06 C 211.49 32.80 206.55 34.52 201.49 33.68 C 197.63 30.76 197.46 25.40 196.53 21.11 M 197.70 21.91 C 199.02 25.74 199.22 30.76 203.13 32.96 C 207.14 33.40 211.46 32.33 214.47 29.56 C 214.76 27.31 214.44 25.03 214.28 22.78 C 212.23 24.57 210.24 26.41 208.21 28.21 C 207.60 26.76 206.99 25.31 206.39 23.86 C 205.76 24.68 205.13 25.50 204.51 26.32 C 202.24 24.84 199.98 23.36 197.70 21.91 Z" />
<path fill="#000000" opacity="1.00" d=" M 75.11 28.10 C 75.68 23.44 77.66 19.96 82.85 22.08 C 84.44 24.29 84.73 27.13 85.86 29.54 C 82.23 29.49 78.64 28.92 75.11 28.10 M 76.95 23.05 C 76.97 24.14 77.00 26.30 77.01 27.38 C 79.64 27.80 82.29 28.10 84.95 28.13 C 83.63 24.63 80.71 22.61 76.95 23.05 Z" />
<path fill="#000000" opacity="1.00" d=" M 89.32 24.33 C 91.93 18.61 99.42 25.07 97.96 29.78 C 96.20 28.76 86.87 29.19 89.32 24.33 M 92.14 23.01 C 91.35 24.07 90.56 25.12 89.77 26.18 C 91.79 26.99 93.82 27.74 95.87 28.46 C 95.89 27.60 95.93 25.88 95.95 25.02 C 94.68 24.35 93.41 23.68 92.14 23.01 Z" />
<path fill="#000000" opacity="1.00" d=" M 296.60 24.14 C 299.30 23.65 302.01 23.23 304.74 22.96 C 302.19 24.14 299.38 24.53 296.60 24.14 Z" />
<path fill="#000000" opacity="1.00" d=" M 307.27 22.34 C 310.34 23.86 313.31 25.60 316.19 27.47 C 312.73 26.74 309.56 25.06 307.27 22.34 Z" />
<path fill="#000000" opacity="1.00" d=" M 383.39 21.58 C 385.61 22.65 387.84 23.72 390.08 24.75 C 389.50 26.16 388.93 27.58 388.36 28.99 C 385.68 27.41 383.27 25.20 383.39 21.58 M 385.38 24.38 C 384.01 25.71 386.29 27.99 387.62 26.62 C 388.98 25.29 386.71 23.01 385.38 24.38 Z" />
<path fill="#000000" opacity="1.00" d=" M 482.31 31.61 C 479.94 27.92 483.71 20.14 488.36 22.58 C 492.31 24.12 493.55 28.68 494.71 32.28 C 493.59 33.33 492.51 34.42 491.47 35.53 C 488.61 34.78 482.95 35.94 482.31 31.61 M 486.21 23.05 C 482.91 26.13 484.06 30.79 484.47 34.75 C 487.37 33.89 490.47 33.31 493.21 31.92 C 492.91 27.84 489.92 24.49 486.21 23.05 Z" />
<path fill="#000000" opacity="1.00" d=" M 392.57 23.71 C 395.19 23.64 397.81 23.73 400.42 23.96 C 397.81 24.26 395.16 24.15 392.57 23.71 Z" />
<path fill="#000000" opacity="1.00" d=" M 141.41 25.07 C 143.80 24.90 146.16 24.40 148.57 24.54 C 149.92 25.62 150.92 27.05 152.05 28.35 C 150.06 28.52 146.06 28.86 144.06 29.03 C 143.18 27.71 142.29 26.39 141.41 25.07 M 144.15 24.36 C 144.23 25.23 144.38 26.98 144.46 27.85 C 146.47 27.79 148.48 27.70 150.50 27.60 C 148.47 26.35 146.33 25.29 144.15 24.36 Z" />
<path fill="#000000" opacity="1.00" d=" M 154.92 25.34 C 157.91 24.87 160.93 24.61 163.96 24.52 C 163.99 26.21 164.03 27.90 164.06 29.59 C 161.02 30.09 157.94 30.18 154.87 29.85 C 154.89 28.72 154.91 26.47 154.92 25.34 M 154.97 27.68 C 158.28 29.99 161.62 29.02 163.94 25.96 C 160.83 25.73 157.74 26.22 154.97 27.68 Z" />
<path fill="#000000" opacity="1.00" d=" M 238.05 29.78 C 238.53 27.70 239.55 25.81 240.50 23.91 C 243.31 26.11 246.61 28.31 247.46 32.03 C 244.17 33.89 240.35 32.51 238.05 29.78 M 238.03 28.36 C 240.62 29.93 243.37 31.24 246.31 32.00 C 245.21 30.40 244.17 28.72 242.73 27.40 C 241.13 27.55 239.58 27.97 238.03 28.36 Z" />
<path fill="#000000" opacity="1.00" d=" M 53.46 26.53 C 61.46 24.69 71.12 28.31 72.99 37.01 C 78.34 53.71 82.60 71.20 80.81 88.90 C 79.79 94.07 74.53 96.57 70.09 98.25 C 59.66 102.98 46.78 103.07 36.82 97.15 C 28.24 91.61 26.38 80.68 24.62 71.39 C 23.75 63.79 22.13 55.74 24.20 48.19 C 27.82 35.35 41.42 29.04 53.46 26.53 M 49.60 28.38 C 52.84 28.79 56.08 29.12 59.34 29.45 C 51.52 30.52 42.50 29.66 36.03 35.01 C 27.42 40.07 23.02 50.68 24.39 60.41 C 25.52 70.27 26.64 80.70 31.48 89.56 C 38.34 100.82 54.15 102.50 65.63 98.60 C 70.76 96.44 77.87 94.76 79.54 88.59 C 80.95 76.31 79.38 63.87 75.98 52.04 C 74.05 44.80 72.86 37.01 67.98 31.02 C 63.07 26.21 55.75 27.46 49.60 28.38 Z" />
<path fill="#000000" opacity="1.00" d=" M 223.57 25.07 C 227.48 25.93 230.68 28.32 232.02 32.17 C 229.77 32.37 227.51 32.87 225.25 32.60 C 222.51 31.10 223.72 27.55 223.57 25.07 M 225.52 26.57 C 225.05 27.66 224.58 28.75 224.12 29.85 C 224.84 30.56 225.57 31.27 226.29 31.99 C 227.65 31.54 229.00 31.06 230.36 30.58 C 228.80 29.18 227.18 27.84 225.52 26.57 Z" />
<path fill="#000000" opacity="1.00" d=" M 394.63 25.33 C 396.17 27.76 397.60 30.22 398.84 32.83 C 397.32 32.78 395.81 32.73 394.31 32.67 C 394.39 30.84 394.55 27.17 394.63 25.33 M 395.24 28.68 C 393.87 29.61 395.23 32.25 396.76 31.32 C 398.13 30.39 396.76 27.75 395.24 28.68 Z" />
<path fill="#000000" opacity="1.00" d=" M 458.91 28.15 C 462.60 25.36 466.36 29.03 469.88 30.21 C 469.91 32.10 469.96 35.88 469.99 37.77 C 464.63 38.09 458.59 33.87 458.91 28.15 M 459.55 28.93 C 461.71 31.96 464.18 34.74 466.52 37.64 C 467.51 35.86 468.32 34.04 469.24 32.22 C 465.90 31.44 462.87 29.77 459.55 28.93 Z" />
<path fill="#000000" opacity="1.00" d=" M 123.59 27.55 C 126.37 28.67 129.08 29.93 131.79 31.20 C 132.34 30.44 132.89 29.68 133.44 28.92 C 134.44 30.45 135.42 32.00 136.38 33.56 C 137.51 33.02 138.64 32.47 139.78 31.94 C 140.73 33.50 141.67 35.07 142.62 36.64 C 135.58 43.55 122.99 37.66 123.59 27.55 M 125.14 28.82 C 125.03 30.33 124.91 31.84 124.80 33.35 C 128.20 35.21 131.27 37.98 135.15 38.83 C 137.56 39.46 138.96 36.86 140.58 35.56 C 137.80 34.60 135.13 33.36 132.73 31.66 C 132.72 32.29 132.70 33.56 132.68 34.19 C 130.15 32.42 127.65 30.60 125.14 28.82 Z" />
<path fill="#000000" opacity="1.00" d=" M 292.88 32.39 C 294.53 31.78 296.16 31.13 297.78 30.44 C 300.50 31.98 303.66 32.65 306.27 34.39 C 306.48 35.94 306.91 39.02 307.12 40.57 C 303.05 40.74 298.99 40.90 294.94 41.05 C 294.08 38.21 293.46 35.30 292.88 32.39 M 297.12 32.27 C 297.06 32.89 296.94 34.12 296.88 34.74 C 295.76 34.22 294.66 33.69 293.55 33.17 C 294.37 35.46 295.21 37.75 296.01 40.06 C 299.25 39.91 302.46 39.76 305.72 39.60 C 305.73 38.16 305.74 36.72 305.76 35.29 C 302.61 35.20 299.74 33.91 297.12 32.27 Z" />
<path fill="#000000" opacity="1.00" d=" M 369.47 31.44 C 372.26 32.30 375.13 33.02 378.07 32.97 C 378.83 34.13 379.58 35.31 380.33 36.48 C 381.85 35.91 383.36 35.34 384.89 34.79 C 385.26 36.40 385.66 38.00 386.04 39.60 C 385.22 40.55 384.42 41.50 383.62 42.45 C 380.06 41.62 375.12 42.82 372.33 39.74 C 370.74 37.24 370.28 34.24 369.47 31.44 M 371.23 36.15 C 372.28 37.31 373.32 38.49 374.53 39.50 C 377.48 42.16 381.65 39.98 385.16 39.62 C 384.73 38.52 384.31 37.42 383.89 36.32 C 382.40 36.94 380.90 37.54 379.39 38.12 C 378.91 37.03 378.44 35.93 377.96 34.84 C 375.76 35.47 373.49 35.83 371.23 36.15 Z" />
<path fill="#000000" opacity="1.00" d=" M 206.44 37.60 C 217.93 36.59 228.26 43.25 236.65 50.36 C 247.31 60.27 248.03 77.48 242.04 90.06 C 236.74 97.58 226.87 95.99 218.99 96.15 C 209.32 96.88 200.62 91.45 193.80 85.19 C 186.37 78.27 182.28 67.29 185.27 57.33 C 186.60 46.87 196.38 39.00 206.44 37.60 M 203.47 39.63 C 198.96 40.71 195.14 43.73 191.78 46.78 C 187.03 51.28 186.13 58.16 185.47 64.30 C 185.51 73.41 191.03 81.57 198.01 86.98 C 203.74 91.41 210.47 95.29 217.99 95.00 C 224.59 94.79 232.36 96.53 237.97 91.98 C 242.35 89.17 243.09 83.64 244.10 79.02 C 246.34 70.32 243.23 60.95 238.15 53.86 C 229.17 44.86 216.74 36.66 203.47 39.63 Z" />
<path fill="#000000" opacity="1.00" d=" M 440.16 57.13 C 442.12 46.85 452.19 40.54 462.00 39.51 C 473.19 41.11 483.80 47.51 489.84 57.14 C 494.48 66.58 490.84 76.76 486.22 85.24 C 474.77 84.77 462.10 86.85 452.00 80.01 C 442.56 76.68 440.59 65.76 440.16 57.13 M 447.83 46.82 C 443.80 50.89 439.68 56.39 441.78 62.50 C 443.06 67.94 444.32 74.46 449.93 77.09 C 459.89 85.20 473.26 83.89 485.24 84.36 C 489.38 76.41 493.16 66.96 488.85 58.15 C 483.50 49.69 474.61 43.44 464.75 41.51 C 458.76 41.16 452.23 42.46 447.83 46.82 Z" />
<path fill="#000000" opacity="1.00" d=" M 373.45 44.50 C 380.93 42.73 386.83 48.75 392.28 52.70 C 400.95 59.87 410.70 68.89 410.90 81.04 C 412.04 87.32 409.29 94.60 403.05 97.03 C 394.76 100.07 385.75 100.87 376.99 101.00 C 369.32 100.65 360.45 97.36 357.08 89.92 C 354.38 78.64 357.00 66.92 360.22 56.05 C 361.95 49.91 367.73 46.33 373.45 44.50 M 374.22 45.54 C 368.60 47.43 362.93 50.98 361.22 57.05 C 358.19 67.03 355.82 77.71 357.82 88.14 C 360.40 95.47 368.86 99.18 376.12 99.83 C 384.58 100.07 393.19 99.00 401.25 96.35 C 407.21 94.48 410.63 88.08 409.85 82.01 C 409.80 70.62 400.97 61.94 392.93 55.04 C 387.41 50.78 381.83 44.98 374.22 45.54 Z" />
<path fill="#000000" opacity="1.00" d=" M 126.37 45.31 C 134.81 44.15 143.84 46.01 150.49 51.50 C 154.59 56.94 160.55 62.58 160.05 69.98 C 160.75 81.13 157.36 95.33 145.76 99.82 C 131.72 103.68 113.75 98.91 106.96 85.04 C 103.17 74.19 108.08 62.52 116.56 55.53 C 120.40 52.65 121.97 47.46 126.37 45.31 M 121.26 51.62 C 125.58 50.41 129.83 48.98 134.18 47.91 C 130.04 49.86 125.82 51.65 121.82 53.88 C 113.01 58.34 106.48 67.93 107.05 77.98 C 106.37 84.46 111.18 89.47 115.63 93.41 C 124.06 99.35 135.52 102.16 145.44 98.53 C 153.82 95.19 157.26 86.14 158.88 77.96 C 161.76 62.24 148.33 45.74 132.04 45.95 C 127.22 44.81 124.02 48.53 121.26 51.62 Z" />
<path fill="#000000" opacity="1.00" d=" M 293.50 47.71 C 299.72 45.62 306.09 47.06 311.29 50.61 C 318.35 53.64 322.81 60.36 325.73 67.19 C 328.65 74.79 325.72 84.44 319.03 89.00 C 307.04 90.33 294.34 89.29 282.95 85.09 C 272.99 80.92 267.78 66.09 275.82 57.87 C 281.22 53.83 286.82 49.40 293.50 47.71 M 294.50 48.74 C 287.81 50.34 282.23 54.86 276.82 58.87 C 269.02 66.36 274.47 79.68 283.28 83.74 C 293.72 88.04 305.49 88.94 316.67 88.51 C 324.67 85.15 327.82 73.69 323.88 66.17 C 320.85 60.76 317.58 54.75 311.53 52.33 C 306.20 50.08 300.43 47.43 294.50 48.74 Z" />
<path fill="#000000" opacity="1.00" d=" M 294.02 97.89 C 305.07 96.25 316.44 92.92 327.64 95.29 C 331.27 96.73 330.40 101.75 327.23 103.20 C 316.60 107.75 304.09 108.25 293.91 102.25 C 293.95 100.79 293.99 99.34 294.02 97.89 M 303.54 98.49 C 305.28 98.53 308.77 98.60 310.51 98.64 C 310.64 97.92 310.91 96.48 311.05 95.77 C 308.55 96.68 306.02 97.56 303.54 98.49 M 294.13 99.17 C 298.52 104.55 305.82 106.40 312.55 105.50 C 318.90 104.76 325.71 103.53 330.28 98.69 C 328.27 97.71 326.12 96.20 323.79 97.16 C 320.36 98.37 316.77 97.66 313.33 96.90 C 308.22 101.99 300.47 98.21 294.13 99.17 M 316.00 95.99 C 316.00 96.50 316.00 97.50 316.00 98.01 C 317.66 98.00 319.33 98.00 321.00 98.01 C 321.00 97.50 321.00 96.50 321.00 95.99 C 319.33 95.99 317.66 95.99 316.00 95.99 Z" />
<path fill="#000000" opacity="1.00" d=" M 463.75 102.76 C 466.72 95.87 475.40 96.47 481.62 94.82 C 482.56 95.75 483.51 96.68 484.47 97.60 C 481.99 102.93 477.63 107.31 471.81 108.88 C 468.66 109.69 460.73 107.30 463.75 102.76 M 479.10 96.30 C 477.88 95.74 475.85 97.10 476.81 98.44 C 478.10 100.24 481.30 97.44 479.10 96.30 M 466.30 101.09 C 465.47 102.53 464.62 103.96 463.80 105.41 C 470.91 110.86 479.49 104.58 482.91 97.79 C 477.66 100.01 471.97 100.92 466.30 101.09 M 469.38 98.46 C 469.40 98.98 469.42 100.01 469.43 100.53 C 470.53 100.71 471.64 100.88 472.75 101.04 C 473.16 99.97 473.57 98.91 473.98 97.84 C 472.44 98.04 470.91 98.24 469.38 98.46 Z" />
<path fill="#000000" opacity="1.00" d=" M 77.94 102.75 C 87.92 102.49 98.67 100.00 107.96 104.82 C 107.15 107.42 107.11 110.39 105.90 112.91 C 95.60 116.51 84.69 113.61 74.48 111.25 C 75.52 108.37 76.74 105.56 77.94 102.75 M 81.41 105.44 C 83.29 105.72 85.18 105.97 87.07 106.21 C 86.99 105.27 86.83 103.37 86.75 102.42 C 84.91 103.33 83.12 104.32 81.41 105.44 M 89.50 103.54 C 88.39 104.67 87.44 105.94 86.46 107.18 C 83.92 106.24 81.42 105.28 78.93 104.23 C 77.91 106.29 76.81 108.31 75.79 110.37 C 85.48 112.13 96.79 116.14 106.03 110.87 C 108.14 105.57 102.55 104.39 99.41 102.44 C 99.20 103.99 98.98 105.53 98.77 107.08 C 97.28 106.88 94.32 106.49 92.83 106.29 C 91.72 105.37 90.67 104.39 89.50 103.54 M 91.88 103.00 C 92.04 103.66 92.36 104.98 92.52 105.64 C 94.35 105.81 96.17 105.95 97.99 106.14 C 97.60 105.12 97.20 104.10 96.80 103.09 C 95.16 103.05 93.52 103.02 91.88 103.00 Z" />
<path fill="#000000" opacity="1.00" d=" M 214.84 106.02 C 225.35 103.50 236.54 101.92 247.08 105.17 C 246.03 111.42 239.45 113.13 234.15 112.69 C 227.40 112.53 218.16 113.50 214.84 106.02 M 236.10 103.75 C 236.06 104.59 235.99 106.29 235.96 107.13 C 237.47 106.94 238.98 106.74 240.50 106.55 C 239.03 105.61 237.56 104.69 236.10 103.75 M 216.07 107.09 C 224.17 113.36 235.88 112.97 244.98 109.08 C 244.93 108.19 244.83 106.42 244.78 105.53 C 242.03 106.24 239.35 108.50 236.42 107.25 C 233.92 106.25 231.29 106.92 228.81 107.60 C 224.75 105.73 220.23 105.06 216.07 107.09 M 225.76 105.12 C 226.84 105.80 227.92 106.48 229.00 107.15 C 230.08 106.48 231.16 105.80 232.24 105.12 C 230.08 105.11 227.92 105.11 225.76 105.12 Z" />
<path fill="#000000" opacity="1.00" d=" M 379.16 108.56 C 389.97 103.83 402.11 103.12 413.71 104.33 C 417.20 105.01 417.73 109.42 419.00 111.93 C 407.76 113.53 396.31 114.78 385.02 112.85 C 382.55 112.31 380.93 110.18 379.16 108.56 M 392.32 106.65 C 395.15 106.59 397.98 106.26 400.68 105.35 C 397.84 105.40 395.01 105.74 392.32 106.65 M 381.07 109.41 C 392.26 115.56 406.08 111.94 418.04 110.78 C 416.56 108.90 415.36 106.41 412.96 105.59 C 409.24 106.81 405.16 108.96 401.34 106.84 C 394.51 107.20 387.29 105.67 381.07 109.41 M 402.55 106.50 C 404.47 107.08 406.42 107.59 408.37 108.06 C 408.54 107.18 408.88 105.41 409.05 104.52 C 406.84 105.07 404.67 105.71 402.55 106.50 Z" />
<path fill="#000000" opacity="1.00" d=" M 135.29 106.89 C 143.45 106.32 151.61 105.94 159.79 105.70 C 160.47 108.90 160.21 112.17 159.50 115.34 C 150.92 114.50 140.73 116.58 133.47 110.70 C 134.08 109.43 134.69 108.16 135.29 106.89 M 136.07 107.51 C 136.01 108.52 135.91 110.55 135.86 111.56 C 142.88 113.87 150.26 114.42 157.61 114.07 C 158.61 112.32 159.64 110.58 160.61 108.81 C 157.23 107.87 153.78 108.68 150.35 108.67 C 145.54 108.91 140.86 107.54 136.07 107.51 M 151.53 107.13 C 150.60 108.31 152.65 109.69 153.45 108.46 C 154.43 107.27 152.34 105.93 151.53 107.13 Z" />
</g>
<g id="#008751ff">
<path fill="#008751" opacity="1.00" d=" M 41.52 8.43 C 45.13 9.26 48.23 11.33 51.07 13.61 C 51.18 12.32 51.28 11.03 51.37 9.74 C 52.58 11.10 53.77 12.47 54.96 13.84 C 56.09 12.89 57.23 11.95 58.36 11.01 C 57.61 13.81 56.85 16.61 56.10 19.42 C 52.88 19.11 49.51 19.32 46.44 18.15 C 44.61 15.37 43.19 12.34 41.88 9.29 L 41.52 8.43 Z" />
<path fill="#008751" opacity="1.00" d=" M 197.70 21.91 C 199.98 23.36 202.24 24.84 204.51 26.32 C 205.13 25.50 205.76 24.68 206.39 23.86 C 206.99 25.31 207.60 26.76 208.21 28.21 C 210.24 26.41 212.23 24.57 214.28 22.78 C 214.44 25.03 214.76 27.31 214.47 29.56 C 211.46 32.33 207.14 33.40 203.13 32.96 C 199.22 30.76 199.02 25.74 197.70 21.91 Z" />
<path fill="#008751" opacity="1.00" d=" M 125.14 28.82 C 127.65 30.60 130.15 32.42 132.68 34.19 C 132.70 33.56 132.72 32.29 132.73 31.66 C 135.13 33.36 137.80 34.60 140.58 35.56 C 138.96 36.86 137.56 39.46 135.15 38.83 C 131.27 37.98 128.20 35.21 124.80 33.35 C 124.91 31.84 125.03 30.33 125.14 28.82 Z" />
<path fill="#008751" opacity="1.00" d=" M 459.55 28.93 C 462.87 29.77 465.90 31.44 469.24 32.22 C 468.32 34.04 467.51 35.86 466.52 37.64 C 464.18 34.74 461.71 31.96 459.55 28.93 Z" />
<path fill="#008751" opacity="1.00" d=" M 297.12 32.27 C 299.74 33.91 302.61 35.20 305.76 35.29 C 305.74 36.72 305.73 38.16 305.72 39.60 C 302.46 39.76 299.25 39.91 296.01 40.06 C 295.21 37.75 294.37 35.46 293.55 33.17 C 294.66 33.69 295.76 34.22 296.88 34.74 C 296.94 34.12 297.06 32.89 297.12 32.27 Z" />
<path fill="#008751" opacity="1.00" d=" M 371.23 36.15 C 373.49 35.83 375.76 35.47 377.96 34.84 C 378.44 35.93 378.91 37.03 379.39 38.12 C 380.90 37.54 382.40 36.94 383.89 36.32 C 384.31 37.42 384.73 38.52 385.16 39.62 C 381.65 39.98 377.48 42.16 374.53 39.50 C 373.32 38.49 372.28 37.31 371.23 36.15 Z" />
</g>
<g id="#fff1e8ff">
<path fill="#fff1e8" opacity="1.00" d=" M 301.38 9.38 C 302.71 8.01 304.98 10.29 303.62 11.62 C 302.29 12.99 300.01 10.71 301.38 9.38 Z" />
<path fill="#fff1e8" opacity="1.00" d=" M 313.44 10.20 C 315.32 10.41 317.20 10.63 319.08 10.88 C 318.90 12.45 318.73 14.03 318.57 15.61 C 316.73 13.93 315.02 12.12 313.44 10.20 Z" />
<path fill="#fff1e8" opacity="1.00" d=" M 468.78 20.76 C 470.78 21.44 472.95 21.92 474.64 23.27 C 475.40 25.80 475.85 28.39 476.00 31.06 C 472.40 28.60 470.17 24.83 468.78 20.76 Z" />
<path fill="#fff1e8" opacity="1.00" d=" M 76.95 23.05 C 80.71 22.61 83.63 24.63 84.95 28.13 C 82.29 28.10 79.64 27.80 77.01 27.38 C 77.00 26.30 76.97 24.14 76.95 23.05 Z" />
<path fill="#fff1e8" opacity="1.00" d=" M 92.14 23.01 C 93.41 23.68 94.68 24.35 95.95 25.02 C 95.93 25.88 95.89 27.60 95.87 28.46 C 93.82 27.74 91.79 26.99 89.77 26.18 C 90.56 25.12 91.35 24.07 92.14 23.01 Z" />
<path fill="#fff1e8" opacity="1.00" d=" M 486.21 23.05 C 489.92 24.49 492.91 27.84 493.21 31.92 C 490.47 33.31 487.37 33.89 484.47 34.75 C 484.06 30.79 482.91 26.13 486.21 23.05 Z" />
<path fill="#fff1e8" opacity="1.00" d=" M 385.38 24.38 C 386.71 23.01 388.98 25.29 387.62 26.62 C 386.29 27.99 384.01 25.71 385.38 24.38 Z" />
<path fill="#fff1e8" opacity="1.00" d=" M 144.15 24.36 C 146.33 25.29 148.47 26.35 150.50 27.60 C 148.48 27.70 146.47 27.79 144.46 27.85 C 144.38 26.98 144.23 25.23 144.15 24.36 Z" />
<path fill="#fff1e8" opacity="1.00" d=" M 154.97 27.68 C 157.74 26.22 160.83 25.73 163.94 25.96 C 161.62 29.02 158.28 29.99 154.97 27.68 Z" />
<path fill="#fff1e8" opacity="1.00" d=" M 225.52 26.57 C 227.18 27.84 228.80 29.18 230.36 30.58 C 229.00 31.06 227.65 31.54 226.29 31.99 C 225.57 31.27 224.84 30.56 224.12 29.85 C 224.58 28.75 225.05 27.66 225.52 26.57 Z" />
<path fill="#fff1e8" opacity="1.00" d=" M 238.03 28.36 C 239.58 27.97 241.13 27.55 242.73 27.40 C 244.17 28.72 245.21 30.40 246.31 32.00 C 243.37 31.24 240.62 29.93 238.03 28.36 Z" />
<path fill="#fff1e8" opacity="1.00" d=" M 395.24 28.68 C 396.76 27.75 398.13 30.39 396.76 31.32 C 395.23 32.25 393.87 29.61 395.24 28.68 Z" />
<path fill="#fff1e8" opacity="1.00" d=" M 479.10 96.30 C 481.30 97.44 478.10 100.24 476.81 98.44 C 475.85 97.10 477.88 95.74 479.10 96.30 Z" />
<path fill="#fff1e8" opacity="1.00" d=" M 469.38 98.46 C 470.91 98.24 472.44 98.04 473.98 97.84 C 473.57 98.91 473.16 99.97 472.75 101.04 C 471.64 100.88 470.53 100.71 469.43 100.53 C 469.42 100.01 469.40 98.98 469.38 98.46 Z" />
<path fill="#fff1e8" opacity="1.00" d=" M 81.41 105.44 C 83.12 104.32 84.91 103.33 86.75 102.42 C 86.83 103.37 86.99 105.27 87.07 106.21 C 85.18 105.97 83.29 105.72 81.41 105.44 Z" />
<path fill="#fff1e8" opacity="1.00" d=" M 91.88 103.00 C 93.52 103.02 95.16 103.05 96.80 103.09 C 97.20 104.10 97.60 105.12 97.99 106.14 C 96.17 105.95 94.35 105.81 92.52 105.64 C 92.36 104.98 92.04 103.66 91.88 103.00 Z" />
<path fill="#fff1e8" opacity="1.00" d=" M 236.10 103.75 C 237.56 104.69 239.03 105.61 240.50 106.55 C 238.98 106.74 237.47 106.94 235.96 107.13 C 235.99 106.29 236.06 104.59 236.10 103.75 Z" />
<path fill="#fff1e8" opacity="1.00" d=" M 225.76 105.12 C 227.92 105.11 230.08 105.11 232.24 105.12 C 231.16 105.80 230.08 106.48 229.00 107.15 C 227.92 106.48 226.84 105.80 225.76 105.12 Z" />
<path fill="#fff1e8" opacity="1.00" d=" M 392.32 106.65 C 395.01 105.74 397.84 105.40 400.68 105.35 C 397.98 106.26 395.15 106.59 392.32 106.65 Z" />
<path fill="#fff1e8" opacity="1.00" d=" M 402.55 106.50 C 404.67 105.71 406.84 105.07 409.05 104.52 C 408.88 105.41 408.54 107.18 408.37 108.06 C 406.42 107.59 404.47 107.08 402.55 106.50 Z" />
<path fill="#fff1e8" opacity="1.00" d=" M 151.53 107.13 C 152.34 105.93 154.43 107.27 153.45 108.46 C 152.65 109.69 150.60 108.31 151.53 107.13 Z" />
</g>
<g id="#ff004dff">
<path fill="#ff004d" opacity="1.00" d=" M 49.60 28.38 C 55.75 27.46 63.07 26.21 67.98 31.02 C 72.86 37.01 74.05 44.80 75.98 52.04 C 79.38 63.87 80.95 76.31 79.54 88.59 C 77.87 94.76 70.76 96.44 65.63 98.60 C 54.15 102.50 38.34 100.82 31.48 89.56 C 26.64 80.70 25.52 70.27 24.39 60.41 C 23.02 50.68 27.42 40.07 36.03 35.01 C 42.50 29.66 51.52 30.52 59.34 29.45 C 56.08 29.12 52.84 28.79 49.60 28.38 Z" />
<path fill="#ff004d" opacity="1.00" d=" M 203.47 39.63 C 216.74 36.66 229.17 44.86 238.15 53.86 C 243.23 60.95 246.34 70.32 244.10 79.02 C 243.09 83.64 242.35 89.17 237.97 91.98 C 232.36 96.53 224.59 94.79 217.99 95.00 C 210.47 95.29 203.74 91.41 198.01 86.98 C 191.03 81.57 185.51 73.41 185.47 64.30 C 186.13 58.16 187.03 51.28 191.78 46.78 C 195.14 43.73 198.96 40.71 203.47 39.63 Z" />
<path fill="#ff004d" opacity="1.00" d=" M 447.83 46.82 C 452.23 42.46 458.76 41.16 464.75 41.51 C 474.61 43.44 483.50 49.69 488.85 58.15 C 493.16 66.96 489.38 76.41 485.24 84.36 C 473.26 83.89 459.89 85.20 449.93 77.09 C 444.32 74.46 443.06 67.94 441.78 62.50 C 439.68 56.39 443.80 50.89 447.83 46.82 Z" />
<path fill="#ff004d" opacity="1.00" d=" M 374.22 45.54 C 381.83 44.98 387.41 50.78 392.93 55.04 C 400.97 61.94 409.80 70.62 409.85 82.01 C 410.63 88.08 407.21 94.48 401.25 96.35 C 393.19 99.00 384.58 100.07 376.12 99.83 C 368.86 99.18 360.40 95.47 357.82 88.14 C 355.82 77.71 358.19 67.03 361.22 57.05 C 362.93 50.98 368.60 47.43 374.22 45.54 Z" />
<path fill="#ff004d" opacity="1.00" d=" M 121.26 51.62 C 124.02 48.53 127.22 44.81 132.04 45.95 C 148.33 45.74 161.76 62.24 158.88 77.96 C 157.26 86.14 153.82 95.19 145.44 98.53 C 135.52 102.16 124.06 99.35 115.63 93.41 C 111.18 89.47 106.37 84.46 107.05 77.98 C 106.48 67.93 113.01 58.34 121.82 53.88 C 125.82 51.65 130.04 49.86 134.18 47.91 C 129.83 48.98 125.58 50.41 121.26 51.62 Z" />
<path fill="#ff004d" opacity="1.00" d=" M 294.50 48.74 C 300.43 47.43 306.20 50.08 311.53 52.33 C 317.58 54.75 320.85 60.76 323.88 66.17 C 327.82 73.69 324.67 85.15 316.67 88.51 C 305.49 88.94 293.72 88.04 283.28 83.74 C 274.47 79.68 269.02 66.36 276.82 58.87 C 282.23 54.86 287.81 50.34 294.50 48.74 Z" />
</g>
<g id="#7e2553ff">
<path fill="#7e2553" opacity="1.00" d=" M 294.13 99.17 C 300.47 98.21 308.22 101.99 313.33 96.90 C 316.77 97.66 320.36 98.37 323.79 97.16 C 326.12 96.20 328.27 97.71 330.28 98.69 C 325.71 103.53 318.90 104.76 312.55 105.50 C 305.82 106.40 298.52 104.55 294.13 99.17 Z" />
<path fill="#7e2553" opacity="1.00" d=" M 466.30 101.09 C 471.97 100.92 477.66 100.01 482.91 97.79 C 479.49 104.58 470.91 110.86 463.80 105.41 C 464.62 103.96 465.47 102.53 466.30 101.09 Z" />
<path fill="#7e2553" opacity="1.00" d=" M 89.50 103.54 C 90.67 104.39 91.72 105.37 92.83 106.29 C 94.32 106.49 97.28 106.88 98.77 107.08 C 98.98 105.53 99.20 103.99 99.41 102.44 C 102.55 104.39 108.14 105.57 106.03 110.87 C 96.79 116.14 85.48 112.13 75.79 110.37 C 76.81 108.31 77.91 106.29 78.93 104.23 C 81.42 105.28 83.92 106.24 86.46 107.18 C 87.44 105.94 88.39 104.67 89.50 103.54 Z" />
<path fill="#7e2553" opacity="1.00" d=" M 216.07 107.09 C 220.23 105.06 224.75 105.73 228.81 107.60 C 231.29 106.92 233.92 106.25 236.42 107.25 C 239.35 108.50 242.03 106.24 244.78 105.53 C 244.83 106.42 244.93 108.19 244.98 109.08 C 235.88 112.97 224.17 113.36 216.07 107.09 Z" />
<path fill="#7e2553" opacity="1.00" d=" M 381.07 109.41 C 387.29 105.67 394.51 107.20 401.34 106.84 C 405.16 108.96 409.24 106.81 412.96 105.59 C 415.36 106.41 416.56 108.90 418.04 110.78 C 406.08 111.94 392.26 115.56 381.07 109.41 Z" />
<path fill="#7e2553" opacity="1.00" d=" M 136.07 107.51 C 140.86 107.54 145.54 108.91 150.35 108.67 C 153.78 108.68 157.23 107.87 160.61 108.81 C 159.64 110.58 158.61 112.32 157.61 114.07 C 150.26 114.42 142.88 113.87 135.86 111.56 C 135.91 110.55 136.01 108.52 136.07 107.51 Z" />
</g>
</svg>
