<?xml version="1.0" encoding="UTF-8" ?>
<!DOCTYPE svg PUBLIC "-//W3C//DTD SVG 1.1//EN" "http://www.w3.org/Graphics/SVG/1.1/DTD/svg11.dtd">
<svg width="239pt" height="79pt" viewBox="0 0 239 79" version="1.1" xmlns="http://www.w3.org/2000/svg">
<g id="#4e616aff">
<path fill="#4e616a" opacity="1.00" d=" M 76.39 5.38 C 78.77 1.99 82.87 -0.09 87.04 0.49 C 127.07 0.75 167.09 0.85 207.12 1.08 C 212.48 12.97 217.81 24.89 223.16 36.80 C 228.63 37.58 234.26 38.36 238.85 41.72 C 237.56 51.26 236.88 60.84 237.08 70.47 C 226.76 72.82 216.25 74.25 205.68 74.78 C 202.69 69.11 200.62 62.74 195.99 58.12 C 192.32 54.42 186.74 54.19 181.90 53.53 C 176.85 53.91 171.23 54.65 167.77 58.78 C 164.04 61.72 163.64 66.67 161.61 70.65 C 160.59 72.84 158.93 74.64 157.43 76.50 C 141.94 77.03 126.47 77.66 110.98 78.14 C 92.92 77.99 74.86 77.43 56.80 77.28 C 51.36 73.37 51.38 65.83 46.90 61.17 C 42.18 55.42 34.21 53.14 27.00 53.97 C 21.85 54.45 18.56 58.96 15.74 62.78 C 15.33 65.97 15.51 69.20 15.45 72.42 C 11.76 71.51 8.07 70.57 4.38 69.63 C 3.34 65.75 2.34 61.87 1.45 57.96 C 2.74 57.46 4.03 56.96 5.31 56.44 C 2.69 51.76 4.13 45.44 0.00 41.61 L 0.00 40.44 C 1.79 39.21 3.17 37.33 5.18 36.46 C 9.77 35.53 14.47 35.38 19.11 34.72 C 31.78 33.02 44.67 34.07 57.32 32.14 C 63.71 23.24 70.05 14.31 76.39 5.38 Z" />
</g>
</svg>
