<?xml version="1.0" encoding="UTF-8" ?>
<!DOCTYPE svg PUBLIC "-//W3C//DTD SVG 1.1//EN" "http://www.w3.org/Graphics/SVG/1.1/DTD/svg11.dtd">
<svg width="142pt" height="37pt" viewBox="0 0 142 37" version="1.1" xmlns="http://www.w3.org/2000/svg">
<g id="#fefefeff">
<path fill="#fefefe" opacity="1.00" d=" M 0.00 0.00 L 142.00 0.00 L 142.00 4.38 C 141.57 5.30 141.13 6.21 140.68 7.11 C 137.14 5.61 133.79 3.72 130.56 1.65 C 125.79 3.15 121.83 6.50 117.02 7.83 C 112.46 6.95 108.43 4.31 103.80 3.62 C 99.68 6.46 95.17 9.16 89.97 9.05 C 87.56 7.19 85.19 4.58 81.88 4.70 C 77.31 4.59 74.36 9.07 70.09 10.00 C 65.06 10.64 60.93 6.68 55.99 6.76 C 52.00 7.78 48.87 11.06 44.71 11.68 C 40.82 10.94 38.01 7.51 34.08 6.89 C 28.70 6.11 25.27 11.99 20.03 11.83 C 15.99 11.36 13.30 7.82 9.56 6.60 C 5.98 6.40 2.13 7.89 0.00 10.88 L 0.00 0.00 Z" />
<path fill="#fefefe" opacity="1.00" d=" M 118.87 9.95 C 122.98 8.67 126.45 5.98 130.32 4.17 C 133.97 6.57 137.94 8.41 142.00 10.01 L 142.00 15.67 C 139.25 16.65 136.32 16.96 133.42 17.08 C 131.51 15.72 129.78 13.52 127.26 13.45 C 122.13 13.69 119.21 19.32 114.03 19.52 C 109.45 20.42 107.42 12.70 102.91 14.86 C 98.52 16.42 94.99 20.07 90.26 20.68 C 86.57 20.55 84.85 16.69 81.92 15.04 C 76.98 13.91 73.38 18.30 69.01 19.66 C 66.67 20.26 63.74 21.05 61.66 19.34 C 60.14 18.20 58.80 16.84 57.41 15.54 C 51.89 16.83 47.40 20.69 41.89 21.91 C 37.45 23.15 36.15 16.67 32.03 16.88 C 26.71 16.82 23.04 21.59 17.97 22.36 C 13.04 22.17 10.05 16.79 5.05 16.86 C 2.91 16.53 1.47 18.34 0.00 19.56 L 0.00 12.53 C 2.80 11.04 5.64 9.18 8.90 9.03 C 12.84 10.09 15.68 13.87 19.96 14.06 C 25.06 14.91 28.44 10.05 33.06 9.00 C 37.23 9.23 40.05 13.04 43.97 14.06 C 48.60 14.27 52.04 10.60 56.17 9.15 C 60.98 9.04 65.00 12.85 69.83 12.90 C 74.72 11.59 78.44 7.58 83.56 6.80 C 86.11 8.66 88.51 11.56 92.01 11.18 C 96.97 11.62 100.64 7.68 105.08 6.25 C 109.87 6.62 113.83 11.01 118.87 9.95 Z" />
<path fill="#fefefe" opacity="1.00" d=" M 124.78 16.12 C 126.35 16.07 127.93 16.03 129.50 16.00 C 130.41 17.08 131.33 18.16 132.24 19.24 C 135.51 19.25 138.84 19.23 142.00 18.23 L 142.00 24.90 C 139.39 26.88 136.58 28.55 133.73 30.14 C 131.19 28.41 129.04 25.92 126.10 24.90 C 121.10 24.69 117.78 29.60 112.96 30.30 C 108.94 31.18 106.62 26.53 102.99 25.93 C 98.07 26.40 94.85 31.20 90.03 32.00 C 86.24 32.02 83.54 28.71 79.97 27.88 C 73.13 25.86 68.97 34.60 62.24 33.72 C 58.25 32.24 55.29 28.52 50.94 27.94 C 46.71 28.75 43.51 32.58 39.09 32.87 C 35.44 31.63 32.28 27.87 28.11 29.10 C 23.99 30.71 20.32 33.25 16.26 34.98 C 13.57 32.87 11.12 30.26 7.85 29.05 C 5.20 28.63 2.59 29.49 0.00 29.94 L 0.00 22.32 C 1.75 21.03 3.42 18.54 5.89 19.12 C 9.94 20.40 12.78 24.15 16.99 25.04 C 22.84 25.05 26.79 19.02 32.71 19.21 C 34.68 20.59 36.17 22.55 38.17 23.92 C 45.10 25.68 50.82 20.46 56.83 18.02 C 59.26 20.07 61.49 23.18 65.03 23.00 C 70.65 23.25 74.71 18.64 79.75 17.10 C 83.38 18.08 85.11 22.52 89.03 23.00 C 95.12 24.01 99.06 17.83 104.72 17.11 C 107.25 18.58 109.23 20.93 112.01 21.97 C 117.10 22.95 121.16 19.05 124.78 16.12 Z" />
<path fill="#fefefe" opacity="1.00" d=" M 109.99 32.96 C 116.01 33.89 120.26 28.52 125.66 27.08 C 128.20 28.57 130.06 31.19 132.96 32.03 C 136.30 32.23 139.06 29.84 141.89 28.40 C 139.78 31.19 137.94 34.16 135.92 37.00 L 0.00 37.00 L 0.00 32.95 C 1.92 32.14 3.87 31.26 5.97 31.05 C 9.76 32.03 12.31 35.39 15.81 36.99 C 21.14 36.65 24.85 31.95 29.96 31.00 C 32.92 31.76 35.14 34.07 37.93 35.19 C 42.80 35.55 46.86 32.38 50.79 29.98 C 54.64 31.72 57.81 34.85 61.91 36.00 C 67.45 36.97 71.59 32.55 76.12 30.28 C 81.57 28.83 85.46 35.44 90.96 34.31 C 95.42 33.14 98.91 29.85 103.01 27.88 C 105.31 29.60 107.44 31.61 109.99 32.96 Z" />
</g>
<g id="#a8a7a7ff">
<path fill="#a8a7a7" opacity="1.00" d=" M 117.02 7.83 C 121.83 6.50 125.79 3.15 130.56 1.65 C 133.79 3.72 137.14 5.61 140.68 7.11 C 141.13 6.21 141.57 5.30 142.00 4.38 L 142.00 10.01 C 137.94 8.41 133.97 6.57 130.32 4.17 C 126.45 5.98 122.98 8.67 118.87 9.95 C 113.83 11.01 109.87 6.62 105.08 6.25 C 100.64 7.68 96.97 11.62 92.01 11.18 C 88.51 11.56 86.11 8.66 83.56 6.80 C 78.44 7.58 74.72 11.59 69.83 12.90 C 65.00 12.85 60.98 9.04 56.17 9.15 C 52.04 10.60 48.60 14.27 43.97 14.06 C 40.05 13.04 37.23 9.23 33.06 9.00 C 28.44 10.05 25.06 14.91 19.96 14.06 C 15.68 13.87 12.84 10.09 8.90 9.03 C 5.64 9.18 2.80 11.04 0.00 12.53 L 0.00 10.88 C 2.13 7.89 5.98 6.40 9.56 6.60 C 13.30 7.82 15.99 11.36 20.03 11.83 C 25.27 11.99 28.70 6.11 34.08 6.89 C 38.01 7.51 40.82 10.94 44.71 11.68 C 48.87 11.06 52.00 7.78 55.99 6.76 C 60.93 6.68 65.06 10.64 70.09 10.00 C 74.36 9.07 77.31 4.59 81.88 4.70 C 85.19 4.58 87.56 7.19 89.97 9.05 C 95.17 9.16 99.68 6.46 103.80 3.62 C 108.43 4.31 112.46 6.95 117.02 7.83 Z" />
<path fill="#a8a7a7" opacity="1.00" d=" M 114.03 19.52 C 119.21 19.32 122.13 13.69 127.26 13.45 C 129.78 13.52 131.51 15.72 133.42 17.08 C 136.32 16.96 139.25 16.65 142.00 15.67 L 142.00 18.23 C 138.84 19.23 135.51 19.25 132.24 19.24 C 131.33 18.16 130.41 17.08 129.50 16.00 C 127.93 16.03 126.35 16.07 124.78 16.12 C 121.16 19.05 117.10 22.95 112.01 21.97 C 109.23 20.93 107.25 18.58 104.72 17.11 C 99.06 17.83 95.12 24.01 89.03 23.00 C 85.11 22.52 83.38 18.08 79.75 17.10 C 74.71 18.64 70.65 23.25 65.03 23.00 C 61.49 23.18 59.26 20.07 56.83 18.02 C 50.82 20.46 45.10 25.68 38.17 23.92 C 36.17 22.55 34.68 20.59 32.71 19.21 C 26.79 19.02 22.84 25.05 16.99 25.04 C 12.78 24.15 9.94 20.40 5.89 19.12 C 3.42 18.54 1.75 21.03 0.00 22.32 L 0.00 19.56 C 1.47 18.34 2.91 16.53 5.05 16.86 C 10.05 16.79 13.04 22.17 17.97 22.36 C 23.04 21.59 26.71 16.82 32.03 16.88 C 36.15 16.67 37.45 23.15 41.89 21.91 C 47.40 20.69 51.89 16.83 57.41 15.54 C 58.80 16.84 60.14 18.20 61.66 19.34 C 63.74 21.05 66.67 20.26 69.01 19.66 C 73.38 18.30 76.98 13.91 81.92 15.04 C 84.85 16.69 86.57 20.55 90.26 20.68 C 94.99 20.07 98.52 16.42 102.91 14.86 C 107.42 12.70 109.45 20.42 114.03 19.52 Z" />
<path fill="#a8a7a7" opacity="1.00" d=" M 112.96 30.30 C 117.78 29.60 121.10 24.69 126.10 24.90 C 129.04 25.92 131.19 28.41 133.73 30.14 C 136.58 28.55 139.39 26.88 142.00 24.90 L 142.00 37.00 L 135.92 37.00 C 137.94 34.16 139.78 31.19 141.89 28.40 C 139.06 29.84 136.30 32.23 132.96 32.03 C 130.06 31.19 128.20 28.57 125.66 27.08 C 120.26 28.52 116.01 33.89 109.99 32.96 C 107.44 31.61 105.31 29.60 103.01 27.88 C 98.91 29.85 95.42 33.14 90.96 34.31 C 85.46 35.44 81.57 28.83 76.12 30.28 C 71.59 32.55 67.45 36.97 61.91 36.00 C 57.81 34.85 54.64 31.72 50.79 29.98 C 46.86 32.38 42.80 35.55 37.93 35.19 C 35.14 34.07 32.92 31.76 29.96 31.00 C 24.85 31.95 21.14 36.65 15.81 36.99 C 12.31 35.39 9.76 32.03 5.97 31.05 C 3.87 31.26 1.92 32.14 0.00 32.95 L 0.00 29.94 C 2.59 29.49 5.20 28.63 7.85 29.05 C 11.12 30.26 13.57 32.87 16.26 34.98 C 20.32 33.25 23.99 30.71 28.11 29.10 C 32.28 27.87 35.44 31.63 39.09 32.87 C 43.51 32.58 46.71 28.75 50.94 27.94 C 55.29 28.52 58.25 32.24 62.24 33.72 C 68.97 34.60 73.13 25.86 79.97 27.88 C 83.54 28.71 86.24 32.02 90.03 32.00 C 94.85 31.20 98.07 26.40 102.99 25.93 C 106.62 26.53 108.94 31.18 112.96 30.30 Z" />
</g>
</svg>
