<?xml version="1.0" encoding="UTF-8" ?>
<!DOCTYPE svg PUBLIC "-//W3C//DTD SVG 1.1//EN" "http://www.w3.org/Graphics/SVG/1.1/DTD/svg11.dtd">
<svg width="1000pt" height="1000pt" viewBox="0 0 1000 1000" version="1.1" xmlns="http://www.w3.org/2000/svg">
<g id="#000000ff">
<path fill="#000000" opacity="1.00" d=" M 353.99 292.95 C 375.95 290.72 397.60 284.26 419.86 286.28 C 437.14 290.03 452.14 299.91 467.05 308.95 C 479.67 317.24 493.19 325.67 500.79 339.21 C 514.83 363.62 522.68 391.05 528.39 418.46 C 531.83 438.18 533.75 458.13 536.04 478.00 C 540.48 514.23 535.78 550.66 533.88 586.90 C 568.63 591.52 603.71 591.71 638.68 593.35 C 655.03 594.87 671.48 594.46 687.85 595.35 C 698.24 596.01 698.23 613.04 687.83 613.64 C 663.53 615.36 639.27 612.33 614.99 611.76 C 599.32 610.98 583.64 610.91 567.99 609.84 C 519.17 605.28 470.42 599.85 421.60 595.32 C 419.60 608.37 418.18 621.50 416.39 634.58 C 415.54 638.78 413.43 643.92 408.59 644.44 C 392.27 645.71 375.88 644.65 359.54 645.36 C 355.21 645.00 350.04 646.66 346.33 643.67 C 341.48 639.01 343.12 631.97 344.04 626.09 C 347.11 613.62 349.55 601.01 351.14 588.27 C 322.49 586.63 293.95 582.80 266.04 576.04 C 265.80 594.38 266.32 612.72 266.03 631.06 C 265.92 635.31 263.84 640.31 259.33 641.36 C 253.99 643.18 247.86 639.51 247.38 633.82 C 246.28 613.17 247.31 592.47 247.05 571.80 C 241.73 570.07 236.33 568.59 231.10 566.63 C 222.38 564.44 223.24 549.68 231.67 547.69 C 236.98 547.11 241.92 549.42 246.84 551.04 C 247.82 530.42 247.13 509.69 249.34 489.15 C 253.36 465.95 259.47 443.20 264.19 420.15 C 270.27 393.87 277.47 367.82 286.41 342.36 C 292.14 327.87 299.82 312.90 313.66 304.63 C 325.54 296.64 340.11 294.71 353.99 292.95 M 374.68 309.67 C 359.44 312.32 343.63 312.51 328.98 317.95 C 317.51 322.78 310.45 333.82 305.94 344.92 C 290.32 387.91 281.29 432.84 271.37 477.38 C 265.07 503.11 267.13 529.82 265.88 556.05 C 294.72 563.22 324.21 567.52 353.88 569.12 C 356.26 544.74 361.59 520.81 365.63 496.68 C 371.29 454.55 368.73 411.87 373.46 369.66 C 374.54 364.29 373.21 357.66 377.34 353.36 C 382.62 348.89 392.05 351.83 392.79 359.16 C 393.46 372.17 391.17 385.06 390.16 397.99 C 387.93 435.85 389.29 474.11 382.58 511.59 C 379.13 529.91 376.13 548.32 372.56 566.62 C 368.88 578.62 370.50 591.29 368.52 603.55 C 367.47 611.11 365.80 618.56 364.07 625.99 C 375.35 626.00 386.64 625.96 397.93 625.99 C 399.04 616.64 400.85 607.33 401.02 597.89 C 400.59 592.26 400.92 586.57 402.30 581.08 C 408.98 559.30 404.49 536.18 406.72 513.86 C 407.43 462.90 406.76 411.93 406.98 360.97 C 407.58 356.09 405.95 349.09 411.02 346.00 C 415.89 341.54 424.59 345.14 425.45 351.41 C 426.78 368.35 425.52 385.38 426.44 402.35 C 425.53 426.71 425.65 451.24 426.43 475.62 C 425.25 509.03 425.48 542.47 423.93 575.87 C 454.20 579.04 484.47 582.30 514.77 585.16 C 516.13 555.41 520.08 525.67 518.34 495.86 C 516.19 472.80 513.62 449.76 510.17 426.86 C 505.44 402.22 498.99 377.64 487.90 355.03 C 479.91 338.01 462.92 328.80 447.61 319.42 C 437.79 313.74 427.96 307.44 416.55 305.59 C 402.43 304.17 388.53 307.52 374.68 309.67 Z" />
<path fill="#000000" opacity="1.00" d=" M 319.42 385.71 C 324.61 385.54 330.84 384.23 335.26 387.74 C 339.73 391.90 339.33 398.40 339.03 403.97 C 338.92 413.77 333.86 422.59 328.23 430.26 C 325.20 433.36 320.29 436.71 315.97 434.07 C 311.31 432.58 309.91 427.50 308.73 423.33 C 307.80 415.75 308.70 408.08 309.52 400.54 C 310.60 394.84 312.47 386.50 319.42 385.71 Z" />
<path fill="#000000" opacity="1.00" d=" M 444.40 397.45 C 450.12 396.14 455.98 400.39 456.55 406.21 C 458.44 419.73 458.40 433.43 457.98 447.05 C 457.68 458.53 437.84 464.09 432.94 453.06 C 431.21 440.59 431.42 427.74 432.43 415.21 C 435.21 408.96 436.80 399.58 444.40 397.45 Z" />
</g>
<g id="#eec39aff">
<path fill="#eec39a" opacity="1.00" d=" M 374.68 309.67 C 388.53 307.52 402.43 304.17 416.55 305.59 C 427.96 307.44 437.79 313.74 447.61 319.42 C 462.92 328.80 479.91 338.01 487.90 355.03 C 498.99 377.64 505.44 402.22 510.17 426.86 C 513.62 449.76 516.19 472.80 518.34 495.86 C 520.08 525.67 516.13 555.41 514.77 585.16 C 484.47 582.30 454.20 579.04 423.93 575.87 C 425.48 542.47 425.25 509.03 426.43 475.62 C 429.94 485.96 434.41 496.85 443.72 503.31 C 447.87 506.56 454.78 506.48 458.23 502.24 C 463.68 494.95 464.52 485.67 466.69 477.15 C 474.89 454.64 470.58 430.15 468.03 406.95 C 466.33 395.70 466.42 384.02 462.84 373.16 C 459.06 368.67 452.88 367.42 447.56 365.78 C 443.05 364.04 437.81 364.94 434.37 368.32 C 432.79 370.95 432.96 374.20 432.44 377.10 C 431.63 385.76 428.55 393.96 426.44 402.35 C 425.52 385.38 426.78 368.35 425.45 351.41 C 424.59 345.14 415.89 341.54 411.02 346.00 C 405.95 349.09 407.58 356.09 406.98 360.97 C 406.76 411.93 407.43 462.90 406.72 513.86 C 404.49 536.18 408.98 559.30 402.30 581.08 C 400.92 586.57 400.59 592.26 401.02 597.89 C 400.85 607.33 399.04 616.64 397.93 625.99 C 386.64 625.96 375.35 626.00 364.07 625.99 C 365.80 618.56 367.47 611.11 368.52 603.55 C 370.50 591.29 368.88 578.62 372.56 566.62 C 376.13 548.32 379.13 529.91 382.58 511.59 C 389.29 474.11 387.93 435.85 390.16 397.99 C 391.17 385.06 393.46 372.17 392.79 359.16 C 392.05 351.83 382.62 348.89 377.34 353.36 C 373.21 357.66 374.54 364.29 373.46 369.66 C 368.73 411.87 371.29 454.55 365.63 496.68 C 361.59 520.81 356.26 544.74 353.88 569.12 C 324.21 567.52 294.72 563.22 265.88 556.05 C 267.13 529.82 265.07 503.11 271.37 477.38 C 281.29 432.84 290.32 387.91 305.94 344.92 C 310.45 333.82 317.51 322.78 328.98 317.95 C 343.63 312.51 359.44 312.32 374.68 309.67 M 328.48 364.66 C 325.48 365.20 322.61 366.41 320.06 368.07 C 311.35 372.25 309.26 382.26 304.94 389.97 C 295.79 408.38 290.45 429.96 296.77 450.14 C 300.13 458.89 305.77 467.71 314.97 471.09 C 319.46 473.41 325.48 473.77 329.67 470.64 C 336.16 465.74 337.37 457.10 339.93 449.91 C 344.08 434.73 348.02 419.45 350.83 403.97 C 350.67 391.66 352.38 376.84 342.77 367.26 C 339.12 363.52 333.20 363.76 328.48 364.66 Z" />
</g>
<g id="#ffffffff">
<path fill="#ffffff" opacity="1.00" d=" M 328.48 364.66 C 333.20 363.76 339.12 363.52 342.77 367.26 C 352.38 376.84 350.67 391.66 350.83 403.97 C 348.02 419.45 344.08 434.73 339.93 449.91 C 337.37 457.10 336.16 465.74 329.67 470.64 C 325.48 473.77 319.46 473.41 314.97 471.09 C 305.77 467.71 300.13 458.89 296.77 450.14 C 290.45 429.96 295.79 408.38 304.94 389.97 C 309.26 382.26 311.35 372.25 320.06 368.07 C 322.61 366.41 325.48 365.20 328.48 364.66 M 319.42 385.71 C 312.47 386.50 310.60 394.84 309.52 400.54 C 308.70 408.08 307.80 415.75 308.73 423.33 C 309.91 427.50 311.31 432.58 315.97 434.07 C 320.29 436.71 325.20 433.36 328.23 430.26 C 333.86 422.59 338.92 413.77 339.03 403.97 C 339.33 398.40 339.73 391.90 335.26 387.74 C 330.84 384.23 324.61 385.54 319.42 385.71 Z" />
<path fill="#ffffff" opacity="1.00" d=" M 434.37 368.32 C 437.81 364.94 443.05 364.04 447.56 365.78 C 452.88 367.42 459.06 368.67 462.84 373.16 C 466.42 384.02 466.33 395.70 468.03 406.95 C 470.58 430.15 474.89 454.64 466.69 477.15 C 464.52 485.67 463.68 494.95 458.23 502.24 C 454.78 506.48 447.87 506.56 443.72 503.31 C 434.41 496.85 429.94 485.96 426.43 475.62 C 425.65 451.24 425.53 426.71 426.44 402.35 C 428.55 393.96 431.63 385.76 432.44 377.10 C 432.96 374.20 432.79 370.95 434.37 368.32 M 444.40 397.45 C 436.80 399.58 435.21 408.96 432.43 415.21 C 431.42 427.74 431.21 440.59 432.94 453.06 C 437.84 464.09 457.68 458.53 457.98 447.05 C 458.40 433.43 458.44 419.73 456.55 406.21 C 455.98 400.39 450.12 396.14 444.40 397.45 Z" />
</g>
</svg>
