<?xml version="1.0" encoding="UTF-8" ?>
<!DOCTYPE svg PUBLIC "-//W3C//DTD SVG 1.1//EN" "http://www.w3.org/Graphics/SVG/1.1/DTD/svg11.dtd">
<svg width="512pt" height="512pt" viewBox="0 0 512 512" version="1.1" xmlns="http://www.w3.org/2000/svg">
<g id="#32302fff">
<path fill="#32302f" opacity="1.00" d=" M 336.35 200.43 C 338.42 195.50 341.29 190.51 345.95 187.62 C 345.90 195.91 346.98 204.62 343.42 212.41 C 341.58 216.13 341.95 220.32 342.01 224.34 C 345.99 221.79 349.18 218.25 353.16 215.71 C 352.76 220.76 352.07 225.98 349.37 230.38 C 347.87 233.53 344.64 235.18 342.00 237.22 C 342.00 239.57 341.99 241.92 342.00 244.27 C 345.51 241.08 349.18 238.05 353.10 235.36 C 353.10 240.01 352.00 244.67 349.70 248.73 C 348.03 252.28 344.59 254.45 342.21 257.46 C 341.89 259.40 341.99 261.37 341.96 263.34 C 345.97 260.85 349.14 257.29 353.10 254.74 C 353.21 263.09 349.57 272.03 342.00 276.24 C 341.99 278.60 341.99 280.96 342.00 283.33 C 345.68 279.96 349.24 275.95 354.19 274.51 C 352.67 278.96 351.95 283.69 350.01 287.99 C 347.76 291.46 344.44 294.12 341.00 296.34 C 340.99 299.82 341.22 303.31 340.75 306.76 C 339.70 300.97 338.87 295.08 338.93 289.18 C 336.34 287.44 333.33 286.13 331.33 283.66 C 329.17 278.94 327.55 273.90 326.72 268.76 C 331.24 270.85 335.18 273.95 338.94 277.19 C 339.01 274.88 339.10 272.57 339.45 270.28 C 335.36 268.40 331.84 265.17 329.95 261.06 C 327.96 257.18 327.25 252.83 325.77 248.75 C 330.95 251.17 335.29 254.94 339.59 258.62 C 339.26 256.21 339.12 253.76 338.72 251.36 C 336.45 248.27 332.24 247.02 330.62 243.38 C 328.49 239.01 327.83 234.11 326.79 229.41 C 331.71 232.02 335.76 235.89 340.10 239.33 C 339.37 236.68 338.94 233.98 338.81 231.24 C 335.45 229.03 332.04 226.44 330.29 222.70 C 328.29 218.60 327.70 214.00 326.05 209.76 C 331.13 212.36 335.33 216.28 340.08 219.38 C 337.18 213.52 334.61 207.06 336.35 200.43 M 338.16 212.80 C 339.97 211.44 342.31 210.32 343.02 207.99 C 344.68 203.29 344.09 198.20 343.69 193.34 C 337.13 197.43 336.77 205.99 338.16 212.80 M 330.00 213.58 C 331.41 219.17 332.35 227.28 339.27 228.49 C 338.20 222.51 334.56 217.44 330.00 213.58 M 343.33 227.36 C 342.03 229.52 342.15 232.15 341.87 234.58 C 346.94 232.14 349.54 226.90 350.20 221.53 C 347.65 223.10 344.93 224.72 343.33 227.36 M 329.91 233.69 C 330.76 238.73 332.85 243.43 335.88 247.54 C 336.73 247.38 338.44 247.08 339.29 246.92 C 337.68 241.59 334.35 237.02 329.91 233.69 M 341.71 254.24 C 343.70 252.76 345.88 251.40 347.37 249.35 C 349.16 246.73 349.54 243.48 350.09 240.43 C 344.80 243.01 342.30 248.65 341.71 254.24 M 330.07 252.57 C 330.55 255.41 330.80 258.36 332.02 261.00 C 333.42 263.67 335.98 265.43 338.27 267.28 C 338.26 261.22 334.44 256.33 330.07 252.57 M 341.80 273.55 C 347.37 271.21 349.19 265.14 350.20 259.72 C 345.58 262.93 341.88 267.69 341.80 273.55 M 329.89 272.73 C 330.80 278.46 333.21 284.05 338.12 287.45 C 337.87 284.75 338.19 281.76 336.61 279.39 C 334.81 276.77 332.28 274.77 329.89 272.73 M 343.95 284.94 C 342.65 287.56 343.11 290.61 342.98 293.44 C 346.80 289.76 349.27 284.98 350.17 279.77 C 347.98 281.32 345.45 282.64 343.95 284.94 Z" />
<path fill="#32302f" opacity="1.00" d=" M 392.22 189.11 C 393.14 189.52 394.07 189.91 395.00 190.31 C 394.96 195.88 395.07 201.45 395.01 207.01 C 395.06 211.43 391.49 214.59 389.39 218.13 C 393.93 215.63 398.36 212.90 403.14 210.87 C 402.52 216.61 402.69 223.10 398.79 227.78 C 396.72 230.50 392.98 230.31 390.00 231.25 C 390.00 233.55 389.99 235.85 390.00 238.15 C 394.13 235.33 398.03 231.86 402.98 230.55 C 403.35 236.09 402.12 241.71 399.68 246.67 C 397.37 250.37 392.47 249.87 388.82 251.14 C 389.27 253.13 389.77 255.10 390.22 257.10 C 394.45 254.43 398.63 251.66 403.14 249.50 C 402.39 255.13 402.43 261.31 399.26 266.23 C 396.96 269.71 392.68 270.32 388.84 270.17 C 389.35 272.45 389.86 274.74 390.19 277.06 C 394.25 273.99 398.51 271.18 403.04 268.85 C 403.32 274.61 402.29 280.50 399.67 285.66 C 397.79 289.18 393.58 289.34 390.16 290.21 C 388.81 295.31 389.17 300.57 388.67 305.77 C 387.30 300.75 388.25 295.47 388.00 290.33 C 384.85 289.68 381.39 289.25 378.79 287.23 C 374.94 281.92 374.65 275.12 373.82 268.85 C 378.74 270.96 382.93 274.39 387.82 276.52 C 387.92 274.73 387.99 272.95 388.06 271.16 C 384.20 270.05 379.55 269.50 377.33 265.66 C 374.78 260.74 374.11 255.03 373.89 249.56 C 378.71 251.43 382.79 254.64 387.18 257.31 C 387.65 255.37 387.98 253.40 388.23 251.42 C 386.39 251.02 384.55 250.61 382.74 250.10 C 384.60 248.25 387.82 246.38 386.94 243.29 C 385.75 238.33 380.65 236.06 376.62 233.79 C 377.50 239.69 379.55 245.31 382.05 250.69 C 374.92 246.79 375.08 237.57 373.82 230.56 C 378.67 231.61 382.60 234.72 386.62 237.43 C 387.23 235.63 387.82 233.82 388.35 232.00 C 384.77 230.63 380.09 230.77 377.79 227.22 C 375.05 222.15 373.98 216.31 373.89 210.60 C 378.74 212.51 383.17 215.28 387.41 218.29 C 385.87 215.32 383.03 213.04 382.10 209.80 C 382.02 206.35 381.14 202.36 383.40 199.41 C 386.21 195.87 389.03 192.33 392.22 189.11 M 383.95 209.90 C 384.94 213.77 391.35 214.44 392.61 210.50 C 394.21 204.68 392.95 198.57 391.85 192.78 C 387.05 196.85 381.49 203.17 383.95 209.90 M 376.77 214.69 C 377.10 218.12 377.48 221.66 379.10 224.77 C 380.14 226.71 381.24 229.48 383.94 229.10 C 387.21 229.62 387.54 225.50 386.90 223.23 C 385.95 218.33 380.94 216.23 376.77 214.69 M 390.95 222.00 C 389.80 224.10 389.16 227.29 391.30 229.01 C 393.13 229.27 395.19 228.97 396.51 227.55 C 399.77 224.11 400.44 219.18 401.22 214.70 C 397.28 216.21 393.02 218.07 390.95 222.00 M 390.29 242.43 C 389.05 245.23 390.63 248.99 393.92 249.19 C 399.03 246.27 400.00 239.89 401.14 234.64 C 396.80 235.83 391.78 237.70 390.29 242.43 M 389.99 265.77 C 390.31 269.16 394.80 268.44 396.33 266.35 C 399.54 262.63 400.15 257.53 401.18 252.90 C 395.98 255.26 388.87 258.92 389.99 265.77 M 375.97 253.67 C 377.52 258.99 378.36 265.35 383.04 268.95 C 385.89 267.92 388.13 264.50 386.60 261.55 C 384.70 257.21 380.19 255.12 375.97 253.67 M 376.69 273.00 C 377.50 277.79 378.22 282.91 381.20 286.92 C 382.67 288.83 385.34 287.08 387.31 287.14 C 386.89 284.33 387.16 281.10 385.24 278.77 C 382.94 276.13 379.69 274.66 376.69 273.00 M 390.60 280.69 C 389.03 283.49 390.91 286.46 391.88 289.10 C 394.27 287.10 396.89 285.18 398.38 282.37 C 399.98 279.38 400.50 275.97 401.15 272.68 C 397.02 274.29 392.49 276.37 390.60 280.69 Z" />
<path fill="#32302f" opacity="1.00" d=" M 150.29 193.35 C 154.55 199.30 155.40 206.92 154.99 214.04 C 159.17 211.77 163.60 209.95 168.16 208.62 C 166.43 212.07 164.84 215.60 162.97 218.99 C 160.19 223.60 155.41 226.30 150.99 229.10 C 151.00 231.47 151.00 233.83 151.00 236.20 C 155.75 231.54 161.90 228.92 168.15 226.95 C 166.29 230.23 164.78 233.69 162.97 236.99 C 160.43 241.11 156.27 243.77 152.41 246.50 C 151.17 248.36 150.62 250.56 149.80 252.61 C 150.36 253.03 151.47 253.88 152.03 254.30 C 156.39 249.57 162.29 246.71 168.40 245.00 C 164.91 253.71 158.82 261.69 150.56 266.29 C 150.89 268.57 150.98 270.87 151.04 273.17 C 156.11 268.66 161.98 265.15 168.41 262.96 C 166.68 266.68 164.93 270.39 162.97 273.99 C 160.19 278.63 155.15 281.03 150.96 284.17 C 151.00 286.29 151.05 288.40 151.14 290.53 C 156.24 286.61 161.99 283.46 168.16 281.58 C 165.41 286.59 163.83 292.53 159.25 296.27 C 157.46 297.90 155.15 298.76 153.26 300.25 C 150.22 302.42 151.11 306.69 149.47 309.72 C 149.15 307.60 149.07 305.46 148.69 303.36 C 146.59 299.98 142.64 298.73 139.75 296.25 C 135.71 291.83 133.80 286.01 130.83 280.90 C 137.37 283.49 143.55 286.91 148.82 291.61 C 148.97 288.90 149.01 286.18 149.01 283.47 C 144.12 280.78 139.03 277.88 136.03 272.98 C 134.20 269.66 132.68 266.19 130.84 262.87 C 137.41 265.42 143.89 268.49 149.16 273.27 C 149.04 270.57 148.76 267.84 147.70 265.33 C 144.69 261.97 140.06 260.35 137.53 256.49 C 134.74 253.42 133.58 249.39 131.98 245.66 C 138.54 247.02 144.33 250.78 149.15 255.32 C 149.04 252.61 148.77 249.86 147.70 247.34 C 145.30 244.66 141.94 243.10 139.32 240.67 C 135.80 236.72 133.62 231.84 131.65 226.99 C 138.22 228.49 143.59 232.58 148.85 236.57 C 148.98 233.85 149.01 231.14 149.02 228.43 C 145.42 226.74 141.63 225.08 138.82 222.19 C 135.69 218.13 133.60 213.38 131.57 208.69 C 136.64 210.08 141.39 212.42 145.71 215.40 C 146.47 207.91 147.35 200.35 150.29 193.35 M 148.62 205.17 C 148.38 209.04 149.04 212.90 149.62 216.72 C 154.30 212.15 153.32 205.06 152.24 199.25 C 150.76 201.01 148.68 202.67 148.62 205.17 M 135.81 212.58 C 137.14 215.62 138.46 218.79 140.76 221.25 C 142.74 223.39 145.57 224.39 148.22 225.43 C 146.70 219.23 142.01 214.23 135.81 212.58 M 155.29 217.28 C 153.17 219.87 152.01 223.07 150.76 226.13 C 156.44 223.39 161.78 219.17 163.43 212.79 C 160.54 213.86 157.33 214.79 155.29 217.28 M 150.64 244.06 C 153.37 242.78 156.32 241.68 158.42 239.43 C 160.72 237.01 162.02 233.89 163.32 230.88 C 157.30 233.12 152.69 237.99 150.64 244.06 M 136.49 231.68 C 138.01 237.43 142.43 241.93 148.20 243.42 C 147.19 240.73 146.34 237.82 144.27 235.72 C 142.14 233.63 139.20 232.75 136.49 231.68 M 135.65 248.89 C 137.99 254.81 142.22 260.10 148.36 262.32 C 147.10 255.74 141.50 251.35 135.65 248.89 M 155.74 253.73 C 153.55 256.22 152.33 259.36 151.00 262.35 C 153.94 261.01 157.10 259.78 159.29 257.30 C 161.49 254.80 162.68 251.64 163.99 248.63 C 161.06 249.98 157.92 251.24 155.74 253.73 M 135.68 266.85 C 137.90 272.80 141.67 278.77 148.27 280.33 C 146.54 274.02 141.73 269.15 135.68 266.85 M 155.28 272.26 C 153.29 274.66 152.23 277.65 151.06 280.50 C 153.80 279.25 156.66 278.00 158.80 275.80 C 161.04 273.55 162.17 270.50 163.38 267.63 C 160.53 268.83 157.35 269.81 155.28 272.26 M 136.00 285.63 C 137.22 288.42 138.32 291.34 140.28 293.72 C 142.32 296.14 145.45 297.11 148.27 298.28 C 147.11 295.43 146.05 292.39 143.80 290.20 C 141.62 288.05 138.73 286.89 136.00 285.63 M 150.93 298.48 C 157.21 297.05 161.33 291.70 163.34 285.88 C 157.56 288.06 152.92 292.59 150.93 298.48 Z" />
<path fill="#32302f" opacity="1.00" d=" M 239.11 205.20 C 240.39 200.29 244.21 196.40 248.86 194.51 C 249.93 204.16 247.99 213.81 244.03 222.62 C 248.70 219.48 252.80 215.37 258.25 213.53 C 257.26 217.80 256.79 222.45 254.01 226.02 C 250.55 231.17 245.82 235.54 243.49 241.37 C 248.33 237.97 252.70 233.76 258.24 231.48 C 257.26 238.96 254.12 246.32 248.23 251.25 C 245.65 253.23 244.49 256.25 243.65 259.29 C 248.35 256.39 252.45 252.42 257.78 250.65 C 256.92 254.82 256.49 259.31 253.86 262.84 C 251.32 266.95 247.23 269.74 244.22 273.46 C 243.95 275.08 243.98 276.72 243.92 278.36 C 247.99 274.17 252.71 270.55 258.25 268.54 C 257.14 277.78 252.22 286.66 244.00 291.34 C 243.92 296.82 244.21 302.30 243.86 307.77 C 242.77 304.75 242.29 301.56 241.60 298.43 C 239.17 295.21 235.75 292.80 233.74 289.24 C 231.19 285.61 231.13 281.06 230.22 276.89 C 234.63 279.04 238.75 281.67 242.05 285.35 C 241.99 283.40 242.14 281.42 241.72 279.50 C 238.25 274.87 233.50 270.92 231.81 265.18 C 230.82 262.72 231.00 260.05 231.02 257.46 C 235.10 259.55 238.24 262.92 241.86 265.64 C 241.92 263.57 242.18 261.48 241.80 259.44 C 238.95 255.88 234.75 253.37 232.96 249.03 C 231.26 245.78 230.78 242.12 230.94 238.50 C 235.56 240.15 238.52 244.18 241.99 247.39 C 241.98 245.08 242.18 242.75 241.77 240.47 C 238.57 236.89 235.01 233.55 232.66 229.32 C 231.05 226.05 231.03 222.33 230.25 218.83 C 234.40 220.82 238.50 223.36 241.05 227.30 C 241.49 226.95 242.36 226.24 242.80 225.88 C 240.75 219.20 238.16 212.31 239.11 205.20 M 241.70 204.76 C 240.13 209.27 241.28 214.08 242.41 218.54 C 246.70 212.44 246.85 204.68 246.99 197.51 C 244.85 199.60 242.54 201.78 241.70 204.76 M 243.79 233.56 C 249.94 230.31 253.96 224.10 255.47 217.42 C 248.86 220.15 244.34 226.43 243.79 233.56 M 232.84 222.40 C 233.73 227.99 236.97 232.79 241.21 236.43 C 241.44 230.50 238.25 224.93 232.84 222.40 M 243.78 251.54 C 249.94 248.38 254.13 242.32 255.32 235.54 C 248.72 238.20 244.38 244.51 243.78 251.54 M 232.72 242.45 C 234.14 247.54 237.02 252.18 241.25 255.41 C 240.46 250.22 238.83 243.47 232.72 242.45 M 243.73 270.32 C 249.56 266.18 253.68 260.12 256.07 253.45 C 248.96 256.09 244.71 263.03 243.73 270.32 M 232.79 261.43 C 233.72 266.82 236.98 271.41 241.42 274.52 C 240.93 268.97 238.01 263.76 232.79 261.43 M 243.74 287.09 C 245.03 287.00 246.32 286.91 247.62 286.82 C 250.75 282.32 253.93 277.74 255.41 272.38 C 249.05 274.79 245.61 280.92 243.74 287.09 M 232.62 280.72 C 233.81 285.56 236.30 289.90 239.04 294.01 C 240.11 293.57 241.18 293.13 242.26 292.70 C 240.41 287.78 237.50 283.11 232.62 280.72 Z" />
<path fill="#32302f" opacity="1.00" d=" M 291.16 195.01 C 292.49 194.99 293.83 194.97 295.17 194.95 C 296.32 199.48 297.54 204.14 296.90 208.85 C 296.34 212.48 295.38 216.05 294.85 219.69 C 299.82 216.55 303.14 211.11 309.14 209.57 C 309.09 212.27 308.92 215.07 307.37 217.39 C 304.06 223.62 296.30 225.85 293.37 232.34 C 296.55 231.09 298.95 228.65 301.27 226.23 C 303.40 223.88 306.42 222.76 309.27 221.56 C 308.79 227.24 305.84 232.85 301.00 236.01 C 297.66 238.37 294.55 241.38 293.56 245.50 C 298.63 241.30 302.78 235.74 309.23 233.50 C 309.20 242.92 299.71 247.42 294.63 254.05 C 294.67 254.64 294.76 255.82 294.80 256.41 C 299.47 252.62 303.01 246.92 309.24 245.52 C 309.06 250.58 306.77 255.61 302.58 258.58 C 298.97 261.18 295.61 264.32 293.60 268.36 C 298.94 264.70 303.30 259.78 309.08 256.75 C 309.85 261.99 307.06 266.86 303.16 270.13 C 299.43 273.00 295.52 276.03 293.38 280.34 C 299.20 276.86 303.41 271.06 309.99 268.83 C 308.81 273.47 307.05 278.14 303.67 281.65 C 299.86 284.79 295.60 287.78 293.38 292.34 C 298.97 288.89 303.26 283.70 309.17 280.72 C 309.30 285.59 307.41 290.47 303.72 293.69 C 300.96 295.96 297.99 297.98 295.35 300.40 C 293.84 304.15 293.80 308.19 295.16 311.99 C 294.37 311.99 292.79 312.00 292.00 312.01 C 292.00 308.06 292.00 304.11 292.00 300.17 C 284.05 296.54 277.75 289.47 275.70 280.90 C 283.02 282.36 286.82 289.18 292.31 293.48 C 292.35 287.94 287.01 285.66 283.39 282.60 C 280.50 280.63 279.06 277.36 277.35 274.45 C 276.38 272.58 277.48 270.47 277.87 268.60 C 283.38 271.75 286.81 277.49 292.55 280.34 C 290.52 274.14 283.33 272.21 280.16 266.84 C 278.45 264.34 276.83 261.76 275.53 259.02 C 277.53 259.02 279.56 258.87 281.55 259.21 C 284.61 261.76 287.14 264.88 290.16 267.49 C 289.34 265.54 289.03 263.12 287.00 262.01 C 281.99 258.50 278.81 253.11 275.88 247.90 C 276.52 246.78 277.35 245.53 278.85 245.96 C 284.29 248.63 287.69 253.90 292.44 257.50 C 291.44 253.38 288.34 250.37 285.00 248.01 C 280.02 244.75 277.45 239.04 275.64 233.59 C 283.09 234.48 286.98 241.31 292.44 245.50 C 291.58 242.15 289.46 239.33 286.59 237.44 C 281.41 234.03 278.22 228.42 275.86 222.83 C 278.16 223.02 280.70 222.82 282.63 224.35 C 286.11 227.16 288.84 230.81 292.45 233.50 C 291.10 228.16 286.41 224.86 282.29 221.69 C 278.77 219.05 277.38 214.70 275.61 210.86 C 277.99 211.04 280.65 210.74 282.64 212.36 C 285.65 214.79 288.14 217.79 290.99 220.40 C 291.69 211.90 288.23 203.35 291.16 195.01 M 292.09 199.02 C 292.02 203.96 290.82 209.65 294.68 213.56 C 295.14 208.73 295.08 203.88 294.95 199.04 C 294.23 199.04 292.80 199.03 292.09 199.02 M 278.81 214.21 C 281.77 218.03 285.34 221.31 289.32 224.04 C 286.97 220.01 284.02 216.39 281.03 212.83 C 280.47 213.18 279.36 213.87 278.81 214.21 M 295.60 225.06 C 300.45 222.65 304.44 218.69 306.34 213.54 C 301.56 216.04 297.76 220.12 295.60 225.06 M 279.76 225.64 C 281.56 230.30 285.02 233.98 288.79 237.15 C 289.14 236.59 289.84 235.48 290.18 234.92 C 287.15 231.37 283.90 227.89 279.76 225.64 M 295.97 236.43 C 300.83 234.43 304.86 230.64 306.38 225.51 C 301.75 227.85 298.33 231.89 295.97 236.43 M 279.64 236.70 C 281.00 241.65 284.44 245.64 289.29 247.42 C 286.97 243.13 283.53 239.59 279.64 236.70 M 296.68 248.07 C 301.51 245.69 305.50 241.75 307.00 236.46 C 302.49 239.24 299.18 243.47 296.68 248.07 M 296.84 259.35 C 301.98 257.37 305.52 252.96 307.31 247.85 C 303.08 250.93 299.28 254.68 296.84 259.35 M 279.59 248.87 C 280.93 253.98 284.73 257.84 289.42 260.06 C 287.38 255.40 283.79 251.66 279.59 248.87 M 279.68 260.87 C 281.63 265.83 285.11 270.17 290.04 272.43 C 287.58 267.78 283.95 263.89 279.68 260.87 M 296.00 272.44 C 300.53 269.65 304.40 265.73 306.44 260.75 C 302.13 263.81 298.45 267.74 296.00 272.44 M 295.64 285.03 C 300.76 282.30 304.81 277.94 306.90 272.50 C 302.14 275.63 298.22 279.94 295.64 285.03 M 279.63 273.52 C 281.21 278.15 284.79 281.60 289.27 283.43 C 287.13 279.23 283.88 275.64 279.63 273.52 M 295.88 296.37 C 301.12 294.17 304.76 289.63 307.06 284.57 C 302.21 287.25 298.35 291.42 295.88 296.37 M 279.84 285.48 C 281.97 290.20 285.38 294.37 290.22 296.48 C 287.93 291.87 284.45 287.86 279.84 285.48 Z" />
<path fill="#32302f" opacity="1.00" d=" M 447.98 197.00 C 448.72 195.80 449.95 195.10 451.08 194.31 C 451.15 197.77 450.25 201.10 449.45 204.44 C 447.86 212.74 447.01 221.19 444.86 229.38 C 451.58 223.40 458.85 218.06 466.00 212.61 C 464.65 216.53 463.68 220.72 461.03 224.03 C 455.83 231.36 446.06 235.67 444.63 245.35 C 451.70 239.68 459.50 234.95 466.05 228.63 C 464.28 233.36 463.25 238.76 459.29 242.27 C 454.93 246.91 449.77 250.87 446.15 256.15 C 444.90 257.60 445.06 259.59 444.78 261.37 C 452.25 256.32 458.68 249.88 465.99 244.60 C 464.29 249.61 463.05 255.22 458.79 258.77 C 453.63 264.57 445.85 269.05 444.62 277.37 C 452.61 272.82 458.68 265.69 466.32 260.65 C 464.93 264.84 463.51 269.20 460.74 272.70 C 456.88 276.87 452.65 280.66 448.73 284.76 C 446.42 287.08 445.31 290.26 444.63 293.39 C 448.35 291.31 451.40 288.29 454.87 285.86 C 458.88 283.13 461.80 279.12 465.97 276.60 C 464.65 280.09 463.96 283.87 462.18 287.16 C 457.53 292.49 451.96 296.96 447.39 302.37 C 444.16 306.01 444.66 311.16 443.46 315.60 C 442.51 311.46 442.72 306.65 439.75 303.29 C 437.27 300.43 435.21 297.12 432.00 295.00 C 426.14 290.83 421.55 284.10 421.88 276.67 C 425.65 282.42 431.72 285.84 436.99 290.01 C 439.04 291.60 441.16 293.12 443.44 294.38 C 441.47 289.25 438.66 284.15 434.01 280.99 C 427.71 276.33 421.89 269.86 421.80 261.56 C 428.25 268.08 436.08 272.95 443.45 278.34 C 440.44 268.96 432.17 263.12 425.72 256.24 C 422.35 252.93 422.21 247.91 421.18 243.59 C 427.76 250.77 435.70 256.49 443.42 262.36 C 441.92 258.82 440.57 255.01 437.78 252.25 C 433.80 248.20 429.68 244.30 425.72 240.24 C 422.35 236.93 422.21 231.91 421.19 227.58 C 427.71 234.55 435.09 240.93 443.45 245.56 C 440.83 237.32 433.31 232.36 427.72 226.26 C 423.95 222.74 421.49 217.82 421.89 212.57 C 428.07 218.87 434.93 224.45 442.07 229.63 C 441.84 222.89 440.02 216.14 441.35 209.40 C 442.50 204.78 445.29 200.84 447.98 197.00 M 443.35 222.60 C 445.81 216.53 446.41 209.93 446.88 203.46 C 441.86 208.58 442.68 216.08 443.35 222.60 M 426.71 221.67 C 431.09 226.99 436.03 231.85 441.29 236.31 C 439.95 228.85 433.58 223.88 426.71 221.67 M 450.26 227.27 C 447.85 229.40 446.76 232.53 445.51 235.40 C 450.99 231.82 456.18 227.45 459.51 221.73 C 456.20 223.16 452.97 224.87 450.26 227.27 M 445.62 251.30 C 451.64 247.79 456.53 242.57 460.57 236.94 C 454.02 239.70 447.71 244.16 445.62 251.30 M 427.43 237.93 C 431.21 243.46 436.24 248.02 441.35 252.29 C 440.52 249.52 439.87 246.42 437.60 244.44 C 434.59 241.73 431.10 239.60 427.43 237.93 M 445.63 268.28 C 450.99 263.93 455.88 258.98 460.29 253.67 C 453.52 255.95 446.89 260.80 445.63 268.28 M 427.53 254.54 C 431.58 259.31 435.83 264.07 441.08 267.56 C 438.77 261.41 434.00 256.28 427.53 254.54 M 445.48 284.50 C 450.84 280.00 455.84 275.06 460.29 269.66 C 453.47 271.95 447.15 277.26 445.48 284.50 M 427.42 270.55 C 430.88 275.43 435.46 279.48 440.51 282.66 C 438.75 276.50 433.39 272.29 427.42 270.55 M 445.46 300.48 C 450.84 296.03 455.81 291.07 460.27 285.69 C 453.63 288.40 447.31 293.20 445.46 300.48 M 427.48 286.48 C 430.61 292.39 436.46 295.94 441.36 300.21 C 439.51 293.47 433.90 288.73 427.48 286.48 Z" />
<path fill="#32302f" opacity="1.00" d=" M 98.02 205.20 C 98.59 202.14 101.28 200.35 103.71 198.79 C 104.60 201.93 106.79 205.15 105.66 208.51 C 102.98 216.40 100.64 225.13 103.23 233.35 C 106.58 228.62 109.39 223.10 108.87 217.12 C 110.37 217.37 111.87 217.61 113.38 217.85 C 113.70 214.35 113.91 210.84 113.98 207.33 C 112.07 210.18 110.39 213.19 109.15 216.40 C 109.05 214.09 108.79 211.75 109.19 209.45 C 110.60 207.69 112.29 206.19 113.91 204.62 C 115.69 208.66 117.36 213.64 114.69 217.70 C 110.58 224.39 106.61 231.19 103.25 238.28 C 101.02 244.26 102.56 250.47 103.37 256.53 C 107.06 251.85 109.08 245.95 109.00 239.99 C 109.11 237.07 108.50 233.85 110.28 231.29 C 111.51 230.08 113.14 229.40 114.61 228.54 C 115.55 231.85 116.48 235.28 115.94 238.75 C 115.08 240.81 113.59 242.53 112.40 244.40 C 109.23 248.79 107.25 253.87 104.49 258.51 C 102.82 262.58 101.32 267.11 102.39 271.54 C 103.05 274.50 103.00 277.55 103.14 280.57 C 104.98 276.51 108.24 272.71 108.00 268.03 C 107.87 264.11 108.41 260.22 109.34 256.43 C 110.70 254.42 112.65 252.92 114.50 251.40 C 115.66 255.53 117.53 260.70 114.41 264.43 C 110.88 269.17 108.99 274.85 105.80 279.80 C 103.52 283.42 101.58 287.57 101.99 291.96 C 102.30 295.87 103.14 299.71 103.38 303.63 C 105.89 299.96 107.56 295.78 108.44 291.44 C 109.46 287.83 108.58 284.02 109.31 280.39 C 110.43 278.02 112.03 275.93 113.43 273.73 C 114.09 275.04 114.77 276.35 115.47 277.65 C 113.94 278.23 112.41 278.83 110.89 279.43 C 111.00 282.53 111.14 285.64 111.37 288.74 C 113.48 285.71 114.98 282.27 115.34 278.57 C 116.36 281.77 116.56 285.52 114.21 288.22 C 110.31 293.30 108.19 299.40 104.79 304.79 C 102.34 308.29 103.07 312.84 101.49 316.70 C 100.96 313.10 100.88 309.28 98.96 306.07 C 96.23 301.71 94.12 297.00 91.31 292.69 C 89.44 289.36 86.52 286.13 86.93 282.05 C 86.86 279.22 88.66 276.86 89.80 274.40 C 91.45 276.72 93.49 278.79 94.72 281.38 C 95.45 285.48 94.64 289.68 95.14 293.81 C 95.72 297.10 97.79 299.79 99.63 302.48 C 101.25 297.56 101.31 292.31 100.85 287.20 C 98.96 281.51 95.13 276.75 92.67 271.32 C 91.43 268.37 89.30 265.96 87.62 263.28 C 85.84 259.48 87.63 255.22 89.10 251.61 C 90.66 253.15 92.35 254.61 93.65 256.40 C 95.90 260.90 94.57 266.01 95.14 270.80 C 96.12 273.94 97.89 276.77 99.58 279.58 C 100.14 273.30 102.72 266.47 99.52 260.49 C 97.00 256.23 94.91 251.73 92.66 247.33 C 91.10 244.25 88.76 241.65 87.27 238.55 C 85.90 234.66 88.45 231.07 90.17 227.78 C 91.98 230.71 95.30 233.19 95.01 236.97 C 95.41 241.76 93.80 247.08 96.66 251.35 C 97.63 253.09 98.78 254.72 99.85 256.40 C 101.47 251.24 101.33 245.66 100.66 240.37 C 97.14 231.65 91.16 224.13 87.33 215.55 C 86.09 212.18 87.43 208.78 89.37 206.00 C 90.02 205.99 91.31 205.96 91.96 205.95 C 92.94 208.37 94.07 210.74 94.83 213.24 C 95.28 216.75 94.74 220.30 95.14 223.81 C 95.88 227.34 98.16 230.24 99.77 233.39 C 101.36 227.69 101.56 221.59 100.11 215.84 C 99.53 212.27 97.53 208.90 98.02 205.20 M 100.69 201.53 C 99.97 205.24 99.86 209.03 100.20 212.79 C 102.30 210.61 103.89 208.03 105.11 205.27 C 103.63 204.02 102.17 202.77 100.69 201.53 M 90.20 207.38 C 89.45 210.49 88.98 213.65 88.66 216.83 C 90.20 217.25 91.75 217.67 93.31 218.08 C 92.72 214.40 91.80 210.76 90.20 207.38 M 88.62 231.81 C 88.86 235.77 89.49 239.93 92.64 242.70 C 92.89 239.85 93.03 237.00 93.13 234.15 C 91.63 233.37 90.12 232.59 88.62 231.81 M 110.39 235.22 C 110.25 237.70 111.02 240.12 111.49 242.54 C 113.85 239.32 114.33 235.34 114.08 231.46 C 112.86 232.68 110.99 233.53 110.39 235.22 M 89.19 254.39 C 89.03 257.21 88.96 260.04 88.92 262.87 C 90.37 263.61 91.82 264.36 93.28 265.10 C 92.83 261.24 91.91 257.32 89.19 254.39 M 110.90 255.67 C 110.94 259.26 111.01 262.86 111.25 266.45 C 113.10 263.18 114.44 259.67 115.47 256.07 C 113.95 255.93 112.42 255.80 110.90 255.67 M 88.61 278.87 C 89.17 282.49 90.06 286.06 91.40 289.48 C 92.33 286.44 92.95 283.33 93.41 280.19 C 91.81 279.75 90.21 279.30 88.61 278.87 Z" />
<path fill="#32302f" opacity="1.00" d=" M 186.00 216.09 C 187.69 211.31 189.27 206.42 192.20 202.22 C 192.93 204.67 193.42 207.21 194.39 209.59 C 195.76 211.52 197.56 213.08 199.20 214.78 C 196.44 220.89 192.02 226.26 190.85 233.00 C 192.14 233.00 193.43 233.00 194.72 233.01 C 195.50 229.35 195.64 225.21 198.26 222.29 C 200.48 219.68 202.49 216.91 204.94 214.50 C 205.06 220.25 204.98 226.00 205.00 231.76 C 200.80 233.08 196.64 234.58 193.01 237.13 C 193.52 243.14 192.09 249.02 191.87 254.99 C 192.57 254.99 193.96 255.00 194.66 255.00 C 195.38 248.00 200.04 242.23 204.97 237.55 C 205.04 243.01 204.97 248.48 205.02 253.94 C 201.79 257.37 195.98 256.36 193.31 260.34 C 191.05 266.11 191.70 272.66 193.34 278.51 C 194.59 275.96 195.62 273.31 196.73 270.71 C 198.63 266.45 202.33 263.46 205.00 259.73 C 205.01 265.50 204.99 271.27 205.01 277.04 C 201.43 278.43 197.62 279.34 194.33 281.36 C 192.81 283.25 193.03 285.73 192.99 287.99 C 193.13 292.24 191.80 296.36 191.94 300.62 C 195.83 299.56 194.56 295.04 196.31 292.29 C 198.37 288.70 201.21 285.62 203.25 282.01 C 203.93 282.00 205.29 281.97 205.97 281.95 C 204.09 287.42 205.95 293.35 204.01 298.80 C 200.11 300.09 195.88 301.01 193.00 304.19 C 193.00 309.13 193.00 314.06 193.00 319.01 C 192.50 319.01 191.50 319.01 191.00 319.01 C 190.82 311.57 191.81 303.87 189.34 296.71 C 186.15 294.82 182.44 294.08 179.00 292.78 C 179.01 287.04 178.96 281.29 179.03 275.55 C 182.69 279.13 186.52 283.01 187.89 288.09 C 188.52 289.98 189.18 291.86 189.95 293.71 C 190.25 288.32 189.47 282.86 190.60 277.54 C 191.35 274.21 189.93 270.93 189.59 267.64 C 185.86 266.55 182.02 265.47 178.99 262.93 C 179.03 257.43 178.91 251.94 179.09 246.45 C 184.05 251.62 187.38 257.99 189.98 264.60 C 190.05 256.16 189.97 247.73 190.00 239.29 C 186.41 237.66 182.69 236.38 178.99 235.03 C 179.01 229.55 178.98 224.07 179.01 218.60 C 182.38 221.72 185.89 225.03 187.54 229.43 C 188.29 231.88 188.92 234.36 189.88 236.74 C 190.05 232.23 190.20 227.70 189.87 223.20 C 189.19 220.56 187.54 218.30 186.00 216.09 M 191.04 209.38 C 190.48 211.54 190.04 213.73 189.68 215.94 C 191.26 215.94 192.84 215.94 194.42 215.94 C 193.34 213.73 192.22 211.53 191.04 209.38 M 199.91 226.73 C 201.94 225.12 203.20 222.85 204.17 220.49 C 202.19 222.14 200.72 224.28 199.91 226.73 M 179.90 224.50 C 180.70 227.03 181.46 229.97 184.53 230.45 C 183.46 228.13 181.79 226.19 179.90 224.50 M 198.81 248.70 C 199.77 249.06 200.73 249.44 201.70 249.82 C 202.38 247.72 203.16 245.66 203.93 243.60 C 202.21 245.28 200.52 246.99 198.81 248.70 M 181.00 253.75 C 181.00 255.50 181.00 257.25 181.01 259.00 C 182.41 259.00 183.80 259.00 185.20 259.00 C 183.76 257.27 182.36 255.53 181.00 253.75 M 199.55 272.44 C 201.65 270.96 203.21 268.90 204.29 266.58 C 202.25 268.12 200.45 270.01 199.55 272.44 M 181.18 281.49 C 181.08 282.91 180.99 284.33 180.91 285.76 C 182.07 286.61 183.24 287.46 184.42 288.30 C 183.44 285.98 182.35 283.72 181.18 281.49 M 199.91 293.73 C 201.93 292.12 203.20 289.85 204.17 287.49 C 202.19 289.14 200.72 291.28 199.91 293.73 Z" />
<path fill="#32302f" opacity="1.00" d=" M 55.05 206.23 C 57.38 205.39 59.71 204.57 62.05 203.76 C 61.91 206.72 62.58 210.06 60.58 212.58 C 57.63 216.51 56.81 221.44 56.06 226.18 C 55.65 228.69 56.51 231.13 57.24 233.49 C 60.14 227.84 62.45 221.53 67.75 217.60 C 68.75 219.77 70.65 221.99 69.88 224.55 C 66.80 228.58 61.38 230.41 59.29 235.27 C 56.66 239.51 56.18 244.82 57.32 249.62 C 60.14 245.71 61.49 241.01 64.02 236.95 C 66.50 236.99 68.97 237.03 71.44 237.13 C 70.50 244.73 61.39 246.26 58.96 252.96 C 56.33 257.80 57.30 263.45 56.14 268.66 C 59.32 264.75 61.81 260.22 62.31 255.13 C 64.60 254.31 66.89 253.51 69.18 252.70 C 69.65 254.64 69.98 256.62 70.23 258.60 C 66.79 261.74 62.37 263.80 59.77 267.81 C 56.17 272.66 56.97 278.96 57.04 284.62 C 59.38 280.65 61.09 276.35 63.39 272.37 C 64.80 270.66 67.11 270.04 68.95 268.89 C 69.33 270.98 70.77 273.32 69.42 275.33 C 68.44 277.60 66.33 279.01 64.42 280.44 C 61.26 282.68 58.96 285.94 57.30 289.41 C 56.62 293.43 57.07 297.56 57.05 301.62 C 59.73 297.25 61.37 292.33 64.02 287.95 C 66.49 287.98 68.97 288.02 71.44 288.13 C 70.59 294.88 62.96 296.52 59.75 301.75 C 55.79 308.03 56.03 315.65 55.77 322.76 C 54.83 319.60 55.18 316.18 53.90 313.10 C 51.60 308.01 46.91 304.71 43.04 300.90 C 43.77 299.12 44.47 297.32 45.25 295.56 C 47.11 296.66 49.54 297.32 50.60 299.38 C 51.80 302.45 52.62 305.66 53.88 308.71 C 53.80 303.96 54.84 299.09 53.72 294.41 C 51.75 290.15 47.79 287.20 44.00 284.65 C 44.00 282.29 44.03 279.93 44.11 277.57 C 46.46 278.39 49.39 278.93 50.63 281.37 C 51.77 284.46 52.28 287.76 53.71 290.75 C 53.87 286.26 54.70 281.69 53.90 277.22 C 51.95 272.01 46.96 269.09 42.89 265.69 C 43.38 263.47 43.86 261.24 44.16 258.99 C 46.69 260.81 49.46 262.28 52.00 264.10 C 52.00 266.73 52.00 269.37 52.01 272.00 C 52.76 272.00 54.26 272.00 55.01 272.01 C 55.04 267.24 55.38 262.21 53.23 257.81 C 51.02 253.30 46.29 251.11 42.91 247.65 C 43.38 245.45 43.86 243.24 44.15 241.00 C 46.64 243.15 50.73 243.85 51.70 247.37 C 52.18 249.54 52.00 251.79 52.09 254.00 C 52.82 254.00 54.30 254.00 55.03 254.00 C 55.18 249.26 55.02 244.37 53.03 239.97 C 51.28 235.14 46.13 233.15 42.84 229.58 C 43.62 227.56 44.38 225.54 45.23 223.55 C 47.34 224.71 49.94 225.61 51.06 227.94 C 52.46 230.38 51.90 233.31 52.09 236.00 C 52.82 236.00 54.27 236.00 55.00 236.00 C 54.87 227.66 55.36 219.29 54.59 210.96 C 54.66 209.38 54.90 207.80 55.05 206.23 M 55.62 213.43 C 58.08 211.76 60.15 209.50 60.25 206.36 C 57.76 207.98 56.11 210.49 55.62 213.43 M 62.62 225.52 C 63.83 226.04 65.04 226.57 66.25 227.11 C 67.01 225.25 67.70 223.38 68.31 221.47 C 66.33 222.70 64.45 224.08 62.62 225.52 M 45.09 226.90 C 45.50 228.24 45.90 229.59 46.29 230.94 C 46.97 230.97 48.32 231.03 48.99 231.05 C 48.99 229.72 48.99 228.38 48.98 227.05 C 47.68 227.00 46.38 226.95 45.09 226.90 M 63.76 244.51 C 65.94 242.69 67.49 240.29 68.44 237.61 C 65.46 238.78 63.93 241.39 63.76 244.51 M 45.90 244.98 C 46.40 246.76 46.89 248.54 47.38 250.32 C 47.98 248.56 48.58 246.80 49.19 245.04 C 48.36 245.02 46.72 244.99 45.90 244.98 M 64.01 257.36 C 64.07 258.75 64.13 260.14 64.21 261.53 C 65.86 259.48 67.32 257.28 68.58 254.97 C 67.05 255.75 65.53 256.56 64.01 257.36 M 44.70 264.19 C 46.15 265.60 47.61 267.00 49.09 268.39 C 48.64 266.51 48.17 264.65 47.71 262.78 C 46.71 263.24 45.70 263.71 44.70 264.19 M 62.91 276.72 C 63.95 277.15 65.00 277.58 66.05 278.02 C 66.50 275.80 66.91 273.58 67.27 271.35 C 65.77 273.10 64.35 274.92 62.91 276.72 M 44.69 282.19 C 46.15 283.60 47.61 285.00 49.09 286.39 C 48.64 284.52 48.17 282.65 47.71 280.78 C 46.70 281.25 45.70 281.71 44.69 282.19 M 63.89 289.09 C 64.44 290.80 64.99 292.52 65.55 294.24 C 66.73 292.47 67.91 290.70 69.12 288.96 C 67.37 288.99 65.63 289.03 63.89 289.09 M 44.57 299.14 C 45.80 300.76 47.07 302.35 48.54 303.77 C 48.75 302.15 48.96 300.54 49.15 298.93 C 47.62 298.99 46.10 299.06 44.57 299.14 Z" />
<path fill="#32302f" opacity="1.00" d=" M 497.21 204.93 C 499.31 205.96 501.39 207.04 503.42 208.23 C 502.42 210.94 501.02 213.51 500.25 216.30 C 499.63 220.73 500.03 225.24 500.20 229.70 C 501.46 227.75 503.09 225.93 503.80 223.69 C 504.26 220.22 503.98 216.70 504.00 213.21 C 506.18 212.71 508.34 212.18 510.53 211.71 C 511.01 212.99 511.51 214.26 512.00 215.55 L 512.00 216.79 C 507.42 222.16 503.22 227.98 500.39 234.46 C 499.47 239.83 500.05 245.36 500.28 250.78 C 502.46 247.59 504.38 244.00 504.00 240.00 C 503.67 236.62 505.00 233.54 506.97 230.89 C 508.62 232.03 510.30 233.15 512.00 234.25 L 512.00 237.24 C 507.88 243.13 502.94 248.65 500.40 255.48 C 499.47 260.77 500.14 266.20 500.05 271.55 C 501.98 268.58 504.27 265.58 504.67 261.94 C 504.56 259.60 504.08 257.30 503.81 254.98 C 506.21 252.72 509.28 252.84 512.00 254.45 L 512.00 258.10 C 507.75 263.94 503.08 269.69 500.40 276.47 C 499.47 281.79 500.12 287.27 500.11 292.65 C 502.10 289.05 504.37 285.30 503.99 281.00 C 503.65 277.85 504.74 274.94 506.97 272.71 C 508.65 273.81 510.34 274.93 512.00 276.08 L 512.00 278.49 C 507.86 284.28 502.84 289.65 500.43 296.47 C 499.47 304.56 499.16 312.72 498.56 320.84 C 497.17 313.72 498.64 306.43 497.78 299.27 C 496.71 295.63 494.66 292.37 493.01 288.98 C 490.71 284.22 486.34 280.57 485.44 275.16 C 488.35 275.03 491.26 274.99 494.17 274.97 C 493.76 277.87 492.79 280.76 493.10 283.73 C 494.02 286.99 496.16 289.72 497.98 292.53 C 497.94 285.55 498.92 278.04 495.34 271.69 C 492.06 266.03 487.54 261.04 485.49 254.72 C 488.35 254.21 491.26 253.98 494.16 253.83 C 493.78 256.77 492.78 259.70 493.14 262.70 C 493.95 265.50 495.51 268.01 496.85 270.59 C 498.16 265.69 498.57 260.45 497.61 255.45 C 495.05 249.72 491.27 244.57 487.44 239.62 C 486.44 237.79 486.13 235.69 485.49 233.73 C 488.36 233.21 491.28 232.97 494.19 232.82 C 493.91 235.82 493.04 238.77 493.15 241.79 C 493.74 245.17 495.91 247.94 497.82 250.69 C 498.30 243.08 498.68 234.65 493.84 228.21 C 490.76 223.22 484.53 218.38 486.85 211.85 C 489.14 212.59 491.53 213.00 493.82 213.78 C 491.74 219.79 494.29 225.85 497.73 230.76 C 498.02 226.52 498.17 222.25 498.00 218.00 C 498.02 214.65 495.64 212.05 494.07 209.29 C 495.10 207.83 496.15 206.37 497.21 204.93 M 496.52 208.63 C 497.02 209.73 497.53 210.85 498.17 211.90 C 499.20 211.71 500.23 211.48 501.26 211.22 C 500.80 209.81 500.33 208.40 499.88 206.98 C 498.76 207.53 497.63 208.08 496.52 208.63 M 487.47 217.80 C 488.97 217.90 490.47 218.00 491.97 218.10 C 492.11 216.61 492.12 215.14 492.00 213.67 C 489.46 213.53 487.96 215.55 487.47 217.80 M 504.95 214.00 C 505.83 215.72 506.69 217.46 507.53 219.20 C 508.33 217.46 509.16 215.72 510.02 214.00 C 508.32 214.00 506.63 214.00 504.95 214.00 M 505.99 235.00 C 506.00 235.75 506.00 237.25 506.00 238.00 C 506.75 238.00 508.26 238.00 509.01 238.01 C 509.00 237.25 509.00 235.75 508.99 235.00 C 508.24 235.00 506.74 235.00 505.99 235.00 M 487.71 236.01 C 487.87 236.69 488.19 238.05 488.34 238.73 C 490.23 240.06 491.52 237.40 492.75 236.34 C 491.06 236.19 489.39 236.08 487.71 236.01 M 487.36 258.33 C 488.67 258.93 489.98 259.55 491.29 260.17 C 491.65 258.30 491.94 256.43 492.20 254.56 C 489.88 254.78 488.12 256.13 487.36 258.33 M 506.00 255.00 C 505.99 256.33 505.99 257.66 506.00 259.00 C 507.33 259.00 508.66 259.00 510.00 259.00 C 509.99 257.67 509.99 256.33 510.00 255.00 C 508.66 255.00 507.33 255.00 506.00 255.00 M 505.90 275.90 C 505.99 277.44 506.09 278.99 506.20 280.53 C 508.54 280.06 510.07 278.54 510.53 276.20 C 508.98 276.09 507.44 275.99 505.90 275.90 M 488.01 277.00 C 488.00 277.75 487.98 279.26 487.97 280.02 C 489.31 280.00 490.65 280.00 492.00 279.99 C 492.00 279.24 492.00 277.75 492.00 277.00 C 490.66 277.00 489.33 277.00 488.01 277.00 Z" />
<path fill="#32302f" opacity="1.00" d=" M 15.78 206.94 C 16.51 206.96 17.99 206.99 18.72 207.00 C 19.43 211.06 20.57 215.04 20.98 219.14 C 21.45 223.33 19.70 227.28 18.70 231.26 C 23.78 228.56 28.52 225.16 34.08 223.48 C 31.79 227.39 29.94 231.58 27.17 235.19 C 24.79 238.32 21.12 239.96 17.95 242.13 C 18.00 244.23 18.05 246.34 18.12 248.46 C 23.47 245.77 28.43 242.26 34.26 240.62 C 32.32 243.91 30.53 247.29 28.55 250.56 C 26.35 254.04 22.47 255.85 19.81 258.87 C 18.73 261.17 18.53 263.78 17.85 266.22 C 23.05 263.33 28.14 260.21 33.44 257.50 C 32.04 260.95 30.58 264.41 28.58 267.57 C 25.98 271.46 21.89 273.86 18.31 276.70 C 17.51 278.75 18.64 281.00 18.91 283.09 C 23.55 280.00 28.37 277.18 33.39 274.78 C 31.73 278.77 30.27 283.01 27.28 286.25 C 24.68 289.27 21.39 291.56 18.00 293.60 C 18.00 295.86 18.02 298.13 18.06 300.40 C 23.15 297.49 28.20 294.51 33.36 291.74 C 32.03 295.70 30.56 299.69 28.03 303.07 C 25.64 306.63 21.67 308.59 18.00 310.54 C 18.00 314.70 18.00 318.85 18.00 323.01 C 17.50 323.02 16.50 323.02 16.01 323.02 C 16.00 318.88 16.00 314.74 16.00 310.61 C 8.03 307.24 3.56 299.50 0.57 291.81 C 5.93 294.22 11.02 297.18 15.89 300.48 C 15.96 298.05 16.00 295.62 16.03 293.19 C 12.87 291.37 9.41 289.85 6.86 287.17 C 3.95 283.56 2.11 279.25 0.00 275.16 L 0.00 274.33 C 5.28 277.35 10.54 280.38 16.00 283.06 C 16.00 280.80 16.00 278.54 16.00 276.28 C 11.95 273.71 7.58 271.17 5.04 266.95 C 3.43 264.20 1.97 261.37 0.52 258.54 C 5.72 259.59 10.22 262.46 14.59 265.33 C 15.04 263.13 15.54 260.94 16.05 258.76 C 12.07 256.75 8.01 254.31 5.56 250.45 C 3.51 247.45 2.02 244.11 0.55 240.79 C 5.67 242.45 9.98 245.70 14.55 248.43 C 15.09 246.43 15.65 244.44 16.19 242.44 C 12.78 240.06 9.02 237.92 6.54 234.49 C 3.90 231.18 2.13 227.31 0.00 223.68 L 0.00 222.65 C 5.03 225.65 10.27 228.29 15.16 231.54 C 14.02 223.39 12.92 214.89 15.78 206.94 M 15.74 210.96 C 14.67 215.30 14.81 219.80 14.62 224.24 C 15.46 224.17 17.15 224.02 18.00 223.95 C 17.88 219.55 19.13 214.49 15.74 210.96 M 5.56 228.47 C 7.78 232.67 10.79 236.66 15.34 238.50 C 14.85 236.75 14.52 234.92 13.62 233.33 C 11.45 230.99 8.39 229.79 5.56 228.47 M 17.76 238.39 C 23.45 238.26 26.45 232.99 28.52 228.44 C 24.01 230.59 20.08 233.90 17.76 238.39 M 5.58 245.90 C 7.55 250.40 10.98 254.09 15.46 256.16 C 14.79 254.08 14.48 251.71 12.85 250.12 C 10.81 248.14 8.11 247.08 5.58 245.90 M 17.80 255.39 C 19.78 254.92 21.88 254.69 23.69 253.68 C 26.03 251.63 27.07 248.56 28.33 245.80 C 23.98 247.95 20.35 251.27 17.80 255.39 M 5.58 262.89 C 7.45 267.46 10.53 271.65 15.29 273.46 C 14.57 271.12 14.23 268.41 12.31 266.69 C 10.37 264.95 7.91 263.98 5.58 262.89 M 21.68 266.66 C 19.55 268.59 19.30 271.63 18.64 274.25 C 23.50 271.83 26.87 267.46 29.19 262.67 C 26.58 263.77 23.79 264.71 21.68 266.66 M 5.54 280.64 C 7.39 285.30 10.90 289.04 15.39 291.26 C 14.81 289.05 14.60 286.63 13.24 284.74 C 11.23 282.53 8.21 281.75 5.54 280.64 M 21.26 284.26 C 19.66 286.22 19.39 288.87 18.68 291.23 C 23.17 289.11 26.58 285.37 28.14 280.64 C 25.78 281.68 23.21 282.50 21.26 284.26 M 5.63 296.89 C 7.70 301.30 10.76 305.36 15.29 307.45 C 14.57 305.13 14.27 302.38 12.22 300.80 C 10.24 299.16 7.90 298.05 5.63 296.89 M 18.65 307.36 C 21.02 306.30 23.62 305.39 25.39 303.38 C 26.99 301.53 27.62 299.10 28.45 296.86 C 24.01 299.04 20.09 302.46 18.65 307.36 Z" />
<path fill="#32302f" opacity="1.00" d=" M 421.24 260.24 C 421.81 260.82 421.81 260.82 421.24 260.24 Z" />
</g>
<g id="#30702fff">
<path fill="#30702f" opacity="1.00" d=" M 383.95 209.90 C 381.49 203.17 387.05 196.85 391.85 192.78 C 392.95 198.57 394.21 204.68 392.61 210.50 C 391.35 214.44 384.94 213.77 383.95 209.90 Z" />
<path fill="#30702f" opacity="1.00" d=" M 376.77 214.69 C 380.94 216.23 385.95 218.33 386.90 223.23 C 387.54 225.50 387.21 229.62 383.94 229.10 C 381.24 229.48 380.14 226.71 379.10 224.77 C 377.48 221.66 377.10 218.12 376.77 214.69 Z" />
<path fill="#30702f" opacity="1.00" d=" M 390.95 222.00 C 393.02 218.07 397.28 216.21 401.22 214.70 C 400.44 219.18 399.77 224.11 396.51 227.55 C 395.19 228.97 393.13 229.27 391.30 229.01 C 389.16 227.29 389.80 224.10 390.95 222.00 Z" />
<path fill="#30702f" opacity="1.00" d=" M 376.62 233.79 C 380.65 236.06 385.75 238.33 386.94 243.29 C 387.82 246.38 384.60 248.25 382.74 250.10 L 382.05 250.69 C 379.55 245.31 377.50 239.69 376.62 233.79 Z" />
<path fill="#30702f" opacity="1.00" d=" M 390.29 242.43 C 391.78 237.70 396.80 235.83 401.14 234.64 C 400.00 239.89 399.03 246.27 393.92 249.19 C 390.63 248.99 389.05 245.23 390.29 242.43 Z" />
<path fill="#30702f" opacity="1.00" d=" M 389.99 265.77 C 388.87 258.92 395.98 255.26 401.18 252.90 C 400.15 257.53 399.54 262.63 396.33 266.35 C 394.80 268.44 390.31 269.16 389.99 265.77 Z" />
<path fill="#30702f" opacity="1.00" d=" M 375.97 253.67 C 380.19 255.12 384.70 257.21 386.60 261.55 C 388.13 264.50 385.89 267.92 383.04 268.95 C 378.36 265.35 377.52 258.99 375.97 253.67 Z" />
<path fill="#30702f" opacity="1.00" d=" M 376.69 273.00 C 379.69 274.66 382.94 276.13 385.24 278.77 C 387.16 281.10 386.89 284.33 387.31 287.14 C 385.34 287.08 382.67 288.83 381.20 286.92 C 378.22 282.91 377.50 277.79 376.69 273.00 Z" />
<path fill="#30702f" opacity="1.00" d=" M 390.60 280.69 C 392.49 276.37 397.02 274.29 401.15 272.68 C 400.50 275.97 399.98 279.38 398.38 282.37 C 396.89 285.18 394.27 287.10 391.88 289.10 C 390.91 286.46 389.03 283.49 390.60 280.69 Z" />
</g>
<g id="#56695bff">
<path fill="#56695b" opacity="1.00" d=" M 338.16 212.80 C 336.77 205.99 337.13 197.43 343.69 193.34 C 344.09 198.20 344.68 203.29 343.02 207.99 C 342.31 210.32 339.97 211.44 338.16 212.80 Z" />
<path fill="#56695b" opacity="1.00" d=" M 90.20 207.38 C 91.80 210.76 92.72 214.40 93.31 218.08 C 91.75 217.67 90.20 217.25 88.66 216.83 C 88.98 213.65 89.45 210.49 90.20 207.38 Z" />
<path fill="#56695b" opacity="1.00" d=" M 109.15 216.40 C 110.39 213.19 112.07 210.18 113.98 207.33 C 113.91 210.84 113.70 214.35 113.38 217.85 C 111.87 217.61 110.37 217.37 108.87 217.12 L 109.15 216.40 Z" />
<path fill="#56695b" opacity="1.00" d=" M 330.00 213.58 C 334.56 217.44 338.20 222.51 339.27 228.49 C 332.35 227.28 331.41 219.17 330.00 213.58 Z" />
<path fill="#56695b" opacity="1.00" d=" M 343.33 227.36 C 344.93 224.72 347.65 223.10 350.20 221.53 C 349.54 226.90 346.94 232.14 341.87 234.58 C 342.15 232.15 342.03 229.52 343.33 227.36 Z" />
<path fill="#56695b" opacity="1.00" d=" M 88.62 231.81 C 90.12 232.59 91.63 233.37 93.13 234.15 C 93.03 237.00 92.89 239.85 92.64 242.70 C 89.49 239.93 88.86 235.77 88.62 231.81 Z" />
<path fill="#56695b" opacity="1.00" d=" M 110.39 235.22 C 110.99 233.53 112.86 232.68 114.08 231.46 C 114.33 235.34 113.85 239.32 111.49 242.54 C 111.02 240.12 110.25 237.70 110.39 235.22 Z" />
<path fill="#56695b" opacity="1.00" d=" M 329.91 233.69 C 334.35 237.02 337.68 241.59 339.29 246.92 C 338.44 247.08 336.73 247.38 335.88 247.54 C 332.85 243.43 330.76 238.73 329.91 233.69 Z" />
<path fill="#56695b" opacity="1.00" d=" M 341.71 254.24 C 342.30 248.65 344.80 243.01 350.09 240.43 C 349.54 243.48 349.16 246.73 347.37 249.35 C 345.88 251.40 343.70 252.76 341.71 254.24 Z" />
<path fill="#56695b" opacity="1.00" d=" M 5.58 245.90 C 8.11 247.08 10.81 248.14 12.85 250.12 C 14.48 251.71 14.79 254.08 15.46 256.16 C 10.98 254.09 7.55 250.40 5.58 245.90 Z" />
<path fill="#56695b" opacity="1.00" d=" M 17.80 255.39 C 20.35 251.27 23.98 247.95 28.33 245.80 C 27.07 248.56 26.03 251.63 23.69 253.68 C 21.88 254.69 19.78 254.92 17.80 255.39 Z" />
<path fill="#56695b" opacity="1.00" d=" M 330.07 252.57 C 334.44 256.33 338.26 261.22 338.27 267.28 C 335.98 265.43 333.42 263.67 332.02 261.00 C 330.80 258.36 330.55 255.41 330.07 252.57 Z" />
<path fill="#56695b" opacity="1.00" d=" M 89.19 254.39 C 91.91 257.32 92.83 261.24 93.28 265.10 C 91.82 264.36 90.37 263.61 88.92 262.87 C 88.96 260.04 89.03 257.21 89.19 254.39 Z" />
<path fill="#56695b" opacity="1.00" d=" M 110.90 255.67 C 112.42 255.80 113.95 255.93 115.47 256.07 C 114.44 259.67 113.10 263.18 111.25 266.45 C 111.01 262.86 110.94 259.26 110.90 255.67 Z" />
<path fill="#56695b" opacity="1.00" d=" M 341.80 273.55 C 341.88 267.69 345.58 262.93 350.20 259.72 C 349.19 265.14 347.37 271.21 341.80 273.55 Z" />
<path fill="#56695b" opacity="1.00" d=" M 5.58 262.89 C 7.91 263.98 10.37 264.95 12.31 266.69 C 14.23 268.41 14.57 271.12 15.29 273.46 C 10.53 271.65 7.45 267.46 5.58 262.89 Z" />
<path fill="#56695b" opacity="1.00" d=" M 21.68 266.66 C 23.79 264.71 26.58 263.77 29.19 262.67 C 26.87 267.46 23.50 271.83 18.64 274.25 C 19.30 271.63 19.55 268.59 21.68 266.66 Z" />
<path fill="#56695b" opacity="1.00" d=" M 329.89 272.73 C 332.28 274.77 334.81 276.77 336.61 279.39 C 338.19 281.76 337.87 284.75 338.12 287.45 C 333.21 284.05 330.80 278.46 329.89 272.73 Z" />
<path fill="#56695b" opacity="1.00" d=" M 110.89 279.43 C 112.41 278.83 113.94 278.23 115.47 277.65 L 115.34 278.57 C 114.98 282.27 113.48 285.71 111.37 288.74 C 111.14 285.64 111.00 282.53 110.89 279.43 Z" />
<path fill="#56695b" opacity="1.00" d=" M 88.61 278.87 C 90.21 279.30 91.81 279.75 93.41 280.19 C 92.95 283.33 92.33 286.44 91.40 289.48 C 90.06 286.06 89.17 282.49 88.61 278.87 Z" />
<path fill="#56695b" opacity="1.00" d=" M 343.95 284.94 C 345.45 282.64 347.98 281.32 350.17 279.77 C 349.27 284.98 346.80 289.76 342.98 293.44 C 343.11 290.61 342.65 287.56 343.95 284.94 Z" />
<path fill="#56695b" opacity="1.00" d=" M 5.54 280.64 C 8.21 281.75 11.23 282.53 13.24 284.74 C 14.60 286.63 14.81 289.05 15.39 291.26 C 10.90 289.04 7.39 285.30 5.54 280.64 Z" />
<path fill="#56695b" opacity="1.00" d=" M 21.26 284.26 C 23.21 282.50 25.78 281.68 28.14 280.64 C 26.58 285.37 23.17 289.11 18.68 291.23 C 19.39 288.87 19.66 286.22 21.26 284.26 Z" />
<path fill="#56695b" opacity="1.00" d=" M 5.63 296.89 C 7.90 298.05 10.24 299.16 12.22 300.80 C 14.27 302.38 14.57 305.13 15.29 307.45 C 10.76 305.36 7.70 301.30 5.63 296.89 Z" />
<path fill="#56695b" opacity="1.00" d=" M 18.65 307.36 C 20.09 302.46 24.01 299.04 28.45 296.86 C 27.62 299.10 26.99 301.53 25.39 303.38 C 23.62 305.39 21.02 306.30 18.65 307.36 Z" />
</g>
<g id="#3e805aff">
<path fill="#3e805a" opacity="1.00" d=" M 241.70 204.76 C 242.54 201.78 244.85 199.60 246.99 197.51 C 246.85 204.68 246.70 212.44 242.41 218.54 C 241.28 214.08 240.13 209.27 241.70 204.76 Z" />
<path fill="#3e805a" opacity="1.00" d=" M 292.09 199.02 C 292.80 199.03 294.23 199.04 294.95 199.04 C 295.08 203.88 295.14 208.73 294.68 213.56 C 290.82 209.65 292.02 203.96 292.09 199.02 Z" />
<path fill="#3e805a" opacity="1.00" d=" M 148.62 205.17 C 148.68 202.67 150.76 201.01 152.24 199.25 C 153.32 205.06 154.30 212.15 149.62 216.72 C 149.04 212.90 148.38 209.04 148.62 205.17 Z" />
<path fill="#3e805a" opacity="1.00" d=" M 135.81 212.58 C 142.01 214.23 146.70 219.23 148.22 225.43 C 145.57 224.39 142.74 223.39 140.76 221.25 C 138.46 218.79 137.14 215.62 135.81 212.58 Z" />
<path fill="#3e805a" opacity="1.00" d=" M 155.29 217.28 C 157.33 214.79 160.54 213.86 163.43 212.79 C 161.78 219.17 156.44 223.39 150.76 226.13 C 152.01 223.07 153.17 219.87 155.29 217.28 Z" />
<path fill="#3e805a" opacity="1.00" d=" M 278.81 214.21 C 279.36 213.87 280.47 213.18 281.03 212.83 C 284.02 216.39 286.97 220.01 289.32 224.04 C 285.34 221.31 281.77 218.03 278.81 214.21 Z" />
<path fill="#3e805a" opacity="1.00" d=" M 295.60 225.06 C 297.76 220.12 301.56 216.04 306.34 213.54 C 304.44 218.69 300.45 222.65 295.60 225.06 Z" />
<path fill="#3e805a" opacity="1.00" d=" M 243.79 233.56 C 244.34 226.43 248.86 220.15 255.47 217.42 C 253.96 224.10 249.94 230.31 243.79 233.56 Z" />
<path fill="#3e805a" opacity="1.00" d=" M 232.84 222.40 C 238.25 224.93 241.44 230.50 241.21 236.43 C 236.97 232.79 233.73 227.99 232.84 222.40 Z" />
<path fill="#3e805a" opacity="1.00" d=" M 279.76 225.64 C 283.90 227.89 287.15 231.37 290.18 234.92 C 289.84 235.48 289.14 236.59 288.79 237.15 C 285.02 233.98 281.56 230.30 279.76 225.64 Z" />
<path fill="#3e805a" opacity="1.00" d=" M 295.97 236.43 C 298.33 231.89 301.75 227.85 306.38 225.51 C 304.86 230.64 300.83 234.43 295.97 236.43 Z" />
<path fill="#3e805a" opacity="1.00" d=" M 150.64 244.06 C 152.69 237.99 157.30 233.12 163.32 230.88 C 162.02 233.89 160.72 237.01 158.42 239.43 C 156.32 241.68 153.37 242.78 150.64 244.06 Z" />
<path fill="#3e805a" opacity="1.00" d=" M 136.49 231.68 C 139.20 232.75 142.14 233.63 144.27 235.72 C 146.34 237.82 147.19 240.73 148.20 243.42 C 142.43 241.93 138.01 237.43 136.49 231.68 Z" />
<path fill="#3e805a" opacity="1.00" d=" M 243.78 251.54 C 244.38 244.51 248.72 238.20 255.32 235.54 C 254.13 242.32 249.94 248.38 243.78 251.54 Z" />
<path fill="#3e805a" opacity="1.00" d=" M 279.64 236.70 C 283.53 239.59 286.97 243.13 289.29 247.42 C 284.44 245.64 281.00 241.65 279.64 236.70 Z" />
<path fill="#3e805a" opacity="1.00" d=" M 296.68 248.07 C 299.18 243.47 302.49 239.24 307.00 236.46 C 305.50 241.75 301.51 245.69 296.68 248.07 Z" />
<path fill="#3e805a" opacity="1.00" d=" M 232.72 242.45 C 238.83 243.47 240.46 250.22 241.25 255.41 C 237.02 252.18 234.14 247.54 232.72 242.45 Z" />
<path fill="#3e805a" opacity="1.00" d=" M 296.84 259.35 C 299.28 254.68 303.08 250.93 307.31 247.85 C 305.52 252.96 301.98 257.37 296.84 259.35 Z" />
<path fill="#3e805a" opacity="1.00" d=" M 135.65 248.89 C 141.50 251.35 147.10 255.74 148.36 262.32 C 142.22 260.10 137.99 254.81 135.65 248.89 Z" />
<path fill="#3e805a" opacity="1.00" d=" M 155.74 253.73 C 157.92 251.24 161.06 249.98 163.99 248.63 C 162.68 251.64 161.49 254.80 159.29 257.30 C 157.10 259.78 153.94 261.01 151.00 262.35 C 152.33 259.36 153.55 256.22 155.74 253.73 Z" />
<path fill="#3e805a" opacity="1.00" d=" M 279.59 248.87 C 283.79 251.66 287.38 255.40 289.42 260.06 C 284.73 257.84 280.93 253.98 279.59 248.87 Z" />
<path fill="#3e805a" opacity="1.00" d=" M 243.73 270.32 C 244.71 263.03 248.96 256.09 256.07 253.45 C 253.68 260.12 249.56 266.18 243.73 270.32 Z" />
<path fill="#3e805a" opacity="1.00" d=" M 279.68 260.87 C 283.95 263.89 287.58 267.78 290.04 272.43 C 285.11 270.17 281.63 265.83 279.68 260.87 Z" />
<path fill="#3e805a" opacity="1.00" d=" M 296.00 272.44 C 298.45 267.74 302.13 263.81 306.44 260.75 C 304.40 265.73 300.53 269.65 296.00 272.44 Z" />
<path fill="#3e805a" opacity="1.00" d=" M 232.79 261.43 C 238.01 263.76 240.93 268.97 241.42 274.52 C 236.98 271.41 233.72 266.82 232.79 261.43 Z" />
<path fill="#3e805a" opacity="1.00" d=" M 135.68 266.85 C 141.73 269.15 146.54 274.02 148.27 280.33 C 141.67 278.77 137.90 272.80 135.68 266.85 Z" />
<path fill="#3e805a" opacity="1.00" d=" M 155.28 272.26 C 157.35 269.81 160.53 268.83 163.38 267.63 C 162.17 270.50 161.04 273.55 158.80 275.80 C 156.66 278.00 153.80 279.25 151.06 280.50 C 152.23 277.65 153.29 274.66 155.28 272.26 Z" />
<path fill="#3e805a" opacity="1.00" d=" M 243.74 287.09 C 245.61 280.92 249.05 274.79 255.41 272.38 C 253.93 277.74 250.75 282.32 247.62 286.82 C 246.32 286.91 245.03 287.00 243.74 287.09 Z" />
<path fill="#3e805a" opacity="1.00" d=" M 295.64 285.03 C 298.22 279.94 302.14 275.63 306.90 272.50 C 304.81 277.94 300.76 282.30 295.64 285.03 Z" />
<path fill="#3e805a" opacity="1.00" d=" M 279.63 273.52 C 283.88 275.64 287.13 279.23 289.27 283.43 C 284.79 281.60 281.21 278.15 279.63 273.52 Z" />
<path fill="#3e805a" opacity="1.00" d=" M 232.62 280.72 C 237.50 283.11 240.41 287.78 242.26 292.70 C 241.18 293.13 240.11 293.57 239.04 294.01 C 236.30 289.90 233.81 285.56 232.62 280.72 Z" />
<path fill="#3e805a" opacity="1.00" d=" M 295.88 296.37 C 298.35 291.42 302.21 287.25 307.06 284.57 C 304.76 289.63 301.12 294.17 295.88 296.37 Z" />
<path fill="#3e805a" opacity="1.00" d=" M 136.00 285.63 C 138.73 286.89 141.62 288.05 143.80 290.20 C 146.05 292.39 147.11 295.43 148.27 298.28 C 145.45 297.11 142.32 296.14 140.28 293.72 C 138.32 291.34 137.22 288.42 136.00 285.63 Z" />
<path fill="#3e805a" opacity="1.00" d=" M 150.93 298.48 C 152.92 292.59 157.56 288.06 163.34 285.88 C 161.33 291.70 157.21 297.05 150.93 298.48 Z" />
<path fill="#3e805a" opacity="1.00" d=" M 279.84 285.48 C 284.45 287.86 287.93 291.87 290.22 296.48 C 285.38 294.37 281.97 290.20 279.84 285.48 Z" />
</g>
<g id="#6c976fff">
<path fill="#6c976f" opacity="1.00" d=" M 100.69 201.53 C 102.17 202.77 103.63 204.02 105.11 205.27 C 103.89 208.03 102.30 210.61 100.20 212.79 C 99.86 209.03 99.97 205.24 100.69 201.53 Z" />
<path fill="#6c976f" opacity="1.00" d=" M 443.35 222.60 C 442.68 216.08 441.86 208.58 446.88 203.46 C 446.41 209.93 445.81 216.53 443.35 222.60 Z" />
<path fill="#6c976f" opacity="1.00" d=" M 15.74 210.96 C 19.13 214.49 17.88 219.55 18.00 223.95 C 17.15 224.02 15.46 224.17 14.62 224.24 C 14.81 219.80 14.67 215.30 15.74 210.96 Z" />
<path fill="#6c976f" opacity="1.00" d=" M 426.71 221.67 C 433.58 223.88 439.95 228.85 441.29 236.31 C 436.03 231.85 431.09 226.99 426.71 221.67 Z" />
<path fill="#6c976f" opacity="1.00" d=" M 450.26 227.27 C 452.97 224.87 456.20 223.16 459.51 221.73 C 456.18 227.45 450.99 231.82 445.51 235.40 C 446.76 232.53 447.85 229.40 450.26 227.27 Z" />
<path fill="#6c976f" opacity="1.00" d=" M 5.56 228.47 C 8.39 229.79 11.45 230.99 13.62 233.33 C 14.52 234.92 14.85 236.75 15.34 238.50 C 10.79 236.66 7.78 232.67 5.56 228.47 Z" />
<path fill="#6c976f" opacity="1.00" d=" M 17.76 238.39 C 20.08 233.90 24.01 230.59 28.52 228.44 C 26.45 232.99 23.45 238.26 17.76 238.39 Z" />
<path fill="#6c976f" opacity="1.00" d=" M 445.62 251.30 C 447.71 244.16 454.02 239.70 460.57 236.94 C 456.53 242.57 451.64 247.79 445.62 251.30 Z" />
<path fill="#6c976f" opacity="1.00" d=" M 427.43 237.93 C 431.10 239.60 434.59 241.73 437.60 244.44 C 439.87 246.42 440.52 249.52 441.35 252.29 C 436.24 248.02 431.21 243.46 427.43 237.93 Z" />
<path fill="#6c976f" opacity="1.00" d=" M 445.63 268.28 C 446.89 260.80 453.52 255.95 460.29 253.67 C 455.88 258.98 450.99 263.93 445.63 268.28 Z" />
<path fill="#6c976f" opacity="1.00" d=" M 427.53 254.54 C 434.00 256.28 438.77 261.41 441.08 267.56 C 435.83 264.07 431.58 259.31 427.53 254.54 Z" />
<path fill="#6c976f" opacity="1.00" d=" M 445.48 284.50 C 447.15 277.26 453.47 271.95 460.29 269.66 C 455.84 275.06 450.84 280.00 445.48 284.50 Z" />
<path fill="#6c976f" opacity="1.00" d=" M 427.42 270.55 C 433.39 272.29 438.75 276.50 440.51 282.66 C 435.46 279.48 430.88 275.43 427.42 270.55 Z" />
<path fill="#6c976f" opacity="1.00" d=" M 445.46 300.48 C 447.31 293.20 453.63 288.40 460.27 285.69 C 455.81 291.07 450.84 296.03 445.46 300.48 Z" />
<path fill="#6c976f" opacity="1.00" d=" M 427.48 286.48 C 433.90 288.73 439.51 293.47 441.36 300.21 C 436.46 295.94 430.61 292.39 427.48 286.48 Z" />
</g>
<g id="#ca3135ff">
<path fill="#ca3135" opacity="1.00" d=" M 55.62 213.43 C 56.11 210.49 57.76 207.98 60.25 206.36 C 60.15 209.50 58.08 211.76 55.62 213.43 Z" />
<path fill="#ca3135" opacity="1.00" d=" M 62.62 225.52 C 64.45 224.08 66.33 222.70 68.31 221.47 C 67.70 223.38 67.01 225.25 66.25 227.11 C 65.04 226.57 63.83 226.04 62.62 225.52 Z" />
<path fill="#ca3135" opacity="1.00" d=" M 45.09 226.90 C 46.38 226.95 47.68 227.00 48.98 227.05 C 48.99 228.38 48.99 229.72 48.99 231.05 C 48.32 231.03 46.97 230.97 46.29 230.94 C 45.90 229.59 45.50 228.24 45.09 226.90 Z" />
<path fill="#ca3135" opacity="1.00" d=" M 63.76 244.51 C 63.93 241.39 65.46 238.78 68.44 237.61 C 67.49 240.29 65.94 242.69 63.76 244.51 Z" />
<path fill="#ca3135" opacity="1.00" d=" M 45.90 244.98 C 46.72 244.99 48.36 245.02 49.19 245.04 C 48.58 246.80 47.98 248.56 47.38 250.32 C 46.89 248.54 46.40 246.76 45.90 244.98 Z" />
<path fill="#ca3135" opacity="1.00" d=" M 64.01 257.36 C 65.53 256.56 67.05 255.75 68.58 254.97 C 67.32 257.28 65.86 259.48 64.21 261.53 C 64.13 260.14 64.07 258.75 64.01 257.36 Z" />
<path fill="#ca3135" opacity="1.00" d=" M 44.70 264.19 C 45.70 263.71 46.71 263.24 47.71 262.78 C 48.17 264.65 48.64 266.51 49.09 268.39 C 47.61 267.00 46.15 265.60 44.70 264.19 Z" />
<path fill="#ca3135" opacity="1.00" d=" M 62.91 276.72 C 64.35 274.92 65.77 273.10 67.27 271.35 C 66.91 273.58 66.50 275.80 66.05 278.02 C 65.00 277.58 63.95 277.15 62.91 276.72 Z" />
<path fill="#ca3135" opacity="1.00" d=" M 44.69 282.19 C 45.70 281.71 46.70 281.25 47.71 280.78 C 48.17 282.65 48.64 284.52 49.09 286.39 C 47.61 285.00 46.15 283.60 44.69 282.19 Z" />
<path fill="#ca3135" opacity="1.00" d=" M 63.89 289.09 C 65.63 289.03 67.37 288.99 69.12 288.96 C 67.91 290.70 66.73 292.47 65.55 294.24 C 64.99 292.52 64.44 290.80 63.89 289.09 Z" />
<path fill="#ca3135" opacity="1.00" d=" M 44.57 299.14 C 46.10 299.06 47.62 298.99 49.15 298.93 C 48.96 300.54 48.75 302.15 48.54 303.77 C 47.07 302.35 45.80 300.76 44.57 299.14 Z" />
</g>
<g id="#d9c054ff">
<path fill="#d9c054" opacity="1.00" d=" M 496.52 208.63 C 497.63 208.08 498.76 207.53 499.88 206.98 C 500.33 208.40 500.80 209.81 501.26 211.22 C 500.23 211.48 499.20 211.71 498.17 211.90 C 497.53 210.85 497.02 209.73 496.52 208.63 Z" />
<path fill="#d9c054" opacity="1.00" d=" M 487.47 217.80 C 487.96 215.55 489.46 213.53 492.00 213.67 C 492.12 215.14 492.11 216.61 491.97 218.10 C 490.47 218.00 488.97 217.90 487.47 217.80 Z" />
<path fill="#d9c054" opacity="1.00" d=" M 504.95 214.00 C 506.63 214.00 508.32 214.00 510.02 214.00 C 509.16 215.72 508.33 217.46 507.53 219.20 C 506.69 217.46 505.83 215.72 504.95 214.00 Z" />
<path fill="#d9c054" opacity="1.00" d=" M 505.99 235.00 C 506.74 235.00 508.24 235.00 508.99 235.00 C 509.00 235.75 509.00 237.25 509.01 238.01 C 508.26 238.00 506.75 238.00 506.00 238.00 C 506.00 237.25 506.00 235.75 505.99 235.00 Z" />
<path fill="#d9c054" opacity="1.00" d=" M 487.71 236.01 C 489.39 236.08 491.06 236.19 492.75 236.34 C 491.52 237.40 490.23 240.06 488.34 238.73 C 488.19 238.05 487.87 236.69 487.71 236.01 Z" />
<path fill="#d9c054" opacity="1.00" d=" M 487.36 258.33 C 488.12 256.13 489.88 254.78 492.20 254.56 C 491.94 256.43 491.65 258.30 491.29 260.17 C 489.98 259.55 488.67 258.93 487.36 258.33 Z" />
<path fill="#d9c054" opacity="1.00" d=" M 506.00 255.00 C 507.33 255.00 508.66 255.00 510.00 255.00 C 509.99 256.33 509.99 257.67 510.00 259.00 C 508.66 259.00 507.33 259.00 506.00 259.00 C 505.99 257.66 505.99 256.33 506.00 255.00 Z" />
<path fill="#d9c054" opacity="1.00" d=" M 505.90 275.90 C 507.44 275.99 508.98 276.09 510.53 276.20 C 510.07 278.54 508.54 280.06 506.20 280.53 C 506.09 278.99 505.99 277.44 505.90 275.90 Z" />
<path fill="#d9c054" opacity="1.00" d=" M 488.01 277.00 C 489.33 277.00 490.66 277.00 492.00 277.00 C 492.00 277.75 492.00 279.24 492.00 279.99 C 490.65 280.00 489.31 280.00 487.97 280.02 C 487.98 279.26 488.00 277.75 488.01 277.00 Z" />
</g>
<g id="#8ec07cff">
<path fill="#8ec07c" opacity="1.00" d=" M 191.04 209.38 C 192.22 211.53 193.34 213.73 194.42 215.94 C 192.84 215.94 191.26 215.94 189.68 215.94 C 190.04 213.73 190.48 211.54 191.04 209.38 Z" />
<path fill="#8ec07c" opacity="1.00" d=" M 199.91 226.73 C 200.72 224.28 202.19 222.14 204.17 220.49 C 203.20 222.85 201.94 225.12 199.91 226.73 Z" />
<path fill="#8ec07c" opacity="1.00" d=" M 179.90 224.50 C 181.79 226.19 183.46 228.13 184.53 230.45 C 181.46 229.97 180.70 227.03 179.90 224.50 Z" />
<path fill="#8ec07c" opacity="1.00" d=" M 198.81 248.70 C 200.52 246.99 202.21 245.28 203.93 243.60 C 203.16 245.66 202.38 247.72 201.70 249.82 C 200.73 249.44 199.77 249.06 198.81 248.70 Z" />
<path fill="#8ec07c" opacity="1.00" d=" M 181.00 253.75 C 182.36 255.53 183.76 257.27 185.20 259.00 C 183.80 259.00 182.41 259.00 181.01 259.00 C 181.00 257.25 181.00 255.50 181.00 253.75 Z" />
<path fill="#8ec07c" opacity="1.00" d=" M 199.55 272.44 C 200.45 270.01 202.25 268.12 204.29 266.58 C 203.21 268.90 201.65 270.96 199.55 272.44 Z" />
<path fill="#8ec07c" opacity="1.00" d=" M 181.18 281.49 C 182.35 283.72 183.44 285.98 184.42 288.30 C 183.24 287.46 182.07 286.61 180.91 285.76 C 180.99 284.33 181.08 282.91 181.18 281.49 Z" />
<path fill="#8ec07c" opacity="1.00" d=" M 199.91 293.73 C 200.72 291.28 202.19 289.14 204.17 287.49 C 203.20 289.85 201.93 292.12 199.91 293.73 Z" />
</g>
</svg>
